<svg xmlns="http://www.w3.org/2000/svg" viewBox="0 0 483 236.69"><defs><style>.cls-1,.cls-5{fill:none;stroke:#0077c8;}.cls-2{fill:#fff;}.cls-3{fill:#b7b8ba;}.cls-4{fill:#00263e;}.cls-5{stroke-width:3.58px;}.cls-6{fill:#304b61;}.cls-7{fill:#7a8a99;}.cls-8{fill:#0077c8;}.cls-9{fill:#004987;}.cls-10{fill:#006937;}.cls-11{fill:#ffe800;}.cls-12{fill:#4b3d2a;}</style></defs><title>Asset 2</title><g id="Layer_2" data-name="Layer 2"><g id="Layer_1-2" data-name="Layer 1"><line class="cls-1" x1="100.03" x2="100.03" y2="200.71"/><line class="cls-1" x1="194.57" x2="194.57" y2="200.71"/><line class="cls-1" x1="288.62" x2="288.62" y2="200.71"/><line class="cls-1" x1="382.67" x2="382.67" y2="200.71"/><line class="cls-1" x1="476.72" x2="476.72" y2="200.71"/><path class="cls-2" d="M18.93,65.46h3.29V63.92H20.54V62.43H22V60.92H20.54V59.46h1.65V57.93H18.93Zm-3,0h1.62v-6h1V57.93h-3.6v1.54h1Zm-3,.09a2,2,0,0,0,2-2.12v0c0-1-.36-1.49-1.38-2.49-.51-.52-.66-.72-.66-1h0a.52.52,0,0,1,.57-.53,2.28,2.28,0,0,1,1.17.37V58.11a3.18,3.18,0,0,0-1.33-.27,2,2,0,0,0-2,2.12v0c0,1,.43,1.54,1.38,2.45.51.49.66.76.66,1h0a.54.54,0,0,1-.61.56,2.71,2.71,0,0,1-1.33-.45v1.6a3.11,3.11,0,0,0,1.52.39M8.43,62.73l.36-2.37.36,2.37Zm-2,2.73H8l.2-1.35H9.35l.21,1.35h1.61L9.74,57.91H7.89Zm-5.28,0H2.85l.55-3.8.54,3.8H5.63l1.16-7.55H5.14l-.47,4.32-.56-4.32H2.72l-.57,4.32-.47-4.32H0Z"/><path class="cls-2" d="M16.13,50.66v.39c0,1.63-.46,2.08-1,2.08V48.57c.59,0,1,.42,1,2.09m-2.67,4H15c1.83,0,2.81-1.25,2.81-3.59v-.36c0-2.34-1-3.58-2.81-3.58H13.46Zm-2.71-1.36c-.36,0-.58-.38-.58-2.16v-.51c0-1.76.22-2.16.58-2.16s.57.4.57,2.16v.51c0,1.78-.21,2.16-.57,2.16m0,1.5c1.36,0,2.22-1.23,2.22-3.67v-.48c0-2.45-.86-3.66-2.22-3.66s-2.23,1.21-2.23,3.66v.48c0,2.44.86,3.67,2.23,3.67m-4.83-1.5c-.36,0-.58-.38-.58-2.16v-.51c0-1.76.22-2.16.58-2.16s.57.4.57,2.16v.51c0,1.78-.22,2.16-.57,2.16m0,1.5c1.35,0,2.21-1.23,2.21-3.67v-.48c0-2.45-.86-3.66-2.21-3.66s-2.23,1.21-2.23,3.66v.48c0,2.44.86,3.67,2.23,3.67M.31,54.62H1.93v-3H3.26V50.1H1.93V48.61H3.44V47.09H.31Z"/><path class="cls-3" d="M198.79,210.71c-.3,0-.5-.32-.5-2.09V208c0-1.78.2-2.1.5-2.1s.51.32.51,2.1v.64c0,1.77-.21,2.09-.51,2.09m0,1.5c1.34,0,2.11-1.18,2.11-3.68v-.47c0-2.5-.76-3.66-2.1-3.66s-2.12,1.17-2.12,3.67v.47c0,2.51.76,3.67,2.11,3.67m-4.6-1.5c-.3,0-.51-.32-.51-2.09V208c0-1.78.21-2.1.51-2.1s.5.32.5,2.1v.64c0,1.77-.2,2.09-.5,2.09m0,1.5c1.33,0,2.11-1.18,2.11-3.68v-.47c0-2.5-.77-3.66-2.1-3.66s-2.12,1.17-2.12,3.67v.47c0,2.51.75,3.67,2.11,3.67m-5.94-.14h3.46v-1.59h-1.77l1.2-2.23a3.89,3.89,0,0,0,.6-2v-.06a1.69,1.69,0,0,0-1.81-1.81,3.64,3.64,0,0,0-1.53.34v1.56a2.31,2.31,0,0,1,1.11-.34.58.58,0,0,1,.64.63,3.32,3.32,0,0,1-.5,1.37l-1.4,2.69Z"/><path class="cls-3" d="M100,210.71c-.31,0-.51-.32-.51-2.09V208c0-1.78.2-2.1.51-2.1s.5.32.5,2.1v.64c0,1.77-.2,2.09-.5,2.09m0,1.5c1.33,0,2.11-1.18,2.11-3.68v-.47c0-2.5-.77-3.66-2.1-3.66s-2.12,1.17-2.12,3.67v.47c0,2.51.75,3.67,2.11,3.67"/><path class="cls-3" d="M293,210.71c-.3,0-.5-.32-.5-2.09V208c0-1.78.2-2.1.5-2.1s.51.32.51,2.1v.64c0,1.77-.21,2.09-.51,2.09m0,1.5c1.34,0,2.11-1.18,2.11-3.68v-.47c0-2.5-.76-3.66-2.1-3.66s-2.12,1.17-2.12,3.67v.47c0,2.51.76,3.67,2.11,3.67m-4.6-1.5c-.31,0-.51-.32-.51-2.09V208c0-1.78.2-2.1.51-2.1s.5.32.5,2.1v.64c0,1.77-.2,2.09-.5,2.09m0,1.5c1.33,0,2.1-1.18,2.1-3.68v-.47c0-2.5-.76-3.66-2.09-3.66s-2.12,1.17-2.12,3.67v.47c0,2.51.75,3.67,2.11,3.67M283,209.42l.86-2.4v2.4Zm.84,2.65h1.51v-1.28H286v-1.37h-.62v-4.88h-1.6l-2,5.08v1.17h2.14Z"/><path class="cls-3" d="M386.81,210.71c-.3,0-.5-.32-.5-2.09V208c0-1.78.2-2.1.5-2.1s.51.32.51,2.1v.64c0,1.77-.2,2.09-.51,2.09m0,1.5c1.34,0,2.11-1.18,2.11-3.68v-.47c0-2.5-.76-3.66-2.1-3.66s-2.12,1.17-2.12,3.67v.47c0,2.51.76,3.67,2.11,3.67m-4.6-1.5c-.3,0-.51-.32-.51-2.09V208c0-1.78.21-2.1.51-2.1s.5.32.5,2.1v.64c0,1.77-.2,2.09-.5,2.09m0,1.5c1.33,0,2.11-1.18,2.11-3.68v-.47c0-2.5-.77-3.66-2.1-3.66s-2.12,1.17-2.12,3.67v.47c0,2.51.75,3.67,2.11,3.67m-4.38-1.38c-.26,0-.44-.32-.44-1.31v-1a.58.58,0,0,1,.37-.12c.28,0,.5.21.5,1v.29c0,.88-.16,1.16-.43,1.16m0,1.38c1.08,0,1.91-.94,1.91-2.61v-.29c0-1.69-.78-2.17-1.54-2.17a1.42,1.42,0,0,0-.84.26c0-1.15.38-1.55,1-1.55a2,2,0,0,1,.88.2v-1.47a3.26,3.26,0,0,0-1-.15c-1.33,0-2.4.79-2.4,3.91v.22c0,1.62.27,2.65.79,3.17a1.62,1.62,0,0,0,1.22.48"/><path class="cls-3" d="M480.89,210.71c-.3,0-.5-.32-.5-2.09V208c0-1.78.2-2.1.5-2.1s.51.32.51,2.1v.64c0,1.77-.21,2.09-.51,2.09m0,1.5c1.34,0,2.11-1.18,2.11-3.68v-.47c0-2.5-.76-3.66-2.1-3.66s-2.12,1.17-2.12,3.67v.47c0,2.51.76,3.67,2.11,3.67m-4.6-1.5c-.3,0-.51-.32-.51-2.09V208c0-1.78.21-2.1.51-2.1s.5.32.5,2.1v.64c0,1.77-.2,2.09-.5,2.09m0,1.5c1.33,0,2.11-1.18,2.11-3.68v-.47c0-2.5-.77-3.66-2.1-3.66s-2.12,1.17-2.12,3.67v.47c0,2.51.75,3.67,2.11,3.67m-4.45-1.28c-.26,0-.46-.25-.46-1v-.09c0-.77.19-1.05.46-1.05s.46.28.46,1.05v.09c0,.79-.2,1-.46,1m0-3.36c-.26,0-.42-.28-.42-.93v-.07c0-.7.19-.92.42-.92s.42.22.42.92v.07c0,.65-.17.93-.42.93m0,4.64a2,2,0,0,0,2-2.21v-.08a2.14,2.14,0,0,0-.86-1.85,1.89,1.89,0,0,0,.78-1.6v-.07a1.91,1.91,0,1,0-3.81,0v.07a1.94,1.94,0,0,0,.76,1.61,2.17,2.17,0,0,0-.85,1.84V210a2,2,0,0,0,2,2.2"/><path class="cls-2" d="M31.41,145.35a2,2,0,0,0,2-2.12v0c0-1-.36-1.49-1.38-2.49-.51-.52-.66-.72-.66-1h0a.53.53,0,0,1,.57-.53,2.28,2.28,0,0,1,1.17.37v-1.63a3.2,3.2,0,0,0-1.33-.26,2,2,0,0,0-2,2.11v0c0,1,.43,1.54,1.38,2.44.51.49.66.76.66,1h0a.54.54,0,0,1-.61.56,2.74,2.74,0,0,1-1.33-.45V145a3.11,3.11,0,0,0,1.52.39m-3.05,0a2,2,0,0,0,1.12-.29v-1.55a1.68,1.68,0,0,1-.8.27c-.62,0-1.05-.37-1.05-2.14v-.28c0-1.7.47-2.16,1-2.16a1.59,1.59,0,0,1,.82.27v-1.62a2.09,2.09,0,0,0-1-.2c-1.31,0-2.48,1-2.48,3.66v.38c0,2.54,1.05,3.66,2.37,3.66m-4.49-.09h1.61v-7.53H23.87Zm-4.9,0h1.55v-3.58l1.25,3.58h1.47v-7.53H21.69v3.4l-1.17-3.4H19Zm-3-2.73.36-2.37.36,2.37Zm-2,2.73h1.57l.2-1.35h1.13l.21,1.35h1.61l-1.43-7.55H15.43Zm-1.85.11a3.55,3.55,0,0,0,1.62-.43v-4.09h-2v1.42h.57v1.61l-.13,0c-.44,0-.94-.4-.94-2.15v-.51c0-1.45.48-2.08,1.18-2.08a2,2,0,0,1,1.09.38V137.9a2.5,2.5,0,0,0-1.22-.28c-1.53,0-2.69,1.24-2.69,3.66v.43c0,2.54,1.13,3.66,2.55,3.66m-5.39-3.92v-2.28h0c.46,0,.81.25.81,1.06v.16c0,.77-.34,1.06-.8,1.06Zm-1.61,3.81H6.75v-2.45h.13l.76,2.45H9.36l-1-3a2.35,2.35,0,0,0,.88-2v-.11a2.42,2.42,0,0,0-.63-1.8,2.52,2.52,0,0,0-1.85-.64H5.14Zm-2.71-1.35c-.35,0-.58-.39-.58-2.17v-.5c0-1.77.23-2.17.58-2.17s.57.4.57,2.17v.5c0,1.78-.21,2.17-.57,2.17m0,1.49c1.36,0,2.22-1.22,2.22-3.67v-.47c0-2.45-.86-3.67-2.22-3.67S.2,138.81.2,141.26v.47c0,2.45.86,3.67,2.23,3.67"/><path class="cls-2" d="M35.89,134.42h3v-1.54H37.5v-6H35.89Zm-3-2.73.36-2.37.36,2.37Zm-2,2.73h1.57l.2-1.36h1.13l.21,1.36h1.61l-1.43-7.55H32.35Zm-1.89,0h1.62v-7.53H29Zm-3-3.81v-2.28h0c.47,0,.81.25.81,1v.17c0,.77-.33,1.06-.79,1.06Zm-1.6,3.81h1.6V132h.13l.77,2.45h1.72l-1-3a2.36,2.36,0,0,0,.88-2v-.11a2.47,2.47,0,0,0-.64-1.81,2.54,2.54,0,0,0-1.85-.63H24.45Zm-3,0H23v-6h1v-1.54H20.44v1.54h1Zm-3,.09a2,2,0,0,0,2-2.12v0c0-1-.36-1.48-1.38-2.48-.51-.52-.66-.72-.66-1h0a.52.52,0,0,1,.57-.53,2.36,2.36,0,0,1,1.17.36v-1.62a3.18,3.18,0,0,0-1.33-.27,2,2,0,0,0-2,2.12v0c0,1,.43,1.54,1.38,2.45.51.49.66.76.66,1h0a.54.54,0,0,1-.61.56,2.85,2.85,0,0,1-1.33-.45v1.6a3.22,3.22,0,0,0,1.52.39m-4.1,0c1.19,0,2.09-.73,2.09-2.38v-5.27H14.76v5.4c0,.54-.19.75-.46.75s-.46-.21-.46-.75v-5.4H12.22v5.28c0,1.65.88,2.37,2.07,2.37m-4.18-4.08v.39c0,1.63-.47,2.09-1.06,2.09v-4.57c.59,0,1.06.42,1.06,2.09m-2.67,4h1.5c1.83,0,2.81-1.25,2.81-3.58v-.37c0-2.34-1-3.58-2.81-3.58H7.44Zm-4.88,0H4.11v-3.58l1.25,3.58H6.83v-7.53H5.28v3.4l-1.17-3.4H2.56Zm-2.23,0H2v-7.53H.33Z"/><path class="cls-2" d="M32.4,236.61a2,2,0,0,0,2-2.12v-.05c0-1-.36-1.48-1.38-2.48-.51-.52-.66-.72-.66-1h0a.52.52,0,0,1,.57-.53,2.28,2.28,0,0,1,1.17.37v-1.63a3.18,3.18,0,0,0-1.33-.27,2,2,0,0,0-2,2.12v0c0,1,.43,1.54,1.38,2.45.51.49.66.76.66,1h0a.54.54,0,0,1-.61.56,2.74,2.74,0,0,1-1.33-.45v1.6a3.11,3.11,0,0,0,1.52.39m-3.53-4.05V233c0,1.63-.46,2.09-1.05,2.09v-4.57c.59,0,1.05.42,1.05,2.09m-2.67,4h1.51c1.83,0,2.81-1.25,2.81-3.58v-.37c0-2.33-1-3.58-2.81-3.58H26.2Zm-2.22,0h1.61V229H24Zm-3.49,0h3V235H22.1v-6H20.49Zm-2.71-1.35c-.36,0-.58-.39-.58-2.17v-.5c0-1.77.22-2.17.58-2.17s.57.4.57,2.17v.5c0,1.78-.22,2.17-.57,2.17m0,1.49c1.35,0,2.21-1.23,2.21-3.67v-.47c0-2.46-.86-3.67-2.21-3.67s-2.23,1.21-2.23,3.67V233c0,2.44.86,3.67,2.23,3.67m-4.49,0a2,2,0,0,0,2-2.12v-.05c0-1-.36-1.48-1.38-2.48-.51-.52-.66-.72-.66-1h0a.52.52,0,0,1,.57-.53,2.28,2.28,0,0,1,1.17.37v-1.63a3.18,3.18,0,0,0-1.33-.27,2,2,0,0,0-2,2.12v0c0,1,.43,1.54,1.38,2.45.51.49.66.76.66,1h0a.54.54,0,0,1-.61.56,2.74,2.74,0,0,1-1.33-.45v1.6a3.11,3.11,0,0,0,1.52.39m-4.1-1.44c-.36,0-.58-.39-.58-2.17v-.5c0-1.77.22-2.17.58-2.17s.57.4.57,2.17v.5c0,1.78-.21,2.17-.57,2.17m0,1.49c1.36,0,2.22-1.23,2.22-3.67v-.47c0-2.46-.86-3.67-2.22-3.67S7,230.06,7,232.52V233c0,2.44.86,3.67,2.23,3.67m-4.35-.14H6.46V229H4.84Zm-2-2.32v0A.76.76,0,0,1,2,235H1.88v-1.65H2a.76.76,0,0,1,.84.81m-.07-2.94a.73.73,0,0,1-.79.82H1.88v-1.61H2a.7.7,0,0,1,.79.78ZM.31,236.52H1.83c1.54,0,2.59-.7,2.59-2.11v-.09a1.76,1.76,0,0,0-1.11-1.66,1.78,1.78,0,0,0,1-1.64v-.08a1.81,1.81,0,0,0-.49-1.32,2.85,2.85,0,0,0-2-.63H.31Z"/><path class="cls-2" d="M42.62,221.87v-2.28h.05c.46,0,.8.24.8,1v.16c0,.78-.33,1.07-.79,1.07ZM41,225.68h1.6v-2.46h.13l.77,2.46h1.72l-1-3a2.36,2.36,0,0,0,.88-2v-.11a2.5,2.5,0,0,0-.63-1.81,2.58,2.58,0,0,0-1.86-.63H41Zm-3.79,0h3.3v-1.54H38.85v-1.5h1.46v-1.5H38.85v-1.47h1.64v-1.52H37.23Zm-3,0h1.61v-6h1v-1.53H33.22v1.53h1Zm-3.38-2.74.37-2.36.35,2.36Zm-2,2.74h1.57l.21-1.36h1.12l.21,1.36h1.61l-1.43-7.56H30.29Zm-5.27,0h1.68l.55-3.8.53,3.8H28l1.16-7.55H27.55l-.48,4.32-.56-4.32H25.13l-.57,4.32-.48-4.32H22.4Zm-4.65,0h3.29v-1.54H20.54v-1.5H22v-1.5H20.54v-1.47h1.65v-1.52H18.93Zm-3,0h1.62v-6h1v-1.53h-3.6v1.53h1Zm-3,.08a2,2,0,0,0,2-2.12v0c0-1-.36-1.48-1.38-2.49-.51-.51-.66-.72-.66-1h0a.52.52,0,0,1,.57-.52,2.26,2.26,0,0,1,1.17.36v-1.62a3.18,3.18,0,0,0-1.33-.27,2,2,0,0,0-2,2.12v0c0,1,.43,1.54,1.38,2.44.51.5.66.77.66,1h0a.54.54,0,0,1-.61.56,2.73,2.73,0,0,1-1.33-.46v1.61a3.22,3.22,0,0,0,1.52.38m-4.44-2.82.36-2.36.36,2.36Zm-2,2.74H8l.2-1.36H9.35l.21,1.36h1.61l-1.43-7.56H7.89Zm-5.28,0H2.85l.55-3.8.54,3.8H5.63l1.16-7.55H5.14l-.47,4.32-.56-4.32H2.72l-.57,4.32-.47-4.32H0Z"/><path class="cls-2" d="M49,33.87V30.51h3.56v3.6H49Zm0-7.25v-.23h3.56v3.84H49Zm3.83,3.89h3.56v3.6H52.81Zm0-3.89v-.23h3.56v3.84H52.81Zm12,11.61H58.21V25.5h6.56Zm1.85-7.72h3.55v3.6H66.62Zm0-3.89h3.55v3.61H66.62Zm3.83,3.89H74v3.6H70.45Zm0-3.89H74v3.61H70.45ZM47.34,38H75.65V23.57H47.34Z"/><path class="cls-2" d="M73.93,22.6H71.85V20.28L68.9,15.9a.91.91,0,0,1-.11-.22h2.48l2.48,3.67a1.08,1.08,0,0,1,.18.6Zm-5.7,0H66.15V20.12l-1.5-4.44h2.2l1.33,3.93a1,1,0,0,1,0,.34Zm-5.7,0H60.45V15.68h2.08Zm-5.69-2.48V22.6H54.75V20a1,1,0,0,1,.06-.34l1.32-3.93h2.2ZM54.09,15.9l-3,4.38V22.6H49.05V20a1.09,1.09,0,0,1,.19-.6l2.47-3.67H54.2a1.51,1.51,0,0,1-.11.22M77,19.6c-.33-.4-1.79-2.07-2.73-3.14V14.11a.84.84,0,0,0-.83-.84H49.59a.84.84,0,0,0-.83.84v2.35c-.94,1.07-2.4,2.74-2.73,3.14-.55.65-.1,2.81-.05,3l0,.16H77l0-.16c0-.24.5-2.4-.05-3"/><path class="cls-2" d="M21.27,19.79h0l-4.08-3.25a.19.19,0,0,0-.1,0,.17.17,0,0,0-.1,0l-9.3,7.4a.24.24,0,0,0-.07.17V37.86a.2.2,0,0,0,.17.21H14a.2.2,0,0,0,.17-.21V28.2H20v9.66a.2.2,0,0,0,.18.21h6.77V24.31l-.86-.68Z"/><path class="cls-2" d="M32.1,28.2h3v5h-3Zm5.86,0h3v5H38ZM28,38.07H40.49a33,33,0,0,0,3.37-.21V24.31H28Z"/><path class="cls-2" d="M22.76,20h0l1.41,1.12.63.5,1.28,1,1.54,1.13H44.06c0-.07-4.82-4.18-4.82-4.18v-3a.2.2,0,0,0-.18-.21H36.12a.2.2,0,0,0-.17.21V17l-4.6-3.66a.17.17,0,0,0-.1,0,.19.19,0,0,0-.1,0h-14a.19.19,0,0,0-.1,0,.17.17,0,0,0-.1,0L5.48,22.46a.21.21,0,0,0-.08.17v1.74a.23.23,0,0,0,.1.19l.08,0a.13.13,0,0,0,.1,0l11.41-9.07Z"/><rect class="cls-4" x="0.01" y="38.03" width="83.29" height="2.82"/><line class="cls-5" x1="0.01" y1="39.89" x2="477.22" y2="39.89"/><path class="cls-2" d="M2.11,121.64H82.44v-.06H2.11ZM27.56,97.56h4.18V96.2H27.56Zm0-2.18h4.18V94H27.56Zm5.38,2.18h4.19V96.2H32.94Zm0-2.18h4.19V94H32.94Zm5.38,2.18h4.19V96.2H38.32Zm0-2.18h4.19V94H38.32Zm5.39,2.18h4.18V96.2H43.71Zm0-2.18h4.18V94H43.71Zm5.38,2.18h4.19V96.2H49.09Zm0-2.18h4.19V94H49.09Zm5.38,2.18h4.19V96.2H54.47Zm0-2.18h4.19V94H54.47Zm5.39,2.18H64V96.2H59.86Zm0-2.18H64V94H59.86ZM26,92.66H65.44V100H52.1v20.22H48.16v-17H26Zm28.38,24.8H56.6v-4.37H54.39Zm0-5.36H56.6v-4.37H54.39Zm0-5.37H56.6v-4.36H54.39Zm3.68,10.73h2.21v-4.37H58.07Zm0-5.36h2.21v-4.37H58.07Zm0-5.37h2.21v-4.36H58.07Zm3.68,10.73H64v-4.37h-2.2Zm0-5.36H64v-4.37h-2.2Zm0-5.37H64v-4.36h-2.2Zm3.67,10.73h2.21v-4.37H65.42Zm0-5.36h2.21v-4.37H65.42Zm0-5.37h2.21v-4.36H65.42Zm3.68,10.73h2.2v-4.37H69.1Zm0-5.36h2.2v-4.37H69.1Zm0-5.37h2.2v-4.36H69.1Zm3.68,10.73H75v-4.37h-2.2Zm0-5.36H75v-4.37h-2.2Zm0-5.37H75v-4.36h-2.2ZM53,100.92H76.36v19.31H53Zm-7.63,5.15h-6v3.08h6Zm-7.59,0h-6v3.08h6Zm-7.51,0h-6v3.08h6Zm-7.51,0h-6v3.08h6Zm-7.52,0h-6v3.08h6Zm32,14.16H7.54V104.11h39.7ZM33.78,87.68l3.9,3.85h3.53l-7.43-7.34-3.06,3L32.48,89ZM10.32,103.21l-1.77-1.75L26,84.19l7.43,7.34H29.92L26,87.68Z"/><rect class="cls-4" x="2.11" y="119.32" width="80.33" height="2.32"/><rect class="cls-2" x="45.4" y="80.04" width="3.97" height="13.08"/><rect class="cls-2" x="51.26" y="80.04" width="3.97" height="13.08"/><line class="cls-5" x1="0.01" y1="120.28" x2="477.22" y2="120.28"/><path class="cls-2" d="M45,187.4v3.9H40.19V202a1.25,1.25,0,0,1-.83,1.18l-9.42,3.3v3.88a.76.76,0,0,1-.75.75h-7.9a.75.75,0,0,1-.74-.75v-3.88l-9.43-3.3a1.25,1.25,0,0,1-.83-1.18V191.3H5.54v-3.9Z"/><rect class="cls-6" x="7.61" y="187.4" width="35.25" height="1.75"/><polygon class="cls-7" points="38.14 190.91 38.14 201.61 27.89 205.21 27.89 209.09 22.59 209.09 22.59 205.21 12.34 201.61 12.34 190.91 38.14 190.91"/><path class="cls-2" d="M28.31,203.33a.64.64,0,1,1-.55-.72.64.64,0,0,1,.55.72"/><path class="cls-2" d="M30.46,201.52a.64.64,0,0,1-1.27-.18.65.65,0,0,1,.72-.55.66.66,0,0,1,.55.73"/><path class="cls-2" d="M33.82,201.5a.64.64,0,1,1-.55-.72.64.64,0,0,1,.55.72"/><path class="cls-2" d="M36.51,200.41a.64.64,0,0,1-.72.55.64.64,0,1,1,.18-1.27.63.63,0,0,1,.54.72"/><path class="cls-2" d="M28.18,200.55a.39.39,0,0,1-.44.33.38.38,0,0,1,.11-.76.38.38,0,0,1,.33.43"/><path class="cls-2" d="M31.54,199.26a.38.38,0,0,1-.43.33.39.39,0,0,1-.33-.44.39.39,0,0,1,.44-.32.38.38,0,0,1,.32.43"/><path class="cls-2" d="M34.54,199.1a.38.38,0,1,1-.33-.43.38.38,0,0,1,.33.43"/><path class="cls-2" d="M37.43,197.84a.39.39,0,0,1-.44.33.38.38,0,0,1,.11-.76.38.38,0,0,1,.33.43"/><path class="cls-2" d="M35.68,196.44a.38.38,0,0,1-.43.33.39.39,0,0,1-.33-.44.38.38,0,0,1,.43-.32.38.38,0,0,1,.33.43"/><path class="cls-2" d="M32.83,197.4a.38.38,0,1,1-.76-.1.39.39,0,0,1,.44-.33.38.38,0,0,1,.32.43"/><path class="cls-2" d="M29.39,198.32a.38.38,0,0,1-.76-.11.38.38,0,0,1,.43-.33.39.39,0,0,1,.33.44"/><path class="cls-2" d="M15.24,200.41a.63.63,0,0,1-.61.67.64.64,0,1,1-.06-1.27.63.63,0,0,1,.67.6"/><path class="cls-2" d="M17.8,200.4a.65.65,0,0,1-.61.67.64.64,0,1,1-.06-1.28.64.64,0,0,1,.67.61"/><path class="cls-2" d="M19.76,202.12a.65.65,0,0,1-.61.67.64.64,0,0,1-.67-.61.63.63,0,0,1,.61-.67.64.64,0,0,1,.67.61"/><path class="cls-2" d="M22.84,202.61a.65.65,0,0,1-.61.67.63.63,0,0,1-.67-.61.64.64,0,0,1,.61-.67.65.65,0,0,1,.67.61"/><path class="cls-2" d="M22,200.56a.64.64,0,0,1-.61.67.65.65,0,0,1-.67-.61.64.64,0,1,1,1.28-.06"/><path class="cls-2" d="M16.18,198.23a.39.39,0,1,1-.77,0,.38.38,0,0,1,.36-.4.38.38,0,0,1,.41.37"/><path class="cls-2" d="M14.57,197.05a.39.39,0,0,1-.77,0,.39.39,0,1,1,.77,0"/><path class="cls-2" d="M20,198.52a.38.38,0,0,1-.36.41.39.39,0,1,1,0-.77.38.38,0,0,1,.4.36"/><path class="cls-2" d="M18,197.05a.38.38,0,0,1-.36.4.39.39,0,1,1,.36-.4"/><path class="cls-2" d="M23.05,199a.39.39,0,0,1-.77,0,.39.39,0,1,1,.77,0"/><path class="cls-2" d="M21.94,197.25a.38.38,0,0,1-.36.4.39.39,0,1,1,.36-.4"/><rect class="cls-6" x="12.34" y="190.91" width="25.81" height="3.24"/><rect class="cls-8" x="24.2" y="190.91" width="2.08" height="16.73"/><path class="cls-2" d="M73.22,175.92H63.61v-3.46h9.61Zm-11.63,0H52v-3.46h9.61Zm14.14-7H49.47v22.32H75.73Z"/><rect class="cls-2" x="44.87" y="165.34" width="35.46" height="4.19"/><line class="cls-5" x1="0.01" y1="191.96" x2="477.22" y2="191.96"/><rect class="cls-9" x="100.53" y="158.6" width="10.9" height="31.57"/><rect class="cls-10" x="111.43" y="158.6" width="74.8" height="31.57"/><rect class="cls-11" x="186.23" y="158.6" width="75.65" height="31.57"/><rect class="cls-12" x="261.88" y="158.6" width="28.68" height="31.57"/><rect class="cls-9" x="100.53" y="6.52" width="18.31" height="31.57"/><rect class="cls-10" x="118.84" y="6.52" width="9.34" height="31.57"/><rect class="cls-11" x="128.18" y="6.52" width="178.8" height="31.57"/><rect class="cls-12" x="306.98" y="6.52" width="168.49" height="31.57"/><rect class="cls-10" x="100.53" y="86.92" width="98.4" height="31.57"/><rect class="cls-11" x="198.92" y="86.92" width="12.57" height="31.57"/><rect class="cls-12" x="211.49" y="86.92" width="1.45" height="31.57"/><rect class="cls-9" x="133.4" y="228.23" width="8.31" height="8.31"/><rect class="cls-10" x="246.77" y="227.77" width="8.31" height="8.31"/><rect class="cls-11" x="323.17" y="227.77" width="8.31" height="8.31"/><rect class="cls-12" x="431.61" y="227.31" width="8.31" height="8.31"/><path class="cls-2" d="M473.78,235.62h3.31V234h-1.56v-6.51h-1.75Zm-3.25-3,.39-2.57.39,2.57Zm-2.15,3h1.7l.22-1.47h1.23l.22,1.47h1.75l-1.55-8.2h-2Zm-2.16.09a2.19,2.19,0,0,0,2.2-2.3v0c0-1.05-.39-1.61-1.5-2.69-.55-.57-.72-.79-.72-1.08h0a.57.57,0,0,1,.62-.57,2.61,2.61,0,0,1,1.28.39v-1.76a3.57,3.57,0,0,0-1.45-.29,2.15,2.15,0,0,0-2.2,2.3v0c0,1.1.47,1.67,1.51,2.66.55.53.71.83.71,1.08h0a.58.58,0,0,1-.66.61,3,3,0,0,1-1.44-.49v1.74a3.47,3.47,0,0,0,1.65.42m-4.45-1.56c-.39,0-.63-.42-.63-2.35v-.55c0-1.92.24-2.35.63-2.35s.62.43.62,2.35v.55c0,1.93-.24,2.35-.62,2.35m0,1.62c1.47,0,2.4-1.33,2.4-4v-.52c0-2.66-.93-4-2.4-4s-2.42,1.32-2.42,4v.52c0,2.65.93,4,2.42,4m-5.34-4.17V229h0c.51,0,.85.36.85,1.23v.14c0,.86-.37,1.21-.86,1.23Zm-1.74,4h1.74v-2.47h.05a2.56,2.56,0,0,0,2.57-2.82v-.1a2.5,2.5,0,0,0-2.75-2.79h-1.61Zm-2.63.09a2.2,2.2,0,0,0,2.21-2.3v0c0-1.05-.4-1.61-1.51-2.69-.55-.57-.71-.79-.71-1.08h0a.57.57,0,0,1,.62-.57,2.55,2.55,0,0,1,1.27.39v-1.76a3.52,3.52,0,0,0-1.44-.29,2.15,2.15,0,0,0-2.2,2.3v0c0,1.1.47,1.67,1.51,2.66.55.53.71.83.71,1.08h0c0,.4-.26.61-.67.61a3,3,0,0,1-1.43-.49v1.74a3.43,3.43,0,0,0,1.64.42m-4-.09h1.75v-8.18h-1.75Zm-2.35-4.3v.42c0,1.78-.5,2.27-1.14,2.27v-5c.64,0,1.14.46,1.14,2.27m-2.89,4.3h1.63c2,0,3-1.36,3-3.89v-.4c0-2.53-1.06-3.89-3-3.89h-1.63Z"/><path class="cls-2" d="M420.73,236.08h1.75V233l1.56-5.12h-1.75l-.66,2.87-.66-2.87h-1.8l1.56,5.12Zm-3.45.12a3.91,3.91,0,0,0,1.76-.47v-4.44h-2.21v1.54h.62v1.74a.29.29,0,0,1-.14,0c-.48,0-1-.43-1-2.33v-.56c0-1.57.51-2.25,1.27-2.25a2.22,2.22,0,0,1,1.19.41v-1.78a2.78,2.78,0,0,0-1.33-.3c-1.66,0-2.92,1.34-2.92,4v.47c0,2.75,1.22,4,2.77,4M411.43,232v-2.48h0c.51,0,.88.27.88,1.15v.17c0,.84-.36,1.16-.87,1.16Zm-1.74,4.13h1.74v-2.66h.14l.83,2.66h1.86l-1.08-3.23a2.56,2.56,0,0,0,.95-2.18v-.11a2.71,2.71,0,0,0-.68-2,2.8,2.8,0,0,0-2-.68h-1.75Zm-4.11,0h3.57v-1.67h-1.82v-1.62h1.59v-1.64h-1.59v-1.59h1.78v-1.65h-3.53Zm-5.29,0H402v-3.89l1.35,3.89h1.6v-8.17h-1.68v3.69L402,227.91h-1.68Zm-4.11,0h3.57v-1.67h-1.82v-1.62h1.58v-1.64h-1.58v-1.59h1.78v-1.65h-3.53Zm-4.7-1.47c-.38,0-.63-.42-.63-2.35v-.55c0-1.91.25-2.35.63-2.35s.62.44.62,2.35v.55c0,1.93-.23,2.35-.62,2.35m0,1.62c1.47,0,2.41-1.33,2.41-4v-.51c0-2.67-.94-4-2.41-4s-2.42,1.32-2.42,4v.51c0,2.65.94,4,2.42,4m-5.33-.15h1.75v-6.5H389v-1.67h-3.9v1.67h1.08Zm-5.26.09a2.2,2.2,0,0,0,2.21-2.3v0c0-1.05-.4-1.62-1.51-2.7-.55-.56-.71-.78-.71-1.08h0a.57.57,0,0,1,.62-.57,2.5,2.5,0,0,1,1.27.4V228.1a3.54,3.54,0,0,0-1.45-.29,2.14,2.14,0,0,0-2.19,2.3v0c0,1.1.46,1.67,1.5,2.65.55.54.72.83.72,1.09h0c0,.39-.26.6-.67.6a2.88,2.88,0,0,1-1.44-.49v1.74a3.39,3.39,0,0,0,1.65.42m-4.82-3.06.39-2.56.39,2.56Zm-2.15,3h1.7l.23-1.47h1.22l.22,1.47H379l-1.55-8.2h-2Zm-2,.12a3.91,3.91,0,0,0,1.76-.47v-4.44h-2.2v1.54h.62v1.74a.35.35,0,0,1-.14,0c-.48,0-1-.43-1-2.33v-.56c0-1.57.51-2.25,1.27-2.25a2.19,2.19,0,0,1,1.19.41v-1.78a2.78,2.78,0,0,0-1.33-.3c-1.66,0-2.92,1.34-2.92,4v.47c0,2.75,1.23,4,2.77,4m-8.16-.12h3.3v-1.67H365.5v-6.5h-1.75Zm-3.76,0h3.3v-1.67h-1.55v-6.5H360Zm-2.42,0h1.75v-8.17h-1.75Zm-3.92,0h1.75v-3.27h1.45v-1.63H355.4v-1.62H357v-1.65h-3.39Zm-2.33-4.3v.42c0,1.78-.5,2.27-1.14,2.27v-4.95c.64,0,1.14.45,1.14,2.26m-2.89,4.3h1.63c2,0,3.05-1.35,3.05-3.89v-.4c0-2.53-1.06-3.88-3.05-3.88h-1.63Zm-5.29,0h1.68v-3.89l1.35,3.89h1.6v-8.17h-1.68v3.69l-1.27-3.69h-1.68Zm-3.26-3,.4-2.56.38,2.56Zm-2.15,3h1.71l.22-1.47h1.22l.22,1.47h1.76l-1.56-8.2h-2Zm-3.33,0h3.31v-1.67h-1.56v-6.5H334.4Z"/><path class="cls-2" d="M312.12,236.08h3.3v-1.67h-1.55v-6.5h-1.75Zm-2.42,0h1.75v-8.17H309.7Zm-3-1.47c-.38,0-.63-.42-.63-2.35v-.55c0-1.91.25-2.35.63-2.35s.62.44.62,2.35v.55c0,1.93-.23,2.35-.62,2.35m0,1.62c1.47,0,2.41-1.33,2.41-4v-.51c0-2.67-.94-4-2.41-4s-2.41,1.32-2.41,4v.51c0,2.65.93,4,2.41,4m-4.87-.06a2.2,2.2,0,0,0,2.21-2.3v0c0-1.05-.4-1.62-1.51-2.7-.55-.56-.71-.78-.71-1.08h0a.57.57,0,0,1,.62-.57,2.47,2.47,0,0,1,1.27.4V228.1a3.52,3.52,0,0,0-1.44-.29,2.14,2.14,0,0,0-2.2,2.3v0c0,1.1.47,1.67,1.5,2.65.55.54.72.83.72,1.09h0c0,.39-.26.6-.67.6a2.82,2.82,0,0,1-1.43-.49v1.74a3.32,3.32,0,0,0,1.64.42m-6.26-1.56c-.38,0-.63-.42-.63-2.35v-.55c0-1.91.25-2.35.63-2.35s.62.44.62,2.35v.55c0,1.93-.23,2.35-.62,2.35m0,1.62c1.47,0,2.41-1.33,2.41-4v-.51c0-2.67-.94-4-2.41-4s-2.41,1.32-2.41,4v.51c0,2.65.93,4,2.41,4m-5.33-.15H292v-6.5h1.07v-1.67h-3.9v1.67h1.08Zm-6.74,0h3.57v-1.67h-1.82v-1.62h1.59v-1.64h-1.59v-1.59h1.79v-1.65h-3.54Zm-3.76,0h3.3v-1.67h-1.55v-6.5h-1.75Zm-1.78.09a2.19,2.19,0,0,0,1.22-.31v-1.68a1.77,1.77,0,0,1-.88.29c-.66,0-1.13-.4-1.13-2.33v-.3c0-1.84.5-2.34,1.09-2.34a1.66,1.66,0,0,1,.88.3V228a2.25,2.25,0,0,0-1.06-.22c-1.42,0-2.7,1.11-2.7,4v.41c0,2.76,1.15,4,2.58,4m-5.66-.09h1.75V233l1.55-5.12h-1.75l-.65,2.87-.67-2.87h-1.79l1.56,5.12Zm-3,.09a2.19,2.19,0,0,0,1.22-.31v-1.68a1.77,1.77,0,0,1-.88.29c-.66,0-1.13-.4-1.13-2.33v-.3c0-1.84.5-2.34,1.09-2.34a1.66,1.66,0,0,1,.88.3V228a2.25,2.25,0,0,0-1.06-.22c-1.42,0-2.7,1.11-2.7,4v.41c0,2.76,1.15,4,2.58,4m-6.42-.09h3.57v-1.67h-1.82v-1.62h1.59v-1.64h-1.59v-1.59h1.79v-1.65h-3.54Zm-3.2-4.13v-2.48h.05c.5,0,.88.27.88,1.15v.17c0,.84-.37,1.16-.87,1.16ZM258,236.08h1.74v-2.66h.14l.83,2.66h1.87l-1.09-3.23a2.54,2.54,0,0,0,1-2.18v-.11a2.71,2.71,0,0,0-.69-2,2.8,2.8,0,0,0-2-.68H258Z"/><path class="cls-2" d="M235.16,236.54h3.3v-1.67h-1.55v-6.5h-1.75Zm-2.42,0h1.75v-8.17h-1.75Zm-3-1.47c-.38,0-.63-.42-.63-2.35v-.55c0-1.91.25-2.34.63-2.34s.62.43.62,2.34v.55c0,1.93-.23,2.35-.62,2.35m0,1.62c1.47,0,2.41-1.33,2.41-4v-.51c0-2.66-.94-4-2.41-4s-2.41,1.32-2.41,4v.51c0,2.65.93,4,2.41,4m-4.87-.06a2.19,2.19,0,0,0,2.21-2.29v-.05c0-1-.4-1.61-1.51-2.7-.54-.56-.71-.78-.71-1.07v0a.57.57,0,0,1,.62-.57,2.47,2.47,0,0,1,1.27.4v-1.76a3.37,3.37,0,0,0-1.44-.29,2.14,2.14,0,0,0-2.2,2.29v0c0,1.1.47,1.67,1.51,2.65.55.54.71.83.71,1.09h0c0,.4-.26.61-.67.61a3,3,0,0,1-1.43-.49v1.73a3.32,3.32,0,0,0,1.64.42m-6.26-1.56c-.38,0-.63-.42-.63-2.35v-.55c0-1.91.25-2.34.63-2.34s.62.43.62,2.34v.55c0,1.93-.23,2.35-.62,2.35m0,1.62c1.48,0,2.41-1.33,2.41-4v-.51c0-2.66-.93-4-2.41-4s-2.41,1.32-2.41,4v.51c0,2.65.93,4,2.41,4m-5.33-.15h1.75V230h1.07v-1.67h-3.9V230h1.08Zm-6.74,0h3.57v-1.67h-1.82v-1.62h1.59v-1.64h-1.59V230h1.79v-1.66h-3.54Zm-3.76,0h3.3v-1.67h-1.55v-6.5h-1.75Zm-1.78.09a2.19,2.19,0,0,0,1.22-.31v-1.68a1.77,1.77,0,0,1-.88.29c-.66,0-1.13-.4-1.13-2.32v-.31c0-1.84.5-2.33,1.09-2.33a1.64,1.64,0,0,1,.88.29V228.5a2.25,2.25,0,0,0-1.06-.22c-1.42,0-2.69,1.1-2.69,4v.41c0,2.75,1.14,4,2.57,4m-5.66-.09h1.75v-3l1.56-5.12h-1.76l-.65,2.87-.66-2.87h-1.8l1.56,5.12Zm-3,.09a2.19,2.19,0,0,0,1.22-.31v-1.68a1.77,1.77,0,0,1-.88.29c-.66,0-1.13-.4-1.13-2.32v-.31c0-1.84.5-2.33,1.09-2.33a1.64,1.64,0,0,1,.88.29V228.5a2.25,2.25,0,0,0-1.06-.22c-1.42,0-2.69,1.1-2.69,4v.41c0,2.75,1.14,4,2.57,4m-6.42-.09h3.58v-1.67h-1.83v-1.62h1.59v-1.64h-1.59V230h1.79v-1.66H186Zm-3.2-4.13v-2.48h.05c.5,0,.88.27.88,1.15v.17c0,.84-.37,1.16-.87,1.16ZM181,236.54h1.74v-2.66h.14l.83,2.66h1.87l-1.09-3.23a2.54,2.54,0,0,0,1-2.17V231a2.67,2.67,0,0,0-.69-2,2.76,2.76,0,0,0-2-.69H181Zm-5.23-1.83h1.54V233.2h1.37v-1.54h-1.37v-1.5h-1.54v1.5h-1.36v1.54h1.36Zm-6.62,1.83h1.75v-3l1.55-5.12h-1.75l-.65,2.87-.67-2.87h-1.79l1.56,5.12Zm-3.46.12a3.92,3.92,0,0,0,1.77-.47v-4.43h-2.21v1.54h.62V235l-.14,0c-.48,0-1-.43-1-2.32v-.56c0-1.58.52-2.26,1.28-2.26a2.24,2.24,0,0,1,1.19.41v-1.77a2.67,2.67,0,0,0-1.33-.31c-1.66,0-2.92,1.34-2.92,4v.47c0,2.75,1.22,4,2.76,4m-5.85-4.25v-2.48h.05c.5,0,.88.27.88,1.15v.17c0,.84-.37,1.16-.87,1.16Zm-1.74,4.13h1.74v-2.66H160l.83,2.66h1.87l-1.08-3.23a2.56,2.56,0,0,0,1-2.17V231a2.63,2.63,0,0,0-.69-2,2.75,2.75,0,0,0-2-.69h-1.75Zm-4.11,0h3.58v-1.67h-1.83v-1.62h1.59v-1.64h-1.59V230h1.79v-1.66H154Zm-5.29,0h1.68v-3.89l1.36,3.89h1.6v-8.17H151.7v3.69l-1.28-3.69h-1.68Zm-4.11,0h3.58v-1.67h-1.83v-1.62H148v-1.64h-1.59V230h1.79v-1.66h-3.54Z"/></g></g></svg>