<?xml version="1.0" encoding="utf-8"?>
<!-- Generator: Adobe Illustrator 23.0.2, SVG Export Plug-In . SVG Version: 6.00 Build 0)  -->
<svg version="1.1" id="Layer_1" xmlns="http://www.w3.org/2000/svg" xmlns:xlink="http://www.w3.org/1999/xlink" x="0px" y="0px"
	 viewBox="0 0 612.5 233" style="enable-background:new 0 0 612.5 233;" xml:space="preserve">
<style type="text/css">
	.st0{clip-path:url(#SVGID_2_);fill:#004987;}
	.st1{clip-path:url(#SVGID_2_);fill:#4C9C2E;}
	.st2{clip-path:url(#SVGID_2_);fill:#FFFFFF;}
	.st3{opacity:0.5;clip-path:url(#SVGID_2_);}
	.st4{clip-path:url(#SVGID_4_);fill:#4C9C2E;}
	.st5{clip-path:url(#SVGID_4_);fill:none;stroke:#FFFFFF;stroke-width:2.368;stroke-miterlimit:10;}
	.st6{clip-path:url(#SVGID_4_);fill:#FFFFFF;}
</style>
<g>
	<g>
		<defs>
			<polygon id="SVGID_1_" points="0,233.5 612,232.6 612,0 0,0 			"/>
		</defs>
		<clipPath id="SVGID_2_">
			<use xlink:href="#SVGID_1_"  style="overflow:visible;"/>
		</clipPath>
		<path class="st0" d="M215.4,38L612,39.6v193c0,0-151.2-51.8-509.8-51.8L215.4,38z"/>
		<path class="st1" d="M612,0H0v228.1c0,0,253.6-133.7,612.5-133.7L612,0z"/>
		<path class="st2" d="M450.1,89.6c9,0,15.3-5,15.3-13.2v-0.1c0-7.1-5-10.4-13-13c-5.3-2-6.7-2.9-6.7-4.8v-0.1
			c0-1.6,1.4-2.8,3.8-2.8c3.4,0,6.9,1.6,9.8,3.8l5.5-8c-4.4-3.5-9.4-5.1-15-5.1c-9.2,0-15,5.3-15,13v0.2c0,7.6,5.6,10.5,13.5,13.2
			c4.9,1.7,6.2,2.8,6.2,4.4v0.1c0,1.8-1.5,3.1-4.4,3.1c-4.1,0-8-1.9-11.4-4.7l-5.8,7.9C437.9,87.7,443.8,89.6,450.1,89.6
			 M416.9,89.8c7,0,11.7-3,15.1-7.2l-6.8-7c-1.9,2.2-4.1,4.1-7.7,4.1c-4.9,0-8.6-4.1-8.6-11.6v-0.2c0-7.1,3.7-11.5,8.6-11.5
			c3.3,0,5.6,1.8,7.4,4l7-7.4c-3.4-4-7.9-6.6-14.5-6.6c-11,0-19.5,8.5-19.5,21.4v0.7C397.9,81.5,406.2,89.8,416.9,89.8 M381.8,89
			h10.8V47h-10.8V89z M340.7,89h10.6V67l14.5,22h9.6V47h-10.6v21.1l-14-21.1h-10.1V89z M313.1,72.8l3.9-12.3l3.9,12.3H313.1z
			 M296.9,89H308l2.4-7.6h13.2L326,89h11.3l-14.8-42.2h-10.9L296.9,89z M278.9,89.8c6.4,0,11.5-2.3,15.4-5.2v-20h-16.8v8.3h6.7v6.2
			c-1.2,0.8-2.8,1.3-4.9,1.3c-5.4,0-9.5-4.3-9.5-11.9v-0.6c0-7,4.1-11.6,9.4-11.6c3.6,0,6,1.5,8.2,3.5l6-8.2
			c-4.1-3.3-8.5-5.1-14.5-5.1c-11.6,0-20.2,8.8-20.2,21.4v0.8C258.7,81.7,267.4,89.8,278.9,89.8 M233,67.4v-11h5.3
			c3.6,0,5.9,1.8,5.9,5.4V62c0,3.4-2.2,5.5-5.8,5.5H233z M222.3,89H233V76h3.8l7.1,13h12.2l-8.6-15.2c4.4-2.2,7.5-6.1,7.5-12.4v-0.3
			c0-4.3-1.3-7.5-3.7-9.8c-2.7-2.8-7-4.3-12.6-4.3h-16.5V89z M197.8,80c-5,0-8.5-4.4-8.5-11.7v-0.7c0-7.3,3.4-11.6,8.4-11.6
			c5,0,8.5,4.4,8.5,11.7v0.7C206.2,75.7,202.9,80,197.8,80 M197.8,89.8c11.3,0,19.5-8.8,19.5-21.4v-0.9c0-12.6-8.1-21.3-19.4-21.3
			c-11.3,0-19.5,8.8-19.5,21.4v0.9C178.3,81.1,186.4,89.8,197.8,89.8"/>
		<path class="st2" d="M574.1,178.5h1.1v-1.2h-1.1V178.5z M570.8,178.6c1.1,0,2-0.7,2-1.8v0c0-0.9-0.7-1.4-1.8-1.8
			c-0.9-0.4-1.4-0.6-1.4-1.2v0c0-0.5,0.4-0.9,1.1-0.9c0.6,0,1.1,0.2,1.6,0.6l0.4-0.7c-0.5-0.4-1.3-0.7-2-0.7c-1.1,0-1.9,0.7-1.9,1.7
			v0c0,1,0.8,1.4,1.8,1.8c0.8,0.3,1.4,0.6,1.4,1.2v0c0,0.6-0.5,1-1.2,1c-0.6,0-1.2-0.3-1.8-0.8l-0.5,0.6
			C569.2,178.3,570,178.6,570.8,178.6 M566.4,178.5h0.9v-8.7h-0.9V178.5z M562.1,177.9c-0.7,0-1.3-0.5-1.3-1.3v0
			c0-0.8,0.6-1.3,1.5-1.3c0.6,0,1.1,0.1,1.5,0.3v0.8C563.8,177.2,563,177.9,562.1,177.9 M561.9,178.6c0.9,0,1.5-0.5,1.9-1v0.9h0.9
			v-4c0-0.7-0.2-1.3-0.6-1.7c-0.4-0.4-1-0.6-1.8-0.6c-0.8,0-1.4,0.2-2,0.5l0.3,0.7c0.4-0.2,1-0.4,1.6-0.4c1,0,1.6,0.5,1.6,1.5v0.4
			c-0.5-0.1-0.9-0.3-1.6-0.3c-1.4,0-2.3,0.7-2.3,2v0C559.9,177.9,560.8,178.6,561.9,178.6 M557.6,178.5h0.9v-6.2h-0.9V178.5z
			 M557.5,170.9h1v-1h-1V170.9z M553.3,178.5h0.9v-3c0-1.6,0.9-2.4,2.1-2.4h0v-0.9c-1,0-1.8,0.6-2.1,1.5v-1.4h-0.9V178.5z
			 M547.7,175c0.1-1.3,0.8-2.2,1.7-2.2c1,0,1.6,1,1.6,2.2H547.7z M549.6,178.6c0.9,0,1.6-0.4,2.1-0.9l-0.5-0.6
			c-0.4,0.4-0.9,0.7-1.6,0.7c-1,0-1.8-0.8-1.9-2.1h4.2c0-0.1,0-0.3,0-0.4c0-1.9-0.9-3.2-2.5-3.2c-1.5,0-2.6,1.3-2.6,3.2v0.1
			C546.8,177.4,548,178.6,549.6,178.6 M545,178.6c0.4,0,0.7-0.1,0.9-0.2v-0.7c-0.3,0.1-0.5,0.2-0.7,0.2c-0.5,0-0.9-0.2-0.9-0.9V173
			h1.6v-0.8h-1.6v-1.8h-0.9v1.8h-0.8v0.8h0.8v4C543.4,178.1,544.1,178.6,545,178.6 M538.9,177.9c-0.7,0-1.3-0.5-1.3-1.3v0
			c0-0.8,0.6-1.3,1.5-1.3c0.6,0,1.1,0.1,1.5,0.3v0.8C540.7,177.2,539.9,177.9,538.9,177.9 M538.7,178.6c0.9,0,1.5-0.5,1.9-1v0.9h0.8
			v-4c0-0.7-0.2-1.3-0.6-1.7c-0.4-0.4-1-0.6-1.8-0.6c-0.8,0-1.4,0.2-2,0.5l0.3,0.7c0.4-0.2,1-0.4,1.6-0.4c1,0,1.6,0.5,1.6,1.5v0.4
			c-0.5-0.1-0.9-0.3-1.6-0.3c-1.4,0-2.3,0.7-2.3,2v0C536.7,177.9,537.7,178.6,538.7,178.6 M527.2,178.5h0.9v-3.8
			c0-1.1,0.6-1.8,1.5-1.8c0.9,0,1.4,0.6,1.4,1.7v3.9h0.9v-3.8c0-1.1,0.7-1.8,1.5-1.8c0.9,0,1.4,0.6,1.4,1.7v3.9h0.9v-4.1
			c0-1.5-0.8-2.3-2-2.3c-1,0-1.5,0.5-1.9,1.1c-0.3-0.7-0.9-1.1-1.7-1.1c-0.9,0-1.4,0.5-1.8,1.1v-1h-0.9V178.5z M520.8,178.6
			c0.9,0,1.5-0.4,2-0.9l-0.5-0.6c-0.4,0.4-0.9,0.7-1.5,0.7c-1.1,0-1.9-0.9-1.9-2.4v-0.1c0-1.5,0.8-2.4,1.9-2.4
			c0.6,0,1.1,0.3,1.5,0.7l0.5-0.6c-0.5-0.5-1.1-0.9-2-0.9c-1.6,0-2.8,1.3-2.8,3.2v0.1C518,177.3,519.2,178.6,520.8,178.6
			 M515.6,178.5h0.9v-6.2h-0.9V178.5z M515.6,170.9h1v-1h-1V170.9z M509.1,178.5h0.9v-3.8c0-1.1,0.7-1.8,1.6-1.8
			c0.9,0,1.4,0.6,1.4,1.7v3.9h0.9v-4.1c0-1.4-0.8-2.3-2-2.3c-0.9,0-1.5,0.5-1.8,1.1v-1h-0.9V178.5z M504.9,177.9
			c-0.7,0-1.3-0.5-1.3-1.3v0c0-0.8,0.6-1.3,1.5-1.3c0.6,0,1.1,0.1,1.5,0.3v0.8C506.6,177.2,505.8,177.9,504.9,177.9 M504.7,178.6
			c0.9,0,1.5-0.5,1.9-1v0.9h0.9v-4c0-0.7-0.2-1.3-0.6-1.7c-0.4-0.4-1-0.6-1.8-0.6c-0.8,0-1.4,0.2-2,0.5l0.3,0.7
			c0.4-0.2,1-0.4,1.6-0.4c1,0,1.6,0.5,1.6,1.5v0.4c-0.5-0.1-0.9-0.3-1.6-0.3c-1.4,0-2.3,0.7-2.3,2v0
			C502.7,177.9,503.6,178.6,504.7,178.6 M498.6,177.3c-1,0-1.8-0.8-1.8-2.2v0c0-1.4,0.8-2.2,1.8-2.2c1,0,1.9,0.8,1.9,2.2v0
			C500.5,176.4,499.5,177.3,498.6,177.3 M498.5,180.3c0.9,0,1.6-0.2,2.1-0.7c0.4-0.4,0.7-1.1,0.7-1.9v-5.4h-0.9v1.1
			c-0.4-0.7-1.1-1.2-2.1-1.2c-1.3,0-2.5,1.1-2.5,3v0c0,1.9,1.2,2.9,2.5,2.9c1,0,1.6-0.6,2.1-1.3v0.9c0,1.2-0.7,1.9-1.9,1.9
			c-0.7,0-1.4-0.2-2-0.6l-0.3,0.7C496.9,180.1,497.7,180.3,498.5,180.3 M492.3,178.5h0.9v-3c0-1.6,0.9-2.4,2.1-2.4h0v-0.9
			c-1,0-1.8,0.6-2.1,1.5v-1.4h-0.9V178.5z M488,177.8c-1.1,0-1.9-1-1.9-2.4v-0.1c0-1.4,0.8-2.4,1.9-2.4c1.1,0,1.9,1,1.9,2.4v0.1
			C489.9,176.8,489.1,177.8,488,177.8 M488,178.6c1.6,0,2.8-1.4,2.8-3.2v-0.1c0-1.8-1.2-3.2-2.8-3.2c-1.6,0-2.8,1.4-2.8,3.2v0.1
			C485.3,177.2,486.4,178.6,488,178.6 M479,178.5h0.9V173h1.6v-0.8h-1.6v-0.5c0-0.8,0.3-1.2,0.9-1.2c0.2,0,0.5,0,0.7,0.1v-0.8
			c-0.2-0.1-0.5-0.1-0.8-0.1c-0.5,0-0.9,0.2-1.2,0.4c-0.3,0.3-0.5,0.8-0.5,1.4v0.6h-0.8v0.8h0.8V178.5z M474.4,177.8
			c-1.1,0-1.9-1-1.9-2.4v-0.1c0-1.4,0.8-2.4,1.9-2.4c1.1,0,1.9,1,1.9,2.4v0.1C476.3,176.8,475.6,177.8,474.4,177.8 M474.4,178.6
			c1.6,0,2.8-1.4,2.8-3.2v-0.1c0-1.8-1.2-3.2-2.8-3.2c-1.6,0-2.8,1.4-2.8,3.2v0.1C471.7,177.2,472.8,178.6,474.4,178.6 M465.4,178.6
			c1.1,0,2-0.7,2-1.8v0c0-0.9-0.7-1.4-1.8-1.8c-0.9-0.4-1.4-0.6-1.4-1.2v0c0-0.5,0.4-0.9,1.1-0.9c0.6,0,1.1,0.2,1.6,0.6l0.4-0.7
			c-0.5-0.4-1.3-0.7-2-0.7c-1.1,0-1.9,0.7-1.9,1.7v0c0,1,0.8,1.4,1.8,1.8c0.8,0.3,1.4,0.6,1.4,1.2v0c0,0.6-0.5,1-1.2,1
			c-0.6,0-1.2-0.3-1.8-0.8l-0.5,0.6C463.8,178.3,464.7,178.6,465.4,178.6 M457.3,178.5h0.9v-3.8c0-1.1,0.7-1.8,1.6-1.8
			c0.9,0,1.4,0.6,1.4,1.7v3.9h0.9v-4.1c0-1.4-0.8-2.3-2-2.3c-0.9,0-1.5,0.5-1.8,1.1v-1h-0.9V178.5z M453.1,177.8
			c-1.1,0-1.9-1-1.9-2.4v-0.1c0-1.4,0.8-2.4,1.9-2.4c1.1,0,1.9,1,1.9,2.4v0.1C455,176.8,454.2,177.8,453.1,177.8 M453.1,178.6
			c1.6,0,2.8-1.4,2.8-3.2v-0.1c0-1.8-1.2-3.2-2.8-3.2c-1.6,0-2.8,1.4-2.8,3.2v0.1C450.3,177.2,451.5,178.6,453.1,178.6 M448.5,178.6
			c0.4,0,0.7-0.1,0.9-0.2v-0.7c-0.3,0.1-0.5,0.2-0.7,0.2c-0.5,0-0.9-0.2-0.9-0.9V173h1.6v-0.8h-1.6v-1.8h-0.9v1.8h-0.8v0.8h0.8v4
			C446.9,178.1,447.6,178.6,448.5,178.6 M438.8,176.7c-0.8,0-1.3-0.8-1.3-2.4v-0.2c0-1.5,0.5-2.3,1.2-2.3c0.8,0,1.3,0.8,1.3,2.4v0.2
			C440.1,175.9,439.6,176.7,438.8,176.7 M438.8,178.6c2.1,0,3.4-1.8,3.4-4.3v-0.2c0-2.5-1.3-4.3-3.4-4.3c-2.1,0-3.4,1.8-3.4,4.3v0.2
			C435.4,176.9,436.7,178.6,438.8,178.6 M431.1,176.7c-0.8,0-1.3-0.8-1.3-2.4v-0.2c0-1.5,0.5-2.3,1.2-2.3c0.8,0,1.3,0.8,1.3,2.4v0.2
			C432.4,175.9,431.9,176.7,431.1,176.7 M431.1,178.6c2.1,0,3.4-1.8,3.4-4.3v-0.2c0-2.5-1.3-4.3-3.4-4.3c-2.1,0-3.4,1.8-3.4,4.3v0.2
			C427.7,176.9,429,178.6,431.1,178.6 M423.5,176.7c-0.8,0-1.3-0.8-1.3-2.4v-0.2c0-1.5,0.5-2.3,1.2-2.3c0.8,0,1.3,0.8,1.3,2.4v0.2
			C424.7,175.9,424.2,176.7,423.5,176.7 M423.4,178.6c2.1,0,3.4-1.8,3.4-4.3v-0.2c0-2.5-1.3-4.3-3.4-4.3c-2.1,0-3.4,1.8-3.4,4.3v0.2
			C420,176.9,421.3,178.6,423.4,178.6 M417,180.4c1.4-0.1,2.3-0.7,2.3-2.3v-1.8h-2.2v2.2h0.9c0,0.6-0.3,1-1.2,1.1L417,180.4z
			 M413,176.7c-0.8,0-1.3-0.8-1.3-2.4v-0.2c0-1.5,0.5-2.3,1.2-2.3c0.8,0,1.3,0.8,1.3,2.4v0.2C414.3,175.9,413.8,176.7,413,176.7
			 M413,178.6c2.1,0,3.4-1.8,3.4-4.3v-0.2c0-2.5-1.3-4.3-3.4-4.3c-2.1,0-3.4,1.8-3.4,4.3v0.2C409.6,176.9,410.9,178.6,413,178.6
			 M405.3,176.7c-0.8,0-1.3-0.8-1.3-2.4v-0.2c0-1.5,0.5-2.3,1.2-2.3c0.8,0,1.3,0.8,1.3,2.4v0.2C406.6,175.9,406.1,176.7,405.3,176.7
			 M405.3,178.6c2.1,0,3.4-1.8,3.4-4.3v-0.2c0-2.5-1.3-4.3-3.4-4.3c-2.1,0-3.4,1.8-3.4,4.3v0.2C401.9,176.9,403.2,178.6,405.3,178.6
			 M396.5,175.2l1.7-2.5v2.5H396.5z M398.2,178.5h2.1v-1.6h0.9v-1.7h-0.9V170h-2.2l-3.7,5.4l0.3,1.5h3.6V178.5z M387.8,178.5h0.9v-3
			c0-1.6,0.9-2.4,2.1-2.4h0v-0.9c-1,0-1.8,0.6-2.1,1.5v-1.4h-0.9V178.5z M382.2,175c0.1-1.3,0.8-2.2,1.7-2.2c1,0,1.6,1,1.6,2.2
			H382.2z M384.1,178.6c0.9,0,1.6-0.4,2.1-0.9l-0.5-0.6c-0.4,0.4-0.9,0.7-1.6,0.7c-1,0-1.8-0.8-1.9-2.1h4.2c0-0.1,0-0.3,0-0.4
			c0-1.9-0.9-3.2-2.5-3.2c-1.5,0-2.6,1.3-2.6,3.2v0.1C381.3,177.4,382.5,178.6,384.1,178.6 M377.6,178.5h0.8l2.3-6.3h-0.9l-1.8,5.1
			l-1.8-5.1h-0.9L377.6,178.5z M371.9,177.8c-1.1,0-1.9-1-1.9-2.4v-0.1c0-1.4,0.8-2.4,1.9-2.4c1.1,0,1.9,1,1.9,2.4v0.1
			C373.8,176.8,373,177.8,371.9,177.8 M371.9,178.6c1.6,0,2.8-1.4,2.8-3.2v-0.1c0-1.8-1.2-3.2-2.8-3.2c-1.6,0-2.8,1.4-2.8,3.2v0.1
			C369.1,177.2,370.3,178.6,371.9,178.6"/>
		<path class="st2" d="M572.4,163.8c-1,0-1.8-0.9-1.8-2.4v-0.1c0-1.5,0.8-2.4,1.8-2.4c1,0,1.9,0.9,1.9,2.4v0.1
			C574.3,162.9,573.4,163.8,572.4,163.8 M572.2,164.6c1,0,1.6-0.6,2-1.3v1.2h0.9v-8.7h-0.9v3.6c-0.4-0.7-1-1.3-2-1.3
			c-1.3,0-2.5,1.1-2.5,3.2v0.1C569.7,163.5,570.9,164.6,572.2,164.6 M564.4,161c0.1-1.3,0.8-2.2,1.7-2.2c1,0,1.6,1,1.6,2.2H564.4z
			 M566.3,164.6c0.9,0,1.6-0.4,2.1-0.9l-0.5-0.6c-0.4,0.4-0.9,0.7-1.6,0.7c-1,0-1.8-0.8-1.9-2.1h4.2c0-0.1,0-0.3,0-0.4
			c0-1.9-0.9-3.2-2.5-3.2c-1.5,0-2.6,1.3-2.6,3.2v0.1C563.6,163.4,564.8,164.6,566.3,164.6 M561.2,164.5h0.9v-8.7h-0.9V164.5z
			 M557.8,164.6c0.9,0,1.5-0.4,2-0.9l-0.5-0.6c-0.4,0.4-0.9,0.7-1.5,0.7c-1.1,0-1.9-0.9-1.9-2.4v-0.1c0-1.5,0.8-2.4,1.9-2.4
			c0.6,0,1.1,0.3,1.5,0.7l0.5-0.6c-0.5-0.5-1.1-0.9-2-0.9c-1.6,0-2.8,1.3-2.8,3.2v0.1C555,163.3,556.2,164.6,557.8,164.6
			 M551.8,163.4l-1.9-5.1H549l2.4,6.3c-0.3,0.8-0.6,1.1-1.1,1.1c-0.3,0-0.6-0.1-0.8-0.2l-0.3,0.7c0.4,0.2,0.7,0.3,1.1,0.3
			c0.8,0,1.4-0.4,1.8-1.7l2.2-6.4h-0.9L551.8,163.4z M546.3,164.6c0.9,0,1.5-0.4,2-0.9l-0.5-0.6c-0.4,0.4-0.9,0.7-1.5,0.7
			c-1.1,0-1.9-0.9-1.9-2.4v-0.1c0-1.5,0.8-2.4,1.9-2.4c0.6,0,1.1,0.3,1.5,0.7l0.5-0.6c-0.5-0.5-1.1-0.9-2-0.9
			c-1.6,0-2.8,1.3-2.8,3.2v0.1C543.6,163.3,544.8,164.6,546.3,164.6 M538.3,161c0.1-1.3,0.8-2.2,1.7-2.2c1,0,1.6,1,1.6,2.2H538.3z
			 M540.2,164.6c0.9,0,1.6-0.4,2.1-0.9l-0.5-0.6c-0.4,0.4-0.9,0.7-1.6,0.7c-1,0-1.8-0.8-1.9-2.1h4.2c0-0.1,0-0.3,0-0.4
			c0-1.9-0.9-3.2-2.5-3.2c-1.5,0-2.6,1.3-2.6,3.2v0.1C537.4,163.4,538.7,164.6,540.2,164.6 M533.8,164.5h0.9v-3
			c0-1.6,0.9-2.4,2.1-2.4h0v-0.9c-1,0-1.8,0.6-2.1,1.5v-1.4h-0.9V164.5z M526.5,163.9c-0.7,0-1.3-0.5-1.3-1.3v0
			c0-0.8,0.6-1.3,1.5-1.3c0.6,0,1.1,0.1,1.5,0.3v0.8C528.2,163.2,527.4,163.9,526.5,163.9 M526.3,164.6c0.9,0,1.5-0.5,1.9-1v0.9h0.9
			v-4c0-0.7-0.2-1.3-0.6-1.7c-0.4-0.4-1-0.6-1.8-0.6c-0.8,0-1.4,0.2-2,0.5l0.3,0.7c0.4-0.2,1-0.4,1.6-0.4c1,0,1.6,0.5,1.6,1.5v0.4
			c-0.5-0.1-0.9-0.3-1.6-0.3c-1.4,0-2.3,0.7-2.3,2v0C524.3,163.9,525.2,164.6,526.3,164.6 M522,164.5h0.9v-8.7H522V164.5z
			 M519.2,164.5h0.9v-8.7h-0.9V164.5z M513.5,161c0.1-1.3,0.8-2.2,1.7-2.2c1,0,1.6,1,1.6,2.2H513.5z M515.4,164.6
			c0.9,0,1.6-0.4,2.1-0.9l-0.5-0.6c-0.4,0.4-0.9,0.7-1.6,0.7c-1,0-1.8-0.8-1.9-2.1h4.2c0-0.1,0-0.3,0-0.4c0-1.9-0.9-3.2-2.5-3.2
			c-1.5,0-2.6,1.3-2.6,3.2v0.1C512.6,163.4,513.9,164.6,515.4,164.6 M509.5,164.6c1.1,0,2-0.7,2-1.8v0c0-0.9-0.7-1.4-1.8-1.8
			c-0.9-0.4-1.4-0.6-1.4-1.2v0c0-0.5,0.4-0.9,1.1-0.9c0.6,0,1.1,0.2,1.6,0.6l0.4-0.7c-0.5-0.4-1.3-0.7-2-0.7c-1.1,0-1.9,0.7-1.9,1.7
			v0c0,1,0.8,1.4,1.8,1.8c0.8,0.3,1.4,0.6,1.4,1.2v0c0,0.6-0.5,1-1.2,1c-0.6,0-1.2-0.3-1.8-0.8l-0.5,0.6
			C507.9,164.3,508.7,164.6,509.5,164.6 M503.6,163.9c-0.7,0-1.3-0.5-1.3-1.3v0c0-0.8,0.6-1.3,1.5-1.3c0.6,0,1.1,0.1,1.5,0.3v0.8
			C505.3,163.2,504.5,163.9,503.6,163.9 M503.4,164.6c0.9,0,1.5-0.5,1.9-1v0.9h0.9v-4c0-0.7-0.2-1.3-0.6-1.7c-0.4-0.4-1-0.6-1.8-0.6
			c-0.8,0-1.4,0.2-2,0.5l0.3,0.7c0.4-0.2,1-0.4,1.6-0.4c1,0,1.6,0.5,1.6,1.5v0.4c-0.5-0.1-0.9-0.3-1.6-0.3c-1.4,0-2.3,0.7-2.3,2v0
			C501.4,163.9,502.3,164.6,503.4,164.6 M497.8,164.6c1.2,0,2-0.5,2.7-1.2l-0.5-0.6c-0.6,0.6-1.2,0.9-2.1,0.9
			c-1.5,0-2.7-1.4-2.7-3.5v0c0-2,1.2-3.4,2.7-3.4c0.9,0,1.5,0.4,2,0.9l0.6-0.7c-0.7-0.6-1.4-1-2.6-1c-2.1,0-3.7,1.8-3.7,4.3v0.1
			C494.2,162.9,495.8,164.6,497.8,164.6 M488.4,165.9c0.9-0.2,1.3-0.7,1.3-1.6v-1.1h-1.1v1.2h0.4c0,0.5-0.2,0.8-0.8,1L488.4,165.9z
			 M482,164.5h2.3l3.1-6.8v-1.6h-5.7v1.9h3.4L482,164.5z M478.5,164.5h2.1V156h-1.6l-2.1,0.6l0.3,1.8l1.2-0.3V164.5z M473.1,162.7
			c-0.8,0-1.3-0.8-1.3-2.4v-0.2c0-1.5,0.5-2.3,1.2-2.3c0.8,0,1.3,0.8,1.3,2.4v0.2C474.4,161.9,473.9,162.7,473.1,162.7 M473.1,164.6
			c2.1,0,3.4-1.8,3.4-4.3v-0.2c0-2.5-1.3-4.3-3.4-4.3c-2.1,0-3.4,1.8-3.4,4.3v0.2C469.7,162.9,471,164.6,473.1,164.6 M463.1,164.5
			h5.8v-1.8h-3.1l1.4-1.3c1.1-1,1.6-1.7,1.6-2.8v0c0-1.5-1.2-2.5-2.8-2.5c-1.3,0-2.2,0.5-3,1.5l1.3,1.4c0.6-0.6,1-1,1.5-1
			c0.5,0,0.9,0.3,0.9,0.8s-0.3,0.9-0.9,1.5l-2.7,2.6V164.5z M454.1,164.5h0.9v-3.8c0-1.1,0.7-1.8,1.6-1.8c0.9,0,1.4,0.6,1.4,1.7v3.9
			h0.9v-4.1c0-1.4-0.8-2.3-2-2.3c-0.9,0-1.5,0.5-1.8,1.1v-1h-0.9V164.5z M451.2,164.5h0.9v-8.4h-0.9V164.5z M445.1,164.5h1.1v-1.2
			h-1.1V164.5z M442.2,163.4l-1.9-5.1h-0.9l2.4,6.3c-0.3,0.8-0.6,1.1-1.1,1.1c-0.3,0-0.6-0.1-0.8-0.2l-0.3,0.7
			c0.4,0.2,0.7,0.3,1.1,0.3c0.8,0,1.4-0.4,1.8-1.7l2.2-6.4h-0.9L442.2,163.4z M435.4,163.3c-1,0-1.8-0.8-1.8-2.2v0
			c0-1.4,0.8-2.2,1.8-2.2c1,0,1.9,0.8,1.9,2.2v0C437.3,162.4,436.4,163.3,435.4,163.3 M435.4,166.3c0.9,0,1.6-0.2,2.1-0.7
			c0.4-0.4,0.7-1.1,0.7-1.9v-5.4h-0.9v1.1c-0.4-0.7-1.1-1.2-2.1-1.2c-1.3,0-2.5,1.1-2.5,3v0c0,1.9,1.2,2.9,2.5,2.9
			c1,0,1.6-0.6,2.1-1.3v0.9c0,1.2-0.7,1.9-1.9,1.9c-0.7,0-1.4-0.2-2-0.6l-0.3,0.7C433.7,166.1,434.5,166.3,435.4,166.3 M429.1,164.5
			h0.9v-3c0-1.6,0.9-2.4,2.1-2.4h0v-0.9c-1,0-1.8,0.6-2.1,1.5v-1.4h-0.9V164.5z M423.5,161c0.1-1.3,0.8-2.2,1.7-2.2
			c1,0,1.6,1,1.6,2.2H423.5z M425.4,164.6c0.9,0,1.6-0.4,2.1-0.9l-0.5-0.6c-0.4,0.4-0.9,0.7-1.6,0.7c-1,0-1.8-0.8-1.9-2.1h4.2
			c0-0.1,0-0.3,0-0.4c0-1.9-0.9-3.2-2.5-3.2c-1.5,0-2.6,1.3-2.6,3.2v0.1C422.6,163.4,423.9,164.6,425.4,164.6 M416.5,164.5h0.9v-3.8
			c0-1.1,0.7-1.8,1.6-1.8c0.9,0,1.4,0.6,1.4,1.7v3.9h0.9v-4.1c0-1.4-0.8-2.3-2-2.3c-0.9,0-1.5,0.5-1.8,1.1v-1h-0.9V164.5z
			 M410.9,161c0.1-1.3,0.8-2.2,1.7-2.2c1,0,1.6,1,1.6,2.2H410.9z M412.8,164.6c0.9,0,1.6-0.4,2.1-0.9l-0.5-0.6
			c-0.4,0.4-0.9,0.7-1.6,0.7c-1,0-1.8-0.8-1.9-2.1h4.2c0-0.1,0-0.3,0-0.4c0-1.9-0.9-3.2-2.5-3.2c-1.5,0-2.6,1.3-2.6,3.2v0.1
			C410,163.4,411.3,164.6,412.8,164.6 M401.6,161c0.1-1.3,0.8-2.2,1.7-2.2c1,0,1.6,1,1.6,2.2H401.6z M403.5,164.6
			c0.9,0,1.6-0.4,2.1-0.9l-0.5-0.6c-0.4,0.4-0.9,0.7-1.6,0.7c-1,0-1.8-0.8-1.9-2.1h4.2c0-0.1,0-0.3,0-0.4c0-1.9-0.9-3.2-2.5-3.2
			c-1.5,0-2.6,1.3-2.6,3.2v0.1C400.8,163.4,402,164.6,403.5,164.6 M398.4,164.5h0.9v-8.7h-0.9V164.5z M394.2,163.8
			c-1,0-1.9-0.9-1.9-2.4v-0.1c0-1.5,0.9-2.4,1.9-2.4c1,0,1.8,0.9,1.8,2.4v0.1C396,162.9,395.2,163.8,394.2,163.8 M394.4,164.6
			c1.3,0,2.5-1.1,2.5-3.2v-0.1c0-2.1-1.2-3.2-2.5-3.2c-1,0-1.6,0.6-2,1.3v-3.6h-0.9v8.7h0.9v-1.2C392.7,164,393.4,164.6,394.4,164.6
			 M387.2,163.9c-0.7,0-1.3-0.5-1.3-1.3v0c0-0.8,0.6-1.3,1.5-1.3c0.6,0,1.1,0.1,1.5,0.3v0.8C388.9,163.2,388.2,163.9,387.2,163.9
			 M387,164.6c0.9,0,1.5-0.5,1.9-1v0.9h0.9v-4c0-0.7-0.2-1.3-0.6-1.7c-0.4-0.4-1-0.6-1.8-0.6c-0.8,0-1.4,0.2-2,0.5l0.3,0.7
			c0.4-0.2,1-0.4,1.6-0.4c1,0,1.6,0.5,1.6,1.5v0.4c-0.5-0.1-0.9-0.3-1.6-0.3c-1.4,0-2.3,0.7-2.3,2v0C385,163.9,386,164.6,387,164.6
			 M378,164.5h0.8l1.4-4.9l1.4,4.9h0.8l1.9-6.3h-0.9l-1.4,5l-1.4-5h-0.7l-1.4,5l-1.4-5h-0.9L378,164.5z M371.3,161
			c0.1-1.3,0.8-2.2,1.7-2.2c1,0,1.6,1,1.6,2.2H371.3z M373.2,164.6c0.9,0,1.6-0.4,2.1-0.9l-0.5-0.6c-0.4,0.4-0.9,0.7-1.6,0.7
			c-1,0-1.8-0.8-1.9-2.1h4.2c0-0.1,0-0.3,0-0.4c0-1.9-0.9-3.2-2.5-3.2c-1.5,0-2.6,1.3-2.6,3.2v0.1
			C370.4,163.4,371.6,164.6,373.2,164.6 M364.3,164.5h0.9v-3.8c0-1.1,0.7-1.8,1.6-1.8c0.9,0,1.4,0.6,1.4,1.7v3.9h0.9v-4.1
			c0-1.4-0.8-2.3-2-2.3c-0.9,0-1.5,0.5-1.8,1.1v-1h-0.9V164.5z M358.7,161c0.1-1.3,0.8-2.2,1.7-2.2c1,0,1.6,1,1.6,2.2H358.7z
			 M360.6,164.6c0.9,0,1.6-0.4,2.1-0.9l-0.5-0.6c-0.4,0.4-0.9,0.7-1.6,0.7c-1,0-1.8-0.8-1.9-2.1h4.2c0-0.1,0-0.3,0-0.4
			c0-1.9-0.9-3.2-2.5-3.2c-1.5,0-2.6,1.3-2.6,3.2v0.1C357.8,163.4,359.1,164.6,360.6,164.6 M354.2,164.5h0.9v-3
			c0-1.6,0.9-2.4,2.1-2.4h0v-0.9c-1,0-1.8,0.6-2.1,1.5v-1.4h-0.9V164.5z M346.6,163.8c-1,0-1.8-0.9-1.8-2.4v-0.1
			c0-1.5,0.8-2.4,1.8-2.4c1,0,1.9,0.9,1.9,2.4v0.1C348.5,162.9,347.6,163.8,346.6,163.8 M346.4,164.6c1,0,1.6-0.6,2-1.3v1.2h0.9
			v-8.7h-0.9v3.6c-0.4-0.7-1-1.3-2-1.3c-1.3,0-2.5,1.1-2.5,3.2v0.1C343.9,163.5,345.1,164.6,346.4,164.6 M337.8,164.5h0.9v-3.8
			c0-1.1,0.7-1.8,1.6-1.8c0.9,0,1.4,0.6,1.4,1.7v3.9h0.9v-4.1c0-1.4-0.8-2.3-2-2.3c-0.9,0-1.5,0.5-1.8,1.1v-1h-0.9V164.5z
			 M333.5,163.9c-0.7,0-1.3-0.5-1.3-1.3v0c0-0.8,0.6-1.3,1.5-1.3c0.6,0,1.1,0.1,1.5,0.3v0.8C335.3,163.2,334.5,163.9,333.5,163.9
			 M333.3,164.6c0.9,0,1.5-0.5,1.9-1v0.9h0.8v-4c0-0.7-0.2-1.3-0.6-1.7c-0.4-0.4-1-0.6-1.8-0.6c-0.8,0-1.4,0.2-2,0.5l0.3,0.7
			c0.4-0.2,1-0.4,1.6-0.4c1,0,1.6,0.5,1.6,1.5v0.4c-0.5-0.1-0.9-0.3-1.6-0.3c-1.4,0-2.3,0.7-2.3,2v0
			C331.3,163.9,332.3,164.6,333.3,164.6"/>
		<path class="st2" d="M573.9,151.9c0.9-0.2,1.3-0.7,1.3-1.6v-1.1h-1.1v1.2h0.4c0,0.5-0.2,0.8-0.8,1L573.9,151.9z M569.7,149.8
			c-1,0-1.8-0.9-1.8-2.4v-0.1c0-1.5,0.8-2.4,1.8-2.4c1,0,1.9,0.9,1.9,2.4v0.1C571.6,148.9,570.7,149.8,569.7,149.8 M569.6,150.6
			c1,0,1.6-0.6,2-1.3v1.2h0.9v-8.7h-0.9v3.6c-0.4-0.7-1-1.3-2-1.3c-1.3,0-2.5,1.1-2.5,3.2v0.1C567.1,149.5,568.3,150.6,569.6,150.6
			 M561.8,147c0.1-1.3,0.8-2.2,1.7-2.2c1,0,1.6,1,1.6,2.2H561.8z M563.7,150.6c0.9,0,1.6-0.4,2.1-0.9l-0.5-0.6
			c-0.4,0.4-0.9,0.7-1.6,0.7c-1,0-1.8-0.8-1.9-2.1h4.2c0-0.1,0-0.3,0-0.4c0-1.9-0.9-3.2-2.5-3.2c-1.5,0-2.6,1.3-2.6,3.2v0.1
			C560.9,149.4,562.1,150.6,563.7,150.6 M555.6,147c0.1-1.3,0.8-2.2,1.7-2.2c1,0,1.6,1,1.6,2.2H555.6z M557.5,150.6
			c0.9,0,1.6-0.4,2.1-0.9l-0.5-0.6c-0.4,0.4-0.9,0.7-1.6,0.7c-1,0-1.8-0.8-1.9-2.1h4.2c0-0.1,0-0.3,0-0.4c0-1.9-0.9-3.2-2.5-3.2
			c-1.5,0-2.6,1.3-2.6,3.2v0.1C554.7,149.4,556,150.6,557.5,150.6 M551.7,150.5h0.9V145h1.6v-0.8h-1.6v-0.5c0-0.8,0.3-1.2,0.9-1.2
			c0.2,0,0.5,0,0.7,0.1v-0.8c-0.2-0.1-0.5-0.1-0.8-0.1c-0.5,0-0.9,0.2-1.2,0.4c-0.3,0.3-0.5,0.8-0.5,1.4v0.6h-0.8v0.8h0.8V150.5z
			 M545.6,150.5h0.9v-8.7h-0.9V150.5z M541.2,149.9c-0.7,0-1.3-0.5-1.3-1.3v0c0-0.8,0.6-1.3,1.5-1.3c0.6,0,1.1,0.1,1.5,0.3v0.8
			C543,149.2,542.2,149.9,541.2,149.9 M541,150.6c0.9,0,1.5-0.5,1.9-1v0.9h0.9v-4c0-0.7-0.2-1.3-0.6-1.7c-0.4-0.4-1-0.6-1.8-0.6
			c-0.8,0-1.4,0.2-2,0.5l0.3,0.7c0.4-0.2,1-0.4,1.6-0.4c1,0,1.6,0.5,1.6,1.5v0.4c-0.5-0.1-0.9-0.3-1.6-0.3c-1.4,0-2.3,0.7-2.3,2v0
			C539,149.9,540,150.6,541,150.6 M529.5,150.5h0.9v-3.8c0-1.1,0.6-1.8,1.5-1.8c0.9,0,1.4,0.6,1.4,1.7v3.9h0.9v-3.8
			c0-1.1,0.7-1.8,1.5-1.8c0.9,0,1.4,0.6,1.4,1.7v3.9h0.9v-4.1c0-1.5-0.8-2.3-2-2.3c-1,0-1.5,0.5-1.9,1.1c-0.3-0.7-0.9-1.1-1.7-1.1
			c-0.9,0-1.4,0.5-1.8,1.1v-1h-0.9V150.5z M526.8,150.5h0.9v-6.2h-0.9V150.5z M526.7,142.9h1v-1h-1V142.9z M520.2,150.5h0.9v-3.8
			c0-1.1,0.7-1.8,1.6-1.8c0.9,0,1.4,0.6,1.4,1.7v3.9h0.9v-4.1c0-1.4-0.8-2.3-2-2.3c-0.9,0-1.5,0.5-1.8,1.1v-1h-0.9V150.5z
			 M516,149.9c-0.7,0-1.3-0.5-1.3-1.3v0c0-0.8,0.6-1.3,1.5-1.3c0.6,0,1.1,0.1,1.5,0.3v0.8C517.7,149.2,517,149.9,516,149.9
			 M515.8,150.6c0.9,0,1.5-0.5,1.9-1v0.9h0.9v-4c0-0.7-0.2-1.3-0.6-1.7c-0.4-0.4-1-0.6-1.8-0.6c-0.8,0-1.4,0.2-2,0.5l0.3,0.7
			c0.4-0.2,1-0.4,1.6-0.4c1,0,1.6,0.5,1.6,1.5v0.4c-0.5-0.1-0.9-0.3-1.6-0.3c-1.4,0-2.3,0.7-2.3,2v0
			C513.8,149.9,514.8,150.6,515.8,150.6 M508.2,151.9c0.9-0.2,1.3-0.7,1.3-1.6v-1.1h-1.1v1.2h0.4c0,0.5-0.2,0.8-0.8,1L508.2,151.9z
			 M505,150.6c1.1,0,2-0.7,2-1.8v0c0-0.9-0.7-1.4-1.8-1.8c-0.9-0.4-1.4-0.6-1.4-1.2v0c0-0.5,0.4-0.9,1.1-0.9c0.6,0,1.1,0.2,1.6,0.6
			l0.4-0.7c-0.5-0.4-1.3-0.7-2-0.7c-1.1,0-1.9,0.7-1.9,1.7v0c0,1,0.8,1.4,1.8,1.8c0.8,0.3,1.4,0.6,1.4,1.2v0c0,0.6-0.5,1-1.2,1
			c-0.6,0-1.2-0.3-1.8-0.8l-0.5,0.6C503.4,150.3,504.2,150.6,505,150.6 M501,150.6c0.4,0,0.7-0.1,0.9-0.2v-0.7
			c-0.3,0.1-0.5,0.2-0.7,0.2c-0.5,0-0.9-0.2-0.9-0.9V145h1.6v-0.8h-1.6v-1.8h-0.9v1.8h-0.8v0.8h0.8v4
			C499.4,150.1,500.1,150.6,501,150.6 M495.9,150.6c0.9,0,1.5-0.4,2-0.9l-0.5-0.6c-0.4,0.4-0.9,0.7-1.5,0.7c-1.1,0-1.9-0.9-1.9-2.4
			v-0.1c0-1.5,0.8-2.4,1.9-2.4c0.6,0,1.1,0.3,1.5,0.7l0.5-0.6c-0.5-0.5-1.1-0.9-2-0.9c-1.6,0-2.8,1.3-2.8,3.2v0.1
			C493.1,149.3,494.3,150.6,495.9,150.6 M489,150.6c0.9,0,1.5-0.5,1.8-1.1v1h0.9v-6.2h-0.9v3.8c0,1.1-0.7,1.8-1.6,1.8
			c-0.9,0-1.4-0.6-1.4-1.7v-3.9h-0.9v4.1C486.9,149.7,487.7,150.6,489,150.6 M482.5,149.8c-1,0-1.8-0.9-1.8-2.4v-0.1
			c0-1.5,0.8-2.4,1.8-2.4c1,0,1.9,0.9,1.9,2.4v0.1C484.4,148.9,483.5,149.8,482.5,149.8 M482.3,150.6c1,0,1.6-0.6,2-1.3v1.2h0.9
			v-8.7h-0.9v3.6c-0.4-0.7-1-1.3-2-1.3c-1.3,0-2.5,1.1-2.5,3.2v0.1C479.8,149.5,481.1,150.6,482.3,150.6 M475.9,149.8
			c-1.1,0-1.9-1-1.9-2.4v-0.1c0-1.4,0.8-2.4,1.9-2.4c1.1,0,1.9,1,1.9,2.4v0.1C477.8,148.8,477,149.8,475.9,149.8 M475.9,150.6
			c1.6,0,2.8-1.4,2.8-3.2v-0.1c0-1.8-1.2-3.2-2.8-3.2c-1.6,0-2.8,1.4-2.8,3.2v0.1C473.2,149.2,474.3,150.6,475.9,150.6 M469.5,150.5
			h0.9v-3c0-1.6,0.9-2.4,2.1-2.4h0v-0.9c-1,0-1.8,0.6-2.1,1.5v-1.4h-0.9V150.5z M465.4,149.8c-1,0-1.9-0.9-1.9-2.4v-0.1
			c0-1.5,0.9-2.4,1.9-2.4c1,0,1.8,0.9,1.8,2.4v0.1C467.2,148.9,466.4,149.8,465.4,149.8 M462.7,152.3h0.9v-3c0.4,0.7,1,1.3,2,1.3
			c1.3,0,2.5-1.1,2.5-3.2v-0.1c0-2.1-1.2-3.2-2.5-3.2c-1,0-1.6,0.6-2,1.3v-1.2h-0.9V152.3z M456.9,150.5h0.9v-8.7h-0.9V150.5z
			 M454.1,150.5h0.9v-6.2h-0.9V150.5z M454,142.9h1v-1h-1V142.9z M449.8,149.8c-1.1,0-1.9-1-1.9-2.4v-0.1c0-1.4,0.8-2.4,1.9-2.4
			c1.1,0,1.9,1,1.9,2.4v0.1C451.7,148.8,450.9,149.8,449.8,149.8 M449.8,150.6c1.6,0,2.8-1.4,2.8-3.2v-0.1c0-1.8-1.2-3.2-2.8-3.2
			c-1.6,0-2.8,1.4-2.8,3.2v0.1C447,149.2,448.2,150.6,449.8,150.6 M443.9,150.6c1.1,0,2-0.7,2-1.8v0c0-0.9-0.7-1.4-1.8-1.8
			c-0.9-0.4-1.4-0.6-1.4-1.2v0c0-0.5,0.4-0.9,1.1-0.9c0.6,0,1.1,0.2,1.6,0.6l0.4-0.7c-0.5-0.4-1.3-0.7-2-0.7c-1.1,0-1.9,0.7-1.9,1.7
			v0c0,1,0.8,1.4,1.8,1.8c0.8,0.3,1.4,0.6,1.4,1.2v0c0,0.6-0.5,1-1.2,1c-0.6,0-1.2-0.3-1.8-0.8l-0.5,0.6
			C442.3,150.3,443.1,150.6,443.9,150.6 M436.8,143.9l0.1-0.5h0.2c0.2,0,0.3,0,0.3,0.2c0,0.1,0,0.2-0.1,0.2
			c-0.1,0.1-0.2,0.1-0.3,0.1H436.8z M436.7,144.5h0.2l0.2,0.7h0.7l-0.3-0.8c0.3-0.1,0.6-0.4,0.6-0.8c0-0.4-0.3-0.7-0.9-0.7h-0.7
			l-0.5,2.3h0.6L436.7,144.5z M436.7,145.9c-0.9,0-1.5-0.7-1.5-1.5c0-0.6,0.2-1.3,0.7-1.7c0.3-0.3,0.7-0.5,1.2-0.5
			c0.9,0,1.4,0.7,1.4,1.5c0,0.6-0.2,1.3-0.7,1.7C437.7,145.7,437.2,145.9,436.7,145.9 M437.2,141.9c-0.6,0-1.1,0.2-1.4,0.6
			c-0.5,0.5-0.7,1.2-0.7,1.9c0,1,0.6,1.7,1.7,1.7c0.6,0,1.1-0.2,1.4-0.6c0.5-0.5,0.7-1.2,0.7-1.9
			C438.9,142.7,438.2,141.9,437.2,141.9 M430.9,145.8c0.2-0.2,0.5-0.3,0.7-0.3c0.4,0,0.7,0.3,0.7,0.8c0,0.2,0,0.3-0.1,0.5h-1.8
			C430.5,146.3,430.6,146,430.9,145.8 M433.9,147.9c0.2-0.5,0.3-1.1,0.3-1.5c0-1.4-0.8-2.5-2.4-2.5c-1,0-1.7,0.4-2.3,0.9
			c-0.8,0.8-1.2,1.9-1.2,3c0,1.7,1,2.8,2.8,2.8c0.9,0,1.7-0.3,2.3-0.8l-0.8-1.4c-0.5,0.3-0.8,0.5-1.3,0.5c-0.6,0-1-0.4-1-1.1H433.9z
			 M423.7,150.5h2.2l1.2-4.8h1.1l0.4-1.7h-1.2l0-0.1c0.1-0.3,0.3-0.5,0.7-0.5c0.2,0,0.4,0,0.6,0.1l0.4-1.5c-0.3-0.1-0.8-0.2-1.3-0.2
			c-0.8,0-1.4,0.2-1.8,0.6c-0.3,0.3-0.6,0.8-0.7,1.5l0,0.2h-0.6l-0.4,1.7h0.7L423.7,150.5z M421.8,143.4h2.2l0.4-1.7h-2.2
			L421.8,143.4z M420.1,150.5h2.2l1.6-6.5h-2.1L420.1,150.5z M416.8,150.5h2.2l2.1-8.7H419L416.8,150.5z M410.1,150.5h2.2l0.9-3.8
			c0.1-0.6,0.4-1,0.9-1c0.4,0,0.5,0.2,0.5,0.5c0,0.1,0,0.3-0.1,0.6l-0.9,3.6h2.2l0.9-3.8c0.1-0.4,0.2-0.8,0.2-1.1
			c0-1-0.6-1.7-1.6-1.7c-0.7,0-1.3,0.4-1.6,0.8l0.7-2.8h-2.2L410.1,150.5z M408.1,150.6c0.5,0,0.9-0.1,1.2-0.2l0.4-1.8
			c-0.3,0.1-0.5,0.1-0.7,0.1c-0.3,0-0.4-0.1-0.4-0.3c0-0.1,0-0.2,0-0.3l0.6-2.4h1.2l0.4-1.7h-1.2l0.4-1.6h-2.2l-0.4,1.6h-0.6
			l-0.4,1.7h0.6l-0.6,2.7c-0.1,0.3-0.1,0.6-0.1,0.8C406.3,150.1,406.9,150.6,408.1,150.6 M401.1,150.5h2.2l0.6-2.4
			c0.3-1.3,0.9-1.9,2-1.9h0.1l0.6-2.3c-0.9-0.1-1.5,0.4-2,1.2l0.3-1.1h-2.1L401.1,150.5z M397.6,149.2c-0.3,0-0.5-0.2-0.5-0.6
			c0-0.3,0.1-0.6,0.3-0.8c0.2-0.2,0.4-0.3,0.7-0.3c0.2,0,0.5,0.1,0.7,0.1l-0.1,0.5C398.5,148.8,398.1,149.2,397.6,149.2
			 M396.6,150.6c0.6,0,1.1-0.3,1.6-0.7l-0.1,0.6h2.1l0.9-3.6c0.1-0.4,0.2-0.7,0.2-1.1c0-1.2-0.9-1.9-2.6-1.9c-0.9,0-1.6,0.1-2.3,0.4
			l0.3,1.6c0.4-0.2,1-0.3,1.5-0.3c0.7,0,0.9,0.3,0.9,0.6c0,0.1,0,0.3-0.1,0.5l0,0.1c-0.4-0.2-0.9-0.3-1.4-0.3
			c-0.8,0-1.5,0.2-1.9,0.7c-0.4,0.4-0.7,1.1-0.7,1.8C395,149.9,395.6,150.6,396.6,150.6 M391.6,145.8c0.2-0.2,0.5-0.3,0.7-0.3
			c0.4,0,0.7,0.3,0.7,0.8c0,0.2,0,0.3-0.1,0.5h-1.8C391.2,146.3,391.4,146,391.6,145.8 M394.7,147.9c0.2-0.5,0.3-1.1,0.3-1.5
			c0-1.4-0.8-2.5-2.4-2.5c-1,0-1.7,0.4-2.3,0.9c-0.8,0.8-1.2,1.9-1.2,3c0,1.7,1,2.8,2.8,2.8c0.9,0,1.7-0.3,2.3-0.8l-0.8-1.4
			c-0.5,0.3-0.8,0.5-1.3,0.5c-0.6,0-1-0.4-1-1.1H394.7z M380,150.5h0.9v-3.8c0-1.1,0.7-1.8,1.6-1.8c0.9,0,1.4,0.6,1.4,1.7v3.9h0.9
			v-4.1c0-1.4-0.8-2.3-2-2.3c-0.9,0-1.5,0.5-1.8,1.1v-3.4H380V150.5z M376.7,150.6c0.9,0,1.5-0.4,2-0.9l-0.5-0.6
			c-0.4,0.4-0.9,0.7-1.5,0.7c-1.1,0-1.9-0.9-1.9-2.4v-0.1c0-1.5,0.8-2.4,1.9-2.4c0.6,0,1.1,0.3,1.5,0.7l0.5-0.6
			c-0.5-0.5-1.1-0.9-2-0.9c-1.6,0-2.8,1.3-2.8,3.2v0.1C374,149.3,375.2,150.6,376.7,150.6 M371.6,150.5h0.9v-6.2h-0.9V150.5z
			 M371.6,142.9h1v-1h-1V142.9z M367.3,150.5h0.9v-3c0-1.6,0.9-2.4,2.1-2.4h0v-0.9c-1,0-1.8,0.6-2.1,1.5v-1.4h-0.9V150.5z
			 M361.9,150.6c0.4,0,0.7-0.1,0.9-0.2v-0.7c-0.3,0.1-0.5,0.2-0.7,0.2c-0.5,0-0.9-0.2-0.9-0.9V145h1.6v-0.8h-1.6v-1.8h-0.9v1.8h-0.8
			v0.8h0.8v4C360.3,150.1,361,150.6,361.9,150.6 M353.6,150.5h0.9v-3.8c0-1.1,0.7-1.8,1.6-1.8c0.9,0,1.4,0.6,1.4,1.7v3.9h0.9v-4.1
			c0-1.4-0.8-2.3-2-2.3c-0.9,0-1.5,0.5-1.8,1.1v-1h-0.9V150.5z M348,147c0.1-1.3,0.8-2.2,1.7-2.2c1,0,1.6,1,1.6,2.2H348z
			 M349.9,150.6c0.9,0,1.6-0.4,2.1-0.9l-0.5-0.6c-0.4,0.4-0.9,0.7-1.6,0.7c-1,0-1.8-0.8-1.9-2.1h4.2c0-0.1,0-0.3,0-0.4
			c0-1.9-0.9-3.2-2.5-3.2c-1.5,0-2.6,1.3-2.6,3.2v0.1C347.2,149.4,348.4,150.6,349.9,150.6 M344.8,150.5h0.9v-6.2h-0.9V150.5z
			 M344.7,142.9h1v-1h-1V142.9z M340.5,150.5h0.9v-3c0-1.6,0.9-2.4,2.1-2.4h0v-0.9c-1,0-1.8,0.6-2.1,1.5v-1.4h-0.9V150.5z
			 M338.2,150.6c0.4,0,0.7-0.1,0.9-0.2v-0.7c-0.3,0.1-0.5,0.2-0.7,0.2c-0.5,0-0.9-0.2-0.9-0.9V145h1.6v-0.8h-1.6v-1.8h-0.9v1.8h-0.8
			v0.8h0.8v4C336.6,150.1,337.3,150.6,338.2,150.6 M331.8,150.6c0.9,0,1.5-0.5,1.8-1.1v1h0.9v-6.2h-0.9v3.8c0,1.1-0.7,1.8-1.6,1.8
			c-0.9,0-1.4-0.6-1.4-1.7v-3.9h-0.9v4.1C329.8,149.7,330.6,150.6,331.8,150.6 M323.4,150.5h0.9v-3.8c0-1.1,0.7-1.8,1.6-1.8
			c0.9,0,1.4,0.6,1.4,1.7v3.9h0.9v-4.1c0-1.4-0.8-2.3-2-2.3c-0.9,0-1.5,0.5-1.8,1.1v-1h-0.9V150.5z"/>
		<path class="st2" d="M572.7,135.8c-1.1,0-1.9-1-1.9-2.4v-0.1c0-1.4,0.8-2.4,1.9-2.4c1.1,0,1.9,1,1.9,2.4v0.1
			C574.6,134.8,573.8,135.8,572.7,135.8 M572.7,136.6c1.6,0,2.8-1.4,2.8-3.2v-0.1c0-1.8-1.2-3.2-2.8-3.2c-1.6,0-2.8,1.4-2.8,3.2v0.1
			C569.9,135.2,571.1,136.6,572.7,136.6 M568.1,136.6c0.4,0,0.7-0.1,0.9-0.2v-0.7c-0.3,0.1-0.5,0.2-0.7,0.2c-0.5,0-0.9-0.2-0.9-0.9
			V131h1.6v-0.8h-1.6v-1.8h-0.9v1.8h-0.8v0.8h0.8v4C566.5,136.1,567.2,136.6,568.1,136.6 M559.8,136.5h0.9v-3.8
			c0-1.1,0.7-1.8,1.6-1.8c0.9,0,1.4,0.6,1.4,1.7v3.9h0.9v-4.1c0-1.4-0.8-2.3-2-2.3c-0.9,0-1.5,0.5-1.8,1.1v-1h-0.9V136.5z
			 M557.1,136.5h0.9v-6.2h-0.9V136.5z M557,128.9h1v-1h-1V128.9z M550.5,136.6c1.1,0,2-0.7,2-1.8v0c0-0.9-0.7-1.4-1.8-1.8
			c-0.9-0.4-1.4-0.6-1.4-1.2v0c0-0.5,0.4-0.9,1.1-0.9c0.6,0,1.1,0.2,1.6,0.6l0.4-0.7c-0.5-0.4-1.3-0.7-2-0.7c-1.1,0-1.9,0.7-1.9,1.7
			v0c0,1,0.8,1.4,1.8,1.8c0.8,0.3,1.4,0.6,1.4,1.2v0c0,0.6-0.5,1-1.2,1c-0.6,0-1.2-0.3-1.8-0.8l-0.5,0.6
			C548.9,136.3,549.7,136.6,550.5,136.6 M538.8,136.5h0.9v-3.8c0-1.1,0.6-1.8,1.5-1.8c0.9,0,1.4,0.6,1.4,1.7v3.9h0.9v-3.8
			c0-1.1,0.7-1.8,1.5-1.8c0.9,0,1.4,0.6,1.4,1.7v3.9h0.9v-4.1c0-1.5-0.8-2.3-2-2.3c-1,0-1.5,0.5-1.9,1.1c-0.3-0.7-0.9-1.1-1.7-1.1
			c-0.9,0-1.4,0.5-1.8,1.1v-1h-0.9V136.5z M534.6,135.9c-0.7,0-1.3-0.5-1.3-1.3v0c0-0.8,0.6-1.3,1.5-1.3c0.6,0,1.1,0.1,1.5,0.3v0.8
			C536.3,135.2,535.5,135.9,534.6,135.9 M534.4,136.6c0.9,0,1.5-0.5,1.9-1v0.9h0.9v-4c0-0.7-0.2-1.3-0.6-1.7c-0.4-0.4-1-0.6-1.8-0.6
			c-0.8,0-1.4,0.2-2,0.5l0.3,0.7c0.4-0.2,1-0.4,1.6-0.4c1,0,1.6,0.5,1.6,1.5v0.4c-0.5-0.1-0.9-0.3-1.6-0.3c-1.4,0-2.3,0.7-2.3,2v0
			C532.4,135.9,533.3,136.6,534.4,136.6 M527.2,133c0.1-1.3,0.8-2.2,1.7-2.2c1,0,1.6,1,1.6,2.2H527.2z M529.1,136.6
			c0.9,0,1.6-0.4,2.1-0.9l-0.5-0.6c-0.4,0.4-0.9,0.7-1.6,0.7c-1,0-1.8-0.8-1.9-2.1h4.2c0-0.1,0-0.3,0-0.4c0-1.9-0.9-3.2-2.5-3.2
			c-1.5,0-2.6,1.3-2.6,3.2v0.1C526.3,135.4,527.5,136.6,529.1,136.6 M522.7,136.5h0.9v-3c0-1.6,0.9-2.4,2.1-2.4h0v-0.9
			c-1,0-1.8,0.6-2.1,1.5v-1.4h-0.9V136.5z M520.3,136.6c0.4,0,0.7-0.1,0.9-0.2v-0.7c-0.3,0.1-0.5,0.2-0.7,0.2
			c-0.5,0-0.9-0.2-0.9-0.9V131h1.6v-0.8h-1.6v-1.8h-0.9v1.8H518v0.8h0.8v4C518.8,136.1,519.4,136.6,520.3,136.6 M515.1,136.6
			c1.1,0,2-0.7,2-1.8v0c0-0.9-0.7-1.4-1.8-1.8c-0.9-0.4-1.4-0.6-1.4-1.2v0c0-0.5,0.4-0.9,1.1-0.9c0.6,0,1.1,0.2,1.6,0.6l0.4-0.7
			c-0.5-0.4-1.3-0.7-2-0.7c-1.1,0-1.9,0.7-1.9,1.7v0c0,1,0.8,1.4,1.8,1.8c0.8,0.3,1.4,0.6,1.4,1.2v0c0,0.6-0.5,1-1.2,1
			c-0.6,0-1.2-0.3-1.8-0.8l-0.5,0.6C513.6,136.3,514.4,136.6,515.1,136.6 M504.7,133c0.1-1.3,0.8-2.2,1.7-2.2c1,0,1.6,1,1.6,2.2
			H504.7z M506.6,136.6c0.9,0,1.6-0.4,2.1-0.9l-0.5-0.6c-0.4,0.4-0.9,0.7-1.6,0.7c-1,0-1.8-0.8-1.9-2.1h4.2c0-0.1,0-0.3,0-0.4
			c0-1.9-0.9-3.2-2.5-3.2c-1.5,0-2.6,1.3-2.6,3.2v0.1C503.9,135.4,505.1,136.6,506.6,136.6 M502,136.6c0.4,0,0.7-0.1,0.9-0.2v-0.7
			c-0.3,0.1-0.5,0.2-0.7,0.2c-0.5,0-0.9-0.2-0.9-0.9V131h1.6v-0.8h-1.6v-1.8h-0.9v1.8h-0.8v0.8h0.8v4
			C500.5,136.1,501.1,136.6,502,136.6 M496.8,136.6c1.1,0,2-0.7,2-1.8v0c0-0.9-0.7-1.4-1.8-1.8c-0.9-0.4-1.4-0.6-1.4-1.2v0
			c0-0.5,0.4-0.9,1.1-0.9c0.6,0,1.1,0.2,1.6,0.6l0.4-0.7c-0.5-0.4-1.3-0.7-2-0.7c-1.1,0-1.9,0.7-1.9,1.7v0c0,1,0.8,1.4,1.8,1.8
			c0.8,0.3,1.4,0.6,1.4,1.2v0c0,0.6-0.5,1-1.2,1c-0.6,0-1.2-0.3-1.8-0.8l-0.5,0.6C495.3,136.3,496.1,136.6,496.8,136.6 M490.9,135.9
			c-0.7,0-1.3-0.5-1.3-1.3v0c0-0.8,0.6-1.3,1.5-1.3c0.6,0,1.1,0.1,1.5,0.3v0.8C492.6,135.2,491.9,135.9,490.9,135.9 M490.7,136.6
			c0.9,0,1.5-0.5,1.9-1v0.9h0.8v-4c0-0.7-0.2-1.3-0.6-1.7c-0.4-0.4-1-0.6-1.8-0.6c-0.8,0-1.4,0.2-2,0.5l0.3,0.7
			c0.4-0.2,1-0.4,1.6-0.4c1,0,1.6,0.5,1.6,1.5v0.4c-0.5-0.1-0.9-0.3-1.6-0.3c-1.4,0-2.3,0.7-2.3,2v0
			C488.7,135.9,489.7,136.6,490.7,136.6 M481.7,136.5h0.8l1.4-4.9l1.4,4.9h0.8l1.9-6.3h-0.9l-1.4,5l-1.4-5h-0.7l-1.4,5l-1.4-5h-0.9
			L481.7,136.5z M473.9,136.6c0.9,0,1.5-0.4,2-0.9l-0.5-0.6c-0.4,0.4-0.9,0.7-1.5,0.7c-1.1,0-1.9-0.9-1.9-2.4v-0.1
			c0-1.5,0.8-2.4,1.9-2.4c0.6,0,1.1,0.3,1.5,0.7l0.5-0.6c-0.5-0.5-1.1-0.9-2-0.9c-1.6,0-2.8,1.3-2.8,3.2v0.1
			C471.1,135.3,472.3,136.6,473.9,136.6 M468.8,136.5h0.9v-6.2h-0.9V136.5z M468.7,128.9h1v-1h-1V128.9z M462.2,136.5h0.9v-3.8
			c0-1.1,0.7-1.8,1.6-1.8c0.9,0,1.4,0.6,1.4,1.7v3.9h0.9v-4.1c0-1.4-0.8-2.3-2-2.3c-0.9,0-1.5,0.5-1.8,1.1v-1h-0.9V136.5z
			 M458,135.9c-0.7,0-1.3-0.5-1.3-1.3v0c0-0.8,0.6-1.3,1.5-1.3c0.6,0,1.1,0.1,1.5,0.3v0.8C459.7,135.2,459,135.9,458,135.9
			 M457.8,136.6c0.9,0,1.5-0.5,1.9-1v0.9h0.9v-4c0-0.7-0.2-1.3-0.6-1.7c-0.4-0.4-1-0.6-1.8-0.6c-0.8,0-1.4,0.2-2,0.5l0.3,0.7
			c0.4-0.2,1-0.4,1.6-0.4c1,0,1.6,0.5,1.6,1.5v0.4c-0.5-0.1-0.9-0.3-1.6-0.3c-1.4,0-2.3,0.7-2.3,2v0
			C455.8,135.9,456.8,136.6,457.8,136.6 M451.7,135.3c-1,0-1.8-0.8-1.8-2.2v0c0-1.4,0.8-2.2,1.8-2.2c1,0,1.9,0.8,1.9,2.2v0
			C453.6,134.4,452.7,135.3,451.7,135.3 M451.7,138.3c0.9,0,1.6-0.2,2.1-0.7c0.4-0.4,0.7-1.1,0.7-1.9v-5.4h-0.9v1.1
			c-0.4-0.7-1.1-1.2-2.1-1.2c-1.3,0-2.5,1.1-2.5,3v0c0,1.9,1.2,2.9,2.5,2.9c1,0,1.6-0.6,2.1-1.3v0.9c0,1.2-0.7,1.9-1.9,1.9
			c-0.7,0-1.4-0.2-2-0.6l-0.3,0.7C450,138.1,450.8,138.3,451.7,138.3 M445.4,136.5h0.9v-3c0-1.6,0.9-2.4,2.1-2.4h0v-0.9
			c-1,0-1.8,0.6-2.1,1.5v-1.4h-0.9V136.5z M441.2,135.8c-1.1,0-1.9-1-1.9-2.4v-0.1c0-1.4,0.8-2.4,1.9-2.4c1.1,0,1.9,1,1.9,2.4v0.1
			C443.1,134.8,442.3,135.8,441.2,135.8 M441.2,136.6c1.6,0,2.8-1.4,2.8-3.2v-0.1c0-1.8-1.2-3.2-2.8-3.2c-1.6,0-2.8,1.4-2.8,3.2v0.1
			C438.4,135.2,439.5,136.6,441.2,136.6 M425.6,136.5h0.9v-3.8c0-1.1,0.6-1.8,1.5-1.8c0.9,0,1.4,0.6,1.4,1.7v3.9h0.9v-3.8
			c0-1.1,0.7-1.8,1.5-1.8c0.9,0,1.4,0.6,1.4,1.7v3.9h0.9v-4.1c0-1.5-0.8-2.3-2-2.3c-1,0-1.5,0.5-1.9,1.1c-0.3-0.7-0.9-1.1-1.7-1.1
			c-0.9,0-1.4,0.5-1.8,1.1v-1h-0.9V136.5z M421.4,136.5h0.9v-3c0-1.6,0.9-2.4,2.1-2.4h0v-0.9c-1,0-1.8,0.6-2.1,1.5v-1.4h-0.9V136.5z
			 M417.2,135.8c-1.1,0-1.9-1-1.9-2.4v-0.1c0-1.4,0.8-2.4,1.9-2.4c1.1,0,1.9,1,1.9,2.4v0.1C419.1,134.8,418.3,135.8,417.2,135.8
			 M417.2,136.6c1.6,0,2.8-1.4,2.8-3.2v-0.1c0-1.8-1.2-3.2-2.8-3.2c-1.6,0-2.8,1.4-2.8,3.2v0.1C414.4,135.2,415.6,136.6,417.2,136.6
			 M411.4,136.5h0.9V131h1.6v-0.8h-1.6v-0.5c0-0.8,0.3-1.2,0.9-1.2c0.2,0,0.5,0,0.7,0.1v-0.8c-0.2-0.1-0.5-0.1-0.8-0.1
			c-0.5,0-0.9,0.2-1.2,0.4c-0.3,0.3-0.5,0.8-0.5,1.4v0.6h-0.8v0.8h0.8V136.5z M407.6,136.6c1.1,0,2-0.7,2-1.8v0
			c0-0.9-0.7-1.4-1.8-1.8c-0.9-0.4-1.4-0.6-1.4-1.2v0c0-0.5,0.4-0.9,1.1-0.9c0.6,0,1.1,0.2,1.6,0.6l0.4-0.7c-0.5-0.4-1.3-0.7-2-0.7
			c-1.1,0-1.9,0.7-1.9,1.7v0c0,1,0.8,1.4,1.8,1.8c0.8,0.3,1.4,0.6,1.4,1.2v0c0,0.6-0.5,1-1.2,1c-0.6,0-1.2-0.3-1.8-0.8l-0.5,0.6
			C406,136.3,406.9,136.6,407.6,136.6 M399.5,136.5h0.9v-3.8c0-1.1,0.7-1.8,1.6-1.8c0.9,0,1.4,0.6,1.4,1.7v3.9h0.9v-4.1
			c0-1.4-0.8-2.3-2-2.3c-0.9,0-1.5,0.5-1.8,1.1v-1h-0.9V136.5z M395.3,135.9c-0.7,0-1.3-0.5-1.3-1.3v0c0-0.8,0.6-1.3,1.5-1.3
			c0.6,0,1.1,0.1,1.5,0.3v0.8C397,135.2,396.2,135.9,395.3,135.9 M395.1,136.6c0.9,0,1.5-0.5,1.9-1v0.9h0.9v-4
			c0-0.7-0.2-1.3-0.6-1.7c-0.4-0.4-1-0.6-1.8-0.6c-0.8,0-1.4,0.2-2,0.5l0.3,0.7c0.4-0.2,1-0.4,1.6-0.4c1,0,1.6,0.5,1.6,1.5v0.4
			c-0.5-0.1-0.9-0.3-1.6-0.3c-1.4,0-2.3,0.7-2.3,2v0C393.1,135.9,394,136.6,395.1,136.6 M389.5,136.5h0.9v-3c0-1.6,0.9-2.4,2.1-2.4
			h0v-0.9c-1,0-1.8,0.6-2.1,1.5v-1.4h-0.9V136.5z M387.2,136.6c0.4,0,0.7-0.1,0.9-0.2v-0.7c-0.3,0.1-0.5,0.2-0.7,0.2
			c-0.5,0-0.9-0.2-0.9-0.9V131h1.6v-0.8h-1.6v-1.8h-0.9v1.8h-0.8v0.8h0.8v4C385.6,136.1,386.3,136.6,387.2,136.6 M376.6,133
			c0.1-1.3,0.8-2.2,1.7-2.2c1,0,1.6,1,1.6,2.2H376.6z M378.5,136.6c0.9,0,1.6-0.4,2.1-0.9l-0.5-0.6c-0.4,0.4-0.9,0.7-1.6,0.7
			c-1,0-1.8-0.8-1.9-2.1h4.2c0-0.1,0-0.3,0-0.4c0-1.9-0.9-3.2-2.5-3.2c-1.5,0-2.6,1.3-2.6,3.2v0.1
			C375.8,135.4,377,136.6,378.5,136.6 M367.4,136.5h0.8l2-6.8l2,6.8h0.8l2.5-8.5h-0.9l-2,6.9l-2-6.9h-0.8l-2,6.9l-2-6.9h-1
			L367.4,136.5z"/>
		<g class="st3">
			<g>
				<defs>
					<rect id="SVGID_3_" x="-22.7" y="-0.2" width="191.7" height="191.7"/>
				</defs>
				<clipPath id="SVGID_4_">
					<use xlink:href="#SVGID_3_"  style="overflow:visible;"/>
				</clipPath>
				<path class="st4" d="M73.1,0.8c-52.4,0-94.9,42.5-94.9,94.9c0,52.4,42.5,94.9,94.9,94.9S168,148,168,95.6
					C168,43.3,125.5,0.8,73.1,0.8"/>
				<path class="st4" d="M73.1,10.7c22.7,0,44,8.8,60.1,24.9c16,16,24.9,37.4,24.9,60.1c0,22.7-8.8,44-24.9,60.1
					c-16,16-37.4,24.9-60.1,24.9s-44-8.8-60.1-24.9c-16-16-24.9-37.4-24.9-60.1c0-22.7,8.8-44,24.9-60.1
					C29.1,19.5,50.4,10.7,73.1,10.7"/>
				<path class="st5" d="M73.1,10.7c22.7,0,44,8.8,60.1,24.9c16,16,24.9,37.4,24.9,60.1c0,22.7-8.8,44-24.9,60.1
					c-16,16-37.4,24.9-60.1,24.9s-44-8.8-60.1-24.9c-16-16-24.9-37.4-24.9-60.1c0-22.7,8.8-44,24.9-60.1
					C29.1,19.5,50.4,10.7,73.1,10.7"/>
				<path class="st6" d="M98.8,31.4c-9.7,7-7.3,19.2-7.3,19.2C103.9,43,98.8,31.4,98.8,31.4"/>
				<path class="st6" d="M93,70.8c-11.1-4.6-20.2,3.9-20.2,3.9C85.7,81.3,93,70.8,93,70.8"/>
				<path class="st6" d="M79.9,61.4C91.8,53.1,86,41.8,86,41.8C76.7,49.4,79.9,61.4,79.9,61.4"/>
				<path class="st6" d="M104.8,60.2c-11.1-4.6-20.2,3.9-20.2,3.9C97.6,70.7,104.8,60.2,104.8,60.2"/>
				<path class="st6" d="M6.3,126c-0.9,0.1-1.9,0.3-2.9,0.4c0.8,1.7,1.6,3.4,2.5,5c4.8,0.3,8.8,0.9,11.5,1.5
					c-1.3,1.8-2.6,3.7-3.8,5.5c-1,0-2.2,0.1-3.4,0.1c2.5,3.7,5.4,7.1,8.5,10.3c6-11,13.6-23.8,16.5-28.4c5-8,23.5-32.7,23.5-32.7
					c-4.2,2.6-8.8,6.5-13.6,11.2c-3-0.7-9.5-1.2-24.1-0.1c-8.5,0.6-16.7,2.4-23.8,4.5c0.1,1.3,0.3,2.6,0.5,3.8
					c4.1-0.7,8.3-1.3,12.3-1.9c11.8-1.8,24-0.1,28.5,0.7c-1.9,2.1-3.8,4.3-5.7,6.6c-3.6-0.7-10.3-1.4-20.2-0.5
					c-4.1,0.4-8.7,1.3-13.4,2.6c0.4,1.3,0.7,2.7,1.2,4c2.8-0.4,5.6-0.8,8.3-1.1c9.1-1.1,15.4,0.4,18.8,1.6c-1.5,1.9-3,3.9-4.5,5.9
					C19.7,125,14.2,125.1,6.3,126"/>
				<path class="st6" d="M53.9,100.3c-1.5,0.6-6.4,8.2-4.7,7.9c1-0.2,4.2,1.1,6.8,2.2c-1.6,1.5-3.1,3-4.5,4.3
					c-2.7-0.5-6.4-1-7.4-0.6c-1.6,0.6-4.9,6.5-3.6,6.4c0.6-0.1,2.2,0.6,3.7,1.4c-1.2,1.3-2.5,2.8-3.8,4.2c-1.4-0.7-2.9-1.2-4.1-0.9
					c-2.6,0.7-5.1,8.8-5.1,8.8l1.8,1.3c-1.1,1.4-2.2,2.8-3.2,4.2c-1-0.3-1.9-0.5-2.3-0.4c-1,0.1-4.7,7.9-4.7,7.9l1,0.6
					c-0.9,1.2-1.8,2.5-2.6,3.6c2.9,2.7,6,5.2,9.2,7.5c7.2-13,20-32.4,41.8-53.8c24.9-24.6,63.7-46.6,63.7-46.6
					C104,70,80.8,88,64.8,102.3C61.4,101.1,55.2,99.8,53.9,100.3"/>
				<path class="st6" d="M138.4,73.4c0,0-21.9,6.3-57.4,34.6c-1.1-1-3.3-2.7-6-1.6c-3.7,1.4-7,8.4-7,8.4l3.6,1
					c-1.1,0.9-2.1,1.8-3.2,2.8c-1.5-0.4-3.7-0.8-5.1-0.5c-2.3,0.5-6.4,8.2-6.4,8.2l2.2,1c-1,1-2,2.1-3,3.1c-1.2-0.2-2.5-0.3-3.3,0
					c-1.9,0.7-6,8.4-6,8.4l1.2,0.6c-1.3,1.5-2.6,3.1-3.8,4.6c-0.6-0.2-1.1-0.2-1.4-0.1c-1.2,0.5-5.7,8.6-5.7,8.6l0.5,0.1
					c-2,2.7-3.8,5.2-5.4,7.5c3.8,2.4,7.7,4.5,11.9,6.3c5.4-10.7,14.4-26.9,25.4-40.7C87.6,102.8,138.4,73.4,138.4,73.4"/>
				<path class="st6" d="M59.5,84.3c10.9-9.6,3.9-20.2,3.9-20.2C55,72.7,59.5,84.3,59.5,84.3"/>
				<path class="st6" d="M135.5,90.5c0,0-14.1,3.6-41.4,24.6c-1.4-1.1-3.8-2.6-5.7-2.3c-3,0.5-8.6,9-8.6,9l3.8,1.7
					c-0.7,0.6-1.4,1.2-2.1,1.8c-1.5-0.9-3.5-1.8-5.1-1.4c-2.6,0.7-7,8.4-7,8.4l2.4,1.6c-0.7,0.7-1.5,1.4-2.2,2.1
					c-1-0.5-2.1-0.8-3.2-0.4c-2.8,1.1-7,10.2-7,10.2l0.5,0.5c-6.5,7.6-11.5,14.7-14.9,20.2c3.9,1.6,7.9,2.9,12.1,3.8
					c3.5-6.8,7.8-13.8,13-21.6C94.7,111.8,135.5,90.5,135.5,90.5"/>
				<path class="st6" d="M62.3,85.9c13.4,5.7,19.8-5.3,19.8-5.3C70.8,76.8,62.3,85.9,62.3,85.9"/>
				<path class="st6" d="M121.5,148.7c-10.5-21.5-22.4-28.3-22.4-28.3l-7.9,8.1c4.5,4.3,10.3,16.3,8,13.2
					c-2.2-3-10.7-10.1-10.7-10.1l-7.4,9.3c2.2,2,6.9,13,6.1,11.9c-0.8-1.1-7.9-9.4-9.1-8.6c-1.1,0.8-9.2,11.1-7.6,11.5
					c1.6,0.4,4.2,9,4.2,9s-5.6-5.3-7.5-4.6c-1.7,0.7-5.4,9.4-6.1,11.1c4.2,0.7,8.5,1.1,12.9,1.1c18.9,0,36.3-6.8,49.8-18.1
					C123.2,152.3,122.4,150.4,121.5,148.7"/>
				<path class="st6" d="M69.4,71.5c11.5-8.9,5.2-19.9,5.2-19.9C65.6,59.6,69.4,71.5,69.4,71.5"/>
				<path class="st6" d="M95.1,53.4c12.4,7.5,20.4-2.4,20.4-2.4C104.8,45.6,95.1,53.4,95.1,53.4"/>
				<path class="st6" d="M118.2,31.2c-11.8,1.7-15.4,13.5-15.4,13.5c13.7-0.7,15.4-12.1,15.5-13.4C118.3,31.2,118.3,31.2,118.2,31.2
					"/>
			</g>
		</g>
	</g>
</g>
</svg>
