<svg xmlns="http://www.w3.org/2000/svg" viewBox="0 0 287.48 208.96"><defs><style>.cls-1{fill:#76777a;}.cls-2,.cls-5{fill:none;}.cls-2{stroke:#54565a;}.cls-3{fill:#ff8142;}.cls-4{font-size:50px;fill:#0082ca;font-family:Wingdings3, "Wingdings 3";}.cls-5{stroke:#76777a;}</style></defs><title>landfill-graph</title><g id="Layer_2" data-name="Layer 2"><g id="Layer_1-2" data-name="Layer 1"><path class="cls-1" d="M277,208.82h2.05l3-5.54v-1.46h-5.17v1.63H280Zm-3,0h1.83v-7h-1.35l-2,.58.36,1.5,1.13-.28Zm-4.87-1.58c-.75,0-1.24-.8-1.24-1.92v0c0-1.12.49-1.91,1.22-1.91s1.25.81,1.25,1.93v0c0,1.11-.48,1.9-1.23,1.9m0,1.72c1.92,0,3.12-1.66,3.12-3.64v0c0-2-1.19-3.62-3.1-3.62s-3.12,1.66-3.12,3.64v0c0,2,1.19,3.62,3.1,3.62m-9.11-.14h5.31v-1.58h-2.77l1.15-.84c1-.75,1.56-1.33,1.56-2.45v0a2.25,2.25,0,0,0-2.48-2.23,3.09,3.09,0,0,0-2.74,1.5l1.26,1.09c.53-.63.88-.91,1.34-.91a.68.68,0,0,1,.75.72c0,.42-.25.75-.87,1.26l-2.51,2Z"/><path class="cls-1" d="M246.38,207.45a.89.89,0,0,1-.95-.91v0a.86.86,0,0,1,.93-.89.89.89,0,0,1,1,.9v0a.88.88,0,0,1-.94.9m.07,1.51a2.5,2.5,0,0,0,2.67-2.52v0a2.1,2.1,0,0,0-2.22-2.18,2.21,2.21,0,0,0-1.45.54c.05-.56.3-1.5,1.27-1.5a2.09,2.09,0,0,1,1.34.53l.87-1.36a3.38,3.38,0,0,0-2.24-.77c-2.1,0-3.12,1.66-3.12,3.84v0a3.57,3.57,0,0,0,.83,2.62,2.65,2.65,0,0,0,2,.8m-5.71-.14h1.83v-7h-1.35l-2,.58.36,1.5,1.13-.28Zm-4.87-1.58c-.75,0-1.24-.8-1.24-1.92v0c0-1.12.49-1.91,1.22-1.91s1.25.81,1.25,1.93v0c0,1.11-.48,1.9-1.23,1.9m0,1.72c1.92,0,3.12-1.66,3.12-3.64v0c0-2-1.19-3.62-3.1-3.62s-3.12,1.66-3.12,3.64v0c0,2,1.19,3.62,3.1,3.62m-9.11-.14h5.31v-1.58h-2.77l1.15-.84c1-.75,1.56-1.33,1.56-2.45v0a2.25,2.25,0,0,0-2.48-2.23,3.09,3.09,0,0,0-2.74,1.5l1.26,1.09c.53-.63.88-.91,1.34-.91a.68.68,0,0,1,.75.72c0,.42-.25.75-.87,1.26l-2.51,2Z"/><path class="cls-1" d="M213.24,209a2.49,2.49,0,0,0,2.78-2.49v0a2.13,2.13,0,0,0-2.31-2.22,2.25,2.25,0,0,0-1.07.25l.05-1.06h3v-1.6h-4.49l-.2,3.54,1.11.65a2,2,0,0,1,1.07-.35c.59,0,1,.3,1,.81v0c0,.5-.36.82-1,.82a2.48,2.48,0,0,1-1.63-.76l-1.06,1.3a3.65,3.65,0,0,0,2.71,1.11m-5.34-.14h1.83v-7h-1.35l-2,.58.35,1.5,1.14-.28ZM203,207.24c-.75,0-1.25-.8-1.25-1.92v0c0-1.12.49-1.91,1.23-1.91s1.25.81,1.25,1.93v0c0,1.11-.48,1.9-1.23,1.9m0,1.72c1.92,0,3.12-1.66,3.12-3.64v0c0-2-1.19-3.62-3.1-3.62s-3.12,1.66-3.12,3.64v0c0,2,1.19,3.62,3.1,3.62m-9.12-.14h5.32v-1.58h-2.78l1.16-.84c1-.75,1.55-1.33,1.55-2.45v0a2.25,2.25,0,0,0-2.48-2.23,3.09,3.09,0,0,0-2.73,1.5l1.26,1.09c.52-.63.88-.91,1.33-.91a.69.69,0,0,1,.76.72c0,.42-.25.75-.88,1.26l-2.51,2Z"/><path class="cls-1" d="M179.13,206l1.62-2v2Zm1.62,2.8h1.79v-1.36h.85V206h-.85v-4.24h-1.87l-3.49,4.32.3,1.37h3.27Zm-6.14,0h1.83v-7h-1.35l-2,.58.36,1.5,1.13-.28Zm-4.87-1.58c-.75,0-1.24-.8-1.24-1.92v0c0-1.12.49-1.91,1.22-1.91s1.25.81,1.25,1.93v0c0,1.11-.48,1.9-1.23,1.9m0,1.72c1.92,0,3.13-1.66,3.13-3.64v0c0-2-1.2-3.62-3.11-3.62s-3.12,1.66-3.12,3.64v0c0,2,1.2,3.62,3.1,3.62m-9.11-.14h5.31v-1.58h-2.77l1.15-.84c1-.75,1.56-1.33,1.56-2.45v0a2.25,2.25,0,0,0-2.48-2.23,3.09,3.09,0,0,0-2.74,1.5l1.26,1.09c.53-.63.88-.91,1.34-.91a.68.68,0,0,1,.75.72c0,.42-.25.75-.87,1.26l-2.51,2Z"/><path class="cls-1" d="M148.72,209a2.35,2.35,0,0,0,2.59-2.33v0a1.94,1.94,0,0,0-1.74-2l1.6-1.44v-1.38h-4.84v1.57h2.56l-1.54,1.45.26,1h.79c.71,0,1.09.27,1.09.72v0c0,.43-.32.71-.85.71a2.13,2.13,0,0,1-1.6-.8l-1.19,1.22a3.63,3.63,0,0,0,2.87,1.24m-5.48-.14h1.84v-7h-1.36l-2,.58.35,1.5,1.13-.28Zm-4.86-1.58c-.75,0-1.25-.8-1.25-1.92v0c0-1.12.49-1.91,1.23-1.91s1.25.81,1.25,1.93v0c0,1.11-.48,1.9-1.23,1.9m0,1.72c1.92,0,3.12-1.66,3.12-3.64v0c0-2-1.19-3.62-3.1-3.62s-3.12,1.66-3.12,3.64v0c0,2,1.19,3.62,3.1,3.62m-9.12-.14h5.31v-1.58h-2.77l1.15-.84c1-.75,1.56-1.33,1.56-2.45v0A2.25,2.25,0,0,0,132,201.7a3.09,3.09,0,0,0-2.73,1.5l1.25,1.09c.53-.63.89-.91,1.34-.91a.69.69,0,0,1,.76.72c0,.42-.25.75-.88,1.26l-2.51,2Z"/><path class="cls-1" d="M111.68,208.82H117v-1.58h-2.78l1.15-.84c1-.75,1.56-1.33,1.56-2.45v0a2.25,2.25,0,0,0-2.48-2.23,3.09,3.09,0,0,0-2.73,1.5l1.25,1.09c.53-.63.89-.91,1.34-.91a.69.69,0,0,1,.76.72c0,.42-.25.75-.88,1.26l-2.51,2Zm-2.76,0h1.84v-7H109.4l-2,.58.35,1.5,1.13-.28Zm-4.86-1.58c-.75,0-1.25-.8-1.25-1.92v0c0-1.12.49-1.91,1.23-1.91s1.25.81,1.25,1.93v0c0,1.11-.48,1.9-1.23,1.9m0,1.72c1.92,0,3.12-1.66,3.12-3.64v0c0-2-1.19-3.62-3.1-3.62s-3.12,1.66-3.12,3.64v0c0,2,1.19,3.62,3.1,3.62m-9.12-.14h5.31v-1.58H97.46l1.15-.84c1-.75,1.56-1.33,1.56-2.45v0a2.25,2.25,0,0,0-2.48-2.23A3.09,3.09,0,0,0,95,203.2l1.25,1.09c.53-.63.89-.91,1.34-.91a.69.69,0,0,1,.76.72c0,.42-.25.75-.88,1.26l-2.51,2Z"/><path class="cls-1" d="M80.9,208.82h1.83v-7H81.38l-2,.58.35,1.5,1.14-.28Zm-4,0h1.84v-7H77.37l-2,.58.35,1.5,1.13-.28ZM72,207.24c-.75,0-1.25-.8-1.25-1.92v0c0-1.12.49-1.91,1.23-1.91s1.25.81,1.25,1.93v0c0,1.11-.48,1.9-1.23,1.9M72,209c1.92,0,3.12-1.66,3.12-3.64v0c0-2-1.19-3.62-3.1-3.62s-3.12,1.66-3.12,3.64v0c0,2,1.19,3.62,3.1,3.62m-9.12-.14H68.2v-1.58H65.43l1.15-.84c1-.75,1.56-1.33,1.56-2.45v0a2.25,2.25,0,0,0-2.48-2.23,3.09,3.09,0,0,0-2.73,1.5l1.25,1.09c.53-.63.89-.91,1.34-.91a.69.69,0,0,1,.76.72c0,.42-.25.75-.88,1.26l-2.51,2Z"/><path class="cls-1" d="M48.37,207.24c-.75,0-1.25-.8-1.25-1.92v0c0-1.12.49-1.91,1.23-1.91s1.25.81,1.25,1.93v0c0,1.11-.48,1.9-1.23,1.9m0,1.72c1.92,0,3.12-1.66,3.12-3.64v0c0-2-1.19-3.62-3.1-3.62s-3.12,1.66-3.12,3.64v0c0,2,1.19,3.62,3.1,3.62m-5.93-.14h1.83v-7H42.9l-2,.58.35,1.5,1.14-.28Zm-4.87-1.58c-.75,0-1.25-.8-1.25-1.92v0c0-1.12.49-1.91,1.23-1.91s1.25.81,1.25,1.93v0c0,1.11-.48,1.9-1.23,1.9m0,1.72c1.92,0,3.12-1.66,3.12-3.64v0c0-2-1.19-3.62-3.1-3.62s-3.12,1.66-3.12,3.64v0c0,2,1.19,3.62,3.1,3.62m-9.12-.14h5.32v-1.58H31l1.16-.84c1-.75,1.55-1.33,1.55-2.45v0a2.25,2.25,0,0,0-2.48-2.23,3.09,3.09,0,0,0-2.73,1.5l1.26,1.09c.52-.63.88-.91,1.33-.91a.69.69,0,0,1,.76.72c0,.42-.25.75-.88,1.26l-2.51,2Z"/><path class="cls-1" d="M15.62,164.38c-1.26,0-2.07-1.37-2.07-2.9v0c0-1.54.79-2.88,2-2.88s2,1.37,2,2.9v0c0,1.53-.77,2.88-2,2.88m0,.72c1.73,0,2.84-1.66,2.84-3.62v0c0-2-1.09-3.6-2.82-3.6s-2.85,1.66-2.85,3.62v0c0,2,1.09,3.6,2.83,3.6m-6.35,0a2.24,2.24,0,0,0,2.4-2.3v0a2.12,2.12,0,0,0-2.32-2.14A2.89,2.89,0,0,0,8,161l.14-2.24h3.21V158H7.49l-.19,3.41.5.35a2.85,2.85,0,0,1,1.42-.4,1.51,1.51,0,0,1,1.67,1.47v0a1.54,1.54,0,0,1-1.63,1.55,2.78,2.78,0,0,1-1.91-1l-.49.57a3.34,3.34,0,0,0,2.39,1.11"/><path class="cls-1" d="M15.62,133.38c-1.26,0-2.07-1.37-2.07-2.9v0c0-1.54.79-2.88,2-2.88s2,1.37,2,2.9v0c0,1.53-.77,2.88-2,2.88m0,.72c1.73,0,2.84-1.66,2.84-3.62v0c0-2-1.09-3.6-2.82-3.6s-2.85,1.66-2.85,3.62v0c0,2,1.09,3.6,2.83,3.6m-6.8-.72c-1.26,0-2.06-1.37-2.06-2.9v0c0-1.54.79-2.88,2-2.88s2.06,1.37,2.06,2.9v0c0,1.53-.78,2.88-2,2.88m0,.72c1.73,0,2.84-1.66,2.84-3.62v0c0-2-1.09-3.6-2.82-3.6S6,128.52,6,130.48v0c0,2,1.1,3.6,2.83,3.6M3.69,134h.74v-7H3.88l-1.64.59.18.64,1.27-.41Z"/><path class="cls-1" d="M15.62,102.38c-1.26,0-2.07-1.37-2.07-2.9v0c0-1.54.79-2.88,2-2.88s2,1.37,2,2.9v0c0,1.53-.77,2.88-2,2.88m0,.72c1.73,0,2.84-1.66,2.84-3.62v0c0-2-1.09-3.6-2.82-3.6s-2.85,1.66-2.85,3.62v0c0,2,1.09,3.6,2.83,3.6m-6.35,0a2.24,2.24,0,0,0,2.4-2.3v0a2.12,2.12,0,0,0-2.32-2.14A2.89,2.89,0,0,0,8,99l.14-2.24h3.21V96H7.49L7.3,99.39l.5.35a2.85,2.85,0,0,1,1.42-.4,1.51,1.51,0,0,1,1.67,1.47v0a1.54,1.54,0,0,1-1.63,1.55,2.78,2.78,0,0,1-1.91-1l-.5.57a3.38,3.38,0,0,0,2.4,1.11M4.68,103h.74v-7H4.87l-1.64.59.18.64,1.27-.41Z"/><path class="cls-1" d="M15.62,71.38c-1.26,0-2.07-1.37-2.07-2.9v0c0-1.54.79-2.88,2-2.88s2,1.37,2,2.9v0c0,1.53-.77,2.88-2,2.88m0,.72c1.73,0,2.84-1.66,2.84-3.62v0c0-2-1.09-3.6-2.82-3.6s-2.85,1.66-2.85,3.62v0c0,2,1.09,3.6,2.83,3.6m-6.8-.72c-1.26,0-2.06-1.37-2.06-2.9v0c0-1.54.79-2.88,2-2.88s2.06,1.37,2.06,2.9v0c0,1.53-.78,2.88-2,2.88m0,.72c1.73,0,2.84-1.66,2.84-3.62v0c0-2-1.09-3.6-2.82-3.6S6,66.52,6,68.48v0c0,2,1.1,3.6,2.83,3.6M.12,72H4.81v-.72H1.25L3,69.6c1.18-1.07,1.7-1.7,1.7-2.72v0a2,2,0,0,0-2.08-2A2.66,2.66,0,0,0,.24,66.37l.56.42a2.13,2.13,0,0,1,1.8-1.2A1.31,1.31,0,0,1,4,66.93c0,.7-.38,1.24-1.41,2.2L.12,71.37Z"/><path class="cls-1" d="M15.62,40.38c-1.26,0-2.07-1.37-2.07-2.9v0c0-1.54.79-2.88,2-2.88s2,1.37,2,2.9v0c0,1.53-.77,2.88-2,2.88m0,.72c1.73,0,2.84-1.66,2.84-3.62v0c0-2-1.09-3.6-2.82-3.6s-2.85,1.66-2.85,3.62v0c0,2,1.09,3.6,2.83,3.6m-6.35,0a2.24,2.24,0,0,0,2.4-2.3v0a2.12,2.12,0,0,0-2.32-2.14A2.89,2.89,0,0,0,8,37l.14-2.24h3.21V34H7.49L7.3,37.39l.5.35a2.85,2.85,0,0,1,1.42-.4,1.51,1.51,0,0,1,1.67,1.47v0a1.54,1.54,0,0,1-1.63,1.55,2.78,2.78,0,0,1-1.91-1l-.5.57a3.38,3.38,0,0,0,2.4,1.11M1.1,41H5.8v-.72H2.24L4,38.6c1.18-1.07,1.7-1.7,1.7-2.72v0a2,2,0,0,0-2.08-2,2.64,2.64,0,0,0-2.42,1.49l.56.42a2.13,2.13,0,0,1,1.8-1.2,1.31,1.31,0,0,1,1.35,1.34c0,.7-.37,1.24-1.4,2.2L1.1,40.37Z"/><path class="cls-1" d="M15.62,9.38c-1.26,0-2.07-1.37-2.07-2.9v0c0-1.54.79-2.88,2-2.88s2,1.37,2,2.9v0c0,1.53-.77,2.88-2,2.88m0,.72c1.73,0,2.84-1.66,2.84-3.62v0c0-2-1.09-3.6-2.82-3.6s-2.85,1.66-2.85,3.62v0c0,2,1.09,3.6,2.83,3.6M8.8,9.38C7.54,9.38,6.74,8,6.74,6.48v0c0-1.54.79-2.88,2-2.88S10.84,5,10.84,6.48v0c0,1.53-.78,2.88-2,2.88m0,.72c1.73,0,2.85-1.66,2.85-3.62v0c0-2-1.1-3.6-2.83-3.6S6,4.52,6,6.48v0c0,2,1.1,3.6,2.83,3.6m-6.27,0A2.12,2.12,0,0,0,4.75,8V8c0-1.28-1-1.87-2.22-2L4.65,3.56V3H.36v.71H3.64L1.52,6.18l.15.47H2.1C3.21,6.65,4,7.13,4,8V8A1.37,1.37,0,0,1,2.52,9.38a2.38,2.38,0,0,1-2-1L0,8.85A3,3,0,0,0,2.51,10.1"/><line class="cls-2" x1="23.48" y1="161.67" x2="287.48" y2="161.67"/><line class="cls-2" x1="23.48" y1="130.22" x2="287.48" y2="130.22"/><line class="cls-2" x1="23.48" y1="100.05" x2="287.48" y2="100.05"/><line class="cls-2" x1="23.48" y1="69.8" x2="287.48" y2="69.8"/><line class="cls-2" x1="23.48" y1="39.04" x2="287.48" y2="39.04"/><line class="cls-2" x1="23.48" y1="8.28" x2="287.48" y2="8.28"/><rect class="cls-3" x="30.8" y="42.74" width="15.36" height="148.9"/><rect class="cls-3" x="65.3" y="61.1" width="15.36" height="130.54"/><rect class="cls-3" x="98.3" y="65.91" width="15.36" height="125.73"/><text class="cls-4" transform="translate(98.3 104.46)"> </text><rect class="cls-3" x="131.3" y="93.4" width="15.36" height="98.24"/><rect class="cls-3" x="164.3" y="99.56" width="15.36" height="92.08"/><rect class="cls-3" x="197.3" y="100.56" width="15.36" height="91.08"/><rect class="cls-3" x="230.3" y="113.43" width="15.36" height="78.21"/><rect class="cls-3" x="263.3" y="116.14" width="15.36" height="75.5"/><polyline class="cls-5" points="287.48 191.14 26.72 191.14 26.72 0"/></g></g></svg>