<?xml version="1.0" encoding="utf-8"?>
<!-- Generator: Adobe Illustrator 23.0.2, SVG Export Plug-In . SVG Version: 6.00 Build 0)  -->
<svg version="1.1" id="Layer_1" xmlns="http://www.w3.org/2000/svg" xmlns:xlink="http://www.w3.org/1999/xlink" x="0px" y="0px"
	 viewBox="0 0 612 234" style="enable-background:new 0 0 612 234;" xml:space="preserve">
<style type="text/css">
	.st0{clip-path:url(#SVGID_2_);}
	.st1{clip-path:url(#SVGID_4_);fill:#004987;}
	.st2{clip-path:url(#SVGID_4_);fill:#FF671D;}
	.st3{clip-path:url(#SVGID_4_);fill:#FFFFFF;}
	.st4{opacity:0.5;clip-path:url(#SVGID_4_);}
	.st5{clip-path:url(#SVGID_6_);fill:#FF671D;}
	.st6{clip-path:url(#SVGID_6_);fill:none;stroke:#FFFFFF;stroke-width:2.368;stroke-miterlimit:10;}
	.st7{clip-path:url(#SVGID_8_);fill:#FFFFFF;}
</style>
<g>
	<defs>
		<rect id="SVGID_1_" width="612" height="792"/>
	</defs>
	<clipPath id="SVGID_2_">
		<use xlink:href="#SVGID_1_"  style="overflow:visible;"/>
	</clipPath>
	<g class="st0">
		<defs>
			<rect id="SVGID_3_" width="612" height="792"/>
		</defs>
		<clipPath id="SVGID_4_">
			<use xlink:href="#SVGID_3_"  style="overflow:visible;"/>
		</clipPath>
		<path class="st1" d="M214.6,0h397.9L612,232.6c0,0-151.2-51.8-509.8-51.8L214.6,0z"/>
		<path class="st2" d="M612.5,0H0v226.1c0,0,253.6-131.8,612.5-131.8V0z"/>
		<path class="st3" d="M460.4,89.6c9,0,15.3-5,15.3-13.2v-0.1c0-7.1-5-10.4-13-13c-5.3-2-6.7-2.9-6.7-4.8v-0.1
			c0-1.6,1.4-2.8,3.8-2.8c3.4,0,6.9,1.6,9.8,3.8l5.5-8c-4.4-3.5-9.4-5.1-15-5.1c-9.2,0-15,5.3-15,13v0.2c0,7.6,5.6,10.5,13.5,13.2
			c4.9,1.7,6.2,2.8,6.2,4.4v0.1c0,1.8-1.5,3.1-4.4,3.1c-4.1,0-8-1.9-11.4-4.7l-5.8,7.9C448.3,87.7,454.2,89.6,460.4,89.6 M415,89
			h27.3v-9.7h-16.5V47H415V89z M383.4,89h27.3v-9.7h-16.5V47h-10.8V89z M366.1,89h10.8V47h-10.8V89z M332.9,89h10.8V73.5h16v-9.3
			h-16v-7.4h17.8V47h-28.6V89z M306.8,56.7c6,0,10,3.5,10,11.1v0.5c0,7.5-4,11-10,11h-3.1V56.7H306.8z M292.9,89h13.6
			c13.6,0,21.4-8.4,21.4-20.8v-0.7c0-12.4-7.7-20.5-21.2-20.5h-13.8V89z M251.9,89h10.6V67l14.5,22h9.6V47h-10.6v21.1l-14-21.1
			h-10.1V89z M224.3,72.8l3.9-12.3l3.9,12.3H224.3z M208.1,89h11.1l2.4-7.6h13.2l2.5,7.6h11.3l-14.8-42.2h-10.9L208.1,89z M179.5,89
			h27.3v-9.7h-16.5V47h-10.8V89z"/>
		<path class="st3" d="M574.1,178.5h1.1v-1.2h-1.1V178.5z M570.8,178.6c1.1,0,2-0.7,2-1.8v0c0-0.9-0.7-1.4-1.8-1.8
			c-0.9-0.4-1.4-0.6-1.4-1.2v0c0-0.5,0.4-0.9,1.1-0.9c0.6,0,1.1,0.2,1.6,0.6l0.4-0.7c-0.5-0.4-1.3-0.7-2-0.7c-1.1,0-1.9,0.7-1.9,1.7
			v0c0,1,0.8,1.4,1.8,1.8c0.8,0.3,1.4,0.6,1.4,1.2v0c0,0.6-0.5,1-1.2,1c-0.6,0-1.2-0.3-1.8-0.8l-0.5,0.6
			C569.2,178.3,570,178.6,570.8,178.6 M562.6,178.5h0.9v-3.8c0-1.1,0.7-1.8,1.6-1.8c0.9,0,1.4,0.6,1.4,1.7v3.9h0.9v-4.1
			c0-1.4-0.8-2.3-2-2.3c-0.9,0-1.5,0.5-1.8,1.1v-1h-0.9V178.5z M558.4,177.8c-1.1,0-1.9-1-1.9-2.4v-0.1c0-1.4,0.8-2.4,1.9-2.4
			c1.1,0,1.9,1,1.9,2.4v0.1C560.3,176.8,559.5,177.8,558.4,177.8 M558.4,178.6c1.6,0,2.8-1.4,2.8-3.2v-0.1c0-1.8-1.2-3.2-2.8-3.2
			c-1.6,0-2.8,1.4-2.8,3.2v0.1C555.6,177.2,556.8,178.6,558.4,178.6 M553.3,178.5h0.9v-6.2h-0.9V178.5z M553.2,170.9h1v-1h-1V170.9z
			 M550.9,178.6c0.4,0,0.7-0.1,0.9-0.2v-0.7c-0.3,0.1-0.5,0.2-0.7,0.2c-0.5,0-0.9-0.2-0.9-0.9V173h1.6v-0.8h-1.6v-1.8h-0.9v1.8h-0.8
			v0.8h0.8v4C549.3,178.1,550,178.6,550.9,178.6 M544.5,178.6c0.9,0,1.5-0.5,1.8-1.1v1h0.9v-6.2h-0.9v3.8c0,1.1-0.7,1.8-1.6,1.8
			c-0.9,0-1.4-0.6-1.4-1.7v-3.9h-0.9v4.1C542.5,177.7,543.3,178.6,544.5,178.6 M539.9,178.5h0.9v-8.7h-0.9V178.5z M535.6,177.8
			c-1.1,0-1.9-1-1.9-2.4v-0.1c0-1.4,0.8-2.4,1.9-2.4c1.1,0,1.9,1,1.9,2.4v0.1C537.5,176.8,536.7,177.8,535.6,177.8 M535.6,178.6
			c1.6,0,2.8-1.4,2.8-3.2v-0.1c0-1.8-1.2-3.2-2.8-3.2c-1.6,0-2.8,1.4-2.8,3.2v0.1C532.8,177.2,534,178.6,535.6,178.6 M529.1,178.6
			c1.5,0,2.6-0.9,2.6-2.3v0c0-1.1-0.6-1.8-2.3-2.4c-1.6-0.6-2-1-2-1.7v0c0-0.7,0.6-1.3,1.6-1.3c0.7,0,1.4,0.3,2,0.8l0.5-0.7
			c-0.7-0.6-1.5-0.9-2.5-0.9c-1.5,0-2.5,1-2.5,2.2v0c0,1.2,0.7,1.8,2.4,2.5c1.5,0.5,1.9,1,1.9,1.7v0c0,0.8-0.7,1.4-1.7,1.4
			c-0.9,0-1.7-0.4-2.4-1l-0.6,0.7C527,178.2,528,178.6,529.1,178.6 M517.9,175c0.1-1.3,0.8-2.2,1.7-2.2c1,0,1.6,1,1.6,2.2H517.9z
			 M519.8,178.6c0.9,0,1.6-0.4,2.1-0.9l-0.5-0.6c-0.4,0.4-0.9,0.7-1.6,0.7c-1,0-1.8-0.8-1.9-2.1h4.2c0-0.1,0-0.3,0-0.4
			c0-1.9-0.9-3.2-2.5-3.2c-1.5,0-2.6,1.3-2.6,3.2v0.1C517,177.4,518.2,178.6,519.8,178.6 M514.2,178.6c0.9,0,1.5-0.4,2-0.9l-0.5-0.6
			c-0.4,0.4-0.9,0.7-1.5,0.7c-1.1,0-1.9-0.9-1.9-2.4v-0.1c0-1.5,0.8-2.4,1.9-2.4c0.6,0,1.1,0.3,1.5,0.7l0.5-0.6
			c-0.5-0.5-1.1-0.9-2-0.9c-1.6,0-2.8,1.3-2.8,3.2v0.1C511.4,177.3,512.6,178.6,514.2,178.6 M507.8,178.5h0.9v-3
			c0-1.6,0.9-2.4,2.1-2.4h0v-0.9c-1,0-1.8,0.6-2.1,1.5v-1.4h-0.9V178.5z M503.3,178.6c0.9,0,1.5-0.5,1.8-1.1v1h0.9v-6.2h-0.9v3.8
			c0,1.1-0.7,1.8-1.6,1.8c-0.9,0-1.4-0.6-1.4-1.7v-3.9h-0.9v4.1C501.3,177.7,502,178.6,503.3,178.6 M497.1,177.8
			c-1.1,0-1.9-1-1.9-2.4v-0.1c0-1.4,0.8-2.4,1.9-2.4c1.1,0,1.9,1,1.9,2.4v0.1C499,176.8,498.3,177.8,497.1,177.8 M497.1,178.6
			c1.6,0,2.8-1.4,2.8-3.2v-0.1c0-1.8-1.2-3.2-2.8-3.2c-1.6,0-2.8,1.4-2.8,3.2v0.1C494.4,177.2,495.5,178.6,497.1,178.6 M491.3,178.6
			c1.1,0,2-0.7,2-1.8v0c0-0.9-0.7-1.4-1.8-1.8c-0.9-0.4-1.4-0.6-1.4-1.2v0c0-0.5,0.4-0.9,1.1-0.9c0.6,0,1.1,0.2,1.6,0.6l0.4-0.7
			c-0.5-0.4-1.3-0.7-2-0.7c-1.1,0-1.9,0.7-1.9,1.7v0c0,1,0.8,1.4,1.8,1.8c0.8,0.3,1.4,0.6,1.4,1.2v0c0,0.6-0.5,1-1.2,1
			c-0.6,0-1.2-0.3-1.8-0.8l-0.5,0.6C489.7,178.3,490.5,178.6,491.3,178.6 M484,175c0.1-1.3,0.8-2.2,1.7-2.2c1,0,1.6,1,1.6,2.2H484z
			 M485.9,178.6c0.9,0,1.6-0.4,2.1-0.9l-0.5-0.6c-0.4,0.4-0.9,0.7-1.6,0.7c-1,0-1.8-0.8-1.9-2.1h4.2c0-0.1,0-0.3,0-0.4
			c0-1.9-0.9-3.2-2.5-3.2c-1.5,0-2.6,1.3-2.6,3.2v0.1C483.1,177.4,484.3,178.6,485.9,178.6 M477.1,174.4v-3.5h1.9c1.3,0,2,0.6,2,1.7
			v0c0,1.1-0.8,1.8-2.1,1.8H477.1z M476.2,178.5h0.9v-3.3h1.9l2.1,3.3h1.1L480,175c1.2-0.3,2-1.1,2-2.4v0c0-0.7-0.2-1.3-0.7-1.7
			c-0.5-0.5-1.2-0.8-2.2-0.8h-2.9V178.5z M469.5,178.5h0.9V173h1.6v-0.8h-1.6v-0.5c0-0.8,0.3-1.2,0.9-1.2c0.2,0,0.5,0,0.7,0.1v-0.8
			c-0.2-0.1-0.5-0.1-0.8-0.1c-0.5,0-0.9,0.2-1.2,0.4c-0.3,0.3-0.5,0.8-0.5,1.4v0.6h-0.8v0.8h0.8V178.5z M464.9,177.8
			c-1.1,0-1.9-1-1.9-2.4v-0.1c0-1.4,0.8-2.4,1.9-2.4c1.1,0,1.9,1,1.9,2.4v0.1C466.8,176.8,466,177.8,464.9,177.8 M464.9,178.6
			c1.6,0,2.8-1.4,2.8-3.2v-0.1c0-1.8-1.2-3.2-2.8-3.2c-1.6,0-2.8,1.4-2.8,3.2v0.1C462.2,177.2,463.3,178.6,464.9,178.6 M453.8,175
			c0.1-1.3,0.8-2.2,1.7-2.2c1,0,1.6,1,1.6,2.2H453.8z M455.7,178.6c0.9,0,1.6-0.4,2.1-0.9l-0.5-0.6c-0.4,0.4-0.9,0.7-1.6,0.7
			c-1,0-1.8-0.8-1.9-2.1h4.2c0-0.1,0-0.3,0-0.4c0-1.9-0.9-3.2-2.5-3.2c-1.5,0-2.6,1.3-2.6,3.2v0.1
			C452.9,177.4,454.2,178.6,455.7,178.6 M451.1,178.6c0.4,0,0.7-0.1,0.9-0.2v-0.7c-0.3,0.1-0.5,0.2-0.7,0.2c-0.5,0-0.9-0.2-0.9-0.9
			V173h1.6v-0.8h-1.6v-1.8h-0.9v1.8h-0.8v0.8h0.8v4C449.5,178.1,450.2,178.6,451.1,178.6 M446.5,178.5h0.9v-6.2h-0.9V178.5z
			 M446.5,170.9h1v-1h-1V170.9z M442,178.6c0.9,0,1.5-0.5,1.8-1.1v1h0.9v-6.2h-0.9v3.8c0,1.1-0.7,1.8-1.6,1.8
			c-0.9,0-1.4-0.6-1.4-1.7v-3.9h-0.9v4.1C439.9,177.7,440.7,178.6,442,178.6 M436.6,178.6c1.1,0,2-0.7,2-1.8v0
			c0-0.9-0.7-1.4-1.8-1.8c-0.9-0.4-1.4-0.6-1.4-1.2v0c0-0.5,0.4-0.9,1.1-0.9c0.6,0,1.1,0.2,1.6,0.6l0.4-0.7c-0.5-0.4-1.3-0.7-2-0.7
			c-1.1,0-1.9,0.7-1.9,1.7v0c0,1,0.8,1.4,1.8,1.8c0.8,0.3,1.4,0.6,1.4,1.2v0c0,0.6-0.5,1-1.2,1c-0.6,0-1.2-0.3-1.8-0.8l-0.5,0.6
			C435,178.3,435.8,178.6,436.6,178.6 M429.1,178.5h0.9v-8.7h-0.9V178.5z M426.3,178.5h0.9v-8.7h-0.9V178.5z M421.7,178.6
			c0.9,0,1.5-0.5,1.8-1.1v1h0.9v-6.2h-0.9v3.8c0,1.1-0.7,1.8-1.6,1.8c-0.9,0-1.4-0.6-1.4-1.7v-3.9h-0.9v4.1
			C419.7,177.7,420.4,178.6,421.7,178.6 M416.2,178.5h0.9V173h1.6v-0.8h-1.6v-0.5c0-0.8,0.3-1.2,0.9-1.2c0.2,0,0.5,0,0.7,0.1v-0.8
			c-0.2-0.1-0.5-0.1-0.8-0.1c-0.5,0-0.9,0.2-1.2,0.4c-0.3,0.3-0.5,0.8-0.5,1.4v0.6h-0.8v0.8h0.8V178.5z M408.6,178.5h0.9v-3
			c0-1.6,0.9-2.4,2.1-2.4h0v-0.9c-1,0-1.8,0.6-2.1,1.5v-1.4h-0.9V178.5z M404.1,178.6c0.9,0,1.5-0.5,1.8-1.1v1h0.9v-6.2H406v3.8
			c0,1.1-0.7,1.8-1.6,1.8c-0.9,0-1.4-0.6-1.4-1.7v-3.9h-0.9v4.1C402.1,177.7,402.8,178.6,404.1,178.6 M397.9,177.8
			c-1.1,0-1.9-1-1.9-2.4v-0.1c0-1.4,0.8-2.4,1.9-2.4c1.1,0,1.9,1,1.9,2.4v0.1C399.8,176.8,399.1,177.8,397.9,177.8 M397.9,178.6
			c1.6,0,2.8-1.4,2.8-3.2v-0.1c0-1.8-1.2-3.2-2.8-3.2c-1.6,0-2.8,1.4-2.8,3.2v0.1C395.2,177.2,396.3,178.6,397.9,178.6"/>
		<path class="st3" d="M573.4,164.5h0.9V159h1.6v-0.8h-1.6v-0.5c0-0.8,0.3-1.2,0.9-1.2c0.2,0,0.5,0,0.7,0.1v-0.8
			c-0.2-0.1-0.5-0.1-0.8-0.1c-0.5,0-0.9,0.2-1.2,0.4c-0.3,0.3-0.5,0.8-0.5,1.4v0.6h-0.8v0.8h0.8V164.5z M568.8,163.8
			c-1.1,0-1.9-1-1.9-2.4v-0.1c0-1.4,0.8-2.4,1.9-2.4c1.1,0,1.9,1,1.9,2.4v0.1C570.7,162.8,570,163.8,568.8,163.8 M568.8,164.6
			c1.6,0,2.8-1.4,2.8-3.2v-0.1c0-1.8-1.2-3.2-2.8-3.2c-1.6,0-2.8,1.4-2.8,3.2v0.1C566.1,163.2,567.2,164.6,568.8,164.6 M561,164.6
			c0.4,0,0.7-0.1,0.9-0.2v-0.7c-0.3,0.1-0.5,0.2-0.7,0.2c-0.5,0-0.9-0.2-0.9-0.9V159h1.6v-0.8h-1.6v-1.8h-0.9v1.8h-0.8v0.8h0.8v4
			C559.4,164.1,560.1,164.6,561,164.6 M554.9,164.5h0.9v-3c0-1.6,0.9-2.4,2.1-2.4h0v-0.9c-1,0-1.8,0.6-2.1,1.5v-1.4h-0.9V164.5z
			 M550.7,163.9c-0.7,0-1.3-0.5-1.3-1.3v0c0-0.8,0.6-1.3,1.5-1.3c0.6,0,1.1,0.1,1.5,0.3v0.8C552.4,163.2,551.6,163.9,550.7,163.9
			 M550.5,164.6c0.9,0,1.5-0.5,1.9-1v0.9h0.9v-4c0-0.7-0.2-1.3-0.6-1.7c-0.4-0.4-1-0.6-1.8-0.6c-0.8,0-1.4,0.2-2,0.5l0.3,0.7
			c0.4-0.2,1-0.4,1.6-0.4c1,0,1.6,0.5,1.6,1.5v0.4c-0.5-0.1-0.9-0.3-1.6-0.3c-1.4,0-2.3,0.7-2.3,2v0
			C548.5,163.9,549.4,164.6,550.5,164.6 M544.8,163.8c-1,0-1.9-0.9-1.9-2.4v-0.1c0-1.5,0.9-2.4,1.9-2.4c1,0,1.8,0.9,1.8,2.4v0.1
			C546.5,162.9,545.7,163.8,544.8,163.8 M542,166.3h0.9v-3c0.4,0.7,1,1.3,2,1.3c1.3,0,2.5-1.1,2.5-3.2v-0.1c0-2.1-1.2-3.2-2.5-3.2
			c-1,0-1.6,0.6-2,1.3v-1.2H542V166.3z M536.2,164.5h0.9v-8.7h-0.9V164.5z M531.9,163.9c-0.7,0-1.3-0.5-1.3-1.3v0
			c0-0.8,0.6-1.3,1.5-1.3c0.6,0,1.1,0.1,1.5,0.3v0.8C533.6,163.2,532.8,163.9,531.9,163.9 M531.7,164.6c0.9,0,1.5-0.5,1.9-1v0.9h0.9
			v-4c0-0.7-0.2-1.3-0.6-1.7c-0.4-0.4-1-0.6-1.8-0.6c-0.8,0-1.4,0.2-2,0.5l0.3,0.7c0.4-0.2,1-0.4,1.6-0.4c1,0,1.6,0.5,1.6,1.5v0.4
			c-0.5-0.1-0.9-0.3-1.6-0.3c-1.4,0-2.3,0.7-2.3,2v0C529.7,163.9,530.7,164.6,531.7,164.6 M527.4,164.5h0.9v-6.2h-0.9V164.5z
			 M527.3,156.9h1v-1h-1V156.9z M525,164.6c0.4,0,0.7-0.1,0.9-0.2v-0.7c-0.3,0.1-0.5,0.2-0.7,0.2c-0.5,0-0.9-0.2-0.9-0.9V159h1.6
			v-0.8h-1.6v-1.8h-0.9v1.8h-0.8v0.8h0.8v4C523.4,164.1,524.1,164.6,525,164.6 M516.7,164.5h0.9v-3.8c0-1.1,0.7-1.8,1.6-1.8
			c0.9,0,1.4,0.6,1.4,1.7v3.9h0.9v-4.1c0-1.4-0.8-2.3-2-2.3c-0.9,0-1.5,0.5-1.8,1.1v-1h-0.9V164.5z M511.1,161
			c0.1-1.3,0.8-2.2,1.7-2.2c1,0,1.6,1,1.6,2.2H511.1z M513,164.6c0.9,0,1.6-0.4,2.1-0.9l-0.5-0.6c-0.4,0.4-0.9,0.7-1.6,0.7
			c-1,0-1.8-0.8-1.9-2.1h4.2c0-0.1,0-0.3,0-0.4c0-1.9-0.9-3.2-2.5-3.2c-1.5,0-2.6,1.3-2.6,3.2v0.1
			C510.3,163.4,511.5,164.6,513,164.6 M507.1,164.6c1.1,0,2-0.7,2-1.8v0c0-0.9-0.7-1.4-1.8-1.8c-0.9-0.4-1.4-0.6-1.4-1.2v0
			c0-0.5,0.4-0.9,1.1-0.9c0.6,0,1.1,0.2,1.6,0.6l0.4-0.7c-0.5-0.4-1.3-0.7-2-0.7c-1.1,0-1.9,0.7-1.9,1.7v0c0,1,0.8,1.4,1.8,1.8
			c0.8,0.3,1.4,0.6,1.4,1.2v0c0,0.6-0.5,1-1.2,1c-0.6,0-1.2-0.3-1.8-0.8l-0.5,0.6C505.5,164.3,506.4,164.6,507.1,164.6 M502.1,164.6
			c1.1,0,2-0.7,2-1.8v0c0-0.9-0.7-1.4-1.8-1.8c-0.9-0.4-1.4-0.6-1.4-1.2v0c0-0.5,0.4-0.9,1.1-0.9c0.6,0,1.1,0.2,1.6,0.6l0.4-0.7
			c-0.5-0.4-1.3-0.7-2-0.7c-1.1,0-1.9,0.7-1.9,1.7v0c0,1,0.8,1.4,1.8,1.8c0.8,0.3,1.4,0.6,1.4,1.2v0c0,0.6-0.5,1-1.2,1
			c-0.6,0-1.2-0.3-1.8-0.8l-0.5,0.6C500.5,164.3,501.3,164.6,502.1,164.6 M494.8,161c0.1-1.3,0.8-2.2,1.7-2.2c1,0,1.6,1,1.6,2.2
			H494.8z M496.7,164.6c0.9,0,1.6-0.4,2.1-0.9l-0.5-0.6c-0.4,0.4-0.9,0.7-1.6,0.7c-1,0-1.8-0.8-1.9-2.1h4.2c0-0.1,0-0.3,0-0.4
			c0-1.9-0.9-3.2-2.5-3.2c-1.5,0-2.6,1.3-2.6,3.2v0.1C493.9,163.4,495.2,164.6,496.7,164.6 M484.7,164.5h0.9v-3.8
			c0-1.1,0.7-1.8,1.6-1.8s1.4,0.6,1.4,1.7v3.9h0.9v-4.1c0-1.4-0.8-2.3-2-2.3c-0.9,0-1.5,0.5-1.8,1.1v-1h-0.9V164.5z M480.5,163.9
			c-0.7,0-1.3-0.5-1.3-1.3v0c0-0.8,0.6-1.3,1.5-1.3c0.6,0,1.1,0.1,1.5,0.3v0.8C482.2,163.2,481.4,163.9,480.5,163.9 M480.3,164.6
			c0.9,0,1.5-0.5,1.9-1v0.9h0.9v-4c0-0.7-0.2-1.3-0.6-1.7c-0.4-0.4-1-0.6-1.8-0.6c-0.8,0-1.4,0.2-2,0.5l0.3,0.7
			c0.4-0.2,1-0.4,1.6-0.4c1,0,1.6,0.5,1.6,1.5v0.4c-0.5-0.1-0.9-0.3-1.6-0.3c-1.4,0-2.3,0.7-2.3,2v0
			C478.3,163.9,479.2,164.6,480.3,164.6 M470,161c0.1-1.3,0.8-2.2,1.7-2.2c1,0,1.6,1,1.6,2.2H470z M471.9,164.6
			c0.9,0,1.6-0.4,2.1-0.9l-0.5-0.6c-0.4,0.4-0.9,0.7-1.6,0.7c-1,0-1.8-0.8-1.9-2.1h4.2c0-0.1,0-0.3,0-0.4c0-1.9-0.9-3.2-2.5-3.2
			c-1.5,0-2.6,1.3-2.6,3.2v0.1C469.1,163.4,470.3,164.6,471.9,164.6 M465.5,164.5h0.9v-3c0-1.6,0.9-2.4,2.1-2.4h0v-0.9
			c-1,0-1.8,0.6-2.1,1.5v-1.4h-0.9V164.5z M461.2,163.9c-0.7,0-1.3-0.5-1.3-1.3v0c0-0.8,0.6-1.3,1.5-1.3c0.6,0,1.1,0.1,1.5,0.3v0.8
			C462.9,163.2,462.2,163.9,461.2,163.9 M461,164.6c0.9,0,1.5-0.5,1.9-1v0.9h0.9v-4c0-0.7-0.2-1.3-0.6-1.7c-0.4-0.4-1-0.6-1.8-0.6
			c-0.8,0-1.4,0.2-2,0.5l0.3,0.7c0.4-0.2,1-0.4,1.6-0.4c1,0,1.6,0.5,1.6,1.5v0.4c-0.5-0.1-0.9-0.3-1.6-0.3c-1.4,0-2.3,0.7-2.3,2v0
			C459,163.9,460,164.6,461,164.6 M452.9,164.6c1.1,0,2-0.7,2-1.8v0c0-0.9-0.7-1.4-1.8-1.8c-0.9-0.4-1.4-0.6-1.4-1.2v0
			c0-0.5,0.4-0.9,1.1-0.9c0.6,0,1.1,0.2,1.6,0.6l0.4-0.7c-0.5-0.4-1.3-0.7-2-0.7c-1.1,0-1.9,0.7-1.9,1.7v0c0,1,0.8,1.4,1.8,1.8
			c0.8,0.3,1.4,0.6,1.4,1.2v0c0,0.6-0.5,1-1.2,1c-0.6,0-1.2-0.3-1.8-0.8l-0.5,0.6C451.3,164.3,452.1,164.6,452.9,164.6 M445.6,161
			c0.1-1.3,0.8-2.2,1.7-2.2c1,0,1.6,1,1.6,2.2H445.6z M447.5,164.6c0.9,0,1.6-0.4,2.1-0.9l-0.5-0.6c-0.4,0.4-0.9,0.7-1.6,0.7
			c-1,0-1.8-0.8-1.9-2.1h4.2c0-0.1,0-0.3,0-0.4c0-1.9-0.9-3.2-2.5-3.2c-1.5,0-2.6,1.3-2.6,3.2v0.1
			C444.7,163.4,445.9,164.6,447.5,164.6 M442.3,164.5h0.9v-6.2h-0.9V164.5z M442.3,156.9h1v-1h-1V156.9z M439.9,164.6
			c0.4,0,0.7-0.1,0.9-0.2v-0.7c-0.3,0.1-0.5,0.2-0.7,0.2c-0.5,0-0.9-0.2-0.9-0.9V159h1.6v-0.8h-1.6v-1.8h-0.9v1.8h-0.8v0.8h0.8v4
			C438.4,164.1,439,164.6,439.9,164.6 M435.4,164.5h0.9v-6.2h-0.9V164.5z M435.3,156.9h1v-1h-1V156.9z M432.6,164.5h0.9v-8.7h-0.9
			V164.5z M429.8,164.5h0.9v-6.2h-0.9V164.5z M429.8,156.9h1v-1h-1V156.9z M426.4,164.6c0.9,0,1.5-0.4,2-0.9l-0.5-0.6
			c-0.4,0.4-0.9,0.7-1.5,0.7c-1.1,0-1.9-0.9-1.9-2.4v-0.1c0-1.5,0.8-2.4,1.9-2.4c0.6,0,1.1,0.3,1.5,0.7l0.5-0.6
			c-0.5-0.5-1.1-0.9-2-0.9c-1.6,0-2.8,1.3-2.8,3.2v0.1C423.7,163.3,424.9,164.6,426.4,164.6 M419.8,163.9c-0.7,0-1.3-0.5-1.3-1.3v0
			c0-0.8,0.6-1.3,1.5-1.3c0.6,0,1.1,0.1,1.5,0.3v0.8C421.5,163.2,420.7,163.9,419.8,163.9 M419.6,164.6c0.9,0,1.5-0.5,1.9-1v0.9h0.9
			v-4c0-0.7-0.2-1.3-0.6-1.7c-0.4-0.4-1-0.6-1.8-0.6c-0.8,0-1.4,0.2-2,0.5l0.3,0.7c0.4-0.2,1-0.4,1.6-0.4c1,0,1.6,0.5,1.6,1.5v0.4
			c-0.5-0.1-0.9-0.3-1.6-0.3c-1.4,0-2.3,0.7-2.3,2v0C417.6,163.9,418.5,164.6,419.6,164.6 M414.6,164.5h0.9V159h1.6v-0.8h-1.6v-0.5
			c0-0.8,0.3-1.2,0.9-1.2c0.2,0,0.5,0,0.7,0.1v-0.8c-0.2-0.1-0.5-0.1-0.8-0.1c-0.5,0-0.9,0.2-1.2,0.4c-0.3,0.3-0.5,0.8-0.5,1.4v0.6
			h-0.8v0.8h0.8V164.5z M408.5,164.5h0.9v-8.7h-0.9V164.5z M404.2,163.9c-0.7,0-1.3-0.5-1.3-1.3v0c0-0.8,0.6-1.3,1.5-1.3
			c0.6,0,1.1,0.1,1.5,0.3v0.8C405.9,163.2,405.1,163.9,404.2,163.9 M404,164.6c0.9,0,1.5-0.5,1.9-1v0.9h0.9v-4
			c0-0.7-0.2-1.3-0.6-1.7c-0.4-0.4-1-0.6-1.8-0.6c-0.8,0-1.4,0.2-2,0.5l0.3,0.7c0.4-0.2,1-0.4,1.6-0.4c1,0,1.6,0.5,1.6,1.5v0.4
			c-0.5-0.1-0.9-0.3-1.6-0.3c-1.4,0-2.3,0.7-2.3,2v0C402,163.9,402.9,164.6,404,164.6 M398.9,164.6c1.1,0,2-0.7,2-1.8v0
			c0-0.9-0.7-1.4-1.8-1.8c-0.9-0.4-1.4-0.6-1.4-1.2v0c0-0.5,0.4-0.9,1.1-0.9c0.6,0,1.1,0.2,1.6,0.6l0.4-0.7c-0.5-0.4-1.3-0.7-2-0.7
			c-1.1,0-1.9,0.7-1.9,1.7v0c0,1,0.8,1.4,1.8,1.8c0.8,0.3,1.4,0.6,1.4,1.2v0c0,0.6-0.5,1-1.2,1c-0.6,0-1.2-0.3-1.8-0.8l-0.5,0.6
			C397.3,164.3,398.2,164.6,398.9,164.6 M393,163.8c-1.1,0-1.9-1-1.9-2.4v-0.1c0-1.4,0.8-2.4,1.9-2.4c1.1,0,1.9,1,1.9,2.4v0.1
			C394.9,162.8,394.1,163.8,393,163.8 M393,164.6c1.6,0,2.8-1.4,2.8-3.2v-0.1c0-1.8-1.2-3.2-2.8-3.2s-2.8,1.4-2.8,3.2v0.1
			C390.2,163.2,391.4,164.6,393,164.6 M386.4,163.8c-1,0-1.9-0.9-1.9-2.4v-0.1c0-1.5,0.9-2.4,1.9-2.4c1,0,1.8,0.9,1.8,2.4v0.1
			C388.2,162.9,387.4,163.8,386.4,163.8 M383.7,166.3h0.9v-3c0.4,0.7,1,1.3,2,1.3c1.3,0,2.5-1.1,2.5-3.2v-0.1c0-2.1-1.2-3.2-2.5-3.2
			c-1,0-1.6,0.6-2,1.3v-1.2h-0.9V166.3z M380.3,164.6c1.1,0,2-0.7,2-1.8v0c0-0.9-0.7-1.4-1.8-1.8c-0.9-0.4-1.4-0.6-1.4-1.2v0
			c0-0.5,0.4-0.9,1.1-0.9c0.6,0,1.1,0.2,1.6,0.6l0.4-0.7c-0.5-0.4-1.3-0.7-2-0.7c-1.1,0-1.9,0.7-1.9,1.7v0c0,1,0.8,1.4,1.8,1.8
			c0.8,0.3,1.4,0.6,1.4,1.2v0c0,0.6-0.5,1-1.2,1c-0.6,0-1.2-0.3-1.8-0.8l-0.5,0.6C378.7,164.3,379.5,164.6,380.3,164.6 M375.9,164.5
			h0.9v-6.2h-0.9V164.5z M375.8,156.9h1v-1h-1V156.9z M371.3,163.8c-1,0-1.8-0.9-1.8-2.4v-0.1c0-1.5,0.8-2.4,1.8-2.4
			c1,0,1.9,0.9,1.9,2.4v0.1C373.2,162.9,372.3,163.8,371.3,163.8 M371.1,164.6c1,0,1.6-0.6,2-1.3v1.2h0.9v-8.7h-0.9v3.6
			c-0.4-0.7-1-1.3-2-1.3c-1.3,0-2.5,1.1-2.5,3.2v0.1C368.6,163.5,369.9,164.6,371.1,164.6 M359.4,164.5h0.9v-3.8
			c0-1.1,0.7-1.8,1.6-1.8c0.9,0,1.4,0.6,1.4,1.7v3.9h0.9v-4.1c0-1.4-0.8-2.3-2-2.3c-0.9,0-1.5,0.5-1.8,1.1v-1h-0.9V164.5z
			 M355.2,163.8c-1.1,0-1.9-1-1.9-2.4v-0.1c0-1.4,0.8-2.4,1.9-2.4c1.1,0,1.9,1,1.9,2.4v0.1C357.1,162.8,356.3,163.8,355.2,163.8
			 M355.2,164.6c1.6,0,2.8-1.4,2.8-3.2v-0.1c0-1.8-1.2-3.2-2.8-3.2c-1.6,0-2.8,1.4-2.8,3.2v0.1C352.4,163.2,353.6,164.6,355.2,164.6
			 M348.6,163.8c-1,0-1.9-0.9-1.9-2.4v-0.1c0-1.5,0.9-2.4,1.9-2.4c1,0,1.8,0.9,1.8,2.4v0.1C350.4,162.9,349.6,163.8,348.6,163.8
			 M348.8,164.6c1.3,0,2.5-1.1,2.5-3.2v-0.1c0-2.1-1.2-3.2-2.5-3.2c-1,0-1.6,0.6-2,1.3v-3.6h-0.9v8.7h0.9v-1.2
			C347.2,164,347.8,164.6,348.8,164.6 M341.7,164.5h0.9v-3c0-1.6,0.9-2.4,2.1-2.4h0v-0.9c-1,0-1.8,0.6-2.1,1.5v-1.4h-0.9V164.5z
			 M337.4,163.9c-0.7,0-1.3-0.5-1.3-1.3v0c0-0.8,0.6-1.3,1.5-1.3c0.6,0,1.1,0.1,1.5,0.3v0.8C339.1,163.2,338.4,163.9,337.4,163.9
			 M337.2,164.6c0.9,0,1.5-0.5,1.9-1v0.9h0.9v-4c0-0.7-0.2-1.3-0.6-1.7c-0.4-0.4-1-0.6-1.8-0.6c-0.8,0-1.4,0.2-2,0.5l0.3,0.7
			c0.4-0.2,1-0.4,1.6-0.4c1,0,1.6,0.5,1.6,1.5v0.4c-0.5-0.1-0.9-0.3-1.6-0.3c-1.4,0-2.3,0.7-2.3,2v0
			C335.2,163.9,336.2,164.6,337.2,164.6 M332.3,164.6c0.9,0,1.5-0.4,2-0.9l-0.5-0.6c-0.4,0.4-0.9,0.7-1.5,0.7
			c-1.1,0-1.9-0.9-1.9-2.4v-0.1c0-1.5,0.8-2.4,1.9-2.4c0.6,0,1.1,0.3,1.5,0.7l0.5-0.6c-0.5-0.5-1.1-0.9-2-0.9
			c-1.6,0-2.8,1.3-2.8,3.2v0.1C329.6,163.3,330.8,164.6,332.3,164.6"/>
		<path class="st3" d="M569.3,150.5h0.8l1.4-4.9l1.4,4.9h0.8l1.9-6.3h-0.9l-1.4,5l-1.4-5h-0.7l-1.4,5l-1.4-5h-0.9L569.3,150.5z
			 M563.9,149.8c-1.1,0-1.9-1-1.9-2.4v-0.1c0-1.4,0.8-2.4,1.9-2.4c1.1,0,1.9,1,1.9,2.4v0.1C565.8,148.8,565,149.8,563.9,149.8
			 M563.9,150.6c1.6,0,2.8-1.4,2.8-3.2v-0.1c0-1.8-1.2-3.2-2.8-3.2c-1.6,0-2.8,1.4-2.8,3.2v0.1C561.1,149.2,562.3,150.6,563.9,150.6
			 M558.7,150.5h0.9v-8.7h-0.9V150.5z M551.1,149.8c-1,0-1.8-0.9-1.8-2.4v-0.1c0-1.5,0.8-2.4,1.8-2.4c1,0,1.9,0.9,1.9,2.4v0.1
			C553,148.9,552.1,149.8,551.1,149.8 M550.9,150.6c1,0,1.6-0.6,2-1.3v1.2h0.9v-8.7h-0.9v3.6c-0.4-0.7-1-1.3-2-1.3
			c-1.3,0-2.5,1.1-2.5,3.2v0.1C548.4,149.5,549.6,150.6,550.9,150.6 M542.3,150.5h0.9v-3.8c0-1.1,0.7-1.8,1.6-1.8
			c0.9,0,1.4,0.6,1.4,1.7v3.9h0.9v-4.1c0-1.4-0.8-2.3-2-2.3c-0.9,0-1.5,0.5-1.8,1.1v-1h-0.9V150.5z M538,149.9
			c-0.7,0-1.3-0.5-1.3-1.3v0c0-0.8,0.6-1.3,1.5-1.3c0.6,0,1.1,0.1,1.5,0.3v0.8C539.7,149.2,539,149.9,538,149.9 M537.8,150.6
			c0.9,0,1.5-0.5,1.9-1v0.9h0.9v-4c0-0.7-0.2-1.3-0.6-1.7c-0.4-0.4-1-0.6-1.8-0.6c-0.8,0-1.4,0.2-2,0.5l0.3,0.7
			c0.4-0.2,1-0.4,1.6-0.4c1,0,1.6,0.5,1.6,1.5v0.4c-0.5-0.1-0.9-0.3-1.6-0.3c-1.4,0-2.3,0.7-2.3,2v0
			C535.8,149.9,536.8,150.6,537.8,150.6 M530.2,151.9c0.9-0.2,1.3-0.7,1.3-1.6v-1.1h-1.1v1.2h0.4c0,0.5-0.2,0.8-0.8,1L530.2,151.9z
			 M525,147c0.1-1.3,0.8-2.2,1.7-2.2c1,0,1.6,1,1.6,2.2H525z M526.9,150.6c0.9,0,1.6-0.4,2.1-0.9l-0.5-0.6c-0.4,0.4-0.9,0.7-1.6,0.7
			c-1,0-1.8-0.8-1.9-2.1h4.2c0-0.1,0-0.3,0-0.4c0-1.9-0.9-3.2-2.5-3.2c-1.5,0-2.6,1.3-2.6,3.2v0.1
			C524.1,149.4,525.3,150.6,526.9,150.6 M520.5,150.5h0.9v-3c0-1.6,0.9-2.4,2.1-2.4h0v-0.9c-1,0-1.8,0.6-2.1,1.5v-1.4h-0.9V150.5z
			 M516,150.6c0.9,0,1.5-0.5,1.8-1.1v1h0.9v-6.2h-0.9v3.8c0,1.1-0.7,1.8-1.6,1.8c-0.9,0-1.4-0.6-1.4-1.7v-3.9h-0.9v4.1
			C513.9,149.7,514.7,150.6,516,150.6 M510.7,150.6c0.9,0,1.5-0.4,2-0.9l-0.5-0.6c-0.4,0.4-0.9,0.7-1.5,0.7c-1.1,0-1.9-0.9-1.9-2.4
			v-0.1c0-1.5,0.8-2.4,1.9-2.4c0.6,0,1.1,0.3,1.5,0.7l0.5-0.6c-0.5-0.5-1.1-0.9-2-0.9c-1.6,0-2.8,1.3-2.8,3.2v0.1
			C508,149.3,509.2,150.6,510.7,150.6 M502.7,147c0.1-1.3,0.8-2.2,1.7-2.2c1,0,1.6,1,1.6,2.2H502.7z M504.6,150.6
			c0.9,0,1.6-0.4,2.1-0.9l-0.5-0.6c-0.4,0.4-0.9,0.7-1.6,0.7c-1,0-1.8-0.8-1.9-2.1h4.2c0-0.1,0-0.3,0-0.4c0-1.9-0.9-3.2-2.5-3.2
			c-1.5,0-2.6,1.3-2.6,3.2v0.1C501.8,149.4,503.1,150.6,504.6,150.6 M498.7,150.6c1.1,0,2-0.7,2-1.8v0c0-0.9-0.7-1.4-1.8-1.8
			c-0.9-0.4-1.4-0.6-1.4-1.2v0c0-0.5,0.4-0.9,1.1-0.9c0.6,0,1.1,0.2,1.6,0.6l0.4-0.7c-0.5-0.4-1.3-0.7-2-0.7c-1.1,0-1.9,0.7-1.9,1.7
			v0c0,1,0.8,1.4,1.8,1.8c0.8,0.3,1.4,0.6,1.4,1.2v0c0,0.6-0.5,1-1.2,1c-0.6,0-1.2-0.3-1.8-0.8l-0.5,0.6
			C497.1,150.3,498,150.6,498.7,150.6 M491,151.9c0.9-0.2,1.3-0.7,1.3-1.6v-1.1h-1.1v1.2h0.4c0,0.5-0.2,0.8-0.8,1L491,151.9z
			 M485.8,147c0.1-1.3,0.8-2.2,1.7-2.2c1,0,1.6,1,1.6,2.2H485.8z M487.7,150.6c0.9,0,1.6-0.4,2.1-0.9l-0.5-0.6
			c-0.4,0.4-0.9,0.7-1.6,0.7c-1,0-1.8-0.8-1.9-2.1h4.2c0-0.1,0-0.3,0-0.4c0-1.9-0.9-3.2-2.5-3.2c-1.5,0-2.6,1.3-2.6,3.2v0.1
			C484.9,149.4,486.1,150.6,487.7,150.6 M481.8,150.5h0.9V145h1.6v-0.8h-1.6v-0.5c0-0.8,0.3-1.2,0.9-1.2c0.2,0,0.5,0,0.7,0.1v-0.8
			c-0.2-0.1-0.5-0.1-0.8-0.1c-0.5,0-0.9,0.2-1.2,0.4c-0.3,0.3-0.5,0.8-0.5,1.4v0.6h-0.8v0.8h0.8V150.5z M477.3,149.9
			c-0.7,0-1.3-0.5-1.3-1.3v0c0-0.8,0.6-1.3,1.5-1.3c0.6,0,1.1,0.1,1.5,0.3v0.8C479,149.2,478.2,149.9,477.3,149.9 M477.1,150.6
			c0.9,0,1.5-0.5,1.9-1v0.9h0.9v-4c0-0.7-0.2-1.3-0.6-1.7c-0.4-0.4-1-0.6-1.8-0.6c-0.8,0-1.4,0.2-2,0.5l0.3,0.7
			c0.4-0.2,1-0.4,1.6-0.4c1,0,1.6,0.5,1.6,1.5v0.4c-0.5-0.1-0.9-0.3-1.6-0.3c-1.4,0-2.3,0.7-2.3,2v0
			C475.1,149.9,476,150.6,477.1,150.6 M471.4,150.6c1.5,0,2.6-0.9,2.6-2.3v0c0-1.1-0.6-1.8-2.3-2.4c-1.6-0.6-2-1-2-1.7v0
			c0-0.7,0.6-1.3,1.6-1.3c0.7,0,1.4,0.3,2,0.8l0.5-0.7c-0.7-0.6-1.5-0.9-2.5-0.9c-1.5,0-2.5,1-2.5,2.2v0c0,1.2,0.7,1.8,2.4,2.5
			c1.5,0.5,1.9,1,1.9,1.7v0c0,0.8-0.7,1.4-1.7,1.4c-0.9,0-1.7-0.4-2.4-1l-0.6,0.7C469.3,150.2,470.3,150.6,471.4,150.6 M463,150.5
			h1.1v-1.2H463V150.5z M459.7,150.6c1.1,0,2-0.7,2-1.8v0c0-0.9-0.7-1.4-1.8-1.8c-0.9-0.4-1.4-0.6-1.4-1.2v0c0-0.5,0.4-0.9,1.1-0.9
			c0.6,0,1.1,0.2,1.6,0.6l0.4-0.7c-0.5-0.4-1.3-0.7-2-0.7c-1.1,0-1.9,0.7-1.9,1.7v0c0,1,0.8,1.4,1.8,1.8c0.8,0.3,1.4,0.6,1.4,1.2v0
			c0,0.6-0.5,1-1.2,1c-0.6,0-1.2-0.3-1.8-0.8l-0.5,0.6C458.1,150.3,458.9,150.6,459.7,150.6 M453.7,149.9c-0.7,0-1.3-0.5-1.3-1.3v0
			c0-0.8,0.6-1.3,1.5-1.3c0.6,0,1.1,0.1,1.5,0.3v0.8C455.5,149.2,454.7,149.9,453.7,149.9 M453.5,150.6c0.9,0,1.5-0.5,1.9-1v0.9h0.9
			v-4c0-0.7-0.2-1.3-0.6-1.7c-0.4-0.4-1-0.6-1.8-0.6c-0.8,0-1.4,0.2-2,0.5l0.3,0.7c0.4-0.2,1-0.4,1.6-0.4c1,0,1.6,0.5,1.6,1.5v0.4
			c-0.5-0.1-0.9-0.3-1.6-0.3c-1.4,0-2.3,0.7-2.3,2v0C451.5,149.9,452.5,150.6,453.5,150.6 M447.4,149.3c-1,0-1.8-0.8-1.8-2.2v0
			c0-1.4,0.8-2.2,1.8-2.2c1,0,1.9,0.8,1.9,2.2v0C449.3,148.4,448.4,149.3,447.4,149.3 M447.4,152.3c0.9,0,1.6-0.2,2.1-0.7
			c0.4-0.4,0.7-1.1,0.7-1.9v-5.4h-0.9v1.1c-0.4-0.7-1.1-1.2-2.1-1.2c-1.3,0-2.5,1.1-2.5,3v0c0,1.9,1.2,2.9,2.5,2.9
			c1,0,1.6-0.6,2.1-1.3v0.9c0,1.2-0.7,1.9-1.9,1.9c-0.7,0-1.4-0.2-2-0.6l-0.3,0.7C445.8,152.1,446.6,152.3,447.4,152.3 M438.5,150.5
			h0.9V145h1.6v-0.8h-1.6v-0.5c0-0.8,0.3-1.2,0.9-1.2c0.2,0,0.5,0,0.7,0.1v-0.8c-0.2-0.1-0.5-0.1-0.8-0.1c-0.5,0-0.9,0.2-1.2,0.4
			c-0.3,0.3-0.5,0.8-0.5,1.4v0.6h-0.8v0.8h0.8V150.5z M433.9,149.8c-1.1,0-1.9-1-1.9-2.4v-0.1c0-1.4,0.8-2.4,1.9-2.4
			c1.1,0,1.9,1,1.9,2.4v0.1C435.8,148.8,435.1,149.8,433.9,149.8 M433.9,150.6c1.6,0,2.8-1.4,2.8-3.2v-0.1c0-1.8-1.2-3.2-2.8-3.2
			s-2.8,1.4-2.8,3.2v0.1C431.2,149.2,432.3,150.6,433.9,150.6 M424.9,150.6c1.1,0,2-0.7,2-1.8v0c0-0.9-0.7-1.4-1.8-1.8
			c-0.9-0.4-1.4-0.6-1.4-1.2v0c0-0.5,0.4-0.9,1.1-0.9c0.6,0,1.1,0.2,1.6,0.6l0.4-0.7c-0.5-0.4-1.3-0.7-2-0.7c-1.1,0-1.9,0.7-1.9,1.7
			v0c0,1,0.8,1.4,1.8,1.8c0.8,0.3,1.4,0.6,1.4,1.2v0c0,0.6-0.5,1-1.2,1c-0.6,0-1.2-0.3-1.8-0.8l-0.5,0.6
			C423.4,150.3,424.2,150.6,424.9,150.6 M418.4,150.6c1.8,0,3-1.2,3-3.3v-5.2h-0.9v5.3c0,1.6-0.8,2.4-2.1,2.4
			c-1.3,0-2.1-0.9-2.1-2.5v-5.2h-0.9v5.3C415.4,149.4,416.6,150.6,418.4,150.6 M410.8,150.5h0.9v-7.6h2.4v-0.8h-5.6v0.8h2.4V150.5z
			 M406.7,148.1L406.7,148.1c0,1-0.8,1.5-2,1.5h-2v-3h1.9C406,146.6,406.7,147.2,406.7,148.1 M406.3,144.3c0,1-0.7,1.5-1.8,1.5h-1.8
			v-3h1.9C405.7,142.9,406.3,143.4,406.3,144.3L406.3,144.3z M401.8,150.5h2.9c1.8,0,2.9-0.8,2.9-2.3v0c0-1.1-0.8-1.7-1.7-2
			c0.7-0.3,1.4-0.8,1.4-2v0c0-0.6-0.2-1-0.6-1.4c-0.5-0.5-1.2-0.7-2.1-0.7h-2.8V150.5z M393.8,148.7c-0.8,0-1.3-0.8-1.3-2.4v-0.2
			c0-1.5,0.5-2.3,1.2-2.3c0.8,0,1.3,0.8,1.3,2.4v0.2C395.1,147.9,394.6,148.7,393.8,148.7 M393.8,150.6c2.1,0,3.4-1.8,3.4-4.3v-0.2
			c0-2.5-1.3-4.3-3.4-4.3c-2.1,0-3.4,1.8-3.4,4.3v0.2C390.4,148.9,391.7,150.6,393.8,150.6 M386.1,148.7c-0.8,0-1.3-0.8-1.3-2.4
			v-0.2c0-1.5,0.5-2.3,1.2-2.3c0.8,0,1.3,0.8,1.3,2.4v0.2C387.4,147.9,386.9,148.7,386.1,148.7 M386.1,150.6c2.1,0,3.4-1.8,3.4-4.3
			v-0.2c0-2.5-1.3-4.3-3.4-4.3c-2.1,0-3.4,1.8-3.4,4.3v0.2C382.7,148.9,384,150.6,386.1,150.6 M378.5,148.7c-0.8,0-1.3-0.8-1.3-2.4
			v-0.2c0-1.5,0.5-2.3,1.2-2.3c0.8,0,1.3,0.8,1.3,2.4v0.2C379.7,147.9,379.2,148.7,378.5,148.7 M378.4,150.6c2.1,0,3.4-1.8,3.4-4.3
			v-0.2c0-2.5-1.3-4.3-3.4-4.3c-2.1,0-3.4,1.8-3.4,4.3v0.2C375,148.9,376.3,150.6,378.4,150.6 M372,152.4c1.4-0.1,2.3-0.7,2.3-2.3
			v-1.8h-2.2v2.2h0.9c0,0.6-0.3,1-1.2,1.1L372,152.4z M368,148.7c-0.8,0-1.3-0.8-1.3-2.4v-0.2c0-1.5,0.5-2.3,1.2-2.3
			c0.8,0,1.3,0.8,1.3,2.4v0.2C369.3,147.9,368.8,148.7,368,148.7 M368,150.6c2.1,0,3.4-1.8,3.4-4.3v-0.2c0-2.5-1.3-4.3-3.4-4.3
			c-2.1,0-3.4,1.8-3.4,4.3v0.2C364.6,148.9,365.9,150.6,368,150.6 M360.3,148.7c-0.8,0-1.3-0.8-1.3-2.4v-0.2c0-1.5,0.5-2.3,1.2-2.3
			c0.8,0,1.3,0.8,1.3,2.4v0.2C361.6,147.9,361.1,148.7,360.3,148.7 M360.3,150.6c2.1,0,3.4-1.8,3.4-4.3v-0.2c0-2.5-1.3-4.3-3.4-4.3
			c-2.1,0-3.4,1.8-3.4,4.3v0.2C356.9,148.9,358.2,150.6,360.3,150.6 M352.6,148.7c-0.8,0-1.3-0.8-1.3-2.4v-0.2
			c0-1.5,0.5-2.3,1.2-2.3c0.8,0,1.3,0.8,1.3,2.4v0.2C353.9,147.9,353.4,148.7,352.6,148.7 M352.6,150.6c2.1,0,3.4-1.8,3.4-4.3v-0.2
			c0-2.5-1.3-4.3-3.4-4.3c-2.1,0-3.4,1.8-3.4,4.3v0.2C349.2,148.9,350.5,150.6,352.6,150.6 M346.2,152.4c1.4-0.1,2.3-0.7,2.3-2.3
			v-1.8h-2.2v2.2h0.9c0,0.6-0.3,1-1.2,1.1L346.2,152.4z M342.4,149c-0.6,0-1-0.4-1-1v0c0-0.6,0.4-1,1-1c0.6,0,1,0.4,1,1v0
			C343.5,148.6,343.1,149,342.4,149 M342.4,145.5c-0.5,0-0.9-0.4-0.9-1v0c0-0.6,0.4-0.9,0.9-0.9c0.5,0,0.9,0.4,0.9,0.9v0
			C343.3,145.1,343,145.5,342.4,145.5 M342.4,150.6c1.8,0,3.1-1,3.1-2.4v0c0-1-0.5-1.6-1.3-2c0.6-0.4,1.1-1,1.1-1.8v0
			c0-1.3-1.2-2.3-2.9-2.3c-1.7,0-2.9,1-2.9,2.3v0c0,0.9,0.5,1.5,1.1,1.8c-0.8,0.4-1.3,1-1.3,2v0
			C339.3,149.6,340.6,150.6,342.4,150.6"/>
		<path class="st3" d="M572.7,136.5h0.9v-3c0-1.6,0.9-2.4,2.1-2.4h0v-0.9c-1,0-1.8,0.6-2.1,1.5v-1.4h-0.9V136.5z M567.1,133
			c0.1-1.3,0.8-2.2,1.7-2.2c1,0,1.6,1,1.6,2.2H567.1z M569,136.6c0.9,0,1.6-0.4,2.1-0.9l-0.5-0.6c-0.4,0.4-0.9,0.7-1.6,0.7
			c-1,0-1.8-0.8-1.9-2.1h4.2c0-0.1,0-0.3,0-0.4c0-1.9-0.9-3.2-2.5-3.2c-1.5,0-2.6,1.3-2.6,3.2v0.1
			C566.2,135.4,567.4,136.6,569,136.6 M562.5,136.5h0.8l2.3-6.3h-0.9l-1.8,5.1l-1.8-5.1h-0.9L562.5,136.5z M556.8,135.8
			c-1.1,0-1.9-1-1.9-2.4v-0.1c0-1.4,0.8-2.4,1.9-2.4c1.1,0,1.9,1,1.9,2.4v0.1C558.7,134.8,558,135.8,556.8,135.8 M556.8,136.6
			c1.6,0,2.8-1.4,2.8-3.2v-0.1c0-1.8-1.2-3.2-2.8-3.2c-1.6,0-2.8,1.4-2.8,3.2v0.1C554.1,135.2,555.2,136.6,556.8,136.6 M545.7,133
			c0.1-1.3,0.8-2.2,1.7-2.2c1,0,1.6,1,1.6,2.2H545.7z M547.6,136.6c0.9,0,1.6-0.4,2.1-0.9l-0.5-0.6c-0.4,0.4-0.9,0.7-1.6,0.7
			c-1,0-1.8-0.8-1.9-2.1h4.2c0-0.1,0-0.3,0-0.4c0-1.9-0.9-3.2-2.5-3.2c-1.5,0-2.6,1.3-2.6,3.2v0.1
			C544.8,135.4,546.1,136.6,547.6,136.6 M541.2,136.5h0.9v-3c0-1.6,0.9-2.4,2.1-2.4h0v-0.9c-1,0-1.8,0.6-2.1,1.5v-1.4h-0.9V136.5z
			 M536.7,136.6c0.9,0,1.5-0.5,1.8-1.1v1h0.9v-6.2h-0.9v3.8c0,1.1-0.7,1.8-1.6,1.8c-0.9,0-1.4-0.6-1.4-1.7v-3.9h-0.9v4.1
			C534.7,135.7,535.4,136.6,536.7,136.6 M532.4,136.6c0.4,0,0.7-0.1,0.9-0.2v-0.7c-0.3,0.1-0.5,0.2-0.7,0.2c-0.5,0-0.9-0.2-0.9-0.9
			V131h1.6v-0.8h-1.6v-1.8h-0.9v1.8h-0.8v0.8h0.8v4C530.9,136.1,531.5,136.6,532.4,136.6 M526.5,135.8c-1,0-1.9-0.9-1.9-2.4v-0.1
			c0-1.5,0.9-2.4,1.9-2.4c1,0,1.8,0.9,1.8,2.4v0.1C528.2,134.9,527.4,135.8,526.5,135.8 M523.7,138.3h0.9v-3c0.4,0.7,1,1.3,2,1.3
			c1.3,0,2.5-1.1,2.5-3.2v-0.1c0-2.1-1.2-3.2-2.5-3.2c-1,0-1.6,0.6-2,1.3v-1.2h-0.9V138.3z M519.5,135.9c-0.7,0-1.3-0.5-1.3-1.3v0
			c0-0.8,0.6-1.3,1.5-1.3c0.6,0,1.1,0.1,1.5,0.3v0.8C521.2,135.2,520.4,135.9,519.5,135.9 M519.3,136.6c0.9,0,1.5-0.5,1.9-1v0.9h0.8
			v-4c0-0.7-0.2-1.3-0.6-1.7c-0.4-0.4-1-0.6-1.8-0.6c-0.8,0-1.4,0.2-2,0.5l0.3,0.7c0.4-0.2,1-0.4,1.6-0.4c1,0,1.6,0.5,1.6,1.5v0.4
			c-0.5-0.1-0.9-0.3-1.6-0.3c-1.4,0-2.3,0.7-2.3,2v0C517.3,135.9,518.2,136.6,519.3,136.6 M514.4,136.6c0.9,0,1.5-0.4,2-0.9
			l-0.5-0.6c-0.4,0.4-0.9,0.7-1.5,0.7c-1.1,0-1.9-0.9-1.9-2.4v-0.1c0-1.5,0.8-2.4,1.9-2.4c0.6,0,1.1,0.3,1.5,0.7l0.5-0.6
			c-0.5-0.5-1.1-0.9-2-0.9c-1.6,0-2.8,1.3-2.8,3.2v0.1C511.6,135.3,512.8,136.6,514.4,136.6 M502.4,136.5h0.9v-3.8
			c0-1.1,0.7-1.8,1.6-1.8c0.9,0,1.4,0.6,1.4,1.7v3.9h0.9v-4.1c0-1.4-0.8-2.3-2-2.3c-0.9,0-1.5,0.5-1.8,1.1v-1h-0.9V136.5z
			 M498.2,135.9c-0.7,0-1.3-0.5-1.3-1.3v0c0-0.8,0.6-1.3,1.5-1.3c0.6,0,1.1,0.1,1.5,0.3v0.8C499.9,135.2,499.1,135.9,498.2,135.9
			 M498,136.6c0.9,0,1.5-0.5,1.9-1v0.9h0.9v-4c0-0.7-0.2-1.3-0.6-1.7c-0.4-0.4-1-0.6-1.8-0.6c-0.8,0-1.4,0.2-2,0.5l0.3,0.7
			c0.4-0.2,1-0.4,1.6-0.4c1,0,1.6,0.5,1.6,1.5v0.4c-0.5-0.1-0.9-0.3-1.6-0.3c-1.4,0-2.3,0.7-2.3,2v0
			C496,135.9,496.9,136.6,498,136.6 M493.1,136.6c0.9,0,1.5-0.4,2-0.9l-0.5-0.6c-0.4,0.4-0.9,0.7-1.5,0.7c-1.1,0-1.9-0.9-1.9-2.4
			v-0.1c0-1.5,0.8-2.4,1.9-2.4c0.6,0,1.1,0.3,1.5,0.7l0.5-0.6c-0.5-0.5-1.1-0.9-2-0.9c-1.6,0-2.8,1.3-2.8,3.2v0.1
			C490.3,135.3,491.5,136.6,493.1,136.6 M484.1,136.6c1.1,0,2-0.7,2-1.8v0c0-0.9-0.7-1.4-1.8-1.8c-0.9-0.4-1.4-0.6-1.4-1.2v0
			c0-0.5,0.4-0.9,1.1-0.9c0.6,0,1.1,0.2,1.6,0.6l0.4-0.7c-0.5-0.4-1.3-0.7-2-0.7c-1.1,0-1.9,0.7-1.9,1.7v0c0,1,0.8,1.4,1.8,1.8
			c0.8,0.3,1.4,0.6,1.4,1.2v0c0,0.6-0.5,1-1.2,1c-0.6,0-1.2-0.3-1.8-0.8l-0.5,0.6C482.5,136.3,483.3,136.6,484.1,136.6 M479.7,136.5
			h0.9v-8.7h-0.9V136.5z M476.9,136.5h0.9v-8.7h-0.9V136.5z M474.1,128.9h1v-1h-1V128.9z M474.1,136.5h0.9v-6.3h-0.9V136.5z
			 M470.5,136.5h0.9V131h1.6v-0.8h-1.6v-0.5c0-0.8,0.3-1.2,0.9-1.2c0.2,0,0.5,0,0.7,0.1v-0.8c-0.2-0.1-0.5-0.1-0.8-0.1
			c-0.5,0-0.9,0.2-1.2,0.4c-0.3,0.3-0.5,0.8-0.5,1.4v0.6h-0.8v0.8h0.8V136.5z M465.7,135.8c-1,0-1.8-0.9-1.8-2.4v-0.1
			c0-1.5,0.8-2.4,1.8-2.4c1,0,1.9,0.9,1.9,2.4v0.1C467.6,134.9,466.7,135.8,465.7,135.8 M465.6,136.6c1,0,1.6-0.6,2-1.3v1.2h0.9
			v-8.7h-0.9v3.6c-0.4-0.7-1-1.3-2-1.3c-1.3,0-2.5,1.1-2.5,3.2v0.1C463.1,135.5,464.3,136.6,465.6,136.6 M456.9,136.5h0.9v-3.8
			c0-1.1,0.7-1.8,1.6-1.8c0.9,0,1.4,0.6,1.4,1.7v3.9h0.9v-4.1c0-1.4-0.8-2.3-2-2.3c-0.9,0-1.5,0.5-1.8,1.1v-1h-0.9V136.5z
			 M452.7,135.9c-0.7,0-1.3-0.5-1.3-1.3v0c0-0.8,0.6-1.3,1.5-1.3c0.6,0,1.1,0.1,1.5,0.3v0.8C454.4,135.2,453.6,135.9,452.7,135.9
			 M452.5,136.6c0.9,0,1.5-0.5,1.9-1v0.9h0.9v-4c0-0.7-0.2-1.3-0.6-1.7c-0.4-0.4-1-0.6-1.8-0.6c-0.8,0-1.4,0.2-2,0.5l0.3,0.7
			c0.4-0.2,1-0.4,1.6-0.4c1,0,1.6,0.5,1.6,1.5v0.4c-0.5-0.1-0.9-0.3-1.6-0.3c-1.4,0-2.3,0.7-2.3,2v0
			C450.5,135.9,451.4,136.6,452.5,136.6 M448.2,136.5h0.9v-8.7h-0.9V136.5z M440.8,136.5h0.9v-3c0-1.6,0.9-2.4,2.1-2.4h0v-0.9
			c-1,0-1.8,0.6-2.1,1.5v-1.4h-0.9V136.5z M436.3,136.6c0.9,0,1.5-0.5,1.8-1.1v1h0.9v-6.2h-0.9v3.8c0,1.1-0.7,1.8-1.6,1.8
			c-0.9,0-1.4-0.6-1.4-1.7v-3.9h-0.9v4.1C434.3,135.7,435,136.6,436.3,136.6 M430.1,135.8c-1.1,0-1.9-1-1.9-2.4v-0.1
			c0-1.4,0.8-2.4,1.9-2.4c1.1,0,1.9,1,1.9,2.4v0.1C432,134.8,431.2,135.8,430.1,135.8 M430.1,136.6c1.6,0,2.8-1.4,2.8-3.2v-0.1
			c0-1.8-1.2-3.2-2.8-3.2s-2.8,1.4-2.8,3.2v0.1C427.3,135.2,428.5,136.6,430.1,136.6 M421.6,137.9c0.9-0.2,1.3-0.7,1.3-1.6v-1.1
			h-1.1v1.2h0.4c0,0.5-0.2,0.8-0.8,1L421.6,137.9z M416.4,133c0.1-1.3,0.8-2.2,1.7-2.2c1,0,1.6,1,1.6,2.2H416.4z M418.3,136.6
			c0.9,0,1.6-0.4,2.1-0.9l-0.5-0.6c-0.4,0.4-0.9,0.7-1.6,0.7c-1,0-1.8-0.8-1.9-2.1h4.2c0-0.1,0-0.3,0-0.4c0-1.9-0.9-3.2-2.5-3.2
			c-1.5,0-2.6,1.3-2.6,3.2v0.1C415.6,135.4,416.8,136.6,418.3,136.6 M413.7,136.6c0.4,0,0.7-0.1,0.9-0.2v-0.7
			c-0.3,0.1-0.5,0.2-0.7,0.2c-0.5,0-0.9-0.2-0.9-0.9V131h1.6v-0.8H413v-1.8h-0.9v1.8h-0.8v0.8h0.8v4
			C412.2,136.1,412.8,136.6,413.7,136.6 M407.4,136.6c0.9,0,1.5-0.5,1.8-1.1v1h0.9v-6.2h-0.9v3.8c0,1.1-0.7,1.8-1.6,1.8
			c-0.9,0-1.4-0.6-1.4-1.7v-3.9h-0.9v4.1C405.4,135.7,406.1,136.6,407.4,136.6 M399,136.5h0.9v-3.8c0-1.1,0.7-1.8,1.6-1.8
			c0.9,0,1.4,0.6,1.4,1.7v3.9h0.9v-4.1c0-1.4-0.8-2.3-2-2.3c-0.9,0-1.5,0.5-1.8,1.1v-1H399V136.5z M396.3,136.5h0.9v-6.2h-0.9V136.5
			z M396.2,128.9h1v-1h-1V128.9z M386.2,136.5h0.9v-3.8c0-1.1,0.6-1.8,1.5-1.8c0.9,0,1.4,0.6,1.4,1.7v3.9h0.9v-3.8
			c0-1.1,0.7-1.8,1.5-1.8c0.9,0,1.4,0.6,1.4,1.7v3.9h0.9v-4.1c0-1.5-0.8-2.3-2-2.3c-1,0-1.5,0.5-1.9,1.1c-0.3-0.7-0.9-1.1-1.7-1.1
			c-0.9,0-1.4,0.5-1.8,1.1v-1h-0.9V136.5z M379.3,135.4l-1.9-5.1h-0.9l2.4,6.3c-0.3,0.8-0.6,1.1-1.1,1.1c-0.3,0-0.6-0.1-0.8-0.2
			l-0.3,0.7c0.4,0.2,0.7,0.3,1.1,0.3c0.8,0,1.4-0.4,1.8-1.7l2.2-6.4h-0.9L379.3,135.4z M372.8,136.5h0.9v-3c0-1.6,0.9-2.4,2.1-2.4h0
			v-0.9c-1,0-1.8,0.6-2.1,1.5v-1.4h-0.9V136.5z M367.2,133c0.1-1.3,0.8-2.2,1.7-2.2c1,0,1.6,1,1.6,2.2H367.2z M369.1,136.6
			c0.9,0,1.6-0.4,2.1-0.9l-0.5-0.6c-0.4,0.4-0.9,0.7-1.6,0.7c-1,0-1.8-0.8-1.9-2.1h4.2c0-0.1,0-0.3,0-0.4c0-1.9-0.9-3.2-2.5-3.2
			c-1.5,0-2.6,1.3-2.6,3.2v0.1C366.3,135.4,367.5,136.6,369.1,136.6 M362.6,136.5h0.8l2.3-6.3h-0.9l-1.8,5.1l-1.8-5.1h-0.9
			L362.6,136.5z M354.3,136.5h5.2v-0.8h-4.3v-3h3.8v-0.8h-3.8v-2.9h4.2v-0.8h-5.1V136.5z"/>
		<g class="st4">
			<g>
				<defs>
					<rect id="SVGID_5_" x="-14" y="8.5" width="174.2" height="174.2"/>
				</defs>
				<clipPath id="SVGID_6_">
					<use xlink:href="#SVGID_5_"  style="overflow:visible;"/>
				</clipPath>
				<path class="st5" d="M73.1,10.7c22.7,0,44,8.8,60.1,24.9c16,16,24.9,37.4,24.9,60.1c0,22.7-8.8,44-24.9,60.1
					c-16,16-37.4,24.9-60.1,24.9s-44-8.8-60.1-24.9c-16-16-24.9-37.4-24.9-60.1c0-22.7,8.8-44,24.9-60.1
					C29.1,19.5,50.4,10.7,73.1,10.7"/>
				<path class="st6" d="M73.1,10.7c22.7,0,44,8.8,60.1,24.9c16,16,24.9,37.4,24.9,60.1c0,22.7-8.8,44-24.9,60.1
					c-16,16-37.4,24.9-60.1,24.9s-44-8.8-60.1-24.9c-16-16-24.9-37.4-24.9-60.1c0-22.7,8.8-44,24.9-60.1
					C29.1,19.5,50.4,10.7,73.1,10.7"/>
			</g>
		</g>
		<g class="st4">
			<g>
				<defs>
					<rect id="SVGID_7_" x="1" y="75.4" width="143" height="89.8"/>
				</defs>
				<clipPath id="SVGID_8_">
					<use xlink:href="#SVGID_7_"  style="overflow:visible;"/>
				</clipPath>
				<path class="st7" d="M3.5,110.2c1.8-2.1,3.5-4.3,5.2-6.8c5.4-7.9,9.3-12.1,15.4-12.9c1-0.1,2.1-0.2,3.1-0.2
					c7,0,14.1,3.1,21.6,6.5l2.4,1.1c3.8,1.7,7.8,2.5,11.9,2.5c9.8,0,18.7-4.8,27.4-9.4c3.6-1.9,7-3.7,10.4-5.2l1.1-0.5
					c2.6-1.2,5.3-2.3,7.3-2.3c1,0,1.8,0.3,2.6,1.1c4,3.8,8.2,6.7,12.2,9.4c0.9,0.6,1.7,1.2,2.5,1.7c-28.5,18.5-66.9,32.7-111.1,40.7
					c12.9,17.3,33.6,28.4,56.8,28.4c36.9,0,67.2-28.2,70.6-64.1c-2.6-2.1-5.1-4.3-7.7-6.4c-6.4-5.2-13.4-8.6-19.5-14.5
					c-5.3-5.1-11.5-1.9-17.1,0.6c-15.2,6.6-29.3,19.1-45.3,12.1c-9.9-4.3-19.6-9.2-30.1-7.7C15,85.3,9.8,91,4,99.6
					c-0.6,0.9-1.3,1.8-2,2.7C2.4,105,2.9,107.6,3.5,110.2"/>
			</g>
		</g>
	</g>
</g>
</svg>
