<svg xmlns="http://www.w3.org/2000/svg" viewBox="0 0 253.86 343.74"><defs><style>.cls-1{fill:#ffe600;}.cls-2{fill:#4b3e2b;}.cls-3{fill:#00263d;}.cls-4{fill:#9c9083;}.cls-10,.cls-11,.cls-12,.cls-13,.cls-14,.cls-15,.cls-16,.cls-17,.cls-18,.cls-19,.cls-5,.cls-7,.cls-8,.cls-9{fill:none;}.cls-5,.cls-7,.cls-9{stroke:#00263d;}.cls-5,.cls-7,.cls-8{stroke-miterlimit:10;}.cls-5{stroke-width:5px;}.cls-6{fill:#4c9c2e;}.cls-7{stroke-width:0.52px;}.cls-8{stroke:#424f63;stroke-width:2.5px;}.cls-10,.cls-11,.cls-12,.cls-13,.cls-14,.cls-15,.cls-16,.cls-17,.cls-18,.cls-9{stroke-linecap:round;stroke-linejoin:round;}.cls-9{stroke-width:3.49px;}.cls-10,.cls-11,.cls-12,.cls-13,.cls-14,.cls-15,.cls-16,.cls-17,.cls-18{stroke:#ffe600;stroke-width:1.31px;}.cls-10{stroke-dasharray:0 2.2;}.cls-11{stroke-dasharray:0 2.82;}.cls-12{stroke-dasharray:0 2.68;}.cls-13{stroke-dasharray:0 2.49;}.cls-14{stroke-dasharray:0 2.74;}.cls-15{stroke-dasharray:0 2.66;}.cls-16{stroke-dasharray:0 2.57;}.cls-17{stroke-dasharray:0 2.6;}.cls-19{stroke:#b6b8c1;stroke-width:2.18px;}.cls-20{fill:#b6b8c1;}.cls-21{fill:#004987;}.cls-22{fill:#ff671d;}.cls-23{fill:#ffe8db;}</style></defs><title>landfill-chart</title><g id="Layer_2" data-name="Layer 2"><g id="Layer_1-2" data-name="Layer 1"><path class="cls-1" d="M53.75,309.4l2.08-.25L52.6,261.07V261c-.46-2.85-1.66-4.74-3.56-5.59-4.09-1.84-9.9,2.07-10.36,2.39l-17.1,10.88c-3.36,1.79-5.92,2.16-7.61,1.09-2.16-1.36-2.28-49.57-2.28-49.61H9.6c0,1.46,0,5.77,0,7.23q.06,5.24.18,10.48.15,6.52.43,13.06c.18,4,.4,8.1.78,12.13.14,1.55.31,3.1.56,4.64a10.36,10.36,0,0,0,.87,3.47c.77,1.35,2.86,1.54,4.25,1.43a14.77,14.77,0,0,0,5.75-1.92l.07,0L39.71,259.7c1.46-1,5.81-3.37,8.45-2.18,1.25.55,2,1.84,2.37,3.92Z"/><path class="cls-2" d="M12.5,209.6l-3.93,0,.06,2.1,3.77,0Zm1.59-15.44,0,5.76,2.23,0,0,2.26H15.09l0,4-1.68,3L13,212.5h0v1.18h-2.6a.55.55,0,0,0-.54.54.59.59,0,0,0,.15.39.55.55,0,0,0,.39.16H13l-.07,3.78-4.85,0v-1.46H9l1.51,0a.54.54,0,0,0,.39-.93.51.51,0,0,0-.38-.16H8l0-3.56-.45-3.32-1.65-3,0-4-1.43,0v-2.25H7.2l0-5.75a.66.66,0,0,1,.66-.65.64.64,0,0,1,.65.65l0,5.76,4.24,0,0-5.76a.66.66,0,0,1,1.31,0"/><path class="cls-3" d="M125.89,325.9c-.48-1.68-1-3.36-1.57-5-.72-.36-1.43-.72-2.16-1.06s-1.44-.69-2.17-1l-1.09.36.87-1.76-1.61-.7c-.52,1.08-1,2.17-1.55,3.25l-1,.36c.16-.35.33-.7.49-1.06l.3.13c-.2-1.41-.41-2.83-.65-4.25.33-.74.67-1.49,1-2.23l-.88-.35-.42.94q-.53-3-1.2-5.92c-.67.44-1.32.89-2,1.34l1.17-2.89-1.12-.39c-.56,1.4-1.11,2.81-1.66,4.22l-2-.69c-.4,1.09-.8,2.17-1.19,3.26-.86.65-1.7,1.31-2.53,2l-1-1.15c-.15-.61-.31-1.22-.46-1.84l-.7-.2-.69-.19-.43.37-.86-.23c.32-1,.63-2.08.94-3.12l-1.86-.48c-.3,1-.59,2.08-.89,3.13l-1.15-.29.54-2c-1-.23-1.91-.45-2.87-.66l-.48,2-1.17-.25-.24-.69-.71-.14-.72-.14-.51.53-1-.18.69-3.36-1-.18-.66,3.37-1.56-.27.17-.88q-.95-.17-1.89-.3c-.09.5-.17,1-.26,1.51-1.19.51-2.37,1-3.53,1.59l1.19.15c-.08.51-.15,1-.23,1.55l-1.82-1.46c-.22-.49-.45-1-.68-1.48l-.58-.06L80,309l-.09.12-1.64-1.2c-1.11.53-2.21,1.08-3.29,1.64.07-1,.13-2,.2-3.05-.57,0-1.15-.07-1.73-.09l-.21,4h0l-1,.56.48-11.14h.34L72,298.84c0-.62.05-1.24.07-1.86l-1,0,0,1-1.36-1.21c0-.39,0-.78,0-1.17h-1v.33c-.77-.66-1.55-1.31-2.34-2-.94.8-1.87,1.6-2.77,2.42,0-.43,0-.85,0-1.28l-2,.07.15,3c-.65.61-1.28,1.22-1.91,1.84l.33,0,.6,9.87c-1-.82-2.11-1.62-3.19-2.41l-2.36.2-2.35.24q-1.52,1.67-3,3.36c-.31-2-.63-4-1-6.05l.31-.05c-1.32-.89-2.66-1.76-4-2.61l-.9-1.91-.43.08-.43.07,0,.68-1.69-1c-.62.81-1.23,1.62-1.83,2.44v0l-1.77.38c.13.52.26,1.05.4,1.57-.62.88-1.22,1.76-1.8,2.65l.31-.07c.55,2.07,1.1,4.15,1.64,6.22-1-.32-1.93-.64-2.9-.94l-2.53.68a125.3,125.3,0,0,0-12.14,4.07c-.65.91-1.28,1.83-1.9,2.74l-.75-1.62,1.11-.46c-1.11-.17-2.22-.33-3.34-.47l-1.47-1-.65.29-.66.3c0,.16,0,.31,0,.47l-1.92.9-.44.22c-.55-1-1.1-2-1.66-3l-.95.47,1.69,3-1,.53-.66-1.17c-.86.44-1.71.89-2.55,1.34.51.85,1,1.71,1.53,2.56.09.35.17.7.25,1l-.06.64c2.05,3.43,4.07,6.89,6,10.36q4.76-2.58,9.77-4.7l.14-.06A111.72,111.72,0,0,1,41.27,324l.44-.1c3.2-.74,6.43-1.33,9.69-1.79h.1c3.26-.46,6.55-.77,9.84-.94l.47,0q5-.24,10,0h0q5.24.21,10.43.9l.29,0a114.26,114.26,0,0,1,18.32,4l0,0q5.16,1.59,10.11,3.67l.25.11c3.2,1.35,6.34,2.85,9.39,4.5q2.41-4.33,4.93-8.62l.27.15"/><path class="cls-1" d="M36.09,320a1.28,1.28,0,0,0-1.56-.74,1.22,1.22,0,0,0-.9,1.43l1.14,3.63c.79-.23,1.59-.46,2.38-.67-.35-1.22-.7-2.44-1.06-3.65"/><path class="cls-1" d="M27.27,322.8a1.31,1.31,0,0,0-1.62-.62,1.21,1.21,0,0,0-.77,1.5l1.43,3.53c.77-.3,1.54-.58,2.32-.86l-1.36-3.55"/><path class="cls-1" d="M37.09,314.91c-.77.19-1.55.39-2.32.6.26.87.52,1.73.77,2.6.75-.21,1.51-.41,2.27-.6l-.72-2.6"/><path class="cls-1" d="M32.33,316.2l-2.29.7c.3.85.59,1.7.89,2.56.74-.24,1.48-.46,2.23-.68-.27-.86-.55-1.72-.83-2.58"/><path class="cls-1" d="M27.7,317.66l-2.26.79c.34.84.66,1.68,1,2.52l2.21-.77c-.31-.84-.63-1.69-.94-2.54"/><path class="cls-1" d="M23.28,319.25l-2.22.88c.36.82.73,1.65,1.09,2.48l2.17-.86c-.35-.83-.69-1.66-1-2.5"/><path class="cls-1" d="M23.81,324.48l-1.6.65c.27.63.55,1.26.83,1.89l1.58-.64-.81-1.9"/><path class="cls-1" d="M31.43,321.77l-1.66.54c.24.64.47,1.29.7,1.93l1.62-.52-.66-2"/><path class="cls-1" d="M39.29,319.57,37.6,320c.18.66.37,1.32.55,2,.55-.15,1.1-.28,1.66-.42-.17-.66-.35-1.32-.52-2"/><path class="cls-1" d="M47.44,306.07c-1,.16-2,.32-3,.5.21,1.07.43,2.14.64,3.21,1-.17,2-.34,3-.49-.19-1.07-.37-2.14-.56-3.22"/><path class="cls-1" d="M48.23,310.66c-1,.15-1.95.31-2.92.48.21,1.07.41,2.14.62,3.21,1-.16,1.89-.32,2.84-.46l-.54-3.23"/><path class="cls-1" d="M49,315.33c-.93.14-1.87.29-2.8.46.21,1.07.41,2.14.61,3.21.91-.16,1.82-.31,2.73-.44L49,315.33"/><path class="cls-1" d="M41.87,307c-1,.2-2,.41-3,.64.27,1.05.53,2.11.79,3.17,1-.21,2-.42,2.94-.61-.24-1.07-.47-2.13-.71-3.2"/><path class="cls-1" d="M42.88,311.6c-1,.19-1.94.39-2.9.6.26,1.06.52,2.12.77,3.18.94-.21,1.88-.4,2.82-.59l-.69-3.19"/><path class="cls-1" d="M43.88,316.22l-2.78.58c.25,1.06.51,2.12.76,3.18l2.7-.56c-.23-1.06-.45-2.13-.68-3.2"/><path class="cls-1" d="M58.82,311l-1.83.14c.09.88.17,1.76.25,2.64l1.78-.13c-.07-.88-.14-1.77-.2-2.65"/><path class="cls-1" d="M59.11,315.62l-1.74.13.3,3.41c.57,0,1.13-.09,1.7-.12-.09-1.14-.17-2.28-.26-3.42"/><path class="cls-1" d="M54.57,316l-1.74.19.45,3.4,1.69-.19c-.13-1.14-.26-2.27-.4-3.4"/><path class="cls-1" d="M54,311.42l-1.82.2c.12.88.24,1.76.35,2.64l1.78-.2c-.11-.88-.21-1.76-.31-2.64"/><path class="cls-1" d="M17.8,319.93a1.34,1.34,0,0,0-1.69-.52,1.22,1.22,0,0,0-.67,1.57l1.16,2.32c.76-.35,1.53-.69,2.31-1l-1.11-2.34"/><path class="cls-1" d="M14.44,321.45a1.34,1.34,0,0,0-1.71-.47,1.23,1.23,0,0,0-.61,1.59l1.23,2.28c.75-.37,1.51-.74,2.27-1.09l-1.18-2.31"/><path class="cls-1" d="M11.15,323.05a1.33,1.33,0,0,0-1.71-.42,1.21,1.21,0,0,0-.56,1.6c.43.75.86,1.5,1.3,2.25.74-.39,1.48-.78,2.23-1.16-.42-.76-.83-1.52-1.26-2.27"/><path class="cls-1" d="M19,325.1a1.34,1.34,0,0,0-1.7-.55,1.23,1.23,0,0,0-.63,1.61c.6,1.2,1.2,2.4,1.79,3.61.75-.35,1.5-.7,2.26-1-.57-1.22-1.14-2.43-1.72-3.64"/><path class="cls-1" d="M14.76,327.07a1.32,1.32,0,0,0-1.71-.48,1.23,1.23,0,0,0-.57,1.63l1.94,3.53c.73-.38,1.47-.75,2.21-1.11-.62-1.2-1.24-2.38-1.87-3.57"/><path class="cls-1" d="M68.58,299.84l2.54.05c0,.85-.05,1.7-.08,2.56-.83,0-1.66,0-2.49-.05l0-2.56"/><path class="cls-1" d="M65.1,299.85c.85,0,1.69,0,2.54,0v2.56c-.83,0-1.66,0-2.49,0,0-.85,0-1.7-.05-2.56"/><path class="cls-1" d="M61.65,300l2.54-.08c0,.85,0,1.71.07,2.56-.83,0-1.66,0-2.49.08L61.65,300"/><path class="cls-1" d="M68.53,305l2.43.05-.08,2.56-2.38-.05,0-2.56"/><path class="cls-1" d="M65.2,305.05c.81,0,1.62,0,2.43,0v2.56H65.25l0-2.55"/><path class="cls-1" d="M61.9,305.14l2.43-.08c0,.85,0,1.71.07,2.56-.79,0-1.59,0-2.38.08l-.12-2.56"/><path class="cls-1" d="M68.48,310.22l2.32,0c0,.86,0,1.71-.07,2.56l-2.28,0,0-2.56"/><path class="cls-1" d="M65.3,310.23l2.32,0v2.56l-2.28,0c0-.85,0-1.71,0-2.56"/><path class="cls-1" d="M62.14,310.32c.78,0,1.55-.06,2.33-.07l.06,2.55-2.27.08-.12-2.56"/><path class="cls-1" d="M102.51,315.49a1.21,1.21,0,0,0-.93-1.39,1.29,1.29,0,0,0-1.58.69c-.23.78-.47,1.56-.7,2.34.82.22,1.64.46,2.46.7l.75-2.34"/><path class="cls-1" d="M98.92,314.5a1.22,1.22,0,0,0-1-1.37,1.28,1.28,0,0,0-1.55.74l-.63,2.36,2.49.62c.22-.78.44-1.57.67-2.35"/><path class="cls-1" d="M95.32,313.62a1.22,1.22,0,0,0-1-1.34,1.29,1.29,0,0,0-1.53.78l-.54,2.38,2.5.55c.2-.79.39-1.58.59-2.37"/><path class="cls-1" d="M91.68,312.84a1.22,1.22,0,0,0-1.06-1.31,1.27,1.27,0,0,0-1.5.83c-.16.79-.32,1.59-.47,2.39q1.26.22,2.52.48l.51-2.39"/><path class="cls-1" d="M88,312.16a1.23,1.23,0,0,0-1.11-1.27,1.27,1.27,0,0,0-1.47.87L85,314.17c.84.12,1.69.26,2.53.4.15-.8.29-1.6.44-2.41"/><path class="cls-1" d="M101,320.24a1.19,1.19,0,0,0-.88-1.39,1.25,1.25,0,0,0-1.52.71l-.69,2.35c.79.21,1.58.43,2.36.66.24-.78.49-1.55.73-2.33"/><path class="cls-1" d="M97.55,319.28a1.18,1.18,0,0,0-.92-1.35,1.25,1.25,0,0,0-1.5.75c-.2.79-.41,1.58-.61,2.37.8.19,1.59.38,2.38.59.21-.79.43-1.57.65-2.36"/><path class="cls-1" d="M94.12,318.44a1.2,1.2,0,0,0-1-1.33,1.25,1.25,0,0,0-1.47.8l-.54,2.38c.8.17,1.6.34,2.39.53.2-.8.39-1.59.59-2.38"/><path class="cls-1" d="M90.63,317.7a1.19,1.19,0,0,0-1-1.3,1.23,1.23,0,0,0-1.44.84c-.16.8-.31,1.6-.46,2.4l2.41.45c.16-.8.33-1.6.5-2.39"/><path class="cls-1" d="M87.12,317.05a1.26,1.26,0,0,0-2.47-.38l-.39,2.41c.81.12,1.62.24,2.43.38.14-.8.28-1.61.43-2.41"/><path class="cls-1" d="M82,312.6c-1-.11-1.94-.22-2.91-.31-.12,1.08-.23,2.17-.34,3.25.94.09,1.89.19,2.83.31L82,312.6"/><path class="cls-1" d="M76.69,312.08c-1-.07-2-.14-2.92-.19l-.18,3.27c.94,0,1.89.11,2.83.18l.27-3.26"/><path class="cls-1" d="M124.25,325l-1.48-.76-.88,1.61c.49.24,1,.49,1.46.75l.9-1.6"/><path class="cls-1" d="M121,323.35l-1.5-.72-.83,1.64,1.48.7c.29-.54.57-1.08.85-1.62"/><path class="cls-1" d="M117.83,321.86l-1.53-.68-.78,1.66,1.51.66c.26-.55.53-1.1.8-1.64"/><path class="cls-1" d="M116.9,327.07a1.32,1.32,0,0,0-.55-1.76,1.42,1.42,0,0,0-1.75.72c-.43.94-.87,1.87-1.3,2.8l2.25,1,1.35-2.77"/><path class="cls-1" d="M121.25,329.2a1.32,1.32,0,0,0-.48-1.78,1.4,1.4,0,0,0-1.77.65c-.48.91-1,1.82-1.42,2.74l2.2,1.1c.48-.9,1-1.81,1.47-2.71"/><path class="cls-1" d="M114.18,319.3c-1-.39-1.93-.77-2.9-1.14-.45,1.07-.89,2.15-1.32,3.22.94.36,1.88.72,2.81,1.1l1.41-3.18"/><path class="cls-1" d="M112.18,323.83c-.92-.37-1.85-.73-2.78-1.08-.43,1.07-.87,2.14-1.29,3.22.9.34,1.8.69,2.69,1l1.38-3.19"/><path class="cls-1" d="M108.83,317.27c-1-.35-2-.68-3-1-.39,1.09-.78,2.18-1.16,3.27,1,.31,1.92.64,2.87,1,.41-1.08.83-2.16,1.25-3.24"/><path class="cls-1" d="M107.06,321.89c-1-.33-1.89-.65-2.84-1l-1.14,3.28c.92.3,1.84.61,2.75.93.41-1.08.81-2.17,1.23-3.25"/><path class="cls-1" d="M113.23,313.46a1.32,1.32,0,0,0-.92-1.57,1.43,1.43,0,0,0-1.79.59c-.32.8-.63,1.61-1,2.41l2.66,1c.33-.8.66-1.6,1-2.4"/><polygon class="cls-4" points="78.92 42.93 78.92 69.39 165.6 94.84 246.31 69.39 246.31 42.93 78.92 42.93"/><polygon class="cls-5" points="78.92 42.93 78.92 69.39 165.6 94.84 246.31 69.39 246.31 42.93 78.92 42.93"/><path class="cls-6" d="M130.62,340.85c-12.83-12.71-36.46-21.25-63.49-21.25s-50.67,8.54-63.5,21.25Z"/><path class="cls-3" d="M74.2,141.12l-.09-.41,5.31-2.25a26,26,0,0,1-5.12-4.29h0v0l-.17-.17.11-.09-.09-.4,7.38-3.13,3.1-5.07H85v0l0,0h.19l.08.13c10,5.43,19.69,4.25,30.38,2.14l.13-.21h1.08l5.16,8.46,12.3,5.22-.25,1.18h-12l-.14,5.66,12.39,5.25-.25,1.18h-12.3l-.08,2.86,9.34,26.79-1.2.38L128,180H104.75L103,185.36l-1.2-.38L111,157.13l-.07-2.86H98.62l-.08-.39a46.43,46.43,0,0,1-7.5-2l7.85,24.52-.72.23-6.28-19.81h-14l-2.84,9.79-.72-.23,6.19-19.89a54.1,54.1,0,0,1-6.25-5.08h-.06v-.07l-.15-.14Zm1.89-.44h5.54l0-1c-.47-.23-.93-.48-1.4-.75Zm31.44-2.22c1,.21,2,.4,3,.57l-.05-1.83Zm6.51,1.11,1.29-.66-3.57-1.79,0,2.12,2.23.33m-2.22.14,0,1,1.46-.74-1.49-.22m3.86.07,1.79.21-1.1-.55Zm-.74.37-1.88.95h6.62l-1-.52c-1.25-.13-2.48-.27-3.71-.43M112.68,142l3.69,2.39,3.69-2.39Zm-.78.61.11,4.6,3.5-2.27Zm.78,5.27h7.38l-3.69-2.38Zm.38.93,3.31,1.66,3.31-1.66Zm-2.51-9.33c-1.29-.22-2.54-.46-3.75-.73l-5.14,2.17h8.93Zm5.82-1.11,3.31-1.66h-6.62Zm1,.52,2.67,1.35.82.08.08-3.22Zm-.18,6.05,3.5,2.27.11-4.6Zm.45,5.91c.95.2,1.93.39,2.94.58l.06-2.08Zm.64.6,2.27,1.14,0-.69-2.29-.45m-1.95.06-3.31,1.67h6.62Zm5.48,1.51h5.66q-3-.42-5.64-.9Zm-9.6,3.72h8.24l.07-2.64h-8.37Zm1.13.92,3,1.7,3-1.7Zm-1.23-5.07,3.18-1.6-.69-.35c-.88-.21-1.74-.42-2.56-.64Zm.62-2.89-.7-.35v.17l.7.18m-2-.55h0Zm0-1.33-.14-5.66h-12l-.08-.38-.72,0-1.25.07c2.39,2.61,6.49,4.84,12.36,6.71Zm-13-6.46.65,0-.07-.34,6.41-2.72c-3.86-1-7.08-2.35-9.21-4.17v.06h-7.2l-.08,3.39,7.43,3.15-.06.28.1-.07c.14.19.28.37.43.55l1.61-.09m-12.36-5.54,2.1,1.36.07-2.76Zm1.7-1.77H82.7l2.21,1.44Zm-2.22,2.1L82.7,137.6h4.43Zm2,2h-4l2,1Zm-1.37,1.31,1.92,1,0-2Zm-1.13-3.63-2.17-1.4.07,2.76Zm-1.47-2.32h4l-2-1Zm1.36-1.31-2.15-1.08.06,2.13Zm3.34,1,.05-2.13-2.15,1.08Zm.57,7.42h5.54l-5.48-2.32Zm-1.3.1-2-1-.85.43c.63.22,1.25.41,1.88.57Zm-3.42-.28-.55.28h1.35l-.8-.28m-1.1-.07.41-.21-.42-.17Zm1-.49.94-.47-2-1,0,1,1,.42m-1.78-1.58-.83.35.85.45Zm3.34-6.46,2-1h-4Zm3.53-.72-.06,2.25h5.36Zm7.11,10.25H89.7a41.91,41.91,0,0,0,5.91.07l-.06-.07m-9.32-.1H82.4l0,1.59h4.94l0-1.34c-.4-.07-.79-.15-1.19-.25m-3.11,2.14,1.78,1,1.8-1Zm4.39.18-2.05,1.16,3,1.72Zm-2.52,5,2.76-1.19H82.92c.68.42,1.37.81,2.07,1.19m4.2,2.51c-.83-.34-1.64-.7-2.44-1.08l-1.8-.8-4.35,1.88Zm-8.47.55,4.17,1.65,4.16-1.65Zm1.33-4.81h6l-3.15-1.8-3,1.7.16.1m6.78.7L85.64,149l4.27,1.89Zm-3.18,6.06,6,2.35-1.38-4.17Zm-.76.3-5.81,2.3H90.73Zm-.75-.3-4.57-1.8L78.2,156Zm.11-4.69L81,147.56l-1.09,3.32Zm-2.89-2.52,3-1.67-2-1.17-.94,2.84Zm-1.42-8.24,1.61-.68-.09-3.39H74.94a25.34,25.34,0,0,0,5,4.07m1.51-4.81-.06-2.25-5.3,2.25Zm.91-3.09h5.1l-2.55-4.17Zm18.83-.57a32.7,32.7,0,0,1-15.38-3.58l2.53,4.14,7.37,3.13,0,.23.06-.06c2.16,1.93,5.61,3.32,9.76,4.35l5.19-2.2,4.7-7.71a74.76,74.76,0,0,1-14.18,1.7m15.18-.92-4.25,7h8.5Zm5.87,8.35-.08,3.25c2.13.19,4.25.35,6.33.49h2.59Zm.25,3.74-.34,0v0Zm-.55,8.23-.06,2.51c2.81.5,5.83.95,9.08,1.36h.12ZM120.7,158l-3.42,1.93,5,2.87Zm2.2,6.62-5.32,2.3,7.13,3.16Zm-1.81-.23h-9.21l4.55,2Zm2.41,6.17-7.07-3.14-7.25,3.14Zm-14.12.92,7,2.75,6.92-2.75Zm15.86.22-7.64,3,10,3.92Zm-8.9,3.53-9.68,3.83h19.41Zm-1.26-.5-7.59-3-2.3,6.91Zm.19-7.82-5.39-2.39L108.05,170Zm6.32-3.44-5.25-3-5.32,3Zm-11.11-.77,4.92-2.78L112,158Zm.41-9.65-.08-3.38-.7-.2L101.66,153Zm-12.45.35-.07-.3,9.91-4.2c-5.89-1.93-10-4.24-12.3-6.95-1,.05-2,.1-3,.1a31.28,31.28,0,0,1-4.76-.34l0,1.44,2.72,8.2a46,46,0,0,0,7.58,2M80.72,146l1-2.9,0-1.71H75A52.63,52.63,0,0,0,80.72,146"/><path class="cls-7" d="M39.47,160.17c27.52.64,35.83-18.71,35.83-18.71m.23-8.22s-5.19,17.87-35.84,26.85"/><path class="cls-6" d="M3.32,167.53C64,141.89,111.76,183.82,111.76,183.82H3.32Z"/><path class="cls-1" d="M113.19,20.39a.32.32,0,0,1-.34.3h-2.53a.32.32,0,0,1-.34-.3v-8.3a.33.33,0,0,1,.34-.31h2.53a.33.33,0,0,1,.34.31Z"/><path class="cls-1" d="M112.26,10a.32.32,0,0,1-.34.3h-.67a.32.32,0,0,1-.34-.3V4a.33.33,0,0,1,.34-.31h.67a.33.33,0,0,1,.34.31Z"/><path class="cls-1" d="M108.84,6.78a.23.23,0,0,1-.24-.21V5.78a.23.23,0,0,1,.24-.21h3.07a.22.22,0,0,1,.23.21v.79a.22.22,0,0,1-.23.21Z"/><path class="cls-1" d="M112.47,5.34a.11.11,0,0,1-.12.11h-1.54a.11.11,0,0,1-.12-.11V4.93a.11.11,0,0,1,.12-.11h1.54a.11.11,0,0,1,.12.11Z"/><path class="cls-1" d="M112.47,7.43c0,.06,0,.1-.12.1h-1.54c-.07,0-.12,0-.12-.1V7a.11.11,0,0,1,.12-.11h1.54a.11.11,0,0,1,.12.11Z"/><path class="cls-1" d="M113.19,11.06a.33.33,0,0,0-.34-.31h-2.53a.33.33,0,0,0-.34.31v.42a.32.32,0,0,0,.34.3h2.53a.32.32,0,0,0,.34-.3Z"/><path class="cls-1" d="M113,10.31a.33.33,0,0,0-.34-.31h-2.1a.33.33,0,0,0-.35.31v.27a.33.33,0,0,0,.35.31h2.1a.33.33,0,0,0,.34-.31Z"/><path class="cls-1" d="M113.52,11.66a.31.31,0,0,0-.34-.26H110a.31.31,0,0,0-.34.26c0,.14.15.25.34.25h3.18c.19,0,.34-.11.34-.25"/><path class="cls-1" d="M96.94,31.17a.33.33,0,0,1-.34.31H94.07a.33.33,0,0,1-.34-.31V16.77a.32.32,0,0,1,.34-.3H96.6a.32.32,0,0,1,.34.3Z"/><path class="cls-1" d="M96.94,15.75a.33.33,0,0,0-.34-.31H94.07a.33.33,0,0,0-.34.31v.41a.33.33,0,0,0,.34.31H96.6a.33.33,0,0,0,.34-.31Z"/><path class="cls-1" d="M96.73,15a.33.33,0,0,0-.34-.31H94.28a.33.33,0,0,0-.34.31v.28a.32.32,0,0,0,.34.3h2.11a.32.32,0,0,0,.34-.3Z"/><path class="cls-1" d="M97.27,16.34c0-.14-.16-.25-.34-.25H93.74c-.18,0-.34.11-.34.25s.16.25.34.25h3.19c.18,0,.34-.11.34-.25"/><path class="cls-1" d="M106.21,3.7h1.42l-.48.27V3.81h-.46V4Zm2.41,1.49a.24.24,0,0,0-.25.22v.08h-.52a1,1,0,0,0-.25-.21V4.77h.09a.2.2,0,0,0,.21-.19.2.2,0,0,0-.21-.2h-.54V4.25L108,3.7h.08a.14.14,0,0,0,.14-.14.13.13,0,0,0-.14-.13h-2.3a.14.14,0,1,0,0,.27h.11l.82.55v.13h-.53a.21.21,0,0,0-.22.2.2.2,0,0,0,.22.19h.08v.51a1.27,1.27,0,0,0-.25.21h-.52V5.41a.23.23,0,0,0-.24-.22.24.24,0,0,0-.25.22V7a.24.24,0,0,0,.25.22.23.23,0,0,0,.24-.22V6.88H106a1.26,1.26,0,0,0,.93.39,1.25,1.25,0,0,0,.93-.39h.52V7a.24.24,0,0,0,.25.22.23.23,0,0,0,.24-.22V5.41a.23.23,0,0,0-.24-.22"/><path class="cls-1" d="M95.8,14.92h-1c0-5.08,4.57-9.22,10.18-9.22v.85c-5.09,0-9.23,3.76-9.23,8.37"/><path class="cls-1" d="M210,21a.33.33,0,0,1-.34.31h-2.53a.33.33,0,0,1-.34-.31v-8.3a.32.32,0,0,1,.34-.3h2.53a.32.32,0,0,1,.34.3Z"/><path class="cls-1" d="M209.08,10.66a.33.33,0,0,1-.34.31h-.67a.33.33,0,0,1-.34-.31v-6a.32.32,0,0,1,.34-.3h.67a.32.32,0,0,1,.34.3Z"/><path class="cls-1" d="M205.66,7.43a.23.23,0,0,1-.24-.21V6.43a.23.23,0,0,1,.24-.21h3.06a.23.23,0,0,1,.24.21v.79a.23.23,0,0,1-.24.21Z"/><path class="cls-1" d="M209.29,6a.11.11,0,0,1-.12.11h-1.54A.12.12,0,0,1,207.5,6v-.4a.12.12,0,0,1,.13-.11h1.54a.11.11,0,0,1,.12.11Z"/><path class="cls-1" d="M209.29,8.08a.11.11,0,0,1-.12.11h-1.54a.12.12,0,0,1-.13-.11V7.67c0-.06.06-.1.13-.1h1.54c.07,0,.12,0,.12.1Z"/><path class="cls-1" d="M210,11.72a.33.33,0,0,0-.34-.31h-2.53a.33.33,0,0,0-.34.31v.41a.33.33,0,0,0,.34.31h2.53a.33.33,0,0,0,.34-.31Z"/><path class="cls-1" d="M209.8,11a.33.33,0,0,0-.34-.31h-2.11A.33.33,0,0,0,207,11v.28a.32.32,0,0,0,.34.3h2.11a.32.32,0,0,0,.34-.3Z"/><path class="cls-1" d="M210.34,12.31c0-.14-.16-.25-.34-.25h-3.19c-.18,0-.34.11-.34.25s.16.25.34.25H210c.18,0,.34-.11.34-.25"/><path class="cls-1" d="M193.76,27.68a.33.33,0,0,1-.34.31h-2.53a.33.33,0,0,1-.34-.31V17.43a.33.33,0,0,1,.34-.31h2.53a.33.33,0,0,1,.34.31Z"/><path class="cls-1" d="M193.76,16.4a.33.33,0,0,0-.34-.31h-2.53a.33.33,0,0,0-.34.31v.42a.32.32,0,0,0,.34.3h2.53a.32.32,0,0,0,.34-.3Z"/><path class="cls-1" d="M193.55,15.65a.33.33,0,0,0-.34-.31H191.1a.33.33,0,0,0-.34.31v.27a.33.33,0,0,0,.34.31h2.11a.33.33,0,0,0,.34-.31Z"/><path class="cls-1" d="M194.09,17c0-.14-.16-.26-.34-.26h-3.19a.31.31,0,0,0-.34.26c0,.13.15.25.34.25h3.19c.18,0,.34-.12.34-.25"/><path class="cls-1" d="M203,4.35h1.42l-.48.27V4.46h-.46v.16Zm2.41,1.5a.23.23,0,0,0-.25.22v.07h-.52a.82.82,0,0,0-.25-.2V5.43h.08a.2.2,0,1,0,0-.39H204V4.9l.82-.55h.08a.13.13,0,1,0,0-.26h-2.29a.13.13,0,1,0,0,.26h.11l.82.55V5H203a.2.2,0,1,0,0,.39h.08v.51a1,1,0,0,0-.25.2h-.52V6.07a.23.23,0,0,0-.25-.22.23.23,0,0,0-.24.22V7.61a.23.23,0,0,0,.24.22.24.24,0,0,0,.25-.22V7.53h.52a1.28,1.28,0,0,0,1.86,0h.52v.08a.24.24,0,0,0,.25.22.23.23,0,0,0,.24-.22V6.07a.23.23,0,0,0-.24-.22"/><path class="cls-1" d="M192.62,15.58h-1c0-5.09,4.57-9.23,10.18-9.23v.86c-5.09,0-9.23,3.75-9.23,8.37"/><path class="cls-1" d="M160,28a.2.2,0,0,1-.21.19h-1.59A.2.2,0,0,1,158,28V22.79a.2.2,0,0,1,.22-.19h1.59a.2.2,0,0,1,.21.19Z"/><path class="cls-1" d="M159.43,21.48a.2.2,0,0,1-.22.19h-.42a.2.2,0,0,1-.21-.19V17.72a.2.2,0,0,1,.21-.19h.42a.2.2,0,0,1,.22.19Z"/><path class="cls-1" d="M157.27,19.45a.15.15,0,0,1-.15-.14v-.5a.14.14,0,0,1,.15-.13h1.93a.14.14,0,0,1,.15.13v.5a.15.15,0,0,1-.15.14Z"/><path class="cls-1" d="M159.56,18.54s0,.06-.08.06h-1s-.08,0-.08-.06v-.26a.08.08,0,0,1,.08-.07h1a.07.07,0,0,1,.08.07Z"/><path class="cls-1" d="M159.56,19.85a.07.07,0,0,1-.08.07h-1a.08.08,0,0,1-.08-.07V19.6a.08.08,0,0,1,.08-.07h1a.07.07,0,0,1,.08.07Z"/><path class="cls-1" d="M160,22.14a.2.2,0,0,0-.21-.19h-1.59a.21.21,0,0,0-.22.19v.26a.21.21,0,0,0,.22.2h1.59a.2.2,0,0,0,.21-.2Z"/><path class="cls-1" d="M159.88,21.67a.21.21,0,0,0-.22-.2h-1.32a.21.21,0,0,0-.22.2v.17a.21.21,0,0,0,.22.2h1.32a.21.21,0,0,0,.22-.2Z"/><path class="cls-1" d="M160.22,22.52c0-.09-.1-.16-.22-.16h-2c-.12,0-.22.07-.22.16s.1.16.22.16h2c.12,0,.22-.07.22-.16"/><path class="cls-1" d="M149.77,32.2a.2.2,0,0,1-.21.2H148a.21.21,0,0,1-.21-.2V25.74a.21.21,0,0,1,.21-.19h1.6a.2.2,0,0,1,.21.19Z"/><path class="cls-1" d="M149.77,25.1a.2.2,0,0,0-.21-.2H148a.21.21,0,0,0-.21.2v.26a.21.21,0,0,0,.21.19h1.6a.2.2,0,0,0,.21-.19Z"/><path class="cls-1" d="M149.64,24.62a.2.2,0,0,0-.22-.19H148.1a.2.2,0,0,0-.22.19v.17a.21.21,0,0,0,.22.2h1.32a.21.21,0,0,0,.22-.2Z"/><path class="cls-1" d="M150,25.47c0-.09-.1-.16-.22-.16h-2c-.12,0-.22.07-.22.16s.1.16.22.16h2c.12,0,.22-.07.22-.16"/><path class="cls-1" d="M155.61,17.5h.9l-.3.18v-.11h-.29v.11Zm1.52.95a.14.14,0,0,0-.15.13v.05h-.33l-.16-.13v-.32h0a.12.12,0,1,0,0-.24h-.33v-.09l.52-.35h.05a.08.08,0,1,0,0-.16h-1.45a.08.08,0,1,0,0,.16h.07l.52.35v.09h-.34a.12.12,0,1,0,0,.24h0v.32a.64.64,0,0,0-.15.13h-.33v-.05a.15.15,0,0,0-.16-.13.14.14,0,0,0-.15.13v1a.14.14,0,0,0,.15.13.15.15,0,0,0,.16-.13v0h.33a.81.81,0,0,0,1.17,0H157v0a.14.14,0,0,0,.15.13.15.15,0,0,0,.16-.13v-1a.15.15,0,0,0-.16-.13"/><path class="cls-1" d="M149.05,24.58h-.6c0-3.21,2.88-5.82,6.42-5.82v.54a5.58,5.58,0,0,0-5.82,5.28"/><path class="cls-2" d="M82.08,41.85a13.27,13.27,0,0,1,2.18-5.32,14.28,14.28,0,0,1,4.12-4A15.48,15.48,0,0,1,91.57,31a19.63,19.63,0,0,1,4.07-.77,12.93,12.93,0,0,1,3.16-5.19c2.51-2.75,7.09-5.35,14.55-5.72,7.49-.08,12.39,2.25,15.25,4.86a14.42,14.42,0,0,1,3.82,5,20.59,20.59,0,0,1,2.63-.19,25.11,25.11,0,0,1,6.45.73,22.54,22.54,0,0,1,7.9,3.36A20.16,20.16,0,0,1,156,40.77l-3.17-.3c-2-.17-4.85.9-8.32.71l-5.61-.35-3.06-.19-3.21-.07L126,40.39c-2.28,0-4.61,0-6.93.06-4.65,0-9.28.32-13.62.5s-8.37.69-11.84.95c-3.44.42-6.34-.69-8.34-.45s-3.15.4-3.15.4"/><path class="cls-2" d="M245.65,41.46a18.92,18.92,0,0,1-2.05,6.35,15.34,15.34,0,0,1-3.86,4.74,13.39,13.39,0,0,1-3,1.82,14.87,14.87,0,0,1-3.81.93,17.07,17.07,0,0,1-3,6.2c-2.35,3.28-6.64,6.38-13.64,6.83-7,.09-11.61-2.69-14.28-5.81a17.7,17.7,0,0,1-3.59-6,15.6,15.6,0,0,1-2.46.23,20.75,20.75,0,0,1-13.45-4.89,23.27,23.27,0,0,1-6.23-9.12l3,.37c1.9.19,4.55-1.08,7.81-.85l5.25.41,2.87.23,3,.09,6.28.2c2.15,0,4.32,0,6.5-.07,4.36.05,8.7-.38,12.77-.58s7.84-.83,11.09-1.14c3.23-.5,5.94.83,7.82.53s3-.47,3-.47"/><path class="cls-2" d="M156.79,41.46a17.8,17.8,0,0,1-2.24,6.35,15.66,15.66,0,0,1-4.21,4.74,14.83,14.83,0,0,1-3.27,1.82,17.33,17.33,0,0,1-4.15.93,16.52,16.52,0,0,1-3.24,6.2c-2.57,3.28-7.25,6.38-14.89,6.83-7.66.09-12.67-2.69-15.59-5.81a17.51,17.51,0,0,1-3.92-6,18.39,18.39,0,0,1-2.68.23,22.47,22.47,0,0,1-6.6-.88,21.38,21.38,0,0,1-8.09-4,23.39,23.39,0,0,1-6.79-9.12l3.24.37c2.07.19,5-1.08,8.52-.85l5.73.41,3.14.23L105,43l6.86.2c2.34,0,4.72,0,7.09-.07,4.76.05,9.49-.38,13.94-.58s8.56-.83,12.11-1.14c3.52-.5,6.48.83,8.54.53s3.22-.47,3.22-.47"/><polygon class="cls-8" points="81.09 41.86 81.01 67.14 165.74 92.81 244.4 67.36 244.4 41.44 81.09 41.86"/><path class="cls-2" d="M195,42.4a11.23,11.23,0,0,1-1.81,4,11,11,0,0,1-3.07,3,10.36,10.36,0,0,1-2.29,1.11A12.55,12.55,0,0,1,185,51a10.82,10.82,0,0,1-2.48,3.89c-1.88,2-5.19,4-10.38,4.15-5.18,0-8.44-1.85-10.27-3.86a10.12,10.12,0,0,1-2.37-3.85,13.61,13.61,0,0,1-1.83.12,16.14,16.14,0,0,1-4.42-.64,13.5,13.5,0,0,1-9.45-8.48l2.18.27c1.39.14,3.4-.63,5.79-.44l3.86.33,2.11.18,2.21.09,4.64.21c1.58.05,3.19,0,4.79,0,3.22.08,6.44-.13,9.45-.21s5.83-.42,8.24-.57,4.35.59,5.75.43l2.2-.26"/><path class="cls-2" d="M175.62,41.85a14,14,0,0,1,6-9.29,14.23,14.23,0,0,1,3-1.53,17.85,17.85,0,0,1,3.85-.77,13.31,13.31,0,0,1,3-5.19c2.38-2.75,6.72-5.35,13.81-5.72,7.09-.08,11.74,2.25,14.45,4.86a14.43,14.43,0,0,1,3.62,5,18.6,18.6,0,0,1,2.5-.19,22.58,22.58,0,0,1,6.11.73,20.85,20.85,0,0,1,7.5,3.36,19.9,19.9,0,0,1,6.29,7.63l-3-.3c-1.92-.17-4.6.9-7.9.71l-5.31-.35-2.91-.19-3-.07-6.36-.18c-2.17,0-4.37,0-6.57.06-4.41,0-8.8.32-12.92.5s-7.94.69-11.22.95c-3.26.42-6-.69-7.92-.45s-3,.4-3,.4"/><path class="cls-2" d="M137.43,41.06a8.62,8.62,0,0,1,1.81-3.34,10.48,10.48,0,0,1,3.07-2.48,11.76,11.76,0,0,1,2.29-.93,14.92,14.92,0,0,1,2.85-.45,9,9,0,0,1,2.48-3.26c1.89-1.71,5.2-3.31,10.38-3.47,5.18,0,8.45,1.55,10.27,3.23A8.32,8.32,0,0,1,173,33.58a15.66,15.66,0,0,1,1.83-.09,18.76,18.76,0,0,1,4.42.52,15.36,15.36,0,0,1,5.28,2.21,11.89,11.89,0,0,1,4.17,4.9l-2.17-.23c-1.39-.12-3.41.53-5.8.37L176.82,41l-2.11-.16-2.21-.07-4.63-.18c-1.58,0-3.19,0-4.8,0-3.21-.07-6.43.11-9.45.17s-5.83.36-8.24.49-4.35-.51-5.75-.37-2.2.22-2.2.22"/><path class="cls-1" d="M162,72.35H121.77c-3.59,0-6.36-.92-8.24-2.72A9,9,0,0,1,111,62.76V21.31h1.15V62.8a8.22,8.22,0,0,0,2.28,6.14c1.65,1.59,4.13,2.39,7.38,2.39H162Z"/><path class="cls-1" d="M157.94,72.35h40.22c3.59,0,6.36-.91,8.24-2.7A8.87,8.87,0,0,0,209,62.83V21.7h-1.15V62.88A8.15,8.15,0,0,1,205.55,69c-1.66,1.57-4.14,2.37-7.39,2.37H157.94Z"/><path class="cls-1" d="M187.5,72.35H169.33c-3.52,0-6.24-.83-8.08-2.45a7.67,7.67,0,0,1-2.51-6.19V28.58h.72V63.73a7.31,7.31,0,0,0,2.32,5.78c1.7,1.49,4.24,2.25,7.55,2.25H187.5Z"/><line class="cls-9" x1="1.75" y1="41.43" x2="247.83" y2="41.43"/><path class="cls-3" d="M57.82,27.92l.78.24,3.56-11.41-.78-.24Zm5.43,1.69.78.24,3.55-11.41-.78-.24ZM47,24.54l.78.24,3.56-11.41-.78-.24Zm5.43,1.69.78.24,3.55-11.41L56,14.82ZM41.55,22.85l.78.24,3.55-11.41-.78-.24Zm-5.43-1.69.78.24L40.46,10l-.78-.24Zm37.62-1.69-.68-.21-4,13a.8.8,0,0,1-1,.53L31.19,21.33a.82.82,0,0,1-.54-1l4.05-13L34,7.1l.3-1L74,18.51Z"/><path class="cls-3" d="M25.35,27.6H18.48L20,22.26h5.34Zm0,3h-.77V29.13h.77Zm3,2.29V21.12a.38.38,0,0,0-.38-.39h-8a.5.5,0,0,0-.48.37l-1.63,5.71a5.8,5.8,0,0,0-.22,1.55v8a.38.38,0,0,0,.38.38h2.67v-.38a4.2,4.2,0,1,1,8.39,0v.38h.76V32.94ZM25,38.28a1.91,1.91,0,1,1,1.91-1.9A1.9,1.9,0,0,1,25,38.28m0-5.34a3.44,3.44,0,1,0,3.44,3.44A3.44,3.44,0,0,0,25,32.94m32,5.34a1.91,1.91,0,1,1,1.91-1.9A1.9,1.9,0,0,1,57,38.28m0-5.34a3.44,3.44,0,1,0,3.44,3.44A3.44,3.44,0,0,0,57,32.94m-9.86,5.34A1.91,1.91,0,1,1,49,36.38a1.91,1.91,0,0,1-1.91,1.9m0-5.34a3.44,3.44,0,1,0,3.44,3.44,3.44,3.44,0,0,0-3.44-3.44m5.72,2.78v1H51.23v-1a4.21,4.21,0,0,0-1.73-2.78h5a4.26,4.26,0,0,0-1.74,2.78m11.39,1H61.13a2.48,2.48,0,0,0,0-.38,4.21,4.21,0,0,0-1.79-3.44H64.2ZM39.84,32.94h4.84a4.2,4.2,0,0,0-1.78,3.44c0,.12,0,.25,0,.38H39.84Zm-9.15.77v3a.76.76,0,0,0,.76.76h6.87a.76.76,0,0,0,.76-.76v-3a.77.77,0,0,0-.76-.77H31.45a.77.77,0,0,0-.76.77"/><polygon class="cls-3" points="36.17 28.97 36.69 29.12 38.17 24.13 39.12 24.41 37.64 29.4 38.16 29.56 37.33 32.36 35.16 32.36 36.17 28.97"/><line class="cls-9" x1="1.75" y1="184.83" x2="247.83" y2="184.83"/><rect class="cls-3" x="162.88" y="159.77" width="48.77" height="3.71"/><rect class="cls-3" x="178.5" y="157.85" width="17.52" height="2.78"/><rect class="cls-3" x="214.42" y="143.16" width="28.65" height="20.22"/><rect class="cls-1" x="217.23" y="157.15" width="3.63" height="3.85"/><rect class="cls-1" x="223.7" y="157.15" width="3.63" height="3.85"/><rect class="cls-1" x="230.17" y="157.15" width="3.63" height="3.85"/><rect class="cls-1" x="236.65" y="157.15" width="3.63" height="3.85"/><rect class="cls-1" x="217.23" y="151.48" width="3.63" height="3.85"/><rect class="cls-1" x="223.7" y="151.48" width="3.63" height="3.85"/><rect class="cls-1" x="230.17" y="151.48" width="3.63" height="3.85"/><rect class="cls-1" x="236.65" y="151.48" width="3.63" height="3.85"/><rect class="cls-1" x="217.23" y="145.8" width="3.63" height="3.85"/><rect class="cls-1" x="223.7" y="145.8" width="3.63" height="3.85"/><rect class="cls-1" x="230.17" y="145.8" width="3.63" height="3.85"/><rect class="cls-1" x="236.65" y="145.8" width="3.63" height="3.85"/><path class="cls-7" d="M132.72,154.16s7.66,15.63,24.49,13.75m-23.7-26c-.55-1.57,6.63,19.84,23,23"/><polygon class="cls-3" points="194.07 183.97 170.8 183.97 154.44 183.97 154.44 163.11 248.81 163.11 248.81 170.14 248.81 178.72 248.81 183.97 237.78 183.97 232.39 183.97 207.3 183.97 194.07 183.97"/><path class="cls-1" d="M207.7,178.9a3,3,0,0,0,3.32-.81s.35-.67.58-.05a4.35,4.35,0,0,0,2.45,2.13,4.12,4.12,0,0,0,3.44-.2s.56-.43.71-.27a2.78,2.78,0,0,0,.93.55,2.73,2.73,0,0,0,3-.64s.35-.57.41-.54a3.09,3.09,0,0,0,.31.15,4.17,4.17,0,0,0,4-.53s.58-.62.74-.44a2.78,2.78,0,0,0,1,.65,2.62,2.62,0,0,0,3.44-1.6v0l.36.08c.36.08,1.09-.36,1.34-1.13a1.6,1.6,0,0,0-.89-2,1.33,1.33,0,0,0-1.26.16s-.2.19-.35,0a2.59,2.59,0,0,0-1-.61,2.7,2.7,0,0,0-1.42-.14s-.27.08-.44-.68a4.45,4.45,0,0,0-2.7-2.62,4.08,4.08,0,0,0-2.59-.1s-.47.2-.67-.48a4.45,4.45,0,0,0-2.58-2.35,4.19,4.19,0,0,0-4.36.8s-.56.77-.75.6a3.69,3.69,0,0,0-1.14-.64,4.06,4.06,0,0,0-5.23,2.7,4.49,4.49,0,0,0-.23,1.47s0,.29-.51.39a3.13,3.13,0,0,0-1.82,2,3.29,3.29,0,0,0,1.91,4.12"/><path class="cls-1" d="M176.14,179.84h-.06a7.86,7.86,0,0,1-1.38-.32l3.38-6.8-5.15.56,2.46-5.37a3.53,3.53,0,0,1-2.54-1L169.44,176l4.68-.51-1.35,2.87-.36-.37c-.18-.2-.32-.37-.42-.5l-.12-.14,0-.06a.16.16,0,0,0-.17-.05.16.16,0,0,0-.11.16l0,5.35a.16.16,0,0,0,.08.14.17.17,0,0,0,.16,0l4.36-2.72a.16.16,0,0,0,.07-.18.15.15,0,0,0-.13-.13"/><line class="cls-10" x1="208.99" y1="2.86" x2="208.99" y2="3.96"/><path class="cls-11" d="M210.92,1A7,7,0,0,1,212.3.73"/><line class="cls-12" x1="216.38" y1="0.65" x2="247.16" y2="0.65"/><path class="cls-13" d="M250.89,1.26a4.06,4.06,0,0,1,2.2,2.87"/><line class="cls-14" x1="253.21" y1="8.11" x2="253.21" y2="14.95"/><line class="cls-15" x1="253.21" y1="18.97" x2="253.21" y2="81.45"/><path class="cls-13" d="M252.6,85.17a4.06,4.06,0,0,1-2.87,2.2"/><line class="cls-16" x1="245.93" y1="87.49" x2="234.38" y2="87.49"/><path class="cls-13" d="M230.7,88.1A4.08,4.08,0,0,0,228.51,91"/><line class="cls-17" x1="228.39" y1="94.8" x2="228.39" y2="140.24"/><path class="cls-18" d="M228.39,141.54h0m0-49.33h0m4.71-4.72h0m15.39,0h0m4.72-4.71h0m0-66.46h0m0-10.95h0M248.49.66h0M213.7.66h0M209,2.86h0m0,2.21h0"/><rect class="cls-3" x="199.41" y="141.28" width="2.22" height="19.38"/><rect class="cls-3" x="184.97" y="139.42" width="2.22" height="20.45"/><rect class="cls-3" x="180.4" y="139.42" width="2.22" height="20.45"/><rect class="cls-3" x="189.27" y="135.33" width="2.74" height="24.54"/><line class="cls-9" x1="1.75" y1="341.99" x2="247.83" y2="341.99"/><line class="cls-19" x1="198.9" y1="174.88" x2="190.98" y2="174.88"/><polygon class="cls-20" points="186.38 174.88 192.96 181 192.96 168.76 186.38 174.88"/><path class="cls-21" d="M59.11,107.62h.65v-.74h-.65Zm-2.22.07a1.14,1.14,0,0,0,1.29-1.09h0c0-.65-.61-.87-1.17-1s-.93-.28-.93-.62v0c0-.3.28-.52.7-.52a2,2,0,0,1,1.07.35l.25-.41a2.51,2.51,0,0,0-1.3-.4,1.09,1.09,0,0,0-1.23,1h0c0,.67.62.86,1.19,1s.91.27.91.63v0c0,.35-.32.57-.75.57a2.15,2.15,0,0,1-1.26-.46l-.27.38a2.5,2.5,0,0,0,1.5.54m-4.23-.48a1.31,1.31,0,0,1-1.27-1.4h0a1.28,1.28,0,0,1,1.27-1.4A1.35,1.35,0,0,1,54,105.8h0a1.36,1.36,0,0,1-1.31,1.4m-.1.48a1.64,1.64,0,0,0,1.39-.8v.73h.54v-5.11H54v2.18a1.63,1.63,0,0,0-1.39-.77,1.77,1.77,0,0,0-1.73,1.88v0a1.76,1.76,0,0,0,1.73,1.87m-4.39-.42c-.49,0-.91-.27-.91-.73h0c0-.45.38-.75,1.06-.75a3.59,3.59,0,0,1,1.06.16v.35a1.09,1.09,0,0,1-1.21,1m-.1.42a1.58,1.58,0,0,0,1.31-.62v.55h.51V105.4a1.39,1.39,0,0,0-.37-1.05,1.55,1.55,0,0,0-1.17-.4,3,3,0,0,0-1.31.3l.16.44a2.59,2.59,0,0,1,1.1-.27c.68,0,1.08.34,1.08,1v.13a3.86,3.86,0,0,0-1.12-.16c-.91,0-1.54.41-1.54,1.17v0a1.22,1.22,0,0,0,1.35,1.12m-4.9-2.08a1.25,1.25,0,0,1,1.17-1.24,1.2,1.2,0,0,1,1.16,1.24Zm1.26,2.09a1.86,1.86,0,0,0,1.49-.68l-.34-.3a1.48,1.48,0,0,1-1.14.51A1.26,1.26,0,0,1,43.17,106H46v-.18a1.72,1.72,0,0,0-1.68-1.91,1.79,1.79,0,0,0-1.74,1.88v0a1.8,1.8,0,0,0,1.81,1.88m-5.9-.08h.54v-2.08a1.06,1.06,0,0,1,1.09-1.13,1,1,0,0,1,1,1.09v2.12h.54v-2.25a1.32,1.32,0,0,0-1.39-1.45,1.37,1.37,0,0,0-1.24.71v-2.12h-.54Zm-1.79,0h.54v-5.11h-.54Zm-1.84,0h.54v-5.11H34.9Zm-3.87-2a1.26,1.26,0,0,1,1.18-1.24,1.19,1.19,0,0,1,1.15,1.24Zm1.26,2.09a1.84,1.84,0,0,0,1.49-.68l-.33-.3a1.51,1.51,0,0,1-1.15.51A1.26,1.26,0,0,1,31,106H33.9a1.09,1.09,0,0,0,0-.18,1.72,1.72,0,0,0-1.69-1.91,1.79,1.79,0,0,0-1.74,1.88v0a1.8,1.8,0,0,0,1.81,1.88m-6.47-.06h.47l1-2.85,1,2.85h.47L30,104h-.56l-.95,2.9-1-2.92h-.45l-1,2.92-.95-2.9h-.57ZM20.17,107l-1.32-3h-.59l1.64,3.6c-.22.51-.42.68-.74.68a1.17,1.17,0,0,1-.57-.13l-.18.42a1.63,1.63,0,0,0,.77.19c.55,0,.9-.28,1.2-1L21.9,104h-.57Zm-4.2.2a1.35,1.35,0,0,1-1.31-1.4h0A1.36,1.36,0,0,1,16,104.4a1.31,1.31,0,0,1,1.28,1.4v0A1.28,1.28,0,0,1,16,107.21m.1.48a1.77,1.77,0,0,0,1.73-1.88h0a1.77,1.77,0,0,0-1.73-1.88,1.62,1.62,0,0,0-1.38.8v-2.21h-.54v5.11h.54v-.7a1.62,1.62,0,0,0,1.38.77"/><path class="cls-21" d="M72.44,98.71a1.31,1.31,0,0,1-1.27-1.4v0a1.27,1.27,0,0,1,1.27-1.39,1.35,1.35,0,0,1,1.31,1.39v0a1.36,1.36,0,0,1-1.31,1.4m-.1.48a1.63,1.63,0,0,0,1.39-.8v.72h.54V94h-.54v2.18a1.62,1.62,0,0,0-1.39-.77,1.78,1.78,0,0,0-1.73,1.88v0a1.77,1.77,0,0,0,1.73,1.87M67,97.11a1.26,1.26,0,0,1,1.18-1.24,1.19,1.19,0,0,1,1.15,1.24Zm1.26,2.09a1.84,1.84,0,0,0,1.49-.68l-.33-.3a1.51,1.51,0,0,1-1.14.51A1.27,1.27,0,0,1,67,97.5h2.87a.91.91,0,0,0,0-.17,1.72,1.72,0,0,0-1.69-1.91,1.78,1.78,0,0,0-1.73,1.88v0a1.79,1.79,0,0,0,1.8,1.88M64,99.11h.54V97.67A1.46,1.46,0,0,1,66,96h0v-.58a1.56,1.56,0,0,0-1.48,1V95.5H64Zm-3,.08a1.39,1.39,0,0,0,1.24-.7v.62h.53V95.5h-.53v2.07a1.07,1.07,0,0,1-1.09,1.13,1,1,0,0,1-1-1.09V95.5h-.54v2.24A1.32,1.32,0,0,0,61,99.19m-3,0a1.33,1.33,0,0,0,.65-.16v-.46a1.14,1.14,0,0,1-.52.13.53.53,0,0,1-.61-.6V96h1.15V95.5H57.59V94.4h-.54v1.1h-.51V96h.51v2.19a.92.92,0,0,0,1,1m-4-.47a1.35,1.35,0,0,1-1.31-1.4h0A1.36,1.36,0,0,1,54,95.9a1.31,1.31,0,0,1,1.27,1.4v0A1.27,1.27,0,0,1,54,98.71m-1.83,1.52h.54V98.42a1.62,1.62,0,0,0,1.39.77,1.77,1.77,0,0,0,1.73-1.88v0a1.77,1.77,0,0,0-1.73-1.87,1.63,1.63,0,0,0-1.39.8V95.5h-.54Zm-2.87-1.46c-.49,0-.91-.27-.91-.73h0c0-.46.38-.75,1.06-.75a4,4,0,0,1,1.06.15v.35a1.09,1.09,0,0,1-1.21,1m-.1.42a1.61,1.61,0,0,0,1.31-.62v.54h.51V96.9a1.39,1.39,0,0,0-.37-1.05,1.57,1.57,0,0,0-1.17-.4,3,3,0,0,0-1.31.3l.16.44a2.42,2.42,0,0,1,1.1-.27c.68,0,1.08.34,1.08,1V97a4,4,0,0,0-1.12-.16c-.91,0-1.54.41-1.54,1.17h0a1.21,1.21,0,0,0,1.35,1.13m-3.45,0a1.85,1.85,0,0,0,1.48-.7l-.34-.32a1.5,1.5,0,0,1-1.11.54,1.35,1.35,0,0,1-1.33-1.41v0a1.34,1.34,0,0,1,1.3-1.4,1.44,1.44,0,0,1,1.09.55l.36-.38a1.88,1.88,0,0,0-3.3,1.25h0a1.86,1.86,0,0,0,1.85,1.88m-6,0c.72,0,1.29-.39,1.29-1.08h0c0-.66-.6-.87-1.16-1s-.93-.28-.93-.62v0c0-.3.27-.52.7-.52a2,2,0,0,1,1.07.35l.24-.41a2.51,2.51,0,0,0-1.3-.4,1.1,1.1,0,0,0-1.23,1h0c0,.67.63.86,1.2,1s.9.27.9.63v0c0,.35-.31.57-.75.57a2.12,2.12,0,0,1-1.25-.46l-.27.38a2.44,2.44,0,0,0,1.49.53m-3-.07h.54V95.5h-.54Zm0-4.41h.61v-.59h-.61Zm-6.43,4.41h.54V97A1.06,1.06,0,0,1,32,95.91,1,1,0,0,1,33,97v2.11h.54V96.87a1.32,1.32,0,0,0-1.39-1.45,1.37,1.37,0,0,0-1.24.71V94h-.54ZM28,99.2a1.83,1.83,0,0,0,1.47-.7l-.34-.32a1.49,1.49,0,0,1-1.11.54,1.36,1.36,0,0,1-1.33-1.41v0a1.34,1.34,0,0,1,1.3-1.4,1.48,1.48,0,0,1,1.1.55l.36-.38A1.91,1.91,0,0,0,28,95.42a1.87,1.87,0,0,0-1.86,1.89h0A1.86,1.86,0,0,0,28,99.2m-3.43-.09h.54V95.5h-.54Zm0-4.41h.61v-.59H24.5Zm-4.33,4.41h.54V97a1.06,1.06,0,0,1,1.09-1.13,1,1,0,0,1,1,1.09v2.11h.54V96.87A1.32,1.32,0,0,0,22,95.42a1.37,1.37,0,0,0-1.24.71V94h-.54Zm-5.06,0h.47l1-2.85,1,2.85H18l1.28-3.64h-.56l-.95,2.9-1-2.92h-.45l-1,2.92-.95-2.9h-.57Z"/><path class="cls-21" d="M56.59,90.68c.72,0,1.29-.39,1.29-1.08h0c0-.66-.6-.87-1.16-1s-.93-.28-.93-.62v0c0-.3.27-.52.7-.52a2,2,0,0,1,1.07.35l.24-.41a2.51,2.51,0,0,0-1.3-.4,1.1,1.1,0,0,0-1.23,1h0c0,.67.63.86,1.2,1s.9.27.9.63v0c0,.35-.31.57-.75.57a2.12,2.12,0,0,1-1.25-.46l-.27.38a2.46,2.46,0,0,0,1.49.53m-4.06-.41c-.49,0-.91-.27-.91-.73h0c0-.45.37-.75,1.05-.75a4.15,4.15,0,0,1,1.07.15v.36a1.1,1.1,0,0,1-1.21,1m-.11.42a1.58,1.58,0,0,0,1.31-.62v.54h.52V88.4a1.43,1.43,0,0,0-.37-1.05,1.58,1.58,0,0,0-1.17-.4,3,3,0,0,0-1.32.3l.16.44a2.62,2.62,0,0,1,1.1-.27c.68,0,1.08.34,1.08,1v.13a3.84,3.84,0,0,0-1.11-.16c-.92,0-1.55.41-1.55,1.17v0a1.22,1.22,0,0,0,1.35,1.12m-4.13-.83A1.22,1.22,0,0,1,47,88.63v0a1.19,1.19,0,0,1,1.25-1.21,1.26,1.26,0,0,1,1.33,1.22h0a1.28,1.28,0,0,1-1.33,1.23m0,1.89a1.92,1.92,0,0,0,1.38-.48A1.77,1.77,0,0,0,50.14,90V87H49.6v.65a1.71,1.71,0,0,0-3.11,1h0a1.67,1.67,0,0,0,1.7,1.69,1.73,1.73,0,0,0,1.42-.76V90a1.19,1.19,0,0,1-1.32,1.29,2.3,2.3,0,0,1-1.39-.46l-.25.42a2.91,2.91,0,0,0,1.65.5m-7.53-3.14A1.26,1.26,0,0,1,42,87.37a1.21,1.21,0,0,1,1.16,1.24ZM42,90.7A1.84,1.84,0,0,0,43.52,90l-.33-.3a1.48,1.48,0,0,1-1.14.51A1.27,1.27,0,0,1,40.77,89h2.87a1.09,1.09,0,0,0,0-.18A1.72,1.72,0,0,0,42,86.92a1.78,1.78,0,0,0-1.73,1.88v0A1.79,1.79,0,0,0,42,90.7m-5.89-.09h.54V88.54a1.06,1.06,0,0,1,1.08-1.13,1,1,0,0,1,1,1.09v2.11h.53V88.37a1.32,1.32,0,0,0-1.38-1.45,1.35,1.35,0,0,0-1.24.71V87h-.54Zm-2.87-.34c-.49,0-.91-.27-.91-.73h0c0-.45.38-.75,1.06-.75a4,4,0,0,1,1.06.15v.36a1.09,1.09,0,0,1-1.21,1m-.11.42a1.58,1.58,0,0,0,1.31-.62v.54H35V88.4a1.39,1.39,0,0,0-.37-1.05,1.57,1.57,0,0,0-1.17-.4,3,3,0,0,0-1.31.3l.16.44a2.55,2.55,0,0,1,1.1-.27c.68,0,1.07.34,1.07,1v.13a3.84,3.84,0,0,0-1.11-.16c-.92,0-1.55.41-1.55,1.17v0a1.22,1.22,0,0,0,1.35,1.12m-5.38-.08h.53V88.54a1.07,1.07,0,0,1,1.09-1.13,1,1,0,0,1,1,1.09v2.11h.54V88.37a1.32,1.32,0,0,0-1.39-1.45,1.37,1.37,0,0,0-1.24.71V85.51h-.53Zm-1.62.07a1.33,1.33,0,0,0,.65-.16v-.46a1.15,1.15,0,0,1-.53.13.54.54,0,0,1-.61-.6V87.47h1.15V87H25.67V85.9h-.53V87h-.51v.47h.51v2.19a.92.92,0,0,0,1,1m-5-2.07a1.26,1.26,0,0,1,1.18-1.24,1.21,1.21,0,0,1,1.16,1.24Zm1.27,2.09A1.87,1.87,0,0,0,23.88,90l-.34-.3a1.48,1.48,0,0,1-1.14.51A1.27,1.27,0,0,1,21.12,89H24a1.09,1.09,0,0,0,0-.18,1.72,1.72,0,0,0-1.69-1.91,1.78,1.78,0,0,0-1.73,1.88v0a1.8,1.8,0,0,0,1.81,1.88m-8.24-.09h.53V88.55a1.05,1.05,0,0,1,1-1.14c.58,0,.93.4.93,1.08v2.12h.54V88.53a1,1,0,0,1,1-1.12c.59,0,.94.39.94,1.09v2.11h.53V88.38a1.3,1.3,0,0,0-1.34-1.46,1.42,1.42,0,0,0-1.27.72,1.24,1.24,0,0,0-1.17-.72,1.32,1.32,0,0,0-1.17.69V87h-.53Z"/><path class="cls-21" d="M59.3,82.19a1.14,1.14,0,0,0,1.29-1.09h0c0-.65-.6-.87-1.16-1s-.93-.28-.93-.62v0c0-.3.27-.52.7-.52a2,2,0,0,1,1.07.35l.24-.41a2.51,2.51,0,0,0-1.3-.4,1.1,1.1,0,0,0-1.23,1h0c0,.67.63.86,1.2,1s.9.27.9.63v0c0,.35-.31.57-.75.57a2.12,2.12,0,0,1-1.25-.46l-.27.38a2.45,2.45,0,0,0,1.49.54m-5-2.08a1.26,1.26,0,0,1,1.18-1.24,1.21,1.21,0,0,1,1.16,1.24Zm1.26,2.09A1.84,1.84,0,0,0,57,81.52l-.33-.3a1.48,1.48,0,0,1-1.14.51,1.27,1.27,0,0,1-1.28-1.22h2.87a1.09,1.09,0,0,0,0-.18,1.72,1.72,0,0,0-1.69-1.91,1.78,1.78,0,0,0-1.73,1.88v0a1.79,1.79,0,0,0,1.8,1.88m-3.84,0a1.87,1.87,0,0,0,1.48-.7l-.35-.32a1.47,1.47,0,0,1-1.1.54,1.35,1.35,0,0,1-1.33-1.41h0a1.33,1.33,0,0,1,1.29-1.4,1.45,1.45,0,0,1,1.1.54l.36-.38a1.89,1.89,0,0,0-1.45-.64,1.86,1.86,0,0,0-1.85,1.89h0A1.85,1.85,0,0,0,51.7,82.2m-4.61,0a1.39,1.39,0,0,0,1.24-.7v.63h.53V78.5h-.53v2.07a1.07,1.07,0,0,1-1.09,1.13,1,1,0,0,1-1-1.09V78.5H45.7v2.24a1.32,1.32,0,0,0,1.39,1.45m-4.36-.48a1.31,1.31,0,0,1-1.28-1.4h0a1.28,1.28,0,0,1,1.28-1.4A1.35,1.35,0,0,1,44,80.3h0a1.36,1.36,0,0,1-1.31,1.4m-.1.48a1.65,1.65,0,0,0,1.39-.8v.73h.53V77H44v2.18a1.63,1.63,0,0,0-1.39-.77A1.77,1.77,0,0,0,40.9,80.3v0a1.76,1.76,0,0,0,1.73,1.87m-4.38-.47a1.35,1.35,0,0,1-1.33-1.41h0a1.33,1.33,0,0,1,1.32-1.4,1.36,1.36,0,0,1,1.34,1.41h0a1.33,1.33,0,0,1-1.33,1.4m0,.48a1.88,1.88,0,0,0,1.9-1.89h0a1.89,1.89,0,0,0-3.78,0h0a1.85,1.85,0,0,0,1.88,1.88m-4.33-.08h.54V80.67A1.46,1.46,0,0,1,35.88,79h0v-.58a1.56,1.56,0,0,0-1.47,1V78.5h-.54Zm-2.82-.41a1.34,1.34,0,0,1-1.31-1.4h0a1.35,1.35,0,0,1,1.31-1.4,1.31,1.31,0,0,1,1.27,1.4v0a1.27,1.27,0,0,1-1.27,1.39m-1.83,1.53h.54V81.42a1.62,1.62,0,0,0,1.38.77,1.77,1.77,0,0,0,1.73-1.88h0a1.77,1.77,0,0,0-1.73-1.88,1.62,1.62,0,0,0-1.38.8V78.5h-.54Zm-5.13-1.53a1.31,1.31,0,0,1-1.28-1.4h0a1.28,1.28,0,0,1,1.28-1.4,1.35,1.35,0,0,1,1.31,1.4h0a1.36,1.36,0,0,1-1.31,1.4m-.1.48a1.64,1.64,0,0,0,1.39-.8v.73H26V77h-.54v2.18A1.63,1.63,0,0,0,24,78.42,1.77,1.77,0,0,0,22.3,80.3v0A1.76,1.76,0,0,0,24,82.19m-5.83-.07h.54V80a1.06,1.06,0,0,1,1.08-1.13,1,1,0,0,1,1,1.09v2.12h.54V79.87A1.32,1.32,0,0,0,20,78.42a1.35,1.35,0,0,0-1.24.71V78.5H18.2Zm-2.87-.35c-.49,0-.91-.27-.91-.73h0c0-.45.38-.75,1.06-.75a3.64,3.64,0,0,1,1.06.16v.35a1.1,1.1,0,0,1-1.21,1m-.11.42a1.58,1.58,0,0,0,1.31-.62v.55h.52V79.9a1.39,1.39,0,0,0-.37-1.05,1.58,1.58,0,0,0-1.17-.4,3,3,0,0,0-1.31.3l.16.44a2.55,2.55,0,0,1,1.1-.27.93.93,0,0,1,1.07,1V80a3.84,3.84,0,0,0-1.11-.16c-.92,0-1.55.41-1.55,1.17v0a1.22,1.22,0,0,0,1.35,1.12"/><path class="cls-21" d="M56,73.69a1.13,1.13,0,0,0,1.28-1.09h0c0-.65-.6-.87-1.16-1s-.93-.28-.93-.62v0c0-.3.27-.52.7-.52a2,2,0,0,1,1.07.35l.25-.41a2.51,2.51,0,0,0-1.3-.4,1.1,1.1,0,0,0-1.24,1h0c0,.67.63.86,1.2,1s.9.27.9.63v0c0,.35-.31.57-.75.57a2.14,2.14,0,0,1-1.25-.46l-.27.38a2.48,2.48,0,0,0,1.5.54m-5-2.08a1.25,1.25,0,0,1,1.17-1.24,1.21,1.21,0,0,1,1.16,1.24Zm1.26,2.09A1.87,1.87,0,0,0,53.74,73l-.34-.3a1.48,1.48,0,0,1-1.14.51A1.26,1.26,0,0,1,51,72h2.87v-.18a1.72,1.72,0,0,0-1.68-1.91,1.79,1.79,0,0,0-1.74,1.88v0a1.8,1.8,0,0,0,1.81,1.88m-3.87,0a1.13,1.13,0,0,0,1.28-1.09h0c0-.65-.6-.87-1.16-1s-.93-.28-.93-.62v0c0-.3.27-.52.7-.52a2,2,0,0,1,1.07.35l.25-.41a2.51,2.51,0,0,0-1.3-.4,1.1,1.1,0,0,0-1.24,1h0c0,.67.63.86,1.2,1s.9.27.9.63v0c0,.35-.31.57-.75.57a2.14,2.14,0,0,1-1.25-.46l-.27.38a2.48,2.48,0,0,0,1.5.54m-4.06-.47A1.35,1.35,0,0,1,43,71.81h0a1.33,1.33,0,0,1,1.32-1.4,1.36,1.36,0,0,1,1.34,1.41h0a1.33,1.33,0,0,1-1.33,1.4m0,.48a1.88,1.88,0,0,0,1.9-1.89h0a1.89,1.89,0,0,0-3.78,0h0a1.85,1.85,0,0,0,1.88,1.88m-4.47-.49a1.34,1.34,0,0,1-1.31-1.4h0a1.35,1.35,0,0,1,1.31-1.4,1.31,1.31,0,0,1,1.27,1.4v0a1.27,1.27,0,0,1-1.27,1.39M38,74.74h.54V72.92a1.62,1.62,0,0,0,1.38.77,1.77,1.77,0,0,0,1.73-1.88h0a1.77,1.77,0,0,0-1.73-1.88,1.62,1.62,0,0,0-1.38.8V70H38Zm-6.66-1.12h.54V71.55a1.05,1.05,0,0,1,1-1.14c.57,0,.93.4.93,1.08v2.13h.54V71.53a1,1,0,0,1,1-1.12c.59,0,.94.39.94,1.09v2.12h.54V71.38a1.3,1.3,0,0,0-1.34-1.46,1.45,1.45,0,0,0-1.28.72,1.21,1.21,0,0,0-1.16-.72,1.32,1.32,0,0,0-1.17.69V70h-.54Zm-2.85-.4a1.36,1.36,0,0,1-1.34-1.41h0a1.33,1.33,0,0,1,1.32-1.4,1.36,1.36,0,0,1,1.35,1.41h0a1.34,1.34,0,0,1-1.33,1.4m0,.48a1.88,1.88,0,0,0,1.9-1.89h0a1.89,1.89,0,0,0-3.77,0h0a1.85,1.85,0,0,0,1.87,1.88m-3.91,0a1.87,1.87,0,0,0,1.48-.7l-.35-.32a1.47,1.47,0,0,1-1.1.54,1.35,1.35,0,0,1-1.33-1.41h0a1.33,1.33,0,0,1,1.29-1.4,1.47,1.47,0,0,1,1.1.54l.36-.38a1.91,1.91,0,0,0-1.45-.64,1.87,1.87,0,0,0-1.86,1.89h0a1.86,1.86,0,0,0,1.86,1.88m-5.45-2.09a1.25,1.25,0,0,1,1.17-1.24,1.21,1.21,0,0,1,1.16,1.24Zm1.26,2.09A1.87,1.87,0,0,0,21.87,73l-.34-.3a1.48,1.48,0,0,1-1.14.51A1.26,1.26,0,0,1,19.12,72H22v-.18a1.72,1.72,0,0,0-1.68-1.91,1.79,1.79,0,0,0-1.74,1.88v0a1.8,1.8,0,0,0,1.81,1.88m-4.62-.49a1.31,1.31,0,0,1-1.27-1.4h0a1.28,1.28,0,0,1,1.27-1.4,1.34,1.34,0,0,1,1.31,1.4h0a1.35,1.35,0,0,1-1.31,1.4m-.09.48a1.62,1.62,0,0,0,1.38-.8v.73h.54V68.51h-.54v2.18a1.62,1.62,0,0,0-1.38-.77,1.77,1.77,0,0,0-1.73,1.88v0a1.76,1.76,0,0,0,1.73,1.87"/><path class="cls-21" d="M56.94,65.11h.54V60h-.54Zm-1.84,0h.54V60H55.1Zm-1.88-4.4h.61v-.6h-.61Zm0,4.4h.53V61.49h-.53Zm-2.42,0h.54V62h1.14v-.45H51.37v-.29c0-.52.21-.77.63-.77a1.73,1.73,0,0,1,.53.09v-.47a1.76,1.76,0,0,0-.6-.09,1.09,1.09,0,0,0-.78.28,1.26,1.26,0,0,0-.31.92v.32h-.5V62h.5Zm-3.23-.4a1.31,1.31,0,0,1-1.28-1.4h0a1.28,1.28,0,0,1,1.28-1.4,1.34,1.34,0,0,1,1.3,1.4h0a1.35,1.35,0,0,1-1.3,1.4m-.1.48a1.62,1.62,0,0,0,1.38-.8v.72h.54V60h-.54v2.18a1.62,1.62,0,0,0-1.38-.77,1.77,1.77,0,0,0-1.73,1.88v0a1.76,1.76,0,0,0,1.73,1.87m-5.83-.08h.54V63a1.06,1.06,0,0,1,1.08-1.13,1,1,0,0,1,1,1.09v2.11h.54V62.87a1.32,1.32,0,0,0-1.39-1.45,1.34,1.34,0,0,0-1.23.71V61.5h-.54Zm-2.87-.34c-.49,0-.91-.27-.91-.73h0c0-.45.37-.75,1.05-.75a4.15,4.15,0,0,1,1.07.15v.36a1.1,1.1,0,0,1-1.21,1m-.11.42A1.58,1.58,0,0,0,40,64.57v.54h.52V62.9a1.43,1.43,0,0,0-.37-1,1.58,1.58,0,0,0-1.17-.4,3,3,0,0,0-1.32.3l.16.44a2.62,2.62,0,0,1,1.1-.27c.68,0,1.08.34,1.08,1V63a3.84,3.84,0,0,0-1.11-.16c-.92,0-1.55.41-1.55,1.17v0a1.22,1.22,0,0,0,1.35,1.12m-2.87-.08h.54V60h-.54Zm-6-2A1.26,1.26,0,0,1,31,61.87a1.19,1.19,0,0,1,1.15,1.24Zm1.26,2.09a1.84,1.84,0,0,0,1.49-.68l-.33-.3a1.51,1.51,0,0,1-1.15.51,1.26,1.26,0,0,1-1.27-1.22h2.87a1.09,1.09,0,0,0,0-.18,1.72,1.72,0,0,0-1.69-1.91,1.78,1.78,0,0,0-1.73,1.88v0a1.79,1.79,0,0,0,1.8,1.88m-5.89-.09h.54V63a1.06,1.06,0,0,1,1.08-1.13,1,1,0,0,1,1,1.09v2.11h.54V62.87A1.32,1.32,0,0,0,27,61.42a1.34,1.34,0,0,0-1.23.71V60h-.54Zm-1.62.07a1.33,1.33,0,0,0,.65-.16v-.46a1.14,1.14,0,0,1-.52.13.53.53,0,0,1-.61-.6V62h1.14V61.5H23.13V60.4h-.54v1.1h-.51V62h.51v2.19a.92.92,0,0,0,1,1M16,65.11h.54V63a1.06,1.06,0,0,1,1.08-1.13,1,1,0,0,1,1,1.09v2.11h.54V62.87a1.32,1.32,0,0,0-1.38-1.45,1.34,1.34,0,0,0-1.24.71V61.5H16Zm-1.79,0h.53V61.5H14.2Zm0-4.4h.62v-.6h-.62Z"/><path class="cls-21" d="M50,54.61a1.25,1.25,0,0,1,1.17-1.24,1.2,1.2,0,0,1,1.16,1.24Zm1.26,2.09A1.84,1.84,0,0,0,52.73,56l-.34-.3a1.48,1.48,0,0,1-1.14.51A1.26,1.26,0,0,1,50,55h2.87a1.09,1.09,0,0,0,0-.18,1.72,1.72,0,0,0-1.69-1.91,1.79,1.79,0,0,0-1.74,1.88v0a1.8,1.8,0,0,0,1.81,1.88m-3.1,0a1.37,1.37,0,0,0,.66-.16v-.46a1.18,1.18,0,0,1-.53.13.54.54,0,0,1-.61-.6V53.47h1.15V53H47.66V51.9h-.54V53h-.5v.47h.5v2.19a.92.92,0,0,0,1,1m-3.42,0c.72,0,1.28-.39,1.28-1.08h0c0-.66-.6-.87-1.16-1s-.93-.28-.93-.62v0c0-.3.27-.52.7-.52a2,2,0,0,1,1.07.35l.25-.41a2.52,2.52,0,0,0-1.31-.4,1.1,1.1,0,0,0-1.23,1h0c0,.67.63.86,1.2,1s.9.27.9.63v0c0,.35-.31.57-.75.57a2.14,2.14,0,0,1-1.25-.46l-.27.38a2.47,2.47,0,0,0,1.5.53m-4.07-.41c-.49,0-.91-.27-.91-.73h0c0-.45.38-.75,1.06-.75a4.07,4.07,0,0,1,1.06.15v.36a1.1,1.1,0,0,1-1.21,1m-.11.42a1.58,1.58,0,0,0,1.31-.62v.55h.52V54.4a1.43,1.43,0,0,0-.37-1,1.58,1.58,0,0,0-1.17-.4,3,3,0,0,0-1.32.3l.16.44a2.62,2.62,0,0,1,1.1-.27c.68,0,1.08.34,1.08,1v.13a3.84,3.84,0,0,0-1.11-.16c-.92,0-1.55.41-1.55,1.17v0a1.22,1.22,0,0,0,1.35,1.12m-6,0H35l1-2.85,1,2.85h.46L38.71,53h-.56l-.95,2.9-1-2.92h-.45l-1,2.92-1-2.9h-.57Zm-6.09-.43a1.31,1.31,0,0,1-1.28-1.4h0a1.28,1.28,0,0,1,1.28-1.4,1.35,1.35,0,0,1,1.31,1.4h0a1.36,1.36,0,0,1-1.31,1.4m-.1.48a1.65,1.65,0,0,0,1.39-.8v.73h.53V51.51h-.53v2.18a1.63,1.63,0,0,0-1.39-.77,1.77,1.77,0,0,0-1.73,1.88v0a1.76,1.76,0,0,0,1.73,1.87M25,56.62h.54V53H25Zm0-4.41h.62v-.6H25Zm-1.8,4.41h.54V51.51H23.2Zm-2.91-.4A1.35,1.35,0,0,1,19,54.81h0a1.33,1.33,0,0,1,1.32-1.4,1.36,1.36,0,0,1,1.34,1.41h0a1.33,1.33,0,0,1-1.33,1.4m0,.48a1.88,1.88,0,0,0,1.9-1.89h0a1.89,1.89,0,0,0-3.78,0h0a1.85,1.85,0,0,0,1.88,1.88m-4.36,0c1,0,1.67-.54,1.67-1.38h0c0-.75-.5-1.15-1.6-1.39s-1.33-.49-1.33-.95v0c0-.44.41-.79,1.05-.79a2.14,2.14,0,0,1,1.41.53l.32-.42a2.52,2.52,0,0,0-1.72-.6A1.44,1.44,0,0,0,14.11,53v0c0,.8.52,1.17,1.65,1.41s1.27.48,1.27.93v0c0,.48-.43.83-1.09.83a2.34,2.34,0,0,1-1.68-.69l-.34.4a2.82,2.82,0,0,0,2,.78"/><path class="cls-22" d="M6.34,58.8a4.59,4.59,0,1,0-4.59-4.59A4.59,4.59,0,0,0,6.34,58.8"/><polygon class="cls-23" points="6.05 57.18 7.48 57.18 7.48 51.95 6.43 51.95 5.02 52.33 5.22 53.44 6.05 53.24 6.05 57.18"/><path class="cls-21" d="M146.82,224.57h.65v-.74h-.65Zm-1.93-.6-1.32-3H143l1.64,3.61c-.21.51-.42.67-.74.67a1.1,1.1,0,0,1-.56-.13l-.19.43a1.65,1.65,0,0,0,.77.18c.55,0,.9-.27,1.21-1l1.52-3.74h-.58Zm-3.16.66a1.36,1.36,0,0,0,.65-.15V224a1.16,1.16,0,0,1-.53.12.54.54,0,0,1-.61-.6v-2.11h1.15V221h-1.15v-1.09h-.54V221h-.5v.48h.5v2.18a.92.92,0,0,0,1,1m-3-.06h.54V221h-.54Zm0-4.41h.61v-.6h-.61Zm-2.38,4.49a1.83,1.83,0,0,0,1.47-.7l-.34-.32a1.48,1.48,0,0,1-1.1.54,1.35,1.35,0,0,1-1.33-1.41h0a1.33,1.33,0,0,1,1.29-1.4,1.47,1.47,0,0,1,1.1.54l.36-.37a1.89,1.89,0,0,0-3.31,1.24v0a1.86,1.86,0,0,0,1.86,1.87m-3.42-.08h.53V221h-.53Zm0-4.41h.62v-.6h-.62ZM130,224.57h.54v-1.44c0-1.1.64-1.66,1.43-1.66H132v-.58a1.55,1.55,0,0,0-1.48,1V221H130Zm-1.62.06a1.3,1.3,0,0,0,.65-.15V224a1.1,1.1,0,0,1-.52.12.54.54,0,0,1-.61-.6v-2.11h1.15V221H127.9v-1.09h-.54V221h-.5v.48h.5v2.18a.92.92,0,0,0,1,1m-3.57,0a1.83,1.83,0,0,0,1.47-.7l-.34-.32a1.49,1.49,0,0,1-1.11.54,1.35,1.35,0,0,1-1.33-1.41h0a1.33,1.33,0,0,1,1.3-1.4,1.47,1.47,0,0,1,1.1.54l.36-.37a1.89,1.89,0,0,0-3.31,1.24v0a1.86,1.86,0,0,0,1.86,1.87m-5.46-2.09a1.25,1.25,0,0,1,1.18-1.23,1.2,1.2,0,0,1,1.16,1.23Zm1.26,2.09a1.84,1.84,0,0,0,1.49-.68l-.33-.3a1.48,1.48,0,0,1-1.14.51,1.27,1.27,0,0,1-1.28-1.22h2.87a1,1,0,0,0,0-.18,1.72,1.72,0,0,0-1.69-1.91,1.78,1.78,0,0,0-1.73,1.89h0a1.79,1.79,0,0,0,1.8,1.88m-3.37-.08h.54v-5.11h-.54Zm-3.87-2a1.25,1.25,0,0,1,1.18-1.23,1.19,1.19,0,0,1,1.15,1.23Zm1.26,2.09a1.84,1.84,0,0,0,1.49-.68l-.34-.3a1.48,1.48,0,0,1-1.14.51,1.26,1.26,0,0,1-1.27-1.22h2.87a1,1,0,0,0,0-.18,1.73,1.73,0,0,0-1.69-1.91,1.79,1.79,0,0,0-1.74,1.89h0a1.8,1.8,0,0,0,1.81,1.88m-7.51-2.09a1.25,1.25,0,0,1,1.18-1.23,1.2,1.2,0,0,1,1.16,1.23Zm1.27,2.09a1.87,1.87,0,0,0,1.49-.68l-.34-.3a1.48,1.48,0,0,1-1.14.51,1.27,1.27,0,0,1-1.28-1.22H110a1,1,0,0,0,0-.18,1.72,1.72,0,0,0-1.68-1.91,1.78,1.78,0,0,0-1.74,1.89h0a1.8,1.8,0,0,0,1.81,1.88m-3.1,0a1.33,1.33,0,0,0,.65-.15V224a1.13,1.13,0,0,1-.52.12.53.53,0,0,1-.61-.6v-2.11H106V221h-1.15v-1.09h-.54V221h-.5v.48h.5v2.18a.92.92,0,0,0,1,1m-4-.41c-.49,0-.92-.27-.92-.72v0c0-.45.38-.75,1.06-.75a3.72,3.72,0,0,1,1.07.16v.35a1.1,1.1,0,0,1-1.21,1m-.11.43a1.58,1.58,0,0,0,1.31-.63v.55H103v-2.21a1.44,1.44,0,0,0-.37-1.06,1.58,1.58,0,0,0-1.17-.4,3,3,0,0,0-1.32.3l.16.44a2.58,2.58,0,0,1,1.1-.26c.68,0,1.08.33,1.08,1v.13a3.87,3.87,0,0,0-1.11-.15c-.92,0-1.55.4-1.55,1.16v0a1.22,1.22,0,0,0,1.35,1.13m-3.74-.08h.54v-1.44a1.45,1.45,0,0,1,1.44-1.66h0v-.58a1.55,1.55,0,0,0-1.48,1V221H97.4Zm-3.82-2a1.25,1.25,0,0,1,1.18-1.23,1.18,1.18,0,0,1,1.15,1.23Zm1.26,2.09a1.84,1.84,0,0,0,1.49-.68l-.33-.3a1.51,1.51,0,0,1-1.15.51A1.26,1.26,0,0,1,93.58,223h2.87a1,1,0,0,0,0-.18,1.73,1.73,0,0,0-1.69-1.91A1.79,1.79,0,0,0,93,222.76h0a1.8,1.8,0,0,0,1.81,1.88M89,224.57h.53V222.5a1.07,1.07,0,0,1,1.09-1.14,1,1,0,0,1,1,1.09v2.12h.54v-2.25a1.32,1.32,0,0,0-1.39-1.45,1.38,1.38,0,0,0-1.24.71V221H89Zm-3.83-2a1.25,1.25,0,0,1,1.18-1.23,1.2,1.2,0,0,1,1.16,1.23Zm1.26,2.09a1.88,1.88,0,0,0,1.5-.68l-.34-.3a1.48,1.48,0,0,1-1.14.51A1.27,1.27,0,0,1,85.12,223H88a1,1,0,0,0,0-.18,1.72,1.72,0,0,0-1.69-1.91,1.78,1.78,0,0,0-1.73,1.89h0a1.79,1.79,0,0,0,1.8,1.88m-4.63-.84a1.22,1.22,0,0,1-1.25-1.23h0a1.19,1.19,0,0,1,1.25-1.22,1.26,1.26,0,0,1,1.33,1.22v0a1.27,1.27,0,0,1-1.33,1.22m0,1.89a1.93,1.93,0,0,0,1.38-.48,1.75,1.75,0,0,0,.46-1.28v-3h-.54v.65a1.7,1.7,0,0,0-1.41-.73,1.68,1.68,0,0,0-1.71,1.71h0a1.68,1.68,0,0,0,1.71,1.7,1.73,1.73,0,0,0,1.42-.76V224a1.19,1.19,0,0,1-1.32,1.29,2.3,2.3,0,0,1-1.39-.46l-.25.42a2.91,2.91,0,0,0,1.65.5"/><path class="cls-21" d="M251,216.13a1.36,1.36,0,0,0,.65-.15v-.46a1.16,1.16,0,0,1-.53.12.54.54,0,0,1-.61-.6v-2.11h1.15v-.48h-1.15v-1.09h-.54v1.09h-.5v.48h.5v2.18a.92.92,0,0,0,1,1m-4-.41c-.49,0-.91-.27-.91-.72v0c0-.45.38-.75,1.06-.75a3.64,3.64,0,0,1,1.06.16v.35a1.1,1.1,0,0,1-1.21,1m-.11.43a1.58,1.58,0,0,0,1.31-.63v.55h.52v-2.21a1.4,1.4,0,0,0-.37-1.06,1.58,1.58,0,0,0-1.17-.4,3,3,0,0,0-1.31.3l.16.44a2.55,2.55,0,0,1,1.1-.26c.67,0,1.07.33,1.07,1V214a3.87,3.87,0,0,0-1.11-.15c-.92,0-1.55.4-1.55,1.16v0a1.22,1.22,0,0,0,1.35,1.13m-5.38-.08h.53V214a1.07,1.07,0,0,1,1.09-1.14,1,1,0,0,1,1,1.09v2.12h.54v-2.25a1.32,1.32,0,0,0-1.39-1.45,1.38,1.38,0,0,0-1.24.71V211h-.53Zm-1.62.06a1.33,1.33,0,0,0,.65-.15v-.46a1.14,1.14,0,0,1-.53.12.54.54,0,0,1-.61-.6v-2.11h1.15v-.48H239.3v-1.09h-.53v1.09h-.51v.48h.51v2.18a.92.92,0,0,0,1,1m-5.6,0a1.14,1.14,0,0,0,1.29-1.09h0c0-.65-.61-.87-1.17-1s-.93-.28-.93-.62h0c0-.3.28-.53.7-.53a2,2,0,0,1,1.07.35l.25-.4a2.42,2.42,0,0,0-1.3-.4,1.09,1.09,0,0,0-1.23,1v0c0,.66.62.86,1.19,1s.91.27.91.64h0c0,.35-.32.57-.75.57a2.08,2.08,0,0,1-1.26-.46l-.27.39a2.49,2.49,0,0,0,1.5.53m-5-2.08a1.24,1.24,0,0,1,1.17-1.23,1.19,1.19,0,0,1,1.16,1.23Zm1.26,2.09a1.84,1.84,0,0,0,1.49-.68l-.34-.3a1.48,1.48,0,0,1-1.14.51,1.26,1.26,0,0,1-1.27-1.22H232a1,1,0,0,0,0-.18,1.73,1.73,0,0,0-1.69-1.91,1.79,1.79,0,0,0-1.74,1.89h0a1.8,1.8,0,0,0,1.81,1.88m-5.89-.08h.53V214a1.07,1.07,0,0,1,1.09-1.14,1,1,0,0,1,1,1.09v2.12h.54v-2.25a1.32,1.32,0,0,0-1.39-1.45,1.38,1.38,0,0,0-1.24.71v-.63h-.53Zm-1.8,0h.54v-3.62h-.54Zm0-4.41h.61v-.6h-.61Zm-3.07,3.65a1.22,1.22,0,0,1-1.25-1.23h0a1.19,1.19,0,0,1,1.25-1.22,1.26,1.26,0,0,1,1.33,1.22v0a1.27,1.27,0,0,1-1.33,1.22m0,1.89a1.92,1.92,0,0,0,1.38-.48,1.75,1.75,0,0,0,.46-1.28v-3H221v.65a1.71,1.71,0,0,0-3.11,1h0a1.67,1.67,0,0,0,1.7,1.7A1.73,1.73,0,0,0,221,215v.42a1.19,1.19,0,0,1-1.32,1.29,2.3,2.3,0,0,1-1.39-.46l-.25.42a2.91,2.91,0,0,0,1.65.5m-5.92-1.13h.54V214a1.07,1.07,0,0,1,1.09-1.14,1,1,0,0,1,1,1.09v2.12h.54v-2.25a1.32,1.32,0,0,0-1.39-1.45,1.38,1.38,0,0,0-1.24.71v-.63h-.54Zm-3.82-2a1.25,1.25,0,0,1,1.18-1.23,1.18,1.18,0,0,1,1.15,1.23Zm1.26,2.09a1.84,1.84,0,0,0,1.49-.68l-.33-.3a1.51,1.51,0,0,1-1.14.51,1.27,1.27,0,0,1-1.28-1.22h2.87a1,1,0,0,0,0-.18,1.73,1.73,0,0,0-1.69-1.91,1.78,1.78,0,0,0-1.73,1.89h0a1.79,1.79,0,0,0,1.8,1.88m-7.5-2.09a1.24,1.24,0,0,1,1.17-1.23,1.19,1.19,0,0,1,1.16,1.23Zm1.26,2.09a1.86,1.86,0,0,0,1.49-.68l-.34-.3a1.48,1.48,0,0,1-1.14.51,1.26,1.26,0,0,1-1.27-1.22h2.87v-.18a1.72,1.72,0,0,0-1.68-1.91,1.79,1.79,0,0,0-1.74,1.89h0a1.8,1.8,0,0,0,1.81,1.88m-5.9-.08h.54V214a1.07,1.07,0,0,1,1.09-1.14,1,1,0,0,1,1,1.09v2.12h.54v-2.25a1.32,1.32,0,0,0-1.39-1.45,1.38,1.38,0,0,0-1.24.71V211H199Zm-1.61.06a1.33,1.33,0,0,0,.65-.15v-.46a1.16,1.16,0,0,1-.53.12.54.54,0,0,1-.61-.6v-2.11h1.15v-.48h-1.15v-1.09h-.53v1.09h-.51v.48h.51v2.18a.92.92,0,0,0,1,1m-6.15-.06h.54v-1.44c0-1.1.64-1.66,1.43-1.66h0v-.58a1.55,1.55,0,0,0-1.48,1v-.94h-.54Zm-2.85-.4a1.36,1.36,0,0,1-1.34-1.41h0a1.34,1.34,0,0,1,1.32-1.4,1.38,1.38,0,0,1,1.35,1.41v0a1.34,1.34,0,0,1-1.33,1.39m0,.48a1.88,1.88,0,0,0,1.9-1.89h0a1.89,1.89,0,0,0-3.77,0v0a1.85,1.85,0,0,0,1.87,1.87m-4-.08H185v-3.15h1.14v-.46H185v-.29c0-.52.21-.77.63-.77a1.67,1.67,0,0,1,.52.09V211a1.66,1.66,0,0,0-.59-.09,1.08,1.08,0,0,0-.78.28,1.29,1.29,0,0,0-.32.93v.31H184v.47h.49Zm-4.09,0h.54V211h-.54Zm-3.87-2a1.24,1.24,0,0,1,1.17-1.23,1.2,1.2,0,0,1,1.16,1.23Zm1.26,2.09a1.86,1.86,0,0,0,1.49-.68l-.34-.3a1.48,1.48,0,0,1-1.14.51,1.26,1.26,0,0,1-1.27-1.22h2.87v-.18a1.72,1.72,0,0,0-1.68-1.91,1.79,1.79,0,0,0-1.74,1.89h0a1.8,1.8,0,0,0,1.81,1.88m-4.57,0a1.37,1.37,0,0,0,1.24-.71v.63H175v-3.62h-.53v2.07a1.07,1.07,0,0,1-1.08,1.14,1,1,0,0,1-1-1.1v-2.11h-.54v2.25a1.32,1.32,0,0,0,1.38,1.45m-3.69-.08H170v-3.15h1.14v-.46H170v-.29c0-.52.21-.77.63-.77a1.63,1.63,0,0,1,.52.09V211a1.66,1.66,0,0,0-.59-.09,1.08,1.08,0,0,0-.78.28,1.29,1.29,0,0,0-.31.93v.31H169v.47h.5Zm-4.59.07a1.13,1.13,0,0,0,1.28-1.09h0c0-.65-.6-.87-1.16-1s-.93-.28-.93-.62h0c0-.3.27-.53.7-.53a2,2,0,0,1,1.07.35l.25-.4a2.43,2.43,0,0,0-1.31-.4,1.09,1.09,0,0,0-1.23,1v0c0,.66.63.86,1.2,1s.9.27.9.64h0c0,.35-.31.57-.75.57a2.08,2.08,0,0,1-1.25-.46l-.27.39a2.47,2.47,0,0,0,1.5.53m-4.07-.42c-.49,0-.91-.27-.91-.72v0c0-.45.38-.75,1.06-.75a3.64,3.64,0,0,1,1.06.16v.35a1.1,1.1,0,0,1-1.21,1m-.11.43a1.58,1.58,0,0,0,1.31-.63v.55h.52v-2.21a1.44,1.44,0,0,0-.37-1.06,1.58,1.58,0,0,0-1.17-.4,3.05,3.05,0,0,0-1.32.3l.17.44a2.55,2.55,0,0,1,1.1-.26c.67,0,1.07.33,1.07,1V214a3.87,3.87,0,0,0-1.11-.15c-.92,0-1.55.4-1.55,1.16v0a1.22,1.22,0,0,0,1.35,1.13m-6.2-.49a1.31,1.31,0,0,1-1.28-1.4h0a1.27,1.27,0,0,1,1.28-1.39,1.34,1.34,0,0,1,1.3,1.39h0a1.34,1.34,0,0,1-1.3,1.4m-.1.49a1.61,1.61,0,0,0,1.38-.81v.73h.54V211h-.54v2.18a1.64,1.64,0,0,0-1.38-.77,1.78,1.78,0,0,0-1.73,1.89h0a1.77,1.77,0,0,0,1.73,1.88m-5.34-2.09a1.24,1.24,0,0,1,1.17-1.23,1.2,1.2,0,0,1,1.16,1.23Zm1.26,2.09a1.87,1.87,0,0,0,1.49-.68l-.34-.3a1.48,1.48,0,0,1-1.14.51,1.26,1.26,0,0,1-1.27-1.22H152v-.18a1.72,1.72,0,0,0-1.68-1.91,1.78,1.78,0,0,0-1.74,1.89h0a1.8,1.8,0,0,0,1.81,1.88m-3.87,0a1.13,1.13,0,0,0,1.28-1.09h0c0-.65-.6-.87-1.16-1s-.93-.28-.93-.62h0c0-.3.27-.53.7-.53a2,2,0,0,1,1.07.35l.25-.4a2.43,2.43,0,0,0-1.31-.4,1.09,1.09,0,0,0-1.23,1v0c0,.66.63.86,1.2,1s.9.27.9.64h0c0,.35-.31.57-.75.57a2.08,2.08,0,0,1-1.25-.46l-.27.39a2.47,2.47,0,0,0,1.5.53m-3.42,0a1.14,1.14,0,0,0,1.29-1.09h0c0-.65-.6-.87-1.16-1s-.94-.28-.94-.62h0c0-.3.28-.53.7-.53a2.06,2.06,0,0,1,1.08.35l.24-.4a2.42,2.42,0,0,0-1.3-.4,1.09,1.09,0,0,0-1.23,1v0c0,.66.63.86,1.19,1s.91.27.91.64h0c0,.35-.32.57-.75.57a2.1,2.1,0,0,1-1.26-.46l-.27.39a2.49,2.49,0,0,0,1.5.53m-5-2.08a1.25,1.25,0,0,1,1.18-1.23,1.18,1.18,0,0,1,1.15,1.23Zm1.26,2.09a1.84,1.84,0,0,0,1.49-.68l-.33-.3a1.51,1.51,0,0,1-1.15.51,1.26,1.26,0,0,1-1.27-1.22h2.87a1,1,0,0,0,0-.18,1.73,1.73,0,0,0-1.69-1.91,1.79,1.79,0,0,0-1.74,1.89h0a1.8,1.8,0,0,0,1.81,1.88m-3.84,0a1.83,1.83,0,0,0,1.47-.7l-.34-.32a1.49,1.49,0,0,1-1.11.54,1.35,1.35,0,0,1-1.33-1.41h0a1.33,1.33,0,0,1,1.3-1.4,1.47,1.47,0,0,1,1.1.54l.36-.37a1.89,1.89,0,0,0-3.31,1.24v0a1.86,1.86,0,0,0,1.86,1.87m-4.49-.48a1.36,1.36,0,0,1-1.34-1.41h0a1.34,1.34,0,0,1,1.33-1.4,1.37,1.37,0,0,1,1.34,1.41v0a1.34,1.34,0,0,1-1.33,1.39m0,.48a1.87,1.87,0,0,0,1.89-1.89h0a1.89,1.89,0,1,0-3.77,0v0a1.85,1.85,0,0,0,1.88,1.87m-4.34-.08h.54v-1.44a1.46,1.46,0,0,1,1.44-1.66h0v-.58a1.55,1.55,0,0,0-1.48,1v-.94h-.54Zm-2.82-.41a1.35,1.35,0,0,1-1.31-1.4h0a1.35,1.35,0,0,1,1.31-1.39,1.3,1.3,0,0,1,1.28,1.4h0a1.28,1.28,0,0,1-1.28,1.39M122,217.19h.53v-1.81a1.66,1.66,0,0,0,1.39.77,1.77,1.77,0,0,0,1.73-1.89h0a1.77,1.77,0,0,0-1.73-1.88,1.64,1.64,0,0,0-1.39.81v-.73H122Zm-5.14-1.53a1.31,1.31,0,0,1-1.27-1.4h0a1.27,1.27,0,0,1,1.27-1.39,1.34,1.34,0,0,1,1.31,1.39h0a1.34,1.34,0,0,1-1.31,1.4m-.09.49a1.61,1.61,0,0,0,1.38-.81v.73h.54V211h-.54v2.18a1.64,1.64,0,0,0-1.38-.77,1.78,1.78,0,0,0-1.73,1.89h0a1.77,1.77,0,0,0,1.73,1.88m-5.83-.08h.53V214a1.07,1.07,0,0,1,1.09-1.14,1,1,0,0,1,1,1.09v2.12h.54v-2.25a1.32,1.32,0,0,0-1.39-1.45,1.38,1.38,0,0,0-1.24.71v-.63h-.53Zm-2.87-.35c-.49,0-.91-.27-.91-.72v0c0-.45.37-.75,1.05-.75a3.72,3.72,0,0,1,1.07.16v.35a1.1,1.1,0,0,1-1.21,1m-.11.43a1.58,1.58,0,0,0,1.31-.63v.55h.52v-2.21a1.44,1.44,0,0,0-.37-1.06,1.58,1.58,0,0,0-1.17-.4,3,3,0,0,0-1.32.3l.16.44a2.58,2.58,0,0,1,1.1-.26c.68,0,1.08.33,1.08,1V214a3.87,3.87,0,0,0-1.11-.15c-.92,0-1.55.4-1.55,1.16v0a1.22,1.22,0,0,0,1.35,1.13m-6.21-.49a1.3,1.3,0,0,1-1.27-1.4h0a1.27,1.27,0,0,1,1.27-1.39,1.35,1.35,0,0,1,1.31,1.39h0a1.35,1.35,0,0,1-1.31,1.4m-.1.49a1.61,1.61,0,0,0,1.39-.81v.73h.54V211H103v2.18a1.64,1.64,0,0,0-1.39-.77,1.78,1.78,0,0,0-1.72,1.89h0a1.77,1.77,0,0,0,1.72,1.88m-5.34-2.09a1.25,1.25,0,0,1,1.18-1.23,1.18,1.18,0,0,1,1.15,1.23Zm1.26,2.09a1.84,1.84,0,0,0,1.49-.68l-.33-.3a1.51,1.51,0,0,1-1.14.51,1.27,1.27,0,0,1-1.28-1.22h2.87a1,1,0,0,0,0-.18,1.73,1.73,0,0,0-1.69-1.91,1.78,1.78,0,0,0-1.73,1.89h0a1.79,1.79,0,0,0,1.8,1.88m-4.26-.08h.54v-1.44c0-1.1.64-1.66,1.43-1.66h0v-.58a1.54,1.54,0,0,0-1.48,1v-.94h-.54Zm-3.82-2a1.24,1.24,0,0,1,1.17-1.23,1.19,1.19,0,0,1,1.16,1.23Zm1.26,2.09a1.86,1.86,0,0,0,1.49-.68l-.34-.3a1.48,1.48,0,0,1-1.14.51,1.26,1.26,0,0,1-1.27-1.22h2.87v-.18a1.72,1.72,0,0,0-1.68-1.91,1.79,1.79,0,0,0-1.74,1.89h0a1.8,1.8,0,0,0,1.81,1.88m-3.1,0a1.3,1.3,0,0,0,.65-.15v-.46a1.1,1.1,0,0,1-.52.12.54.54,0,0,1-.61-.6v-2.11h1.15v-.48H87.14v-1.09H86.6v1.09h-.5v.48h.5v2.18a.92.92,0,0,0,1,1m-3-.06h.54V211h-.54Zm-1.88-4.41h.61v-.6h-.61Zm0,4.41h.53v-3.63h-.53Zm-2.42,0h.54v-3.15H82v-.46H80.89v-.29c0-.52.21-.77.63-.77a1.73,1.73,0,0,1,.53.09V211a1.76,1.76,0,0,0-.6-.09,1.08,1.08,0,0,0-.78.28,1.29,1.29,0,0,0-.31.93v.31h-.5v.47h.5Z"/><path class="cls-21" d="M245.18,207.64c.73,0,1.29-.4,1.29-1.09h0c0-.65-.6-.87-1.16-1s-.93-.28-.93-.62h0c0-.3.27-.53.7-.53a2,2,0,0,1,1.07.35l.24-.4a2.42,2.42,0,0,0-1.3-.4,1.09,1.09,0,0,0-1.23,1v0c0,.66.63.86,1.2,1s.9.27.9.64h0c0,.35-.31.57-.75.57a2.05,2.05,0,0,1-1.25-.46l-.27.39a2.46,2.46,0,0,0,1.49.53m-3-.07h.53V204h-.53Zm0-4.41h.62v-.6h-.62Zm-5.94,2.4a1.25,1.25,0,0,1,1.18-1.23,1.2,1.2,0,0,1,1.16,1.23Zm1.26,2.09A1.88,1.88,0,0,0,239,207l-.34-.3a1.48,1.48,0,0,1-1.14.51,1.27,1.27,0,0,1-1.28-1.22h2.87a1,1,0,0,0,0-.18,1.72,1.72,0,0,0-1.69-1.91,1.78,1.78,0,0,0-1.73,1.89h0a1.79,1.79,0,0,0,1.8,1.88m-5.89-.08h.54V205.5a1.07,1.07,0,0,1,1.08-1.14,1,1,0,0,1,1,1.09v2.12h.53v-2.25a1.32,1.32,0,0,0-1.38-1.45,1.38,1.38,0,0,0-1.24.71V204h-.54Zm-2.87-.35c-.49,0-.91-.27-.91-.72v0c0-.45.38-.75,1.06-.75a3.59,3.59,0,0,1,1.06.16v.35a1.09,1.09,0,0,1-1.21,1m-.1.43a1.58,1.58,0,0,0,1.3-.63v.55h.52v-2.21a1.4,1.4,0,0,0-.37-1.06,1.57,1.57,0,0,0-1.17-.4,3,3,0,0,0-1.31.3l.16.44a2.55,2.55,0,0,1,1.1-.26c.68,0,1.07.33,1.07,1v.13a3.87,3.87,0,0,0-1.11-.15c-.92,0-1.55.4-1.55,1.16v0a1.23,1.23,0,0,0,1.36,1.13m-5.39-.08h.53V205.5a1.07,1.07,0,0,1,1.09-1.14,1,1,0,0,1,1,1.09v2.12h.54v-2.25a1.32,1.32,0,0,0-1.39-1.45,1.38,1.38,0,0,0-1.24.71v-2.12h-.53Zm-1.62.06a1.33,1.33,0,0,0,.65-.15V207a1.14,1.14,0,0,1-.53.12.53.53,0,0,1-.6-.6v-2.11h1.14V204h-1.14v-1.09h-.54V204h-.51v.48h.51v2.18a.92.92,0,0,0,1,1m-5-2.07a1.24,1.24,0,0,1,1.17-1.23,1.2,1.2,0,0,1,1.16,1.23Zm1.26,2.09a1.87,1.87,0,0,0,1.49-.68l-.34-.3a1.48,1.48,0,0,1-1.14.51,1.26,1.26,0,0,1-1.27-1.22h2.87v-.18a1.72,1.72,0,0,0-1.68-1.91,1.78,1.78,0,0,0-1.74,1.89h0a1.8,1.8,0,0,0,1.81,1.88m-8.24-.08h.54V205.5a1,1,0,0,1,1-1.14c.58,0,.94.4.94,1.08v2.13h.53v-2.09a1,1,0,0,1,1-1.12c.59,0,.94.39.94,1.09v2.12h.53v-2.24a1.3,1.3,0,0,0-1.34-1.46,1.43,1.43,0,0,0-1.27.72,1.25,1.25,0,0,0-1.17-.72,1.31,1.31,0,0,0-1.16.69V204h-.54Zm-5.93-2a1.25,1.25,0,0,1,1.18-1.23,1.2,1.2,0,0,1,1.16,1.23Zm1.26,2.09a1.88,1.88,0,0,0,1.5-.68l-.34-.3a1.48,1.48,0,0,1-1.14.51,1.27,1.27,0,0,1-1.28-1.22h2.87a1,1,0,0,0,0-.18,1.72,1.72,0,0,0-1.69-1.91,1.78,1.78,0,0,0-1.73,1.89h0a1.79,1.79,0,0,0,1.8,1.88m-5.89-.08h.54V205.5a1.07,1.07,0,0,1,1.08-1.14,1,1,0,0,1,1,1.09v2.12h.53v-2.25a1.32,1.32,0,0,0-1.38-1.45,1.38,1.38,0,0,0-1.24.71v-2.12H199Zm-3,0h.56v-4.39h1.65v-.51h-3.85v.51H196Zm-5.26,0h.64v-.74h-.64Zm-1.93-.6-1.32-3h-.59l1.64,3.61c-.22.51-.42.67-.74.67a1.17,1.17,0,0,1-.57-.13l-.18.43a1.65,1.65,0,0,0,.77.18c.55,0,.9-.27,1.2-1l1.52-3.74H190Zm-3.17.66a1.33,1.33,0,0,0,.65-.15V207a1.13,1.13,0,0,1-.52.12.53.53,0,0,1-.61-.6v-2.11h1.15V204h-1.15v-1.09h-.54V204h-.5v.48h.5v2.18a.92.92,0,0,0,1,1m-3-.06h.54V204h-.54Zm0-4.41h.61v-.6h-.61Zm-1.81,4.41h.54v-5.11h-.54Zm-1.84,0h.54V204H179Zm0-4.41h.62v-.6h-.62Zm-2.38,4.49A1.85,1.85,0,0,0,178,207l-.34-.32a1.5,1.5,0,0,1-1.11.54,1.35,1.35,0,0,1-1.33-1.41h0a1.33,1.33,0,0,1,1.3-1.4,1.43,1.43,0,0,1,1.09.54l.36-.37a1.85,1.85,0,0,0-1.45-.65,1.87,1.87,0,0,0-1.85,1.89v0a1.86,1.86,0,0,0,1.85,1.87m-4.5-.43c-.49,0-.91-.27-.91-.72v0c0-.45.38-.75,1.06-.75a3.59,3.59,0,0,1,1.06.16v.35a1.09,1.09,0,0,1-1.21,1m-.1.43a1.61,1.61,0,0,0,1.31-.63v.55h.51v-2.21a1.4,1.4,0,0,0-.37-1.06,1.55,1.55,0,0,0-1.17-.4,3,3,0,0,0-1.31.3l.16.44a2.55,2.55,0,0,1,1.1-.26c.68,0,1.08.33,1.08,1v.13a3.94,3.94,0,0,0-1.12-.15c-.91,0-1.54.4-1.54,1.16v0a1.22,1.22,0,0,0,1.35,1.13m-3.34-.08h.54v-3.15h1.14V204h-1.15v-.29c0-.52.21-.77.63-.77a1.63,1.63,0,0,1,.52.09v-.47a1.66,1.66,0,0,0-.59-.09,1.08,1.08,0,0,0-.78.28,1.29,1.29,0,0,0-.31.93V204h-.5v.47h.5Zm-4.89-.6-1.32-3h-.6l1.65,3.61c-.22.51-.42.67-.74.67a1.17,1.17,0,0,1-.57-.13l-.18.43a1.62,1.62,0,0,0,.77.18c.54,0,.89-.27,1.2-1l1.52-3.74h-.57Zm-4.6-.16a1.22,1.22,0,0,1-1.26-1.23h0a1.2,1.2,0,0,1,1.26-1.22,1.27,1.27,0,0,1,1.33,1.22v0a1.28,1.28,0,0,1-1.33,1.22m0,1.89a1.9,1.9,0,0,0,1.38-.48,1.71,1.71,0,0,0,.46-1.28v-3h-.53v.65a1.72,1.72,0,0,0-1.42-.73,1.68,1.68,0,0,0-1.7,1.71h0a1.67,1.67,0,0,0,1.7,1.7,1.7,1.7,0,0,0,1.42-.76V207a1.19,1.19,0,0,1-1.31,1.29,2.35,2.35,0,0,1-1.4-.46l-.24.42a2.86,2.86,0,0,0,1.64.5m-4.29-1.13h.54v-1.44a1.46,1.46,0,0,1,1.44-1.66h0v-.58a1.55,1.55,0,0,0-1.48,1V204h-.54Zm-3.82-2a1.25,1.25,0,0,1,1.18-1.23,1.18,1.18,0,0,1,1.15,1.23Zm1.26,2.09a1.84,1.84,0,0,0,1.49-.68l-.33-.3a1.51,1.51,0,0,1-1.15.51A1.26,1.26,0,0,1,151,206h2.87a1,1,0,0,0,0-.18,1.73,1.73,0,0,0-1.69-1.91,1.78,1.78,0,0,0-1.73,1.89h0a1.79,1.79,0,0,0,1.8,1.88m-5.89-.08h.54V205.5a1.07,1.07,0,0,1,1.08-1.14,1,1,0,0,1,1,1.09v2.12h.54v-2.25a1.32,1.32,0,0,0-1.39-1.45,1.36,1.36,0,0,0-1.23.71V204h-.54Zm-3.83-2a1.25,1.25,0,0,1,1.18-1.23,1.2,1.2,0,0,1,1.16,1.23Zm1.26,2.09a1.88,1.88,0,0,0,1.5-.68l-.34-.3a1.48,1.48,0,0,1-1.14.51,1.27,1.27,0,0,1-1.28-1.22h2.87a1,1,0,0,0,0-.18,1.72,1.72,0,0,0-1.69-1.91,1.78,1.78,0,0,0-1.73,1.89h0a1.79,1.79,0,0,0,1.8,1.88m-6.53-.48a1.36,1.36,0,0,1-1.34-1.41h0a1.34,1.34,0,0,1,1.32-1.4,1.37,1.37,0,0,1,1.35,1.41v0a1.34,1.34,0,0,1-1.33,1.39m0,.48a1.87,1.87,0,0,0,1.9-1.89h0a1.89,1.89,0,1,0-3.77,0v0a1.85,1.85,0,0,0,1.87,1.87m-3.16,0a1.33,1.33,0,0,0,.65-.15V207a1.14,1.14,0,0,1-.53.12.53.53,0,0,1-.6-.6v-2.11h1.14V204h-1.14v-1.09h-.54V204h-.51v.48h.51v2.18a.92.92,0,0,0,1,1m-5.6,0a1.14,1.14,0,0,0,1.29-1.09h0c0-.65-.6-.87-1.16-1s-.94-.28-.94-.62h0c0-.3.28-.53.7-.53a2.06,2.06,0,0,1,1.08.35l.24-.4a2.42,2.42,0,0,0-1.3-.4,1.09,1.09,0,0,0-1.23,1v0c0,.66.63.86,1.19,1s.91.27.91.64h0c0,.35-.32.57-.75.57a2.1,2.1,0,0,1-1.26-.46l-.27.39a2.49,2.49,0,0,0,1.5.53m-4.07-.42c-.49,0-.91-.27-.91-.72v0c0-.45.38-.75,1.06-.75a3.59,3.59,0,0,1,1.06.16v.35a1.09,1.09,0,0,1-1.21,1m-.1.43a1.61,1.61,0,0,0,1.31-.63v.55h.51v-2.21a1.4,1.4,0,0,0-.37-1.06,1.55,1.55,0,0,0-1.17-.4,3,3,0,0,0-1.31.3l.16.44a2.55,2.55,0,0,1,1.1-.26c.68,0,1.08.33,1.08,1v.13a3.94,3.94,0,0,0-1.12-.15c-.91,0-1.54.4-1.54,1.16v0a1.22,1.22,0,0,0,1.35,1.13m-4.13-.84a1.22,1.22,0,0,1-1.26-1.23h0a1.2,1.2,0,0,1,1.26-1.22,1.27,1.27,0,0,1,1.33,1.22v0a1.28,1.28,0,0,1-1.33,1.22m0,1.89a1.9,1.9,0,0,0,1.38-.48,1.71,1.71,0,0,0,.46-1.28v-3h-.53v.65a1.72,1.72,0,0,0-1.42-.73,1.68,1.68,0,0,0-1.7,1.71h0a1.67,1.67,0,0,0,1.7,1.7,1.7,1.7,0,0,0,1.42-.76V207a1.18,1.18,0,0,1-1.31,1.29,2.35,2.35,0,0,1-1.4-.46l-.24.42a2.86,2.86,0,0,0,1.64.5m-5.49-1.13h.54v-5.11h-.54Zm-1.84,0h.54v-5.11h-.54ZM111,203.16h.61v-.6H111Zm0,4.41h.53v-3.63H111Zm-2.42,0h.53v-3.15h1.15V204h-1.15v-.29c0-.52.21-.77.63-.77a1.63,1.63,0,0,1,.52.09v-.47a1.66,1.66,0,0,0-.59-.09,1.08,1.08,0,0,0-.78.28,1.29,1.29,0,0,0-.31.93V204h-.5v.47h.5Zm-3.24-.41a1.3,1.3,0,0,1-1.27-1.4h0a1.27,1.27,0,0,1,1.27-1.39,1.35,1.35,0,0,1,1.31,1.39h0a1.35,1.35,0,0,1-1.31,1.4m-.1.49a1.61,1.61,0,0,0,1.39-.81v.73h.54v-5.11h-.54v2.18a1.64,1.64,0,0,0-1.39-.77,1.78,1.78,0,0,0-1.72,1.89h0a1.77,1.77,0,0,0,1.72,1.88m-5.83-.08H100V205.5a1.07,1.07,0,0,1,1.09-1.14,1,1,0,0,1,1,1.09v2.12h.54v-2.25a1.32,1.32,0,0,0-1.39-1.45,1.38,1.38,0,0,0-1.24.71V204h-.54Zm-2.87-.35c-.49,0-.91-.27-.91-.72v0c0-.45.38-.75,1.06-.75a3.59,3.59,0,0,1,1.06.16v.35a1.09,1.09,0,0,1-1.21,1m-.1.43a1.61,1.61,0,0,0,1.31-.63v.55h.51v-2.21a1.4,1.4,0,0,0-.37-1.06,1.55,1.55,0,0,0-1.17-.4,3,3,0,0,0-1.31.3l.16.44a2.58,2.58,0,0,1,1.1-.26c.68,0,1.08.33,1.08,1v.13a3.94,3.94,0,0,0-1.12-.15c-.91,0-1.54.4-1.54,1.16v0a1.22,1.22,0,0,0,1.35,1.13m-2.87-.08h.54v-5.11h-.54Zm-6-2a1.24,1.24,0,0,1,1.17-1.23A1.2,1.2,0,0,1,90,205.56Zm1.26,2.09a1.87,1.87,0,0,0,1.49-.68l-.34-.3a1.48,1.48,0,0,1-1.14.51A1.26,1.26,0,0,1,87.62,206h2.87v-.18a1.72,1.72,0,0,0-1.68-1.91,1.79,1.79,0,0,0-1.74,1.89h0a1.8,1.8,0,0,0,1.81,1.88m-5.9-.08h.54V205.5a1.07,1.07,0,0,1,1.09-1.14,1,1,0,0,1,1,1.09v2.12h.54v-2.25a1.32,1.32,0,0,0-1.39-1.45,1.38,1.38,0,0,0-1.24.71v-2.12H83Zm-1.61.06a1.36,1.36,0,0,0,.65-.15V207a1.16,1.16,0,0,1-.53.12.54.54,0,0,1-.61-.6v-2.11H82V204H80.88v-1.09h-.54V204h-.5v.48h.5v2.18a.92.92,0,0,0,1,1"/><path class="cls-21" d="M239,198.67a1.36,1.36,0,0,1-1.34-1.41h0a1.34,1.34,0,0,1,1.33-1.4,1.37,1.37,0,0,1,1.34,1.41v0a1.34,1.34,0,0,1-1.33,1.39m0,.48a1.87,1.87,0,0,0,1.89-1.89h0a1.89,1.89,0,1,0-3.77,0v0a1.85,1.85,0,0,0,1.88,1.87m-3.17,0a1.33,1.33,0,0,0,.65-.15v-.46a1.13,1.13,0,0,1-.52.12.53.53,0,0,1-.61-.6v-2.11h1.15v-.48h-1.15v-1.09h-.54v1.09h-.5v.48h.5v2.18a.92.92,0,0,0,1,1m-5.6,0a1.14,1.14,0,0,0,1.29-1.09h0c0-.65-.6-.87-1.16-1s-.93-.28-.93-.62h0c0-.3.27-.53.7-.53a2,2,0,0,1,1.07.35l.24-.4a2.42,2.42,0,0,0-1.3-.4,1.09,1.09,0,0,0-1.23,1v0c0,.66.63.86,1.2,1s.9.27.9.64h0c0,.35-.32.57-.75.57a2.05,2.05,0,0,1-1.25-.46l-.28.39a2.49,2.49,0,0,0,1.5.53m-4.23-.48a1.3,1.3,0,0,1-1.27-1.4h0a1.27,1.27,0,0,1,1.27-1.39,1.34,1.34,0,0,1,1.31,1.39h0a1.34,1.34,0,0,1-1.31,1.4m-.09.49a1.61,1.61,0,0,0,1.38-.81v.73h.54V194h-.54v2.18a1.64,1.64,0,0,0-1.38-.77,1.78,1.78,0,0,0-1.73,1.89h0a1.77,1.77,0,0,0,1.73,1.88m-4.39-.43c-.49,0-.91-.27-.91-.72v0c0-.45.37-.75,1-.75a3.66,3.66,0,0,1,1.07.16v.35a1.1,1.1,0,0,1-1.21,1m-.11.43a1.58,1.58,0,0,0,1.31-.63v.55h.52v-2.21a1.44,1.44,0,0,0-.37-1.06,1.58,1.58,0,0,0-1.17-.4,3,3,0,0,0-1.32.3l.16.44a2.62,2.62,0,0,1,1.1-.26c.68,0,1.08.33,1.08,1V197a3.87,3.87,0,0,0-1.11-.15c-.92,0-1.55.4-1.55,1.16v0a1.22,1.22,0,0,0,1.35,1.13m-4.9-2.09a1.25,1.25,0,0,1,1.18-1.23,1.18,1.18,0,0,1,1.15,1.23Zm1.26,2.09a1.84,1.84,0,0,0,1.49-.68l-.33-.3a1.51,1.51,0,0,1-1.14.51,1.27,1.27,0,0,1-1.28-1.22h2.87a1,1,0,0,0,0-.18,1.73,1.73,0,0,0-1.69-1.91,1.78,1.78,0,0,0-1.73,1.89h0a1.79,1.79,0,0,0,1.8,1.88m-5.89-.08h.54V197a1.07,1.07,0,0,1,1.08-1.14,1,1,0,0,1,1,1.09v2.12H215v-2.25a1.32,1.32,0,0,0-1.38-1.45,1.36,1.36,0,0,0-1.24.71V194h-.54Zm-1.79,0h.53V194h-.53Zm-1.84,0h.53V194h-.53Zm-3.88-2a1.25,1.25,0,0,1,1.18-1.23,1.2,1.2,0,0,1,1.16,1.23Zm1.26,2.09a1.88,1.88,0,0,0,1.5-.68l-.34-.3a1.48,1.48,0,0,1-1.14.51,1.27,1.27,0,0,1-1.28-1.22h2.87a1,1,0,0,0,0-.18,1.72,1.72,0,0,0-1.69-1.91,1.78,1.78,0,0,0-1.73,1.89h0a1.79,1.79,0,0,0,1.8,1.88m-6.47-.05h.48l1-2.86,1,2.86H202l1.27-3.65h-.56l-.95,2.91-1-2.92h-.45l-1,2.92-1-2.91h-.58Zm-6.88-2a1.24,1.24,0,0,1,1.17-1.23,1.19,1.19,0,0,1,1.16,1.23Zm1.26,2.09a1.86,1.86,0,0,0,1.49-.68l-.34-.3a1.48,1.48,0,0,1-1.14.51,1.26,1.26,0,0,1-1.27-1.22h2.87v-.18a1.72,1.72,0,0,0-1.68-1.91,1.79,1.79,0,0,0-1.74,1.89h0a1.8,1.8,0,0,0,1.81,1.88m-5.9-.08h.54V197a1.07,1.07,0,0,1,1.09-1.14,1,1,0,0,1,1,1.09v2.12h.54v-2.25a1.32,1.32,0,0,0-1.39-1.45,1.38,1.38,0,0,0-1.24.71V194h-.54Zm-1.61.06a1.33,1.33,0,0,0,.65-.15v-.46a1.14,1.14,0,0,1-.53.12.54.54,0,0,1-.61-.6v-2.11h1.15v-.48h-1.15v-1.09H185v1.09h-.51v.48H185v2.18a.92.92,0,0,0,1,1m-10-.06h.54V197a1,1,0,0,1,1-1.14c.57,0,.93.4.93,1.08v2.13h.54V197a1,1,0,0,1,1-1.12c.59,0,.94.39.94,1.09v2.12h.54v-2.24a1.3,1.3,0,0,0-1.35-1.46,1.43,1.43,0,0,0-1.27.72,1.24,1.24,0,0,0-1.16-.72,1.32,1.32,0,0,0-1.17.69v-.61H176Zm-2.86-.4a1.35,1.35,0,0,1-1.33-1.41h0a1.34,1.34,0,0,1,1.32-1.4,1.37,1.37,0,0,1,1.34,1.41v0a1.33,1.33,0,0,1-1.33,1.39m0,.48a1.88,1.88,0,0,0,1.9-1.89h0a1.89,1.89,0,0,0-3.78,0v0a1.85,1.85,0,0,0,1.88,1.87m-4.33-.08h.54v-1.44c0-1.1.64-1.66,1.43-1.66h0v-.58a1.53,1.53,0,0,0-1.47,1v-.94h-.54Zm-2.37,0H167v-3.15h1.14v-.46H167v-.29c0-.52.21-.77.63-.77a1.73,1.73,0,0,1,.53.09V194a1.76,1.76,0,0,0-.6-.09,1.05,1.05,0,0,0-.77.28,1.25,1.25,0,0,0-.32.93v.31H166v.47h.5Zm-3.92.06a1.33,1.33,0,0,0,.65-.15v-.46a1.13,1.13,0,0,1-.52.12.53.53,0,0,1-.61-.6v-2.11h1.15v-.48h-1.15v-1.09h-.54v1.09H161v.48h.5v2.18a.92.92,0,0,0,1,1m-5.52-.06h.54V197a1.07,1.07,0,0,1,1.08-1.14,1,1,0,0,1,1,1.09v2.12h.54v-2.25a1.32,1.32,0,0,0-1.38-1.45,1.36,1.36,0,0,0-1.24.71v-.63H157Zm-3.82-2a1.24,1.24,0,0,1,1.17-1.23,1.2,1.2,0,0,1,1.16,1.23Zm1.26,2.09a1.87,1.87,0,0,0,1.49-.68l-.34-.3a1.48,1.48,0,0,1-1.14.51,1.26,1.26,0,0,1-1.27-1.22h2.87v-.18a1.72,1.72,0,0,0-1.68-1.91,1.78,1.78,0,0,0-1.74,1.89h0a1.8,1.8,0,0,0,1.81,1.88m-3.88,0c.73,0,1.29-.4,1.29-1.09h0c0-.65-.6-.87-1.16-1s-.93-.28-.93-.62h0c0-.3.27-.53.7-.53a2,2,0,0,1,1.07.35l.25-.4a2.43,2.43,0,0,0-1.31-.4,1.09,1.09,0,0,0-1.23,1v0c0,.66.63.86,1.2,1s.9.27.9.64h0c0,.35-.31.57-.75.57a2.08,2.08,0,0,1-1.25-.46l-.27.39a2.46,2.46,0,0,0,1.49.53m-5.58,0a1.14,1.14,0,0,0,1.29-1.09h0c0-.65-.6-.87-1.16-1s-.94-.28-.94-.62h0c0-.3.28-.53.7-.53a2.06,2.06,0,0,1,1.08.35l.24-.4a2.42,2.42,0,0,0-1.3-.4,1.09,1.09,0,0,0-1.23,1v0c0,.66.63.86,1.19,1s.91.27.91.64h0c0,.35-.32.57-.75.57a2.1,2.1,0,0,1-1.26-.46l-.27.39a2.49,2.49,0,0,0,1.5.53m-3-.07h.54v-3.62H142Zm0-4.41h.61v-.6H142Zm-4.41,4.48a1.14,1.14,0,0,0,1.29-1.09h0c0-.65-.6-.87-1.16-1s-.93-.28-.93-.62h0c0-.3.27-.53.7-.53a2,2,0,0,1,1.07.35l.24-.4a2.42,2.42,0,0,0-1.3-.4,1.09,1.09,0,0,0-1.23,1v0c0,.66.63.86,1.2,1s.9.27.9.64h0c0,.35-.32.57-.75.57a2.05,2.05,0,0,1-1.25-.46l-.28.39a2.49,2.49,0,0,0,1.5.53m-4.06-.42c-.49,0-.91-.27-.91-.72v0c0-.45.37-.75,1-.75a3.72,3.72,0,0,1,1.07.16v.35a1.1,1.1,0,0,1-1.21,1m-.11.43a1.58,1.58,0,0,0,1.31-.63v.55h.52v-2.21a1.44,1.44,0,0,0-.37-1.06,1.58,1.58,0,0,0-1.17-.4,3,3,0,0,0-1.32.3l.16.44a2.58,2.58,0,0,1,1.1-.26c.68,0,1.08.33,1.08,1V197a3.87,3.87,0,0,0-1.11-.15c-.92,0-1.55.4-1.55,1.16v0a1.22,1.22,0,0,0,1.35,1.13m-4.13-.84a1.22,1.22,0,0,1-1.25-1.23h0a1.19,1.19,0,0,1,1.25-1.22,1.26,1.26,0,0,1,1.33,1.22v0a1.27,1.27,0,0,1-1.33,1.22m0,1.89a1.93,1.93,0,0,0,1.38-.48,1.75,1.75,0,0,0,.46-1.28v-3h-.54v.65a1.7,1.7,0,0,0-1.41-.73,1.67,1.67,0,0,0-1.7,1.71h0a1.67,1.67,0,0,0,1.7,1.7,1.73,1.73,0,0,0,1.42-.76v.42a1.19,1.19,0,0,1-1.32,1.29,2.3,2.3,0,0,1-1.39-.46l-.25.42a2.91,2.91,0,0,0,1.65.5m-7.53-3.14a1.25,1.25,0,0,1,1.18-1.23,1.18,1.18,0,0,1,1.15,1.23Zm1.26,2.09a1.84,1.84,0,0,0,1.49-.68l-.33-.3a1.51,1.51,0,0,1-1.14.51,1.27,1.27,0,0,1-1.28-1.22h2.87a1,1,0,0,0,0-.18,1.73,1.73,0,0,0-1.69-1.91,1.78,1.78,0,0,0-1.73,1.89h0a1.79,1.79,0,0,0,1.8,1.88m-5.89-.08h.54V197a1.07,1.07,0,0,1,1.08-1.14,1,1,0,0,1,1,1.09v2.12h.54v-2.25a1.32,1.32,0,0,0-1.38-1.45,1.37,1.37,0,0,0-1.24.71v-.63h-.54Zm-2.87-.35c-.49,0-.91-.27-.91-.72v0c0-.45.38-.75,1.06-.75a3.64,3.64,0,0,1,1.06.16v.35a1.1,1.1,0,0,1-1.21,1m-.11.43a1.58,1.58,0,0,0,1.31-.63v.55H116v-2.21a1.44,1.44,0,0,0-.37-1.06,1.58,1.58,0,0,0-1.17-.4,3.05,3.05,0,0,0-1.32.3l.17.44a2.54,2.54,0,0,1,1.09-.26c.68,0,1.08.33,1.08,1V197a3.87,3.87,0,0,0-1.11-.15c-.92,0-1.55.4-1.55,1.16v0a1.22,1.22,0,0,0,1.35,1.13m-5.39-.08h.54V197a1.07,1.07,0,0,1,1.09-1.14,1,1,0,0,1,1,1.09v2.12h.54v-2.25a1.32,1.32,0,0,0-1.39-1.45,1.38,1.38,0,0,0-1.24.71V194h-.54Zm-1.61.06a1.33,1.33,0,0,0,.65-.15v-.46a1.16,1.16,0,0,1-.53.12.54.54,0,0,1-.61-.6v-2.11h1.15v-.48h-1.15v-1.09h-.53v1.09h-.51v.48h.51v2.18a.92.92,0,0,0,1,1m-5-2.07a1.25,1.25,0,0,1,1.18-1.23,1.2,1.2,0,0,1,1.16,1.23Zm1.26,2.09a1.84,1.84,0,0,0,1.49-.68l-.33-.3a1.48,1.48,0,0,1-1.14.51,1.27,1.27,0,0,1-1.28-1.22H105a1,1,0,0,0,0-.18,1.72,1.72,0,0,0-1.69-1.91,1.78,1.78,0,0,0-1.73,1.89h0a1.79,1.79,0,0,0,1.8,1.88m-8.23-.08h.53V197a1.05,1.05,0,0,1,1-1.14c.58,0,.93.4.93,1.08v2.13h.54V197a1,1,0,0,1,1-1.12c.58,0,.93.39.93,1.09v2.12h.54v-2.24a1.3,1.3,0,0,0-1.34-1.46,1.45,1.45,0,0,0-1.28.72,1.23,1.23,0,0,0-1.16-.72,1.32,1.32,0,0,0-1.17.69v-.61h-.53Zm-5.93-2a1.25,1.25,0,0,1,1.18-1.23,1.18,1.18,0,0,1,1.15,1.23Zm1.26,2.09a1.84,1.84,0,0,0,1.49-.68l-.33-.3a1.51,1.51,0,0,1-1.14.51,1.27,1.27,0,0,1-1.28-1.22h2.87a1,1,0,0,0,0-.18,1.73,1.73,0,0,0-1.69-1.91,1.78,1.78,0,0,0-1.73,1.89h0a1.79,1.79,0,0,0,1.8,1.88m-5.89-.08h.54V197a1.07,1.07,0,0,1,1.08-1.14,1,1,0,0,1,1,1.09v2.12h.54v-2.25a1.32,1.32,0,0,0-1.38-1.45,1.37,1.37,0,0,0-1.24.71V194h-.54Zm-3,0h.56v-4.39h1.65v-.51H79.9v.51h1.64Z"/><path class="cls-22" d="M72.34,201.25a4.59,4.59,0,1,0-4.58-4.59,4.58,4.58,0,0,0,4.58,4.59"/><path class="cls-23" d="M70.32,199.63h3.89v-1.14h-2l.94-.82c.73-.63,1.08-1,1.08-1.75v0c0-.94-.76-1.55-1.85-1.55a2.56,2.56,0,0,0-2,.94l.86.85c.4-.39.68-.59,1-.59a.5.5,0,0,1,.57.5c0,.29-.17.52-.63.95l-1.8,1.58Z"/><path class="cls-21" d="M240,323.56h.64v-.73H240Zm.16-1.38h.3l.17-3.13v-.39H240v.39Zm-2.48,1.45a1.14,1.14,0,0,0,1.29-1.08v0c0-.65-.61-.87-1.17-1s-.93-.28-.93-.63h0c0-.3.28-.53.7-.53a2.09,2.09,0,0,1,1.07.35l.25-.4a2.42,2.42,0,0,0-1.3-.4,1.09,1.09,0,0,0-1.23,1h0c0,.66.62.86,1.19,1s.91.28.91.64h0c0,.35-.32.58-.75.58a2.15,2.15,0,0,1-1.26-.46l-.27.38a2.49,2.49,0,0,0,1.5.53m-5-2.08a1.25,1.25,0,0,1,1.18-1.23,1.19,1.19,0,0,1,1.15,1.23Zm1.26,2.1a1.87,1.87,0,0,0,1.49-.68l-.34-.3a1.51,1.51,0,0,1-1.14.51A1.27,1.27,0,0,1,232.7,322h2.87a.91.91,0,0,0,0-.17,1.72,1.72,0,0,0-1.69-1.91,1.79,1.79,0,0,0-1.74,1.88h0a1.8,1.8,0,0,0,1.81,1.89m-8.24-.09h.54V321.5a1,1,0,0,1,1-1.14c.57,0,.93.39.93,1.07v2.13h.54v-2.08a1,1,0,0,1,1-1.12c.59,0,.94.39.94,1.09v2.11h.54v-2.24a1.3,1.3,0,0,0-1.35-1.45,1.43,1.43,0,0,0-1.27.72,1.22,1.22,0,0,0-1.16-.72,1.31,1.31,0,0,0-1.17.68v-.61h-.54Zm-2.86-.4a1.35,1.35,0,0,1-1.33-1.4v0a1.34,1.34,0,0,1,1.32-1.4,1.37,1.37,0,0,1,1.34,1.42h0a1.33,1.33,0,0,1-1.33,1.39m0,.49a1.88,1.88,0,0,0,1.9-1.89v0a1.89,1.89,0,0,0-3.78,0h0a1.87,1.87,0,0,0,1.88,1.88m-6-.09h.53v-2.07a1.07,1.07,0,0,1,1.09-1.13,1,1,0,0,1,1,1.09v2.11h.54v-2.25a1.32,1.32,0,0,0-1.39-1.44,1.38,1.38,0,0,0-1.24.7v-2.12h-.53Zm-5.25-1.1c-.55,0-.91-.56-.91-1.35h0c0-.79.35-1.34.89-1.34s.91.57.91,1.35v0c0,.77-.35,1.33-.89,1.33m0,1.2a2.35,2.35,0,0,0,2.28-2.55h0a2.33,2.33,0,0,0-2.26-2.54,2.35,2.35,0,0,0-2.28,2.55v0a2.33,2.33,0,0,0,2.26,2.53m-5.09-1.2c-.55,0-.91-.56-.91-1.35h0c0-.79.35-1.34.89-1.34s.91.57.91,1.35v0c0,.77-.35,1.33-.89,1.33m0,1.2a2.35,2.35,0,0,0,2.28-2.55h0a2.33,2.33,0,0,0-2.26-2.54,2.35,2.35,0,0,0-2.28,2.55v0a2.33,2.33,0,0,0,2.26,2.53m-5.09-1.2c-.55,0-.91-.56-.91-1.35h0c0-.79.35-1.34.89-1.34s.91.57.91,1.35v0c0,.77-.35,1.33-.89,1.33m0,1.2a2.35,2.35,0,0,0,2.28-2.55h0a2.33,2.33,0,0,0-2.26-2.54,2.35,2.35,0,0,0-2.28,2.55v0a2.33,2.33,0,0,0,2.26,2.53m-4.14,1.06c.87,0,1.43-.39,1.43-1.42v-1.12h-1.38v1.37h.54c0,.38-.23.61-.7.66Zm-3.42-1.16h1.5l2.16-3.88v-1h-3.77v1.14H196Zm-4.53,0h3.87v-1.1h-2l.84-.59c.73-.53,1.14-.93,1.14-1.72h0a1.62,1.62,0,0,0-1.81-1.56,2.28,2.28,0,0,0-2,1.05l.92.76c.39-.44.65-.64,1-.64a.5.5,0,0,1,.56.51c0,.29-.18.52-.64.88l-1.83,1.4Zm-4.57,0h.54v-1.44a1.46,1.46,0,0,1,1.44-1.66h0v-.58a1.56,1.56,0,0,0-1.48,1v-.95h-.54Zm-3.82-2a1.25,1.25,0,0,1,1.18-1.23,1.18,1.18,0,0,1,1.15,1.23Zm1.26,2.1a1.87,1.87,0,0,0,1.49-.68l-.33-.3a1.55,1.55,0,0,1-1.15.51,1.27,1.27,0,0,1-1.27-1.23h2.87a.91.91,0,0,0,0-.17,1.72,1.72,0,0,0-1.69-1.91,1.78,1.78,0,0,0-1.73,1.88h0a1.8,1.8,0,0,0,1.8,1.89m-4.27-.06h.48l1.57-3.65h-.58l-1.22,3-1.22-3h-.6Zm-3.86-.43a1.35,1.35,0,0,1-1.33-1.4v0a1.34,1.34,0,0,1,1.32-1.4,1.37,1.37,0,0,1,1.34,1.42h0a1.33,1.33,0,0,1-1.33,1.39m0,.49a1.88,1.88,0,0,0,1.9-1.89v0a1.89,1.89,0,0,0-3.78,0h0a1.86,1.86,0,0,0,1.88,1.88m-6.59-.09H168v-1.44a1.46,1.46,0,0,1,1.44-1.66h0v-.58a1.56,1.56,0,0,0-1.48,1v-.95h-.54Zm-2.85-.4a1.35,1.35,0,0,1-1.34-1.4v0a1.34,1.34,0,0,1,1.32-1.4,1.37,1.37,0,0,1,1.35,1.42h0a1.34,1.34,0,0,1-1.33,1.39m0,.49a1.88,1.88,0,0,0,1.9-1.89v0a1.89,1.89,0,0,0-3.77,0h0a1.86,1.86,0,0,0,1.87,1.88m-3.94-.09h.53v-3.15h1.14V320h-1.14v-.3c0-.52.21-.77.63-.77a2,2,0,0,1,.52.09v-.46a1.45,1.45,0,0,0-.59-.1,1.08,1.08,0,0,0-.78.28,1.3,1.3,0,0,0-.31.93v.31h-.5v.47h.5Zm-5.14,0H156v-1.44a1.46,1.46,0,0,1,1.43-1.66h0v-.58a1.54,1.54,0,0,0-1.47,1v-.95h-.54Zm-3.83-2a1.25,1.25,0,0,1,1.18-1.23,1.2,1.2,0,0,1,1.16,1.23Zm1.26,2.1a1.91,1.91,0,0,0,1.5-.68l-.34-.3a1.51,1.51,0,0,1-1.14.51,1.27,1.27,0,0,1-1.28-1.23h2.87a.91.91,0,0,0,0-.17,1.72,1.72,0,0,0-1.69-1.91,1.78,1.78,0,0,0-1.73,1.88h0a1.8,1.8,0,0,0,1.8,1.89m-6.47-.06h.48l1-2.86,1,2.86h.47l1.27-3.65h-.56l-.95,2.91-1-2.92h-.45l-1,2.92-.95-2.91h-.58Zm-3.64-.43a1.36,1.36,0,0,1-1.34-1.4v0a1.34,1.34,0,0,1,1.33-1.4,1.37,1.37,0,0,1,1.34,1.42h0a1.34,1.34,0,0,1-1.33,1.39m0,.49a1.88,1.88,0,0,0,1.89-1.89v0a1.85,1.85,0,0,0-1.88-1.87,1.87,1.87,0,0,0-1.89,1.89h0a1.86,1.86,0,0,0,1.88,1.88m-4.48-.49a1.35,1.35,0,0,1-1.31-1.4v0a1.35,1.35,0,0,1,1.31-1.39,1.3,1.3,0,0,1,1.28,1.4h0a1.28,1.28,0,0,1-1.28,1.4m-1.82,1.52H137v-1.81a1.63,1.63,0,0,0,1.39.77,1.77,1.77,0,0,0,1.73-1.88v0a1.76,1.76,0,0,0-1.73-1.87,1.65,1.65,0,0,0-1.39.8v-.73h-.53Z"/><path class="cls-21" d="M236.35,315.06h.53V313a1.07,1.07,0,0,1,1.09-1.13,1,1,0,0,1,1,1.09v2.11h.54v-2.25a1.32,1.32,0,0,0-1.39-1.44,1.38,1.38,0,0,0-1.24.7V310h-.53Zm-3.06-.75a1.23,1.23,0,0,1-1.25-1.24h0a1.2,1.2,0,0,1,1.25-1.22,1.26,1.26,0,0,1,1.33,1.23h0a1.28,1.28,0,0,1-1.33,1.23m0,1.89a1.92,1.92,0,0,0,1.38-.49,1.75,1.75,0,0,0,.46-1.28v-3h-.54v.65a1.71,1.71,0,0,0-3.11,1v0a1.67,1.67,0,0,0,1.7,1.69,1.73,1.73,0,0,0,1.42-.76v.43a1.19,1.19,0,0,1-1.32,1.28,2.32,2.32,0,0,1-1.39-.46l-.24.42a2.8,2.8,0,0,0,1.64.51m-4.58-1.06a1.37,1.37,0,0,0,1.23-.71v.63h.54v-3.62H230v2.07a1.07,1.07,0,0,1-1.08,1.14,1,1,0,0,1-1-1.09v-2.12h-.54v2.25a1.32,1.32,0,0,0,1.39,1.45m-4.19-.48a1.36,1.36,0,0,1-1.34-1.4v0a1.34,1.34,0,0,1,1.33-1.4,1.37,1.37,0,0,1,1.34,1.42h0a1.34,1.34,0,0,1-1.33,1.39m0,.49a1.88,1.88,0,0,0,1.89-1.89v0a1.89,1.89,0,0,0-3.77,0h0a1.86,1.86,0,0,0,1.88,1.88m-6-.09h.54V313a1.06,1.06,0,0,1,1.09-1.13,1,1,0,0,1,1,1.09v2.11h.54v-2.25a1.32,1.32,0,0,0-1.39-1.44,1.38,1.38,0,0,0-1.24.7v-.63h-.54Zm-3.82-2a1.25,1.25,0,0,1,1.18-1.23,1.18,1.18,0,0,1,1.15,1.23Zm1.26,2.1a1.87,1.87,0,0,0,1.49-.68l-.34-.3a1.51,1.51,0,0,1-1.14.51,1.27,1.27,0,0,1-1.27-1.23h2.87a.91.91,0,0,0,0-.17,1.72,1.72,0,0,0-1.69-1.91,1.79,1.79,0,0,0-1.74,1.88h0a1.81,1.81,0,0,0,1.81,1.89m-7.5-2.1a1.25,1.25,0,0,1,1.17-1.23,1.2,1.2,0,0,1,1.16,1.23Zm1.26,2.1a1.9,1.9,0,0,0,1.49-.68l-.34-.3a1.51,1.51,0,0,1-1.14.51,1.26,1.26,0,0,1-1.27-1.23h2.87v-.17a1.72,1.72,0,0,0-1.68-1.91,1.78,1.78,0,0,0-1.74,1.88h0a1.8,1.8,0,0,0,1.81,1.89m-3.1,0a1.33,1.33,0,0,0,.65-.15v-.46a1.14,1.14,0,0,1-.52.13.54.54,0,0,1-.61-.61v-2.11h1.15v-.48h-1.15v-1.09h-.54v1.09h-.5v.48h.5v2.18a.92.92,0,0,0,1,1m-4-.41c-.49,0-.91-.26-.91-.72h0c0-.46.37-.75,1.05-.75a3.76,3.76,0,0,1,1.07.15v.35a1.09,1.09,0,0,1-1.21,1m-.11.43a1.58,1.58,0,0,0,1.31-.62v.54h.52v-2.21a1.47,1.47,0,0,0-.37-1.06,1.62,1.62,0,0,0-1.17-.4,3,3,0,0,0-1.32.3l.16.45a2.45,2.45,0,0,1,1.1-.27c.68,0,1.08.34,1.08,1V313a3.87,3.87,0,0,0-1.11-.15c-.92,0-1.55.4-1.55,1.17h0a1.22,1.22,0,0,0,1.35,1.13m-3.74-.08h.54v-1.44a1.46,1.46,0,0,1,1.44-1.66h0v-.58a1.56,1.56,0,0,0-1.48,1v-.95h-.54Zm-3.82-2a1.25,1.25,0,0,1,1.18-1.23,1.18,1.18,0,0,1,1.15,1.23Zm1.26,2.1a1.87,1.87,0,0,0,1.49-.68l-.33-.3a1.55,1.55,0,0,1-1.15.51,1.27,1.27,0,0,1-1.27-1.23h2.87a.91.91,0,0,0,0-.17,1.72,1.72,0,0,0-1.69-1.91,1.78,1.78,0,0,0-1.73,1.88h0a1.8,1.8,0,0,0,1.8,1.89m-5.89-.09h.54V313a1.06,1.06,0,0,1,1.08-1.13,1,1,0,0,1,1,1.09v2.11h.54v-2.25a1.32,1.32,0,0,0-1.39-1.44,1.35,1.35,0,0,0-1.23.7v-.63h-.54Zm-3.83-2a1.25,1.25,0,0,1,1.18-1.23,1.2,1.2,0,0,1,1.16,1.23Zm1.26,2.1a1.91,1.91,0,0,0,1.5-.68l-.34-.3a1.51,1.51,0,0,1-1.14.51,1.27,1.27,0,0,1-1.28-1.23h2.87a.91.91,0,0,0,0-.17,1.72,1.72,0,0,0-1.69-1.91,1.78,1.78,0,0,0-1.73,1.88h0a1.8,1.8,0,0,0,1.8,1.89m-4.63-.84a1.23,1.23,0,0,1-1.25-1.24h0a1.19,1.19,0,0,1,1.25-1.22,1.26,1.26,0,0,1,1.33,1.23h0a1.28,1.28,0,0,1-1.33,1.23m0,1.89a1.92,1.92,0,0,0,1.38-.49,1.75,1.75,0,0,0,.46-1.28v-3h-.54v.65a1.71,1.71,0,0,0-3.11,1v0a1.67,1.67,0,0,0,1.7,1.69,1.73,1.73,0,0,0,1.42-.76v.43a1.19,1.19,0,0,1-1.32,1.28,2.3,2.3,0,0,1-1.39-.46l-.25.42a2.85,2.85,0,0,0,1.65.51m-6-1.07a1.13,1.13,0,0,0,1.28-1.08v0c0-.65-.6-.87-1.16-1s-.93-.28-.93-.63h0c0-.3.27-.53.7-.53a2.09,2.09,0,0,1,1.07.35l.25-.4a2.42,2.42,0,0,0-1.3-.4,1.1,1.1,0,0,0-1.24,1h0c0,.66.63.86,1.2,1s.9.28.9.64h0c0,.35-.31.58-.75.58a2.14,2.14,0,0,1-1.25-.46l-.27.38a2.47,2.47,0,0,0,1.5.53m-4-.07h.54v-1.44a1.46,1.46,0,0,1,1.44-1.66h0v-.58a1.56,1.56,0,0,0-1.48,1v-.95h-.54Zm-3.82-2a1.25,1.25,0,0,1,1.18-1.23,1.18,1.18,0,0,1,1.15,1.23Zm1.26,2.1a1.87,1.87,0,0,0,1.49-.68l-.33-.3a1.54,1.54,0,0,1-1.14.51,1.27,1.27,0,0,1-1.28-1.23h2.87a.91.91,0,0,0,0-.17,1.72,1.72,0,0,0-1.69-1.91,1.78,1.78,0,0,0-1.73,1.88h0a1.8,1.8,0,0,0,1.8,1.89m-5.89-.09h.54V313a1.06,1.06,0,0,1,1.08-1.13,1,1,0,0,1,1,1.09v2.11h.54v-2.25a1.31,1.31,0,0,0-1.38-1.44,1.35,1.35,0,0,0-1.24.7v-.63h-.54Zm-1.62.06a1.33,1.33,0,0,0,.65-.15v-.46a1.14,1.14,0,0,1-.52.13.54.54,0,0,1-.61-.61v-2.11h1.15v-.48h-1.15v-1.09H162v1.09h-.5v.48h.5v2.18a.92.92,0,0,0,1,1m-4-.06h.53v-1.44A1.46,1.46,0,0,1,161,312h0v-.58a1.56,1.56,0,0,0-1.48,1v-.95H159Zm-2.87-.35c-.5,0-.92-.26-.92-.72h0c0-.46.38-.75,1.06-.75a3.76,3.76,0,0,1,1.07.15v.35a1.09,1.09,0,0,1-1.21,1m-.11.43a1.58,1.58,0,0,0,1.31-.62v.54h.52v-2.21a1.47,1.47,0,0,0-.37-1.06,1.62,1.62,0,0,0-1.17-.4,3,3,0,0,0-1.32.3l.16.45a2.45,2.45,0,0,1,1.1-.27c.68,0,1.08.34,1.08,1V313a3.87,3.87,0,0,0-1.11-.15c-.92,0-1.55.4-1.55,1.17h0a1.22,1.22,0,0,0,1.35,1.13m-3.9-.48a1.35,1.35,0,0,1-1.31-1.4v0a1.35,1.35,0,0,1,1.31-1.39,1.3,1.3,0,0,1,1.28,1.4h0a1.28,1.28,0,0,1-1.28,1.4m-1.83,1.52h.54v-1.81a1.63,1.63,0,0,0,1.39.77,1.77,1.77,0,0,0,1.73-1.88v0a1.76,1.76,0,0,0-1.73-1.87,1.64,1.64,0,0,0-1.39.8v-.73h-.54Zm-4.93-1.12h.54v-1.44a1.46,1.46,0,0,1,1.43-1.66h.05v-.58a1.55,1.55,0,0,0-1.48,1v-.95h-.54Zm-3,.08a1.4,1.4,0,0,0,1.24-.71v.63h.53v-3.62h-.53v2.07a1.07,1.07,0,0,1-1.09,1.14,1,1,0,0,1-1-1.09v-2.12H141v2.25a1.32,1.32,0,0,0,1.39,1.45m-4.19-.48a1.36,1.36,0,0,1-1.34-1.4v0a1.34,1.34,0,0,1,1.33-1.4,1.37,1.37,0,0,1,1.34,1.42h0a1.33,1.33,0,0,1-1.33,1.39m0,.49a1.88,1.88,0,0,0,1.89-1.89v0a1.85,1.85,0,0,0-1.88-1.87,1.87,1.87,0,0,0-1.89,1.89h0a1.86,1.86,0,0,0,1.88,1.88"/><path class="cls-21" d="M241.59,306.16a1.31,1.31,0,0,1-1.28-1.4v0a1.28,1.28,0,0,1,1.28-1.39,1.35,1.35,0,0,1,1.31,1.39v0a1.36,1.36,0,0,1-1.31,1.4m-.1.48a1.63,1.63,0,0,0,1.39-.81v.73h.53v-5.11h-.53v2.19a1.63,1.63,0,0,0-1.39-.77,1.77,1.77,0,0,0-1.73,1.88h0a1.77,1.77,0,0,0,1.73,1.88m-5.83-.08h.54v-2.07a1.06,1.06,0,0,1,1.08-1.13,1,1,0,0,1,1,1.09v2.11h.54v-2.25a1.31,1.31,0,0,0-1.38-1.44,1.37,1.37,0,0,0-1.24.7v-.63h-.54Zm-2.87-.35c-.49,0-.91-.26-.91-.72h0c0-.46.38-.75,1.06-.75a3.68,3.68,0,0,1,1.06.15v.35a1.09,1.09,0,0,1-1.21,1m-.11.43A1.58,1.58,0,0,0,234,306v.54h.52v-2.21a1.43,1.43,0,0,0-.37-1.06,1.62,1.62,0,0,0-1.17-.4,3,3,0,0,0-1.31.3l.16.45a2.42,2.42,0,0,1,1.1-.27.93.93,0,0,1,1.07,1v.12a3.87,3.87,0,0,0-1.11-.15c-.92,0-1.55.4-1.55,1.17h0a1.22,1.22,0,0,0,1.35,1.13m-5.46,0a1.14,1.14,0,0,0,1.29-1.08v0c0-.65-.61-.87-1.17-1s-.93-.28-.93-.63h0c0-.3.28-.53.7-.53a2.09,2.09,0,0,1,1.07.35l.25-.4a2.42,2.42,0,0,0-1.3-.4,1.1,1.1,0,0,0-1.24,1h0c0,.66.63.86,1.2,1s.9.28.9.64h0c0,.35-.31.58-.74.58a2.15,2.15,0,0,1-1.26-.46l-.27.38a2.49,2.49,0,0,0,1.5.53m-3-.07h.54v-5.11h-.54Zm-1.84,0h.54v-5.11h-.54Zm-1.88-4.41h.61v-.59h-.61Zm0,4.41h.53v-3.62h-.53Zm-2.42,0h.53v-3.15h1.14V303h-1.14v-.3c0-.52.21-.77.63-.77a2,2,0,0,1,.52.09v-.46a1.45,1.45,0,0,0-.59-.1,1.08,1.08,0,0,0-.78.28,1.3,1.3,0,0,0-.31.93v.31h-.5v.47h.5Zm-3.24-.4a1.31,1.31,0,0,1-1.27-1.4v0a1.27,1.27,0,0,1,1.27-1.39,1.35,1.35,0,0,1,1.31,1.39v0a1.36,1.36,0,0,1-1.31,1.4m-.1.48a1.61,1.61,0,0,0,1.39-.81v.73h.54v-5.11h-.54v2.19a1.62,1.62,0,0,0-1.39-.77,1.77,1.77,0,0,0-1.73,1.88h0a1.77,1.77,0,0,0,1.73,1.88m-5.83-.08h.54v-2.07a1.06,1.06,0,0,1,1.09-1.13,1,1,0,0,1,1,1.09v2.11h.54v-2.25a1.32,1.32,0,0,0-1.39-1.44,1.38,1.38,0,0,0-1.24.7v-.63H209Zm-2.87-.35c-.49,0-.91-.26-.91-.72h0c0-.46.38-.75,1.06-.75a3.63,3.63,0,0,1,1.06.15v.35a1.09,1.09,0,0,1-1.21,1m-.1.43a1.61,1.61,0,0,0,1.31-.62v.54h.51v-2.21a1.43,1.43,0,0,0-.37-1.06,1.59,1.59,0,0,0-1.17-.4,3,3,0,0,0-1.31.3l.16.45a2.42,2.42,0,0,1,1.1-.27c.68,0,1.08.34,1.08,1v.12a3.94,3.94,0,0,0-1.12-.15c-.91,0-1.54.4-1.54,1.17h0a1.22,1.22,0,0,0,1.35,1.13m-2.87-.08h.54v-5.11h-.54Zm-5-.35c-.49,0-.91-.26-.91-.72h0c0-.46.38-.75,1.06-.75a3.68,3.68,0,0,1,1.06.15v.35a1.09,1.09,0,0,1-1.21,1m-.11.43a1.58,1.58,0,0,0,1.31-.62v.54h.52v-2.21a1.47,1.47,0,0,0-.37-1.06,1.62,1.62,0,0,0-1.17-.4,3,3,0,0,0-1.32.3l.16.45a2.48,2.48,0,0,1,1.1-.27c.68,0,1.08.34,1.08,1v.12a3.87,3.87,0,0,0-1.11-.15c-.92,0-1.55.4-1.55,1.17h0a1.22,1.22,0,0,0,1.35,1.13m-2.87-.08h.54v-5.11h-.54Zm-1.84,0h.54v-5.11h-.54Zm-3.87-2a1.25,1.25,0,0,1,1.18-1.23,1.18,1.18,0,0,1,1.15,1.23Zm1.26,2.1a1.87,1.87,0,0,0,1.49-.68l-.33-.3a1.54,1.54,0,0,1-1.14.51,1.27,1.27,0,0,1-1.28-1.23h2.87a.91.91,0,0,0,0-.17,1.72,1.72,0,0,0-1.69-1.91,1.78,1.78,0,0,0-1.73,1.88h0a1.8,1.8,0,0,0,1.8,1.89m-3.87,0a1.14,1.14,0,0,0,1.29-1.08v0c0-.65-.6-.87-1.16-1s-.93-.28-.93-.63h0c0-.3.27-.53.7-.53a2.12,2.12,0,0,1,1.07.35l.24-.4a2.42,2.42,0,0,0-1.3-.4,1.09,1.09,0,0,0-1.23,1h0c0,.66.63.86,1.19,1s.91.28.91.64h0c0,.35-.32.58-.75.58a2.12,2.12,0,0,1-1.25-.46l-.28.38a2.49,2.49,0,0,0,1.5.53m-4.07-.42c-.49,0-.91-.26-.91-.72h0c0-.46.38-.75,1.06-.75a3.63,3.63,0,0,1,1.06.15v.35a1.09,1.09,0,0,1-1.21,1m-.1.43a1.58,1.58,0,0,0,1.31-.62v.54h.52v-2.21a1.43,1.43,0,0,0-.38-1.06,1.58,1.58,0,0,0-1.16-.4,3,3,0,0,0-1.32.3l.16.45a2.45,2.45,0,0,1,1.1-.27c.68,0,1.08.34,1.08,1v.12a3.89,3.89,0,0,0-1.12-.15c-.91,0-1.54.4-1.54,1.17h0a1.22,1.22,0,0,0,1.35,1.13m-3.91,0a2.61,2.61,0,0,0,2-.86l-.37-.36a2.12,2.12,0,0,1-1.58.71,1.94,1.94,0,0,1-1.9-2h0a1.92,1.92,0,0,1,1.9-2,2.14,2.14,0,0,1,1.54.67l.38-.41a2.55,2.55,0,0,0-1.91-.77,2.47,2.47,0,0,0-2.48,2.53v0a2.45,2.45,0,0,0,2.46,2.52m-6.35.77a.86.86,0,0,0,.78-1v-.63h-.64v.73h.25c0,.3-.12.48-.47.61Zm-2-.86h.53v-1.44a1.46,1.46,0,0,1,1.44-1.66h0v-.58a1.56,1.56,0,0,0-1.48,1v-.95h-.53Zm-2.88-.35c-.49,0-.91-.26-.91-.72h0c0-.46.38-.75,1.06-.75a3.76,3.76,0,0,1,1.07.15v.35a1.1,1.1,0,0,1-1.22,1m-.1.43a1.58,1.58,0,0,0,1.31-.62v.54h.52v-2.21a1.47,1.47,0,0,0-.37-1.06,1.62,1.62,0,0,0-1.17-.4,3,3,0,0,0-1.32.3l.16.45a2.45,2.45,0,0,1,1.1-.27c.68,0,1.08.34,1.08,1v.12a3.87,3.87,0,0,0-1.11-.15c-.92,0-1.55.4-1.55,1.17h0a1.22,1.22,0,0,0,1.35,1.13m-4.9-2.09a1.25,1.25,0,0,1,1.18-1.23,1.18,1.18,0,0,1,1.15,1.23Zm1.26,2.1a1.87,1.87,0,0,0,1.49-.68l-.33-.3a1.55,1.55,0,0,1-1.15.51,1.27,1.27,0,0,1-1.27-1.23h2.87a.91.91,0,0,0,0-.17,1.72,1.72,0,0,0-1.69-1.91,1.79,1.79,0,0,0-1.74,1.88h0a1.81,1.81,0,0,0,1.81,1.89m-4-.69-1.32-3h-.59l1.64,3.61c-.22.51-.42.68-.74.68a1.07,1.07,0,0,1-.57-.14l-.18.43a1.65,1.65,0,0,0,.77.18c.55,0,.9-.27,1.2-1l1.52-3.74H161Zm-6.24,0-1.31-3h-.6l1.65,3.61c-.22.51-.42.68-.75.68a1,1,0,0,1-.56-.14l-.19.43a1.65,1.65,0,0,0,.77.18c.55,0,.9-.27,1.21-1l1.52-3.74h-.58Zm-4.38.6h.54v-1.44a1.46,1.46,0,0,1,1.43-1.66h0v-.58a1.54,1.54,0,0,0-1.47,1v-.95h-.54Zm-3.82-2a1.25,1.25,0,0,1,1.17-1.23,1.2,1.2,0,0,1,1.16,1.23Zm1.26,2.1a1.9,1.9,0,0,0,1.49-.68l-.34-.3a1.51,1.51,0,0,1-1.14.51,1.26,1.26,0,0,1-1.27-1.23h2.87v-.17a1.72,1.72,0,0,0-1.68-1.91,1.79,1.79,0,0,0-1.74,1.88h0a1.8,1.8,0,0,0,1.81,1.89m-4.27-.06h.47l1.58-3.65h-.58l-1.23,3-1.22-3h-.59Zm-5.74,0h3.57v-.5h-3v-1.72h2.67v-.5h-2.67v-1.67h3v-.51H136.6Z"/><path class="cls-22" d="M128.7,308.75a4.59,4.59,0,1,0-4.59-4.59,4.59,4.59,0,0,0,4.59,4.59"/><path class="cls-23" d="M128.6,307.22c1.17,0,2-.65,2-1.71h0a1.47,1.47,0,0,0-1.33-1.45l1.25-1.1v-1h-3.6v1.13h1.87l-1.18,1.09.16.75h.41c.67,0,1,.21,1,.58h0c0,.34-.27.55-.69.55a1.7,1.7,0,0,1-1.14-.47l-.77.94a2.86,2.86,0,0,0,2,.71"/></g></g></svg>