<svg xmlns="http://www.w3.org/2000/svg" xmlns:xlink="http://www.w3.org/1999/xlink" viewBox="0 0 453.85 300.1"><defs><style>.cls-1,.cls-11,.cls-12,.cls-13,.cls-20,.cls-21,.cls-22,.cls-27,.cls-28,.cls-29,.cls-5,.cls-8,.cls-9{fill:none;}.cls-10,.cls-2{fill:#00263e;}.cls-3{fill:#ffe800;}.cls-4{fill:#4c9c2e;}.cls-11,.cls-12,.cls-13,.cls-20,.cls-21,.cls-22,.cls-5,.cls-8,.cls-9{stroke:#00263e;}.cls-11,.cls-21,.cls-5,.cls-8{stroke-miterlimit:10;}.cls-5{stroke-width:1.62px;}.cls-6{clip-path:url(#clip-path);}.cls-14,.cls-7{fill:#fff;}.cls-8{stroke-width:1.6px;}.cls-12,.cls-13,.cls-20,.cls-22,.cls-27,.cls-28,.cls-29,.cls-9{stroke-linecap:round;stroke-linejoin:round;}.cls-9{stroke-width:4.25px;}.cls-10{font-size:19.72px;font-family:Gotham-Black, Gotham;font-weight:800;}.cls-11{stroke-width:2.16px;}.cls-12,.cls-13,.cls-20,.cls-22{stroke-width:1.22px;}.cls-12{stroke-dasharray:0 2.5;}.cls-14{font-size:5.76px;font-family:Gotham-Book, Gotham;}.cls-15{letter-spacing:-0.01em;}.cls-16{letter-spacing:-0.01em;}.cls-17{letter-spacing:-0.01em;}.cls-18{letter-spacing:-0.02em;}.cls-19{letter-spacing:-0.01em;}.cls-20{stroke-dasharray:0 2.45;}.cls-21{stroke-width:0.41px;}.cls-22{stroke-dasharray:0 2.36;}.cls-23{letter-spacing:-0.03em;}.cls-24{letter-spacing:0em;}.cls-25{letter-spacing:-0.02em;}.cls-26{letter-spacing:0em;}.cls-27,.cls-28,.cls-29{stroke:#4b3d2c;stroke-width:1.08px;}.cls-27{stroke-dasharray:0 2.15;}.cls-29{stroke-dasharray:0 2.13;}.cls-30{fill:#4b3d2a;}.cls-31{fill:#e1e1e2;}.cls-32{fill:#fdce07;}.cls-33{fill:#00263d;}.cls-34{fill:#e02926;}</style><clipPath id="clip-path"><rect class="cls-1" x="26.24" y="55.35" width="24.37" height="7.14"/></clipPath></defs><title>Asset 2</title><g id="Layer_2" data-name="Layer 2"><g id="Layer_1-2" data-name="Layer 1"><path class="cls-2" d="M3.6,3.1H.1V.64H9.64V3.1H6.14v9.65H3.6Z"/><path class="cls-2" d="M11.07.12h2.49V4.79a3.09,3.09,0,0,1,2.58-1.48c1.89,0,3,1.31,3,3.44v6h-2.5V7.58c0-1.25-.56-1.89-1.51-1.89s-1.57.64-1.57,1.89v5.17H11.07Z"/><path class="cls-2" d="M20.73,8.17v0c0-2.64,1.79-4.82,4.35-4.82,3,0,4.29,2.4,4.29,5,0,.21,0,.45,0,.69H23.21a2.07,2.07,0,0,0,2.15,1.82A2.84,2.84,0,0,0,27.5,9.9l1.43,1.33A4.32,4.32,0,0,1,25.33,13,4.53,4.53,0,0,1,20.73,8.17Zm6.21-.78c-.15-1.18-.8-2-1.86-2s-1.7.78-1.9,2Z"/><path class="cls-2" d="M36.13.64h5.34a4,4,0,0,1,3,1.07,2.89,2.89,0,0,1,.79,2.06v0a2.82,2.82,0,0,1-1.52,2.61,2.94,2.94,0,0,1,2.16,3v0c0,2.22-1.71,3.32-4.31,3.32H36.13Zm6.62,3.58c0-.79-.59-1.24-1.66-1.24h-2.5V5.54h2.34c1.12,0,1.82-.38,1.82-1.28ZM41.52,7.75H38.59v2.67h3c1.12,0,1.79-.42,1.79-1.32v0C43.39,8.25,42.82,7.75,41.52,7.75Z"/><path class="cls-2" d="M47.06,10.09v0c0-2,1.46-3,3.55-3a5.82,5.82,0,0,1,2.15.39V7.32c0-1.09-.64-1.7-1.89-1.7a6,6,0,0,0-2.43.51l-.63-2a7.46,7.46,0,0,1,3.42-.75,4,4,0,0,1,3,1,4.22,4.22,0,0,1,.95,3v5.38H52.74v-1a3.29,3.29,0,0,1-2.66,1.18A2.78,2.78,0,0,1,47.06,10.09Zm5.73-.61V9a3.62,3.62,0,0,0-1.59-.35c-1.07,0-1.73.45-1.73,1.28v0c0,.71.56,1.13,1.37,1.13A1.73,1.73,0,0,0,52.79,9.48Z"/><path class="cls-2" d="M56.48,11.52l1.06-1.73a4.84,4.84,0,0,0,2.78,1.11c.72,0,1-.28,1-.69v0c0-.57-.85-.76-1.82-1.07-1.23-.38-2.63-1-2.63-2.78v0a2.94,2.94,0,0,1,3.22-2.94,5.94,5.94,0,0,1,3.29,1.07l-1,1.82a5,5,0,0,0-2.38-.87c-.61,0-.92.28-.92.64V6c0,.52.84.76,1.79,1.11,1.23.43,2.66,1,2.66,2.75v0c0,2.06-1.46,3-3.36,3A6,6,0,0,1,56.48,11.52Z"/><path class="cls-2" d="M65.3.12h2.63V2.46H65.3Zm.07,3.36h2.49v9.27H65.37Z"/><path class="cls-2" d="M69.64,8.17v0a4.64,4.64,0,0,1,4.62-4.82,4.21,4.21,0,0,1,3.51,1.55L76.25,6.59a2.54,2.54,0,0,0-2-1A2.33,2.33,0,0,0,72.1,8.1v0a2.33,2.33,0,0,0,2.24,2.56,2.74,2.74,0,0,0,2-1l1.46,1.55A4.33,4.33,0,0,1,74.23,13,4.62,4.62,0,0,1,69.64,8.17Z"/><path class="cls-2" d="M78.6,11.52l1.06-1.73a4.84,4.84,0,0,0,2.78,1.11c.72,0,1-.28,1-.69v0c0-.57-.85-.76-1.82-1.07C80.44,8.72,79,8.12,79,6.32v0a2.94,2.94,0,0,1,3.22-2.94,5.91,5.91,0,0,1,3.29,1.07l-1,1.82a5.08,5.08,0,0,0-2.39-.87c-.61,0-.92.28-.92.64V6c0,.52.84.76,1.79,1.11,1.24.43,2.67,1,2.67,2.75v0c0,2.06-1.47,3-3.37,3A6,6,0,0,1,78.6,11.52Z"/><path class="cls-2" d="M91.73,8.17v0a4.74,4.74,0,0,1,4.78-4.82,4.69,4.69,0,0,1,4.75,4.79v0a4.77,4.77,0,1,1-9.53,0Zm7.06,0v0a2.41,2.41,0,0,0-2.31-2.56A2.33,2.33,0,0,0,94.19,8.1v0a2.41,2.41,0,0,0,2.32,2.56A2.32,2.32,0,0,0,98.79,8.17Z"/><path class="cls-2" d="M103.35,5.73h-1V3.56h1V3a3.16,3.16,0,0,1,.7-2.25,2.65,2.65,0,0,1,2-.73,5.17,5.17,0,0,1,1.77.26V2.44a3,3,0,0,0-1.13-.23c-.58,0-.91.32-.91,1v.36h2V5.73h-2v7h-2.5Z"/><path class="cls-2" d="M118,.55h2.33l4.93,12.2h-2.64l-1-2.71h-4.87l-1,2.71h-2.58Zm2.66,7.13-1.53-3.93-1.52,3.93Z"/><path class="cls-2" d="M126.65,3.48h2.5V4.79a3.06,3.06,0,0,1,2.58-1.48c1.89,0,3,1.31,3,3.44v6h-2.5V7.58c0-1.25-.56-1.89-1.51-1.89s-1.56.64-1.56,1.89v5.17h-2.5Z"/><path class="cls-2" d="M136.22,10.09v0c0-2,1.46-3,3.55-3a5.9,5.9,0,0,1,2.15.39V7.32c0-1.09-.64-1.7-1.89-1.7a6,6,0,0,0-2.43.51l-.63-2a7.46,7.46,0,0,1,3.42-.75,4,4,0,0,1,3,1,4.22,4.22,0,0,1,.95,3v5.38H141.9v-1a3.3,3.3,0,0,1-2.66,1.18A2.78,2.78,0,0,1,136.22,10.09ZM142,9.48V9a3.66,3.66,0,0,0-1.59-.35c-1.07,0-1.73.45-1.73,1.28v0c0,.71.56,1.13,1.37,1.13A1.73,1.73,0,0,0,142,9.48Z"/><path class="cls-2" d="M145.88,8.17v0c0-2.64,1.79-4.82,4.36-4.82,2.94,0,4.28,2.4,4.28,5,0,.21,0,.45,0,.69h-6.13a2.08,2.08,0,0,0,2.16,1.82,2.83,2.83,0,0,0,2.13-.95l1.43,1.33a4.32,4.32,0,0,1-3.6,1.73A4.53,4.53,0,0,1,145.88,8.17Zm6.21-.78c-.15-1.18-.8-2-1.85-2s-1.71.78-1.91,2Z"/><path class="cls-2" d="M156.23,3.48h2.5V5.35a2.73,2.73,0,0,1,2.81-2V6.06h-.13c-1.66,0-2.68,1.05-2.68,3.27v3.42h-2.5Z"/><path class="cls-2" d="M162.28,8.17v0a4.74,4.74,0,0,1,4.78-4.82,4.69,4.69,0,0,1,4.75,4.79v0a4.77,4.77,0,1,1-9.53,0Zm7.07,0v0A2.42,2.42,0,0,0,167,5.57a2.32,2.32,0,0,0-2.28,2.53v0a2.4,2.4,0,0,0,2.31,2.56A2.33,2.33,0,0,0,169.35,8.17Z"/><path class="cls-2" d="M176,11.54v1.21h-2.5V.12H176V4.81a3.21,3.21,0,0,1,2.75-1.5c2.05,0,4,1.69,4,4.79v0c0,3.1-1.93,4.8-4,4.8A3.33,3.33,0,0,1,176,11.54Zm4.26-3.41v0a2.18,2.18,0,1,0-4.29,0v0a2.18,2.18,0,1,0,4.29,0Z"/><path class="cls-2" d="M184.47.12h2.63V2.46h-2.63Zm.06,3.36H187v9.27h-2.5Z"/><path class="cls-2" d="M188.81,8.17v0a4.64,4.64,0,0,1,4.62-4.82,4.21,4.21,0,0,1,3.51,1.55l-1.53,1.73a2.51,2.51,0,0,0-2-1,2.33,2.33,0,0,0-2.14,2.53v0a2.33,2.33,0,0,0,2.24,2.56,2.74,2.74,0,0,0,2-1L197,11.26a4.34,4.34,0,0,1-3.6,1.7A4.62,4.62,0,0,1,188.81,8.17Z"/><path class="cls-2" d="M203.5.64H208a5.87,5.87,0,0,1,6.11,6v0A5.9,5.9,0,0,1,208,12.75H203.5ZM206,3.05v7.3h2a3.36,3.36,0,0,0,3.46-3.62v0A3.39,3.39,0,0,0,208,3.05Z"/><path class="cls-2" d="M216,.12h2.63V2.46H216ZM216,3.48h2.5v9.27H216Z"/><path class="cls-2" d="M220.79,14.59l.85-2a5.53,5.53,0,0,0,3,.85,2.22,2.22,0,0,0,2.51-2.52v-.45a3.39,3.39,0,0,1-2.87,1.5,4,4,0,0,1-3.91-4.32v0a4,4,0,0,1,3.91-4.32,3.49,3.49,0,0,1,2.84,1.38V3.48h2.5v7.18a5.14,5.14,0,0,1-1.12,3.65,5,5,0,0,1-3.8,1.25A8,8,0,0,1,220.79,14.59Zm6.34-6.92v0a2.15,2.15,0,0,0-4.29,0v0a2.15,2.15,0,0,0,4.29,0Z"/><path class="cls-2" d="M231.26,8.17v0c0-2.64,1.79-4.82,4.35-4.82,2.95,0,4.29,2.4,4.29,5,0,.21,0,.45,0,.69h-6.13a2.07,2.07,0,0,0,2.15,1.82A2.84,2.84,0,0,0,238,9.9l1.43,1.33a4.33,4.33,0,0,1-3.6,1.73A4.52,4.52,0,0,1,231.26,8.17Zm6.21-.78c-.15-1.18-.81-2-1.86-2s-1.71.78-1.9,2Z"/><path class="cls-2" d="M240.92,11.52,242,9.79a4.82,4.82,0,0,0,2.78,1.11c.72,0,1-.28,1-.69v0c0-.57-.86-.76-1.82-1.07-1.24-.38-2.63-1-2.63-2.78v0a2.93,2.93,0,0,1,3.22-2.94,5.88,5.88,0,0,1,3.28,1.07l-1,1.82a5,5,0,0,0-2.38-.87c-.61,0-.92.28-.92.64V6c0,.52.84.76,1.79,1.11,1.23.43,2.66,1,2.66,2.75v0c0,2.06-1.46,3-3.37,3A6,6,0,0,1,240.92,11.52Z"/><path class="cls-2" d="M250,10.12V5.73h-1.05V3.48H250V1.11h2.5V3.48h2.07V5.73h-2.07v4c0,.61.25.9.8.9a2.41,2.41,0,0,0,1.24-.33v2.11a3.55,3.55,0,0,1-2,.54C251,12.91,250,12.27,250,10.12Z"/><path class="cls-2" d="M256.27.12h2.63V2.46h-2.63Zm.07,3.36h2.5v9.27h-2.5Z"/><path class="cls-2" d="M260.61,8.17v0a4.74,4.74,0,0,1,4.78-4.82,4.69,4.69,0,0,1,4.75,4.79v0a4.77,4.77,0,1,1-9.53,0Zm7.07,0v0a2.42,2.42,0,0,0-2.32-2.56,2.32,2.32,0,0,0-2.28,2.53v0a2.4,2.4,0,0,0,2.31,2.56A2.33,2.33,0,0,0,267.68,8.17Z"/><path class="cls-2" d="M271.8,3.48h2.5V4.79a3.09,3.09,0,0,1,2.58-1.48c1.89,0,3,1.31,3,3.44v6h-2.5V7.58c0-1.25-.55-1.89-1.51-1.89s-1.56.64-1.56,1.89v5.17h-2.5Z"/><path class="cls-3" d="M348.78,135.18V81c0-23.4,17.33-42.37,38.7-42.37h3.57c21.37,0,38.69,19,38.69,42.37v54.2Z"/><rect class="cls-4" x="348.78" y="77.04" width="80.96" height="58.14"/><line class="cls-5" x1="348.78" y1="77.03" x2="429.74" y2="77.03"/><path class="cls-2" d="M90.56,77.72v-23c0-9.93,38.93-9.93,38.93,0v23Z"/><path class="cls-2" d="M44.59,50.5a.53.53,0,0,1-.15-.38.41.41,0,0,1,.36-.46H52a.41.41,0,0,1,.36.46.53.53,0,0,1-.15.38h4.49a8.39,8.39,0,0,1,0,16.77H19.45a8.39,8.39,0,0,1,0-16.77h3.48a.5.5,0,0,1-.16-.38.41.41,0,0,1,.36-.46h7.19a.41.41,0,0,1,.36.46.53.53,0,0,1-.16.38Z"/><path class="cls-2" d="M62.82,69.53v4.11a1,1,0,0,1-1,1H52.56a1,1,0,0,1-1-1V69.53a1,1,0,0,1,1-1h9.23a1,1,0,0,1,1,1"/><path class="cls-2" d="M50.51,73.64H46.39c0-.17,0-.34,0-.52A5.64,5.64,0,0,0,44,68.51h6.5Z"/><path class="cls-2" d="M17.77,68.51h6.51a5.64,5.64,0,0,0-2.4,4.61,4.43,4.43,0,0,0,0,.52H17.77Z"/><path class="cls-2" d="M30.75,68.51h6.78a5.64,5.64,0,0,0-2.32,3.74v1.39H33.08V72.25a5.62,5.62,0,0,0-2.33-3.74"/><path class="cls-2" d="M38.21,73.12a2.56,2.56,0,1,1,2.56,2.57,2.56,2.56,0,0,1-2.56-2.57m-2.05,0a4.61,4.61,0,1,0,4.61-4.61,4.62,4.62,0,0,0-4.61,4.61"/><path class="cls-2" d="M25,73.12a2.57,2.57,0,1,1,2.57,2.57A2.57,2.57,0,0,1,25,73.12m-2.05,0a4.62,4.62,0,1,0,4.62-4.61,4.62,4.62,0,0,0-4.62,4.61"/><path class="cls-2" d="M68,73.12a2.56,2.56,0,1,1,2.56,2.57A2.56,2.56,0,0,1,68,73.12m-2.06,0a4.62,4.62,0,1,0,4.62-4.61,4.63,4.63,0,0,0-4.62,4.61"/><path class="cls-2" d="M70,54.15h7.17l2.06,7.18H70Zm0,9.23h1v2.05H70Zm-6.16,5.13v5.13h1v-.52a5.64,5.64,0,0,1,11.28,0v.52h3.59a.51.51,0,0,0,.51-.52V62.36a7.71,7.71,0,0,0-.3-2.09L77.76,52.6a.67.67,0,0,0-.65-.5H66.41a.51.51,0,0,0-.52.51v15.9Z"/><g class="cls-6"><path class="cls-7" d="M50.12,61.08l-.43.84H26.75a.51.51,0,0,1-.51-.5V55.86a.51.51,0,0,1,.51-.51H42.13v.84H27.45a.38.38,0,0,0-.37.38v4.14a.38.38,0,0,0,.37.37ZM41,57.78c-.42,0-.41.35-.41.35h.83a.43.43,0,0,0-.42-.35m-3.49,1.13H36a.76.76,0,0,1-.38-.11.64.64,0,0,1-.26-.29v.63H36.8a.66.66,0,0,0,.54.25c.26,0,.38-.11.38-.26s-.23-.22-.23-.22m-.16-1.19c-.27,0-.41.08-.41.24s.27.2.27.2h1.07a1,1,0,0,1,.47.09.84.84,0,0,1,.34.31v-.63H37.76s0-.21-.43-.21m-3.79,0a.57.57,0,0,0-.47.21H31.64v.36H30.16V58a.36.36,0,0,0-.36-.25.35.35,0,0,0-.36.23v1.18a.33.33,0,0,0,.36.24c.32,0,.36-.23.36-.23v-.53h1.52a1.1,1.1,0,0,1,.16-.29.62.62,0,0,1,.25-.14h1.68s.19,0,.19-.23-.19-.23-.42-.23m9.29,2h0M33.7,59a.69.69,0,0,1-.27,0c-.19,0-.29.07-.29.18s.16.19.32.19a.4.4,0,0,0,.35-.21.38.38,0,0,0,.07-.34c0,.07-.08.15-.18.19m16.91,1.11-.43.84H47.63v-.18h-.1l-.12.18H45.73l-.1-.22H45.5l-.13.22H44v-.16H43.9l-.12.16H42.36v-.33h-.07l-.23.33H38.93s-.1,0-.23-.15-.11-.2-.11-.2H38.5a.6.6,0,0,1-.1.2.35.35,0,0,1-.2.15H35.41a.33.33,0,0,1-.17-.1.69.69,0,0,1-.11-.18.54.54,0,0,1-.09.18c-.09.11-.17.1-.17.1H33.38v-.29h-.06a.72.72,0,0,1-.1.17A.27.27,0,0,1,33,61H31.51s-.1,0-.23-.15-.12-.21-.12-.21h-.08a.54.54,0,0,1-.1.21.32.32,0,0,1-.24.16H27.55a.36.36,0,0,1-.36-.35v-4a.36.36,0,0,1,.35-.36h3.7a.54.54,0,0,1,.25.08l.15.16h.06a.4.4,0,0,1,.14-.16.47.47,0,0,1,.22-.08H35a.44.44,0,0,1,.23.09.52.52,0,0,1,.13.16h.09a.38.38,0,0,1,.13-.16.43.43,0,0,1,.21-.09h2.86a.52.52,0,0,1,.24.09.65.65,0,0,1,.18.17h.05a.44.44,0,0,1,.16-.18.86.86,0,0,1,.25-.08h2.74v-.95H46.5v.95h2.78a.9.9,0,0,1,.9.9v1.95a1.3,1.3,0,0,0,.43,1M44.29,56H42.84v1.39a.79.79,0,0,0-.18-.3.56.56,0,0,0-.32-.15H39.59a.52.52,0,0,0-.31.14.38.38,0,0,0-.16.23H39a.89.89,0,0,0-.18-.22.61.61,0,0,0-.38-.15H35.81a.46.46,0,0,0-.23.12.67.67,0,0,0-.15.23h-.07a.52.52,0,0,0-.15-.23.58.58,0,0,0-.32-.12H32.08a.53.53,0,0,0-.29.1.45.45,0,0,0-.12.22.56.56,0,0,0-.14-.21.65.65,0,0,0-.32-.11H28a.26.26,0,0,0-.26.26v2.72a.26.26,0,0,0,.26.26h3.21A.64.64,0,0,0,31.5,60a.54.54,0,0,0,.14-.24.56.56,0,0,0,.15.26.52.52,0,0,0,.24.15H33.6a.55.55,0,0,0,.17-.1.91.91,0,0,0,.12-.17v.27h1.56v-.28a.56.56,0,0,0,.13.18.68.68,0,0,0,.18.1h2.82A.83.83,0,0,0,38.9,60a.53.53,0,0,0,.12-.26h.08a.47.47,0,0,0,.12.26.45.45,0,0,0,.3.15h2.84a.59.59,0,0,0,.29-.12.53.53,0,0,0,.18-.27c0,.06,0,.39,0,.39h1.47Zm5.54,4.18a.61.61,0,0,1-.25-.49V57.5a.6.6,0,0,0-.6-.61H46.37a1.27,1.27,0,0,0-.3.17.68.68,0,0,0-.17.25V56H44.44v4.18h1.42v-.42h.07a.72.72,0,0,0,.18.3.47.47,0,0,0,.32.12h1.3a.32.32,0,0,0,.23-.06.55.55,0,0,0,.14-.15v.21Zm-8.78-.77a.4.4,0,0,0,.41-.28h1.42v-.18H40.58a.49.49,0,0,0,.47.44m6.69-1.58a.63.63,0,0,0-.42.19H45.88v.79a1.06,1.06,0,0,1,.23-.39.94.94,0,0,1,.36-.16h1.44s.27.1.26-.21c0-.15-.15-.22-.43-.23M48,59a.78.78,0,0,1-.27,0c-.19,0-.29.07-.29.18s.16.19.33.19a.41.41,0,0,0,.35-.21.42.42,0,0,0,.07-.34c0,.07-.09.15-.19.18"/><path class="cls-7" d="M27.45,62.75H28a.51.51,0,0,1,.37.12.39.39,0,0,1,.11.28h0a.39.39,0,0,1-.3.39l.34.48h-.27L28,63.58h-.28V64h-.23Zm.56.63c.16,0,.26-.09.26-.22h0c0-.14-.1-.21-.26-.21h-.33v.43Z"/><polygon class="cls-7" points="28.77 62.74 29.72 62.74 29.72 62.95 29 62.95 29 63.28 29.64 63.28 29.64 63.48 29 63.48 29 63.82 29.73 63.82 29.73 64.02 28.77 64.02 28.77 62.74"/><path class="cls-7" d="M29.91,63.84l.14-.16a.59.59,0,0,0,.4.16c.14,0,.23-.06.23-.16h0c0-.09-.05-.14-.29-.2S30,63.34,30,63.1h0a.4.4,0,0,1,.44-.37.66.66,0,0,1,.46.16l-.12.17a.54.54,0,0,0-.34-.13c-.14,0-.21.06-.21.15h0c0,.1.06.14.3.2s.41.16.41.38h0c0,.24-.19.38-.46.38a.81.81,0,0,1-.53-.2"/><path class="cls-7" d="M31.11,63.39h0a.67.67,0,0,1,1.34,0h0a.66.66,0,0,1-.67.66.64.64,0,0,1-.67-.65m1.1,0h0a.44.44,0,0,0-.43-.45.43.43,0,0,0-.43.45h0a.44.44,0,0,0,.43.46.43.43,0,0,0,.43-.45"/><path class="cls-7" d="M32.7,63.48v-.74h.22v.73c0,.24.12.36.33.36s.32-.11.32-.35v-.74h.22v.73a.51.51,0,0,1-.55.57.5.5,0,0,1-.54-.56"/><path class="cls-7" d="M34.1,62.75h.57a.51.51,0,0,1,.37.12.39.39,0,0,1,.1.28h0a.38.38,0,0,1-.3.39l.35.48h-.27l-.31-.44h-.29V64H34.1Zm.55.63c.16,0,.27-.09.27-.22h0c0-.14-.1-.21-.27-.21h-.33v.43Z"/><path class="cls-7" d="M35.36,63.39h0a.65.65,0,0,1,.66-.66.68.68,0,0,1,.5.2l-.14.17a.48.48,0,0,0-.36-.16.43.43,0,0,0-.42.45h0a.44.44,0,0,0,.42.46.52.52,0,0,0,.37-.17l.14.15a.67.67,0,0,1-1.17-.43"/><polygon class="cls-7" points="36.77 62.74 37.72 62.74 37.72 62.95 36.99 62.95 36.99 63.28 37.63 63.28 37.63 63.48 36.99 63.48 36.99 63.82 37.72 63.82 37.72 64.02 36.77 64.02 36.77 62.74"/><path class="cls-7" d="M38.45,63.84l.14-.16a.59.59,0,0,0,.4.16c.14,0,.23-.06.23-.16h0c0-.09,0-.14-.29-.2s-.43-.14-.43-.38h0a.4.4,0,0,1,.44-.37.66.66,0,0,1,.46.16l-.12.17a.54.54,0,0,0-.34-.13c-.14,0-.21.06-.21.15h0c0,.1.06.14.3.2s.41.16.41.38h0c0,.24-.19.38-.45.38a.84.84,0,0,1-.54-.2"/><path class="cls-7" d="M39.65,63.39h0a.67.67,0,0,1,1.34,0h0a.66.66,0,0,1-.67.66.64.64,0,0,1-.67-.65m1.1,0h0a.44.44,0,0,0-.43-.45.43.43,0,0,0-.43.45h0a.44.44,0,0,0,.43.46.43.43,0,0,0,.43-.45"/><polygon class="cls-7" points="41.26 62.74 41.48 62.74 41.48 63.82 42.16 63.82 42.16 64.02 41.26 64.02 41.26 62.74"/><path class="cls-7" d="M42.33,63.48v-.74h.23v.73c0,.24.12.36.32.36s.32-.11.32-.35v-.74h.23v.73a.51.51,0,0,1-.55.57.5.5,0,0,1-.55-.56"/><polygon class="cls-7" points="44.05 62.95 43.64 62.95 43.64 62.74 44.68 62.74 44.68 62.95 44.27 62.95 44.27 64.02 44.05 64.02 44.05 62.95"/><rect class="cls-7" x="44.93" y="62.74" width="0.23" height="1.28"/><path class="cls-7" d="M45.44,63.39h0a.67.67,0,0,1,1.34,0h0a.66.66,0,0,1-.67.66.64.64,0,0,1-.67-.65m1.1,0h0a.44.44,0,0,0-.43-.45.43.43,0,0,0-.43.45h0a.44.44,0,0,0,.43.46.43.43,0,0,0,.43-.45"/><polygon class="cls-7" points="47.05 62.74 47.26 62.74 47.94 63.63 47.94 62.74 48.16 62.74 48.16 64.02 47.97 64.02 47.27 63.11 47.27 64.02 47.05 64.02 47.05 62.74"/><path class="cls-7" d="M48.4,63.84l.14-.16a.61.61,0,0,0,.4.16c.14,0,.23-.06.23-.16h0c0-.09-.05-.14-.29-.2s-.42-.14-.42-.38h0a.39.39,0,0,1,.43-.37.69.69,0,0,1,.47.16l-.12.17a.56.56,0,0,0-.35-.13c-.13,0-.21.06-.21.15h0c0,.1.06.14.31.2s.4.16.4.38h0c0,.24-.18.38-.45.38a.84.84,0,0,1-.54-.2"/></g><path class="cls-8" d="M12.38,60.53C1.77,60.66-1.2,84.17,18,84.17c17.87,0,39.87.52,51.6.54,29.07.05,11.07-15,21.59-14.61"/><path class="cls-2" d="M90.56,135.89v-23c0-9.93,38.93-9.93,38.93,0v23Z"/><path class="cls-2" d="M40.76,135.15V117.54l5.85-10.33,10-5.65,10,5.65,5.81,10.33v17.61H83.9m-36.31,0h3.15l5.88-5.42,5.88,5.42h3.17V120.66H47.59Zm78.82,0h5v2.31h-120v-2.31M62.76,122.1H50.48l6.14,5.66ZM49,122.73v12l6.52-6Zm-12.18-4.3a1.15,1.15,0,0,0,1.58-.43l6.74-11.82,11.48-6.47,11.48,6.47L74.82,118a1.16,1.16,0,0,0,1.58.44,1.16,1.16,0,0,0,.43-1.58L70,104.76a1.16,1.16,0,0,0-.44-.44L57.22,97.38a1.16,1.16,0,0,0-1.14,0l-12.32,6.94a1,1,0,0,0-.44.44l-6.9,12.1a1.15,1.15,0,0,0,.43,1.57m20.84,10.32,6.53-6v12.05Z"/><path class="cls-2" d="M21,135.19h7.15c.65-1.1,1.75-1.75,1.78-3.47-.75.08-.69-1.35-1.47-1.58a9.54,9.54,0,0,1-4,.67,3.68,3.68,0,0,0-2.6-.22c-.44,1.29.08,2.3-.23,3.84a5.29,5.29,0,0,0-.67.76m9.27-.87a1.75,1.75,0,0,1-1,.87h3.89a2.27,2.27,0,0,0,.69-1.1c-.33-.84-1.51-1.5-.79-2.71-.21-.39-.43-.78-.91-.9-.45.22-.15,1.2-.9,1.13.4,1.2-1.15,1.75-1,2.71m-10.91.87A2.45,2.45,0,0,0,19.9,133c.07-.49.4-1.2.11-1.69a3.83,3.83,0,0,1-1.36-.23c-.14-1.06-.92-1.49-1.7-1.92-.45-.87-.68-2-1.47-2.49-1,.25-2.64.88-3.62.45-.08-1.33,1-1.83.57-3.17-.47-.17-1-.24-1.13-.79s.37-.45.79-.45a1.68,1.68,0,0,1,0-1.13c.69,1.08,2.5.35,3.62,1,.39-.14.25-.81.79-.79,0,.37.19.56.11,1a27.08,27.08,0,0,0,4.42-.22,36.47,36.47,0,0,0,8.25.45c2.14-.1,4.39-.42,5.55.9.72,2.34-1.57,5.5.45,7.24-.25,1.3,0,3.06-.58,4"/><line class="cls-9" x1="2.12" y1="137.46" x2="451.73" y2="137.46"/><text class="cls-10" transform="translate(104.13 99.11)">+</text><path class="cls-8" d="M128.6,67.35c3.89,0,12.52-1.22,13,3.19s-9.5,23.3,3.46,23.3"/><path class="cls-8" d="M128.22,118.35c3.88,0,12.52.84,12.95-3.13s-9.5-21,3.46-21"/><line class="cls-11" x1="142.51" y1="93.89" x2="348.52" y2="93.89"/><line class="cls-12" x1="167.96" y1="274.64" x2="201.72" y2="274.64"/><path class="cls-13" d="M203,274.64h0m-37.52,0h0"/><rect class="cls-4" x="122.07" y="265.14" width="48.68" height="18.64"/><text class="cls-14" transform="translate(132.3 273.35)">Dige<tspan class="cls-15" x="13.25" y="0">s</tspan><tspan x="16.06" y="0">t</tspan><tspan class="cls-16" x="18.38" y="0">a</tspan><tspan class="cls-17" x="21.69" y="0">t</tspan><tspan x="23.93" y="0">e</tspan></text><text class="cls-14" transform="translate(159.63 273.35)"> </text><text class="cls-14" transform="translate(130.5 280.26)">P<tspan class="cls-18" x="3.85" y="0">r</tspan><tspan x="6.06" y="0">o</tspan><tspan class="cls-17" x="9.78" y="0">c</tspan><tspan x="12.98" y="0">e</tspan><tspan class="cls-19" x="16.39" y="0">s</tspan><tspan x="19.21" y="0">sing</tspan></text><line class="cls-20" x1="173.33" y1="206.51" x2="192.04" y2="192.72"/><path class="cls-13" d="M193,192h0m-21.67,16h0"/><path class="cls-2" d="M298.38,166.13l-.06-.31,4.1-1.74a20.25,20.25,0,0,1-4-3.33h0v0l-.13-.13.08-.08-.06-.3,5.7-2.42,2.4-3.93h.5l.07.11c7.7,4.2,15.21,3.28,23.48,1.65l.1-.16h.84l4,6.54,9.51,4-.19.92h-9.28l-.11,4.38,9.58,4.06-.19.91H335.2l-.05,2.21,7.22,20.72-.93.29L340,196.18H322l-1.39,4.16-.92-.29,7.14-21.54-.06-2.21h-9.51l-.07-.3a36.75,36.75,0,0,1-5.79-1.53l6.07,19-.56.17-4.86-15.31H301.27l-5.79,15.48-.55-.18,8.38-23.29a41.56,41.56,0,0,1-4.83-3.93h-.05v-.05l-.11-.11Zm1.46-.34h4.29l0-.77c-.37-.18-.73-.36-1.09-.57Zm24.31-1.72c.76.16,1.54.31,2.33.45l0-1.42Zm5,.86,1-.51L327.43,163l0,1.64,1.72.25m-1.71.11v.74l1.14-.57-1.15-.17m3,.05,1.39.17-.86-.43Zm-.57.29-1.46.73h5.12l-.8-.4c-1-.1-1.92-.21-2.86-.33m-1.75,1.45,2.85,1.84,2.86-1.84Zm-.61.47.09,3.55,2.71-1.75Zm.61,4.08h5.71L331,169.53Zm.29.71,2.56,1.29,2.56-1.29Zm-1.94-7.21c-1-.17-2-.36-2.9-.57l-4,1.68h6.9ZM331,164l2.56-1.28h-5.12Zm.8.4,2.07,1.05c.22,0,.43,0,.64.06l.06-2.49Zm-.13,4.68,2.7,1.75.09-3.55Zm.35,4.57,2.27.45,0-1.61Zm.49.47,1.76.88v-.54l-1.77-.34m-1.51,0-2.56,1.29h5.12Zm4.24,1.17h4.38c-1.53-.22-3-.45-4.36-.7Zm-7.42,2.87h6.37l.05-2h-6.47Zm.87.72,2.29,1.31,2.32-1.31Zm-.95-3.92,2.46-1.24-.54-.27c-.68-.16-1.34-.33-2-.5Zm.48-2.24-.55-.27v.13l.54.14m-1.53-.43h0Zm0-1-.11-4.38h-9.28l-.06-.3-.56,0-1,.05c1.85,2,5,3.74,9.56,5.19Zm-10-5,.51,0-.06-.27,5-2.1a18.28,18.28,0,0,1-7.12-3.22v0h-5.57l-.06,2.63,5.75,2.44,0,.21.08-.05.33.42,1.24-.07M307.07,162l1.62,1.06.05-2.14Zm1.31-1.36H305l1.72,1.11Zm-1.71,1.62L305,163.41h3.43Zm1.53,1.54h-3.07l1.54.77Zm-1.05,1,1.48.75,0-1.51Zm-.88-2.81L304.59,161l.06,2.14Zm-1.14-1.79h3.07l-1.53-.77Zm1.06-1-1.66-.83,0,1.64Zm2.58.81,0-1.64-1.66.83Zm.44,5.74h4.28L309.25,164Zm-1,.08-1.53-.78-.66.33c.48.18,1,.32,1.45.45Zm-2.64-.22-.43.22h1.05l-.62-.22m-.85-.05.32-.16-.33-.14Zm.74-.38.74-.37-1.52-.76,0,.81.76.32M304.08,164l-.64.27.66.34Zm2.59-5,1.53-.77h-3.07Zm2.72-.56,0,1.74h4.14Zm5.5,7.93h-4.52a31.91,31.91,0,0,0,4.57.06l-.05-.06m-7.2-.08h-3l0,1.23h3.82l0-1c-.31-.06-.62-.12-.92-.2M305.28,168l1.37.79,1.4-.79Zm3.4.14-1.59.89,2.32,1.34ZM306.73,172l2.13-.93h-3.73c.52.33,1.06.63,1.6.93m3.24,1.94c-.64-.26-1.26-.54-1.88-.84l-1.4-.62-3.36,1.46Zm-6.55.43,3.23,1.27,3.21-1.27Zm1-3.72h4.64l-2.44-1.4-2.32,1.31.12.09m5.25.53-2.47,1.07,3.31,1.47Zm-2.46,4.69,4.61,1.82-1.07-3.23Zm-.59.23-4.49,1.78h9Zm-.58-.23-3.53-1.39-1.06,3.21Zm.09-3.62-2.52-1.12-.85,2.57Zm-2.24-1.95,2.3-1.3-1.58-.9-.72,2.2Zm-1.1-6.37,1.25-.53-.07-2.63h-5a19.65,19.65,0,0,0,3.86,3.16m1.17-3.73-.05-1.74-4.1,1.74Zm.71-2.38h3.94l-2-3.23Zm14.55-.45a25.18,25.18,0,0,1-11.89-2.77l1.95,3.21,5.71,2.42,0,.17,0,0c1.68,1.5,4.35,2.57,7.55,3.38l4-1.71,3.64-6a58.23,58.23,0,0,1-11,1.31m11.74-.71L327.71,162h6.57Zm4.54,6.46-.06,2.51c1.64.15,3.29.27,4.9.38h2Zm.2,2.89-.27,0v0Zm-.43,6.37-.05,1.94q3.25.57,7,1h.1Zm-1,6.81-2.64,1.5,3.87,2.22Zm1.7,5.13-4.11,1.77,5.51,2.45Zm-1.4-.18h-7.12l3.52,1.56Zm1.86,4.77L331,186.46l-5.61,2.43Zm-10.91.71,5.38,2.12,5.35-2.12Zm12.26.17-5.91,2.34,7.7,3ZM331,192.5l-7.48,3h15Zm-1-.39-5.87-2.31-1.77,5.34Zm.15-6L326,184.22l-1.41,4.26ZM335,183.4,331,181.08l-4.12,2.32Zm-8.59-.59,3.8-2.15-2.6-1.48Zm.32-7.46-.07-2.61-.54-.16-6.53,2.77Zm-9.64.27-.05-.23,7.67-3.25c-4.55-1.49-7.71-3.28-9.52-5.37-.76,0-1.55.07-2.35.07a24.42,24.42,0,0,1-3.68-.26l0,1.11,2.1,6.34a35.9,35.9,0,0,0,5.86,1.59m-13.69-5.68.74-2.25,0-1.32H299a41.62,41.62,0,0,0,4.42,3.57"/><path class="cls-21" d="M242.44,182.94c30.05,3.8,56.8-16.55,56.8-16.55m.17-6.35s-34.09,22.9-56.8,22.84"/><path class="cls-21" d="M343.64,176.22s5.92,12.08,18.93,10.63m-18.32-20.13c-.43-1.22,5.12,15.34,17.76,17.78"/><line class="cls-22" x1="173.46" y1="229.24" x2="191.37" y2="238.34"/><path class="cls-13" d="M192.42,238.88h0m-21.06-10.71h0"/><rect class="cls-3" x="193.76" y="182.68" width="48.68" height="18.64"/><rect class="cls-4" x="259.13" y="290.99" width="190.88" height="4.86"/><rect class="cls-3" x="121.47" y="208.85" width="48.68" height="18.64"/><rect class="cls-4" x="193.83" y="265.14" width="48.61" height="18.64"/><text class="cls-14" transform="translate(198.67 273.31)"><tspan class="cls-23">A</tspan><tspan class="cls-24" x="4.4" y="0">gricultu</tspan><tspan class="cls-25" x="26.3" y="0">r</tspan><tspan x="28.49" y="0">al &amp; </tspan></text><text class="cls-14" transform="translate(239.47 273.31)"> </text><text class="cls-14" transform="translate(199.32 280.22)">Soil P<tspan class="cls-18" x="16.01" y="0">r</tspan><tspan class="cls-26" x="18.22" y="0">oducts</tspan></text><polygon class="cls-2" points="110.17 222.3 110.17 226.26 117.2 218.12 110.17 209.99 110.17 213.75 89.93 213.75 89.93 222.3 110.17 222.3"/><polygon class="cls-2" points="110.17 277.11 110.17 281.06 117.2 272.93 110.17 264.79 110.17 268.56 89.93 268.56 89.93 277.11 110.17 277.11"/><line class="cls-27" x1="263.4" y1="289.53" x2="354.62" y2="289.53"/><path class="cls-28" d="M355.69,289.53h0m-94.44,0h0"/><line class="cls-29" x1="262.67" y1="290.15" x2="353.42" y2="290.15"/><path class="cls-28" d="M354.49,290.15h0m-94,0h0"/><path class="cls-30" d="M350.64,279.47a.26.26,0,1,0-.26-.25.26.26,0,0,0,.26.25"/><path class="cls-30" d="M348.22,280.47a.26.26,0,0,0,0-.52.26.26,0,0,0,0,.52"/><path class="cls-30" d="M352.11,282.48a.26.26,0,0,0,.26-.26.26.26,0,0,0-.52,0,.26.26,0,0,0,.26.26"/><path class="cls-30" d="M341.51,283.26a.65.65,0,1,0-.65-.65.65.65,0,0,0,.65.65"/><path class="cls-30" d="M344.16,283.91a.26.26,0,1,0,0-.51.26.26,0,1,0,0,.51"/><path class="cls-30" d="M350.9,276.88a.26.26,0,1,0-.26-.26.26.26,0,0,0,.26.26"/><path class="cls-30" d="M353.08,280a.37.37,0,1,0-.37-.37.37.37,0,0,0,.37.37"/><path class="cls-30" d="M327.5,285.51a.33.33,0,0,0,.33-.33.32.32,0,0,0-.33-.32.32.32,0,0,0-.32.32.32.32,0,0,0,.32.33"/><path class="cls-30" d="M349.35,282.48a.26.26,0,0,0,.25-.26.26.26,0,1,0-.51,0,.26.26,0,0,0,.26.26"/><path class="cls-30" d="M338.72,281.72a.49.49,0,1,0-.49-.49.49.49,0,0,0,.49.49"/><path class="cls-30" d="M344.16,287.48a.18.18,0,0,0,.17-.18.18.18,0,0,0-.17-.17.18.18,0,0,0-.18.17.18.18,0,0,0,.18.18"/><path class="cls-30" d="M341.3,281.61a.43.43,0,1,0-.44-.43.43.43,0,0,0,.44.43"/><path class="cls-30" d="M337.5,284.77a.33.33,0,0,0,0-.66.33.33,0,0,0,0,.66"/><path class="cls-30" d="M342.74,279.89a.47.47,0,0,0,.47-.47.46.46,0,0,0-.47-.46.45.45,0,0,0-.46.46.46.46,0,0,0,.46.47"/><path class="cls-30" d="M353.53,277.23a.18.18,0,0,0,.18-.17.18.18,0,0,0-.18-.18.18.18,0,0,0-.17.18.18.18,0,0,0,.17.17"/><path class="cls-30" d="M328,284.83a.17.17,0,0,0,.17-.17.17.17,0,0,0-.17-.18.18.18,0,0,0-.17.18.18.18,0,0,0,.17.17"/><path class="cls-30" d="M348.39,281.49a.26.26,0,1,0-.26-.26.26.26,0,0,0,.26.26"/><path class="cls-30" d="M346,282.48a.26.26,0,0,0,.26-.26.26.26,0,0,0-.52,0,.26.26,0,0,0,.26.26"/><path class="cls-30" d="M345.76,287.69a.26.26,0,1,0,0-.51.26.26,0,0,0,0,.51"/><path class="cls-30" d="M343.72,285.38a.26.26,0,0,0,.26-.26.26.26,0,1,0-.51,0,.26.26,0,0,0,.25.26"/><path class="cls-30" d="M348.65,278.9a.26.26,0,0,0,0-.52.26.26,0,0,0,0,.52"/><path class="cls-30" d="M349.15,284.65a.37.37,0,1,0-.37-.37.38.38,0,0,0,.37.37"/><path class="cls-30" d="M350.78,286.67a.32.32,0,0,0,.33-.32.33.33,0,1,0-.65,0,.32.32,0,0,0,.32.32"/><path class="cls-30" d="M347.09,284.49a.25.25,0,0,0,.26-.26.26.26,0,0,0-.26-.26.26.26,0,0,0-.26.26.26.26,0,0,0,.26.26"/><path class="cls-30" d="M344,289.64a.49.49,0,1,0-.49-.49.49.49,0,0,0,.49.49"/><path class="cls-30" d="M348.59,289.35a.43.43,0,0,0,.43-.43.43.43,0,1,0-.86,0,.43.43,0,0,0,.43.43"/><path class="cls-30" d="M345.76,286.81a.47.47,0,1,0-.46-.46.47.47,0,0,0,.46.46"/><path class="cls-30" d="M351.28,279.24a.16.16,0,0,0,.17-.17.17.17,0,0,0-.17-.17.18.18,0,0,0-.17.17.17.17,0,0,0,.17.17"/><path class="cls-30" d="M351.7,279.42a.26.26,0,0,0,.26-.26.26.26,0,0,0-.52,0,.26.26,0,0,0,.26.26"/><path class="cls-30" d="M349.28,280.42a.26.26,0,0,0,.26-.26.26.26,0,0,0-.52,0,.26.26,0,0,0,.26.26"/><path class="cls-30" d="M353.17,282.42a.26.26,0,1,0-.26-.25.26.26,0,0,0,.26.25"/><path class="cls-30" d="M339.71,286.62a.65.65,0,1,0-.64-.65.65.65,0,0,0,.64.65"/><path class="cls-30" d="M347,283.31a.26.26,0,0,0,0-.52.26.26,0,1,0,0,.52"/><path class="cls-30" d="M340.08,278.74a.37.37,0,1,0-.37-.37.37.37,0,0,0,.37.37"/><path class="cls-30" d="M330.2,283.4a.32.32,0,0,0,.32-.33.32.32,0,0,0-.32-.32.32.32,0,0,0-.33.32.33.33,0,0,0,.33.33"/><path class="cls-30" d="M350.4,282.42a.26.26,0,1,0-.25-.25.25.25,0,0,0,.25.25"/><path class="cls-30" d="M348.79,287.57a.49.49,0,1,0-.49-.49.49.49,0,0,0,.49.49"/><path class="cls-30" d="M331,288.3a.44.44,0,0,0,.44-.43.44.44,0,1,0-.87,0,.43.43,0,0,0,.43.43"/><path class="cls-30" d="M346.94,279.89a.47.47,0,0,0,.47-.47.47.47,0,0,0-.93,0,.47.47,0,0,0,.46.47"/><path class="cls-30" d="M349.45,281.44a.26.26,0,0,0,0-.52.26.26,0,0,0,0,.52"/><path class="cls-30" d="M347,282.43a.26.26,0,0,0,.26-.26.26.26,0,1,0-.52,0,.26.26,0,0,0,.26.26"/><path class="cls-30" d="M332.81,286a.26.26,0,0,0,.26-.26.26.26,0,0,0-.52,0,.26.26,0,0,0,.26.26"/><path class="cls-30" d="M344.78,285.32a.26.26,0,1,0,0-.51.26.26,0,1,0,0,.51"/><path class="cls-30" d="M349.71,278.85a.26.26,0,0,0,0-.52.26.26,0,0,0,0,.52"/><path class="cls-30" d="M351.89,281.91a.37.37,0,0,0,0-.73.37.37,0,1,0,0,.73"/><path class="cls-30" d="M336.16,285.88a.32.32,0,0,0,0-.64.32.32,0,1,0,0,.64"/><path class="cls-30" d="M348.15,284.44a.26.26,0,1,0-.26-.26.26.26,0,0,0,.26.26"/><path class="cls-30" d="M346.82,286.76a.47.47,0,1,0-.46-.46.47.47,0,0,0,.46.46"/><path class="cls-30" d="M352.34,279.19a.17.17,0,0,0,0-.34.17.17,0,0,0,0,.34"/><path class="cls-30" d="M351.7,279.42a.26.26,0,0,0,.26-.26.26.26,0,0,0-.52,0,.26.26,0,0,0,.26.26"/><path class="cls-30" d="M349.28,280.42a.26.26,0,0,0,.26-.26.26.26,0,0,0-.52,0,.26.26,0,0,0,.26.26"/><path class="cls-30" d="M353.17,282.42a.26.26,0,1,0-.26-.25.26.26,0,0,0,.26.25"/><path class="cls-30" d="M342.16,288.77a.65.65,0,1,0-.65-.64.65.65,0,0,0,.65.64"/><path class="cls-30" d="M347,283.31a.26.26,0,0,0,0-.52.26.26,0,1,0,0,.52"/><path class="cls-30" d="M333.22,279.6a.37.37,0,1,0-.37-.36.37.37,0,0,0,.37.36"/><path class="cls-30" d="M332,283.7a.33.33,0,1,0,0-.65.33.33,0,0,0,0,.65"/><path class="cls-30" d="M350.4,282.42a.26.26,0,1,0-.25-.25.25.25,0,0,0,.25.25"/><path class="cls-30" d="M348.79,287.57a.49.49,0,1,0-.49-.49.49.49,0,0,0,.49.49"/><path class="cls-30" d="M347.37,276.12a.43.43,0,1,0-.43-.43.44.44,0,0,0,.43.43"/><path class="cls-30" d="M343,278.33a.47.47,0,1,0,0-.93.47.47,0,0,0,0,.93"/><path class="cls-30" d="M349.45,281.44a.26.26,0,0,0,0-.52.26.26,0,0,0,0,.52"/><path class="cls-30" d="M347,282.43a.26.26,0,0,0,.26-.26.26.26,0,1,0-.52,0,.26.26,0,0,0,.26.26"/><path class="cls-30" d="M343.21,286.94a.26.26,0,0,0,.26-.26.26.26,0,0,0-.26-.26.25.25,0,0,0-.26.26.26.26,0,0,0,.26.26"/><path class="cls-30" d="M344.78,285.32a.26.26,0,1,0,0-.51.26.26,0,1,0,0,.51"/><path class="cls-30" d="M347,278.09a.26.26,0,0,0,.26-.26.26.26,0,1,0-.52,0,.26.26,0,0,0,.26.26"/><path class="cls-30" d="M333.87,284.28a.37.37,0,1,0-.37-.37.37.37,0,0,0,.37.37"/><path class="cls-30" d="M333.91,287.12a.33.33,0,0,0,.33-.33.32.32,0,0,0-.33-.32.32.32,0,0,0-.32.32.32.32,0,0,0,.32.33"/><path class="cls-30" d="M348.15,284.44a.26.26,0,1,0-.26-.26.26.26,0,0,0,.26.26"/><path class="cls-30" d="M346.82,286.76a.47.47,0,1,0-.46-.46.47.47,0,0,0,.46.46"/><path class="cls-30" d="M352.34,279.19a.17.17,0,0,0,0-.34.17.17,0,0,0,0,.34"/><path class="cls-30" d="M352.33,279.83a.26.26,0,1,0-.26-.25.26.26,0,0,0,.26.25"/><path class="cls-30" d="M343.9,280.68a.26.26,0,0,0,.26-.26.26.26,0,0,0-.26-.26.25.25,0,0,0-.26.26.26.26,0,0,0,.26.26"/><path class="cls-30" d="M332.6,285.38a.26.26,0,0,0,.25-.26.26.26,0,1,0-.51,0,.26.26,0,0,0,.26.26"/><path class="cls-30" d="M353,276.34a.65.65,0,1,0-.65-.65.65.65,0,0,0,.65.65"/><path class="cls-30" d="M344.52,281.6a.25.25,0,0,0,.25-.26.26.26,0,1,0-.51,0,.25.25,0,0,0,.26.26"/><path class="cls-30" d="M352,277.06a.37.37,0,1,0-.36-.37.37.37,0,0,0,.36.37"/><path class="cls-30" d="M334.81,287.28a.32.32,0,0,0,.33-.32.33.33,0,0,0-.33-.33.32.32,0,0,0-.32.33.32.32,0,0,0,.32.32"/><path class="cls-30" d="M351,282.84a.26.26,0,0,0,.26-.26.26.26,0,1,0-.51,0,.26.26,0,0,0,.25.26"/><path class="cls-30" d="M338.32,287.88a.49.49,0,1,0-.49-.49.49.49,0,0,0,.49.49"/><path class="cls-30" d="M351.68,274.36a.43.43,0,0,0,.43-.43.43.43,0,1,0-.86,0,.43.43,0,0,0,.43.43"/><path class="cls-30" d="M351.29,281a.47.47,0,1,0-.46-.46.47.47,0,0,0,.46.46"/><path class="cls-30" d="M350.08,281.85a.26.26,0,0,0,0-.52.26.26,0,0,0,0,.52"/><path class="cls-30" d="M347.66,282.84a.26.26,0,0,0,.26-.26.26.26,0,1,0-.52,0,.26.26,0,0,0,.26.26"/><path class="cls-30" d="M353.34,277.57a.26.26,0,1,0-.26-.25.26.26,0,0,0,.26.25"/><path class="cls-30" d="M345,276.21a.26.26,0,0,0,.26-.26.26.26,0,1,0-.52,0,.26.26,0,0,0,.26.26"/><path class="cls-30" d="M350.34,279.26a.26.26,0,0,0,0-.52.26.26,0,1,0,0,.52"/><path class="cls-30" d="M334.28,282.54a.37.37,0,1,0-.37-.37.37.37,0,0,0,.37.37"/><path class="cls-30" d="M333.91,285a.32.32,0,0,0,.33-.32.33.33,0,0,0-.33-.33.32.32,0,0,0-.32.33.32.32,0,0,0,.32.32"/><path class="cls-30" d="M348.78,284.85a.26.26,0,0,0,.26-.26.26.26,0,1,0-.52,0,.26.26,0,0,0,.26.26"/><path class="cls-30" d="M339.07,284.38a.47.47,0,1,0-.47-.47.47.47,0,0,0,.47.47"/><path class="cls-30" d="M338.4,278.35a.18.18,0,0,0,.18-.17.17.17,0,0,0-.18-.17.17.17,0,0,0-.17.17.18.18,0,0,0,.17.17"/><path class="cls-30" d="M357.65,275.71c-1.55-.12-3.11-4.15,1-4.15s6-.06,7.55-1.41,4.45-.72,7.43,0a15.53,15.53,0,0,0,8.34,0c3.28-.79,5.4-1.24,8.29,0s5.53,2.38,8.12,2.38,4.31.11,3.45,3.18S358,277.25,358,277.25Z"/><path class="cls-31" d="M418.31,294.6A3.61,3.61,0,1,0,414.7,291a3.61,3.61,0,0,0,3.61,3.61"/><path class="cls-31" d="M373.17,294.56a3.62,3.62,0,1,0-3.61-3.61,3.62,3.62,0,0,0,3.61,3.61"/><path class="cls-31" d="M387.34,294.18a3.61,3.61,0,1,0-3.61-3.61,3.61,3.61,0,0,0,3.61,3.61"/><path class="cls-2" d="M401.1,285.82l2.77-11.27-49.65,0,1.44,9.41,15.72.68a6.12,6.12,0,0,1,2-.32,6.29,6.29,0,0,1,4,1.47h6a6.33,6.33,0,0,1,8.11,0Zm3.4,3.85h.82v-1.13h1.36v2.83h-1.17c-1,0-1,0-1-1.7m6.37-18.54h2.59v7.31h-2.59Zm3.18,0h3.69l2.18,7.31h-5.87Zm0,7.94h5.87l-.54,2.53h-4.76Zm10.39,1.83a.26.26,0,0,1,.26-.27H428a.27.27,0,0,1,0,.53H424.7a.26.26,0,0,1-.26-.26m0,1.11a.26.26,0,0,1,.26-.26H428a.27.27,0,0,1,0,.53H424.7a.26.26,0,0,1-.26-.27m-29.21,7.7.06.05-1.57-.09a8.65,8.65,0,0,1,.1.89l2.94.23,2.2,1.57h13a6.41,6.41,0,1,1,12.57-2.28c0,.09,0,.28,0,.28l10.29-2.84v-2h-.4a10.81,10.81,0,0,0-2.18-5.3,40.68,40.68,0,0,0-11.53-1.78l-2.19-7.31h.38l.34-1.09h-8.7v.79h-.3v8.51h.39V281h-.78a12.46,12.46,0,0,1-.53-3.24h.3v-6.31h-.3v-1.28a1.4,1.4,0,0,0-1-1.5v.7s.36.11.36.75c0,.33,0,1.33,0,1.33h-.26v6.31h.27a18.76,18.76,0,0,0,.45,3.24h-2.7v5h-2.07l-.73,3.2H403v-2.46h-10.6a6.49,6.49,0,0,1,1.18,2.31,4.61,4.61,0,0,1,1.64.63m-15.48,1.12a5.63,5.63,0,0,1,0,.58h1.34a5.63,5.63,0,0,1,0-.58,6.51,6.51,0,0,1,1.41-4.06h-4.11a6.46,6.46,0,0,1,1.42,4.06m-9.31,0a2.91,2.91,0,1,1,2.91,2.94,2.92,2.92,0,0,1-2.91-2.94m-2.84-.4v.79c0,.14.16.25.35.25H368a5.79,5.79,0,0,0,.16.83l-.06,0c-.18.07-.28.23-.23.36l.3.73c.05.12.24.16.42.09l.06,0a4.79,4.79,0,0,0,.46.71l0,.05c-.14.14-.17.33-.08.42l.55.56c.1.1.28.06.42-.08l0-.05a5.33,5.33,0,0,0,.69.48l0,.06c-.07.18,0,.37.09.42l.72.3c.12.06.28-.05.36-.23l0-.06a5.79,5.79,0,0,0,.83.16v.07c0,.2.11.35.24.35h.78c.13,0,.24-.15.24-.35v-.07a5.79,5.79,0,0,0,.83-.16l0,.06c.07.18.23.29.36.23l.72-.3c.12-.05.16-.24.09-.42l0-.06a4.82,4.82,0,0,0,.7-.48l.05.05c.14.14.32.18.42.08l.55-.56c.09-.09.06-.28-.08-.42l-.05-.05a4.16,4.16,0,0,0,.47-.71l.06,0c.18.07.37,0,.42-.09l.3-.73c.05-.13-.06-.29-.23-.36l-.06,0a5.79,5.79,0,0,0,.16-.83h.07c.19,0,.35-.11.35-.25v-.79c0-.13-.16-.24-.35-.24h-.07a5.67,5.67,0,0,0-.16-.84l.05,0c.18-.08.29-.24.24-.36l-.3-.73c-.05-.13-.24-.17-.42-.09l-.06,0a4.08,4.08,0,0,0-.47-.7l.05-.05c.14-.14.17-.33.08-.42l-.55-.56c-.1-.1-.28-.07-.42.07l-.05.05a7.18,7.18,0,0,0-.7-.48l0-.05a.34.34,0,0,0-.09-.43l-.72-.3c-.13-.05-.29.06-.36.24l0,.06a4.7,4.7,0,0,0-.83-.17v-.06c0-.2-.11-.36-.24-.36H373c-.13,0-.24.16-.24.36v.06a4.7,4.7,0,0,0-.83.17l0-.06c-.08-.18-.24-.29-.36-.24l-.72.3a.34.34,0,0,0-.09.43l0,.05q-.36.23-.69.48l0-.05c-.14-.14-.32-.17-.42-.07L369,287c-.09.09-.06.28.08.42l0,.05a4.7,4.7,0,0,0-.46.7l-.06,0c-.18-.08-.37,0-.42.09l-.3.73c-.05.12.05.28.23.36l.06,0a5.67,5.67,0,0,0-.16.84H368c-.19,0-.35.11-.35.24m4.3.4a1.45,1.45,0,1,0,1.45-1.47,1.46,1.46,0,0,0-1.45,1.47m43.36,0a2.91,2.91,0,1,1,2.91,2.94,2.93,2.93,0,0,1-2.91-2.94m-2.83-.4v.79c0,.14.15.25.35.25h.06a4.7,4.7,0,0,0,.17.83l-.07,0c-.17.07-.28.23-.23.36l.3.73c.05.12.24.16.42.09l.06,0a4.85,4.85,0,0,0,.47.71l0,.05c-.14.14-.17.33-.08.42l.56.56c.09.1.28.06.42-.08l0-.05a4.82,4.82,0,0,0,.7.48l0,.06c-.07.18,0,.37.09.42l.72.3c.13.06.29-.05.36-.23l0-.06a5.41,5.41,0,0,0,.82.16v.07c0,.2.11.35.24.35h.78c.14,0,.24-.15.24-.35v-.07a5.54,5.54,0,0,0,.83-.16l0,.06c.08.18.24.29.36.23l.72-.3a.31.31,0,0,0,.09-.42l0-.06a5.33,5.33,0,0,0,.69-.48l.05.05c.14.14.33.18.42.08l.55-.56c.1-.09.06-.28-.08-.42l0-.05a5.82,5.82,0,0,0,.47-.71l.06,0c.17.07.36,0,.41-.09l.3-.73c.05-.13-.05-.29-.23-.36l-.06,0a5.79,5.79,0,0,0,.16-.83h.07c.19,0,.35-.11.35-.25v-.79c0-.13-.16-.24-.35-.24h-.07a5.67,5.67,0,0,0-.16-.84l.06,0c.18-.08.28-.24.23-.36l-.3-.73a.29.29,0,0,0-.41-.09l-.06,0a5.7,5.7,0,0,0-.47-.7l0-.05c.14-.14.18-.33.08-.42l-.55-.56c-.09-.1-.28-.07-.42.07l-.05.05q-.33-.26-.69-.48l0-.05a.33.33,0,0,0-.09-.43l-.72-.3c-.12-.05-.28.06-.36.24l0,.06a4.52,4.52,0,0,0-.83-.17v-.06c0-.2-.1-.36-.24-.36h-.78c-.13,0-.24.16-.24.36v.06a4.42,4.42,0,0,0-.82.17l0-.06c-.07-.18-.23-.29-.36-.24l-.72.3a.34.34,0,0,0-.09.43l0,.05a7.18,7.18,0,0,0-.7.48l0-.05c-.14-.14-.33-.17-.42-.07l-.56.56c-.09.09-.06.28.08.42l0,.05a4.76,4.76,0,0,0-.47.7l-.06,0c-.18-.08-.37,0-.42.09l-.3.73c0,.12.06.28.23.36l.07,0a4.63,4.63,0,0,0-.17.84h-.06c-.2,0-.35.11-.35.24m4.29.4a1.46,1.46,0,1,0,1.45-1.47,1.46,1.46,0,0,0-1.45,1.47m-30.75,0a1.46,1.46,0,1,0,1.46-1.47,1.46,1.46,0,0,0-1.46,1.47m-1.45,0a2.91,2.91,0,1,1,2.91,2.94,2.92,2.92,0,0,1-2.91-2.94m-2.84-.4v.79c0,.14.16.25.35.25h.06a5.82,5.82,0,0,0,.17.83l-.06,0c-.18.07-.28.23-.23.36l.3.73c.05.12.23.16.41.09l.06,0a5.82,5.82,0,0,0,.47.71l0,.05c-.13.14-.17.33-.07.42l.55.56c.09.1.28.06.42-.08l0-.05a5.43,5.43,0,0,0,.7.48l0,.06c-.08.18,0,.37.09.42l.72.3c.12.06.28-.05.36-.23l0-.06a5.54,5.54,0,0,0,.83.16v.07c0,.2.1.35.23.35h.79c.13,0,.24-.15.24-.35v-.07a5.41,5.41,0,0,0,.82-.16l0,.06c.07.18.23.29.35.23l.73-.3c.12-.05.16-.24.09-.42l0-.06a4.82,4.82,0,0,0,.7-.48l0,.05c.14.14.33.18.42.08l.56-.56c.09-.09.06-.28-.08-.42l-.05-.05a4.85,4.85,0,0,0,.47-.71l.06,0c.18.07.37,0,.42-.09l.29-.73c.06-.13-.05-.29-.23-.36l-.06,0a5.82,5.82,0,0,0,.17-.83h.06c.2,0,.35-.11.35-.25v-.79c0-.13-.15-.24-.35-.24h-.06a5.68,5.68,0,0,0-.17-.84l.06,0c.18-.08.29-.24.23-.36l-.29-.73c0-.13-.24-.17-.42-.09l-.06,0a4.76,4.76,0,0,0-.47-.7l.05-.05c.14-.14.17-.33.08-.42l-.56-.56c-.09-.1-.28-.07-.42.07l0,.05a7.18,7.18,0,0,0-.7-.48l0-.05a.33.33,0,0,0-.08-.43l-.73-.3c-.12-.05-.28.06-.35.24l0,.06a4.59,4.59,0,0,0-.82-.17v-.06c0-.2-.11-.36-.24-.36H387c-.13,0-.23.16-.23.36v.06a4.52,4.52,0,0,0-.83.17l0-.06c-.08-.18-.24-.29-.36-.24l-.72.3a.32.32,0,0,0-.09.43l0,.05c-.24.15-.48.31-.7.48l0-.05c-.14-.14-.33-.17-.42-.07l-.55.56c-.1.09-.06.28.07.42l0,.05a5.7,5.7,0,0,0-.47.7l-.06,0c-.18-.08-.36,0-.41.09l-.3.73c-.05.12,0,.28.23.36l.06,0a7.34,7.34,0,0,0-.17.84H382c-.19,0-.35.11-.35.24"/><polygon class="cls-7" points="361.28 283.04 360.2 275.81 360.7 275.81 361.75 283.04 361.28 283.04"/><polygon class="cls-7" points="365.77 283.04 364.69 275.81 365.19 275.81 366.25 283.04 365.77 283.04"/><polygon class="cls-7" points="370.26 283.04 369.18 275.81 369.69 275.81 370.74 283.04 370.26 283.04"/><polygon class="cls-7" points="374.75 283.04 373.67 275.81 374.18 275.81 375.23 283.04 374.75 283.04"/><polygon class="cls-7" points="379.24 283.04 378.16 275.81 378.67 275.81 379.72 283.04 379.24 283.04"/><polygon class="cls-7" points="383.73 283.04 382.65 275.81 383.16 275.81 384.21 283.04 383.73 283.04"/><polygon class="cls-7" points="388.23 283.04 387.14 275.81 387.65 275.81 388.7 283.04 388.23 283.04"/><polygon class="cls-7" points="392.72 283.04 391.64 275.81 392.14 275.81 393.19 283.04 392.72 283.04"/><polygon class="cls-7" points="397.21 283.04 396.13 275.81 396.63 275.81 397.68 283.04 397.21 283.04"/><line class="cls-9" x1="2.12" y1="297.98" x2="451.73" y2="297.98"/><path class="cls-2" d="M290.61,246.62H294c.3-.51.82-.81.83-1.62-.35,0-.32-.63-.69-.74a4.42,4.42,0,0,1-1.85.32,1.7,1.7,0,0,0-1.21-.11c-.21.6,0,1.08-.11,1.8a3.49,3.49,0,0,0-.32.35m4.34-.4a.81.81,0,0,1-.45.4h1.82c.12-.15.3-.29.32-.51-.15-.39-.7-.7-.37-1.27-.1-.18-.2-.36-.42-.42-.22.1-.07.56-.42.53.18.56-.54.82-.48,1.27m6.35.4h.5c.18-.57-.18-1.29-.21-1.88,0-.22.27-.33.16-.48s-.29.22-.43.32c.39.49.06,1,.06,1.64-.05.27-.16-.16-.27-.16a.64.64,0,0,0,.19.56m1.24,0h2.88c-.15-.06-.28-.14-.39-.19a2.78,2.78,0,0,0-.06-2c-.42,0-.78-.11-1.21-.11-.21,0-.16.34-.16.58a.93.93,0,0,1-.42-.21c-.17,0-.13.19-.22.26s-.14-.14-.26-.15c0,.25-.26.41-.32.68a2.17,2.17,0,0,0,.16,1.09m3.46,0h.53a1.27,1.27,0,0,1-.13-.19,2.74,2.74,0,0,0,0-1.53.64.64,0,0,0-.58-.16c-.31.56-.4,1.58.18,1.88m.93-.45c.06.21.22.31.34.45h1.66a1.2,1.2,0,0,1-.36-.08c-.15,0,0-.39-.21-.48s-.22-.24-.43-.26c-.07-.53-.28-.92-.89-.9a12.6,12.6,0,0,1-.11,1.27m12.74.45h1.52L324,244l2.83,2.61h1.52v-7h-8.7Zm48.71,0h2.39v1.12H285v-1.12h4.84a1.12,1.12,0,0,0,.23-1c0-.23.19-.56.06-.79a1.59,1.59,0,0,1-.64-.11c-.06-.49-.43-.69-.79-.9-.21-.4-.32-.91-.69-1.16-.48.12-1.23.41-1.69.21,0-.62.46-.85.26-1.48-.21-.08-.48-.11-.52-.37s.17-.21.37-.21a.74.74,0,0,1,0-.53c.32.51,1.16.17,1.69.48.18-.06.11-.38.37-.37,0,.17.09.26.05.47a12.31,12.31,0,0,0,2.06-.1,17.42,17.42,0,0,0,3.86.21c1-.05,2-.2,2.59.42.35,1.1-.73,2.57.22,3.39-.12.6,0,1.43-.28,1.88h3.62a16.49,16.49,0,0,0-.25-1.88,6.11,6.11,0,0,0,.27-.58c-.31-1.17,0-2.27,0-3.49a2.06,2.06,0,0,1,2.16-.48c1.19,0,2.33.2,3.39.11,1.46.85,2.06,2.56,2.91,4,0,.15.24.18.37.26s.23-.15.42-.16c.06.43-.33.41-.47.64.2.45-.22.91.05,1.48a.24.24,0,0,0,.26-.11c-.07.27.18.1.25.19h6.4v-8.48l2.82-5,4.83-2.72,4.83,2.72,2.8,5v8.48h.44v-8.55l.29.51a1,1,0,0,0,.87.51,1,1,0,0,0,.49-.13,1,1,0,0,0,.38-1.36l-3.3-5.83a1,1,0,0,0-.38-.38v-5.83a6.18,6.18,0,0,1,6.18-6.17h.57a6.18,6.18,0,0,1,6.18,6.17v21.06h4.52M327,240.34h-5.92l3,2.73Zm-6.62.3v5.8l3.14-2.9Zm-5.86-2.07a.54.54,0,0,0,.75-.2l3.25-5.7,5.53-3.11,5.53,3.11,3.23,5.69a.54.54,0,0,0,.48.29.53.53,0,0,0,.27-.08.54.54,0,0,0,.21-.75l-3.3-5.83a.53.53,0,0,0-.21-.21l-5.94-3.35a.57.57,0,0,0-.54,0l-5.94,3.35a.53.53,0,0,0-.21.21l-3.32,5.82a.56.56,0,0,0,.21.76m10,5,3.15-2.9v5.8Z"/><path class="cls-3" d="M5.35,295.78V241.57c0-23.4,17.33-42.37,38.69-42.37h3.58c21.36,0,38.69,19,38.69,42.37v54.21Z"/><rect class="cls-4" x="5.35" y="237.64" width="80.96" height="58.15"/><line class="cls-5" x1="5.35" y1="237.63" x2="86.31" y2="237.63"/><path class="cls-4" d="M450,200.34s3.45-17.4-52.58-17.4c-52.09,0-49.91,17.4-49.91,17.4Z"/><path class="cls-2" d="M445.05,182.58c-.66-1.29-1.34-2.57-2.05-3.84-.6-.19-1.21-.36-1.82-.54l-1.82-.5-.78.44.41-1.55-1.34-.35-.72,2.87-.7.43c.07-.31.15-.62.23-.93l.24.06c-.35-1.13-.71-2.25-1.09-3.38.16-.66.31-1.31.46-2l-.71-.17c-.06.27-.13.55-.19.82q-.81-2.34-1.69-4.68c-.44.44-.87.89-1.3,1.34.17-.84.33-1.68.5-2.51l-.88-.19-.72,3.66-1.61-.32c-.17.94-.35,1.87-.52,2.81-.58.63-1.15,1.27-1.71,1.9l-.87-.84c-.18-.49-.37-1-.55-1.46l-.55-.09-.55-.1-.29.36-.68-.11c.14-.89.27-1.77.4-2.66l-1.45-.22c-.13.89-.25,1.77-.38,2.66l-.9-.13c.08-.55.15-1.11.22-1.66-.74-.11-1.48-.21-2.23-.3-.06.55-.13,1.11-.2,1.66l-.91-.11-.24-.55-.55-.06-.56-.06c-.11.16-.23.31-.35.47l-.75-.08.27-2.82-.73-.07c-.08.94-.17,1.88-.26,2.82l-1.2-.11.06-.75-1.46-.12-.09,1.26c-.88.49-1.76,1-2.62,1.51l.93.06-.09,1.29-1.49-1.11c-.2-.39-.39-.79-.6-1.18l-.45,0-.45,0-.06.1-1.32-.92c-.82.49-1.64,1-2.45,1.48,0-.84,0-1.68,0-2.53l-1.32,0,0,3.35h0c-.25.17-.51.33-.77.49q0-4.6,0-9.22h.25l-.87-.84c0-.52,0-1,0-1.54h-.73c0,.28,0,.56,0,.84l-1-1c0-.32,0-.64,0-1h-.74V163l-1.76-1.59c-.68.67-1.35,1.35-2,2,0-.35,0-.7,0-1l-1.49.06c0,.82.09,1.64.13,2.46l-1.41,1.51h.25q.26,4.08.49,8.16c-.8-.68-1.62-1.35-2.44-2l-1.8.13-1.8.16c-.79.89-1.57,1.79-2.33,2.69-.2-1.67-.4-3.35-.59-5l.24,0c-1-.78-2-1.54-3-2.3l-.62-1.61-.32,0-.32,0-.05.57-1.22-.89c-.49.63-1,1.27-1.46,1.91h0l-1.34.22c.08.43.15.87.23,1.31-.51.69-1,1.38-1.49,2.08l.24,0c.31,1.74.63,3.48.94,5.23-.72-.33-1.45-.65-2.18-1l-2,.39q-4.86,1-9.65,2.29c-.58.67-1.16,1.35-1.73,2l-.42-1.41.9-.26-2.51-.76-1-1-.53.16-.52.17c0,.12-.05.25-.08.37l-1.56.5-.36.12c-.3-.9-.6-1.79-.91-2.69l-.77.26c.31.89.61,1.79.92,2.68l-.86.29-.36-1-2.11.74.84,2.3.06.88c-.05.17-.09.34-.13.51q1.71,4.62,3.4,9.25c2.76-1,5.54-1.9,8.35-2.72l.11,0a136.7,136.7,0,0,1,14.64-3.38l.35-.06q3.88-.66,7.8-1.1h.08c2.61-.29,5.24-.5,7.86-.64l.37,0q4-.19,8-.16h0c2.79,0,5.59.13,8.38.33l.23,0a136.4,136.4,0,0,1,15,1.92h0c2.86.53,5.72,1.15,8.55,1.87l.22.05c2.75.7,5.49,1.48,8.22,2.36.82-2.6,1.64-5.19,2.45-7.79l.24.08"/><path class="cls-32" d="M373.38,182.14a1,1,0,0,0-1.18-.72,1,1,0,0,0-.8,1.12c.22,1,.44,2.05.65,3.07l1.94-.4c-.2-1-.41-2.05-.61-3.07"/><path class="cls-32" d="M366.24,183.73a1,1,0,0,0-1.95.51l.81,3,1.92-.5-.78-3"/><path class="cls-32" d="M374.45,178l-1.83.35c.15.73.3,1.46.44,2.19.6-.12,1.2-.24,1.8-.34-.13-.74-.27-1.47-.41-2.2"/><path class="cls-32" d="M370.69,178.72l-1.82.4c.17.73.34,1.45.5,2.17l1.79-.39c-.15-.72-.31-1.45-.47-2.18"/><path class="cls-32" d="M367,179.55l-1.81.45c.19.72.37,1.44.56,2.16l1.78-.44c-.18-.72-.35-1.44-.53-2.17"/><path class="cls-32" d="M363.44,180.45l-1.8.49c.21.72.41,1.43.61,2.15l1.78-.49c-.2-.71-.39-1.43-.59-2.15"/><path class="cls-32" d="M363.38,184.79l-1.33.37c.16.55.32,1.09.47,1.63l1.31-.36-.45-1.64"/><path class="cls-32" d="M369.6,183.24l-1.35.31c.14.55.27,1.1.4,1.65l1.32-.31c-.12-.55-.25-1.1-.37-1.65"/><path class="cls-32" d="M375.91,182l-1.35.25c.11.55.21,1.11.32,1.66l1.34-.24c-.11-.56-.21-1.11-.31-1.67"/><path class="cls-32" d="M382.74,171.19l-2.32.3c.12.89.25,1.78.38,2.67l2.28-.29c-.11-.89-.23-1.78-.34-2.68"/><path class="cls-32" d="M383.22,175l-2.26.29c.12.89.25,1.78.37,2.68l2.22-.29-.33-2.68"/><path class="cls-32" d="M383.7,178.89l-2.2.28c.12.89.24,1.79.37,2.68l2.16-.28-.33-2.68"/><path class="cls-32" d="M378.48,171.76l-2.31.37c.15.88.3,1.77.46,2.66.75-.13,1.51-.24,2.27-.36l-.42-2.67"/><path class="cls-32" d="M379.07,175.57l-2.25.35.45,2.66,2.21-.34c-.13-.89-.27-1.78-.41-2.67"/><path class="cls-32" d="M379.66,179.43c-.73.11-1.46.22-2.19.35.15.88.3,1.77.44,2.66l2.16-.34c-.14-.89-.27-1.78-.41-2.67"/><path class="cls-32" d="M391.37,175.51l-1.41.09c.06.73.12,1.46.17,2.19l1.39-.09-.15-2.19"/><path class="cls-32" d="M391.59,179.33l-1.37.09.21,2.83,1.35-.1c-.06-.94-.13-1.88-.19-2.82"/><path class="cls-32" d="M388,179.6l-1.37.13c.1.94.19,1.88.29,2.82l1.34-.13c-.09-.94-.17-1.88-.26-2.82"/><path class="cls-32" d="M387.68,175.79l-1.41.13c.08.73.15,1.46.23,2.18l1.38-.12c-.07-.73-.13-1.46-.2-2.19"/><path class="cls-32" d="M359.14,180.43a1,1,0,0,0-1.93.59c.22.68.43,1.35.64,2l1.91-.58c-.21-.68-.41-1.36-.62-2"/><path class="cls-32" d="M356.38,181.28a1,1,0,0,0-1.25-.59,1,1,0,0,0-.66,1.21c.23.68.45,1.35.68,2l1.9-.61c-.23-.68-.45-1.36-.67-2"/><path class="cls-32" d="M353.67,182.17a1,1,0,0,0-1.27-.56,1,1,0,0,0-.64,1.23l.72,2,1.89-.65c-.24-.67-.47-1.35-.7-2"/><path class="cls-32" d="M359.51,184.79a1,1,0,0,0-1.94.61c.34,1,.68,2.1,1,3.15l1.91-.59-1-3.17"/><path class="cls-32" d="M356,185.91a1.06,1.06,0,0,0-1.29-.61,1,1,0,0,0-.64,1.27l1.09,3.12,1.89-.64L356,185.91"/><path class="cls-32" d="M398.66,166.23h1.9c0,.71,0,1.41,0,2.12H398.7c0-.71,0-1.41,0-2.12"/><path class="cls-32" d="M396.06,166.29l1.9,0c0,.71,0,1.41.05,2.12l-1.87,0c0-.7-.05-1.41-.08-2.11"/><path class="cls-32" d="M393.49,166.38l1.9-.07c0,.7.05,1.41.08,2.11l-1.87.08c0-.71-.07-1.41-.11-2.12"/><path class="cls-32" d="M398.74,170.53h1.85c0,.7,0,1.41,0,2.11h-1.82c0-.7,0-1.41,0-2.11"/><path class="cls-32" d="M396.22,170.58l1.85,0c0,.7,0,1.41,0,2.11l-1.82,0c0-.7,0-1.41-.07-2.11"/><path class="cls-32" d="M393.72,170.67l1.84-.07c0,.7.06,1.41.08,2.11l-1.81.08c0-.71-.08-1.41-.11-2.12"/><path class="cls-32" d="M398.82,174.81h1.79c0,.71,0,1.42,0,2.12h-1.77l0-2.12"/><path class="cls-32" d="M396.37,174.86l1.79,0c0,.71,0,1.42,0,2.12l-1.76,0c0-.7-.05-1.41-.07-2.12"/><path class="cls-32" d="M393.94,175l1.79-.07c0,.71,0,1.41.08,2.12l-1.77.07c0-.71-.07-1.41-.1-2.12"/><path class="cls-32" d="M425.48,177.15a1,1,0,0,0-2-.33c-.1.66-.2,1.33-.31,2l2,.34.33-2"/><path class="cls-32" d="M422.61,176.68a1,1,0,0,0-.88-1,1,1,0,0,0-1.13.75c-.1.67-.19,1.33-.28,2l2,.29c.09-.67.19-1.33.29-2"/><path class="cls-32" d="M419.75,176.27a1,1,0,0,0-.9-1,1,1,0,0,0-1.11.77l-.24,2,2,.26c.08-.67.17-1.34.25-2"/><path class="cls-32" d="M416.88,175.92a1,1,0,0,0-.92-1,1,1,0,0,0-1.1.78c-.07.67-.13,1.34-.2,2l2,.21c.07-.66.14-1.33.22-2"/><path class="cls-32" d="M414,175.62a1,1,0,0,0-.94-1,1,1,0,0,0-1.08.81l-.15,2,2,.17.18-2"/><path class="cls-32" d="M424.8,181.2a1,1,0,0,0-.83-1,1,1,0,0,0-1.12.73c-.11.66-.21,1.32-.32,2l1.93.32c.11-.66.23-1.32.34-2"/><path class="cls-32" d="M422,180.74a1,1,0,0,0-.85-1,1,1,0,0,0-1.1.75c-.09.66-.19,1.33-.28,2l1.94.28c.1-.66.19-1.33.29-2"/><path class="cls-32" d="M419.23,180.35a1,1,0,0,0-.87-1,1,1,0,0,0-1.09.77l-.24,2,1.94.25c.09-.67.17-1.34.26-2"/><path class="cls-32" d="M416.43,180a1,1,0,0,0-2-.21c-.06.67-.13,1.34-.2,2,.65.06,1.3.13,1.94.21.08-.67.15-1.34.22-2"/><path class="cls-32" d="M413.63,179.71a1,1,0,0,0-.91-1,1,1,0,0,0-1.06.81l-.15,2,1.94.17.18-2"/><path class="cls-32" d="M409.4,176.33q-1.14-.08-2.28-.12c0,.9-.07,1.8-.11,2.7.75,0,1.49.07,2.23.12.05-.9.11-1.8.16-2.7"/><path class="cls-32" d="M405.23,176.13l-2.27,0c0,.9,0,1.8,0,2.7l2.23.05c0-.9.05-1.8.08-2.7"/><path class="cls-32" d="M443.63,182.09l-1.28-.39-.42,1.45,1.26.38c.14-.48.29-1,.44-1.44"/><path class="cls-32" d="M440.86,181.26l-1.28-.36c-.13.48-.26,1-.4,1.45l1.27.36c.14-.48.27-1,.41-1.45"/><path class="cls-32" d="M438.15,180.51l-1.28-.34c-.12.49-.24,1-.37,1.46l1.27.34c.13-.49.26-1,.38-1.46"/><path class="cls-32" d="M438.2,184.9a1.12,1.12,0,0,0-.7-1.36,1.1,1.1,0,0,0-1.27.83c-.21.82-.42,1.63-.64,2.45l1.94.53c.22-.82.45-1.64.67-2.45"/><path class="cls-32" d="M442,186a1.11,1.11,0,0,0-.66-1.38,1.1,1.1,0,0,0-1.29.79c-.24.81-.47,1.63-.71,2.44l1.93.58c.24-.81.49-1.62.73-2.43"/><path class="cls-32" d="M435,178.92c-.8-.2-1.6-.38-2.4-.56-.2.93-.41,1.86-.61,2.79l2.35.55.66-2.78"/><path class="cls-32" d="M434,182.88c-.77-.19-1.55-.37-2.32-.54-.21.93-.42,1.86-.62,2.79l2.28.54.66-2.79"/><path class="cls-32" d="M430.57,177.92l-2.41-.49c-.17.94-.35,1.88-.53,2.82l2.36.47c.2-.93.39-1.87.58-2.8"/><path class="cls-32" d="M429.75,181.91l-2.34-.47-.54,2.81c.77.15,1.53.3,2.3.47.19-.94.38-1.87.58-2.81"/><path class="cls-32" d="M433.46,174.26a1.1,1.1,0,0,0-.9-1.17,1.07,1.07,0,0,0-1.28.7c-.14.7-.29,1.39-.43,2.09l2.16.47.45-2.09"/><rect class="cls-33" x="403.58" y="244.1" width="34.79" height="2.85"/><path class="cls-33" d="M403.61,239.86c0,.23.1.42.25.43a.24.24,0,0,0,.21-.11.31.31,0,0,0,.13.06.29.29,0,0,0,.24-.3.25.25,0,0,0,0-.08h0a.24.24,0,0,0,.09-.06.17.17,0,0,0,.1,0c.1,0,.19-.12.19-.26a.19.19,0,0,0,0-.08c.08,0,.14-.14.14-.29a.36.36,0,0,0-.08-.25v0a.27.27,0,0,0,0-.13.31.31,0,0,0,.06-.19.22.22,0,0,0,0-.08c.08,0,.14-.14.14-.29A.36.36,0,0,0,405,238v0c0-.17-.09-.3-.2-.3h0c0-.12-.09-.21-.18-.21s-.09,0-.13.09c0-.16-.14-.27-.26-.26h0c0-.15-.12-.26-.23-.26s-.16.09-.19.21a.17.17,0,0,0-.1,0c-.11,0-.19.15-.19.31a.39.39,0,0,0,.08.22h0l-.05,0a.19.19,0,0,0-.16.16.12.12,0,0,0-.08,0c-.09,0-.17.1-.17.24a.34.34,0,0,0,0,.17c-.1,0-.18.11-.18.25s.07.24.16.25v.08a.4.4,0,0,0,.14.33.24.24,0,0,0-.08.21.3.3,0,0,0,.05.18v0c0,.12.07.22.15.22h0c0,.08.07.15.13.15s.09-.05.11-.12l0,0v0"/><path class="cls-33" d="M403,244.77c.22,0,.4-.23.48-.53a.41.41,0,0,0,.24.08c.28,0,.49-.38.47-.8A1,1,0,0,0,404,243h0a.31.31,0,0,0,.13,0c.18,0,.33-.16.41-.4a.32.32,0,0,0,.19.07c.23,0,.41-.28.41-.62a.81.81,0,0,0-.12-.43c.25,0,.45-.3.45-.66a.61.61,0,0,0-.4-.64,1.21,1.21,0,0,0,0-.19,1.07,1.07,0,0,0-.36-.86.6.6,0,0,0,.22-.52.77.77,0,0,0-.14-.47v-.05c0-.3-.16-.55-.37-.55h0c0-.22-.15-.39-.31-.39s-.23.12-.28.29l-.07,0v-.08c0-.6-.25-1.09-.63-1.11a.6.6,0,0,0-.53.3.39.39,0,0,0-.3-.16c-.31,0-.58.32-.6.75a.74.74,0,0,0,0,.21l0,0a.49.49,0,0,0-.22.17.36.36,0,0,0-.24-.09c-.26,0-.48.3-.48.68a1.36,1.36,0,0,0,0,.2c-.2.05-.35.36-.35.74a1.07,1.07,0,0,0,.19.65v.06a1.16,1.16,0,0,0,.05.34.94.94,0,0,0-.14.49,1.23,1.23,0,0,0,0,.19c-.19.05-.35.37-.35.75a1,1,0,0,0,.2.64.17.17,0,0,0,0,.07c0,.43.24.77.52.77h.05c.05.31.22.54.43.54a.4.4,0,0,0,.33-.23c.1.4.36.69.65.67h.06c.08.38.31.66.57.65"/><path class="cls-33" d="M402.88,241.88a.19.19,0,0,0,.15.08c.16,0,.29-.16.31-.37a.41.41,0,0,0,0-.11h0a.19.19,0,0,0,.1-.08.21.21,0,0,0,.13.05c.13,0,.24-.16.24-.34a.31.31,0,0,0,0-.1c.1,0,.18-.18.18-.37a.51.51,0,0,0-.1-.32v0a.47.47,0,0,0,0-.17.38.38,0,0,0,.08-.24s0-.07,0-.1.17-.18.17-.37a.52.52,0,0,0-.09-.31v0c0-.21-.12-.38-.27-.38h0c0-.15-.11-.27-.22-.27a.21.21,0,0,0-.17.12c-.05-.2-.18-.34-.33-.34h0c0-.19-.15-.33-.29-.33s-.2.12-.24.27a.17.17,0,0,0-.12,0c-.14,0-.25.18-.24.39a.44.44,0,0,0,.09.27h0a.08.08,0,0,0-.07,0c-.09,0-.16.08-.2.2a.18.18,0,0,0-.1,0c-.11,0-.21.14-.21.31a.41.41,0,0,0,.07.22c-.13,0-.23.14-.23.32a.31.31,0,0,0,.2.32s0,.06,0,.09a.53.53,0,0,0,.19.43c-.07,0-.11.13-.11.26a.33.33,0,0,0,.07.23v0c0,.15.09.28.19.28h0c0,.11.08.2.16.2s.12-.06.15-.15l0,0v0c0,.29.12.54.32.55a.32.32,0,0,0,.27-.15"/><path class="cls-33" d="M401.17,243.53a.24.24,0,0,0,.16.07c.15,0,.29-.15.3-.37v-.1h0a.31.31,0,0,0,.11-.09.18.18,0,0,0,.12.05c.14,0,.25-.15.25-.34,0,0,0-.07,0-.1s.17-.18.17-.37a.46.46,0,0,0-.1-.31v0a.47.47,0,0,0,0-.17.43.43,0,0,0,.07-.24.28.28,0,0,0,0-.09c.1,0,.18-.18.18-.37a.47.47,0,0,0-.1-.32v0c0-.21-.12-.38-.26-.38h0c0-.15-.11-.26-.22-.26a.19.19,0,0,0-.16.11c-.05-.2-.18-.34-.33-.33h0c0-.19-.16-.33-.29-.32s-.2.11-.24.26a.2.2,0,0,0-.13,0c-.14,0-.25.18-.24.4a.58.58,0,0,0,.09.27h0l-.07,0c-.09,0-.17.08-.2.2a.19.19,0,0,0-.1,0c-.12,0-.21.13-.21.3a.38.38,0,0,0,.06.22c-.13,0-.23.15-.23.32a.3.3,0,0,0,.2.32v.1a.49.49,0,0,0,.18.42.29.29,0,0,0-.11.26.37.37,0,0,0,.07.23v0c0,.16.08.28.19.28h0c0,.11.08.19.15.19s.12-.06.15-.14h0v0c0,.3.13.54.32.55a.31.31,0,0,0,.27-.14"/><path class="cls-33" d="M402.26,244.26a.23.23,0,0,0,.16.08c.15,0,.29-.16.3-.37a.41.41,0,0,0,0-.11h0a.14.14,0,0,1,.23,0c.14,0,.25-.15.25-.34a.31.31,0,0,0,0-.1c.1,0,.17-.18.17-.37a.51.51,0,0,0-.09-.32v0a.47.47,0,0,0,0-.17.36.36,0,0,0,.07-.24.38.38,0,0,0,0-.1c.1,0,.18-.18.18-.37a.46.46,0,0,0-.1-.31v0c0-.21-.11-.38-.26-.38h0c0-.15-.12-.27-.22-.27a.21.21,0,0,0-.17.12c-.05-.2-.18-.34-.33-.34h0c0-.19-.16-.33-.29-.33s-.2.12-.24.27a.19.19,0,0,0-.12,0c-.15,0-.25.18-.24.39a.44.44,0,0,0,.09.27h0l-.07,0c-.09,0-.17.08-.2.2a.18.18,0,0,0-.1,0c-.12,0-.21.14-.21.31a.4.4,0,0,0,.06.22c-.12,0-.23.14-.22.32a.3.3,0,0,0,.2.32.28.28,0,0,0,0,.09.52.52,0,0,0,.19.43.27.27,0,0,0-.12.26.39.39,0,0,0,.07.23v0c0,.15.09.28.19.28h0c0,.11.08.19.16.19s.12-.06.14-.15l0,0s0,0,0,0c0,.29.13.54.33.55a.29.29,0,0,0,.26-.15"/><path class="cls-33" d="M401.68,240.31a.24.24,0,0,0,.16.07c.15,0,.29-.15.3-.37v-.1h0a.23.23,0,0,0,.11-.09.21.21,0,0,0,.12.05c.14,0,.25-.15.25-.34,0,0,0-.07,0-.1s.17-.18.17-.37a.52.52,0,0,0-.09-.31v0a.51.51,0,0,0,0-.17.43.43,0,0,0,.07-.24.28.28,0,0,0,0-.09c.1,0,.18-.18.18-.37a.49.49,0,0,0-.1-.32v0c0-.22-.11-.39-.26-.39h0c0-.15-.11-.26-.22-.26a.19.19,0,0,0-.16.11c-.05-.2-.18-.34-.33-.33h0c0-.19-.16-.33-.29-.32s-.2.11-.24.26a.19.19,0,0,0-.12,0c-.15,0-.26.19-.25.4a.49.49,0,0,0,.1.27h0l-.07,0c-.09,0-.17.08-.2.2a.19.19,0,0,0-.1,0c-.12,0-.21.13-.21.3a.38.38,0,0,0,.06.22c-.12,0-.23.15-.23.32a.3.3,0,0,0,.2.32v.1a.52.52,0,0,0,.18.42.29.29,0,0,0-.11.26.37.37,0,0,0,.07.23v0c0,.16.08.28.19.28h0a.19.19,0,0,0,.16.19.17.17,0,0,0,.14-.14l0,0a0,0,0,0,0,0,0c0,.3.13.54.33.56a.34.34,0,0,0,.26-.15"/><path class="cls-33" d="M402.65,239.68a.3.3,0,0,0,.16.08.36.36,0,0,0,.3-.37v-.11h0a.21.21,0,0,0,.11-.08.25.25,0,0,0,.12,0c.14,0,.25-.15.25-.34,0,0,0-.06,0-.09s.17-.18.17-.37a.47.47,0,0,0-.1-.32s0,0,0,0a.41.41,0,0,0,0-.16.45.45,0,0,0,.07-.24.31.31,0,0,0,0-.1c.1,0,.18-.18.18-.37a.49.49,0,0,0-.1-.32v0c0-.21-.12-.39-.26-.39h0c0-.16-.11-.27-.22-.27a.19.19,0,0,0-.16.11c-.05-.2-.18-.34-.33-.33h0c0-.19-.16-.33-.29-.32s-.2.11-.24.26a.28.28,0,0,0-.12,0c-.15,0-.26.19-.25.4a.54.54,0,0,0,.09.27h0l-.07,0c-.09,0-.17.09-.2.2a.19.19,0,0,0-.1,0c-.12,0-.21.14-.21.3a.36.36,0,0,0,.06.22.3.3,0,0,0-.23.32.3.3,0,0,0,.2.32v.1a.49.49,0,0,0,.18.42.3.3,0,0,0-.11.26.37.37,0,0,0,.07.23v0c0,.15.08.27.19.27h0c0,.11.08.19.15.19a.17.17,0,0,0,.15-.14l0,0s0,0,0,0c0,.29.13.54.32.55a.32.32,0,0,0,.27-.15"/><path class="cls-33" d="M401.82,242.93a.23.23,0,0,0,.18.09c.17,0,.33-.18.34-.42v-.12h0a.22.22,0,0,0,.12-.09.24.24,0,0,0,.14.05c.16,0,.28-.17.28-.38a.37.37,0,0,0,0-.11c.11,0,.2-.21.2-.42a.57.57,0,0,0-.11-.36v0a.58.58,0,0,0,0-.19.48.48,0,0,0,.08-.27.37.37,0,0,0,0-.11c.11,0,.2-.21.2-.42a.59.59,0,0,0-.11-.36v0c0-.24-.13-.43-.3-.43h0c0-.17-.12-.3-.24-.3a.22.22,0,0,0-.19.12c-.06-.22-.21-.38-.37-.37h0c0-.21-.18-.37-.33-.36s-.23.12-.27.29a.23.23,0,0,0-.14,0c-.16,0-.28.21-.27.45a.47.47,0,0,0,.1.3h0a.11.11,0,0,0-.08,0,.27.27,0,0,0-.23.22.21.21,0,0,0-.11,0c-.13,0-.23.16-.23.35a.38.38,0,0,0,.07.24c-.15,0-.26.17-.26.37a.34.34,0,0,0,.23.36.41.41,0,0,0,0,.11.59.59,0,0,0,.21.48.32.32,0,0,0-.13.29.38.38,0,0,0,.08.26v0c0,.17.1.31.21.31h0c0,.12.09.22.17.22s.14-.07.17-.17l0,0v0c0,.33.15.61.37.62a.35.35,0,0,0,.3-.17"/><path class="cls-33" d="M401.87,241.91a.25.25,0,0,0,.17.08c.17,0,.32-.17.34-.41a.37.37,0,0,0,0-.11h0a.35.35,0,0,0,.12-.1.15.15,0,0,0,.13,0c.15,0,.27-.16.27-.37a.45.45,0,0,0,0-.11c.11,0,.19-.19.19-.4a.56.56,0,0,0-.1-.35v0a.48.48,0,0,0,0-.18.48.48,0,0,0,.08-.27s0-.07,0-.11.19-.19.19-.4a.51.51,0,0,0-.11-.35v0c0-.23-.13-.42-.28-.42h0c0-.17-.13-.29-.24-.29a.22.22,0,0,0-.19.12.42.42,0,0,0-.36-.37h0c-.05-.21-.18-.37-.32-.36a.34.34,0,0,0-.27.29.2.2,0,0,0-.13,0c-.16,0-.28.2-.27.43a.63.63,0,0,0,.1.3h0l-.07,0c-.1,0-.19.09-.23.23a.14.14,0,0,0-.1,0c-.13,0-.23.15-.23.33a.43.43,0,0,0,.06.24c-.14,0-.25.16-.25.36a.4.4,0,0,1,.22.45.56.56,0,0,0,.2.47.32.32,0,0,0-.12.29.44.44,0,0,0,.07.25v0c0,.17.1.31.21.31h0c0,.12.09.21.17.21s.14-.07.17-.16l0,0v0c0,.33.14.6.36.61a.35.35,0,0,0,.29-.16"/><path class="cls-33" d="M401.18,241.25c0,.23.1.43.26.43a.25.25,0,0,0,.21-.11.2.2,0,0,0,.12.06c.13,0,.23-.13.24-.29v-.09h0l.09-.06a.14.14,0,0,0,.09,0,.24.24,0,0,0,.2-.26s0,0,0-.08.14-.14.14-.29a.36.36,0,0,0-.08-.25v0a.51.51,0,0,0,0-.13.31.31,0,0,0,.06-.19s0,0,0-.08.14-.14.14-.29a.36.36,0,0,0-.08-.25v0c0-.16-.09-.3-.2-.3h0c0-.12-.08-.21-.17-.21a.17.17,0,0,0-.13.09c0-.16-.14-.27-.26-.26h0c0-.15-.13-.26-.23-.25s-.16.08-.19.2a.17.17,0,0,0-.1,0c-.11,0-.2.15-.19.32a.38.38,0,0,0,.07.21H401a.19.19,0,0,0-.17.15l-.07,0c-.09,0-.17.1-.17.24a.31.31,0,0,0,.05.17c-.1,0-.18.11-.18.25a.25.25,0,0,0,.16.26v.07a.4.4,0,0,0,.14.33.25.25,0,0,0-.09.21.3.3,0,0,0,.06.18v0c0,.12.06.22.15.22h0c0,.08.06.15.12.15s.1,0,.12-.12l0,0v0"/><path class="cls-33" d="M400.43,239.88c0,.16.07.29.17.29a.13.13,0,0,0,.14-.08.14.14,0,0,0,.08,0,.18.18,0,0,0,.16-.2v-.05h0a.1.1,0,0,0,.05,0l.07,0c.07,0,.13-.08.13-.18a.43.43,0,0,1,0-.05s.09-.09.09-.19a.29.29,0,0,0-.05-.17h0a.28.28,0,0,1,0-.22.11.11,0,0,0,0,0s.09-.09.09-.19a.29.29,0,0,0-.05-.17v0c0-.11-.06-.2-.13-.2h0c0-.08-.06-.14-.11-.14a.1.1,0,0,0-.09.06c0-.11-.09-.18-.17-.18h0c0-.1-.08-.17-.15-.17s-.1.06-.12.14l-.07,0a.18.18,0,0,0-.12.21.33.33,0,0,0,0,.14h0c-.05,0-.09,0-.11.11s0,0-.05,0-.11.07-.11.16a.2.2,0,0,0,0,.11c-.06,0-.12.08-.12.17a.2.2,0,0,0,.11.17v0a.3.3,0,0,0,.09.22s-.05.07-.05.13a.19.19,0,0,0,0,.12v0c0,.08.05.14.1.14h0c0,.06,0,.1.08.1s.07,0,.08-.08h0v0"/><path class="cls-33" d="M403.78,243c.05,0,.09,0,.1-.12s0,0,.05,0,.11-.08.1-.18a.14.14,0,0,0,0-.11h0s.07,0,.09-.09h0c.05,0,.09-.07.08-.14a.17.17,0,0,0,0-.1c.06,0,.1-.07.09-.14a.13.13,0,0,0-.09-.14v0a.21.21,0,0,0-.1-.18.15.15,0,0,0,0-.12.19.19,0,0,0,0-.1h0c0-.07,0-.12-.09-.12h0c0-.05,0-.08-.07-.08s-.05,0-.06.07h0v0c0-.13-.07-.23-.16-.23a.15.15,0,0,0-.11.07.09.09,0,0,0-.07,0c-.07,0-.13.08-.13.17s0,0,0,.05h0l0,0h-.06c-.06,0-.1.07-.1.15s0,0,0,0-.07.08-.07.16a.38.38,0,0,0,.05.14v0a.19.19,0,0,0,0,.07.2.2,0,0,0,0,.11v0s-.07.08-.07.17a.38.38,0,0,0,.05.14h0c0,.09.07.17.13.16h0c0,.07.06.12.1.11a.08.08,0,0,0,.07,0c0,.09.09.15.16.14h0c0,.08.08.14.14.13"/><rect class="cls-33" x="403.86" y="225.39" width="34.18" height="19.69"/><polygon class="cls-33" points="404.29 219.05 426.53 219.05 419.94 226.52 403.68 226.52 404.29 219.05"/><polygon class="cls-33" points="410.33 216.13 412.49 216.13 412.49 221.99 410.35 221.91 410.33 216.13"/><polygon class="cls-33" points="419.81 225.97 420.17 226.34 429.55 215.91 438.77 226.41 439.15 226.03 429.87 215.37 429.41 215.37 419.81 225.97"/><polygon class="cls-33" points="420.81 233.81 420.81 225.56 429.6 215.58 438.02 225.37 438.02 233.81 420.81 233.81"/><rect class="cls-33" x="403.58" y="242.42" width="34.75" height="2.66"/><polygon class="cls-33" points="407.35 243.23 407.35 247 408.06 247 408.06 243.23 407.71 242.61 407.35 243.23"/><polygon class="cls-33" points="406.33 243.23 406.33 247 407.05 247 407.05 243.23 406.7 242.61 406.33 243.23"/><polygon class="cls-33" points="405.32 243.23 405.32 247 406.04 247 406.04 243.23 405.69 242.61 405.32 243.23"/><polygon class="cls-33" points="404.31 243.23 404.31 247 405.02 247 405.02 243.23 404.68 242.61 404.31 243.23"/><polygon class="cls-33" points="403.3 243.23 403.3 247 404.01 247 404.01 243.23 403.67 242.61 403.3 243.23"/><polygon class="cls-33" points="402.29 243.23 402.29 247 403 247 403 243.23 402.66 242.61 402.29 243.23"/><polygon class="cls-33" points="401.28 243.23 401.28 247 401.99 247 401.99 243.23 401.65 242.61 401.28 243.23"/><polygon class="cls-33" points="400.27 243.23 400.27 247 400.98 247 400.98 243.23 400.64 242.61 400.27 243.23"/><polygon class="cls-33" points="399.26 243.23 399.26 247 399.97 247 399.97 243.23 399.63 242.61 399.26 243.23"/><polygon class="cls-33" points="398.25 243.23 398.25 247 398.96 247 398.96 243.23 398.62 242.61 398.25 243.23"/><polygon class="cls-33" points="397.24 243.23 397.24 247 397.95 247 397.95 243.23 397.61 242.61 397.24 243.23"/><polygon class="cls-33" points="396.23 243.23 396.23 247 396.94 247 396.94 243.23 396.6 242.61 396.23 243.23"/><polygon class="cls-33" points="395.22 243.23 395.22 247 395.93 247 395.93 243.23 395.59 242.61 395.22 243.23"/><polygon class="cls-33" points="394.21 243.23 394.21 247 394.92 247 394.92 243.23 394.58 242.61 394.21 243.23"/><polygon class="cls-33" points="393.2 243.23 393.2 247 393.91 247 393.91 243.23 393.57 242.61 393.2 243.23"/><polygon class="cls-33" points="392.19 243.23 392.19 247 392.9 247 392.9 243.23 392.56 242.61 392.19 243.23"/><polygon class="cls-33" points="391.18 243.23 391.18 247 391.89 247 391.89 243.23 391.55 242.61 391.18 243.23"/><rect class="cls-33" x="391.18" y="243.82" width="16.87" height="0.41"/><rect class="cls-33" x="391.18" y="246.19" width="16.87" height="0.41"/><polygon class="cls-33" points="446.45 243.35 446.45 246.93 447.13 246.93 447.13 243.35 446.8 242.76 446.45 243.35"/><polygon class="cls-33" points="445.49 243.35 445.49 246.93 446.17 246.93 446.17 243.35 445.84 242.76 445.49 243.35"/><polygon class="cls-33" points="444.53 243.35 444.53 246.93 445.21 246.93 445.21 243.35 444.88 242.76 444.53 243.35"/><polygon class="cls-33" points="443.57 243.35 443.57 246.93 444.25 246.93 444.25 243.35 443.92 242.76 443.57 243.35"/><polygon class="cls-33" points="442.61 243.35 442.61 246.93 443.28 246.93 443.28 243.35 442.95 242.76 442.61 243.35"/><polygon class="cls-33" points="441.65 243.35 441.65 246.93 442.32 246.93 442.32 243.35 441.99 242.76 441.65 243.35"/><polygon class="cls-33" points="440.69 243.35 440.69 246.93 441.36 246.93 441.36 243.35 441.03 242.76 440.69 243.35"/><polygon class="cls-33" points="439.72 243.35 439.72 246.93 440.4 246.93 440.4 243.35 440.07 242.76 439.72 243.35"/><polygon class="cls-33" points="438.76 243.35 438.76 246.93 439.44 246.93 439.44 243.35 439.11 242.76 438.76 243.35"/><polygon class="cls-33" points="437.8 243.35 437.8 246.93 438.48 246.93 438.48 243.35 438.15 242.76 437.8 243.35"/><polygon class="cls-33" points="436.84 243.35 436.84 246.93 437.52 246.93 437.52 243.35 437.19 242.76 436.84 243.35"/><polygon class="cls-33" points="435.88 243.35 435.88 246.93 436.56 246.93 436.56 243.35 436.23 242.76 435.88 243.35"/><polygon class="cls-33" points="434.92 243.35 434.92 246.93 435.6 246.93 435.6 243.35 435.26 242.76 434.92 243.35"/><polygon class="cls-33" points="433.96 243.35 433.96 246.93 434.63 246.93 434.63 243.35 434.31 242.76 433.96 243.35"/><polygon class="cls-33" points="433 243.35 433 246.93 433.67 246.93 433.67 243.35 433.34 242.76 433 243.35"/><polygon class="cls-33" points="432.04 243.35 432.04 246.93 432.71 246.93 432.71 243.35 432.38 242.76 432.04 243.35"/><polygon class="cls-33" points="431.08 243.35 431.08 246.93 431.75 246.93 431.75 243.35 431.42 242.76 431.08 243.35"/><rect class="cls-33" x="431.08" y="243.91" width="16.05" height="0.39"/><rect class="cls-33" x="431.08" y="246.16" width="16.05" height="0.39"/><rect class="cls-32" x="409.53" y="227.55" width="1.67" height="2.53"/><rect class="cls-32" x="407.43" y="227.55" width="1.67" height="2.53"/><rect class="cls-32" x="409.53" y="230.48" width="1.67" height="2.53"/><rect class="cls-32" x="407.43" y="230.48" width="1.67" height="2.53"/><rect class="cls-32" x="409.53" y="236.15" width="1.67" height="2.53"/><rect class="cls-32" x="407.43" y="236.15" width="1.67" height="2.53"/><rect class="cls-32" x="409.53" y="239.08" width="1.67" height="2.53"/><rect class="cls-32" x="407.43" y="239.08" width="1.67" height="2.53"/><rect class="cls-32" x="426.25" y="236.15" width="1.67" height="2.53"/><rect class="cls-32" x="424.15" y="236.15" width="1.67" height="2.53"/><rect class="cls-32" x="426.25" y="239.08" width="1.67" height="2.53"/><rect class="cls-32" x="424.15" y="239.08" width="1.67" height="2.53"/><rect class="cls-32" x="433.62" y="236.15" width="1.67" height="2.53"/><rect class="cls-32" x="431.52" y="236.15" width="1.67" height="2.53"/><rect class="cls-32" x="433.62" y="239.08" width="1.67" height="2.53"/><rect class="cls-32" x="431.52" y="239.08" width="1.67" height="2.53"/><rect class="cls-32" x="416.93" y="227.55" width="1.67" height="2.53"/><rect class="cls-32" x="414.83" y="227.55" width="1.67" height="2.53"/><rect class="cls-32" x="416.93" y="230.48" width="1.67" height="2.53"/><rect class="cls-32" x="414.83" y="230.48" width="1.67" height="2.53"/><rect class="cls-32" x="426.55" y="227.95" width="1.42" height="2.15"/><rect class="cls-32" x="424.76" y="227.95" width="1.42" height="2.15"/><rect class="cls-32" x="426.55" y="230.45" width="1.42" height="2.15"/><rect class="cls-32" x="424.76" y="230.45" width="1.42" height="2.15"/><rect class="cls-32" x="433.86" y="227.95" width="1.42" height="2.15"/><rect class="cls-32" x="432.07" y="227.95" width="1.42" height="2.15"/><rect class="cls-32" x="433.86" y="230.45" width="1.42" height="2.15"/><rect class="cls-32" x="432.07" y="230.45" width="1.42" height="2.15"/><rect class="cls-30" x="259.13" y="246.34" width="190.88" height="12.58"/><path class="cls-34" d="M443.43,253.8H243.16c-3.29,0-6.56-1.26-8.3-3.72-2.58-3.65-1.69-8.64-1.66-9.29V229.15h2V241s-.24,4.41,1.86,7.37a7,7,0,0,0,6.09,2.85H440.7V235.56h2.73Z"/><rect class="cls-3" x="193.83" y="229.1" width="48.68" height="18.64"/><path class="cls-2" d="M342.74,237.09a.81.81,0,0,0,.31,0,.91.91,0,0,0,.91-.91h.22a.92.92,0,0,0,1.83,0h.22a.92.92,0,0,0,1.83,0h.22a.92.92,0,0,0,1.83,0h.22a.92.92,0,0,0,1.83,0h.22a.91.91,0,0,0,.91.91h.17v-2h-.17a1.13,1.13,0,0,1-1-.64,1.15,1.15,0,0,1-1,.64,1.13,1.13,0,0,1-1-.64,1.15,1.15,0,0,1-1,.64,1.14,1.14,0,0,0-2.05,0,1.13,1.13,0,0,0-2,0,1.14,1.14,0,0,1-1-.64,1.13,1.13,0,0,1-1,.64m0-11.5a.91.91,0,0,0,.91-.91h.22a.92.92,0,0,0,1.83,0h.22a.92.92,0,0,0,1.83,0h.22a.92.92,0,0,0,1.83,0h.22a.92.92,0,0,0,1.83,0h.22a.91.91,0,0,0,.91.91l.17,0v-2.87a5.36,5.36,0,0,0-10.72,0v2.84a1.06,1.06,0,0,0,.31.05m9.22-.42a1.15,1.15,0,0,1-1,.64,1.13,1.13,0,0,1-1-.64,1.15,1.15,0,0,1-1,.64,1.14,1.14,0,0,0-2.05,0,1.13,1.13,0,0,0-2,0,1.14,1.14,0,0,1-1-.64,1.13,1.13,0,0,1-1,.64,1.06,1.06,0,0,1-.31,0v2a.81.81,0,0,0,.31.05A.91.91,0,0,0,344,225h.22a.92.92,0,0,0,1.83,0h.22a.92.92,0,0,0,1.83,0h.22a.92.92,0,0,0,1.83,0h.22a.92.92,0,0,0,1.83,0h.22a.91.91,0,0,0,.91.91h.17v-2h-.17a1.13,1.13,0,0,1-1-.64m1,14.18a1.13,1.13,0,0,1-1-.65,1.16,1.16,0,0,1-1,.65,1.13,1.13,0,0,1-1-.65,1.16,1.16,0,0,1-1,.65,1.13,1.13,0,0,0-2.05,0,1.13,1.13,0,0,0-2,0,1.15,1.15,0,0,1-1-.65,1.13,1.13,0,0,1-1,.65,1.55,1.55,0,0,1-.31,0v9h10.72v-9h-.17m-1-9.67a1.15,1.15,0,0,1-1,.64,1.13,1.13,0,0,1-1-.64,1.15,1.15,0,0,1-1,.64,1.14,1.14,0,0,0-2.05,0,1.13,1.13,0,0,0-2,0,1.14,1.14,0,0,1-1-.64,1.13,1.13,0,0,1-1,.64,1.06,1.06,0,0,1-.31,0v2a1.06,1.06,0,0,0,.31,0,.92.92,0,0,0,.91-.92h.22a.92.92,0,1,0,1.83,0h.22a.92.92,0,1,0,1.83,0h.22a.92.92,0,1,0,1.83,0h.22a.92.92,0,1,0,1.83,0h.22a.92.92,0,0,0,.91.92l.17,0v-2h-.17a1.13,1.13,0,0,1-1-.64m0-2.26a1.16,1.16,0,0,1-1,.65,1.13,1.13,0,0,1-1-.65,1.16,1.16,0,0,1-1,.65,1.13,1.13,0,0,0-2.05,0,1.13,1.13,0,0,0-2,0,1.15,1.15,0,0,1-1-.65,1.13,1.13,0,0,1-1,.65,1.55,1.55,0,0,1-.31,0v2a1.06,1.06,0,0,0,.31.05.91.91,0,0,0,.91-.91h.22a.92.92,0,0,0,1.83,0h.22a.92.92,0,0,0,1.83,0h.22a.92.92,0,0,0,1.83,0h.22a.92.92,0,0,0,1.83,0h.22a.91.91,0,0,0,.91.91h.17v-2h-.17a1.13,1.13,0,0,1-1-.65M344,231.72h.22a.92.92,0,0,0,1.83,0h.22a.92.92,0,0,0,1.83,0h.22a.92.92,0,0,0,1.83,0h.22a.92.92,0,0,0,1.83,0h.22a.91.91,0,0,0,.91.91h.17v-2h-.17a1.12,1.12,0,0,1-1-.65,1.14,1.14,0,0,1-1,.65,1.12,1.12,0,0,1-1-.65,1.14,1.14,0,0,1-1,.65,1.13,1.13,0,0,0-2.05,0,1.13,1.13,0,0,0-2,0,1.13,1.13,0,0,1-1-.65,1.12,1.12,0,0,1-1,.65,1.06,1.06,0,0,1-.31,0v2a1.06,1.06,0,0,0,.31,0,.91.91,0,0,0,.91-.91m0,2.26h.22a.92.92,0,0,0,1.83,0h.22a.92.92,0,0,0,1.83,0h.22a.92.92,0,0,0,1.83,0h.22a.92.92,0,0,0,1.83,0h.22a.91.91,0,0,0,.91.91l.17,0v-2l-.17,0a1.13,1.13,0,0,1-1-.65,1.16,1.16,0,0,1-1,.65,1.13,1.13,0,0,1-1-.65,1.16,1.16,0,0,1-1,.65,1.13,1.13,0,0,0-2.05,0,1.13,1.13,0,0,0-2,0,1.15,1.15,0,0,1-1-.65,1.13,1.13,0,0,1-1,.65,1.06,1.06,0,0,1-.31-.05v2a1.06,1.06,0,0,0,.31,0A.91.91,0,0,0,344,234m29.6-9.12h-2.33v3.67h2.33Zm4.65,5.21h-2.34v3.68h2.34Zm-9.29,0h-2.34v3.68h2.34Zm.22,15.85h6.52l-3.26-3.21Zm7.12-7L373,242.12l3.27,3.22Zm-7.73,6.43,3.27-3.22-3.27-3.21Zm3.87-3.8,3.26-3.21h-6.52Zm6.37-12h-3.45v4.79h3.45Zm-4.65-5.21h-3.45v4.79h3.45Zm-4.64,5.21H366v4.79h3.45Zm15.93,2.61v14.22h-8.32v-8h1v-1.39h-11.4v1.39h1v8H355.21V237h4.17v-4.86l6.12-8,6.9-3.41,6.89,3.41Zm-27.72.56-1.1-.85,7.28-9.5,8.53-4.21,8.53,4.21,7.27,9.5-1.1.85L380,223.43l-7.62-3.76-7.63,3.76Z"/><rect class="cls-2" x="342.74" y="222.2" width="10.71" height="19.34"/><path class="cls-2" d="M229.6,190.76H229l1.34,3.32-.24.63a1.32,1.32,0,0,1-.24.43.47.47,0,0,1-.39.16.78.78,0,0,1-.35-.08l0,.45.21,0h.21a.9.9,0,0,0,.66-.23,1.75,1.75,0,0,0,.37-.6l1.64-4.13h-.56l-1,2.71Zm-.82,0h-.94v-.92h-.47v.92h-.69v.42h.69v2.07a1.12,1.12,0,0,0,.08.44.67.67,0,0,0,.2.26.66.66,0,0,0,.26.14l.28,0a1.46,1.46,0,0,0,.62-.12l0-.43-.23.1-.25,0-.19,0a.38.38,0,0,1-.15-.09.39.39,0,0,1-.1-.18,1.26,1.26,0,0,1,0-.3v-1.93h.94Zm-2.81,0h-.46V194H226Zm0-1.5a.34.34,0,0,0-.23-.1.37.37,0,0,0-.23.1.34.34,0,0,0,0,.48.37.37,0,0,0,.23.1.34.34,0,0,0,.23-.1.32.32,0,0,0,0-.48m-1.17,2a1.65,1.65,0,0,0-.55-.42,1.62,1.62,0,0,0-.65-.14,1.68,1.68,0,0,0-.72.12,1.75,1.75,0,0,0-.55.36,1.57,1.57,0,0,0-.35.55,2.22,2.22,0,0,0,0,1.38,1.67,1.67,0,0,0,.35.55,1.75,1.75,0,0,0,.55.36,1.85,1.85,0,0,0,.72.12,1.62,1.62,0,0,0,.65-.14,1.69,1.69,0,0,0,.55-.43l-.38-.28a1,1,0,0,1-.33.3.9.9,0,0,1-.49.13,1.19,1.19,0,0,1-.51-.09,1.23,1.23,0,0,1-.39-.27,1.27,1.27,0,0,1-.25-.42,1.73,1.73,0,0,1,0-1,1.27,1.27,0,0,1,.25-.42,1,1,0,0,1,.39-.27,1.06,1.06,0,0,1,.51-.09,1,1,0,0,1,.49.12,1.1,1.1,0,0,1,.33.31Zm-3.88-.48h-.46V194h.46Zm0-1.5a.31.31,0,0,0-.46,0,.32.32,0,0,0,0,.48.31.31,0,0,0,.46,0,.32.32,0,0,0,0-.48M218.08,194h.46v-1.85a1.12,1.12,0,0,1,.06-.35,1,1,0,0,1,.19-.34.88.88,0,0,1,.31-.26,1,1,0,0,1,.46-.1.88.88,0,0,1,.26,0l.09-.45a1.18,1.18,0,0,0-.34,0,1.14,1.14,0,0,0-.39.06,1.4,1.4,0,0,0-.3.15,1.14,1.14,0,0,0-.22.22,1.1,1.1,0,0,0-.14.26h0v-.61h-.46c0,.24,0,.43,0,.58s0,.3,0,.44Zm-.68-3.28h-1v-.92H216v.92h-.69v.42H216v2.07a1.12,1.12,0,0,0,.08.44.67.67,0,0,0,.2.26.6.6,0,0,0,.26.14,1.31,1.31,0,0,0,.27,0,1.51,1.51,0,0,0,.63-.12l0-.43-.23.1-.25,0-.19,0a.38.38,0,0,1-.15-.09.39.39,0,0,1-.1-.18,1.21,1.21,0,0,1,0-.3v-1.93h1Zm-2.3.48a1.59,1.59,0,0,0-.56-.42,1.57,1.57,0,0,0-.64-.14,1.69,1.69,0,0,0-1.27.48,1.57,1.57,0,0,0-.35.55,2,2,0,0,0,0,1.38,1.67,1.67,0,0,0,.35.55,1.64,1.64,0,0,0,.55.36,1.82,1.82,0,0,0,.72.12,1.57,1.57,0,0,0,.64-.14,1.62,1.62,0,0,0,.56-.43l-.38-.28a1,1,0,0,1-.33.3.92.92,0,0,1-.49.13,1.27,1.27,0,0,1-.52-.09,1.19,1.19,0,0,1-.38-.27,1.27,1.27,0,0,1-.25-.42,1.73,1.73,0,0,1,0-1,1.27,1.27,0,0,1,.25-.42.94.94,0,0,1,.38-.27,1.12,1.12,0,0,1,.52-.09,1,1,0,0,1,.49.12,1.1,1.1,0,0,1,.33.31Zm-3.61,1.28v-.21a1.89,1.89,0,0,0-.1-.63,1.5,1.5,0,0,0-1.47-1,1.57,1.57,0,0,0-.65.13,1.43,1.43,0,0,0-.52.36,1.53,1.53,0,0,0-.35.54,1.73,1.73,0,0,0-.13.69,1.68,1.68,0,0,0,.13.68,1.73,1.73,0,0,0,.35.55,1.7,1.7,0,0,0,.54.36,1.68,1.68,0,0,0,.68.13,1.71,1.71,0,0,0,.75-.16,1.79,1.79,0,0,0,.65-.53l-.35-.3a1.43,1.43,0,0,1-.41.4,1.22,1.22,0,0,1-.64.17,1.15,1.15,0,0,1-.83-.34,1.23,1.23,0,0,1-.26-.37,1.48,1.48,0,0,1-.12-.47Zm-2.71-.37a.93.93,0,0,1,.09-.4,1.24,1.24,0,0,1,.62-.57,1.26,1.26,0,0,1,.43-.08,1,1,0,0,1,.79.29,1.06,1.06,0,0,1,.28.76Zm-1.45-3.41h-.47V194h.47Zm-4.05,2.95h2.4v-.46h-2.4v-1.69h2.57v-.46h-3.07v5h3.15v-.47h-2.65Z"/><path class="cls-2" d="M156.27,219.16V219a1.89,1.89,0,0,0-.1-.63,1.44,1.44,0,0,0-.31-.52,1.37,1.37,0,0,0-.49-.35,1.59,1.59,0,0,0-.66-.14,1.76,1.76,0,0,0-.66.13,1.73,1.73,0,0,0-.52.36,1.67,1.67,0,0,0-.35.55,1.87,1.87,0,0,0,0,1.37,1.87,1.87,0,0,0,.36.55,1.66,1.66,0,0,0,.53.36,1.87,1.87,0,0,0,.68.13,2,2,0,0,0,.76-.16,1.78,1.78,0,0,0,.64-.54l-.35-.29a1.43,1.43,0,0,1-.41.4,1.22,1.22,0,0,1-.64.17,1.14,1.14,0,0,1-.46-.09,1.34,1.34,0,0,1-.37-.25,1.28,1.28,0,0,1-.26-.38,1.73,1.73,0,0,1-.12-.46Zm-2.71-.38a.92.92,0,0,1,.09-.39,1.15,1.15,0,0,1,.25-.33,1.31,1.31,0,0,1,.37-.24,1.12,1.12,0,0,1,.44-.09,1,1,0,0,1,1.06,1.05Zm-4.27-1.38,0,.38c0,.14,0,.25,0,.34v2.55h.46V219a1.5,1.5,0,0,1,.14-.7,1.07,1.07,0,0,1,.32-.37.8.8,0,0,1,.34-.16l.2,0a.79.79,0,0,1,.7.29,1.64,1.64,0,0,1,.18.84v1.81h.47v-2.08a1.34,1.34,0,0,0-.3-.94,1.2,1.2,0,0,0-.94-.34,1.25,1.25,0,0,0-.32.05,1.2,1.2,0,0,0-.31.13,1,1,0,0,0-.27.19.88.88,0,0,0-.19.24h0v-.26a2.28,2.28,0,0,0,0-.26Zm-1.07,0h-.47v3.27h.47Zm0-1.5a.32.32,0,0,0-.23-.1.33.33,0,0,0-.24.1.34.34,0,0,0,0,.48.36.36,0,0,0,.24.09.35.35,0,0,0,.23-.09.34.34,0,0,0,0-.48m-4.94,5.8a1.94,1.94,0,0,0,.7.49,2.23,2.23,0,0,0,.88.16,2.05,2.05,0,0,0,.89-.16,1.69,1.69,0,0,0,.54-.42,1.51,1.51,0,0,0,.26-.56,2.89,2.89,0,0,0,.06-.56V217.4h-.46v.54h0a2.23,2.23,0,0,0-.3-.31,1.86,1.86,0,0,0-.33-.19,1.39,1.39,0,0,0-.33-.1l-.31,0a1.82,1.82,0,0,0-.67.13,1.61,1.61,0,0,0-.52.36,1.73,1.73,0,0,0-.35.54,1.86,1.86,0,0,0-.13.67,1.59,1.59,0,0,0,.14.66,1.66,1.66,0,0,0,.36.53,1.93,1.93,0,0,0,.54.35,1.85,1.85,0,0,0,.67.12,1.56,1.56,0,0,0,.68-.14,1.23,1.23,0,0,0,.55-.47h0v.59a1.68,1.68,0,0,1-.07.5,1.07,1.07,0,0,1-.21.41,1.08,1.08,0,0,1-.4.27,1.49,1.49,0,0,1-.59.1,1.6,1.6,0,0,1-.73-.16,1.62,1.62,0,0,1-.53-.44Zm.52-3.19a1.38,1.38,0,0,1,.26-.4,1.28,1.28,0,0,1,.87-.38,1.19,1.19,0,0,1,.51.11,1,1,0,0,1,.4.27,1.15,1.15,0,0,1,.24.4,1.28,1.28,0,0,1,.09.48,1.42,1.42,0,0,1-.09.52,1.13,1.13,0,0,1-.27.4,1.28,1.28,0,0,1-.4.25,1.36,1.36,0,0,1-.48.09,1.06,1.06,0,0,1-.48-.1,1.36,1.36,0,0,1-.39-.27,1.53,1.53,0,0,1-.26-.4,1.3,1.3,0,0,1-.09-.49,1.28,1.28,0,0,1,.09-.48m-4.35-1.11c0,.12,0,.25,0,.38s0,.25,0,.34v2.55h.46V219a1.5,1.5,0,0,1,.14-.7,1.19,1.19,0,0,1,.32-.37.8.8,0,0,1,.34-.16l.2,0a.79.79,0,0,1,.7.29,1.63,1.63,0,0,1,.19.84v1.81h.46v-2.08a1.34,1.34,0,0,0-.3-.94,1.17,1.17,0,0,0-.93-.34,1.26,1.26,0,0,0-.33.05,1.2,1.2,0,0,0-.31.13,1,1,0,0,0-.27.19.88.88,0,0,0-.19.24h0v-.26a2.28,2.28,0,0,0,0-.26Zm-3.45.93h2.4v-.46H136v-1.69h2.57v-.46H135.5v4.95h3.15v-.46H136Z"/><path class="cls-2" d="M225.35,237.64h-.94v-.92H224v.92h-.7v.42h.7v2.07a1.1,1.1,0,0,0,.07.44.79.79,0,0,0,.2.27.71.71,0,0,0,.26.13l.28,0a1.46,1.46,0,0,0,.62-.12l0-.42a1.57,1.57,0,0,1-.23.09,1.07,1.07,0,0,1-.25,0,.58.58,0,0,1-.19,0,.38.38,0,0,1-.15-.09.5.5,0,0,1-.1-.18,1.12,1.12,0,0,1,0-.29v-1.94h.94Zm-3.46,1.27-.64,0a2.42,2.42,0,0,0-.67.14,1.24,1.24,0,0,0-.52.34,1,1,0,0,0-.11,1,1.05,1.05,0,0,0,.25.3,1.22,1.22,0,0,0,.36.18,1.54,1.54,0,0,0,.43.06,1.38,1.38,0,0,0,.67-.14,1.34,1.34,0,0,0,.48-.47h0c0,.09,0,.18,0,.27a2,2,0,0,0,0,.26h.44c0-.09,0-.2,0-.34a2.75,2.75,0,0,1,0-.4v-1.46a1.38,1.38,0,0,0-.1-.52,1.19,1.19,0,0,0-.26-.36,1.17,1.17,0,0,0-.38-.21,1.43,1.43,0,0,0-.46-.07A1.85,1.85,0,0,0,220,238l.28.32a1.49,1.49,0,0,1,1-.38.75.75,0,0,1,.84.85v.08Zm.24.38v.24a1.4,1.4,0,0,1-.06.41,1,1,0,0,1-.19.33.9.9,0,0,1-.31.23,1,1,0,0,1-.44.08l-.27,0a.63.63,0,0,1-.25-.1.54.54,0,0,1-.18-.19.51.51,0,0,1-.07-.28.47.47,0,0,1,.17-.38,1,1,0,0,1,.42-.21,2.61,2.61,0,0,1,.5-.08,3.63,3.63,0,0,1,.44,0Zm-2.94.12v-.21a1.91,1.91,0,0,0-.11-.64,1.47,1.47,0,0,0-.8-.87,1.56,1.56,0,0,0-.66-.13,1.57,1.57,0,0,0-.65.13,1.77,1.77,0,0,0-.53.36,1.73,1.73,0,0,0-.35.55,1.87,1.87,0,0,0-.12.68,1.92,1.92,0,0,0,.12.69,1.7,1.7,0,0,0,.36.54,1.47,1.47,0,0,0,.53.36,1.72,1.72,0,0,0,.68.13,1.79,1.79,0,0,0,.76-.16,1.75,1.75,0,0,0,.65-.53l-.36-.29a1.19,1.19,0,0,1-.41.39,1.11,1.11,0,0,1-.64.17,1.18,1.18,0,0,1-.46-.09,1.15,1.15,0,0,1-.37-.25,1.21,1.21,0,0,1-.25-.37,1.25,1.25,0,0,1-.12-.46Zm-2.72-.38a.86.86,0,0,1,.09-.39,1.23,1.23,0,0,1,.26-.34,1.2,1.2,0,0,1,.8-.32,1.06,1.06,0,0,1,.78.29,1,1,0,0,1,.28.76Zm-5.22,1.89h.5v-2.35h2.7v2.35H215v-5h-.51v2.15h-2.7V236h-.5Z"/><path class="cls-2" d="M59.68,224.21c.09-.55.4-.89.86-.89a.89.89,0,0,1,.87.89Zm1,3a2.6,2.6,0,0,0,2.14-1l-1-.8a1.47,1.47,0,0,1-1.09.51,1,1,0,0,1-1.07-.82H63c0-.12,0-.24,0-.35a2.43,2.43,0,0,0-2.48-2.7,2.47,2.47,0,0,0-2.49,2.58v0a2.49,2.49,0,0,0,2.64,2.56m-6.08-1.89a1,1,0,0,1-1-.95h0a1,1,0,0,1,2,0v0a1,1,0,0,1-1,.95m-.1,3.25a2.84,2.84,0,0,0,2.16-.7,2.57,2.57,0,0,0,.64-2v-3.75H55.58v.58A2,2,0,0,0,54,222a2.15,2.15,0,0,0-2.13,2.3v0a2.15,2.15,0,0,0,2.19,2.28,1.89,1.89,0,0,0,1.52-.74v.2c0,.78-.43,1.21-1.29,1.21a3.33,3.33,0,0,1-1.72-.47L52,228a5.26,5.26,0,0,0,2.47.57m-5.86-2.45a.55.55,0,0,1-.61-.54v0c0-.37.29-.61.8-.61a1.75,1.75,0,0,1,.68.13v.22a.8.8,0,0,1-.87.82M48,227.19a1.9,1.9,0,0,0,1.46-.63v.52H51.2v-2.83a2.06,2.06,0,0,0-.53-1.57,2.55,2.55,0,0,0-1.88-.6,5,5,0,0,0-2,.38l.36,1.21a3.84,3.84,0,0,1,1.37-.27c.66,0,1,.29,1,.81v.08a3.51,3.51,0,0,0-1.18-.19c-1.16,0-1.94.52-1.94,1.55v0A1.5,1.5,0,0,0,48,227.19M43,227.08h1.73v-1.54c0-1.13.51-1.65,1.41-1.65h.15v-1.82a1.51,1.51,0,0,0-1.56,1.07v-1H43Zm-3.45-1.35a1.07,1.07,0,0,1-1-1.11v0a1,1,0,0,1,1-1.1,1.08,1.08,0,0,1,1.06,1.12v0a1,1,0,0,1-1,1.09m0,1.47a2.63,2.63,0,0,0,2.74-2.58v0a2.72,2.72,0,0,0-5.44,0v0a2.6,2.6,0,0,0,2.7,2.56m-4.34,0a2.5,2.5,0,0,0,1.2-.29v-1.35a1.53,1.53,0,0,1-.66.16c-.32,0-.47-.14-.47-.49v-1.68h1.15v-1.38H35.21V220.9H33.49v1.25H32.9v1.38h.59v2a1.44,1.44,0,0,0,1.65,1.63m-5.21,0c1.55,0,2.58-.77,2.58-2.08v0c0-1.19-.91-1.66-2.37-2-.89-.2-1.11-.33-1.11-.62v0c0-.24.21-.41.64-.41a3.11,3.11,0,0,1,1.78.63l.89-1.25a4,4,0,0,0-2.63-.85c-1.53,0-2.47.86-2.47,2v0c0,1.3,1.05,1.69,2.41,2,.87.21,1.08.34,1.08.62v0c0,.27-.25.43-.73.43a3.29,3.29,0,0,1-2.07-.76l-1,1.17a4.5,4.5,0,0,0,3,1.06"/><path class="cls-2" d="M51.94,216.25c1.21,0,2-.56,2-1.65v0c0-1-.78-1.29-1.75-1.56-.51-.16-.81-.25-.81-.44v0c0-.15.14-.25.41-.25a3.26,3.26,0,0,1,1.45.47l.6-1.09a3.85,3.85,0,0,0-2-.58c-1.14,0-2,.58-2,1.63v0c0,1,.77,1.31,1.75,1.57.52.14.8.23.8.43v0c0,.17-.15.26-.45.26a3.1,3.1,0,0,1-1.68-.57l-.65,1a3.86,3.86,0,0,0,2.32.74m-5.38-1.08a.55.55,0,0,1-.62-.54v0c0-.37.3-.61.8-.61a1.75,1.75,0,0,1,.68.13v.23a.79.79,0,0,1-.86.81m-.63,1.08a1.87,1.87,0,0,0,1.46-.63v.52H49.1v-2.83a2.06,2.06,0,0,0-.53-1.57,2.54,2.54,0,0,0-1.88-.6,4.86,4.86,0,0,0-2,.38l.35,1.21a3.84,3.84,0,0,1,1.37-.27c.66,0,1,.29,1,.81v.08a3.51,3.51,0,0,0-1.18-.19c-1.16,0-1.93.52-1.93,1.55v0a1.49,1.49,0,0,0,1.64,1.52m-5.15,0a4.3,4.3,0,0,0,2.77-1v-2.86H40.62v1.29h1.25v.77A1.8,1.8,0,0,1,39.12,213v0a1.67,1.67,0,0,1,1.63-1.74,2.25,2.25,0,0,1,1.54.6l1-1.26a3.75,3.75,0,0,0-2.59-.92A3.31,3.31,0,0,0,37.31,213v0a3.28,3.28,0,0,0,3.47,3.3"/><path class="cls-7" d="M61.26,270.91H63v-1.54c0-1.13.51-1.65,1.41-1.65h.14V265.9A1.5,1.5,0,0,0,63,267v-1H61.26ZM57.17,268c.09-.54.4-.89.86-.89a.89.89,0,0,1,.86.89Zm1,3a2.6,2.6,0,0,0,2.14-1l-1-.79a1.51,1.51,0,0,1-1.09.5,1,1,0,0,1-1.07-.81h3.3c0-.12,0-.25,0-.36A2.42,2.42,0,0,0,58,265.88a2.47,2.47,0,0,0-2.49,2.57v0A2.48,2.48,0,0,0,58.18,271m-4.28,0a2.39,2.39,0,0,0,1.2-.29v-1.34a1.52,1.52,0,0,1-.65.16c-.32,0-.48-.15-.48-.49v-1.68h1.15V266H54v-1.24H52.25V266h-.58v1.39h.58v2A1.44,1.44,0,0,0,53.9,271m-4.59,0c1.2,0,2-.56,2-1.64v0c0-1-.78-1.3-1.75-1.57-.51-.16-.8-.25-.8-.44v0c0-.14.13-.24.4-.24a3.26,3.26,0,0,1,1.46.46l.59-1.09a3.82,3.82,0,0,0-2-.58c-1.14,0-2,.59-2,1.63v0c0,1,.77,1.32,1.75,1.57.52.15.8.23.8.43v0c0,.17-.14.26-.45.26a3.17,3.17,0,0,1-1.68-.56l-.65,1a4,4,0,0,0,2.33.73m-6.05-3c.09-.54.4-.89.86-.89A.9.9,0,0,1,45,268Zm1,3a2.6,2.6,0,0,0,2.14-1l-1-.79a1.51,1.51,0,0,1-1.09.5,1,1,0,0,1-1.07-.81h3.3c0-.12,0-.25,0-.36a2.42,2.42,0,0,0-2.48-2.69,2.47,2.47,0,0,0-2.49,2.57v0A2.48,2.48,0,0,0,44.27,271m-6.08-1.88a1,1,0,0,1-1-.95v0a1,1,0,0,1,2,0v0a1,1,0,0,1-1,1m-.11,3.24a2.89,2.89,0,0,0,2.17-.69,2.61,2.61,0,0,0,.64-2V266H39.16v.59a2,2,0,0,0-1.55-.69,2.15,2.15,0,0,0-2.13,2.29v0a2.15,2.15,0,0,0,2.19,2.29,1.92,1.92,0,0,0,1.52-.74v.19c0,.78-.43,1.21-1.29,1.21a3.43,3.43,0,0,1-1.72-.46l-.56,1.15a5.34,5.34,0,0,0,2.46.56M33,270.91h1.72V266H33Zm0-5.37h1.79v-1.28H32.93Zm-4.41.55a1.58,1.58,0,0,1,1.77,1.63h0a1.57,1.57,0,0,1-1.77,1.62H27.8v-3.26ZM26,270.91h2.43c2.29,0,3.63-1.36,3.63-3.2v0c0-1.84-1.33-3.15-3.6-3.15H26Z"/><path class="cls-7" d="M67.19,260.09A2.45,2.45,0,0,0,69.38,259l-1.16-.84a1.15,1.15,0,0,1-1,.51,1,1,0,0,1-1-1.12v0a1,1,0,0,1,1-1.11,1.1,1.1,0,0,1,.92.52l1.17-.87a2.33,2.33,0,0,0-2.1-1.09,2.55,2.55,0,0,0-2.64,2.57h0a2.54,2.54,0,0,0,2.58,2.56M62.11,260h1.72v-4.93H62.11Zm0-5.38h1.79v-1.28H62.07Zm-3.46,4a1.05,1.05,0,0,1-1-1.12v0a1,1,0,1,1,2,0v0a1,1,0,0,1-1,1.12m.52,1.45a2.32,2.32,0,0,0,2.18-2.58v0a2.31,2.31,0,0,0-2.19-2.55,1.81,1.81,0,0,0-1.49.76v-2.38H55.9V260h1.73v-.6a1.87,1.87,0,0,0,1.5.71m-6.68-1.46a1.07,1.07,0,0,1-1.05-1.11v0a1,1,0,0,1,1-1.11,1.08,1.08,0,0,1,1.06,1.13h0a1,1,0,0,1-1,1.1m0,1.46a2.62,2.62,0,0,0,2.74-2.57v0a2.72,2.72,0,0,0-5.44,0h0a2.59,2.59,0,0,0,2.7,2.56M46.11,260h1.73v-1.54c0-1.13.51-1.65,1.41-1.65h.15V255A1.52,1.52,0,0,0,47.84,256v-1H46.11ZM42,257.11c.09-.55.4-.9.85-.9s.8.35.87.9Zm1,3a2.58,2.58,0,0,0,2.13-1l-1-.79a1.44,1.44,0,0,1-1.09.5,1,1,0,0,1-1.07-.81h3.3c0-.12,0-.25,0-.36a2.42,2.42,0,0,0-2.48-2.69,2.47,2.47,0,0,0-2.49,2.58h0A2.49,2.49,0,0,0,43,260.09M37.16,259a.54.54,0,0,1-.61-.54h0c0-.38.29-.62.79-.62A1.91,1.91,0,0,1,38,258v.23a.79.79,0,0,1-.86.81m-.62,1.09a1.92,1.92,0,0,0,1.46-.63V260h1.7v-2.84a2.05,2.05,0,0,0-.53-1.57,2.54,2.54,0,0,0-1.88-.6,4.88,4.88,0,0,0-2,.39l.35,1.21a3.64,3.64,0,0,1,1.37-.28c.67,0,1,.3,1,.82v.08a3.57,3.57,0,0,0-1.19-.19c-1.16,0-1.93.52-1.93,1.55h0a1.5,1.5,0,0,0,1.65,1.53M29.35,260h1.73v-2.67c0-.55.31-.84.73-.84s.7.29.7.84V260h1.72v-3.23a1.61,1.61,0,0,0-1.67-1.81,1.82,1.82,0,0,0-1.48.8v-.69H29.35Zm-4.83-2.53.72-1.8.72,1.8ZM21.7,260h1.85l.46-1.15h2.47l.45,1.15h1.9l-2.72-6.43h-1.7Z"/><path class="cls-7" d="M404.69,110.32h1.73v-1.54c0-1.13.51-1.65,1.41-1.65H408v-1.82a1.51,1.51,0,0,0-1.56,1.07v-1h-1.73Zm-4.09-2.87c.09-.55.4-.9.86-.9a.9.9,0,0,1,.87.9Zm1,3a2.58,2.58,0,0,0,2.14-1l-1-.79a1.46,1.46,0,0,1-1.09.5,1,1,0,0,1-1.07-.81h3.3c0-.12,0-.25,0-.35a2.43,2.43,0,0,0-2.48-2.7,2.47,2.47,0,0,0-2.49,2.58v0a2.48,2.48,0,0,0,2.64,2.56m-4.28,0a2.5,2.5,0,0,0,1.2-.29v-1.35a1.52,1.52,0,0,1-.65.16c-.32,0-.48-.14-.48-.49v-1.68h1.15v-1.38H397.4v-1.25h-1.72v1.25h-.58v1.38h.58v2a1.44,1.44,0,0,0,1.65,1.63m-4.59,0c1.2,0,2-.57,2-1.65v0c0-1-.77-1.3-1.75-1.57-.51-.15-.8-.24-.8-.44h0c0-.15.13-.25.4-.25a3.26,3.26,0,0,1,1.46.46l.59-1.09a3.87,3.87,0,0,0-2-.57c-1.14,0-2,.58-2,1.63v0c0,1,.77,1.31,1.75,1.56.52.15.8.23.8.43v0c0,.17-.14.27-.44.27a3.19,3.19,0,0,1-1.69-.57l-.65,1a4,4,0,0,0,2.33.74m-6.05-3c.09-.55.4-.9.86-.9a.9.9,0,0,1,.87.9Zm1,3a2.58,2.58,0,0,0,2.14-1l-1-.79a1.46,1.46,0,0,1-1.09.5,1,1,0,0,1-1.07-.81H390c0-.12,0-.25,0-.35a2.42,2.42,0,0,0-2.48-2.7,2.47,2.47,0,0,0-2.49,2.58v0a2.49,2.49,0,0,0,2.64,2.56m-6.08-1.89a1,1,0,0,1-1-1v0a1,1,0,0,1,2,0v0a1,1,0,0,1-1,1m-.1,3.24a2.88,2.88,0,0,0,2.17-.69,2.64,2.64,0,0,0,.63-2v-3.74h-1.73V106a2,2,0,0,0-1.55-.69,2.15,2.15,0,0,0-2.13,2.29v0a2.15,2.15,0,0,0,2.2,2.29,1.91,1.91,0,0,0,1.51-.74v.19c0,.79-.43,1.22-1.29,1.22a3.43,3.43,0,0,1-1.72-.47l-.55,1.15a5.31,5.31,0,0,0,2.46.56m-5.13-1.47h1.73v-4.93h-1.73Zm0-5.38h1.79v-1.28h-1.79Zm-4.41.56a1.58,1.58,0,0,1,1.77,1.62v0a1.56,1.56,0,0,1-1.77,1.61h-.72V105.5Zm-2.48,4.82h2.43c2.29,0,3.63-1.37,3.63-3.21v0c0-1.84-1.32-3.15-3.59-3.15h-2.47Z"/><path class="cls-7" d="M410.12,99.5a2.46,2.46,0,0,0,2.19-1.13l-1.16-.84a1.15,1.15,0,0,1-.95.51,1,1,0,0,1-1-1.12v0a1,1,0,0,1,1-1.1,1.11,1.11,0,0,1,.92.52l1.16-.88a2.35,2.35,0,0,0-2.1-1.09,2.55,2.55,0,0,0-2.64,2.57v0a2.54,2.54,0,0,0,2.58,2.56M405,99.38h1.72V94.45H405ZM405,94h1.8V92.73H405Zm-3.46,4a1,1,0,0,1-1-1.12v0a1,1,0,1,1,2,0v0a1,1,0,0,1-1,1.12m.53,1.45a2.32,2.32,0,0,0,2.17-2.58v0a2.3,2.3,0,0,0-2.18-2.55,1.83,1.83,0,0,0-1.5.77V92.73h-1.73v6.65h1.73v-.6a1.87,1.87,0,0,0,1.51.71M395.38,98a1.06,1.06,0,0,1-1-1.11v0a1,1,0,0,1,1-1.1,1.07,1.07,0,0,1,1.05,1.12v0a1,1,0,0,1-1,1.09m0,1.47a2.63,2.63,0,0,0,2.73-2.58v0a2.72,2.72,0,0,0-5.44,0v0a2.6,2.6,0,0,0,2.71,2.56M389,99.38h1.73V97.84c0-1.13.51-1.65,1.41-1.65h.15V94.37a1.51,1.51,0,0,0-1.56,1.07v-1H389ZM385,96.51c.09-.55.4-.89.85-.89a.88.88,0,0,1,.87.89Zm1,3a2.58,2.58,0,0,0,2.13-1l-1-.8a1.44,1.44,0,0,1-1.09.5,1,1,0,0,1-1.07-.81h3.3c0-.12,0-.24,0-.35a2.42,2.42,0,0,0-2.48-2.7,2.47,2.47,0,0,0-2.48,2.58v0A2.48,2.48,0,0,0,386,99.5m-5.88-1.09a.55.55,0,0,1-.61-.54v0c0-.38.29-.61.79-.61a1.81,1.81,0,0,1,.69.13v.22a.8.8,0,0,1-.87.82m-.62,1.08a1.92,1.92,0,0,0,1.46-.63v.52h1.7V96.55A2,2,0,0,0,382.1,95a2.52,2.52,0,0,0-1.87-.6,5,5,0,0,0-2,.38l.36,1.21A3.74,3.74,0,0,1,380,95.7c.67,0,1,.29,1,.81v.08a3.52,3.52,0,0,0-1.19-.19c-1.16,0-1.93.52-1.93,1.55v0a1.5,1.5,0,0,0,1.65,1.52m-7.19-.11H374V96.71c0-.55.31-.84.73-.84s.7.29.7.84v2.67h1.72V96.15a1.61,1.61,0,0,0-1.67-1.81,1.84,1.84,0,0,0-1.48.8v-.69h-1.73Zm-4.82-2.52.72-1.81.71,1.81Zm-2.83,2.52h1.85l.46-1.15h2.47l.45,1.15h1.9L369,93h-1.7Z"/><path class="cls-2" d="M403.11,63.61c.1-.54.41-.89.86-.89a.9.9,0,0,1,.87.89Zm1,3a2.59,2.59,0,0,0,2.13-1l-1-.79a1.48,1.48,0,0,1-1.09.5,1,1,0,0,1-1.07-.81h3.3c0-.12,0-.25,0-.36a2.42,2.42,0,0,0-2.48-2.7A2.47,2.47,0,0,0,401.48,64v0a2.49,2.49,0,0,0,2.65,2.56M398,64.72a1,1,0,0,1-1-.95v0a1,1,0,0,1,2,0v0a1,1,0,0,1-1,1m-.1,3.24a2.92,2.92,0,0,0,2.17-.69,2.65,2.65,0,0,0,.63-2V61.55H399v.59a2,2,0,0,0-1.55-.7,2.16,2.16,0,0,0-2.13,2.3v0a2.16,2.16,0,0,0,2.2,2.29,1.91,1.91,0,0,0,1.51-.74v.19c0,.78-.43,1.21-1.29,1.21a3.43,3.43,0,0,1-1.72-.46l-.55,1.15a5.31,5.31,0,0,0,2.46.56m-5.86-2.45a.55.55,0,0,1-.61-.54v0c0-.37.3-.61.8-.61a2,2,0,0,1,.68.13v.23a.79.79,0,0,1-.87.81m-.62,1.08a1.9,1.9,0,0,0,1.46-.62v.51h1.71V63.65a2.09,2.09,0,0,0-.53-1.57,2.54,2.54,0,0,0-1.88-.6,5,5,0,0,0-2,.38l.35,1.22A3.64,3.64,0,0,1,392,62.8c.66,0,1,.29,1,.81v.09a3.48,3.48,0,0,0-1.18-.2c-1.16,0-1.93.52-1.93,1.55v0a1.49,1.49,0,0,0,1.64,1.52m-5.08-.11h1.73V64.94c0-1.13.51-1.65,1.41-1.65h.15V61.47a1.51,1.51,0,0,0-1.56,1.08v-1h-1.73Zm-3.45-1.34A1.07,1.07,0,0,1,381.88,64h0a1,1,0,0,1,1-1.11A1.07,1.07,0,0,1,384,64v0a1,1,0,0,1-1,1.1m0,1.46A2.63,2.63,0,0,0,385.65,64h0a2.72,2.72,0,0,0-5.44,0v0a2.59,2.59,0,0,0,2.7,2.56m-4.34,0a2.39,2.39,0,0,0,1.2-.29V64.94a1.41,1.41,0,0,1-.66.17c-.32,0-.47-.15-.47-.49V62.94h1.15V61.55h-1.15V60.31h-1.72v1.24h-.59v1.39h.59v2a1.44,1.44,0,0,0,1.65,1.63m-5.21,0c1.55,0,2.58-.77,2.58-2.07v0c0-1.2-.91-1.67-2.37-2-.89-.2-1.11-.33-1.11-.62v0c0-.23.21-.41.64-.41a3.11,3.11,0,0,1,1.78.63l.89-1.25a4,4,0,0,0-2.63-.84c-1.53,0-2.47.85-2.47,2h0c0,1.31,1.05,1.69,2.41,2,.88.21,1.09.35,1.09.62v0c0,.27-.26.44-.74.44a3.3,3.3,0,0,1-2.07-.77l-1,1.18a4.49,4.49,0,0,0,3,1"/><path class="cls-2" d="M394.87,55.66c1.21,0,2-.57,2-1.65v0c0-1-.78-1.3-1.75-1.57-.51-.16-.8-.25-.8-.44v0c0-.14.13-.24.4-.24a3.26,3.26,0,0,1,1.46.46l.59-1.09a3.9,3.9,0,0,0-2-.57c-1.14,0-2,.58-2,1.63h0c0,1,.77,1.32,1.75,1.57.52.15.8.23.8.43v0c0,.17-.15.26-.45.26a3.17,3.17,0,0,1-1.68-.56l-.65,1a3.93,3.93,0,0,0,2.32.74m-5.38-1.09a.54.54,0,0,1-.61-.54h0c0-.38.29-.62.79-.62a2,2,0,0,1,.68.13v.23a.79.79,0,0,1-.86.81m-.62,1.09a1.93,1.93,0,0,0,1.46-.63v.52H392V52.71a2.09,2.09,0,0,0-.53-1.57,2.54,2.54,0,0,0-1.88-.6,4.88,4.88,0,0,0-2,.39l.35,1.21a3.64,3.64,0,0,1,1.37-.28c.67,0,1,.3,1,.82v.08a3.57,3.57,0,0,0-1.19-.19c-1.16,0-1.93.52-1.93,1.55h0a1.5,1.5,0,0,0,1.65,1.53m-5.16,0a4.22,4.22,0,0,0,2.77-1V51.82h-2.93v1.29h1.25v.78a1.77,1.77,0,0,1-1,.26,1.69,1.69,0,0,1-1.73-1.78h0a1.67,1.67,0,0,1,1.63-1.75,2.19,2.19,0,0,1,1.54.61l1-1.26a3.73,3.73,0,0,0-2.59-.92,3.3,3.3,0,0,0-3.42,3.32h0a3.26,3.26,0,0,0,3.46,3.3"/><path class="cls-7" d="M112.83,69.87h.45v-.78l.6-.61L115,69.87h.52l-1.28-1.7,1.24-1.28h-.55l-1.6,1.68v-2.9h-.45Zm-3.54,0h.44V68.16a.88.88,0,0,1,.89-.93.8.8,0,0,1,.83.9v1.74h.44V68a1.08,1.08,0,0,0-1.14-1.19,1.13,1.13,0,0,0-1,.58v-.52h-.44Zm-2.37-.29c-.4,0-.74-.22-.74-.59h0c0-.38.31-.62.87-.62a2.85,2.85,0,0,1,.87.13v.28a.9.9,0,0,1-1,.81m-.08.35a1.32,1.32,0,0,0,1.08-.51v.45h.42V68.05a1.18,1.18,0,0,0-.3-.87,1.31,1.31,0,0,0-1-.33,2.46,2.46,0,0,0-1.08.25l.13.36a2.22,2.22,0,0,1,.91-.22c.56,0,.89.28.89.82v.1A3,3,0,0,0,107,68c-.75,0-1.27.34-1.27,1h0a1,1,0,0,0,1.11.93m-2.75-.06h.46V66.26h1.36v-.42h-3.17v.42h1.35Z"/><path class="cls-7" d="M121.47,62.34a1,1,0,0,1-1-1h0a1,1,0,0,1,1-1,1,1,0,0,1,1.1,1h0a1.05,1.05,0,0,1-1.1,1m0,1.55a1.53,1.53,0,0,0,1.13-.4,1.43,1.43,0,0,0,.38-1.05V60h-.44v.54a1.41,1.41,0,0,0-2.56.8v0a1.39,1.39,0,0,0,2.56.76v.35a1,1,0,0,1-1.08,1.06,1.88,1.88,0,0,1-1.14-.38l-.21.35a2.39,2.39,0,0,0,1.36.41M116.61,63h.45V61.25a.88.88,0,0,1,.89-.93.8.8,0,0,1,.82.9V63h.44V61.11a1.08,1.08,0,0,0-1.14-1.19,1.11,1.11,0,0,0-1,.58V60h-.45Zm-1.47,0h.44V60h-.44Zm0-3.63h.51v-.49h-.51ZM112.71,63h.4l1.29-3h-.48l-1,2.47-1-2.47h-.49Zm-2.47,0h.45V60h-.45Zm0-3.63h.5v-.49h-.5Zm-3.16,2a1,1,0,0,1,1-1,1,1,0,0,1,1,1Zm1,1.72a1.54,1.54,0,0,0,1.22-.56l-.27-.25a1.21,1.21,0,0,1-.94.42,1,1,0,0,1-1-1h2.36a.61.61,0,0,0,0-.14A1.42,1.42,0,0,0,108,59.92a1.47,1.47,0,0,0-1.43,1.55h0A1.48,1.48,0,0,0,108.1,63m-3.16,0a1.52,1.52,0,0,0,1.21-.58l-.28-.26a1.24,1.24,0,0,1-.91.44,1.12,1.12,0,0,1-1.1-1.16h0a1.1,1.1,0,0,1,1.07-1.15,1.18,1.18,0,0,1,.9.45l.3-.31a1.55,1.55,0,0,0-2.72,1h0A1.53,1.53,0,0,0,104.94,63m-4.49-1.72a1,1,0,0,1,1-1,1,1,0,0,1,1,1Zm1,1.72a1.54,1.54,0,0,0,1.22-.56l-.27-.25a1.21,1.21,0,0,1-.94.42,1,1,0,0,1-1-1h2.36a.61.61,0,0,0,0-.14,1.42,1.42,0,0,0-1.39-1.57A1.47,1.47,0,0,0,100,61.47h0A1.48,1.48,0,0,0,101.49,63M96.61,61V59.35h1.24c.65,0,1,.3,1,.79h0c0,.52-.43.83-1,.83Zm-.45,2h.45V61.39h1.15L98.93,63h.56l-1.24-1.65a1.17,1.17,0,0,0,1.09-1.17h0a1.11,1.11,0,0,0-.31-.8,1.59,1.59,0,0,0-1.14-.4H96.16Z"/><path class="cls-7" d="M118.16,122.93a1,1,0,0,1,1-1,1,1,0,0,1,1,1Zm1,1.72a1.54,1.54,0,0,0,1.22-.55l-.27-.25a1.24,1.24,0,0,1-.94.42,1,1,0,0,1-1-1h2.36a.66.66,0,0,0,0-.14,1.42,1.42,0,0,0-1.39-1.57,1.47,1.47,0,0,0-1.43,1.54v0a1.47,1.47,0,0,0,1.49,1.54m-3.51-.07h.44V123.4a1.2,1.2,0,0,1,1.18-1.37h0v-.47a1.26,1.26,0,0,0-1.22.83v-.78h-.44Zm-2.45.07a1.14,1.14,0,0,0,1-.58v.51h.43v-3h-.43v1.7a.89.89,0,0,1-.9.94.8.8,0,0,1-.82-.9v-1.74h-.44v1.85a1.09,1.09,0,0,0,1.14,1.19m-4.64-.07H109v-1.7a.87.87,0,0,1,.89-.93.79.79,0,0,1,.83.9v1.73h.44v-1.84a1.08,1.08,0,0,0-1.14-1.19,1.12,1.12,0,0,0-1,.58v-.52h-.44Zm-2.36-.28c-.41,0-.75-.22-.75-.6h0c0-.37.31-.61.87-.61a3.25,3.25,0,0,1,.87.12v.29a.9.9,0,0,1-1,.81m-.09.35a1.32,1.32,0,0,0,1.08-.51v.44h.42v-1.81a1.18,1.18,0,0,0-.3-.87,1.3,1.3,0,0,0-1-.33,2.47,2.47,0,0,0-1.09.25l.14.36a2,2,0,0,1,.9-.22c.56,0,.89.28.89.81v.1a3.42,3.42,0,0,0-.92-.12c-.75,0-1.27.33-1.27,1h0a1,1,0,0,0,1.11.93m-5.81-.07h.44v-3.25l1.47,2.15h0l1.47-2.16v3.26h.46v-4h-.46l-1.47,2.2-1.47-2.2h-.46Z"/></g></g></svg>