<?xml version="1.0" encoding="utf-8"?>
<!-- Generator: Adobe Illustrator 23.0.1, SVG Export Plug-In . SVG Version: 6.00 Build 0)  -->
<svg version="1.1" id="puzzle" xmlns="http://www.w3.org/2000/svg" xmlns:xlink="http://www.w3.org/1999/xlink" x="0px" y="0px"
	 viewBox="0 0 45.5 45.8" style="enable-background:new 0 0 45.5 45.8;" xml:space="preserve">
<style type="text/css">
	.st0{fill:#004987;}
	.st1{fill:#FFFFFF;}
</style>
<g id="Track">
	<path id="puzzle-shape-2" class="st0" d="M5.2,7.1c-0.3,1.2-1.9,7.8-1.9,11c0,2.7,2.1,2,2.6,1.7c2.2-1.4,2.4-1.6,3.1-1.6
		c1.6,0,2.9,2.1,2.9,4.8s-1.3,4.8-2.9,4.8c-0.7,0-0.9-0.2-3.1-1.6c-0.5-0.3-2.6-1-2.6,1.7c0,3.2,1.6,9.7,1.9,11
		c1.2-0.3,9.7-1.9,12.9-1.9c2.7,0,2,2.1,1.7,2.6c-1.4,2.2-1.6,2.4-1.6,3.1c0,1.6,2.1,2.9,4.8,2.9s4.8-1.3,4.8-2.9
		c0-0.7-0.2-0.9-1.6-3.1c-0.3-0.5-1-2.6,1.7-2.6c3.2,0,11.6,1.6,12.9,1.9c0.3-1.2,1.9-7.8,1.9-11c0-2.7-2.1-2-2.6-1.7
		c-2.2,1.4-2.4,1.6-3.1,1.6c-1.6,0-2.9-2.1-2.9-4.8s1.3-4.8,2.9-4.8c0.7,0,0.9,0.2,3.1,1.6c0.5,0.3,2.6,1,2.6-1.7
		c0-3.2-1.6-9.7-1.9-11C39.3,7.4,30.9,9,27.7,9c-2.7,0-2-2.1-1.7-2.6c1.4-2.2,1.6-2.4,1.6-3.1c0-1.6-2.1-2.9-4.8-2.9
		s-4.8,1.3-4.8,2.9c0,0.7,0.2,0.9,1.6,3.1c0.3,0.5,1,2.6-1.7,2.6C14.9,9,6.4,7.4,5.2,7.1"/>
	<path id="text-2" class="st1" d="M27.9,25.3h1.3v-1.6l0.2-0.6l0.6,2.2h1.4l-1-3.5l1-2.6h-1.4l-0.7,2.3v-2.3h-1.3L27.9,25.3z
		 M26.5,25.3c0.3,0,0.6-0.1,0.9-0.2v-1.3C27.2,24,27,24,26.8,24.1c-0.5,0-0.9-0.3-0.9-1.7v-0.2c0-1.4,0.4-1.8,0.8-1.8
		c0.2,0,0.5,0.1,0.7,0.2v-1.3c-0.2-0.1-0.5-0.2-0.8-0.2c-1.1,0-2,0.8-2,3v0.3C24.6,24.4,25.4,25.3,26.5,25.3 M22.4,23l0.3-1.9
		l0.3,1.9H22.4z M20.7,25.3H22l0.2-1.1h0.9l0.2,1.1h1.3l-1.2-6.1h-1.5L20.7,25.3z M18.7,22.2v-1.9h0c0.4,0,0.7,0.2,0.7,0.9v0.1
		C19.4,21.9,19.1,22.2,18.7,22.2L18.7,22.2z M17.4,25.3h1.3v-2h0.1l0.6,2h1.4L20,22.8c0.5-0.4,0.8-1,0.7-1.6v-0.1
		c0-0.5-0.2-1.1-0.5-1.5c-0.4-0.4-1-0.6-1.5-0.5h-1.3V25.3z M14.9,25.3h1.3v-4.9H17v-1.3h-2.9v1.3h0.8L14.9,25.3z"/>
</g>
</svg>
