<?xml version="1.0" encoding="utf-8"?>
<!-- Generator: Adobe Illustrator 23.0.2, SVG Export Plug-In . SVG Version: 6.00 Build 0)  -->
<svg version="1.1" id="Layer_1" xmlns="http://www.w3.org/2000/svg" xmlns:xlink="http://www.w3.org/1999/xlink" x="0px" y="0px"
	 viewBox="0 0 612 232.6" style="enable-background:new 0 0 612 232.6;" xml:space="preserve">
<style type="text/css">
	.st0{clip-path:url(#SVGID_2_);}
	.st1{clip-path:url(#SVGID_4_);fill:#004987;}
	.st2{clip-path:url(#SVGID_4_);fill:#FFE800;}
	.st3{clip-path:url(#SVGID_4_);fill:#FFFFFF;}
	.st4{opacity:0.5;clip-path:url(#SVGID_4_);}
	.st5{clip-path:url(#SVGID_6_);fill:#FFE800;}
	.st6{clip-path:url(#SVGID_6_);fill:none;stroke:#FFFFFF;stroke-width:2.368;stroke-miterlimit:10;}
	.st7{clip-path:url(#SVGID_8_);fill:#FFFFFF;}
</style>
<g>
	<defs>
		<rect id="SVGID_1_" width="612" height="232.6"/>
	</defs>
	<clipPath id="SVGID_2_">
		<use xlink:href="#SVGID_1_"  style="overflow:visible;"/>
	</clipPath>
	<g class="st0">
		<defs>
			<rect id="SVGID_3_" width="612" height="232.6"/>
		</defs>
		<clipPath id="SVGID_4_">
			<use xlink:href="#SVGID_3_"  style="overflow:visible;"/>
		</clipPath>
		<path class="st1" d="M214.6,0h397.9L612,232.6c0,0-151.2-51.8-509.8-51.8L214.6,0z"/>
		<path class="st2" d="M612,0H0v228.2c0,0,253.6-133.9,612.5-133.9L612,0z"/>
		<path class="st3" d="M375.1,89h10.8V73.2L399.4,47h-11.8l-7.1,15.2l-7-15.2h-11.9l13.5,26.3V89z M345.4,89.8
			c6.4,0,11.5-2.3,15.4-5.2v-20H344v8.3h6.7v6.2c-1.2,0.8-2.8,1.3-4.9,1.3c-5.4,0-9.5-4.3-9.5-11.9v-0.6c0-7,4.1-11.6,9.4-11.6
			c3.6,0,6,1.5,8.2,3.5l6-8.2c-4.1-3.3-8.5-5.1-14.5-5.1c-11.6,0-20.2,8.8-20.2,21.4v0.8C325.3,81.7,334,89.8,345.4,89.8
			 M299.6,67.4v-11h5.3c3.6,0,5.9,1.8,5.9,5.4V62c0,3.4-2.2,5.5-5.8,5.5H299.6z M288.8,89h10.7V76h3.8l7.1,13h12.2l-8.6-15.2
			c4.4-2.2,7.5-6.1,7.5-12.4v-0.3c0-4.3-1.3-7.5-3.7-9.8c-2.7-2.8-7-4.3-12.6-4.3h-16.5V89z M254.6,89h29.2v-9.5h-18.5v-7.2h16.4
			v-8.9h-16.4v-6.9h18.2V47h-28.9V89z M213.7,89h10.6V67l14.5,22h9.6V47h-10.6v21.1l-14-21.1h-10.1V89z M179.5,89h29.2v-9.5h-18.5
			v-7.2h16.4v-8.9h-16.4v-6.9h18.2V47h-28.9V89z"/>
		<path class="st3" d="M574.1,178.5h1.1v-1.2h-1.1V178.5z M570.8,178.6c1.1,0,2-0.7,2-1.8v0c0-0.9-0.7-1.4-1.8-1.8
			c-0.9-0.4-1.4-0.6-1.4-1.2v0c0-0.5,0.4-0.9,1.1-0.9c0.6,0,1.1,0.2,1.6,0.6l0.4-0.7c-0.5-0.4-1.3-0.7-2-0.7c-1.1,0-1.9,0.7-1.9,1.7
			v0c0,1,0.8,1.4,1.8,1.8c0.8,0.3,1.4,0.6,1.4,1.2v0c0,0.6-0.5,1-1.2,1c-0.6,0-1.2-0.3-1.8-0.8l-0.5,0.6
			C569.2,178.3,570,178.6,570.8,178.6 M563.5,175c0.1-1.3,0.8-2.2,1.7-2.2c1,0,1.6,1,1.6,2.2H563.5z M565.4,178.6
			c0.9,0,1.6-0.4,2.1-0.9l-0.5-0.6c-0.4,0.4-0.9,0.7-1.6,0.7c-1,0-1.8-0.8-1.9-2.1h4.2c0-0.1,0-0.3,0-0.4c0-1.9-0.9-3.2-2.5-3.2
			c-1.5,0-2.6,1.3-2.6,3.2v0.1C562.6,177.4,563.9,178.6,565.4,178.6 M553,178.5h0.9v-3.8c0-1.1,0.6-1.8,1.5-1.8
			c0.9,0,1.4,0.6,1.4,1.7v3.9h0.9v-3.8c0-1.1,0.7-1.8,1.5-1.8c0.9,0,1.4,0.6,1.4,1.7v3.9h0.9v-4.1c0-1.5-0.8-2.3-2-2.3
			c-1,0-1.5,0.5-1.9,1.1c-0.3-0.7-0.9-1.1-1.7-1.1c-0.9,0-1.4,0.5-1.8,1.1v-1H553V178.5z M548.8,177.8c-1.1,0-1.9-1-1.9-2.4v-0.1
			c0-1.4,0.8-2.4,1.9-2.4c1.1,0,1.9,1,1.9,2.4v0.1C550.7,176.8,549.9,177.8,548.8,177.8 M548.7,178.6c1.6,0,2.8-1.4,2.8-3.2v-0.1
			c0-1.8-1.2-3.2-2.8-3.2c-1.6,0-2.8,1.4-2.8,3.2v0.1C546,177.2,547.1,178.6,548.7,178.6 M539.9,178.5h0.9v-3.8
			c0-1.1,0.7-1.8,1.6-1.8c0.9,0,1.4,0.6,1.4,1.7v3.9h0.9v-4.1c0-1.4-0.8-2.3-2-2.3c-0.9,0-1.5,0.5-1.8,1.1v-3.4h-0.9V178.5z
			 M532.3,177.8c-1,0-1.8-0.9-1.8-2.4v-0.1c0-1.5,0.8-2.4,1.8-2.4c1,0,1.9,0.9,1.9,2.4v0.1C534.2,176.9,533.3,177.8,532.3,177.8
			 M532.1,178.6c1,0,1.6-0.6,2-1.3v1.2h0.9v-8.7h-0.9v3.6c-0.4-0.7-1-1.3-2-1.3c-1.3,0-2.5,1.1-2.5,3.2v0.1
			C529.6,177.5,530.8,178.6,532.1,178.6 M523.5,178.5h0.9v-3.8c0-1.1,0.7-1.8,1.6-1.8c0.9,0,1.4,0.6,1.4,1.7v3.9h0.9v-4.1
			c0-1.4-0.8-2.3-2-2.3c-0.9,0-1.5,0.5-1.8,1.1v-1h-0.9V178.5z M519.2,177.9c-0.7,0-1.3-0.5-1.3-1.3v0c0-0.8,0.6-1.3,1.5-1.3
			c0.6,0,1.1,0.1,1.5,0.3v0.8C520.9,177.2,520.2,177.9,519.2,177.9 M519,178.6c0.9,0,1.5-0.5,1.9-1v0.9h0.9v-4
			c0-0.7-0.2-1.3-0.6-1.7c-0.4-0.4-1-0.6-1.8-0.6c-0.8,0-1.4,0.2-2,0.5l0.3,0.7c0.4-0.2,1-0.4,1.6-0.4c1,0,1.6,0.5,1.6,1.5v0.4
			c-0.5-0.1-0.9-0.3-1.6-0.3c-1.4,0-2.3,0.7-2.3,2v0C517,177.9,518,178.6,519,178.6 M514.7,178.5h0.9v-8.7h-0.9V178.5z M510.1,177.3
			c-1,0-1.8-0.8-1.8-2.2v0c0-1.4,0.8-2.2,1.8-2.2c1,0,1.9,0.8,1.9,2.2v0C512,176.4,511.1,177.3,510.1,177.3 M510.1,180.3
			c0.9,0,1.6-0.2,2.1-0.7c0.4-0.4,0.7-1.1,0.7-1.9v-5.4H512v1.1c-0.4-0.7-1.1-1.2-2.1-1.2c-1.3,0-2.5,1.1-2.5,3v0
			c0,1.9,1.2,2.9,2.5,2.9c1,0,1.6-0.6,2.1-1.3v0.9c0,1.2-0.7,1.9-1.9,1.9c-0.7,0-1.4-0.2-2-0.6l-0.3,0.7
			C508.5,180.1,509.3,180.3,510.1,180.3 M501.3,178.5h0.9v-3.8c0-1.1,0.7-1.8,1.6-1.8c0.9,0,1.4,0.6,1.4,1.7v3.9h0.9v-4.1
			c0-1.4-0.8-2.3-2-2.3c-0.9,0-1.5,0.5-1.8,1.1v-1h-0.9V178.5z M494.7,178.5h5.2v-0.8h-4.3v-3h3.8v-0.8h-3.8v-2.9h4.2v-0.8h-5.1
			V178.5z M483.8,178.5h0.8l1.4-4.9l1.4,4.9h0.8l1.9-6.3h-0.9l-1.4,5l-1.4-5h-0.7l-1.4,5l-1.4-5H482L483.8,178.5z M477.1,175
			c0.1-1.3,0.8-2.2,1.7-2.2c1,0,1.6,1,1.6,2.2H477.1z M479,178.6c0.9,0,1.6-0.4,2.1-0.9l-0.5-0.6c-0.4,0.4-0.9,0.7-1.6,0.7
			c-1,0-1.8-0.8-1.9-2.1h4.2c0-0.1,0-0.3,0-0.4c0-1.9-0.9-3.2-2.5-3.2c-1.5,0-2.6,1.3-2.6,3.2v0.1
			C476.2,177.4,477.4,178.6,479,178.6 M468.5,178.5h0.9v-6.8l4.5,6.8h0.8v-8.4h-0.9v6.6l-4.4-6.6h-0.8V178.5z M460.6,176.7
			c-0.8,0-1.3-0.8-1.3-2.4v-0.2c0-1.5,0.5-2.3,1.2-2.3c0.8,0,1.3,0.8,1.3,2.4v0.2C461.8,175.9,461.3,176.7,460.6,176.7 M460.5,178.6
			c2.1,0,3.4-1.8,3.4-4.3v-0.2c0-2.5-1.3-4.3-3.4-4.3c-2.1,0-3.4,1.8-3.4,4.3v0.2C457.1,176.9,458.4,178.6,460.5,178.6 M452.9,176.7
			c-0.8,0-1.3-0.8-1.3-2.4v-0.2c0-1.5,0.5-2.3,1.2-2.3c0.8,0,1.3,0.8,1.3,2.4v0.2C454.1,175.9,453.6,176.7,452.9,176.7 M452.9,178.6
			c2.1,0,3.4-1.8,3.4-4.3v-0.2c0-2.5-1.3-4.3-3.4-4.3c-2.1,0-3.4,1.8-3.4,4.3v0.2C449.4,176.9,450.7,178.6,452.9,178.6 M445.2,176.7
			c-0.8,0-1.3-0.8-1.3-2.4v-0.2c0-1.5,0.5-2.3,1.2-2.3c0.8,0,1.3,0.8,1.3,2.4v0.2C446.5,175.9,446,176.7,445.2,176.7 M445.2,178.6
			c2.1,0,3.4-1.8,3.4-4.3v-0.2c0-2.5-1.3-4.3-3.4-4.3c-2.1,0-3.4,1.8-3.4,4.3v0.2C441.8,176.9,443.1,178.6,445.2,178.6 M438.8,180.4
			c1.4-0.1,2.3-0.7,2.3-2.3v-1.8h-2.2v2.2h0.9c0,0.6-0.3,1-1.2,1.1L438.8,180.4z M433.7,178.5h2.3l3.1-6.8v-1.6h-5.7v1.9h3.4
			L433.7,178.5z M426.8,178.5h5.8v-1.8h-3.1l1.4-1.3c1.1-1,1.6-1.7,1.6-2.8v0c0-1.5-1.2-2.5-2.8-2.5c-1.3,0-2.2,0.5-3,1.5l1.3,1.4
			c0.6-0.6,1-1,1.5-1c0.5,0,0.9,0.3,0.9,0.8s-0.3,0.9-0.9,1.5l-2.7,2.6V178.5z"/>
		<path class="st3" d="M572.7,164.5h0.9v-3c0-1.6,0.9-2.4,2.1-2.4h0v-0.9c-1,0-1.8,0.6-2.1,1.5v-1.4h-0.9V164.5z M567.1,161
			c0.1-1.3,0.8-2.2,1.7-2.2c1,0,1.6,1,1.6,2.2H567.1z M569,164.6c0.9,0,1.6-0.4,2.1-0.9l-0.5-0.6c-0.4,0.4-0.9,0.7-1.6,0.7
			c-1,0-1.8-0.8-1.9-2.1h4.2c0-0.1,0-0.3,0-0.4c0-1.9-0.9-3.2-2.5-3.2c-1.5,0-2.6,1.3-2.6,3.2v0.1
			C566.2,163.4,567.4,164.6,569,164.6 M562.5,164.5h0.8l2.3-6.3h-0.9l-1.8,5.1l-1.8-5.1h-0.9L562.5,164.5z M556.8,163.8
			c-1.1,0-1.9-1-1.9-2.4v-0.1c0-1.4,0.8-2.4,1.9-2.4c1.1,0,1.9,1,1.9,2.4v0.1C558.7,162.8,558,163.8,556.8,163.8 M556.8,164.6
			c1.6,0,2.8-1.4,2.8-3.2v-0.1c0-1.8-1.2-3.2-2.8-3.2c-1.6,0-2.8,1.4-2.8,3.2v0.1C554.1,163.2,555.2,164.6,556.8,164.6 M547.1,164.5
			h0.9v-3c0-1.6,0.9-2.4,2.1-2.4h0v-0.9c-1,0-1.8,0.6-2.1,1.5v-1.4h-0.9V164.5z M541.5,161c0.1-1.3,0.8-2.2,1.7-2.2
			c1,0,1.6,1,1.6,2.2H541.5z M543.4,164.6c0.9,0,1.6-0.4,2.1-0.9l-0.5-0.6c-0.4,0.4-0.9,0.7-1.6,0.7c-1,0-1.8-0.8-1.9-2.1h4.2
			c0-0.1,0-0.3,0-0.4c0-1.9-0.9-3.2-2.5-3.2c-1.5,0-2.6,1.3-2.6,3.2v0.1C540.6,163.4,541.8,164.6,543.4,164.6 M533.6,164.5h0.8
			l1.4-4.9l1.4,4.9h0.8l1.9-6.3H539l-1.4,5l-1.4-5h-0.7l-1.4,5l-1.4-5h-0.9L533.6,164.5z M528.2,163.8c-1.1,0-1.9-1-1.9-2.4v-0.1
			c0-1.4,0.8-2.4,1.9-2.4c1.1,0,1.9,1,1.9,2.4v0.1C530.1,162.8,529.3,163.8,528.2,163.8 M528.2,164.6c1.6,0,2.8-1.4,2.8-3.2v-0.1
			c0-1.8-1.2-3.2-2.8-3.2c-1.6,0-2.8,1.4-2.8,3.2v0.1C525.4,163.2,526.6,164.6,528.2,164.6 M521.7,163.8c-1,0-1.9-0.9-1.9-2.4v-0.1
			c0-1.5,0.9-2.4,1.9-2.4c1,0,1.8,0.9,1.8,2.4v0.1C523.4,162.9,522.6,163.8,521.7,163.8 M518.9,166.3h0.9v-3c0.4,0.7,1,1.3,2,1.3
			c1.3,0,2.5-1.1,2.5-3.2v-0.1c0-2.1-1.2-3.2-2.5-3.2c-1,0-1.6,0.6-2,1.3v-1.2h-0.9V166.3z M511.6,163.8c-1.1,0-1.9-1-1.9-2.4v-0.1
			c0-1.4,0.8-2.4,1.9-2.4c1.1,0,1.9,1,1.9,2.4v0.1C513.5,162.8,512.7,163.8,511.6,163.8 M511.6,164.6c1.6,0,2.8-1.4,2.8-3.2v-0.1
			c0-1.8-1.2-3.2-2.8-3.2s-2.8,1.4-2.8,3.2v0.1C508.8,163.2,510,164.6,511.6,164.6 M507,164.6c0.4,0,0.7-0.1,0.9-0.2v-0.7
			c-0.3,0.1-0.5,0.2-0.7,0.2c-0.5,0-0.9-0.2-0.9-0.9V159h1.6v-0.8h-1.6v-1.8h-0.9v1.8h-0.8v0.8h0.8v4
			C505.4,164.1,506.1,164.6,507,164.6 M495.6,164.5h0.9v-3.8c0-1.1,0.7-1.8,1.6-1.8c0.9,0,1.4,0.6,1.4,1.7v3.9h0.9v-4.1
			c0-1.4-0.8-2.3-2-2.3c-0.9,0-1.5,0.5-1.8,1.1v-3.4h-0.9V164.5z M491.1,163.3c-1,0-1.8-0.8-1.8-2.2v0c0-1.4,0.8-2.2,1.8-2.2
			c1,0,1.9,0.8,1.9,2.2v0C493,162.4,492.1,163.3,491.1,163.3 M491.1,166.3c0.9,0,1.6-0.2,2.1-0.7c0.4-0.4,0.7-1.1,0.7-1.9v-5.4H493
			v1.1c-0.4-0.7-1.1-1.2-2.1-1.2c-1.3,0-2.5,1.1-2.5,3v0c0,1.9,1.2,2.9,2.5,2.9c1,0,1.6-0.6,2.1-1.3v0.9c0,1.2-0.7,1.9-1.9,1.9
			c-0.7,0-1.4-0.2-2-0.6l-0.3,0.7C489.4,166.1,490.2,166.3,491.1,166.3 M484.3,164.6c0.9,0,1.5-0.5,1.8-1.1v1h0.9v-6.2h-0.9v3.8
			c0,1.1-0.7,1.8-1.6,1.8c-0.9,0-1.4-0.6-1.4-1.7v-3.9h-0.9v4.1C482.2,163.7,483,164.6,484.3,164.6 M478.1,163.8
			c-1.1,0-1.9-1-1.9-2.4v-0.1c0-1.4,0.8-2.4,1.9-2.4c1.1,0,1.9,1,1.9,2.4v0.1C480,162.8,479.2,163.8,478.1,163.8 M478.1,164.6
			c1.6,0,2.8-1.4,2.8-3.2v-0.1c0-1.8-1.2-3.2-2.8-3.2c-1.6,0-2.8,1.4-2.8,3.2v0.1C475.3,163.2,476.5,164.6,478.1,164.6 M469.2,164.5
			h0.9v-3.8c0-1.1,0.7-1.8,1.6-1.8c0.9,0,1.4,0.6,1.4,1.7v3.9h0.9v-4.1c0-1.4-0.8-2.3-2-2.3c-0.9,0-1.5,0.5-1.8,1.1v-1h-0.9V164.5z
			 M463.6,161c0.1-1.3,0.8-2.2,1.7-2.2c1,0,1.6,1,1.6,2.2H463.6z M465.5,164.6c0.9,0,1.6-0.4,2.1-0.9l-0.5-0.6
			c-0.4,0.4-0.9,0.7-1.6,0.7c-1,0-1.8-0.8-1.9-2.1h4.2c0-0.1,0-0.3,0-0.4c0-1.9-0.9-3.2-2.5-3.2c-1.5,0-2.6,1.3-2.6,3.2v0.1
			C462.7,163.4,464,164.6,465.5,164.6 M456.5,164.6c1.1,0,2-0.7,2-1.8v0c0-0.9-0.7-1.4-1.8-1.8c-0.9-0.4-1.4-0.6-1.4-1.2v0
			c0-0.5,0.4-0.9,1.1-0.9c0.6,0,1.1,0.2,1.6,0.6l0.4-0.7c-0.5-0.4-1.3-0.7-2-0.7c-1.1,0-1.9,0.7-1.9,1.7v0c0,1,0.8,1.4,1.8,1.8
			c0.8,0.3,1.4,0.6,1.4,1.2v0c0,0.6-0.5,1-1.2,1c-0.6,0-1.2-0.3-1.8-0.8l-0.5,0.6C454.9,164.3,455.7,164.6,456.5,164.6 M452.1,164.5
			h0.9v-6.2h-0.9V164.5z M452.1,156.9h1v-1h-1V156.9z M446.6,164.6c0.4,0,0.7-0.1,0.9-0.2v-0.7c-0.3,0.1-0.5,0.2-0.7,0.2
			c-0.5,0-0.9-0.2-0.9-0.9V159h1.6v-0.8h-1.6v-1.8H445v1.8h-0.8v0.8h0.8v4C445,164.1,445.7,164.6,446.6,164.6 M440.6,163.9
			c-0.7,0-1.3-0.5-1.3-1.3v0c0-0.8,0.6-1.3,1.5-1.3c0.6,0,1.1,0.1,1.5,0.3v0.8C442.3,163.2,441.5,163.9,440.6,163.9 M440.4,164.6
			c0.9,0,1.5-0.5,1.9-1v0.9h0.9v-4c0-0.7-0.2-1.3-0.6-1.7c-0.4-0.4-1-0.6-1.8-0.6c-0.8,0-1.4,0.2-2,0.5l0.3,0.7
			c0.4-0.2,1-0.4,1.6-0.4c1,0,1.6,0.5,1.6,1.5v0.4c-0.5-0.1-0.9-0.3-1.6-0.3c-1.4,0-2.3,0.7-2.3,2v0
			C438.4,163.9,439.3,164.6,440.4,164.6 M432.3,164.5h0.9v-3.8c0-1.1,0.7-1.8,1.6-1.8c0.9,0,1.4,0.6,1.4,1.7v3.9h0.9v-4.1
			c0-1.4-0.8-2.3-2-2.3c-0.9,0-1.5,0.5-1.8,1.1v-3.4h-0.9V164.5z M427.9,164.5h0.9v-7.6h2.4v-0.8h-5.6v0.8h2.4V164.5z M420.1,164.5
			h1.1v-1.2h-1.1V164.5z M417.1,163.4l-1.9-5.1h-0.9l2.4,6.3c-0.3,0.8-0.6,1.1-1.1,1.1c-0.3,0-0.6-0.1-0.8-0.2l-0.3,0.7
			c0.4,0.2,0.7,0.3,1.1,0.3c0.8,0,1.4-0.4,1.8-1.7l2.2-6.4h-0.9L417.1,163.4z M412.6,164.6c0.4,0,0.7-0.1,0.9-0.2v-0.7
			c-0.3,0.1-0.5,0.2-0.7,0.2c-0.5,0-0.9-0.2-0.9-0.9V159h1.6v-0.8h-1.6v-1.8H411v1.8h-0.8v0.8h0.8v4
			C411,164.1,411.7,164.6,412.6,164.6 M408,164.5h0.9v-6.2H408V164.5z M408,156.9h1v-1h-1V156.9z M404.6,164.6c0.9,0,1.5-0.4,2-0.9
			l-0.5-0.6c-0.4,0.4-0.9,0.7-1.5,0.7c-1.1,0-1.9-0.9-1.9-2.4v-0.1c0-1.5,0.8-2.4,1.9-2.4c0.6,0,1.1,0.3,1.5,0.7l0.5-0.6
			c-0.5-0.5-1.1-0.9-2-0.9c-1.6,0-2.8,1.3-2.8,3.2v0.1C401.9,163.3,403.1,164.6,404.6,164.6 M399.5,164.5h0.9v-6.2h-0.9V164.5z
			 M399.5,156.9h1v-1h-1V156.9z M395.2,164.5h0.9v-3c0-1.6,0.9-2.4,2.1-2.4h0v-0.9c-1,0-1.8,0.6-2.1,1.5v-1.4h-0.9V164.5z
			 M392.9,164.6c0.4,0,0.7-0.1,0.9-0.2v-0.7c-0.3,0.1-0.5,0.2-0.7,0.2c-0.5,0-0.9-0.2-0.9-0.9V159h1.6v-0.8h-1.6v-1.8h-0.9v1.8h-0.8
			v0.8h0.8v4C391.3,164.1,392,164.6,392.9,164.6 M387.8,164.6c0.9,0,1.5-0.4,2-0.9l-0.5-0.6c-0.4,0.4-0.9,0.7-1.5,0.7
			c-1.1,0-1.9-0.9-1.9-2.4v-0.1c0-1.5,0.8-2.4,1.9-2.4c0.6,0,1.1,0.3,1.5,0.7l0.5-0.6c-0.5-0.5-1.1-0.9-2-0.9
			c-1.6,0-2.8,1.3-2.8,3.2v0.1C385,163.3,386.2,164.6,387.8,164.6 M379.8,161c0.1-1.3,0.8-2.2,1.7-2.2c1,0,1.6,1,1.6,2.2H379.8z
			 M381.7,164.6c0.9,0,1.6-0.4,2.1-0.9l-0.5-0.6c-0.4,0.4-0.9,0.7-1.6,0.7c-1,0-1.8-0.8-1.9-2.1h4.2c0-0.1,0-0.3,0-0.4
			c0-1.9-0.9-3.2-2.5-3.2c-1.5,0-2.6,1.3-2.6,3.2v0.1C378.9,163.4,380.1,164.6,381.7,164.6 M376.5,164.5h0.9v-8.7h-0.9V164.5z
			 M370.8,161c0.1-1.3,0.8-2.2,1.7-2.2c1,0,1.6,1,1.6,2.2H370.8z M372.7,164.6c0.9,0,1.6-0.4,2.1-0.9l-0.5-0.6
			c-0.4,0.4-0.9,0.7-1.6,0.7c-1,0-1.8-0.8-1.9-2.1h4.2c0-0.1,0-0.3,0-0.4c0-1.9-0.9-3.2-2.5-3.2c-1.5,0-2.6,1.3-2.6,3.2v0.1
			C370,163.4,371.2,164.6,372.7,164.6"/>
		<path class="st3" d="M571.3,147c0.1-1.3,0.8-2.2,1.7-2.2c1,0,1.6,1,1.6,2.2H571.3z M573.2,150.6c0.9,0,1.6-0.4,2.1-0.9l-0.5-0.6
			c-0.4,0.4-0.9,0.7-1.6,0.7c-1,0-1.8-0.8-1.9-2.1h4.2c0-0.1,0-0.3,0-0.4c0-1.9-0.9-3.2-2.5-3.2c-1.5,0-2.6,1.3-2.6,3.2v0.1
			C570.4,149.4,571.7,150.6,573.2,150.6 M568,150.5h0.9v-8.7H568V150.5z M563.8,149.8c-1,0-1.9-0.9-1.9-2.4v-0.1
			c0-1.5,0.9-2.4,1.9-2.4c1,0,1.8,0.9,1.8,2.4v0.1C565.6,148.9,564.8,149.8,563.8,149.8 M564,150.6c1.3,0,2.5-1.1,2.5-3.2v-0.1
			c0-2.1-1.2-3.2-2.5-3.2c-1,0-1.6,0.6-2,1.3v-3.6h-0.9v8.7h0.9v-1.2C562.4,150,563,150.6,564,150.6 M556.9,149.9
			c-0.7,0-1.3-0.5-1.3-1.3v0c0-0.8,0.6-1.3,1.5-1.3c0.6,0,1.1,0.1,1.5,0.3v0.8C558.6,149.2,557.8,149.9,556.9,149.9 M556.7,150.6
			c0.9,0,1.5-0.5,1.9-1v0.9h0.8v-4c0-0.7-0.2-1.3-0.6-1.7c-0.4-0.4-1-0.6-1.8-0.6c-0.8,0-1.4,0.2-2,0.5l0.3,0.7
			c0.4-0.2,1-0.4,1.6-0.4c1,0,1.6,0.5,1.6,1.5v0.4c-0.5-0.1-0.9-0.3-1.6-0.3c-1.4,0-2.3,0.7-2.3,2v0
			C554.7,149.9,555.6,150.6,556.7,150.6 M547.7,150.5h0.8l1.4-4.9l1.4,4.9h0.8l1.9-6.3h-0.9l-1.4,5l-1.4-5h-0.7l-1.4,5l-1.4-5h-0.9
			L547.7,150.5z M540.9,147c0.1-1.3,0.8-2.2,1.7-2.2c1,0,1.6,1,1.6,2.2H540.9z M542.8,150.6c0.9,0,1.6-0.4,2.1-0.9l-0.5-0.6
			c-0.4,0.4-0.9,0.7-1.6,0.7c-1,0-1.8-0.8-1.9-2.1h4.2c0-0.1,0-0.3,0-0.4c0-1.9-0.9-3.2-2.5-3.2c-1.5,0-2.6,1.3-2.6,3.2v0.1
			C540,149.4,541.3,150.6,542.8,150.6 M533.9,150.5h0.9v-3.8c0-1.1,0.7-1.8,1.6-1.8c0.9,0,1.4,0.6,1.4,1.7v3.9h0.9v-4.1
			c0-1.4-0.8-2.3-2-2.3c-0.9,0-1.5,0.5-1.8,1.1v-1h-0.9V150.5z M528.3,147c0.1-1.3,0.8-2.2,1.7-2.2c1,0,1.6,1,1.6,2.2H528.3z
			 M530.2,150.6c0.9,0,1.6-0.4,2.1-0.9l-0.5-0.6c-0.4,0.4-0.9,0.7-1.6,0.7c-1,0-1.8-0.8-1.9-2.1h4.2c0-0.1,0-0.3,0-0.4
			c0-1.9-0.9-3.2-2.5-3.2c-1.5,0-2.6,1.3-2.6,3.2v0.1C527.4,149.4,528.7,150.6,530.2,150.6 M523.8,150.5h0.9v-3
			c0-1.6,0.9-2.4,2.1-2.4h0v-0.9c-1,0-1.8,0.6-2.1,1.5v-1.4h-0.9V150.5z M517.2,150.5h0.9V145h1.6v-0.8h-1.6v-0.5
			c0-0.8,0.3-1.2,0.9-1.2c0.2,0,0.5,0,0.7,0.1v-0.8c-0.2-0.1-0.5-0.1-0.8-0.1c-0.5,0-0.9,0.2-1.2,0.4c-0.3,0.3-0.5,0.8-0.5,1.4v0.6
			h-0.8v0.8h0.8V150.5z M512.7,149.8c-1.1,0-1.9-1-1.9-2.4v-0.1c0-1.4,0.8-2.4,1.9-2.4c1.1,0,1.9,1,1.9,2.4v0.1
			C514.6,148.8,513.8,149.8,512.7,149.8 M512.7,150.6c1.6,0,2.8-1.4,2.8-3.2v-0.1c0-1.8-1.2-3.2-2.8-3.2c-1.6,0-2.8,1.4-2.8,3.2v0.1
			C509.9,149.2,511.1,150.6,512.7,150.6 M503.7,150.6c1.1,0,2-0.7,2-1.8v0c0-0.9-0.7-1.4-1.8-1.8c-0.9-0.4-1.4-0.6-1.4-1.2v0
			c0-0.5,0.4-0.9,1.1-0.9c0.6,0,1.1,0.2,1.6,0.6l0.4-0.7c-0.5-0.4-1.3-0.7-2-0.7c-1.1,0-1.9,0.7-1.9,1.7v0c0,1,0.8,1.4,1.8,1.8
			c0.8,0.3,1.4,0.6,1.4,1.2v0c0,0.6-0.5,1-1.2,1c-0.6,0-1.2-0.3-1.8-0.8l-0.5,0.6C502.1,150.3,502.9,150.6,503.7,150.6 M497.8,150.5
			h0.9v-3c0-1.6,0.9-2.4,2.1-2.4h0v-0.9c-1,0-1.8,0.6-2.1,1.5v-1.4h-0.9V150.5z M493.3,150.6c0.9,0,1.5-0.5,1.8-1.1v1h0.9v-6.2h-0.9
			v3.8c0,1.1-0.7,1.8-1.6,1.8c-0.9,0-1.4-0.6-1.4-1.7v-3.9h-0.9v4.1C491.3,149.7,492,150.6,493.3,150.6 M487.1,149.8
			c-1.1,0-1.9-1-1.9-2.4v-0.1c0-1.4,0.8-2.4,1.9-2.4c1.1,0,1.9,1,1.9,2.4v0.1C489,148.8,488.2,149.8,487.1,149.8 M487.1,150.6
			c1.6,0,2.8-1.4,2.8-3.2v-0.1c0-1.8-1.2-3.2-2.8-3.2s-2.8,1.4-2.8,3.2v0.1C484.4,149.2,485.5,150.6,487.1,150.6 M478.3,150.5h0.9
			v-3.8c0-1.1,0.7-1.8,1.6-1.8c0.9,0,1.4,0.6,1.4,1.7v3.9h0.9v-4.1c0-1.4-0.8-2.3-2-2.3c-0.9,0-1.5,0.5-1.8,1.1v-3.4h-0.9V150.5z
			 M473.6,147.3h3.1v-0.9h-3.1V147.3z M471.5,150.6c0.4,0,0.7-0.1,0.9-0.2v-0.7c-0.3,0.1-0.5,0.2-0.7,0.2c-0.5,0-0.9-0.2-0.9-0.9
			V145h1.6v-0.8h-1.6v-1.8H470v1.8h-0.8v0.8h0.8v4C470,150.1,470.6,150.6,471.5,150.6 M467.4,150.6c0.4,0,0.7-0.1,0.9-0.2v-0.7
			c-0.3,0.1-0.5,0.2-0.7,0.2c-0.5,0-0.9-0.2-0.9-0.9V145h1.6v-0.8h-1.6v-1.8h-0.9v1.8h-0.8v0.8h0.8v4
			C465.8,150.1,466.5,150.6,467.4,150.6 M461.4,149.9c-0.7,0-1.3-0.5-1.3-1.3v0c0-0.8,0.6-1.3,1.5-1.3c0.6,0,1.1,0.1,1.5,0.3v0.8
			C463.1,149.2,462.3,149.9,461.4,149.9 M461.2,150.6c0.9,0,1.5-0.5,1.9-1v0.9h0.9v-4c0-0.7-0.2-1.3-0.6-1.7c-0.4-0.4-1-0.6-1.8-0.6
			c-0.8,0-1.4,0.2-2,0.5l0.3,0.7c0.4-0.2,1-0.4,1.6-0.4c1,0,1.6,0.5,1.6,1.5v0.4c-0.5-0.1-0.9-0.3-1.6-0.3c-1.4,0-2.3,0.7-2.3,2v0
			C459.2,149.9,460.1,150.6,461.2,150.6 M452.2,150.5h0.8l1.4-4.9l1.4,4.9h0.8l1.9-6.3h-0.9l-1.4,5l-1.4-5H454l-1.4,5l-1.4-5h-0.9
			L452.2,150.5z M446.7,149.9c-0.7,0-1.3-0.5-1.3-1.3v0c0-0.8,0.6-1.3,1.5-1.3c0.6,0,1.1,0.1,1.5,0.3v0.8
			C448.5,149.2,447.7,149.9,446.7,149.9 M446.5,150.6c0.9,0,1.5-0.5,1.9-1v0.9h0.9v-4c0-0.7-0.2-1.3-0.6-1.7c-0.4-0.4-1-0.6-1.8-0.6
			c-0.8,0-1.4,0.2-2,0.5l0.3,0.7c0.4-0.2,1-0.4,1.6-0.4c1,0,1.6,0.5,1.6,1.5v0.4c-0.5-0.1-0.9-0.3-1.6-0.3c-1.4,0-2.3,0.7-2.3,2v0
			C444.5,149.9,445.5,150.6,446.5,150.6 M440.4,149.3c-1,0-1.8-0.8-1.8-2.2v0c0-1.4,0.8-2.2,1.8-2.2c1,0,1.9,0.8,1.9,2.2v0
			C442.3,148.4,441.4,149.3,440.4,149.3 M440.4,152.3c0.9,0,1.6-0.2,2.1-0.7c0.4-0.4,0.7-1.1,0.7-1.9v-5.4h-0.9v1.1
			c-0.4-0.7-1.1-1.2-2.1-1.2c-1.3,0-2.5,1.1-2.5,3v0c0,1.9,1.2,2.9,2.5,2.9c1,0,1.6-0.6,2.1-1.3v0.9c0,1.2-0.7,1.9-1.9,1.9
			c-0.7,0-1.4-0.2-2-0.6l-0.3,0.7C438.8,152.1,439.6,152.3,440.4,152.3 M432.5,147c0.1-1.3,0.8-2.2,1.7-2.2c1,0,1.6,1,1.6,2.2H432.5
			z M434.4,150.6c0.9,0,1.6-0.4,2.1-0.9l-0.5-0.6c-0.4,0.4-0.9,0.7-1.6,0.7c-1,0-1.8-0.8-1.9-2.1h4.2c0-0.1,0-0.3,0-0.4
			c0-1.9-0.9-3.2-2.5-3.2c-1.5,0-2.6,1.3-2.6,3.2v0.1C431.6,149.4,432.9,150.6,434.4,150.6 M423.1,150.5h0.9v-6.8l2.6,4.5h0l2.6-4.5
			v6.8h0.9v-8.4h-0.9l-2.6,4.5l-2.6-4.5h-0.9V150.5z M415.1,148.7c-0.8,0-1.3-0.8-1.3-2.4v-0.2c0-1.5,0.5-2.3,1.2-2.3
			c0.8,0,1.3,0.8,1.3,2.4v0.2C416.4,147.9,415.9,148.7,415.1,148.7 M415.1,150.6c2.1,0,3.4-1.8,3.4-4.3v-0.2c0-2.5-1.3-4.3-3.4-4.3
			c-2.1,0-3.4,1.8-3.4,4.3v0.2C411.7,148.9,413,150.6,415.1,150.6 M407.4,148.7c-0.8,0-1.3-0.8-1.3-2.4v-0.2c0-1.5,0.5-2.3,1.2-2.3
			c0.8,0,1.3,0.8,1.3,2.4v0.2C408.7,147.9,408.2,148.7,407.4,148.7 M407.4,150.6c2.1,0,3.4-1.8,3.4-4.3v-0.2c0-2.5-1.3-4.3-3.4-4.3
			c-2.1,0-3.4,1.8-3.4,4.3v0.2C404,148.9,405.3,150.6,407.4,150.6 M399.7,148.7c-0.8,0-1.3-0.8-1.3-2.4v-0.2c0-1.5,0.5-2.3,1.2-2.3
			c0.8,0,1.3,0.8,1.3,2.4v0.2C401,147.9,400.5,148.7,399.7,148.7 M399.7,150.6c2.1,0,3.4-1.8,3.4-4.3v-0.2c0-2.5-1.3-4.3-3.4-4.3
			c-2.1,0-3.4,1.8-3.4,4.3v0.2C396.3,148.9,397.6,150.6,399.7,150.6 M393.3,152.4c1.4-0.1,2.3-0.7,2.3-2.3v-1.8h-2.2v2.2h0.9
			c0,0.6-0.3,1-1.2,1.1L393.3,152.4z M389.3,148.7c-0.8,0-1.3-0.8-1.3-2.4v-0.2c0-1.5,0.5-2.3,1.2-2.3c0.8,0,1.3,0.8,1.3,2.4v0.2
			C390.5,147.9,390.1,148.7,389.3,148.7 M389.3,150.6c2.1,0,3.4-1.8,3.4-4.3v-0.2c0-2.5-1.3-4.3-3.4-4.3c-2.1,0-3.4,1.8-3.4,4.3v0.2
			C385.9,148.9,387.1,150.6,389.3,150.6 M381.6,148.7c-0.8,0-1.3-0.8-1.3-2.4v-0.2c0-1.5,0.5-2.3,1.2-2.3c0.8,0,1.3,0.8,1.3,2.4v0.2
			C382.9,147.9,382.4,148.7,381.6,148.7 M381.6,150.6c2.1,0,3.4-1.8,3.4-4.3v-0.2c0-2.5-1.3-4.3-3.4-4.3c-2.1,0-3.4,1.8-3.4,4.3v0.2
			C378.2,148.9,379.5,150.6,381.6,150.6 M371.6,150.5h5.8v-1.8h-3.1l1.4-1.3c1.1-1,1.6-1.7,1.6-2.8v0c0-1.5-1.2-2.5-2.8-2.5
			c-1.3,0-2.2,0.5-3,1.5l1.3,1.4c0.6-0.6,1-1,1.5-1c0.5,0,0.9,0.3,0.9,0.8s-0.3,0.9-0.9,1.5l-2.7,2.6V150.5z M364.8,150.5h0.9v-3
			c0-1.6,0.9-2.4,2.1-2.4h0v-0.9c-1,0-1.8,0.6-2.1,1.5v-1.4h-0.9V150.5z M359.2,147c0.1-1.3,0.8-2.2,1.7-2.2c1,0,1.6,1,1.6,2.2
			H359.2z M361.1,150.6c0.9,0,1.6-0.4,2.1-0.9l-0.5-0.6c-0.4,0.4-0.9,0.7-1.6,0.7c-1,0-1.8-0.8-1.9-2.1h4.2c0-0.1,0-0.3,0-0.4
			c0-1.9-0.9-3.2-2.5-3.2c-1.5,0-2.6,1.3-2.6,3.2v0.1C358.3,149.4,359.5,150.6,361.1,150.6 M354.6,150.5h0.8l2.3-6.3h-0.9l-1.8,5.1
			l-1.8-5.1h-0.9L354.6,150.5z M348.9,149.8c-1.1,0-1.9-1-1.9-2.4v-0.1c0-1.4,0.8-2.4,1.9-2.4c1.1,0,1.9,1,1.9,2.4v0.1
			C350.8,148.8,350,149.8,348.9,149.8 M348.9,150.6c1.6,0,2.8-1.4,2.8-3.2v-0.1c0-1.8-1.2-3.2-2.8-3.2c-1.6,0-2.8,1.4-2.8,3.2v0.1
			C346.2,149.2,347.3,150.6,348.9,150.6"/>
		<path class="st3" d="M572.4,135.8c-1,0-1.8-0.9-1.8-2.4v-0.1c0-1.5,0.8-2.4,1.8-2.4c1,0,1.9,0.9,1.9,2.4v0.1
			C574.3,134.9,573.4,135.8,572.4,135.8 M572.2,136.6c1,0,1.6-0.6,2-1.3v1.2h0.9v-8.7h-0.9v3.6c-0.4-0.7-1-1.3-2-1.3
			c-1.3,0-2.5,1.1-2.5,3.2v0.1C569.7,135.5,570.9,136.6,572.2,136.6 M564.4,133c0.1-1.3,0.8-2.2,1.7-2.2c1,0,1.6,1,1.6,2.2H564.4z
			 M566.3,136.6c0.9,0,1.6-0.4,2.1-0.9l-0.5-0.6c-0.4,0.4-0.9,0.7-1.6,0.7c-1,0-1.8-0.8-1.9-2.2h4.2c0-0.1,0-0.3,0-0.4
			c0-1.9-0.9-3.2-2.5-3.2c-1.5,0-2.6,1.3-2.6,3.2v0.1C563.6,135.4,564.8,136.6,566.3,136.6 M561.7,136.6c0.4,0,0.7-0.1,0.9-0.2v-0.7
			c-0.3,0.1-0.5,0.2-0.7,0.2c-0.5,0-0.9-0.2-0.9-0.9V131h1.6v-0.8H561v-1.8h-0.9v1.8h-0.8v0.8h0.8v4
			C560.2,136.1,560.8,136.6,561.7,136.6 M555.7,135.9c-0.7,0-1.3-0.5-1.3-1.3v0c0-0.8,0.6-1.3,1.5-1.3c0.6,0,1.1,0.1,1.5,0.3v0.8
			C557.4,135.2,556.7,135.9,555.7,135.9 M555.5,136.6c0.9,0,1.5-0.5,1.9-1v0.9h0.8v-4c0-0.7-0.2-1.3-0.6-1.7c-0.4-0.4-1-0.6-1.8-0.6
			c-0.8,0-1.4,0.2-2,0.5l0.3,0.7c0.4-0.2,1-0.4,1.6-0.4c1,0,1.6,0.5,1.6,1.5v0.4c-0.5-0.1-0.9-0.3-1.6-0.3c-1.4,0-2.3,0.7-2.3,2v0
			C553.5,135.9,554.5,136.6,555.5,136.6 M550,136.5h0.9v-3c0-1.6,0.9-2.4,2.1-2.4h0v-0.9c-1,0-1.8,0.6-2.1,1.5v-1.4H550V136.5z
			 M544.4,133c0.1-1.3,0.8-2.2,1.7-2.2c1,0,1.6,1,1.6,2.2H544.4z M546.3,136.6c0.9,0,1.6-0.4,2.1-0.9l-0.5-0.6
			c-0.4,0.4-0.9,0.7-1.6,0.7c-1,0-1.8-0.8-1.9-2.2h4.2c0-0.1,0-0.3,0-0.4c0-1.9-0.9-3.2-2.5-3.2c-1.5,0-2.6,1.3-2.6,3.2v0.1
			C543.5,135.4,544.7,136.6,546.3,136.6 M537.4,136.5h0.9v-3.8c0-1.1,0.7-1.8,1.6-1.8c0.9,0,1.4,0.6,1.4,1.7v3.9h0.9v-4.1
			c0-1.4-0.8-2.3-2-2.3c-0.9,0-1.5,0.5-1.8,1.1v-1h-0.9V136.5z M531.8,133c0.1-1.3,0.8-2.2,1.7-2.2c1,0,1.6,1,1.6,2.2H531.8z
			 M533.7,136.6c0.9,0,1.6-0.4,2.1-0.9l-0.5-0.6c-0.4,0.4-0.9,0.7-1.6,0.7c-1,0-1.8-0.8-1.9-2.2h4.2c0-0.1,0-0.3,0-0.4
			c0-1.9-0.9-3.2-2.5-3.2c-1.5,0-2.6,1.3-2.6,3.2v0.1C530.9,135.4,532.1,136.6,533.7,136.6 M526.7,135.3c-1,0-1.8-0.8-1.8-2.2v0
			c0-1.4,0.8-2.2,1.8-2.2c1,0,1.9,0.8,1.9,2.2v0C528.6,134.4,527.7,135.3,526.7,135.3 M526.7,138.3c0.9,0,1.6-0.2,2.1-0.7
			c0.4-0.4,0.7-1.1,0.7-1.9v-5.4h-0.9v1.1c-0.4-0.7-1.1-1.2-2.1-1.2c-1.3,0-2.5,1.1-2.5,3v0c0,1.9,1.2,2.9,2.5,2.9
			c1,0,1.6-0.6,2.1-1.3v0.9c0,1.2-0.7,1.9-1.9,1.9c-0.7,0-1.4-0.2-2-0.6l-0.3,0.7C525,138.1,525.9,138.3,526.7,138.3 M517.8,136.6
			c1.1,0,2-0.7,2-1.8v0c0-0.9-0.7-1.4-1.8-1.8c-0.9-0.4-1.4-0.6-1.4-1.2v0c0-0.5,0.4-0.9,1.1-0.9c0.6,0,1.1,0.2,1.6,0.6l0.4-0.7
			c-0.5-0.4-1.3-0.7-2-0.7c-1.1,0-1.9,0.7-1.9,1.7v0c0,1,0.8,1.4,1.8,1.8c0.8,0.3,1.4,0.6,1.4,1.2v0c0,0.6-0.5,1-1.2,1
			c-0.6,0-1.2-0.3-1.8-0.8l-0.5,0.6C516.2,136.3,517.1,136.6,517.8,136.6 M511.9,136.5h0.9v-3c0-1.6,0.9-2.4,2.1-2.4h0v-0.9
			c-1,0-1.8,0.6-2.1,1.5v-1.4h-0.9V136.5z M506.3,133c0.1-1.3,0.8-2.2,1.7-2.2c1,0,1.6,1,1.6,2.2H506.3z M508.2,136.6
			c0.9,0,1.6-0.4,2.1-0.9l-0.5-0.6c-0.4,0.4-0.9,0.7-1.6,0.7c-1,0-1.8-0.8-1.9-2.2h4.2c0-0.1,0-0.3,0-0.4c0-1.9-0.9-3.2-2.5-3.2
			c-1.5,0-2.6,1.3-2.6,3.2v0.1C505.5,135.4,506.7,136.6,508.2,136.6 M499.4,136.5h0.9v-3.8c0-1.1,0.7-1.8,1.6-1.8
			c0.9,0,1.4,0.6,1.4,1.7v3.9h0.9v-4.1c0-1.4-0.8-2.3-2-2.3c-0.9,0-1.5,0.5-1.8,1.1v-1h-0.9V136.5z M497,136.6
			c0.4,0,0.7-0.1,0.9-0.2v-0.7c-0.3,0.1-0.5,0.2-0.7,0.2c-0.5,0-0.9-0.2-0.9-0.9V131h1.6v-0.8h-1.6v-1.8h-0.9v1.8h-0.8v0.8h0.8v4
			C495.5,136.1,496.1,136.6,497,136.6 M491,136.5h0.9v-3c0-1.6,0.9-2.4,2.1-2.4h0v-0.9c-1,0-1.8,0.6-2.1,1.5v-1.4H491V136.5z
			 M486.7,135.9c-0.7,0-1.3-0.5-1.3-1.3v0c0-0.8,0.6-1.3,1.5-1.3c0.6,0,1.1,0.1,1.5,0.3v0.8C488.5,135.2,487.7,135.9,486.7,135.9
			 M486.5,136.6c0.9,0,1.5-0.5,1.9-1v0.9h0.8v-4c0-0.7-0.2-1.3-0.6-1.7c-0.4-0.4-1-0.6-1.8-0.6c-0.8,0-1.4,0.2-2,0.5l0.3,0.7
			c0.4-0.2,1-0.4,1.6-0.4c1,0,1.6,0.5,1.6,1.5v0.4c-0.5-0.1-0.9-0.3-1.6-0.3c-1.4,0-2.3,0.7-2.3,2v0
			C484.5,135.9,485.5,136.6,486.5,136.6 M480.8,135.8c-1,0-1.9-0.9-1.9-2.4v-0.1c0-1.5,0.9-2.4,1.9-2.4c1,0,1.8,0.9,1.8,2.4v0.1
			C482.6,134.9,481.8,135.8,480.8,135.8 M478.1,138.3h0.9v-3c0.4,0.7,1,1.3,2,1.3c1.3,0,2.5-1.1,2.5-3.2v-0.1c0-2.1-1.2-3.2-2.5-3.2
			c-1,0-1.6,0.6-2,1.3v-1.2h-0.9V138.3z M470.8,136.5h0.9v-3c0-1.6,0.9-2.4,2.1-2.4h0v-0.9c-1,0-1.8,0.6-2.1,1.5v-1.4h-0.9V136.5z
			 M466.3,136.6c0.9,0,1.5-0.5,1.8-1.1v1h0.9v-6.2h-0.9v3.8c0,1.1-0.7,1.8-1.6,1.8c-0.9,0-1.4-0.6-1.4-1.7v-3.9h-0.9v4.1
			C464.2,135.7,465,136.6,466.3,136.6 M460.1,135.8c-1.1,0-1.9-1-1.9-2.4v-0.1c0-1.4,0.8-2.4,1.9-2.4c1.1,0,1.9,1,1.9,2.4v0.1
			C462,134.8,461.2,135.8,460.1,135.8 M460.1,136.6c1.6,0,2.8-1.4,2.8-3.2v-0.1c0-1.8-1.2-3.2-2.8-3.2c-1.6,0-2.8,1.4-2.8,3.2v0.1
			C457.3,135.2,458.5,136.6,460.1,136.6 M450.1,135.8c-1,0-1.8-0.9-1.8-2.4v-0.1c0-1.5,0.8-2.4,1.8-2.4c1,0,1.9,0.9,1.9,2.4v0.1
			C452,134.9,451.1,135.8,450.1,135.8 M449.9,136.6c1,0,1.6-0.6,2-1.3v1.2h0.9v-8.7h-0.9v3.6c-0.4-0.7-1-1.3-2-1.3
			c-1.3,0-2.5,1.1-2.5,3.2v0.1C447.4,135.5,448.6,136.6,449.9,136.6 M441.3,136.5h0.9v-3.8c0-1.1,0.7-1.8,1.6-1.8
			c0.9,0,1.4,0.6,1.4,1.7v3.9h0.9v-4.1c0-1.4-0.8-2.3-2-2.3c-0.9,0-1.5,0.5-1.8,1.1v-1h-0.9V136.5z M437,135.9
			c-0.7,0-1.3-0.5-1.3-1.3v0c0-0.8,0.6-1.3,1.5-1.3c0.6,0,1.1,0.1,1.5,0.3v0.8C438.7,135.2,438,135.9,437,135.9 M436.8,136.6
			c0.9,0,1.5-0.5,1.9-1v0.9h0.9v-4c0-0.7-0.2-1.3-0.6-1.7c-0.4-0.4-1-0.6-1.8-0.6c-0.8,0-1.4,0.2-2,0.5l0.3,0.7
			c0.4-0.2,1-0.4,1.6-0.4c1,0,1.6,0.5,1.6,1.5v0.4c-0.5-0.1-0.9-0.3-1.6-0.3c-1.4,0-2.3,0.7-2.3,2v0
			C434.8,135.9,435.8,136.6,436.8,136.6 M426.5,133c0.1-1.3,0.8-2.2,1.7-2.2c1,0,1.6,1,1.6,2.2H426.5z M428.4,136.6
			c0.9,0,1.6-0.4,2.1-0.9l-0.5-0.6c-0.4,0.4-0.9,0.7-1.6,0.7c-1,0-1.8-0.8-1.9-2.2h4.2c0-0.1,0-0.3,0-0.4c0-1.9-0.9-3.2-2.5-3.2
			c-1.5,0-2.6,1.3-2.6,3.2v0.1C425.6,135.4,426.9,136.6,428.4,136.6 M418.6,136.5h0.8l1.4-4.9l1.4,4.9h0.8l1.9-6.3H424l-1.4,5
			l-1.4-5h-0.7l-1.4,5l-1.4-5h-0.9L418.6,136.5z M411.2,137.9c0.9-0.2,1.3-0.7,1.3-1.6v-1.1h-1.1v1.2h0.4c0,0.5-0.2,0.8-0.8,1
			L411.2,137.9z M404.8,136.5h2.3l3.1-6.8v-1.6h-5.7v1.9h3.4L404.8,136.5z M401.3,136.5h2.1V128h-1.6l-2.1,0.6l0.3,1.8l1.2-0.3
			V136.5z M396,134.7c-0.8,0-1.3-0.8-1.3-2.4v-0.2c0-1.5,0.5-2.3,1.2-2.3c0.8,0,1.3,0.8,1.3,2.4v0.2
			C397.2,133.9,396.7,134.7,396,134.7 M395.9,136.6c2.1,0,3.4-1.8,3.4-4.3v-0.2c0-2.5-1.3-4.3-3.4-4.3c-2.1,0-3.4,1.8-3.4,4.3v0.2
			C392.5,134.9,393.8,136.6,395.9,136.6 M385.9,136.5h5.8v-1.8h-3.1l1.4-1.3c1.1-1,1.6-1.7,1.6-2.8v0c0-1.5-1.2-2.5-2.8-2.5
			c-1.3,0-2.2,0.5-3,1.5l1.3,1.4c0.6-0.6,1-1,1.5-1c0.5,0,0.9,0.3,0.9,0.8c0,0.5-0.3,0.9-0.9,1.5l-2.7,2.6V136.5z M376.9,136.5h0.9
			v-3.8c0-1.1,0.7-1.8,1.6-1.8c0.9,0,1.4,0.6,1.4,1.7v3.9h0.9v-4.1c0-1.4-0.8-2.3-2-2.3c-0.9,0-1.5,0.5-1.8,1.1v-1h-0.9V136.5z
			 M374,136.5h0.9v-8.4H374V136.5z"/>
		<g class="st4">
			<g>
				<defs>
					<rect id="SVGID_5_" x="-14" y="8.5" width="174.2" height="174.2"/>
				</defs>
				<clipPath id="SVGID_6_">
					<use xlink:href="#SVGID_5_"  style="overflow:visible;"/>
				</clipPath>
				<path class="st5" d="M73.1,10.7c22.7,0,44,8.8,60.1,24.9c16,16,24.9,37.4,24.9,60.1c0,22.7-8.8,44-24.9,60.1
					c-16,16-37.4,24.9-60.1,24.9s-44-8.8-60.1-24.9c-16-16-24.9-37.4-24.9-60.1c0-22.7,8.8-44,24.9-60.1
					C29.1,19.5,50.4,10.7,73.1,10.7"/>
				<path class="st6" d="M73.1,10.7c22.7,0,44,8.8,60.1,24.9c16,16,24.9,37.4,24.9,60.1c0,22.7-8.8,44-24.9,60.1
					c-16,16-37.4,24.9-60.1,24.9s-44-8.8-60.1-24.9c-16-16-24.9-37.4-24.9-60.1c0-22.7,8.8-44,24.9-60.1
					C29.1,19.5,50.4,10.7,73.1,10.7"/>
			</g>
		</g>
		<g class="st4">
			<g>
				<defs>
					<rect id="SVGID_7_" x="21.7" y="46.7" width="102.9" height="95.2"/>
				</defs>
				<clipPath id="SVGID_8_">
					<use xlink:href="#SVGID_7_"  style="overflow:visible;"/>
				</clipPath>
				<rect x="22.7" y="103.2" class="st7" width="19.1" height="30.4"/>
				<rect x="104.5" y="103.2" class="st7" width="19.1" height="30.4"/>
				<path class="st7" d="M96.2,95.9H50.3c-2.5,0-4.5,2-4.5,4.5v35.9c0,2.5,2,4.5,4.5,4.5h45.8c2.5,0,4.5-2,4.5-4.5v-35.9
					C100.7,97.9,98.7,95.9,96.2,95.9"/>
				<path class="st7" d="M55,83.7v8.9h36.5v-8.9c0-1.7-1.3-3-3-3H58C56.4,80.7,55,82.1,55,83.7"/>
				<path class="st7" d="M73.2,66c-2.1,0-4.1-0.7-5.7-1.8v13.5H79V64.2C77.3,65.3,75.4,66,73.2,66"/>
				<path class="st7" d="M40.9,60.3c7.5-1,15.1-1.7,22.6-2c-0.2-0.8-0.3-1.5-0.3-2.4c0-0.8,0.1-1.6,0.3-2.4c-7.6-0.3-15.1-1-22.6-2
					c-2.8-0.5-5.1,1.5-5.1,4.3C35.8,58.8,38.1,60.7,40.9,60.3"/>
				<path class="st7" d="M105.6,60.3c2.8,0.5,5.1-1.4,5.1-4.3c0-2.9-2.3-4.8-5.1-4.3c-7.5,1-15.1,1.7-22.6,2
					c0.2,0.8,0.3,1.5,0.3,2.4c0,0.8-0.1,1.6-0.3,2.4C90.6,58.6,98.1,59.3,105.6,60.3"/>
				<path class="st7" d="M73.2,64.2c4.5,0,8.2-3.7,8.2-8.2c0-4.5-3.7-8.2-8.2-8.2c-4.5,0-8.2,3.7-8.2,8.2
					C65,60.5,68.7,64.2,73.2,64.2"/>
			</g>
		</g>
	</g>
</g>
</svg>
