<?xml version="1.0" encoding="utf-8"?>
<!-- Generator: Adobe Illustrator 23.0.2, SVG Export Plug-In . SVG Version: 6.00 Build 0)  -->
<svg version="1.1" id="Layer_1" xmlns="http://www.w3.org/2000/svg" xmlns:xlink="http://www.w3.org/1999/xlink" x="0px" y="0px"
	 viewBox="0 0 612 235" style="enable-background:new 0 0 612 235;" xml:space="preserve">
<style type="text/css">
	.st0{fill:#004987;}
	.st1{fill:#76BC21;}
	.st2{fill:#FFFFFF;}
	.st3{opacity:0.5;}
	.st4{clip-path:url(#SVGID_2_);fill:#76BC21;}
	.st5{clip-path:url(#SVGID_2_);fill:none;stroke:#FFFFFF;stroke-width:2.337;stroke-miterlimit:10;}
	.st6{clip-path:url(#SVGID_4_);fill:#FFFFFF;}
	.st7{clip-path:url(#SVGID_6_);fill:#FFFFFF;}
	.st8{clip-path:url(#SVGID_8_);fill:#FFFFFF;}
	.st9{clip-path:url(#SVGID_10_);fill:#FFFFFF;}
	.st10{clip-path:url(#SVGID_12_);fill:#FFFFFF;}
	.st11{clip-path:url(#SVGID_14_);fill:#FFFFFF;}
	.st12{clip-path:url(#SVGID_16_);fill:#FFFFFF;}
	.st13{clip-path:url(#SVGID_18_);fill:#FFFFFF;}
</style>
<g>
	<g>
		<path class="st0" d="M214.6,0H612v232.6c0,0-151.2-51.8-509.8-51.8L214.6,0z"/>
		<path class="st1" d="M612,0H0v227.5c0,0,253.6-133.2,612.5-133.2L612,0z"/>
		<path class="st2" d="M475.4,89.6c9,0,15.3-5,15.3-13.2v-0.1c0-7.1-5-10.4-13-13c-5.3-2-6.7-2.9-6.7-4.8v-0.1
			c0-1.6,1.4-2.8,3.8-2.8c3.4,0,6.9,1.6,9.8,3.8l5.5-8c-4.4-3.5-9.4-5.1-15-5.1c-9.2,0-15,5.3-15,13v0.2c0,7.6,5.6,10.5,13.5,13.2
			c4.9,1.7,6.2,2.8,6.2,4.4v0.1c0,1.8-1.5,3.1-4.4,3.1c-4.1,0-8-1.9-11.4-4.7l-5.8,7.9C463.3,87.7,469.2,89.6,475.4,89.6 M420.5,89
			h10.6V67l14.5,22h9.6V47h-10.6v21.1l-14-21.1h-10.1V89z M396,80c-5,0-8.5-4.4-8.5-11.7v-0.7c0-7.3,3.4-11.6,8.4-11.6
			s8.5,4.4,8.5,11.7v0.7C404.4,75.7,401,80,396,80 M395.9,89.8c11.3,0,19.5-8.8,19.5-21.4v-0.9c0-12.6-8.1-21.3-19.4-21.3
			c-11.3,0-19.5,8.8-19.5,21.4v0.9C376.5,81.1,384.6,89.8,395.9,89.8 M360.4,89h10.8V47h-10.8V89z M334.7,89h10.8V56.8h10.4V47
			h-31.6v9.7h10.4V89z M303.3,89.8c10.3,0,17.2-5.3,17.2-17.5V47h-10.9v25.7c0,5-2.4,7.3-6.2,7.3c-3.7,0-6.2-2.4-6.2-7.4V47h-10.9
			v25.4C286.3,84.4,293,89.8,303.3,89.8 M256.2,89h27.3v-9.7H267V47h-10.8V89z M231.7,80c-5,0-8.5-4.4-8.5-11.7v-0.7
			c0-7.3,3.4-11.6,8.4-11.6c5,0,8.5,4.4,8.5,11.7v0.7C240.1,75.7,236.8,80,231.7,80 M231.7,89.8c11.3,0,19.5-8.8,19.5-21.4v-0.9
			c0-12.6-8.1-21.3-19.4-21.3c-11.3,0-19.5,8.8-19.5,21.4v0.9C212.2,81.1,220.3,89.8,231.7,89.8 M193.6,89.6c9,0,15.3-5,15.3-13.2
			v-0.1c0-7.1-5-10.4-13-13c-5.3-2-6.7-2.9-6.7-4.8v-0.1c0-1.6,1.4-2.8,3.8-2.8c3.4,0,6.9,1.6,9.8,3.8l5.5-8
			c-4.4-3.5-9.4-5.1-15-5.1c-9.2,0-15,5.3-15,13v0.2c0,7.6,5.6,10.5,13.5,13.2c4.9,1.7,6.2,2.8,6.2,4.4v0.1c0,1.8-1.5,3.1-4.4,3.1
			c-4.1,0-8-1.9-11.4-4.7l-5.8,7.9C181.4,87.7,187.3,89.6,193.6,89.6"/>
		<path class="st2" d="M574.1,178.5h1.1v-1.2h-1.1V178.5z M570.8,178.6c1.1,0,2-0.7,2-1.8v0c0-0.9-0.7-1.4-1.8-1.8
			c-0.9-0.4-1.4-0.6-1.4-1.2v0c0-0.5,0.4-0.9,1.1-0.9c0.6,0,1.1,0.2,1.6,0.6l0.4-0.7c-0.5-0.4-1.3-0.7-2-0.7c-1.1,0-1.9,0.7-1.9,1.7
			v0c0,1,0.8,1.4,1.8,1.8c0.8,0.3,1.4,0.6,1.4,1.2v0c0,0.6-0.5,1-1.2,1c-0.6,0-1.2-0.3-1.8-0.8l-0.5,0.6
			C569.2,178.3,570,178.6,570.8,178.6 M563.5,175c0.1-1.3,0.8-2.2,1.7-2.2c1,0,1.6,1,1.6,2.2H563.5z M565.4,178.6
			c0.9,0,1.6-0.4,2.1-0.9l-0.5-0.6c-0.4,0.4-0.9,0.7-1.6,0.7c-1,0-1.8-0.8-1.9-2.1h4.2c0-0.1,0-0.3,0-0.4c0-1.9-0.9-3.2-2.5-3.2
			c-1.5,0-2.6,1.3-2.6,3.2v0.1C562.6,177.4,563.9,178.6,565.4,178.6 M559.8,178.6c0.9,0,1.5-0.4,2-0.9l-0.5-0.6
			c-0.4,0.4-0.9,0.7-1.5,0.7c-1.1,0-1.9-0.9-1.9-2.4v-0.1c0-1.5,0.8-2.4,1.9-2.4c0.6,0,1.1,0.3,1.5,0.7l0.5-0.6
			c-0.5-0.5-1.1-0.9-2-0.9c-1.6,0-2.8,1.3-2.8,3.2v0.1C557,177.3,558.2,178.6,559.8,178.6 M554.7,178.5h0.9v-6.2h-0.9V178.5z
			 M554.6,170.9h1v-1h-1V170.9z M550.3,178.5h0.8l2.3-6.3h-0.9l-1.8,5.1l-1.8-5.1H548L550.3,178.5z M544.3,178.5h0.9v-3
			c0-1.6,0.9-2.4,2.1-2.4h0v-0.9c-1,0-1.8,0.6-2.1,1.5v-1.4h-0.9V178.5z M538.7,175c0.1-1.3,0.8-2.2,1.7-2.2c1,0,1.6,1,1.6,2.2
			H538.7z M540.6,178.6c0.9,0,1.6-0.4,2.1-0.9l-0.5-0.6c-0.4,0.4-0.9,0.7-1.6,0.7c-1,0-1.8-0.8-1.9-2.1h4.2c0-0.1,0-0.3,0-0.4
			c0-1.9-0.9-3.2-2.5-3.2c-1.5,0-2.6,1.3-2.6,3.2v0.1C537.8,177.4,539,178.6,540.6,178.6 M534.7,178.6c1.1,0,2-0.7,2-1.8v0
			c0-0.9-0.7-1.4-1.8-1.8c-0.9-0.4-1.4-0.6-1.4-1.2v0c0-0.5,0.4-0.9,1.1-0.9c0.6,0,1.1,0.2,1.6,0.6l0.4-0.7c-0.5-0.4-1.3-0.7-2-0.7
			c-1.1,0-1.9,0.7-1.9,1.7v0c0,1,0.8,1.4,1.8,1.8c0.8,0.3,1.4,0.6,1.4,1.2v0c0,0.6-0.5,1-1.2,1c-0.6,0-1.2-0.3-1.8-0.8l-0.5,0.6
			C533.1,178.3,533.9,178.6,534.7,178.6 M525.4,177.8c-1,0-1.8-0.9-1.8-2.4v-0.1c0-1.5,0.8-2.4,1.8-2.4c1,0,1.9,0.9,1.9,2.4v0.1
			C527.3,176.9,526.4,177.8,525.4,177.8 M525.2,178.6c1,0,1.6-0.6,2-1.3v1.2h0.9v-8.7h-0.9v3.6c-0.4-0.7-1-1.3-2-1.3
			c-1.3,0-2.5,1.1-2.5,3.2v0.1C522.7,177.5,523.9,178.6,525.2,178.6 M517.4,175c0.1-1.3,0.8-2.2,1.7-2.2c1,0,1.6,1,1.6,2.2H517.4z
			 M519.3,178.6c0.9,0,1.6-0.4,2.1-0.9l-0.5-0.6c-0.4,0.4-0.9,0.7-1.6,0.7c-1,0-1.8-0.8-1.9-2.1h4.2c0-0.1,0-0.3,0-0.4
			c0-1.9-0.9-3.2-2.5-3.2c-1.5,0-2.6,1.3-2.6,3.2v0.1C516.5,177.4,517.8,178.6,519.3,178.6 M511,178.5h4.6v-0.7h-3.5l3.5-4.9v-0.6
			h-4.4v0.7h3.3l-3.5,4.9V178.5z M508.7,178.5h0.9v-6.2h-0.9V178.5z M508.6,170.9h1v-1h-1V170.9z M498.6,178.5h0.9v-3.8
			c0-1.1,0.6-1.8,1.5-1.8c0.9,0,1.4,0.6,1.4,1.7v3.9h0.9v-3.8c0-1.1,0.7-1.8,1.5-1.8c0.9,0,1.4,0.6,1.4,1.7v3.9h0.9v-4.1
			c0-1.5-0.8-2.3-2-2.3c-1,0-1.5,0.5-1.9,1.1c-0.3-0.7-0.9-1.1-1.7-1.1c-0.9,0-1.4,0.5-1.8,1.1v-1h-0.9V178.5z M494.4,177.8
			c-1.1,0-1.9-1-1.9-2.4v-0.1c0-1.4,0.8-2.4,1.9-2.4c1.1,0,1.9,1,1.9,2.4v0.1C496.3,176.8,495.5,177.8,494.4,177.8 M494.4,178.6
			c1.6,0,2.8-1.4,2.8-3.2v-0.1c0-1.8-1.2-3.2-2.8-3.2c-1.6,0-2.8,1.4-2.8,3.2v0.1C491.6,177.2,492.8,178.6,494.4,178.6 M489.8,178.6
			c0.4,0,0.7-0.1,0.9-0.2v-0.7c-0.3,0.1-0.5,0.2-0.7,0.2c-0.5,0-0.9-0.2-0.9-0.9V173h1.6v-0.8h-1.6v-1.8h-0.9v1.8h-0.8v0.8h0.8v4
			C488.2,178.1,488.9,178.6,489.8,178.6 M484.6,178.6c1.1,0,2-0.7,2-1.8v0c0-0.9-0.7-1.4-1.8-1.8c-0.9-0.4-1.4-0.6-1.4-1.2v0
			c0-0.5,0.4-0.9,1.1-0.9c0.6,0,1.1,0.2,1.6,0.6l0.4-0.7c-0.5-0.4-1.3-0.7-2-0.7c-1.1,0-1.9,0.7-1.9,1.7v0c0,1,0.8,1.4,1.8,1.8
			c0.8,0.3,1.4,0.6,1.4,1.2v0c0,0.6-0.5,1-1.2,1c-0.6,0-1.2-0.3-1.8-0.8l-0.5,0.6C483,178.3,483.9,178.6,484.6,178.6 M478.4,178.6
			c0.9,0,1.5-0.5,1.8-1.1v1h0.9v-6.2h-0.9v3.8c0,1.1-0.7,1.8-1.6,1.8c-0.9,0-1.4-0.6-1.4-1.7v-3.9h-0.9v4.1
			C476.4,177.7,477.2,178.6,478.4,178.6 M473.2,178.6c0.9,0,1.5-0.4,2-0.9l-0.5-0.6c-0.4,0.4-0.9,0.7-1.5,0.7
			c-1.1,0-1.9-0.9-1.9-2.4v-0.1c0-1.5,0.8-2.4,1.9-2.4c0.6,0,1.1,0.3,1.5,0.7l0.5-0.6c-0.5-0.5-1.1-0.9-2-0.9
			c-1.6,0-2.8,1.3-2.8,3.2v0.1C470.4,177.3,471.6,178.6,473.2,178.6"/>
		<path class="st2" d="M572.7,164.5h0.9v-3c0-1.6,0.9-2.4,2.1-2.4h0v-0.9c-1,0-1.8,0.6-2.1,1.5v-1.4h-0.9V164.5z M567.1,161
			c0.1-1.3,0.8-2.2,1.7-2.2c1,0,1.6,1,1.6,2.2H567.1z M569,164.6c0.9,0,1.6-0.4,2.1-0.9l-0.5-0.6c-0.4,0.4-0.9,0.7-1.6,0.7
			c-1,0-1.8-0.8-1.9-2.2h4.2c0-0.1,0-0.3,0-0.4c0-1.9-0.9-3.2-2.5-3.2c-1.5,0-2.6,1.3-2.6,3.2v0.1
			C566.2,163.4,567.4,164.6,569,164.6 M560.1,164.5h0.9v-3.8c0-1.1,0.7-1.8,1.6-1.8c0.9,0,1.4,0.6,1.4,1.7v3.9h0.9v-4.1
			c0-1.4-0.8-2.3-2-2.3c-0.9,0-1.5,0.5-1.8,1.1v-3.4h-0.9V164.5z M557.8,164.6c0.4,0,0.7-0.1,0.9-0.2v-0.7c-0.3,0.1-0.5,0.2-0.7,0.2
			c-0.5,0-0.9-0.2-0.9-0.9V159h1.6v-0.8h-1.6v-1.8h-0.9v1.8h-0.8v0.8h0.8v4C556.2,164.1,556.9,164.6,557.8,164.6 M551.7,163.8
			c-1.1,0-1.9-1-1.9-2.4v-0.1c0-1.4,0.8-2.4,1.9-2.4c1.1,0,1.9,1,1.9,2.4v0.1C553.6,162.8,552.8,163.8,551.7,163.8 M551.7,164.6
			c1.6,0,2.8-1.4,2.8-3.2v-0.1c0-1.8-1.2-3.2-2.8-3.2c-1.6,0-2.8,1.4-2.8,3.2v0.1C548.9,163.2,550.1,164.6,551.7,164.6 M541.7,163.8
			c-1,0-1.8-0.9-1.8-2.4v-0.1c0-1.5,0.8-2.4,1.8-2.4c1,0,1.9,0.9,1.9,2.4v0.1C543.6,162.9,542.7,163.8,541.7,163.8 M541.5,164.6
			c1,0,1.6-0.6,2-1.3v1.2h0.9v-8.7h-0.9v3.6c-0.4-0.7-1-1.3-2-1.3c-1.3,0-2.5,1.1-2.5,3.2v0.1C539,163.5,540.2,164.6,541.5,164.6
			 M532.9,164.5h0.9v-3.8c0-1.1,0.7-1.8,1.6-1.8c0.9,0,1.4,0.6,1.4,1.7v3.9h0.9v-4.1c0-1.4-0.8-2.3-2-2.3c-0.9,0-1.5,0.5-1.8,1.1v-1
			h-0.9V164.5z M528.6,163.9c-0.7,0-1.3-0.5-1.3-1.3v0c0-0.8,0.6-1.3,1.5-1.3c0.6,0,1.1,0.1,1.5,0.3v0.8
			C530.3,163.2,529.6,163.9,528.6,163.9 M528.4,164.6c0.9,0,1.5-0.5,1.9-1v0.9h0.9v-4c0-0.7-0.2-1.3-0.6-1.7c-0.4-0.4-1-0.6-1.8-0.6
			c-0.8,0-1.4,0.2-2,0.5l0.3,0.7c0.4-0.2,1-0.4,1.6-0.4c1,0,1.6,0.5,1.6,1.5v0.4c-0.5-0.1-0.9-0.3-1.6-0.3c-1.4,0-2.3,0.7-2.3,2v0
			C526.4,163.9,527.4,164.6,528.4,164.6 M520.8,165.9c0.9-0.2,1.3-0.7,1.3-1.6v-1.1H521v1.2h0.4c0,0.5-0.2,0.8-0.8,1L520.8,165.9z
			 M516.6,163.3c-1,0-1.8-0.8-1.8-2.2v0c0-1.4,0.8-2.2,1.8-2.2c1,0,1.9,0.8,1.9,2.2v0C518.4,162.4,517.5,163.3,516.6,163.3
			 M516.5,166.3c0.9,0,1.6-0.2,2.1-0.7c0.4-0.4,0.7-1.1,0.7-1.9v-5.4h-0.9v1.1c-0.4-0.7-1.1-1.2-2.1-1.2c-1.3,0-2.5,1.1-2.5,3v0
			c0,1.9,1.2,2.9,2.5,2.9c1,0,1.6-0.6,2.1-1.3v0.9c0,1.2-0.7,1.9-1.9,1.9c-0.7,0-1.4-0.2-2-0.6l-0.3,0.7
			C514.9,166.1,515.7,166.3,516.5,166.3 M507.8,164.5h0.9v-3.8c0-1.1,0.7-1.8,1.6-1.8c0.9,0,1.4,0.6,1.4,1.7v3.9h0.9v-4.1
			c0-1.4-0.8-2.3-2-2.3c-0.9,0-1.5,0.5-1.8,1.1v-1h-0.9V164.5z M505,164.5h0.9v-6.2H505V164.5z M505,156.9h1v-1h-1V156.9z
			 M502.6,164.6c0.4,0,0.7-0.1,0.9-0.2v-0.7c-0.3,0.1-0.5,0.2-0.7,0.2c-0.5,0-0.9-0.2-0.9-0.9V159h1.6v-0.8h-1.6v-1.8h-0.9v1.8h-0.8
			v0.8h0.8v4C501.1,164.1,501.8,164.6,502.6,164.6 M496.6,164.5h0.9v-3c0-1.6,0.9-2.4,2.1-2.4h0v-0.9c-1,0-1.8,0.6-2.1,1.5v-1.4
			h-0.9V164.5z M492.4,163.8c-1.1,0-1.9-1-1.9-2.4v-0.1c0-1.4,0.8-2.4,1.9-2.4c1.1,0,1.9,1,1.9,2.4v0.1
			C494.3,162.8,493.5,163.8,492.4,163.8 M492.4,164.6c1.6,0,2.8-1.4,2.8-3.2v-0.1c0-1.8-1.2-3.2-2.8-3.2c-1.6,0-2.8,1.4-2.8,3.2v0.1
			C489.6,163.2,490.8,164.6,492.4,164.6 M485.8,163.8c-1,0-1.9-0.9-1.9-2.4v-0.1c0-1.5,0.9-2.4,1.9-2.4c1,0,1.8,0.9,1.8,2.4v0.1
			C487.6,162.9,486.8,163.8,485.8,163.8 M483.1,166.3h0.9v-3c0.4,0.7,1,1.3,2,1.3c1.3,0,2.5-1.1,2.5-3.2v-0.1c0-2.1-1.2-3.2-2.5-3.2
			c-1,0-1.6,0.6-2,1.3v-1.2h-0.9V166.3z M477.5,161c0.1-1.3,0.8-2.2,1.7-2.2c1,0,1.6,1,1.6,2.2H477.5z M479.4,164.6
			c0.9,0,1.6-0.4,2.1-0.9l-0.5-0.6c-0.4,0.4-0.9,0.7-1.6,0.7c-1,0-1.8-0.8-1.9-2.2h4.2c0-0.1,0-0.3,0-0.4c0-1.9-0.9-3.2-2.5-3.2
			c-1.5,0-2.6,1.3-2.6,3.2v0.1C476.6,163.4,477.9,164.6,479.4,164.6 M473,164.5h0.9v-3c0-1.6,0.9-2.4,2.1-2.4h0v-0.9
			c-1,0-1.8,0.6-2.1,1.5v-1.4H473V164.5z M466.9,165.9c0.9-0.2,1.3-0.7,1.3-1.6v-1.1h-1.1v1.2h0.4c0,0.5-0.2,0.8-0.8,1L466.9,165.9z
			 M461.7,161c0.1-1.3,0.8-2.2,1.7-2.2c1,0,1.6,1,1.6,2.2H461.7z M463.6,164.6c0.9,0,1.6-0.4,2.1-0.9l-0.5-0.6
			c-0.4,0.4-0.9,0.7-1.6,0.7c-1,0-1.8-0.8-1.9-2.2h4.2c0-0.1,0-0.3,0-0.4c0-1.9-0.9-3.2-2.5-3.2c-1.5,0-2.6,1.3-2.6,3.2v0.1
			C460.9,163.4,462.1,164.6,463.6,164.6 M457.2,164.5h0.9v-3c0-1.6,0.9-2.4,2.1-2.4h0v-0.9c-1,0-1.8,0.6-2.1,1.5v-1.4h-0.9V164.5z
			 M453,163.9c-0.7,0-1.3-0.5-1.3-1.3v0c0-0.8,0.6-1.3,1.5-1.3c0.6,0,1.1,0.1,1.5,0.3v0.8C454.7,163.2,453.9,163.9,453,163.9
			 M452.8,164.6c0.9,0,1.5-0.5,1.9-1v0.9h0.9v-4c0-0.7-0.2-1.3-0.6-1.7c-0.4-0.4-1-0.6-1.8-0.6c-0.8,0-1.4,0.2-2,0.5l0.3,0.7
			c0.4-0.2,1-0.4,1.6-0.4c1,0,1.6,0.5,1.6,1.5v0.4c-0.5-0.1-0.9-0.3-1.6-0.3c-1.4,0-2.3,0.7-2.3,2v0
			C450.8,163.9,451.7,164.6,452.8,164.6 M447.9,164.6c0.9,0,1.5-0.4,2-0.9l-0.5-0.6c-0.4,0.4-0.9,0.7-1.5,0.7
			c-1.1,0-1.9-0.9-1.9-2.4v-0.1c0-1.5,0.8-2.4,1.9-2.4c0.6,0,1.1,0.3,1.5,0.7l0.5-0.6c-0.5-0.5-1.1-0.9-2-0.9
			c-1.6,0-2.8,1.3-2.8,3.2v0.1C445.1,163.3,446.3,164.6,447.9,164.6 M438.1,164.5h0.9v-3c0-1.6,0.9-2.4,2.1-2.4h0v-0.9
			c-1,0-1.8,0.6-2.1,1.5v-1.4h-0.9V164.5z M432.5,161c0.1-1.3,0.8-2.2,1.7-2.2c1,0,1.6,1,1.6,2.2H432.5z M434.4,164.6
			c0.9,0,1.6-0.4,2.1-0.9l-0.5-0.6c-0.4,0.4-0.9,0.7-1.6,0.7c-1,0-1.8-0.8-1.9-2.2h4.2c0-0.1,0-0.3,0-0.4c0-1.9-0.9-3.2-2.5-3.2
			c-1.5,0-2.6,1.3-2.6,3.2v0.1C431.7,163.4,432.9,164.6,434.4,164.6 M422,164.5h0.9v-3.8c0-1.1,0.6-1.8,1.5-1.8
			c0.9,0,1.4,0.6,1.4,1.7v3.9h0.9v-3.8c0-1.1,0.7-1.8,1.5-1.8c0.9,0,1.4,0.6,1.4,1.7v3.9h0.9v-4.1c0-1.5-0.8-2.3-2-2.3
			c-1,0-1.5,0.5-1.9,1.1c-0.3-0.7-0.9-1.1-1.7-1.1c-0.9,0-1.4,0.5-1.8,1.1v-1H422V164.5z M417.8,163.8c-1.1,0-1.9-1-1.9-2.4v-0.1
			c0-1.4,0.8-2.4,1.9-2.4c1.1,0,1.9,1,1.9,2.4v0.1C419.7,162.8,418.9,163.8,417.8,163.8 M417.8,164.6c1.6,0,2.8-1.4,2.8-3.2v-0.1
			c0-1.8-1.2-3.2-2.8-3.2c-1.6,0-2.8,1.4-2.8,3.2v0.1C415,163.2,416.2,164.6,417.8,164.6 M413.2,164.6c0.4,0,0.7-0.1,0.9-0.2v-0.7
			c-0.3,0.1-0.5,0.2-0.7,0.2c-0.5,0-0.9-0.2-0.9-0.9V159h1.6v-0.8h-1.6v-1.8h-0.9v1.8h-0.8v0.8h0.8v4
			C411.6,164.1,412.3,164.6,413.2,164.6 M408,164.6c1.1,0,2-0.7,2-1.8v0c0-0.9-0.7-1.4-1.8-1.8c-0.9-0.4-1.4-0.6-1.4-1.2v0
			c0-0.5,0.4-0.9,1.1-0.9c0.6,0,1.1,0.2,1.6,0.6l0.4-0.7c-0.5-0.4-1.3-0.7-2-0.7c-1.1,0-1.9,0.7-1.9,1.7v0c0,1,0.8,1.4,1.8,1.8
			c0.8,0.3,1.4,0.6,1.4,1.2v0c0,0.6-0.5,1-1.2,1c-0.6,0-1.2-0.3-1.8-0.8l-0.5,0.6C406.4,164.3,407.2,164.6,408,164.6 M401.8,164.6
			c0.9,0,1.5-0.5,1.8-1.1v1h0.9v-6.2h-0.9v3.8c0,1.1-0.7,1.8-1.6,1.8c-0.9,0-1.4-0.6-1.4-1.7v-3.9h-0.9v4.1
			C399.8,163.7,400.6,164.6,401.8,164.6 M396.6,164.6c0.9,0,1.5-0.4,2-0.9l-0.5-0.6c-0.4,0.4-0.9,0.7-1.5,0.7
			c-1.1,0-1.9-0.9-1.9-2.4v-0.1c0-1.5,0.8-2.4,1.9-2.4c0.6,0,1.1,0.3,1.5,0.7l0.5-0.6c-0.5-0.5-1.1-0.9-2-0.9
			c-1.6,0-2.8,1.3-2.8,3.2v0.1C393.8,163.3,395,164.6,396.6,164.6 M388.1,165.9c0.9-0.2,1.3-0.7,1.3-1.6v-1.1h-1.1v1.2h0.4
			c0,0.5-0.2,0.8-0.8,1L388.1,165.9z M383.9,163.3c-1,0-1.8-0.8-1.8-2.2v0c0-1.4,0.8-2.2,1.8-2.2c1,0,1.9,0.8,1.9,2.2v0
			C385.8,162.4,384.8,163.3,383.9,163.3 M383.8,166.3c0.9,0,1.6-0.2,2.1-0.7c0.4-0.4,0.7-1.1,0.7-1.9v-5.4h-0.9v1.1
			c-0.4-0.7-1.1-1.2-2.1-1.2c-1.3,0-2.5,1.1-2.5,3v0c0,1.9,1.2,2.9,2.5,2.9c1,0,1.6-0.6,2.1-1.3v0.9c0,1.2-0.7,1.9-1.9,1.9
			c-0.7,0-1.4-0.2-2-0.6l-0.3,0.7C382.2,166.1,383,166.3,383.8,166.3 M375.1,164.5h0.9v-3.8c0-1.1,0.7-1.8,1.6-1.8
			c0.9,0,1.4,0.6,1.4,1.7v3.9h0.9v-4.1c0-1.4-0.8-2.3-2-2.3c-0.9,0-1.5,0.5-1.8,1.1v-1h-0.9V164.5z M372.4,164.5h0.9v-6.2h-0.9
			V164.5z M372.3,156.9h1v-1h-1V156.9z M369,164.6c0.9,0,1.5-0.4,2-0.9l-0.5-0.6c-0.4,0.4-0.9,0.7-1.5,0.7c-1.1,0-1.9-0.9-1.9-2.4
			v-0.1c0-1.5,0.8-2.4,1.9-2.4c0.6,0,1.1,0.3,1.5,0.7l0.5-0.6c-0.5-0.5-1.1-0.9-2-0.9c-1.6,0-2.8,1.3-2.8,3.2v0.1
			C366.2,163.3,367.4,164.6,369,164.6 M362.6,164.5h0.9v-3c0-1.6,0.9-2.4,2.1-2.4h0v-0.9c-1,0-1.8,0.6-2.1,1.5v-1.4h-0.9V164.5z
			 M358.1,164.6c0.9,0,1.5-0.5,1.8-1.1v1h0.9v-6.2H360v3.8c0,1.1-0.7,1.8-1.6,1.8c-0.9,0-1.4-0.6-1.4-1.7v-3.9h-0.9v4.1
			C356.1,163.7,356.9,164.6,358.1,164.6 M352,163.8c-1.1,0-1.9-1-1.9-2.4v-0.1c0-1.4,0.8-2.4,1.9-2.4c1.1,0,1.9,1,1.9,2.4v0.1
			C353.9,162.8,353.1,163.8,352,163.8 M352,164.6c1.6,0,2.8-1.4,2.8-3.2v-0.1c0-1.8-1.2-3.2-2.8-3.2c-1.6,0-2.8,1.4-2.8,3.2v0.1
			C349.2,163.2,350.3,164.6,352,164.6 M346.1,164.6c1.1,0,2-0.7,2-1.8v0c0-0.9-0.7-1.4-1.8-1.8c-0.9-0.4-1.4-0.6-1.4-1.2v0
			c0-0.5,0.4-0.9,1.1-0.9c0.6,0,1.1,0.2,1.6,0.6l0.4-0.7c-0.5-0.4-1.3-0.7-2-0.7c-1.1,0-1.9,0.7-1.9,1.7v0c0,1,0.8,1.4,1.8,1.8
			c0.8,0.3,1.4,0.6,1.4,1.2v0c0,0.6-0.5,1-1.2,1c-0.6,0-1.2-0.3-1.8-0.8l-0.5,0.6C344.5,164.3,345.3,164.6,346.1,164.6"/>
		<path class="st2" d="M573.9,151.9c0.9-0.2,1.3-0.7,1.3-1.6v-1.1h-1.1v1.2h0.4c0,0.5-0.2,0.8-0.8,1L573.9,151.9z M569.7,149.3
			c-1,0-1.8-0.8-1.8-2.2v0c0-1.4,0.8-2.2,1.8-2.2c1,0,1.9,0.8,1.9,2.2v0C571.6,148.4,570.7,149.3,569.7,149.3 M569.7,152.3
			c0.9,0,1.6-0.2,2.1-0.7c0.4-0.4,0.7-1.1,0.7-1.9v-5.4h-0.9v1.1c-0.4-0.7-1.1-1.2-2.1-1.2c-1.3,0-2.5,1.1-2.5,3v0
			c0,1.9,1.2,2.9,2.5,2.9c1,0,1.6-0.6,2.1-1.3v0.9c0,1.2-0.7,1.9-1.9,1.9c-0.7,0-1.4-0.2-2-0.6l-0.3,0.7
			C568,152.1,568.8,152.3,569.7,152.3 M560.9,150.5h0.9v-3.8c0-1.1,0.7-1.8,1.6-1.8c0.9,0,1.4,0.6,1.4,1.7v3.9h0.9v-4.1
			c0-1.4-0.8-2.3-2-2.3c-0.9,0-1.5,0.5-1.8,1.1v-1h-0.9V150.5z M558.2,150.5h0.9v-6.2h-0.9V150.5z M558.2,142.9h1v-1h-1V142.9z
			 M555.8,150.6c0.4,0,0.7-0.1,0.9-0.2v-0.7c-0.3,0.1-0.5,0.2-0.7,0.2c-0.5,0-0.9-0.2-0.9-0.9V145h1.6v-0.8h-1.6v-1.8h-0.9v1.8h-0.8
			v0.8h0.8v4C554.3,150.1,554.9,150.6,555.8,150.6 M551.3,150.5h0.9v-8.7h-0.9V150.5z M546.7,150.6c0.9,0,1.5-0.5,1.8-1.1v1h0.9
			v-6.2h-0.9v3.8c0,1.1-0.7,1.8-1.6,1.8c-0.9,0-1.4-0.6-1.4-1.7v-3.9h-0.9v4.1C544.7,149.7,545.4,150.6,546.7,150.6 M541.3,150.6
			c1.1,0,2-0.7,2-1.8v0c0-0.9-0.7-1.4-1.8-1.8c-0.9-0.4-1.4-0.6-1.4-1.2v0c0-0.5,0.4-0.9,1.1-0.9c0.6,0,1.1,0.2,1.6,0.6l0.4-0.7
			c-0.5-0.4-1.3-0.7-2-0.7c-1.1,0-1.9,0.7-1.9,1.7v0c0,1,0.8,1.4,1.8,1.8c0.8,0.3,1.4,0.6,1.4,1.2v0c0,0.6-0.5,1-1.2,1
			c-0.6,0-1.2-0.3-1.8-0.8l-0.5,0.6C539.7,150.3,540.5,150.6,541.3,150.6 M533.2,150.5h0.9v-3.8c0-1.1,0.7-1.8,1.6-1.8
			c0.9,0,1.4,0.6,1.4,1.7v3.9h0.9v-4.1c0-1.4-0.8-2.3-2-2.3c-0.9,0-1.5,0.5-1.8,1.1v-1h-0.9V150.5z M529,149.8c-1.1,0-1.9-1-1.9-2.4
			v-0.1c0-1.4,0.8-2.4,1.9-2.4c1.1,0,1.9,1,1.9,2.4v0.1C530.9,148.8,530.1,149.8,529,149.8 M528.9,150.6c1.6,0,2.8-1.4,2.8-3.2v-0.1
			c0-1.8-1.2-3.2-2.8-3.2s-2.8,1.4-2.8,3.2v0.1C526.2,149.2,527.3,150.6,528.9,150.6 M523.4,150.6c0.9,0,1.5-0.4,2-0.9l-0.5-0.6
			c-0.4,0.4-0.9,0.7-1.5,0.7c-1.1,0-1.9-0.9-1.9-2.4v-0.1c0-1.5,0.8-2.4,1.9-2.4c0.6,0,1.1,0.3,1.5,0.7l0.5-0.6
			c-0.5-0.5-1.1-0.9-2-0.9c-1.6,0-2.8,1.3-2.8,3.2v0.1C520.6,149.3,521.8,150.6,523.4,150.6 M513.3,149.3c-1,0-1.8-0.8-1.8-2.2v0
			c0-1.4,0.8-2.2,1.8-2.2c1,0,1.9,0.8,1.9,2.2v0C515.2,148.4,514.3,149.3,513.3,149.3 M513.3,152.3c0.9,0,1.6-0.2,2.1-0.7
			c0.4-0.4,0.7-1.1,0.7-1.9v-5.4h-0.9v1.1c-0.4-0.7-1.1-1.2-2.1-1.2c-1.3,0-2.5,1.1-2.5,3v0c0,1.9,1.2,2.9,2.5,2.9
			c1,0,1.6-0.6,2.1-1.3v0.9c0,1.2-0.7,1.9-1.9,1.9c-0.7,0-1.4-0.2-2-0.6l-0.3,0.7C511.7,152.1,512.5,152.3,513.3,152.3 M504.5,150.5
			h0.9v-3.8c0-1.1,0.7-1.8,1.6-1.8c0.9,0,1.4,0.6,1.4,1.7v3.9h0.9v-4.1c0-1.4-0.8-2.3-2-2.3c-0.9,0-1.5,0.5-1.8,1.1v-1h-0.9V150.5z
			 M501.8,150.5h0.9v-6.2h-0.9V150.5z M501.8,142.9h1v-1h-1V142.9z M497.3,149.8c-1,0-1.8-0.9-1.8-2.4v-0.1c0-1.5,0.8-2.4,1.8-2.4
			c1,0,1.9,0.9,1.9,2.4v0.1C499.2,148.9,498.3,149.8,497.3,149.8 M497.1,150.6c1,0,1.6-0.6,2-1.3v1.2h0.9v-8.7h-0.9v3.6
			c-0.4-0.7-1-1.3-2-1.3c-1.3,0-2.5,1.1-2.5,3.2v0.1C494.6,149.5,495.8,150.6,497.1,150.6 M492.2,150.5h0.9v-6.2h-0.9V150.5z
			 M492.1,142.9h1v-1h-1V142.9z M487.8,150.5h0.8l2.3-6.3h-0.9l-1.8,5.1l-1.8-5.1h-0.9L487.8,150.5z M482.1,149.8
			c-1.1,0-1.9-1-1.9-2.4v-0.1c0-1.4,0.8-2.4,1.9-2.4c1.1,0,1.9,1,1.9,2.4v0.1C484,148.8,483.2,149.8,482.1,149.8 M482.1,150.6
			c1.6,0,2.8-1.4,2.8-3.2v-0.1c0-1.8-1.2-3.2-2.8-3.2c-1.6,0-2.8,1.4-2.8,3.2v0.1C479.3,149.2,480.5,150.6,482.1,150.6 M475.7,150.5
			h0.9v-3c0-1.6,0.9-2.4,2.1-2.4h0v-0.9c-1,0-1.8,0.6-2.1,1.5v-1.4h-0.9V150.5z M471.6,149.8c-1,0-1.9-0.9-1.9-2.4v-0.1
			c0-1.5,0.9-2.4,1.9-2.4c1,0,1.8,0.9,1.8,2.4v0.1C473.4,148.9,472.6,149.8,471.6,149.8 M468.9,152.3h0.9v-3c0.4,0.7,1,1.3,2,1.3
			c1.3,0,2.5-1.1,2.5-3.2v-0.1c0-2.1-1.2-3.2-2.5-3.2c-1,0-1.6,0.6-2,1.3v-1.2h-0.9V152.3z M461.9,149.4l-1.9-5.1h-0.9l2.4,6.3
			c-0.3,0.8-0.6,1.1-1.1,1.1c-0.3,0-0.6-0.1-0.8-0.2l-0.3,0.7c0.4,0.2,0.7,0.3,1.1,0.3c0.8,0,1.4-0.4,1.8-1.7l2.2-6.4h-0.9
			L461.9,149.4z M455.7,149.8c-1,0-1.9-0.9-1.9-2.4v-0.1c0-1.5,0.9-2.4,1.9-2.4c1,0,1.8,0.9,1.8,2.4v0.1
			C457.5,148.9,456.7,149.8,455.7,149.8 M455.9,150.6c1.3,0,2.5-1.1,2.5-3.2v-0.1c0-2.1-1.2-3.2-2.5-3.2c-1,0-1.6,0.6-2,1.3v-3.6
			H453v8.7h0.9v-1.2C454.3,150,454.9,150.6,455.9,150.6 M446.5,150.6c1.1,0,2-0.7,2-1.8v0c0-0.9-0.7-1.4-1.8-1.8
			c-0.9-0.4-1.4-0.6-1.4-1.2v0c0-0.5,0.4-0.9,1.1-0.9c0.6,0,1.1,0.2,1.6,0.6l0.4-0.7c-0.5-0.4-1.3-0.7-2-0.7c-1.1,0-1.9,0.7-1.9,1.7
			v0c0,1,0.8,1.4,1.8,1.8c0.8,0.3,1.4,0.6,1.4,1.2v0c0,0.6-0.5,1-1.2,1c-0.6,0-1.2-0.3-1.8-0.8l-0.5,0.6
			C444.9,150.3,445.7,150.6,446.5,150.6 M442,150.5h0.9v-8.7H442V150.5z M437.7,149.9c-0.7,0-1.3-0.5-1.3-1.3v0
			c0-0.8,0.6-1.3,1.5-1.3c0.6,0,1.1,0.1,1.5,0.3v0.8C439.5,149.2,438.7,149.9,437.7,149.9 M437.5,150.6c0.9,0,1.5-0.5,1.9-1v0.9h0.8
			v-4c0-0.7-0.2-1.3-0.6-1.7c-0.4-0.4-1-0.6-1.8-0.6c-0.8,0-1.4,0.2-2,0.5l0.3,0.7c0.4-0.2,1-0.4,1.6-0.4c1,0,1.6,0.5,1.6,1.5v0.4
			c-0.5-0.1-0.9-0.3-1.6-0.3c-1.4,0-2.3,0.7-2.3,2v0C435.5,149.9,436.5,150.6,437.5,150.6 M431.7,149.8c-1.1,0-1.9-1-1.9-2.4v-0.1
			c0-1.4,0.8-2.4,1.9-2.4c1.1,0,1.9,1,1.9,2.4v0.1C433.6,148.8,432.8,149.8,431.7,149.8 M431.7,150.6c1.6,0,2.8-1.4,2.8-3.2v-0.1
			c0-1.8-1.2-3.2-2.8-3.2s-2.8,1.4-2.8,3.2v0.1C428.9,149.2,430.1,150.6,431.7,150.6 M424.8,149.3c-1,0-1.8-0.8-1.8-2.2v0
			c0-1.4,0.8-2.2,1.8-2.2c1,0,1.9,0.8,1.9,2.2v0C426.7,148.4,425.7,149.3,424.8,149.3 M424.7,152.3c0.9,0,1.6-0.2,2.1-0.7
			c0.4-0.4,0.7-1.1,0.7-1.9v-5.4h-0.9v1.1c-0.4-0.7-1.1-1.2-2.1-1.2c-1.3,0-2.5,1.1-2.5,3v0c0,1.9,1.2,2.9,2.5,2.9
			c1,0,1.6-0.6,2.1-1.3v0.9c0,1.2-0.7,1.9-1.9,1.9c-0.7,0-1.4-0.2-2-0.6l-0.3,0.7C423.1,152.1,423.9,152.3,424.7,152.3 M416.7,150.6
			c0.6,0,1.1-0.1,1.4-0.3v-1.7c-0.2,0.1-0.5,0.2-0.7,0.2c-0.4,0-0.5-0.2-0.5-0.5v-2.6h1.3V144h-1.3v-1.6h-2.1v1.6h-0.6v1.7h0.6v3
			C414.8,150.1,415.5,150.6,416.7,150.6 M407.7,150.5h2.1v-3.8c0-0.6,0.3-0.9,0.8-0.9c0.4,0,0.7,0.3,0.7,0.9v3.8h2.1V146
			c0-1.3-0.7-2.1-1.9-2.1c-0.8,0-1.4,0.5-1.7,1V144h-2.1V150.5z M403.1,146.7c0.1-0.8,0.4-1.2,0.9-1.2c0.5,0,0.9,0.4,0.9,1.2H403.1z
			 M404.2,150.6c1.1,0,1.9-0.4,2.5-1.1l-1-1.2c-0.4,0.4-0.8,0.6-1.3,0.6c-0.6,0-1.1-0.4-1.2-1.1h3.8c0-0.2,0-0.5,0-0.6
			c0-2-1-3.5-2.9-3.5c-1.7,0-2.9,1.4-2.9,3.3v0.1C401.1,149.3,402.4,150.6,404.2,150.6 M391,150.5h2.1v-3.8c0-0.6,0.3-0.9,0.8-0.9
			c0.4,0,0.7,0.3,0.7,0.9v3.8h2.1v-3.8c0-0.6,0.3-0.9,0.8-0.9c0.4,0,0.7,0.3,0.7,0.9v3.8h2.1V146c0-1.4-0.7-2.1-1.9-2.1
			c-0.8,0-1.4,0.4-1.9,1c-0.3-0.6-0.9-1-1.6-1c-0.8,0-1.3,0.5-1.7,1V144H391V150.5z M386.4,146.7c0.1-0.8,0.4-1.2,0.9-1.2
			c0.5,0,0.9,0.4,0.9,1.2H386.4z M387.5,150.6c1.1,0,1.9-0.4,2.5-1.1l-1-1.2c-0.4,0.4-0.8,0.6-1.3,0.6c-0.6,0-1.1-0.4-1.2-1.1h3.8
			c0-0.2,0-0.5,0-0.6c0-2-1-3.5-2.9-3.5c-1.7,0-2.9,1.4-2.9,3.3v0.1C384.4,149.3,385.7,150.6,387.5,150.6 M380.4,148.2
			c-0.6,0-1-0.5-1-1.3v0c0-0.8,0.4-1.3,1-1.3c0.6,0,1.1,0.5,1.1,1.3v0C381.5,147.7,381.1,148.2,380.4,148.2 M380.2,152.3
			c1.2,0,2-0.3,2.6-0.8c0.5-0.5,0.8-1.3,0.8-2.3V144h-2.1v0.8c-0.4-0.5-0.9-0.9-1.8-0.9c-1.3,0-2.4,1-2.4,3v0.1c0,2,1.1,3,2.4,3
			c0.8,0,1.4-0.4,1.8-0.9v0.3c0,0.9-0.5,1.4-1.5,1.4c-0.7,0-1.4-0.2-2-0.5l-0.6,1.5C378.3,152.1,379.2,152.3,380.2,152.3
			 M373.5,149.2c-0.4,0-0.7-0.3-0.7-0.7v0c0-0.5,0.3-0.8,0.8-0.8c0.3,0,0.6,0.1,0.7,0.2v0.5C374.4,148.9,374.1,149.2,373.5,149.2
			 M372.8,150.6c0.7,0,1.3-0.3,1.7-0.8v0.7h2.1v-3.9c0-0.9-0.2-1.5-0.7-2c-0.5-0.5-1.2-0.7-2.2-0.7c-0.9,0-1.7,0.2-2.4,0.5l0.5,1.6
			c0.4-0.2,0.9-0.4,1.5-0.4c0.7,0,1.1,0.3,1.1,1v0.2c-0.3-0.1-0.8-0.3-1.3-0.3c-1.3,0-2.2,0.7-2.2,2.1v0.1
			C370.9,149.9,371.7,150.6,372.8,150.6 M364.4,150.5h2.1v-3.8c0-0.6,0.3-0.9,0.8-0.9c0.4,0,0.7,0.3,0.7,0.9v3.8h2.1V146
			c0-1.3-0.7-2.1-1.9-2.1c-0.8,0-1.4,0.5-1.7,1V144h-2.1V150.5z M360.5,149.2c-0.4,0-0.7-0.3-0.7-0.7v0c0-0.5,0.3-0.8,0.8-0.8
			c0.3,0,0.6,0.1,0.7,0.2v0.5C361.4,148.9,361,149.2,360.5,149.2 M359.7,150.6c0.7,0,1.3-0.3,1.7-0.8v0.7h2.1v-3.9
			c0-0.9-0.2-1.5-0.7-2c-0.5-0.5-1.2-0.7-2.2-0.7c-0.9,0-1.7,0.2-2.4,0.5l0.5,1.6c0.4-0.2,0.9-0.4,1.5-0.4c0.7,0,1.1,0.3,1.1,1v0.2
			c-0.3-0.1-0.8-0.3-1.3-0.3c-1.3,0-2.2,0.7-2.2,2.1v0.1C357.8,149.9,358.6,150.6,359.7,150.6 M347.8,150.5h2.1v-3.8
			c0-0.6,0.3-0.9,0.8-0.9c0.4,0,0.7,0.3,0.7,0.9v3.8h2.1v-3.8c0-0.6,0.3-0.9,0.8-0.9c0.4,0,0.7,0.3,0.7,0.9v3.8h2.1V146
			c0-1.4-0.7-2.1-1.9-2.1c-0.8,0-1.4,0.4-1.9,1c-0.3-0.6-0.9-1-1.6-1c-0.8,0-1.3,0.5-1.7,1V144h-2.1V150.5z"/>
		<path class="st2" d="M571.9,132.7c0.1-0.8,0.4-1.2,0.9-1.2c0.5,0,0.9,0.4,0.9,1.2H571.9z M573,136.6c1.1,0,1.9-0.4,2.5-1.1l-1-1.2
			c-0.4,0.4-0.8,0.6-1.3,0.6c-0.6,0-1.1-0.4-1.2-1.1h3.8c0-0.2,0-0.5,0-0.6c0-2-1-3.5-2.9-3.5c-1.7,0-2.9,1.4-2.9,3.3v0.1
			C569.9,135.3,571.2,136.6,573,136.6 M567.2,136.6c1.1,0,1.8-0.5,2.4-1.2l-1.2-1.2c-0.3,0.3-0.6,0.6-1,0.6c-0.7,0-1.1-0.6-1.1-1.5
			v0c0-0.9,0.4-1.5,1.1-1.5c0.4,0,0.7,0.2,1,0.6l1.2-1.3c-0.5-0.7-1.3-1.1-2.3-1.1c-1.8,0-3.1,1.4-3.1,3.3v0.1
			C564.2,135.2,565.5,136.6,567.2,136.6 M560,136.5h2.1v-2.4c0-1.3,0.6-1.9,1.6-1.9h0.1v-2.3c-0.9,0-1.4,0.5-1.7,1.3V130H560V136.5z
			 M555.1,136.6c0.8,0,1.4-0.5,1.7-1v0.9h2.1V130h-2.1v3.8c0,0.6-0.3,0.9-0.8,0.9c-0.4,0-0.7-0.3-0.7-0.9V130h-2.1v4.5
			C553.2,135.8,553.9,136.6,555.1,136.6 M549.3,134.8c-0.7,0-1.1-0.6-1.1-1.5v-0.1c0-0.9,0.4-1.5,1.1-1.5c0.7,0,1.1,0.6,1.1,1.5v0.1
			C550.4,134.2,550,134.8,549.3,134.8 M549.3,136.6c1.8,0,3.2-1.4,3.2-3.3v-0.2c0-1.9-1.3-3.3-3.1-3.3c-1.8,0-3.2,1.4-3.2,3.3v0.2
			C546.2,135.2,547.5,136.6,549.3,136.6 M543.2,136.6c1.5,0,2.4-0.8,2.4-2.1v0c0-1.1-0.8-1.6-2-2c-0.6-0.3-1-0.4-1-0.6v0
			c0-0.2,0.2-0.3,0.5-0.3c0.5,0,1.1,0.2,1.6,0.6l0.8-1.4c-0.7-0.5-1.6-0.7-2.4-0.7c-1.4,0-2.4,0.8-2.4,2.1v0c0,1.2,0.8,1.6,2,2.1
			c0.6,0.3,0.9,0.4,0.9,0.6v0c0,0.2-0.2,0.4-0.5,0.4c-0.6,0-1.2-0.3-1.9-0.7l-0.8,1.4C541.3,136.3,542.3,136.6,543.2,136.6
			 M536.3,132.7c0.1-0.8,0.4-1.2,0.9-1.2c0.5,0,0.9,0.4,0.9,1.2H536.3z M537.4,136.6c1.1,0,1.9-0.4,2.5-1.1l-1-1.2
			c-0.4,0.4-0.8,0.6-1.3,0.6c-0.6,0-1.1-0.4-1.2-1.1h3.8c0-0.2,0-0.5,0-0.6c0-2-1-3.5-2.9-3.5c-1.7,0-2.9,1.4-2.9,3.3v0.1
			C534.3,135.3,535.6,136.6,537.4,136.6 M530.1,136.5h2.1v-2.4c0-1.3,0.6-1.9,1.6-1.9h0.1v-2.3c-0.9,0-1.4,0.5-1.7,1.3V130h-2.1
			V136.5z M523.2,136.5h0.9v-3c0-1.6,0.9-2.4,2.1-2.4h0v-0.9c-1,0-1.8,0.6-2.1,1.5v-1.4h-0.9V136.5z M520.4,136.5h0.9v-6.2h-0.9
			V136.5z M520.4,128.9h1v-1h-1V128.9z M514.8,133c0.1-1.3,0.8-2.2,1.7-2.2c1,0,1.6,1,1.6,2.2H514.8z M516.7,136.6
			c0.9,0,1.6-0.4,2.1-0.9l-0.5-0.6c-0.4,0.4-0.9,0.7-1.6,0.7c-1,0-1.8-0.8-1.9-2.1h4.2c0-0.1,0-0.3,0-0.4c0-1.9-0.9-3.2-2.5-3.2
			c-1.5,0-2.6,1.3-2.6,3.2v0.1C513.9,135.4,515.1,136.6,516.7,136.6 M507.8,136.5h0.9v-3.8c0-1.1,0.7-1.8,1.6-1.8
			c0.9,0,1.4,0.6,1.4,1.7v3.9h0.9v-4.1c0-1.4-0.8-2.3-2-2.3c-0.9,0-1.5,0.5-1.8,1.1v-3.4h-0.9V136.5z M505.5,136.6
			c0.4,0,0.7-0.1,0.9-0.2v-0.7c-0.3,0.1-0.5,0.2-0.7,0.2c-0.5,0-0.9-0.2-0.9-0.9V131h1.6v-0.8h-1.6v-1.8h-0.9v1.8h-0.8v0.8h0.8v4
			C503.9,136.1,504.6,136.6,505.5,136.6 M498.2,136.6c0.4,0,0.7-0.1,0.9-0.2v-0.7c-0.3,0.1-0.5,0.2-0.7,0.2c-0.5,0-0.9-0.2-0.9-0.9
			V131h1.6v-0.8h-1.6v-1.8h-0.9v1.8h-0.8v0.8h0.8v4C496.6,136.1,497.3,136.6,498.2,136.6 M490.8,133c0.1-1.3,0.8-2.2,1.7-2.2
			c1,0,1.6,1,1.6,2.2H490.8z M492.7,136.6c0.9,0,1.6-0.4,2.1-0.9l-0.5-0.6c-0.4,0.4-0.9,0.7-1.6,0.7c-1,0-1.8-0.8-1.9-2.1h4.2
			c0-0.1,0-0.3,0-0.4c0-1.9-0.9-3.2-2.5-3.2c-1.5,0-2.6,1.3-2.6,3.2v0.1C489.9,135.4,491.1,136.6,492.7,136.6 M484.6,133
			c0.1-1.3,0.8-2.2,1.7-2.2c1,0,1.6,1,1.6,2.2H484.6z M486.5,136.6c0.9,0,1.6-0.4,2.1-0.9l-0.5-0.6c-0.4,0.4-0.9,0.7-1.6,0.7
			c-1,0-1.8-0.8-1.9-2.1h4.2c0-0.1,0-0.3,0-0.4c0-1.9-0.9-3.2-2.5-3.2c-1.5,0-2.6,1.3-2.6,3.2v0.1
			C483.7,135.4,485,136.6,486.5,136.6 M474.1,136.5h0.9v-3.8c0-1.1,0.6-1.8,1.5-1.8c0.9,0,1.4,0.6,1.4,1.7v3.9h0.9v-3.8
			c0-1.1,0.7-1.8,1.5-1.8c0.9,0,1.4,0.6,1.4,1.7v3.9h0.9v-4.1c0-1.5-0.8-2.3-2-2.3c-1,0-1.5,0.5-1.9,1.1c-0.3-0.7-0.9-1.1-1.7-1.1
			c-0.9,0-1.4,0.5-1.8,1.1v-1h-0.9V136.5z M467.6,136.6c1.1,0,2-0.7,2-1.8v0c0-0.9-0.7-1.4-1.8-1.8c-0.9-0.4-1.4-0.6-1.4-1.2v0
			c0-0.5,0.4-0.9,1.1-0.9c0.6,0,1.1,0.2,1.6,0.6l0.4-0.7c-0.5-0.4-1.3-0.7-2-0.7c-1.1,0-1.9,0.7-1.9,1.7v0c0,1,0.8,1.4,1.8,1.8
			c0.8,0.3,1.4,0.6,1.4,1.2v0c0,0.6-0.5,1-1.2,1c-0.6,0-1.2-0.3-1.8-0.8l-0.5,0.6C466,136.3,466.8,136.6,467.6,136.6 M461.7,136.5
			h0.9v-3c0-1.6,0.9-2.4,2.1-2.4h0v-0.9c-1,0-1.8,0.6-2.1,1.5v-1.4h-0.9V136.5z M456.1,133c0.1-1.3,0.8-2.2,1.7-2.2
			c1,0,1.6,1,1.6,2.2H456.1z M458,136.6c0.9,0,1.6-0.4,2.1-0.9l-0.5-0.6c-0.4,0.4-0.9,0.7-1.6,0.7c-1,0-1.8-0.8-1.9-2.1h4.2
			c0-0.1,0-0.3,0-0.4c0-1.9-0.9-3.2-2.5-3.2c-1.5,0-2.6,1.3-2.6,3.2v0.1C455.2,135.4,456.4,136.6,458,136.6 M445.6,136.5h0.9v-3.8
			c0-1.1,0.6-1.8,1.5-1.8c0.9,0,1.4,0.6,1.4,1.7v3.9h0.9v-3.8c0-1.1,0.7-1.8,1.5-1.8c0.9,0,1.4,0.6,1.4,1.7v3.9h0.9v-4.1
			c0-1.5-0.8-2.3-2-2.3c-1,0-1.5,0.5-1.9,1.1c-0.3-0.7-0.9-1.1-1.7-1.1c-0.9,0-1.4,0.5-1.8,1.1v-1h-0.9V136.5z M441.3,135.8
			c-1.1,0-1.9-1-1.9-2.4v-0.1c0-1.4,0.8-2.4,1.9-2.4c1.1,0,1.9,1,1.9,2.4v0.1C443.2,134.8,442.5,135.8,441.3,135.8 M441.3,136.6
			c1.6,0,2.8-1.4,2.8-3.2v-0.1c0-1.8-1.2-3.2-2.8-3.2c-1.6,0-2.8,1.4-2.8,3.2v0.1C438.6,135.2,439.7,136.6,441.3,136.6 M436.7,136.6
			c0.4,0,0.7-0.1,0.9-0.2v-0.7c-0.3,0.1-0.5,0.2-0.7,0.2c-0.5,0-0.9-0.2-0.9-0.9V131h1.6v-0.8H436v-1.8h-0.9v1.8h-0.8v0.8h0.8v4
			C435.2,136.1,435.8,136.6,436.7,136.6 M431.5,136.6c1.1,0,2-0.7,2-1.8v0c0-0.9-0.7-1.4-1.8-1.8c-0.9-0.4-1.4-0.6-1.4-1.2v0
			c0-0.5,0.4-0.9,1.1-0.9c0.6,0,1.1,0.2,1.6,0.6l0.4-0.7c-0.5-0.4-1.3-0.7-2-0.7c-1.1,0-1.9,0.7-1.9,1.7v0c0,1,0.8,1.4,1.8,1.8
			c0.8,0.3,1.4,0.6,1.4,1.2v0c0,0.6-0.5,1-1.2,1c-0.6,0-1.2-0.3-1.8-0.8l-0.5,0.6C429.9,136.3,430.8,136.6,431.5,136.6 M425.4,136.6
			c0.9,0,1.5-0.5,1.8-1.1v1h0.9v-6.2h-0.9v3.8c0,1.1-0.7,1.8-1.6,1.8c-0.9,0-1.4-0.6-1.4-1.7v-3.9h-0.9v4.1
			C423.3,135.7,424.1,136.6,425.4,136.6 M420.1,136.6c0.9,0,1.5-0.4,2-0.9l-0.5-0.6c-0.4,0.4-0.9,0.7-1.5,0.7
			c-1.1,0-1.9-0.9-1.9-2.4v-0.1c0-1.5,0.8-2.4,1.9-2.4c0.6,0,1.1,0.3,1.5,0.7l0.5-0.6c-0.5-0.5-1.1-0.9-2-0.9
			c-1.6,0-2.8,1.3-2.8,3.2v0.1C417.4,135.3,418.5,136.6,420.1,136.6 M410.4,136.5h0.9v-3c0-1.6,0.9-2.4,2.1-2.4h0v-0.9
			c-1,0-1.8,0.6-2.1,1.5v-1.4h-0.9V136.5z M405.9,136.6c0.9,0,1.5-0.5,1.8-1.1v1h0.9v-6.2h-0.9v3.8c0,1.1-0.7,1.8-1.6,1.8
			c-0.9,0-1.4-0.6-1.4-1.7v-3.9h-0.9v4.1C403.8,135.7,404.6,136.6,405.9,136.6 M399.7,135.8c-1.1,0-1.9-1-1.9-2.4v-0.1
			c0-1.4,0.8-2.4,1.9-2.4c1.1,0,1.9,1,1.9,2.4v0.1C401.6,134.8,400.8,135.8,399.7,135.8 M399.7,136.6c1.6,0,2.8-1.4,2.8-3.2v-0.1
			c0-1.8-1.2-3.2-2.8-3.2s-2.8,1.4-2.8,3.2v0.1C396.9,135.2,398.1,136.6,399.7,136.6 M390,135.8c-1,0-1.9-0.9-1.9-2.4v-0.1
			c0-1.5,0.9-2.4,1.9-2.4c1,0,1.8,0.9,1.8,2.4v0.1C391.8,134.9,391,135.8,390,135.8 M387.3,138.3h0.9v-3c0.4,0.7,1,1.3,2,1.3
			c1.3,0,2.5-1.1,2.5-3.2v-0.1c0-2.1-1.2-3.2-2.5-3.2c-1,0-1.6,0.6-2,1.3v-1.2h-0.9V138.3z M384.6,136.5h0.9v-8.7h-0.9V136.5z
			 M378.9,133c0.1-1.3,0.8-2.2,1.7-2.2c1,0,1.6,1,1.6,2.2H378.9z M380.8,136.6c0.9,0,1.6-0.4,2.1-0.9l-0.5-0.6
			c-0.4,0.4-0.9,0.7-1.6,0.7c-1,0-1.8-0.8-1.9-2.1h4.2c0-0.1,0-0.3,0-0.4c0-1.9-0.9-3.2-2.5-3.2c-1.5,0-2.6,1.3-2.6,3.2v0.1
			C378,135.4,379.3,136.6,380.8,136.6 M371.9,136.5h0.9v-3.8c0-1.1,0.7-1.8,1.6-1.8c0.9,0,1.4,0.6,1.4,1.7v3.9h0.9v-4.1
			c0-1.4-0.8-2.3-2-2.3c-0.9,0-1.5,0.5-1.8,1.1v-3.4h-0.9V136.5z M363.2,133c0.1-1.3,0.8-2.2,1.7-2.2c1,0,1.6,1,1.6,2.2H363.2z
			 M365.1,136.6c0.9,0,1.6-0.4,2.1-0.9l-0.5-0.6c-0.4,0.4-0.9,0.7-1.6,0.7c-1,0-1.8-0.8-1.9-2.1h4.2c0-0.1,0-0.3,0-0.4
			c0-1.9-0.9-3.2-2.5-3.2c-1.5,0-2.6,1.3-2.6,3.2v0.1C362.3,135.4,363.6,136.6,365.1,136.6 M353.9,136.5h0.8l2-6.8l2,6.8h0.8
			l2.5-8.5H361l-2,6.9l-2-6.9h-0.8l-2,6.9l-2-6.9h-1L353.9,136.5z"/>
		<g class="st3">
			<g>
				<defs>
					<rect id="SVGID_1_" x="-13.5" y="9" width="173.8" height="173.8"/>
				</defs>
				<clipPath id="SVGID_2_">
					<use xlink:href="#SVGID_1_"  style="overflow:visible;"/>
				</clipPath>
				<path class="st4" d="M73.4,11.2c22.6,0,43.9,8.8,59.9,24.8c16,16,24.8,37.3,24.8,59.9s-8.8,43.9-24.8,59.9
					c-16,16-37.3,24.8-59.9,24.8s-43.9-8.8-59.9-24.8c-16-16-24.8-37.3-24.8-59.9S-2.5,52,13.5,36C29.5,20,50.7,11.2,73.4,11.2"/>
				<path class="st5" d="M73.4,11.2c22.6,0,43.9,8.8,59.9,24.8c16,16,24.8,37.3,24.8,59.9s-8.8,43.9-24.8,59.9
					c-16,16-37.3,24.8-59.9,24.8s-43.9-8.8-59.9-24.8c-16-16-24.8-37.3-24.8-59.9S-2.5,52,13.5,36C29.5,20,50.7,11.2,73.4,11.2"/>
			</g>
		</g>
		<g class="st3">
			<g>
				<defs>
					<rect id="SVGID_3_" x="64.1" y="24.1" width="5.6" height="7.7"/>
				</defs>
				<clipPath id="SVGID_4_">
					<use xlink:href="#SVGID_3_"  style="overflow:visible;"/>
				</clipPath>
				<path class="st6" d="M68.2,30.7c0.3-0.1,0.6-0.5,0.5-0.9l-1.2-3.9c-0.2-0.5-0.6-0.7-1.1-0.7c-0.2,0-0.3,0-0.5,0.1
					c-0.3,0.1-0.6,0.4-0.7,0.7c-0.1,0.3-0.1,0.6,0,0.9l2,3.5C67.4,30.8,67.9,30.8,68.2,30.7"/>
			</g>
		</g>
		<g class="st3">
			<g>
				<defs>
					<rect id="SVGID_5_" x="54.7" y="33.9" width="7.7" height="5.4"/>
				</defs>
				<clipPath id="SVGID_6_">
					<use xlink:href="#SVGID_5_"  style="overflow:visible;"/>
				</clipPath>
				<path class="st7" d="M61,36.8L57.4,35c-0.1-0.1-0.3-0.1-0.4-0.1c-0.5,0-1,0.3-1.2,0.8c-0.1,0.3-0.1,0.7,0,1
					c0.1,0.3,0.4,0.5,0.7,0.6l3.9,1c0.5,0.1,0.8-0.2,0.9-0.5C61.5,37.5,61.4,37,61,36.8"/>
			</g>
		</g>
		<g class="st3">
			<g>
				<defs>
					<rect id="SVGID_7_" x="55.5" y="45.6" width="7.7" height="5.6"/>
				</defs>
				<clipPath id="SVGID_8_">
					<use xlink:href="#SVGID_7_"  style="overflow:visible;"/>
				</clipPath>
				<path class="st8" d="M57.3,47.9c-0.3,0.1-0.5,0.4-0.7,0.7c-0.1,0.3-0.1,0.7,0,1c0.2,0.5,0.6,0.7,1.1,0.7c0.2,0,0.4,0,0.5-0.1
					l3.5-2c0.3-0.2,0.5-0.6,0.3-1c-0.2-0.4-0.5-0.6-0.9-0.5L57.3,47.9z"/>
			</g>
		</g>
		<g class="st3">
			<g>
				<defs>
					<rect id="SVGID_9_" x="77.6" y="24.1" width="5.6" height="7.7"/>
				</defs>
				<clipPath id="SVGID_10_">
					<use xlink:href="#SVGID_9_"  style="overflow:visible;"/>
				</clipPath>
				<path class="st9" d="M80.1,30.4l2-3.5c0.1-0.3,0.2-0.6,0-0.9c-0.1-0.3-0.4-0.6-0.7-0.7c-0.2-0.1-0.3-0.1-0.5-0.1
					c-0.5,0-0.9,0.3-1.1,0.8l-1.2,3.9c-0.2,0.4,0.1,0.8,0.5,0.9C79.4,30.8,79.9,30.8,80.1,30.4"/>
			</g>
		</g>
		<g class="st3">
			<g>
				<defs>
					<rect id="SVGID_11_" x="84.3" y="33.9" width="7.7" height="5.4"/>
				</defs>
				<clipPath id="SVGID_12_">
					<use xlink:href="#SVGID_11_"  style="overflow:visible;"/>
				</clipPath>
				<path class="st10" d="M89.8,34.9c-0.2,0-0.3,0-0.4,0.1l-3.6,1.8c-0.4,0.2-0.5,0.7-0.4,1c0.2,0.4,0.4,0.6,0.9,0.5l3.9-1
					c0.3-0.1,0.6-0.3,0.7-0.6c0.1-0.3,0.2-0.7,0-1C90.8,35.2,90.3,34.9,89.8,34.9"/>
			</g>
		</g>
		<g class="st3">
			<g>
				<defs>
					<rect id="SVGID_13_" x="83.6" y="45.6" width="7.6" height="5.6"/>
				</defs>
				<clipPath id="SVGID_14_">
					<use xlink:href="#SVGID_13_"  style="overflow:visible;"/>
				</clipPath>
				<path class="st11" d="M84.7,47.1c-0.1,0.2-0.1,0.5,0,0.7c0.1,0.1,0.2,0.2,0.3,0.3l3.5,2c0.2,0.1,0.3,0.1,0.5,0.1
					c0.5,0,0.9-0.3,1.1-0.7c0.1-0.3,0.1-0.7,0-1c-0.1-0.3-0.4-0.5-0.7-0.7l-3.9-1.2c-0.1,0-0.2-0.1-0.4,0
					C85.1,46.7,84.9,46.8,84.7,47.1"/>
			</g>
		</g>
		<g class="st3">
			<g>
				<defs>
					<rect id="SVGID_15_" x="1.4" y="72.1" width="146.3" height="102.4"/>
				</defs>
				<clipPath id="SVGID_16_">
					<use xlink:href="#SVGID_15_"  style="overflow:visible;"/>
				</clipPath>
				<path class="st12" d="M74,126.3c-32,0-58,5.2-58,11.5v4.5c0,3.7,8.8,7,22.3,9.1v11c0,3.9,16,11.2,35.6,11.2s35.6-7.3,35.6-11.2
					v-11c13.6-2.1,22.3-5.4,22.3-9.1v-4.5C132,131.4,106,126.3,74,126.3 M28.3,117.1c-0.6-2.4-0.6-6.9-0.7-8.1
					c-0.1-1.2-1.4-2.5-2.7-2.3c-2.8,0.4-7.9,0.4-11.9-2.6c-2.5-1.6-4.8-1.7-6.3,0.1c-2.9,3.5-4.9,18.1-4.2,20.5
					c0.5,1.7,5.3,14.9,6.1,15.7c0.3,0.4,0.9-0.6,1.6-2v-5.4c0-4,9.2-7.5,23.5-9.8C31.4,121.6,29,120,28.3,117.1 M142.3,104.3
					c-1.5-1.8-3.8-1.7-6.3-0.1c-4.1,3-9.1,2.9-11.9,2.6c-1.3-0.2-2.6,1.1-2.7,2.3c-0.1,1.2-0.1,5.7-0.7,8.1
					c-0.7,2.9-3.2,4.6-5.5,6.3c9.5,1.6,16.6,3.7,20.1,6.2c0,0,0.1,0,0.1-0.1c0,0,0,0.1,0.1,0.2c1.5,1.1,2.3,2.2,2.3,3.3v2.9
					c1,2.6,2.1,5,2.6,4.4c0.7-0.8,5.6-14,6.1-15.7C147.2,122.3,145.2,107.8,142.3,104.3 M22.8,101.4c6.4,0,11.7-5,11.7-11.1
					c0-6.2-5.2-11.1-11.7-11.1c-6.4,0-11.7,5-11.7,11.1C11.2,96.4,16.4,101.4,22.8,101.4 M125.4,101.4c6.4,0,11.7-5,11.7-11.1
					c0-6.2-5.2-11.1-11.7-11.1c-6.4,0-11.7,5-11.7,11.1C113.7,96.4,118.9,101.4,125.4,101.4 M72,93.5c5.9,0,10.6-4.5,10.6-10.2
					c0-5.6-4.8-10.2-10.6-10.2s-10.6,4.5-10.6,10.2C61.4,88.9,66.1,93.5,72,93.5 M49.4,121.4c3.3-0.3,6.8-0.5,10.4-0.7l-4.3-6.4
					l6.5-6.8v13.1c3.9-0.1,7.9-0.2,12-0.2c2.7,0,5.3,0,7.8,0.1v-14.9l11.4,12.2c0.9,0.9,2.3,1.2,3.4,0.7l13.9-6.1l-3.8-7.9L96.7,109
					c0,0-7.8-9-9.8-10.8c-2-1.7-6-3.2-8.3-3.1c-1.7,2.3-8.2,2.9-12,0.5c-2-0.2-7.3,1.9-9,3.7c-1.3,1.4-9.1,9.5-12.3,12.8
					c-0.8,0.8-0.9,2-0.3,2.9L49.4,121.4z"/>
			</g>
		</g>
		<g class="st3">
			<g>
				<defs>
					<rect id="SVGID_17_" x="62.7" y="31.4" width="21.2" height="33.6"/>
				</defs>
				<clipPath id="SVGID_18_">
					<use xlink:href="#SVGID_17_"  style="overflow:visible;"/>
				</clipPath>
				<path class="st13" d="M69.8,59.2c-0.2,0-0.3-0.2-0.3-0.3v-0.4c0-0.2,0.1-0.3,0.3-0.3l0,0l7.1-0.8h0c0.2,0,0.3,0.2,0.3,0.3v0.4
					c0,0.2-0.1,0.3-0.3,0.3h0L69.8,59.2L69.8,59.2z"/>
				<path class="st13" d="M70.1,60.8c-0.2,0-0.3-0.2-0.3-0.3V60c0-0.2,0.1-0.3,0.3-0.3l0,0l6.5-0.8h0c0.2,0,0.3,0.2,0.3,0.3v0.4
					c0,0.2-0.1,0.3-0.3,0.3l0,0L70.1,60.8L70.1,60.8z"/>
				<path class="st13" d="M70.5,62.2L70.5,62.2c-0.2,0-0.3-0.2-0.3-0.3v-0.4c0-0.2,0.1-0.3,0.3-0.3l0,0l5.8-0.7l0,0
					c0.2,0,0.3,0.2,0.3,0.3v0.4c0,0.2-0.1,0.3-0.3,0.3l0,0L70.5,62.2L70.5,62.2z"/>
				<path class="st13" d="M75.9,62.2c0-0.1-0.1-0.1-0.2-0.1l-4.6,0.5c-0.1,0-0.2,0.1-0.2,0.2c-0.1,0.3,0.8,1.2,2.4,1.2h0
					c0,0,0.4,0,0.5-0.1C75.3,63.6,76.1,62.5,75.9,62.2"/>
				<path class="st13" d="M73.5,38.8C73.4,38.9,73.2,39,73,39c-0.3,0-0.5-0.1-0.7-0.4c-0.2-0.4-0.6-0.6-1-0.6
					c-0.3,0-0.7,0.1-0.9,0.4c-0.2,0.3-0.4,0.6-0.4,1c0,0.4,0.1,0.7,0.4,1c0.2,0.3,0.6,0.4,0.9,0.4c0.3,0,0.7-0.1,0.9-0.4
					c0,0,0.1-0.1,0.1-0.2c0,0,0-0.1,0.1-0.1c0.2-0.2,0.4-0.3,0.6-0.3c0.4,0,0.7,0.3,0.7,0.7l0,3.8c0,0.1,0,0.2,0.1,0.3
					c0.1,0.1,0.2,0.1,0.3,0.1h3.9c0,0,0.1,0,0.1-0.1c0-0.1,0-0.1-0.1-0.2c0,0,0,0,0,0c-0.1-0.1-0.1-0.1-0.2-0.2
					c-0.4-0.4-0.5-0.9-0.5-1.5c0-0.5,0.2-1.1,0.5-1.5c0.4-0.4,0.8-0.6,1.3-0.6c0.5,0,1,0.2,1.3,0.6c0.4,0.4,0.5,0.9,0.5,1.5
					c0,0.7-0.3,1.3-0.7,1.6c-0.1,0.1-0.1,0.1-0.1,0.2c0,0.1,0,0.1,0.1,0.1h2.6c0.1-0.6,0.1-1.2,0.1-2c0-5.8-4.1-10.4-9.3-10.6v5.9
					C73.7,38.4,73.6,38.6,73.5,38.8"/>
				<path class="st13" d="M77.7,56.1c0.4-5.1,4.1-5.8,5.1-10.5h-2.5c-0.2,0-0.3-0.1-0.5-0.2c-0.1-0.1-0.2-0.3-0.2-0.5
					c0-0.3,0.1-0.6,0.3-0.7c0.3-0.3,0.5-0.7,0.5-1.1c0-0.4-0.1-0.7-0.4-1s-0.6-0.4-0.9-0.4c-0.3,0-0.7,0.1-0.9,0.4
					c-0.2,0.3-0.4,0.6-0.4,1c0,0.4,0.1,0.7,0.4,1c0,0,0.1,0.1,0.1,0.1c0,0,0.1,0.1,0.1,0.1c0.2,0.2,0.2,0.4,0.2,0.7
					c0,0.4-0.3,0.7-0.7,0.7h-4c-0.2,0-0.4,0.2-0.4,0.5v3.6c0,0.2-0.1,0.4-0.2,0.5c-0.1,0.1-0.3,0.2-0.5,0.2c-0.3,0-0.5-0.1-0.7-0.4
					c-0.2-0.4-0.6-0.6-1-0.6c-0.3,0-0.7,0.1-0.9,0.4c-0.2,0.3-0.4,0.6-0.4,1c0,0.4,0.1,0.7,0.4,1c0.2,0.3,0.6,0.4,0.9,0.4
					s0.7-0.1,0.9-0.4c0,0,0.1-0.1,0.1-0.2c0,0,0-0.1,0.1-0.1c0.2-0.2,0.4-0.3,0.6-0.3c0.4,0,0.7,0.3,0.7,0.7v5.1
					c1.3-0.1,2.6-0.3,3.3-0.4C77.3,56.9,77.6,56.5,77.7,56.1"/>
				<path class="st13" d="M66.4,44.9c0-0.1,0-0.1-0.1-0.2c0,0,0,0,0,0c-0.1-0.1-0.1-0.1-0.2-0.2c-0.4-0.4-0.5-0.9-0.5-1.5
					c0-0.5,0.2-1.1,0.5-1.5c0.4-0.4,0.8-0.6,1.3-0.6c0.5,0,1,0.2,1.3,0.6c0.4,0.4,0.5,0.9,0.5,1.5c0,0.7-0.3,1.3-0.7,1.6
					c-0.1,0.1-0.1,0.1-0.1,0.2c0,0.1,0,0.1,0.1,0.1h4.1c0.1,0,0.2,0,0.3-0.1c0.1-0.1,0.1-0.2,0.1-0.3l0-3.8c0-0.1,0-0.1-0.1-0.1
					c0,0-0.1,0-0.1,0.1c-0.3,0.5-0.9,0.9-1.5,0.9c-0.5,0-1-0.2-1.3-0.6c-0.4-0.4-0.5-0.9-0.5-1.5c0-1.1,0.8-2.1,1.9-2.1
					c0.5,0,1,0.2,1.3,0.6c0.1,0.1,0.1,0.2,0.2,0.3c0,0,0,0,0,0c0,0,0.1,0,0.1,0c0.1,0,0.1,0,0.1-0.1v-5.9c-5.2,0.2-9.3,4.9-9.3,10.6
					c0,0.7,0,1.4,0.1,2L66.4,44.9C66.4,45,66.4,44.9,66.4,44.9"/>
				<path class="st13" d="M73,52.1L73,52.1c0,0-0.1,0-0.1,0.1c-0.3,0.5-0.9,0.9-1.5,0.9c-0.5,0-1-0.2-1.3-0.6
					c-0.4-0.4-0.5-0.9-0.5-1.5c0-1.1,0.8-2.1,1.9-2.1c0.5,0,1,0.2,1.3,0.6c0.1,0.1,0.1,0.2,0.2,0.3c0,0,0,0,0,0c0,0,0.1,0,0.1,0
					c0,0,0,0,0.1,0s0,0,0-0.1v-3.6c0-0.1,0-0.2-0.1-0.3c-0.1-0.1-0.2-0.1-0.3-0.1h-4.1c-0.2,0-0.3-0.1-0.5-0.2
					c-0.1-0.1-0.2-0.3-0.2-0.5c0-0.3,0.1-0.6,0.3-0.7c0.3-0.3,0.5-0.7,0.5-1.1c0-0.4-0.1-0.7-0.4-1c-0.2-0.3-0.6-0.4-0.9-0.4
					c-0.3,0-0.7,0.1-0.9,0.4s-0.4,0.6-0.4,1c0,0.4,0.1,0.7,0.4,1c0,0,0.1,0.1,0.1,0.1c0,0,0.1,0.1,0.1,0.1c0.2,0.2,0.2,0.4,0.2,0.7
					c0,0.4-0.3,0.7-0.7,0.7H64c1.1,4.9,5.1,5.7,5.1,11.2c0,0.5,0.4,0.9,0.8,0.8c1-0.1,2.1-0.2,3.1-0.3L73,52.1
					C73,52.1,73,52.1,73,52.1"/>
			</g>
		</g>
	</g>
</g>
</svg>
