<svg xmlns="http://www.w3.org/2000/svg" viewBox="0 0 103.93 86.05"><defs><style>.cls-1{fill:#d3d4d5;}.cls-2,.cls-4,.cls-6,.cls-7,.cls-8{fill:none;stroke-miterlimit:10;}.cls-2,.cls-4,.cls-6,.cls-7{stroke:#00263e;}.cls-2{stroke-width:0.22px;}.cls-3{fill:#00263e;}.cls-4{stroke-width:0.21px;}.cls-5{fill:#76bc21;}.cls-6{stroke-width:0.16px;}.cls-7{stroke-width:0.41px;}.cls-8{stroke:#e1e1e2;stroke-width:2.36px;}</style></defs><title>puzzle</title><g id="Layer_2" data-name="Layer 2"><g id="Layer_1-2" data-name="Layer 1"><path class="cls-1" d="M60.86.11,60.74,43.2,95.11,32.07a2.06,2.06,0,0,1,1.49,2.11,3,3,0,0,0-.35.66,2.75,2.75,0,0,0,1.63,3.53,3.26,3.26,0,0,0,4-1.63,2.75,2.75,0,0,0-1.63-3.53,1.9,1.9,0,0,1,0-2.64l2.07-.37A43.33,43.33,0,0,0,60.86.11"/><path class="cls-2" d="M60.86.11,60.74,43.2,95.11,32.07a2.06,2.06,0,0,1,1.49,2.11,3,3,0,0,0-.35.66,2.75,2.75,0,0,0,1.63,3.53,3.26,3.26,0,0,0,4-1.63,2.75,2.75,0,0,0-1.63-3.53,1.9,1.9,0,0,1,0-2.64l2.07-.37A43.33,43.33,0,0,0,60.86.11Z"/><path class="cls-1" d="M20.39,30,60.56,43.5l.28-36.57a2.05,2.05,0,0,1,2.47-.74,2.65,2.65,0,0,0,.52.54,2.75,2.75,0,1,0-.44-3.87,1.9,1.9,0,0,1-2.51-.81l0-1.94a42.78,42.78,0,0,0-34.17,17.7A43.53,43.53,0,0,0,20.39,30"/><path class="cls-2" d="M20.39,30,60.56,43.5l.28-36.57a2.05,2.05,0,0,1,2.47-.74,2.65,2.65,0,0,0,.52.54,2.75,2.75,0,1,0-.44-3.87,1.9,1.9,0,0,1-2.51-.81l0-1.94a42.78,42.78,0,0,0-34.17,17.7A43.53,43.53,0,0,0,20.39,30Z"/><path class="cls-1" d="M35.68,77.81,61,43.38,26.72,32a2,2,0,0,1,.06-2.58,2.75,2.75,0,1,0-2.38-4.91,2.74,2.74,0,0,0-.76,3.81,1.92,1.92,0,0,1-1.55,2.14L20.37,30c-4.24,12.83-1.9,27.08,6.58,38.9a36.32,36.32,0,0,0,8.73,8.92"/><path class="cls-2" d="M35.68,77.81,61,43.38,26.72,32a2,2,0,0,1,.06-2.58,2.75,2.75,0,1,0-2.38-4.91,2.74,2.74,0,0,0-.76,3.81,1.92,1.92,0,0,1-1.55,2.14L20.37,30c-4.24,12.83-1.9,27.08,6.58,38.9A36.32,36.32,0,0,0,35.68,77.81Z"/><path class="cls-1" d="M60.74,43.24,39.48,72.52a2.08,2.08,0,0,1-2.38-.87,2.75,2.75,0,1,0-2,2.65,1.92,1.92,0,0,1,1.56,2.09l-1.07,1.42a41.7,41.7,0,0,0,25.15,8.13,42.89,42.89,0,0,0,25.49-8.35Z"/><path class="cls-2" d="M60.74,43.24,39.48,72.52a2.08,2.08,0,0,1-2.38-.87,2.75,2.75,0,1,0-2,2.65,1.92,1.92,0,0,1,1.56,2.09l-1.07,1.42a41.7,41.7,0,0,0,25.15,8.13,42.89,42.89,0,0,0,25.49-8.35Z"/><path class="cls-1" d="M102.13,29.83l-2,.61a2,2,0,0,0,0,2.74,2.75,2.75,0,1,1-3.55,1.61,2.64,2.64,0,0,1,.36-.66A2.18,2.18,0,0,0,95.37,32L60.52,43.24,81.76,72.46a2.05,2.05,0,0,1-1.55,2.07,2.94,2.94,0,0,0-.74-.13,2.75,2.75,0,1,0,2.65,2.85,1.91,1.91,0,0,1,2.51-.83l1.16,1.47a43.66,43.66,0,0,0,18-35.38,38.4,38.4,0,0,0-1.69-12.68"/><path class="cls-2" d="M102.13,29.83l-2,.61a2,2,0,0,0,0,2.74,2.75,2.75,0,1,1-3.55,1.61,2.64,2.64,0,0,1,.36-.66A2.18,2.18,0,0,0,95.37,32L60.52,43.24,81.76,72.46a2.05,2.05,0,0,1-1.55,2.07,2.94,2.94,0,0,0-.74-.13,2.75,2.75,0,1,0,2.65,2.85,1.91,1.91,0,0,1,2.51-.83l1.16,1.47a43.66,43.66,0,0,0,18-35.38A38.4,38.4,0,0,0,102.13,29.83Z"/><path class="cls-3" d="M60.75,77.25a34.21,34.21,0,0,1,0-68.42Z"/><path class="cls-4" d="M60.75,77.25a34.21,34.21,0,0,1,0-68.42Z"/><path class="cls-5" d="M92.87,54.92a2,2,0,0,0-2.28-1.51,2.83,2.83,0,1,1,.61-3.95,2.76,2.76,0,0,1,.37.67,2.11,2.11,0,0,0,2.66-.08h0a22.51,22.51,0,0,0,.8-7A32.6,32.6,0,0,0,82.88,17h0a2,2,0,0,0-2.22,1.6,2.82,2.82,0,1,1-3.49-1.94,2.91,2.91,0,0,1,.76-.11A2.1,2.1,0,0,0,78.78,14h0a32.84,32.84,0,0,0-18-5.16V77.25c15,0,27.45-8.88,32.05-22.33h0"/><path class="cls-2" d="M92.87,54.92a2,2,0,0,0-2.28-1.51,2.83,2.83,0,1,1,.61-3.95,2.76,2.76,0,0,1,.37.67,2.11,2.11,0,0,0,2.66-.08h0a22.51,22.51,0,0,0,.8-7A32.6,32.6,0,0,0,82.88,17h0a2,2,0,0,0-2.22,1.6,2.82,2.82,0,1,1-3.49-1.94,2.91,2.91,0,0,1,.76-.11A2.1,2.1,0,0,0,78.78,14h0a32.84,32.84,0,0,0-18-5.16V77.25c15,0,27.45-8.88,32.05-22.33Z"/><path class="cls-1" d="M34.77,51.63a2.82,2.82,0,1,0-5.36-1.77,2.13,2.13,0,0,1-2.85.07l.74,2.26c.38,1.16,1.06,2.65,1.06,2.65a2.3,2.3,0,0,1,2.15-1.75,3.17,3.17,0,0,0,.69.34,2.83,2.83,0,0,0,3.57-1.8"/><path class="cls-1" d="M43.23,22a2.82,2.82,0,1,0,.32-5.64,2.07,2.07,0,0,1-.84-2.69s-1.81,1.09-2.35,1.51-1.84,1.49-1.84,1.49a2.2,2.2,0,0,1,2.2,1.6,3,3,0,0,0-.15.75,2.82,2.82,0,0,0,2.66,3"/><path class="cls-1" d="M62.43,70.61A2.78,2.78,0,0,0,59,75a1.92,1.92,0,0,1-.83,2.56,17.61,17.61,0,0,0,2.74.19,12.36,12.36,0,0,0,2.24-.19,2.06,2.06,0,0,1-.78-2.5,2.94,2.94,0,0,0,.54-.52,2.78,2.78,0,0,0-.47-3.91"/><path class="cls-6" d="M62.43,70.61A2.78,2.78,0,0,0,59,75a1.92,1.92,0,0,1-.83,2.56,17.61,17.61,0,0,0,2.74.19,12.36,12.36,0,0,0,2.24-.19,2.06,2.06,0,0,1-.78-2.5,2.94,2.94,0,0,0,.54-.52A2.78,2.78,0,0,0,62.43,70.61Z"/><path class="cls-5" d="M51.26,20.67a3.88,3.88,0,1,0,6.11,4.8A2.69,2.69,0,0,1,61,26.64a24.39,24.39,0,0,0,.27-3.84A16.81,16.81,0,0,0,61,19.68c-.76,1.59-3.26,1.41-3.5,1.09a4,4,0,0,0-.73-.76,3.89,3.89,0,0,0-5.46.66"/><path class="cls-3" d="M70.87,61.26a4.19,4.19,0,0,0-.68-5.79,4,4,0,0,0-5.67.69,2.76,2.76,0,0,1-3.72-1.24A27.33,27.33,0,0,0,60.53,59a19,19,0,0,0,.27,3.32c.8-1.69,3.39-1.5,3.64-1.16a3.87,3.87,0,0,0,.76.81,4,4,0,0,0,5.67-.7"/><path class="cls-7" d="M70.87,61.26a4.19,4.19,0,0,0-.68-5.79,4,4,0,0,0-5.67.69,2.76,2.76,0,0,1-3.72-1.24A27.33,27.33,0,0,0,60.53,59a19,19,0,0,0,.27,3.32c.8-1.69,3.39-1.5,3.64-1.16a3.87,3.87,0,0,0,.76.81A4,4,0,0,0,70.87,61.26Z"/><polygon class="cls-1" points="56.85 77.28 65.7 77.28 66.49 78.13 59.15 79.49 54.93 78.13 56.85 77.28"/><polyline class="cls-8" points="10.79 1.18 1.18 1.18 1.18 84.87 10.79 84.87"/></g></g></svg>