<?xml version="1.0" encoding="utf-8"?>
<!-- Generator: Adobe Illustrator 23.0.2, SVG Export Plug-In . SVG Version: 6.00 Build 0)  -->
<svg version="1.1" id="Layer_1" xmlns="http://www.w3.org/2000/svg" xmlns:xlink="http://www.w3.org/1999/xlink" x="0px" y="0px"
	 viewBox="0 0 800 209.6" style="enable-background:new 0 0 800 209.6;" xml:space="preserve">
<style type="text/css">
	.st0{fill:#00263D;}
</style>
<g>
	<path class="st0" d="M712.2,116.2c-2.8,1-8.8-0.2-8.8-0.2c-6.3,0-9.6,2.3-9.6,5.7c0,4.2,5.2,6,10.7,6c4.4,0,8.1-1.8,11.4-6.7
		c4.1-6.1,2.4-10.9,2.4-10.9C718.2,112.6,715.3,115.2,712.2,116.2 M704.8,77.4c-7.6-0.3-13.7,6.3-13.7,6.3L644,84V109
		c0,0,3.1-9,7.5-12.4c4.8-3.7,11.8-5.1,11.8-5.1h47.1c0,0,8.8,3.1,8.5-6.7C718.8,80,713.9,77.7,704.8,77.4 M485.9,127.9
		c11.3,0,13.4-8.9,13.4-8.9l46.5,0.2l-0.2-5.7l-74.9,0.2C470.6,113.7,472.2,127.9,485.9,127.9 M773.4,152.4c-5-3.4-8.2-9.1-8.2-15.5
		V68.4c0-10.6-8.8-19.2-19.7-19.2H660c0,0-5.2,1.7-9.7,5.3c-3.6,3-5.8,7.8-5.8,7.8V19h-47.6v133.4h46.4V139h2.5c0,0,1.1,5.1,5.9,9.5
		c4.6,4.2,10.2,3.9,10.2,3.9h42.8c0,0,4.2,0.7,7.4-1.9c3.5-2.9,4.5-4.8,4.5-4.8v6.7H773.4z M592.1,19h-47.5v44.5
		c0,0-1.6-5.5-5.8-9.6c-4.1-4-10.7-4.6-10.7-4.6h-90c0,0-5.8,0.3-10,4.3c-4.5,3.3-5.3,7.3-5.3,7.3h-2.8c0,0-1-2.3-6.1-7
		c-5.2-4.8-12.3-4.6-12.3-4.6h-87c0,0-4.4,0.5-7.7,3.8c-3.8,3.8-4.9,7.2-4.9,7.2h-2.4c0,0-0.8-4-4.7-7.4c-4.1-3.5-10.4-3.7-10.4-3.7
		h-92c0,0-6.6,0.2-9.4,2.9c-3.3,3.2-4.1,7.2-4.1,7.2s-1-3.3-4.6-6.7c-3-2.9-10.6-3.4-10.6-3.4H60.3c-4.7,0-8.5,3.7-8.5,8.3v86.6
		c0,4.5,3.8,8.3,8.5,8.3h104.9c0,0,3.8-1.1,8.2-5.5c4.1-4.1,4.6-7.5,4.6-7.5s0.9,3.8,5,8.1c3.6,3.8,8,4.9,8,4.9h51.2
		c0,0,3.6-1.4,5.5-3.2c1.9-1.9,3.9-5.4,3.9-5.4v8.6h51.1v-9c0,0,2,4.2,4.2,5.8c3,2.1,6,3.2,6,3.2H405c0,0,6.3-1.2,10.5-4.7
		c3.1-2.6,3.9-8.3,3.9-8.3h2.8c0,0,0.3,4.3,3.8,8.1c4.6,4.9,9.9,4.9,9.9,4.9h92.8c0,0,3.8,0.1,9.4-3.8c4-2.8,5.7-7.4,5.9-8.6
		c-0.1,1.8-0.1,12.4-0.1,12.4h48.1V19z M798.8,152.4l-14.2,26.9h-83.4v-5.8h-3.3l-3.7,5.8h-55.1l-3.3-7.2l-4.2,0.1l-4.4,7.1h-45.9
		l0.1-5.2h-2.2l-3.9,5.2h-46.7v-10.6l-2.2,0.2l-7.4,10.5H416.6c0,0-3.3,0.3-7.7-5c-3.6-4.3-3.6-6.3-3.6-6.3l-2.8-0.1
		c0,0-0.7,2.8-3.2,6.4c-3,4.2-6.8,5-6.8,5h-91.3c0,0-2.4-0.3-5.3-3.1c-2.2-2.1-3.8-6-3.8-6s-0.9,3.5-3,6c-2.8,3.4-5.5,3.1-5.5,3.1
		H235V170l-2.2,0.2c0,0-0.8,2.7-3,5.7c-2.4,3.2-6,3.5-6,3.5l-50.1,0c0,0-3.4,0.5-7.6-4.8c-3.7-4.7-3.7-6.7-3.7-6.7h-2.6
		c0,0-0.5,2.7-3.3,6.7c-3.6,5.2-7.9,5-7.9,5l-104.5-0.2c-6.4,0-11.7-5.1-11.7-11.3l0-126.2c0-6.2,5.2-11.4,11.6-11.4h120.9
		c0,0,5.4,0.3,8.3,2.4l4.9,5.2l1.9,0c0,0,1.2-2.7,4.6-5.2c3.1-2.3,7.3-2.4,7.3-2.4h95.1c0,0,4.6,0.3,7.7,2.7
		c2.5,1.9,4.2,5.2,4.2,5.2h2.8c0,0,0.9-2.2,4.5-5.2c3.1-2.5,6.8-2.7,6.8-2.7h93.7c0,0,4.1,0.3,7.7,2.7c4.7,3.2,5.9,5.4,5.9,5.4h1.6
		c0,0,1.4-3,5.4-5.5c3.4-2.1,8-2.6,8-2.6h89.6V0h139.6v30.3l90.7,0c16.2,0,29.4,12.8,29.4,28.7v62.4
		C784.6,133.7,790.1,144.8,798.8,152.4 M245.4,116.9c-2.8,1-8.8-0.2-8.8-0.2c-6.3,0-9.6,2.3-9.6,5.7c0,4.2,5.2,6,10.7,6
		c4.4,0,8.1-1.8,11.4-6.7c4.1-6.1,2.4-10.9,2.4-10.9C251.4,113.3,248.5,115.8,245.4,116.9 M544.1,140c0-0.2,0.1-0.3,0-0.3
		C544.1,139.7,544.1,139.8,544.1,140 M240.2,75.6c-10.7,0-15.4,6.7-15.4,6.7H178v11.3h-48.5V83.5c0,0-2.1-8-11.8-8
		c-9.9,0-11.8,7.3-11.8,7.3v37.7c0,0,1.4,7.8,12,7.8c10.4,0,11.5-7.4,11.5-7.4v-16.8l49.9-0.2c0,0,2.7-6.6,5.2-9
		c3.8-3.7,8-4.6,8-4.6h55.1c0,0,6.3,0.3,6.3-7.4C254,78.6,247.7,75.6,240.2,75.6 M364.3,75.7c-9,0-13.4,2.3-13.4,7.3
		c0,5.5,8.8,6.6,8.8,6.6h35c0,0,8-0.7,15.4,2.8c6.6,3.1,11,10.1,11,10.1V82.2h-42.7C378.4,82.2,376.5,75.7,364.3,75.7 M369.3,113.5
		l-48.1,0.2c0,0-7.1,0.3-12.4-3.2c-6.8-4.5-8.3-9.3-8.3-9.3l0.2,19.9l46.3-0.2c0,0,5.5,8,17.6,7.8c8.3,0,12.3-3.5,12.3-8.3
		C376.9,115.8,369.3,113.5,369.3,113.5 M483.7,77.4c-13.8,0-13.3,11.4-13.3,11.4l27.1,0C497.5,88.8,495.6,77.4,483.7,77.4
		 M782.8,182.8l-14.1,26.9H17.9c-9.1,0-16.6-7.3-16.6-16.2l0-177.2C1.2,7.3,8.7,0,17.8,0h503.4v26.9H41c-6.7,0-12.2,5.4-12.2,11.9
		l0,132.1c0,6.5,5.5,11.9,12.2,11.9H782.8z"/>
</g>
</svg>
