<svg xmlns="http://www.w3.org/2000/svg" viewBox="0 0 526.43 150.8"><defs><style>.cls-1{fill:#76bc21;}.cls-2{fill:#fff;}.cls-3{fill:#4c9c2e;}.cls-4{fill:#006937;}.cls-5{fill:#0082ca;}.cls-6{fill:#004987;}.cls-7{fill:#ff671d;}.cls-8{fill:#00263e;}.cls-9{fill:none;stroke:#76bc21;stroke-miterlimit:10;stroke-width:1.04px;}</style></defs><title>Asset 1</title><g id="Layer_2" data-name="Layer 2"><g id="Layer_1-2" data-name="Layer 1"><polygon class="cls-1" points="499.74 84.03 526.43 104.28 499.74 124.54 499.74 115.97 419.41 115.97 419.41 92.59 499.74 92.59 499.74 84.03"/><path class="cls-2" d="M465.67,97.05V89.26H464v7.79a5.09,5.09,0,1,0,1.63,0"/><path class="cls-1" d="M467.84,102.06a3,3,0,1,1-3-3,3,3,0,0,1,3,3"/><path class="cls-1" d="M488.37,57a23.19,23.19,0,1,0-29.11,22.42l5.6,10.15,5.49-10a23.19,23.19,0,0,0,18-22.6"/><path class="cls-2" d="M482.57,57a17.39,17.39,0,1,1-17.39-17.38A17.39,17.39,0,0,1,482.57,57"/><polygon class="cls-3" points="414.81 84.03 441.5 104.28 414.81 124.54 414.81 115.97 334.48 115.97 334.48 92.59 414.81 92.59 414.81 84.03"/><polygon class="cls-4" points="328.39 84.03 355.08 104.28 328.39 124.54 328.39 115.97 248.06 115.97 248.06 92.59 328.39 92.59 328.39 84.03"/><polygon class="cls-5" points="241.96 84.03 268.65 104.28 241.96 124.54 241.96 115.97 161.63 115.97 161.63 92.59 241.96 92.59 241.96 84.03"/><polygon class="cls-6" points="155.54 84.03 182.23 104.28 155.54 124.54 155.54 115.97 75.21 115.97 75.21 92.59 155.54 92.59 155.54 84.03"/><polygon class="cls-7" points="69.11 84.03 95.81 104.28 69.11 124.54 69.11 115.97 0 115.97 0 92.59 69.11 92.59 69.11 84.03"/><path class="cls-2" d="M35.05,97V89.26H33.41V97a5.08,5.08,0,1,0,1.64,0"/><path class="cls-7" d="M37.21,102.06a3,3,0,1,1-3-3,3,3,0,0,1,3,3"/><path class="cls-2" d="M121.47,97V89.26h-1.63V97a5.09,5.09,0,1,0,1.63,0"/><path class="cls-6" d="M123.64,102.06a3,3,0,1,1-3-3,3,3,0,0,1,3,3"/><path class="cls-2" d="M207.9,97V89.26h-1.64V97a5.08,5.08,0,1,0,1.64,0"/><path class="cls-5" d="M210.06,102.06a3,3,0,1,1-3-3,3,3,0,0,1,3,3"/><path class="cls-2" d="M294.32,97.05V89.26h-1.63v7.79a5.09,5.09,0,1,0,1.63,0"/><path class="cls-4" d="M296.49,102.06a3,3,0,1,1-3-3,3,3,0,0,1,3,3"/><path class="cls-2" d="M380.75,97.05V89.26h-1.64v7.79a5.08,5.08,0,1,0,1.64,0"/><path class="cls-3" d="M382.91,102.06a3,3,0,1,1-3-3,3,3,0,0,1,3,3"/><path class="cls-3" d="M403.44,57a23.19,23.19,0,1,0-29.11,22.42l5.6,10.15,5.49-10a23.19,23.19,0,0,0,18-22.6"/><path class="cls-2" d="M397.85,57a17.39,17.39,0,1,1-17.39-17.38A17.39,17.39,0,0,1,397.85,57"/><path class="cls-4" d="M317,57a23.18,23.18,0,1,0-29.1,22.42l5.59,10.15,5.5-10A23.19,23.19,0,0,0,317,57"/><path class="cls-2" d="M311.22,57a17.39,17.39,0,1,1-17.39-17.38A17.4,17.4,0,0,1,311.22,57"/><path class="cls-5" d="M230.59,57a23.19,23.19,0,1,0-29.11,22.42l5.6,10.15,5.5-10a23.19,23.19,0,0,0,18-22.6"/><path class="cls-2" d="M225.62,57a17.39,17.39,0,1,1-17.39-17.38A17.4,17.4,0,0,1,225.62,57"/><path class="cls-6" d="M144.16,57a23.18,23.18,0,1,0-29.1,22.42l5.6,10.15,5.49-10a23.18,23.18,0,0,0,18-22.6"/><path class="cls-2" d="M138,57a17.39,17.39,0,1,1-17.39-17.38A17.39,17.39,0,0,1,138,57"/><path class="cls-7" d="M57.74,57A23.19,23.19,0,1,0,28.63,79.46l5.6,10.15,5.5-10a23.19,23.19,0,0,0,18-22.6"/><path class="cls-2" d="M52.07,57A17.39,17.39,0,1,1,34.68,39.66,17.39,17.39,0,0,1,52.07,57"/><path class="cls-4" d="M301.06,61.27H286.6V46.55h14.46Zm-10.53,7.81,1.54-6.66h3.52l1.54,6.66Zm11.25-23.79h-15.9a.54.54,0,0,0-.54.54V63.68a.54.54,0,0,0,.54.54h.31v2.2a.65.65,0,0,0,.65.65h2.09a.65.65,0,0,0,.65-.65V65.34H289a.85.85,0,0,1-.86-.86h2.37l-1.16,5a.57.57,0,0,0,.1.47.55.55,0,0,0,.43.2h8a.54.54,0,0,0,.43-.2.62.62,0,0,0,.11-.47l-1.16-5h2.36a.85.85,0,0,1-.86.86h-.62v1.08a.65.65,0,0,0,.65.65h2.09a.65.65,0,0,0,.65-.65v-2.2h.31a.54.54,0,0,0,.54-.54V45.83a.54.54,0,0,0-.54-.54"/><rect class="cls-4" x="287.95" y="54.89" width="5.72" height="5.45"/><rect class="cls-4" x="287.99" y="50.39" width="3.86" height="3.67"/><rect class="cls-4" x="294.73" y="55.6" width="4.98" height="4.74"/><polygon class="cls-4" points="291.88 67.26 291.76 67.88 295.89 67.88 295.77 67.26 291.88 67.26"/><polygon class="cls-4" points="292.26 65.27 292.14 65.89 295.51 65.89 295.39 65.27 292.26 65.27"/><polygon class="cls-4" points="292.64 63.28 292.52 63.91 295.13 63.91 295.01 63.28 292.64 63.28"/><polygon class="cls-5" points="205.68 51.49 205.56 48.95 202.54 48.95 202.66 51.49 205.68 51.49"/><path class="cls-5" d="M216.74,58.8h-3.59V55.21h3.59Zm-6.41,0h-3.59V55.21h3.59Zm10.22,5V52.92H202.73l.29,6-1.5.07-.59-11.72h-3.86l-.83,16.46h-.71v1.63h25.64V63.75Z"/><path class="cls-7" d="M31.33,58.12a1.7,1.7,0,0,1-1.11.42,1.72,1.72,0,1,1,0-3.44,1.7,1.7,0,0,1,1.11.42,7.86,7.86,0,0,0-.11,1.3,8,8,0,0,0,.11,1.3M25,56.82a5.25,5.25,0,0,1,7.72-4.61,7.25,7.25,0,0,0-.47.75,4.27,4.27,0,0,0-2-.5,4.36,4.36,0,1,0,0,8.72,4.27,4.27,0,0,0,2-.5,7.11,7.11,0,0,0,.47.74A5.23,5.23,0,0,1,25,56.82m14.2,6.91a6.91,6.91,0,1,1,6.91-6.91,6.92,6.92,0,0,1-6.91,6.91m8-16.07-1.59,1.49-.24-1.29a.41.41,0,0,0-.8.14l.33,1.81-.77.74a7.95,7.95,0,0,0-9.27-.38l-.6.07a3.61,3.61,0,0,0-.39-.22l.56-1a.18.18,0,0,0,0-.16.21.21,0,0,0-.13-.1l-.91-.13a.15.15,0,0,0-.09,0l-1.41.65a5.86,5.86,0,0,0-.58-.1l.2-1.13a.17.17,0,0,0-.06-.16.17.17,0,0,0-.15-.05l-.9.19a.14.14,0,0,0-.08,0l-1.11,1.11-.29,0-.17-1.14a.21.21,0,0,0-.1-.14.18.18,0,0,0-.16,0l-.79.45a.16.16,0,0,0-.07.07l-.72,1.4-.25.13-.52-1a.16.16,0,0,0-.13-.09.17.17,0,0,0-.15.05l-.62.68a.13.13,0,0,0,0,.09l-.25,1.55-.16.16-.81-.84a.17.17,0,0,0-.15-.05.17.17,0,0,0-.13.1l-.38.83a.15.15,0,0,0,0,.09l.23,1.55-.12.22-1-.55a.17.17,0,0,0-.17,0,.16.16,0,0,0-.09.13l-.11.91a.14.14,0,0,0,0,.09l.68,1.39a2,2,0,0,0-.05.24l-1.12-.22a.19.19,0,0,0-.16.05.17.17,0,0,0-.05.15l.17.9a.18.18,0,0,0,0,.09l1,1.11a1.94,1.94,0,0,0,0,.24L21.46,58a.18.18,0,0,0-.13.09.17.17,0,0,0,0,.17l.42.8a.18.18,0,0,0,.07.08l1.3.73c0,.09.08.19.13.28l-1,.45a.17.17,0,0,0-.1.13.17.17,0,0,0,.05.15l.65.65a.12.12,0,0,0,.08,0l1.44.3a2.73,2.73,0,0,0,.23.25l-.82.73a.16.16,0,0,0-.06.15.19.19,0,0,0,.09.14l.81.41a.2.2,0,0,0,.1,0l1.44-.15.44.26-.53.94a.18.18,0,0,0,0,.16.17.17,0,0,0,.14.09l.9.13a.17.17,0,0,0,.1,0l1.29-.6a6.83,6.83,0,0,0,.68.13l-.18,1a.18.18,0,0,0,.17.21h0l.89-.19a.18.18,0,0,0,.09,0l1-1,.42-.06.15,1a.17.17,0,0,0,.1.13.18.18,0,0,0,.16,0l.8-.46a.16.16,0,0,0,.07-.07l.63-1.24.38-.19.47.94a.21.21,0,0,0,.13.1.17.17,0,0,0,.16-.06l.61-.67a.18.18,0,0,0,0-.09l0-.15a7.85,7.85,0,0,0,3.88,1A8,8,0,0,0,44.9,51.29l3-2.84a.55.55,0,0,0,0-.77.54.54,0,0,0-.77,0"/><path class="cls-7" d="M39.18,61.59A4.77,4.77,0,1,1,44,56.82a4.78,4.78,0,0,1-4.77,4.77m0-10.41a5.64,5.64,0,1,0,5.64,5.64,5.65,5.65,0,0,0-5.64-5.64"/><path class="cls-7" d="M39.18,59.66A2.84,2.84,0,1,1,42,56.82a2.85,2.85,0,0,1-2.84,2.84m0-6.56a3.72,3.72,0,1,0,3.72,3.72,3.72,3.72,0,0,0-3.72-3.72"/><path class="cls-7" d="M39.18,58.06a1.24,1.24,0,0,1,0-2.48,1.24,1.24,0,0,1,0,2.48m0-3.36a2.12,2.12,0,1,0,2.12,2.12,2.12,2.12,0,0,0-2.12-2.12"/><path class="cls-6" d="M114.16,54.25h-2.28V52.81h2.28Zm-3,0h-2.29V52.81h2.29Zm4-2a.44.44,0,0,0,.39-.44.45.45,0,0,0-.45-.45h-5.8V48.86a.45.45,0,1,0-.89,0v2.55h-.49a.45.45,0,0,0-.45.45.44.44,0,0,0,.38.44v4.57h7.31Z"/><rect class="cls-6" x="116.68" y="51.31" width="4.85" height="2.27"/><rect class="cls-6" x="122.42" y="51.31" width="4.85" height="2.27"/><rect class="cls-6" x="116.68" y="54.48" width="4.85" height="2.24"/><polygon class="cls-6" points="127.27 55.6 127.27 54.48 122.42 54.48 122.42 56.72 126.46 56.72 127.27 55.6"/><path class="cls-6" d="M132.18,61.34c-.13.51-.52.83-.88.73s-.54-.59-.41-1.1.53-.83.88-.73a.87.87,0,0,1,.41,1.1m-20.69,2.09a4.73,4.73,0,0,1,2.39.59,1.91,1.91,0,0,0,1.05.27A1.94,1.94,0,0,0,116,64a5.12,5.12,0,0,1,4.77,0,1.91,1.91,0,0,0,1,.27,1.94,1.94,0,0,0,1.06-.27,4.72,4.72,0,0,1,2.38-.59,4.8,4.8,0,0,1,2.39.59,1.88,1.88,0,0,0,1,.27,1.94,1.94,0,0,0,1.06-.27,4.72,4.72,0,0,1,2.38-.59,5,5,0,0,1,1.28.15,14.63,14.63,0,0,1,.08-2.14A17.9,17.9,0,0,1,135,56.29a.36.36,0,0,0,0-.32.32.32,0,0,0-.27-.16h-6.21a.33.33,0,0,0-.28.17L127,57.78H107.33c-.17,0-.68.34-.3,1.24l1.22,2.73a4.17,4.17,0,0,0,.66,2.36,5.11,5.11,0,0,1,2.58-.68"/><path class="cls-3" d="M376.68,59.79l-2.79,6.28a1,1,0,0,0,.78,1.18c1.08.44,1.4-.32,1.4-.32l2.8-4.47-2.1-2.55a.94.94,0,0,0-.09-.12"/><path class="cls-3" d="M387.53,58.46s-2.77-.91-3.74-1.2a2,2,0,0,1-1.06-.79l.85-3.31,1.15,1.68,3.47,1.88a1,1,0,0,1-.67,1.74"/><path class="cls-3" d="M381.32,68.41a54.69,54.69,0,0,0,2.52-5.57,1,1,0,0,0,0-.89l-2.48-4.33,1.33-5a1.77,1.77,0,0,0-1.66-2.36,44.45,44.45,0,0,0-5.39,1c-.45.11-.64.38-.76.89L374.07,56a.84.84,0,0,0,.68,1.08,1,1,0,0,0,1.22-.53l1.26-3,.8-.16-1,3.47a2.58,2.58,0,0,0,.59,2.28c.69.85,3,3.55,3,3.55l-1.32,4.44a1.09,1.09,0,0,0,.57,1.32c.43.25,1.19.3,1.46-.11"/><path class="cls-3" d="M375.6,59.31l-2.19-2.67-1.5-.61a.19.19,0,0,0-.22.06l-2.85,4.47a.23.23,0,0,0,0,.22L371,63.41a.25.25,0,0,0,.08.07l1.54.61s.09,0,.14-.09l2.84-4.47a.23.23,0,0,0,0-.22"/><path class="cls-3" d="M391,65.08l-3.67.75-1.58-.37c-.1,0-.18-.11-.18-.18l-.14-5.46c0-.09,0-.18.1-.19l3.61-.75a.48.48,0,0,1,.12,0l1.62.4s.07.07.08.14l.13,5.47c0,.09,0,.18-.09.19"/><path class="cls-3" d="M385.58,47.81a2.44,2.44,0,1,1-2.44-2.44,2.43,2.43,0,0,1,2.44,2.44"/><path class="cls-5" d="M474,48.37l-9.23,3.89a.32.32,0,0,1-.25-.58l.29-.12a.59.59,0,0,1,.37-.75l7.5-3.16a.59.59,0,0,1,.79.26l.29-.12a.31.31,0,0,1,.41.17.32.32,0,0,1-.17.41"/><path class="cls-8" d="M471.7,64.68a1.18,1.18,0,1,1,.62-1.54,1.18,1.18,0,0,1-.62,1.54m-1.19-2.82a1.88,1.88,0,1,0,2.46,1,1.89,1.89,0,0,0-2.46-1"/><path class="cls-1" d="M463.69,53.74a.63.63,0,0,1,.33-.82l1.16-.49.65-.27L471,50l1.73-.73.65-.28.58-.24.21.59h0l4.56,12.48a.67.67,0,0,1-.36.84L473,64.9a2.2,2.2,0,0,0-2.62-3.33,2.12,2.12,0,0,0-.61.39l-3.56-7.5h-.11l-1.55-.1a1.12,1.12,0,0,1-.87-.62"/><path class="cls-1" d="M464.4,53.31a2.86,2.86,0,0,1-4.26-1.14,6.24,6.24,0,0,1-.07-1.7c.08,0-1.62-1.2-1.36-.87A16.32,16.32,0,0,0,454,55.27c-.56,1.27.89,4.79-1,10.21,0,.08,0,.3.07.31a5.64,5.64,0,0,0,1.48,0c.13,0,.28-.25.31-.32,2.05-5.85,1.19-7.17,1.42-6.95,1.68,1.6,3.88,3.88.76,7.17a.17.17,0,0,0,.11.28l1.36.1a.75.75,0,0,0,.57-.21,6.56,6.56,0,0,0,1.55-3.7c.24-1.71-1.1-3.44-2-4.71-.55-.81.24-3.51,1-2.88a4.57,4.57,0,0,0,4.57.55c.17-.08.24-.36.27-.59l.11-1.05c0-.15-.1-.24-.21-.17"/><path class="cls-1" d="M462.67,48.2a2.21,2.21,0,0,1-1.87,2.47,2.15,2.15,0,0,1-2.41-1.89,2.21,2.21,0,0,1,1.87-2.47,2.15,2.15,0,0,1,2.41,1.89"/><path class="cls-8" d="M490.2,149.7h.52v-5.89h-.52Zm-2-.38c-.37,0-.59-.37-.59-.92v-.09c0-.56.24-.93.68-.93a1.41,1.41,0,0,1,.6.16v.84c0,.5-.28.94-.69.94m-.14.45a.89.89,0,0,0,.82-.66v.59h.52v-3.12a1.45,1.45,0,0,0-.34-1,1.18,1.18,0,0,0-.88-.32,1.78,1.78,0,0,0-.83.19v.5a1.45,1.45,0,0,1,.77-.2c.51,0,.77.32.77.89v.47a1.63,1.63,0,0,0-.69-.16c-.68,0-1.08.54-1.08,1.41v.08c0,.78.38,1.34.94,1.34m-2.37,0a1,1,0,0,0,1.07-1.06v0c0-.47-.22-.83-.81-1.42s-.64-.71-.64-1h0a.51.51,0,0,1,.55-.53,1.7,1.7,0,0,1,.71.18v-.52a1.64,1.64,0,0,0-.71-.14,1,1,0,0,0-1.05,1v0c0,.47.23.83.82,1.4s.63.73.63,1h0a.55.55,0,0,1-.58.57,1.92,1.92,0,0,1-.86-.26v.53a2,2,0,0,0,.87.2m-2.55-.45c-.42,0-.75-.66-.75-1.74v-.13c0-1.08.33-1.73.75-1.73s.74.65.74,1.73v.13c0,1.08-.33,1.74-.74,1.74m0,.47c.68,0,1.25-.81,1.25-2.21v-.12c0-1.4-.57-2.21-1.24-2.21s-1.26.81-1.26,2.21v.12c0,1.4.57,2.21,1.25,2.21m-3-.48c-.38,0-.74-.6-.74-1.68v-.23c0-1.08.36-1.68.74-1.68s.69.61.69,1.7v.19c0,1.09-.3,1.7-.69,1.7M479,150.78h.5v-1.84c.17.43.43.83.87.83s1.07-.71,1.07-2.17v-.21c0-1.47-.5-2.17-1.07-2.17s-.7.4-.87.84v-.76H479Zm-1.63-1a1,1,0,0,0,1.07-1.06v0c0-.47-.22-.83-.81-1.42s-.64-.71-.64-1h0a.51.51,0,0,1,.55-.53,1.62,1.62,0,0,1,.71.18v-.52a1.64,1.64,0,0,0-.71-.14,1,1,0,0,0-1,1v0c0,.47.22.83.81,1.4s.63.73.63,1h0a.55.55,0,0,1-.58.57,2,2,0,0,1-.86-.26v.53a2,2,0,0,0,.87.2m-2-.05h.51v-4.4h-.51Zm0-5.21h.54v-.68h-.54Zm-2.54-.14c.74,0,1.31.74,1.31,2.35v.16c0,1.6-.55,2.35-1.31,2.35h-.24v-4.86ZM472,149.7h.74c1.12,0,1.88-1,1.88-2.84v-.16c0-1.87-.76-2.84-1.88-2.84H472Zm-3.72-.42c-.43,0-.72-.44-.72-1v-.06a1.94,1.94,0,0,1,.61-1.41l1,1.81c-.22.4-.46.67-.84.67m0-3.12a2.41,2.41,0,0,1-.43-1.21v0c0-.37.21-.68.54-.68s.52.31.52.67v0a1.58,1.58,0,0,1-.63,1.21m1.46,3.61.41-.25-.54-1A7.5,7.5,0,0,0,470,147l-.43-.07a8,8,0,0,1-.23,1.18l-.81-1.54a2.15,2.15,0,0,0,.88-1.6v-.05a1,1,0,0,0-1-1.1,1.07,1.07,0,0,0-1,1.14v0a2.84,2.84,0,0,0,.54,1.44,2.44,2.44,0,0,0-.91,1.83v.05a1.31,1.31,0,0,0,1.19,1.46,1.3,1.3,0,0,0,1.14-.75Zm-5.37.92a1,1,0,0,0,.77-1.12v-.68h-.67v.81h.29a.63.63,0,0,1-.49.72ZM462.56,149c-.38,0-.69-.56-.69-1.61v-.05c0-1,.31-1.61.69-1.61s.74.58.74,1.61v.06c0,1-.37,1.6-.74,1.6m-.08,1.83a1.35,1.35,0,0,0,1-.34,1.32,1.32,0,0,0,.32-1v-4.2h-.51v.75c-.16-.43-.43-.83-.87-.83s-1.06.68-1.06,2.08v.07c0,1.41.51,2.08,1.06,2.08s.71-.39.87-.83v.87a.74.74,0,0,1-.84.83,2.68,2.68,0,0,1-.91-.2v.51a2.66,2.66,0,0,0,.94.17m-4-1.1h.5v-3c0-.61.3-1,.69-1s.6.34.6,1v3.06h.51v-3.16c0-.83-.37-1.32-.94-1.32a1,1,0,0,0-.86.69v-.61h-.5Zm-1.34,0h.52v-4.4h-.52Zm0-5.21h.53v-.68h-.53Zm-1.66,5.26a1,1,0,0,0,1.07-1.06v0c0-.47-.22-.83-.8-1.42s-.64-.71-.64-1h0a.51.51,0,0,1,.55-.53,1.7,1.7,0,0,1,.71.18v-.52a1.67,1.67,0,0,0-.71-.14,1,1,0,0,0-1.05,1v0c0,.47.23.83.82,1.4s.63.73.63,1h0a.55.55,0,0,1-.58.57,1.88,1.88,0,0,1-.86-.26v.53a2,2,0,0,0,.86.2m-2.28,0a1,1,0,0,0,1.07-1.06v0c0-.47-.22-.83-.81-1.42s-.64-.71-.64-1h0a.51.51,0,0,1,.55-.53,1.7,1.7,0,0,1,.71.18v-.52a1.64,1.64,0,0,0-.71-.14,1,1,0,0,0-1.05,1v0c0,.47.23.83.82,1.4s.63.73.63,1h0a.55.55,0,0,1-.58.57,1.92,1.92,0,0,1-.86-.26v.53a2,2,0,0,0,.87.2M450,147.3c0-1.07.32-1.6.72-1.6s.66.65.66,1.6Zm.9,2.46a1.48,1.48,0,0,0,.87-.26l-.05-.5a1.26,1.26,0,0,1-.75.27c-.52,0-.93-.49-1-1.54h1.87v-.33c0-1.4-.48-2.17-1.15-2.17s-1.22.75-1.22,2.24v.12c0,1.44.65,2.17,1.4,2.17m-2.3,0a.9.9,0,0,0,.55-.17v-.53a.81.81,0,0,1-.49.2c-.45,0-.86-.47-.86-1.67v-.17c0-1.18.43-1.68.83-1.68a.83.83,0,0,1,.52.19v-.55a1,1,0,0,0-.54-.14c-.7,0-1.33.7-1.33,2.2v.13c0,1.5.61,2.19,1.32,2.19m-3.06-.46c-.41,0-.74-.66-.74-1.74v-.13c0-1.08.33-1.73.74-1.73s.75.65.75,1.73v.13c0,1.08-.33,1.74-.75,1.74m0,.47c.69,0,1.26-.81,1.26-2.21v-.12c0-1.4-.57-2.21-1.25-2.21s-1.26.81-1.26,2.21v.12c0,1.4.57,2.21,1.25,2.21m-2.89-.07h.51v-2.79c0-.73.39-1.07.9-1.07h0v-.59a.9.9,0,0,0-.92.66v-.61h-.51Zm-2.47-2.56v-2.78h.26c.69,0,1.13.48,1.13,1.38h0c0,.89-.41,1.38-1.13,1.39Zm-.53,2.56h.53v-2.07h.23a1.67,1.67,0,0,0,1.69-1.89v0a1.64,1.64,0,0,0-1.69-1.86h-.76Z"/><path class="cls-8" d="M476.12,142.35a1,1,0,0,0,.77-1.12v-.68h-.67v.81h.3a.63.63,0,0,1-.49.72Zm-2.91-1h.5v-3c0-.61.31-1,.69-1s.6.34.6,1v3.06h.51v-3.15c0-.84-.37-1.33-.94-1.33a1,1,0,0,0-.86.69V137h-.5Zm-1.89-.4c-.42,0-.74-.66-.74-1.73v-.14c0-1.07.32-1.72.74-1.72s.74.65.74,1.72v.14c0,1.07-.32,1.73-.74,1.73m0,.47c.69,0,1.26-.81,1.26-2.2v-.13c0-1.39-.57-2.21-1.25-2.21s-1.26.82-1.26,2.21v.13c0,1.39.57,2.2,1.25,2.2m-2.44-.07h.52V137h-.52Zm0-5.2h.53v-.69h-.53Zm-1,5.24a1.1,1.1,0,0,0,.36-.07v-.45a1.09,1.09,0,0,1-.25,0c-.25,0-.4-.09-.4-.43v-3.08h.64V137h-.64v-1.21h-.51V137h-.37v.45h.37v3.21c0,.59.33.78.8.78m-2,0a.85.85,0,0,0,.54-.18v-.52a.82.82,0,0,1-.48.2c-.45,0-.86-.48-.86-1.68v-.17c0-1.17.43-1.68.83-1.68a.78.78,0,0,1,.51.19V137a.92.92,0,0,0-.53-.14c-.7,0-1.33.71-1.33,2.2v.13c0,1.51.61,2.2,1.32,2.2M462.21,139c0-1.07.32-1.59.71-1.59s.66.65.66,1.59Zm.89,2.47a1.49,1.49,0,0,0,.87-.27l-.05-.5a1.25,1.25,0,0,1-.75.28c-.51,0-.93-.5-1-1.55h1.86v-.33c0-1.39-.48-2.17-1.15-2.17s-1.22.75-1.22,2.24v.12c0,1.44.66,2.18,1.4,2.18m-2.57-.07H461v-5.89h-.51Zm-1.37,0h.52v-5.89h-.52Zm-1.92-.4c-.42,0-.74-.66-.74-1.73v-.14c0-1.07.32-1.72.74-1.72s.75.65.75,1.72v.14c0,1.07-.33,1.73-.75,1.73m0,.47c.69,0,1.26-.81,1.26-2.2v-.13c0-1.39-.57-2.21-1.25-2.21s-1.26.82-1.26,2.21v.13c0,1.39.57,2.2,1.25,2.2m-2.3,0a1.09,1.09,0,0,0,.63-.18v-.54a1,1,0,0,1-.58.2c-.58,0-1.06-.73-1.06-2.36v-.17c0-1.61.48-2.36,1.06-2.36a1.08,1.08,0,0,1,.56.18v-.56a1.1,1.1,0,0,0-.59-.15c-.84,0-1.57.92-1.57,2.89v.17c0,2,.68,2.88,1.55,2.88"/><path class="cls-1" d="M479.76,133h2.75v-1.31h-1.4v-1.27h1.22v-1.28h-1.22v-1.25h1.37v-1.3h-2.72Zm-3,0h1.35v-2.56h1.11v-1.29h-1.11v-1.26h1.26v-1.3h-2.61Zm-1.86,0h1.35v-6.41H474.9ZM472,133h2.54v-1.31h-1.19v-5.1H472Zm-2.93-2.2h2.44v-1.33h-2.44Zm-2.92,2.2h1.35v-2.56h1.11v-1.29h-1.11v-1.26h1.27v-1.3h-2.62Zm-2.26-1.15c-.3,0-.48-.33-.48-1.84v-.44c0-1.5.18-1.84.48-1.84s.48.34.48,1.84V130c0,1.51-.18,1.84-.48,1.84m0,1.27c1.13,0,1.85-1,1.85-3.12v-.41c0-2.09-.72-3.12-1.85-3.12s-1.86,1-1.86,3.12V130c0,2.08.72,3.12,1.86,3.12m-4.7-2.32h2.44v-1.33h-2.44Zm-1.77-1.17V130c0,1.39-.39,1.78-.89,1.78v-3.89c.5,0,.89.36.89,1.78M455.18,133h1.25c1.53,0,2.35-1.06,2.35-3.05v-.31c0-2-.82-3-2.35-3h-1.25Zm-4.07,0h1.29V130l1.05,3.05h1.22v-6.41h-1.29v2.89l-1-2.89h-1.29ZM448,133h2.75v-1.31h-1.41v-1.27h1.23v-1.28h-1.23v-1.25h1.38v-1.3H448Z"/><path class="cls-8" d="M384.75,147.3c0-1.07.32-1.6.71-1.6s.67.65.67,1.6Zm.89,2.46a1.49,1.49,0,0,0,.88-.26l0-.5a1.26,1.26,0,0,1-.75.27c-.52,0-.93-.49-1-1.54h1.87v-.33c0-1.4-.49-2.17-1.16-2.17s-1.21.75-1.21,2.24v.12c0,1.44.65,2.17,1.39,2.17m-2.86,0a1,1,0,0,0,1.07-1.06v0c0-.47-.22-.83-.81-1.42s-.64-.71-.64-1h0a.51.51,0,0,1,.55-.53,1.7,1.7,0,0,1,.71.18v-.52a1.64,1.64,0,0,0-.71-.14,1,1,0,0,0-1.05,1v0c0,.47.23.83.82,1.4s.63.73.63,1h0a.55.55,0,0,1-.58.57,1.92,1.92,0,0,1-.86-.26v.53a2,2,0,0,0,.87.2m-2.73,0c.77,0,1.29-.59,1.29-1.62v-4.29h-.53v4.31c0,.73-.3,1.1-.76,1.1s-.76-.37-.76-1.1v-4.31h-.53v4.29c0,1,.51,1.62,1.29,1.62m-5-.49c-.43,0-.72-.44-.72-1v-.06a2,2,0,0,1,.6-1.41l1,1.81c-.22.4-.46.67-.84.67m0-3.12a2.31,2.31,0,0,1-.43-1.21v0c0-.37.21-.68.54-.68s.51.31.51.67v0a1.57,1.57,0,0,1-.62,1.21m1.46,3.61.4-.25-.53-1a7.5,7.5,0,0,0,.36-1.59l-.43-.07a8,8,0,0,1-.23,1.18l-.81-1.54a2.15,2.15,0,0,0,.88-1.6v-.05a1,1,0,0,0-1-1.1,1.07,1.07,0,0,0-1,1.14v0a2.9,2.9,0,0,0,.53,1.44,2.46,2.46,0,0,0-.9,1.83v.05a1.31,1.31,0,0,0,1.19,1.46,1.3,1.3,0,0,0,1.14-.75Z"/><path class="cls-8" d="M388.74,139c0-1.07.32-1.59.72-1.59s.66.65.66,1.59Zm.9,2.47a1.49,1.49,0,0,0,.87-.27l-.05-.5a1.25,1.25,0,0,1-.75.28c-.52,0-.93-.5-1-1.55h1.87v-.33c0-1.39-.48-2.17-1.15-2.17s-1.22.75-1.22,2.24v.12c0,1.44.65,2.18,1.4,2.18m-2.87,0a1,1,0,0,0,1.07-1.07v0c0-.47-.22-.83-.81-1.42s-.64-.71-.64-1h0a.51.51,0,0,1,.55-.54,1.57,1.57,0,0,1,.71.19V137a1.64,1.64,0,0,0-.71-.14,1,1,0,0,0-1.05,1v0c0,.47.23.83.82,1.4s.63.73.63,1h0a.54.54,0,0,1-.58.57,2,2,0,0,1-.86-.25v.52a2,2,0,0,0,.87.21m-2.6-.43c-.38,0-.59-.38-.59-.93V140c0-.56.24-.94.68-.94a1.45,1.45,0,0,1,.6.16V140c0,.5-.28,1-.69,1m-.15.44a.89.89,0,0,0,.83-.66v.59h.51v-3.12a1.45,1.45,0,0,0-.33-1,1.23,1.23,0,0,0-.89-.32,1.81,1.81,0,0,0-.83.19v.5a1.62,1.62,0,0,1,.78-.2c.5,0,.77.32.77.89v.48a1.63,1.63,0,0,0-.69-.17c-.68,0-1.09.54-1.09,1.41v.08c0,.79.39,1.34.94,1.34m-3.8-.07h.51v-3c0-.61.3-1,.69-1s.6.34.6,1v3.06h.51v-3.15c0-.84-.37-1.33-.94-1.33a1,1,0,0,0-.86.69v-2.1h-.51Zm-1.13.07a.85.85,0,0,0,.54-.18v-.52a.82.82,0,0,1-.48.2c-.45,0-.86-.48-.86-1.68v-.17c0-1.17.43-1.68.83-1.68a.78.78,0,0,1,.51.19V137a.94.94,0,0,0-.54-.14c-.69,0-1.32.71-1.32,2.2v.13c0,1.51.61,2.2,1.32,2.2m-3-.07h.51v-2.78c0-.74.39-1.08.9-1.08h0v-.59a.9.9,0,0,0-.92.66V137h-.51Zm-2.15.07a1,1,0,0,0,.86-.68v.61h.5V137h-.5v3c0,.6-.3,1-.69,1s-.6-.34-.6-1V137H373v3.15c0,.83.37,1.32.94,1.32m-3.37-2.63V136h.25c.69,0,1.14.48,1.14,1.38v0c0,.88-.42,1.37-1.14,1.38Zm-.53,2.56h.53v-2.07h.22a1.66,1.66,0,0,0,1.7-1.89v0a1.65,1.65,0,0,0-1.7-1.86h-.75Z"/><path class="cls-3" d="M396.71,133H398V130l1,3.05h1.23v-6.41H399v2.89l-1-2.89h-1.3Zm-2.35-1.15c-.3,0-.48-.33-.48-1.84v-.43c0-1.51.18-1.85.48-1.85s.48.34.48,1.85V130c0,1.51-.18,1.84-.48,1.84m0,1.27c1.13,0,1.85-1,1.85-3.12v-.41c0-2.09-.72-3.12-1.85-3.12s-1.86,1-1.86,3.12V130c0,2.08.72,3.12,1.86,3.12m-3.72-.12H392v-6.41h-1.35ZM388,133h1.35v-5.1h.82v-1.31h-3v1.31H388Zm-3-3.15v-2h0c.39,0,.65.28.65,1v.11c0,.67-.28.94-.66,1ZM383.66,133H385v-1.93h0a2,2,0,0,0,2-2.22v-.07a1.94,1.94,0,0,0-2.11-2.19h-1.24ZM379,133h1.29v-3.43l.74,2.09h0l.74-2.09V133h1.3v-6.41h-1.31l-.74,2.14-.74-2.14H379Zm-2.31.1c1,0,1.74-.62,1.74-2v-4.49h-1.35v4.6c0,.46-.16.64-.38.64s-.39-.18-.39-.64v-4.6H375v4.5c0,1.4.73,2,1.73,2m-3.82,0a1.72,1.72,0,0,0,1.7-1.81v0c0-.82-.31-1.26-1.16-2.11-.42-.44-.55-.62-.55-.85h0a.44.44,0,0,1,.48-.45,2,2,0,0,1,1,.32v-1.39a2.8,2.8,0,0,0-1.12-.23,1.67,1.67,0,0,0-1.69,1.81v0c0,.86.36,1.31,1.16,2.08.42.42.55.65.55.85h0a.46.46,0,0,1-.51.48,2.26,2.26,0,0,1-1.11-.39v1.37a2.62,2.62,0,0,0,1.27.33M367.5,133h1.29V130l1,3.05h1.23v-6.41h-1.29v2.89l-1-2.89H367.5Zm-2.36-1.15c-.29,0-.48-.33-.48-1.84v-.43c0-1.51.19-1.85.48-1.85s.48.34.48,1.85V130c0,1.51-.18,1.84-.48,1.84m0,1.27c1.14,0,1.85-1,1.85-3.12v-.41c0-2.09-.71-3.12-1.85-3.12s-1.85,1-1.85,3.12V130c0,2.08.71,3.12,1.85,3.12m-3,0a1.69,1.69,0,0,0,.93-.25v-1.32a1.33,1.33,0,0,1-.67.23c-.51,0-.87-.31-.87-1.83v-.23c0-1.45.38-1.84.83-1.84a1.26,1.26,0,0,1,.68.23v-1.38a1.67,1.67,0,0,0-.81-.18c-1.1,0-2.08.87-2.08,3.13V130c0,2.16.88,3.12,2,3.12"/><path class="cls-8" d="M310.74,149.7h.5v-3c0-.61.3-1,.69-1s.6.34.6,1v3.06H313v-3.16c0-.83-.37-1.32-.94-1.32a1,1,0,0,0-.86.69v-.61h-.5Zm-1.89-.4c-.42,0-.75-.66-.75-1.74v-.13c0-1.08.33-1.73.75-1.73s.74.65.74,1.73v.13c0,1.08-.32,1.74-.74,1.74m0,.47c.68,0,1.26-.81,1.26-2.21v-.12c0-1.4-.58-2.21-1.25-2.21s-1.26.81-1.26,2.21v.12c0,1.4.57,2.21,1.25,2.21m-2.44-.07h.52v-4.4h-.52Zm0-5.21h.53v-.68h-.53Zm-1,5.25a1.11,1.11,0,0,0,.37-.08v-.45a.74.74,0,0,1-.25,0c-.25,0-.4-.1-.4-.43v-3.09h.64v-.44h-.64v-1.21h-.52v1.21h-.36v.44h.36V149a.7.7,0,0,0,.8.78m-2.77-.45c-.39,0-.75-.6-.75-1.68v-.23c0-1.08.36-1.68.75-1.68s.69.61.69,1.7v.19c0,1.09-.3,1.7-.69,1.7m-1.24,1.49h.51v-1.84c.16.43.43.83.87.83s1.07-.71,1.07-2.17v-.21c0-1.47-.5-2.17-1.07-2.17s-.71.4-.87.84v-.76h-.51Zm-4.78-1.08h.51v-3c0-.6.29-1,.67-1s.58.32.58.94v3.08h.51v-3c0-.6.29-1,.67-1s.58.32.58.94v3.08h.5v-3.16c0-.86-.41-1.32-.95-1.32a1,1,0,0,0-.91.68.88.88,0,0,0-.82-.68,1,1,0,0,0-.83.68v-.6h-.51Zm-2.15.07a.94.94,0,0,0,.86-.68v.61h.51v-4.4h-.51v3c0,.6-.3,1-.68,1s-.61-.34-.61-.95V145.3h-.51v3.15c0,.83.37,1.32.94,1.32m-2.53,0a1,1,0,0,0,1.07-1.06v0c0-.47-.22-.83-.81-1.42s-.64-.71-.64-1h0a.51.51,0,0,1,.55-.53,1.62,1.62,0,0,1,.71.18v-.52a1.61,1.61,0,0,0-.71-.14,1,1,0,0,0-1,1v0c0,.47.23.83.81,1.4s.63.73.63,1h0a.55.55,0,0,1-.58.57,1.88,1.88,0,0,1-.85-.26v.53a1.91,1.91,0,0,0,.86.2m-3.72-.05h.51v-3c0-.61.3-1,.69-1s.6.34.6,1v3.06h.51v-3.16c0-.83-.37-1.32-.94-1.32a1,1,0,0,0-.86.69v-.61h-.51Zm-1.88-.4c-.42,0-.75-.66-.75-1.74v-.13c0-1.08.33-1.73.75-1.73s.74.65.74,1.73v.13c0,1.08-.33,1.74-.74,1.74m0,.47c.68,0,1.25-.81,1.25-2.21v-.12c0-1.4-.57-2.21-1.25-2.21s-1.25.81-1.25,2.21v.12c0,1.4.57,2.21,1.25,2.21m-2.31,0a1.09,1.09,0,0,0,.63-.18V149a1,1,0,0,1-.57.19c-.59,0-1.06-.72-1.06-2.36v-.16c0-1.61.47-2.36,1.06-2.36a1,1,0,0,1,.55.18V144a1.13,1.13,0,0,0-.58-.14c-.85,0-1.57.92-1.57,2.89v.16c0,2,.68,2.89,1.54,2.89m-4.7-.05h.51v-2.79c0-.73.39-1.07.91-1.07h0v-.59a.91.91,0,0,0-.92.66v-.61h-.51Zm-1.88-.4c-.42,0-.75-.66-.75-1.74v-.13c0-1.08.33-1.73.75-1.73s.74.65.74,1.73v.13c0,1.08-.33,1.74-.74,1.74m0,.47c.68,0,1.25-.81,1.25-2.21v-.12c0-1.4-.57-2.21-1.25-2.21s-1.25.81-1.25,2.21v.12c0,1.4.57,2.21,1.25,2.21m-2.66-.07h.52v-4H276v-.44h-.64v-.41c0-.43.16-.62.46-.62l.21,0v-.46a.79.79,0,0,0-.28,0,.88.88,0,0,0-.65.24,1.09,1.09,0,0,0-.26.81v.46h-.39v.44h.39Z"/><path class="cls-8" d="M311,141.42a1,1,0,0,0,1.07-1.07v0c0-.47-.22-.83-.8-1.42s-.64-.71-.64-1h0a.51.51,0,0,1,.55-.54,1.57,1.57,0,0,1,.71.19V137a1.67,1.67,0,0,0-.71-.14,1,1,0,0,0-1.05,1v0c0,.47.23.83.82,1.4s.63.73.63,1h0a.55.55,0,0,1-.58.57,1.88,1.88,0,0,1-.86-.26v.53a2,2,0,0,0,.86.21m-2.68-.47c-.39,0-.69-.61-.69-1.7v-.18c0-1.1.3-1.7.69-1.7s.75.6.75,1.67v.24c0,1.07-.36,1.67-.75,1.67m-.13.48c.43,0,.7-.4.86-.84v.77h.52v-5.89H309v2.25c-.16-.44-.43-.84-.86-.84s-1.07.72-1.07,2.17v.22c0,1.46.5,2.16,1.07,2.16m-2.82-.47c-.42,0-.75-.66-.75-1.73v-.14c0-1.07.33-1.72.75-1.72s.74.65.74,1.72v.14c0,1.07-.33,1.73-.74,1.73m0,.47c.68,0,1.25-.81,1.25-2.2v-.13c0-1.39-.57-2.21-1.25-2.21s-1.25.82-1.25,2.21v.13c0,1.39.57,2.2,1.25,2.2m-3-.47c-.42,0-.75-.66-.75-1.73v-.14c0-1.07.33-1.72.75-1.72s.74.65.74,1.72v.14c0,1.07-.33,1.73-.74,1.73m0,.47c.68,0,1.25-.81,1.25-2.2v-.13c0-1.39-.57-2.21-1.25-2.21s-1.25.82-1.25,2.21v.13c0,1.39.57,2.2,1.25,2.2m-2.72,0a1.65,1.65,0,0,0,.84-.22v-2.93h-1.25v.49H300v2.1a.69.69,0,0,1-.31.06c-.68,0-1.25-.73-1.25-2.4v-.18c0-1.58.58-2.37,1.25-2.37a1.31,1.31,0,0,1,.71.24v-.58a1.38,1.38,0,0,0-.71-.17c-1,0-1.78,1-1.78,2.89v.16c0,2,.79,2.91,1.74,2.91m-5-.8c-.38,0-.7-.55-.7-1.6V139c0-1,.32-1.61.7-1.61s.74.57.74,1.61V139c0,1-.37,1.6-.74,1.6m-.08,1.83a1.17,1.17,0,0,0,1.32-1.3V137h-.52v.76c-.16-.44-.43-.84-.86-.84s-1.06.69-1.06,2.09V139c0,1.41.5,2.09,1.06,2.09s.7-.4.86-.84v.87a.73.73,0,0,1-.83.84,2.94,2.94,0,0,1-.91-.2v.5a2.66,2.66,0,0,0,.94.17m-4.05-1.1H291v-3c0-.61.3-1,.68-1s.61.34.61,1v3.06h.5v-3.15c0-.84-.36-1.33-.93-1.33a1,1,0,0,0-.86.69V137h-.51Zm-1.33,0h.51V137h-.51Zm0-5.2h.54v-.69h-.54Zm-1.35,5.2h.51v-5.89h-.51Zm-1.89-.41c-.39,0-.75-.6-.75-1.67V139c0-1.07.36-1.67.75-1.67s.69.6.69,1.7v.18c0,1.09-.3,1.7-.69,1.7m-1.24,1.49h.51V140.6c.16.43.43.83.87.83s1.07-.71,1.07-2.16v-.22c0-1.47-.5-2.17-1.07-2.17s-.71.4-.87.84V137h-.51ZM282.85,141c-.39,0-.75-.6-.75-1.67V139c0-1.07.36-1.67.75-1.67s.69.6.69,1.7v.18c0,1.09-.3,1.7-.69,1.7m-1.23,1.49h.5V140.6c.16.43.43.83.87.83s1.07-.71,1.07-2.16v-.22c0-1.47-.5-2.17-1.07-2.17s-.71.4-.87.84V137h-.5Zm-2.15-1a.93.93,0,0,0,.85-.68v.61h.51V137h-.51v3c0,.6-.3,1-.68,1s-.61-.35-.61-1V137h-.5v3.15c0,.83.36,1.32.94,1.32m-2.77,0a1.22,1.22,0,0,0,1.24-1.3h0c0-.63-.23-1.07-.95-2s-.74-1-.74-1.41h0a.68.68,0,0,1,.69-.74,1.48,1.48,0,0,1,.84.31v-.59a1.72,1.72,0,0,0-.86-.23,1.2,1.2,0,0,0-1.2,1.27v0c0,.56.21.91.95,1.88.59.78.74,1.08.74,1.49h0a.7.7,0,0,1-.73.77,1.85,1.85,0,0,1-1-.36v.59a2,2,0,0,0,1,.29"/><path class="cls-4" d="M309.85,133h1.3V130l1,3.05h1.23v-6.41h-1.29v2.89l-1-2.89h-1.3Zm-2.35-1.15c-.3,0-.49-.33-.49-1.84v-.44c0-1.5.19-1.84.49-1.84s.48.34.48,1.84V130c0,1.51-.18,1.84-.48,1.84m0,1.27c1.13,0,1.85-1,1.85-3.12v-.41c0-2.09-.72-3.12-1.85-3.12s-1.86,1-1.86,3.12V130c0,2.08.72,3.12,1.86,3.12m-3.72-.12h1.35v-6.41h-1.35Zm-2.63,0h1.35v-5.1h.82v-1.31h-3v1.31h.83Zm-3,.1c1,0,1.74-.62,1.74-2v-4.49h-1.35v4.6c0,.46-.16.64-.38.64s-.39-.18-.39-.64v-4.6h-1.35v4.5c0,1.4.73,2,1.73,2M294.69,131v0a.64.64,0,0,1-.7.68h-.07v-1.41H294a.64.64,0,0,1,.7.69m-.05-2.5a.62.62,0,0,1-.67.7h-.05v-1.37H294a.59.59,0,0,1,.67.66Zm-2,4.48h1.26c1.29,0,2.17-.59,2.17-1.79v-.09a1.5,1.5,0,0,0-.93-1.41,1.5,1.5,0,0,0,.84-1.39v-.07a1.52,1.52,0,0,0-.41-1.12,2.33,2.33,0,0,0-1.69-.54h-1.24Zm-1.95,0H292v-6.41h-1.35Zm-2.57-3.24v-2h0c.38,0,.67.22.67.9v.14c0,.66-.28.91-.66.91ZM286.75,133h1.34v-2.09h.11l.64,2.09h1.43l-.83-2.54a2,2,0,0,0,.73-1.7v-.09a2.09,2.09,0,0,0-.53-1.54,2.06,2.06,0,0,0-1.54-.54h-1.35Zm-2.61,0h1.35v-5.1h.82v-1.31h-3v1.31h.83Zm-2.62.07a1.7,1.7,0,0,0,1.69-1.8v0c0-.82-.3-1.26-1.15-2.11-.43-.44-.55-.62-.55-.85h0a.44.44,0,0,1,.47-.45,1.92,1.92,0,0,1,1,.32v-1.39a2.55,2.55,0,0,0-1.11-.23,1.67,1.67,0,0,0-1.69,1.81v0c0,.86.36,1.31,1.16,2.08.42.42.55.65.55.85h0a.46.46,0,0,1-.52.48,2.26,2.26,0,0,1-1.1-.39v1.37a2.59,2.59,0,0,0,1.27.32m-3.16-.07h1.35v-6.41h-1.35Zm-1.89-3.37V130c0,1.39-.39,1.78-.88,1.78v-3.89c.49,0,.88.36.88,1.78M274.24,133h1.26c1.53,0,2.34-1.06,2.34-3.05v-.31c0-2-.81-3-2.34-3h-1.26Z"/><path class="cls-8" d="M222.11,148.73l-.74-3.43h-.51l1,4.32-.28,1.16h.5l1.28-5.48h-.51Zm-3,1h.51v-2.79c0-.73.39-1.07.91-1.07h0v-.59a.91.91,0,0,0-.92.66v-.61h-.51Zm-1,0a1.05,1.05,0,0,0,.36-.08v-.45a.74.74,0,0,1-.25,0c-.25,0-.4-.1-.4-.43v-3.09h.65v-.44h-.65v-1.21h-.51v1.21H217v.44h.37V149c0,.59.33.78.8.78m-2.51,0a1,1,0,0,0,1.07-1.06v0c0-.47-.22-.83-.81-1.42s-.64-.71-.64-1h0a.51.51,0,0,1,.55-.53,1.66,1.66,0,0,1,.71.18v-.52a1.64,1.64,0,0,0-.71-.14,1,1,0,0,0-1,1v0c0,.47.22.83.81,1.4s.63.73.63,1h0a.55.55,0,0,1-.58.57,1.92,1.92,0,0,1-.86-.26v.53a2,2,0,0,0,.87.2m-2.81,0a1,1,0,0,0,.86-.68v.61h.5v-4.4h-.5v3c0,.6-.31,1-.69,1s-.61-.34-.61-.95V145.3h-.5v3.15c0,.83.37,1.32.94,1.32m-2.93-.48c-.39,0-.69-.61-.69-1.7v-.19c0-1.09.3-1.7.69-1.7s.75.6.75,1.68v.23c0,1.08-.36,1.68-.75,1.68m-.14.48c.44,0,.71-.4.87-.84v.77h.51v-5.89h-.51v2.24c-.16-.43-.43-.83-.87-.83s-1.06.72-1.06,2.17v.21c0,1.47.5,2.17,1.06,2.17m-4-.07h.5v-3c0-.61.31-1,.69-1s.6.34.6,1v3.06h.51v-3.16c0-.83-.37-1.32-.94-1.32a1,1,0,0,0-.86.69v-.61h-.5Zm-1.39,0h.53v-5.84h-.53Zm-6.18,0h.51v-3c0-.6.29-1,.67-1s.58.32.58.94v3.08h.5v-3c0-.6.3-1,.67-1s.58.32.58.94v3.08h.51v-3.16c0-.86-.41-1.32-.95-1.32a1,1,0,0,0-.91.68.88.88,0,0,0-.82-.68,1,1,0,0,0-.83.68v-.6h-.51Zm-1.89-.4c-.41,0-.74-.66-.74-1.74v-.13c0-1.08.33-1.73.74-1.73s.75.65.75,1.73v.13c0,1.08-.33,1.74-.75,1.74m0,.47c.69,0,1.26-.81,1.26-2.21v-.12c0-1.4-.57-2.21-1.25-2.21s-1.26.81-1.26,2.21v.12c0,1.4.57,2.21,1.25,2.21m-2.89-.07H194v-2.79c0-.73.39-1.07.9-1.07h0v-.59a.9.9,0,0,0-.92.66v-.61h-.51Zm-1.63,0h.51v-4H193v-.44h-.65v-.41c0-.43.16-.62.47-.62l.21,0v-.46a1,1,0,0,0-.93.2,1.09,1.09,0,0,0-.26.81v.46h-.39v.44h.39Z"/><path class="cls-8" d="M223.74,139c0-1.07.32-1.59.71-1.59s.67.65.67,1.59Zm.89,2.47a1.5,1.5,0,0,0,.88-.27l0-.5a1.27,1.27,0,0,1-.75.28c-.52,0-.93-.5-1-1.55h1.87v-.33c0-1.39-.48-2.17-1.16-2.17s-1.21.75-1.21,2.24v.12c0,1.44.65,2.18,1.39,2.18m-2.11,0a1.16,1.16,0,0,0,.37-.07v-.45a1.17,1.17,0,0,1-.26,0c-.25,0-.4-.09-.4-.43v-3.08h.65V137h-.65v-1.21h-.51V137h-.37v.45h.37v3.21c0,.59.33.78.8.78m-2.51,0a1,1,0,0,0,1.07-1.07v0c0-.47-.22-.83-.81-1.42s-.64-.71-.64-1h0a.51.51,0,0,1,.55-.54,1.51,1.51,0,0,1,.71.19V137a1.64,1.64,0,0,0-.71-.14,1,1,0,0,0-1,1v0c0,.47.22.83.81,1.4s.63.73.63,1h0a.54.54,0,0,1-.58.57,2.07,2.07,0,0,1-.86-.25v.52a2,2,0,0,0,.87.21m-2.6-.43c-.37,0-.59-.38-.59-.93V140c0-.56.24-.94.68-.94a1.41,1.41,0,0,1,.6.16V140c0,.5-.28,1-.69,1m-.15.44a.88.88,0,0,0,.83-.66v.59h.51v-3.12a1.45,1.45,0,0,0-.33-1,1.22,1.22,0,0,0-.88-.32,1.85,1.85,0,0,0-.84.19v.5a1.62,1.62,0,0,1,.78-.2c.51,0,.77.32.77.89v.48a1.63,1.63,0,0,0-.69-.17c-.68,0-1.08.54-1.08,1.41v.08c0,.79.38,1.34.93,1.34m-4.77,0H213l.8-4.65.8,4.65h.54l1-5.87h-.54l-.68,4.69-.81-4.69h-.49l-.82,4.69-.68-4.69h-.55Zm-4.44-.45c-.44,0-.72-.44-.72-1v-.05a2,2,0,0,1,.6-1.41l1,1.81c-.22.4-.47.66-.84.66m0-3.12a2.31,2.31,0,0,1-.43-1.2v0a.6.6,0,0,1,.54-.67c.32,0,.51.31.51.66v.05a1.6,1.6,0,0,1-.62,1.2m1.45,3.61.41-.25-.54-1a6.87,6.87,0,0,0,.37-1.6l-.43-.07a9.16,9.16,0,0,1-.23,1.18l-.81-1.54a2.14,2.14,0,0,0,.87-1.59v-.05a1,1,0,0,0-1-1.11,1.08,1.08,0,0,0-1,1.14v0a2.94,2.94,0,0,0,.54,1.44,2.48,2.48,0,0,0-.9,1.84V140a1.32,1.32,0,0,0,1.19,1.46,1.28,1.28,0,0,0,1.13-.76Zm-5.67-1-.74-3.43h-.51l1,4.32-.28,1.16h.5l1.28-5.48h-.51Zm-3.06.25c-.38,0-.69-.56-.69-1.61V139c0-1,.31-1.61.69-1.61s.74.57.74,1.61V139c0,1-.37,1.61-.74,1.61m-.08,1.82a1.35,1.35,0,0,0,1-.34,1.32,1.32,0,0,0,.32-1V137h-.51v.76c-.17-.44-.44-.84-.87-.84s-1.06.69-1.06,2.09V139c0,1.41.51,2.09,1.06,2.09s.7-.4.87-.84v.87a.74.74,0,0,1-.84.84,2.94,2.94,0,0,1-.91-.2v.5a2.66,2.66,0,0,0,.94.17m-2.8-1.1h.51v-2.78c0-.74.39-1.08.91-1.08h0v-.59a.91.91,0,0,0-.92.66V137h-.51Zm-2.5-2.4c0-1.07.32-1.59.72-1.59s.66.65.66,1.59Zm.9,2.47a1.49,1.49,0,0,0,.87-.27l-.05-.5a1.27,1.27,0,0,1-.75.28c-.52,0-.93-.5-1-1.55h1.87v-.33c0-1.39-.48-2.17-1.15-2.17s-1.22.75-1.22,2.24v.12c0,1.44.65,2.18,1.4,2.18m-4.3-.07h.5v-3c0-.61.31-1,.69-1s.61.34.61,1v3.06h.5v-3.15c0-.84-.37-1.33-.94-1.33a1,1,0,0,0-.86.69V137H192Zm-2.64,0h2v-.51h-1.5v-2.18h1.34v-.5h-1.34V136h1.48v-.51h-2Z"/><path class="cls-5" d="M229.81,133.11a3,3,0,0,0,1.35-.36v-3.48h-1.69v1.2h.47v1.37l-.11,0c-.36,0-.78-.34-.78-1.83v-.44c0-1.23.4-1.76,1-1.76a1.65,1.65,0,0,1,.92.32v-1.4a2.15,2.15,0,0,0-1-.23c-1.27,0-2.24,1-2.24,3.11V130c0,2.16.94,3.11,2.13,3.11m-6.2-.09h1.29V130l1,3.05h1.22v-6.41h-1.29v2.89l-1-2.89h-1.29Zm-2,0H223v-6.41h-1.35Zm-2.57-3.24v-2h0c.38,0,.67.22.67.9v.14c0,.66-.28.91-.66.91ZM217.75,133h1.34v-2.09h.11l.64,2.09h1.43l-.83-2.54a2,2,0,0,0,.73-1.7v-.09a2.13,2.13,0,0,0-.52-1.54,2.1,2.1,0,0,0-1.55-.54h-1.35Zm-2.3.1c1,0,1.74-.62,1.74-2v-4.49h-1.35v4.6c0,.46-.16.64-.39.64s-.38-.18-.38-.64v-4.6h-1.35v4.5c0,1.4.73,2,1.73,2m-4.32-.1h1.34v-5.1h.83v-1.31h-3v1.31h.83Zm-2.13.07a1.69,1.69,0,0,0,.93-.24v-1.32a1.44,1.44,0,0,1-.67.23c-.52,0-.87-.31-.87-1.83v-.23c0-1.45.38-1.84.83-1.84a1.26,1.26,0,0,1,.68.23v-1.38a1.67,1.67,0,0,0-.81-.18c-1.1,0-2.08.87-2.08,3.13V130c0,2.16.88,3.11,2,3.11m-4.35-2.4.3-2,.3,2ZM203,133h1.31l.17-1.15h.94l.17,1.15h1.35l-1.19-6.43H204.2Zm-2.51,0h1.35v-2.56H203v-1.29h-1.11v-1.26h1.26v-1.3h-2.61Zm-2.31.1c1,0,1.74-.62,1.74-2v-4.49h-1.34v4.6c0,.46-.16.64-.39.64s-.38-.18-.38-.64v-4.6h-1.35v4.5c0,1.4.73,2,1.72,2m-5.86-.1h1.29V130l1,3.05h1.23v-6.41h-1.29v2.89l-1-2.89h-1.29Zm-2.6-2.33.31-2,.29,2ZM188.07,133h1.31l.17-1.15h.94l.18,1.15H192l-1.19-6.43h-1.55Zm-4.39,0H185v-3.43l.75,2.09h0l.74-2.09V133h1.3v-6.41h-1.31l-.73,2.14-.75-2.14h-1.3Z"/><path class="cls-8" d="M137.06,149.75a1,1,0,0,0,1-1h0c0-.46-.21-.81-.78-1.38s-.62-.68-.62-1h0a.49.49,0,0,1,.53-.51,1.56,1.56,0,0,1,.69.17v-.5a1.55,1.55,0,0,0-.69-.14,1,1,0,0,0-1,1h0c0,.46.22.81.79,1.36s.61.71.61,1h0a.54.54,0,0,1-.56.56,1.91,1.91,0,0,1-.83-.25v.5a1.86,1.86,0,0,0,.84.2M134,147.38c0-1,.31-1.54.69-1.54s.64.63.64,1.54Zm.86,2.38a1.4,1.4,0,0,0,.85-.26l-.05-.48a1.18,1.18,0,0,1-.72.27c-.5,0-.9-.48-.94-1.49h1.8v-.32c0-1.35-.46-2.1-1.11-2.1s-1.17.73-1.17,2.17v.11c0,1.39.63,2.1,1.34,2.1m-4.15-.06h.49v-2.91c0-.59.3-1,.67-1s.58.33.58.92v3h.49v-3c0-.8-.36-1.28-.91-1.28a.93.93,0,0,0-.83.67v-.59h-.49Zm-1.87-.36c-.36,0-.56-.37-.56-.9v-.08c0-.54.23-.9.65-.9a1.32,1.32,0,0,1,.58.15v.82c0,.48-.27.91-.67.91m-.14.43a.87.87,0,0,0,.8-.64v.57h.5v-3a1.37,1.37,0,0,0-.33-1,1.14,1.14,0,0,0-.85-.31,1.8,1.8,0,0,0-.8.18v.49a1.48,1.48,0,0,1,.75-.2c.49,0,.74.32.74.86v.46a1.65,1.65,0,0,0-.67-.16c-.65,0-1,.53-1,1.36v.08c0,.76.37,1.3.9,1.3m-2-.07h.5V144h-.5Zm-2.42-2.47v-2.69h.25c.67,0,1.1.46,1.1,1.33v0c0,.85-.41,1.33-1.1,1.34Zm-.51,2.47h.51v-2h.23a1.61,1.61,0,0,0,1.63-1.83h0a1.58,1.58,0,0,0-1.63-1.8h-.74Zm-3.59-.4c-.42,0-.69-.43-.69-1v-.06a1.89,1.89,0,0,1,.58-1.36l.93,1.75c-.22.39-.45.65-.82.65m0-3a2.29,2.29,0,0,1-.41-1.16v0c0-.35.2-.65.52-.65s.49.3.49.65v0a1.52,1.52,0,0,1-.6,1.16m1.41,3.49.39-.24-.52-.93a7,7,0,0,0,.36-1.54l-.42-.07a9.09,9.09,0,0,1-.22,1.15l-.78-1.49a2.09,2.09,0,0,0,.84-1.54v-.05a1,1,0,0,0-1-1.07,1,1,0,0,0-1,1.1v0a2.83,2.83,0,0,0,.52,1.39,2.41,2.41,0,0,0-.88,1.77v0a1.28,1.28,0,0,0,1.16,1.41,1.24,1.24,0,0,0,1.09-.73Zm-5.18.88a1,1,0,0,0,.74-1.07v-.66h-.65v.78h.28a.6.6,0,0,1-.47.7Zm-1.44-.9a1,1,0,0,0,1-1h0c0-.46-.21-.81-.78-1.38s-.61-.68-.61-1h0a.49.49,0,0,1,.53-.51,1.55,1.55,0,0,1,.68.17v-.5a1.53,1.53,0,0,0-.68-.14,1,1,0,0,0-1,1h0c0,.46.22.81.78,1.36s.61.71.61,1h0a.53.53,0,0,1-.56.56,2,2,0,0,1-.83-.25v.5a1.86,1.86,0,0,0,.84.2m-3.59-.05h.49v-2.91c0-.59.29-1,.66-1s.59.33.59.92v3h.48v-3c0-.8-.35-1.28-.9-1.28a.92.92,0,0,0-.83.67v-.59h-.49Zm-1.28,0h.49v-4.25h-.49Zm0-5h.52V144h-.52Zm-1.9,4.67c-.36,0-.57-.37-.57-.9v-.08c0-.54.23-.9.66-.9a1.32,1.32,0,0,1,.58.15v.82c0,.48-.27.91-.67.91m-.14.43a.87.87,0,0,0,.8-.64v.57h.49v-3a1.37,1.37,0,0,0-.32-1,1.14,1.14,0,0,0-.85-.31,1.8,1.8,0,0,0-.8.18v.49a1.47,1.47,0,0,1,.74-.2c.49,0,.75.32.75.86v.46a1.69,1.69,0,0,0-.67-.16c-.65,0-1,.53-1,1.36v.08c0,.76.37,1.3.91,1.3m-2.46-.07h.49V147c0-.71.38-1,.87-1h0v-.57a.88.88,0,0,0-.89.64v-.59h-.49Zm-1.62,0h.52v-5.15h.84v-.49h-2.19v.49H104Z"/><path class="cls-8" d="M134.88,142.6a1,1,0,0,0,.74-1.07v-.66H135v.78h.29a.61.61,0,0,1-.47.7Zm-1.44-.9a1,1,0,0,0,1-1h0c0-.46-.22-.81-.78-1.38s-.62-.68-.62-.95h0a.49.49,0,0,1,.53-.51,1.56,1.56,0,0,1,.69.17v-.5a1.58,1.58,0,0,0-.69-.14,1,1,0,0,0-1,1h0c0,.46.22.81.79,1.36s.61.71.61,1h0a.54.54,0,0,1-.56.56,1.87,1.87,0,0,1-.83-.25v.5a1.85,1.85,0,0,0,.83.2m-1.56,0a1.11,1.11,0,0,0,.36-.08v-.43a1.18,1.18,0,0,1-.25,0c-.24,0-.39-.09-.39-.41v-3h.63v-.43h-.63v-1.17h-.49v1.17h-.36v.43h.36v3.1a.67.67,0,0,0,.77.76m-2.72-.4c-.36,0-.57-.37-.57-.9v-.08c0-.54.23-.9.66-.9a1.31,1.31,0,0,1,.57.15v.82c0,.48-.27.91-.66.91m-.14.43a.87.87,0,0,0,.8-.64v.57h.49v-3a1.37,1.37,0,0,0-.32-1,1.14,1.14,0,0,0-.85-.31,1.85,1.85,0,0,0-.81.18V138a1.5,1.5,0,0,1,.75-.2c.49,0,.74.32.74.86v.46a1.64,1.64,0,0,0-.66-.16c-.66,0-1,.53-1,1.36v.08c0,.76.37,1.3.91,1.3m-2.54-.46c-.41,0-.72-.64-.72-1.67v-.13c0-1,.31-1.67.72-1.67s.72.63.72,1.67v.13c0,1-.32,1.67-.72,1.67m0,.46c.66,0,1.21-.79,1.21-2.13v-.12c0-1.35-.55-2.14-1.2-2.14s-1.22.79-1.22,2.14v.12c0,1.34.55,2.13,1.21,2.13m-2.17-1.61v0c0,.68-.46,1-1.19,1H123V139h.2a1,1,0,0,1,1.15,1.07m-.06-2.61a1,1,0,0,1-1.11,1.07H123v-2.08h.26a1,1,0,0,1,1,1Zm-1.8,4.15h.64c1,0,1.73-.55,1.73-1.49v0a1.29,1.29,0,0,0-1-1.34,1.29,1.29,0,0,0,1-1.34v0a1.39,1.39,0,0,0-.36-1,1.7,1.7,0,0,0-1.2-.44h-.74Zm-2.76.95a1,1,0,0,0,.74-1.07v-.66h-.65v.78h.28a.6.6,0,0,1-.47.7Zm-1.44-.9a1,1,0,0,0,1-1h0c0-.46-.21-.81-.78-1.38s-.61-.68-.61-.95h0a.49.49,0,0,1,.53-.51,1.55,1.55,0,0,1,.68.17v-.5a1.53,1.53,0,0,0-.68-.14,1,1,0,0,0-1,1h0c0,.46.22.81.78,1.36s.61.71.61,1h0a.53.53,0,0,1-.56.56,1.91,1.91,0,0,1-.83-.25v.5a1.86,1.86,0,0,0,.84.2m-3.29,0h.49v-1.32l.37-.72.72,2h.53l-.92-2.54.87-1.71h-.54l-1,2.16V136H115Zm-1.1.06a.84.84,0,0,0,.53-.17V141a.8.8,0,0,1-.46.19c-.44,0-.84-.46-.84-1.62v-.16c0-1.14.42-1.63.8-1.63a.84.84,0,0,1,.5.19v-.53a.89.89,0,0,0-.52-.14c-.67,0-1.28.68-1.28,2.13v.12c0,1.45.59,2.12,1.27,2.12m-3.2,0a.92.92,0,0,0,.83-.66v.59H112V137.4h-.49v2.91c0,.58-.29,1-.66,1s-.59-.33-.59-.93V137.4h-.49v3c0,.81.36,1.28.91,1.28m-2.75-.07h.49V139c0-.71.37-1,.87-1h0v-.57a.88.88,0,0,0-.89.64v-.59h-.49Zm-1.62,0h.51V136.5h.85V136h-2.2v.49h.84Z"/><path class="cls-6" d="M129.78,132.77h1.3v-4.93h.8v-1.26H129v1.26h.8Zm-4.6,0h1.3v-2.49h.78v2.49h1.3v-6.19h-1.3V129h-.78v-2.44h-1.3Zm-1.85.09a2.82,2.82,0,0,0,1.31-.36v-3.36H123v1.17h.46v1.32l-.11,0c-.35,0-.75-.33-.75-1.77v-.42c0-1.2.38-1.71.94-1.71a1.71,1.71,0,0,1,.89.31v-1.34a2,2,0,0,0-1-.23c-1.23,0-2.17,1-2.17,3v.35c0,2.09.91,3,2.06,3m-3.85-.09h1.3v-6.19h-1.3Zm-3.16,0H119V131.5h-1.35v-1.23h1.18V129h-1.18v-1.21H119v-1.25h-2.63Zm-2.46-3.13v-1.88h0c.37,0,.65.2.65.87v.13c0,.64-.27.88-.64.88Zm-1.29,3.13h1.29v-2h.1l.62,2H116l-.8-2.45a2,2,0,0,0,.71-1.65v-.09a2,2,0,0,0-.51-1.48,2,2,0,0,0-1.49-.52h-1.3Zm-3,0h1.3v-2.48H112v-1.24h-1.08v-1.22h1.22v-1.25h-2.52Z"/><path class="cls-8" d="M47.46,147.38c0-1,.31-1.54.68-1.54s.64.63.64,1.54Zm.86,2.38a1.39,1.39,0,0,0,.84-.26l0-.48a1.16,1.16,0,0,1-.72.27c-.5,0-.9-.48-.93-1.49h1.8v-.32c0-1.35-.47-2.1-1.12-2.1s-1.17.73-1.17,2.17v.11c0,1.39.63,2.1,1.35,2.1m-2.93-.06h.49V147c0-.71.38-1,.88-1h0v-.57a.88.88,0,0,0-.89.64v-.59h-.49Zm-2.07.07a.92.92,0,0,0,.83-.66v.59h.48v-4.25h-.48v2.91c0,.58-.3,1-.67,1s-.58-.33-.58-.93v-3h-.49v3c0,.81.35,1.28.91,1.28m-1.8,0a1,1,0,0,0,.35-.07v-.44a.67.67,0,0,1-.24,0c-.25,0-.39-.09-.39-.41v-3h.62v-.43h-.62v-1.17h-.49v1.17h-.36v.43h.36V149a.67.67,0,0,0,.77.76m-2.18,0h.5V144h-.5Zm-2.11.07a.91.91,0,0,0,.83-.66v.59h.49v-4.25h-.49v2.91c0,.58-.29,1-.66,1s-.58-.33-.58-.93v-3h-.49v3c0,.81.35,1.28.9,1.28m-2,0a.84.84,0,0,0,.53-.17v-.5a.8.8,0,0,1-.47.19c-.43,0-.83-.46-.83-1.62v-.16c0-1.14.42-1.63.8-1.63a.84.84,0,0,1,.5.19v-.53a.89.89,0,0,0-.52-.14c-.67,0-1.28.68-1.28,2.13v.12c0,1.45.59,2.12,1.27,2.12m-2.41-.06h.49v-4.25h-.49Zm0-5h.52V144h-.52Zm-1.9,5h.49V147c0-.71.38-1,.87-1h0v-.57a.88.88,0,0,0-.89.64v-.59h-.49Zm-2-.7c-.36,0-.67-.54-.67-1.56v0c0-1,.31-1.56.67-1.56s.72.56.72,1.56v0c0,1-.36,1.55-.72,1.55m-.08,1.76a1.14,1.14,0,0,0,1.28-1.26v-4.05h-.5v.73c-.15-.42-.42-.8-.83-.8s-1,.65-1,2v.06c0,1.36.49,2,1,2s.68-.38.83-.8v.84a.7.7,0,0,1-.8.8,2.79,2.79,0,0,1-.89-.19v.49a2.81,2.81,0,0,0,.91.16m-3.44-3,.56-2.84.56,2.84Zm-.87,1.93h.51l.28-1.46h1.28L27,149.7h.52L26.32,144h-.56Zm-3.35-.4c-.42,0-.69-.43-.69-1v-.06a1.89,1.89,0,0,1,.58-1.36l.92,1.75c-.21.39-.45.65-.81.65m0-3a2.33,2.33,0,0,1-.42-1.16v0a.59.59,0,0,1,.53-.65c.3,0,.49.3.49.65v0a1.52,1.52,0,0,1-.6,1.16m1.41,3.49.39-.24-.52-.93a6.9,6.9,0,0,0,.36-1.53L22.5,147a9.09,9.09,0,0,1-.22,1.15l-.78-1.49a2.1,2.1,0,0,0,.84-1.54v-.05a1,1,0,0,0-.95-1.07,1,1,0,0,0-1,1.1v0a2.79,2.79,0,0,0,.52,1.39,2.38,2.38,0,0,0-.88,1.78v0a1.28,1.28,0,0,0,1.15,1.41,1.24,1.24,0,0,0,1.1-.73Z"/><path class="cls-8" d="M52.37,142.6a1,1,0,0,0,.74-1.07v-.66h-.64v.78h.28a.61.61,0,0,1-.47.7ZM50.56,141c-.37,0-.68-.54-.68-1.56v0c0-1,.31-1.55.68-1.55s.71.56.71,1.55v.06c0,1-.36,1.55-.71,1.55m-.08,1.76a1.3,1.3,0,0,0,1-.33,1.29,1.29,0,0,0,.31-.93v-4h-.49v.73c-.16-.42-.42-.81-.84-.81s-1,.66-1,2v.06c0,1.36.48,2,1,2s.68-.38.84-.8v.84a.71.71,0,0,1-.81.8,2.74,2.74,0,0,1-.88-.19v.49a2.72,2.72,0,0,0,.91.16m-3.91-1.06h.49v-2.91c0-.59.29-1,.66-1s.59.33.59.92v3h.49V138.6c0-.8-.36-1.28-.91-1.28a.93.93,0,0,0-.83.67v-.59h-.49Zm-1.28,0h.49V137.4h-.49Zm0-5h.52V136h-.52Zm-2,4.33c-.37,0-.68-.54-.68-1.56v0c0-1,.31-1.55.68-1.55s.71.56.71,1.55v.06c0,1-.36,1.55-.71,1.55m-.08,1.76a1.13,1.13,0,0,0,1.27-1.26v-4H44v.73c-.16-.42-.42-.81-.84-.81s-1,.66-1,2v.06c0,1.36.48,2,1,2s.68-.38.84-.8v.84a.71.71,0,0,1-.81.8,2.74,2.74,0,0,1-.88-.19v.49a2.72,2.72,0,0,0,.91.16M40.32,141c-.36,0-.67-.54-.67-1.56v0c0-1,.31-1.55.67-1.55s.72.56.72,1.55v.06c0,1-.36,1.55-.72,1.55m-.08,1.76a1.33,1.33,0,0,0,1-.33,1.29,1.29,0,0,0,.31-.93v-4H41v.73c-.16-.42-.42-.81-.84-.81s-1,.66-1,2v.06c0,1.36.49,2,1,2s.68-.38.84-.8v.84a.71.71,0,0,1-.81.8,2.74,2.74,0,0,1-.88-.19v.49a2.7,2.7,0,0,0,.9.16m-2.77-1.45c-.4,0-.72-.64-.72-1.67v-.13c0-1,.32-1.67.72-1.67s.72.63.72,1.67v.13c0,1-.32,1.67-.72,1.67m0,.46c.66,0,1.21-.79,1.21-2.13v-.12c0-1.35-.55-2.14-1.2-2.14s-1.22.79-1.22,2.14v.12c0,1.34.55,2.13,1.21,2.13m-3.24-.07H36v-.49H34.75V136h-.52Zm-2.76.95a1,1,0,0,0,.74-1.07v-.66h-.65v.78h.28a.6.6,0,0,1-.47.7ZM29.65,141c-.36,0-.67-.54-.67-1.56v0c0-1,.31-1.55.67-1.55s.72.56.72,1.55v.06c0,1-.36,1.55-.72,1.55m-.08,1.76a1.28,1.28,0,0,0,1-.33,1.25,1.25,0,0,0,.32-.93v-4h-.5v.73c-.16-.42-.42-.81-.83-.81s-1,.66-1,2v.06c0,1.36.49,2,1,2s.67-.38.83-.8v.84a.7.7,0,0,1-.8.8,2.79,2.79,0,0,1-.89-.19v.49a2.81,2.81,0,0,0,.91.16m-3.9-1.06h.48v-2.91c0-.59.3-1,.67-1s.58.33.58.92v3h.49V138.6c0-.8-.35-1.28-.91-1.28a.93.93,0,0,0-.83.67v-.59h-.48Zm-1.29,0h.5V137.4h-.5Zm0-5h.52V136h-.52Zm-3,5h.49v-2.91c0-.59.29-1,.66-1s.58.33.58.92v3h.49V138.6c0-.8-.35-1.28-.9-1.28a.92.92,0,0,0-.83.67v-.59H21.4Zm-1.29,0h.5V137.4h-.5Zm0-5h.52V136h-.52Zm-3.79,5h.49v-4.47l1,3h0l1-3v4.47h.5V136h-.57l-.93,2.88L16.89,136h-.57Z"/><path class="cls-7" d="M47.74,132.77H49v-3l1,3h1.19v-6.19H49.93v2.79L49,126.58H47.74Zm-2.27-1.12c-.29,0-.47-.31-.47-1.77v-.42c0-1.45.18-1.78.47-1.78s.46.33.46,1.78v.42c0,1.46-.18,1.77-.46,1.77m0,1.23c1.09,0,1.78-1,1.78-3v-.39c0-2-.69-3-1.78-3s-1.8,1-1.8,3v.39c0,2,.69,3,1.8,3m-3.59-.11h1.3v-6.19h-1.3Zm-2.54,0h1.3v-4.93h.79v-1.26H38.54v1.26h.8Zm-2.06.07a1.59,1.59,0,0,0,.9-.24v-1.27a1.31,1.31,0,0,1-.65.22c-.49,0-.84-.3-.84-1.76v-.23c0-1.4.37-1.77.81-1.77a1.29,1.29,0,0,1,.66.22v-1.34a1.77,1.77,0,0,0-.79-.17c-1.06,0-2,.84-2,3v.31c0,2.09.85,3,1.92,3m-4.2-2.32.3-1.94.28,1.94Zm-1.59,2.25h1.26l.17-1.12h.91l.16,1.12h1.3l-1.15-6.21H32.65Zm-2.15-3.13v-1.88h0c.37,0,.65.2.65.87v.13c0,.64-.27.88-.64.88Zm-1.29,3.13h1.29v-2h.11l.62,2h1.38l-.8-2.45a2,2,0,0,0,.71-1.65v-.09a1.8,1.8,0,0,0-2-2h-1.3Zm-2.52,0h1.3v-4.93h.8v-1.26h-2.9v1.26h.8Zm-2.25-6.19-.41,1.7-.38-1.7H21.13l.92,3-.95,3.14h1.3l.45-1.83.42,1.83h1.35l-1-3.16.92-3Zm-5.09,6.19h2.65V131.5H19.49v-1.23h1.17V129H19.49v-1.21h1.32v-1.25H18.19Z"/><path class="cls-8" d="M218.62,13.8c-.23,0-.34-.26-.34-1.18v-.41c0-.92.11-1.19.34-1.19s.35.27.35,1.19v.41c0,.92-.12,1.18-.35,1.18m0,1.15c.91,0,1.51-.82,1.51-2.42V12.3c0-1.6-.6-2.42-1.51-2.42s-1.5.84-1.5,2.42v.23c0,1.6.59,2.42,1.5,2.42m-2.39-4.71L214,14.86h1l2.06-4.43,2.21-4.62h-1Zm-1.54-3.38c.23,0,.35.27.35,1.19v.41c0,.92-.12,1.18-.35,1.18s-.34-.26-.34-1.18V8.05c0-.92.1-1.19.34-1.19m0,3.91c.89,0,1.51-.82,1.51-2.4V8.14c0-1.61-.61-2.42-1.51-2.42s-1.5.81-1.5,2.42v.23c0,1.59.59,2.4,1.5,2.4m-6.84,11.72c2.84,0,4.81-1.86,4.81-5.39v-.17c0-3.42-1.79-4.64-3.84-4.64a6.52,6.52,0,0,0-.71,0l.16-2.46h3.79V6.72h-6.27l-.4,7.74,1.53.89a2.48,2.48,0,0,1,1-.18c.82,0,1.44.51,1.44,1.84v.12c0,1.37-.76,2.19-1.89,2.19a4.57,4.57,0,0,1-2-.46v3.21a6.42,6.42,0,0,0,2.38.42m-7.28-8c-.62,0-1-.44-1-2.13v-.55c0-1.93.33-2.51.89-2.51s.91.67.91,2.73v2.19a1.25,1.25,0,0,1-.78.27m-1.26,5.1a5.1,5.1,0,0,1-2-.48v3a6.35,6.35,0,0,0,2.3.4c2.73,0,5-1.66,5-8.07V14c0-3.37-.55-5.48-1.64-6.56a3.32,3.32,0,0,0-2.51-1c-2.21,0-3.94,1.89-3.94,5.48v.53c0,3.62,1.59,4.6,3.19,4.6a3,3,0,0,0,1.71-.51c-.09,2.26-.84,3-2,3"/><path class="cls-8" d="M470.23,13.8c-.23,0-.34-.26-.34-1.17v-.42c0-.92.11-1.19.34-1.19s.35.27.35,1.19v.42c0,.91-.12,1.17-.35,1.17m0,1.15c.9,0,1.51-.82,1.51-2.42V12.3c0-1.6-.61-2.42-1.51-2.42s-1.5.84-1.5,2.42v.23c0,1.6.59,2.42,1.5,2.42m-2.4-4.7-2.19,4.61h1l2.06-4.43,2.21-4.62h-1ZM466.3,6.86c.23,0,.35.27.35,1.19v.41c0,.92-.12,1.18-.35,1.18S466,9.38,466,8.46V8.05c0-.92.1-1.19.34-1.19m0,3.91c.89,0,1.51-.82,1.51-2.4V8.14c0-1.61-.61-2.42-1.51-2.42s-1.5.81-1.5,2.42v.23c0,1.59.59,2.4,1.5,2.4m-6.84,11.72c2.84,0,4.81-1.86,4.81-5.39v-.17c0-3.42-1.8-4.64-3.84-4.64a6.52,6.52,0,0,0-.71,0l.16-2.46h3.79V6.72h-6.28l-.4,7.74,1.54.89a2.43,2.43,0,0,1,1-.18c.82,0,1.45.51,1.45,1.84v.12c0,1.37-.76,2.19-1.89,2.19a4.57,4.57,0,0,1-2-.46v3.21a6.42,6.42,0,0,0,2.38.42"/><polyline class="cls-9" points="1.08 7 1.08 0.52 421.25 0.52 421.25 7"/><polyline class="cls-9" points="428.04 7 428.04 0.52 506.35 0.52 506.35 7"/></g></g></svg>