<svg xmlns="http://www.w3.org/2000/svg" viewBox="0 0 338.99 340.24"><defs><style>.cls-1{fill:#d3d4d5;}.cls-2,.cls-4,.cls-6,.cls-7{fill:none;stroke:#00263e;stroke-miterlimit:10;}.cls-2{stroke-width:0.87px;}.cls-3{fill:#00263e;}.cls-4{stroke-width:0.82px;}.cls-5{fill:#76bc21;}.cls-6{stroke-width:0.64px;}.cls-7{stroke-width:1.64px;}.cls-8{fill:#fff;}</style></defs><title>Asset 3</title><g id="Layer_2" data-name="Layer 2"><g id="Layer_1-2" data-name="Layer 1"><path class="cls-1" d="M168.67.44l-.44,170.36,135.89-44c4.84.73,6.52,7.45,5.87,8.35a11.2,11.2,0,0,0-1.38,2.61,10.88,10.88,0,0,0,6.46,14c5.64,2.07,13.63-.83,15.7-6.47a10.87,10.87,0,0,0-6.47-13.95c-1.05-.39-4.2-6.15-.07-10.45l8.2-1.44A171.29,171.29,0,0,0,168.67.44"/><path class="cls-2" d="M168.67.44l-.44,170.36,135.89-44c4.84.73,6.52,7.45,5.87,8.35a11.2,11.2,0,0,0-1.38,2.61,10.88,10.88,0,0,0,6.46,14c5.64,2.07,13.63-.83,15.7-6.47a10.87,10.87,0,0,0-6.47-13.95c-1.05-.39-4.2-6.15-.07-10.45l8.2-1.44A171.29,171.29,0,0,0,168.67.44Z"/><path class="cls-1" d="M8.66,118.42,167.52,172,168.6,27.41c2.21-4.37,9.12-3.84,9.78-2.94a10.51,10.51,0,0,0,2,2.13,10.87,10.87,0,1,0-1.74-15.28c-.7.88-7.16,2-9.93-3.22L168.67.44C116.73,1.68,67.75,24.15,33.6,70.42a172.91,172.91,0,0,0-24.94,48"/><path class="cls-2" d="M8.66,118.42,167.52,172,168.6,27.41c2.21-4.37,9.12-3.84,9.78-2.94a10.51,10.51,0,0,0,2,2.13,10.87,10.87,0,1,0-1.74-15.28c-.7.88-7.16,2-9.93-3.22L168.67.44C116.73,1.68,67.75,24.15,33.6,70.42A172.91,172.91,0,0,0,8.66,118.42Z"/><path class="cls-1" d="M69.11,307.66l100.2-136.15L33.72,126.6c-3.48-3.45-.85-9.86.2-10.2a10.88,10.88,0,1,0-12.41-4.33c.62.93-.25,7.44-6.12,8.46L8.6,118.59c-16.77,50.72-7.52,107.06,26,153.77,10.87,15.14,20.26,24.81,34.5,35.3"/><path class="cls-2" d="M69.11,307.66l100.2-136.15L33.72,126.6c-3.48-3.45-.85-9.86.2-10.2a10.88,10.88,0,1,0-12.41-4.33c.62.93-.25,7.44-6.12,8.46L8.6,118.59c-16.77,50.72-7.52,107.06,26,153.77C45.48,287.5,54.87,297.17,69.11,307.66Z"/><path class="cls-1" d="M168.23,171,84.14,286.73c-4.3,1.94-9.39-2.35-9.39-3.44a11,11,0,0,0-.41-2.93,10.88,10.88,0,1,0-7.52,13.42c1.07-.3,6.89,2.47,6.2,8.25l-4.26,5.63c28.52,20.75,61.48,32.14,99.47,32.14a169.55,169.55,0,0,0,100.76-33Z"/><path class="cls-2" d="M168.23,171,84.14,286.73c-4.3,1.94-9.39-2.35-9.39-3.44a11,11,0,0,0-.41-2.93,10.88,10.88,0,1,0-7.52,13.42c1.07-.3,6.89,2.47,6.2,8.25l-4.26,5.63c28.52,20.75,61.48,32.14,99.47,32.14a169.55,169.55,0,0,0,100.76-33Z"/><path class="cls-1" d="M331.88,117.92l-7.9,2.45c-4.31,4.27-1.07,10.43,0,10.83a10.87,10.87,0,1,1-14,6.36,10.65,10.65,0,0,1,1.4-2.6c.66-.9-1.36-7.69-6.25-8.39L167.35,171l84,115.55c.81,4.83-5.06,8.51-6.12,8.17a10.69,10.69,0,0,0-2.91-.5,10.87,10.87,0,1,0,10.48,11.26c0-1.12,4.54-5.91,9.9-3.31l4.59,5.82a172.66,172.66,0,0,0,71.3-139.89c0-18.64-1.22-33.31-6.67-50.14"/><path class="cls-2" d="M331.88,117.92l-7.9,2.45c-4.31,4.27-1.07,10.43,0,10.83a10.87,10.87,0,1,1-14,6.36,10.65,10.65,0,0,1,1.4-2.6c.66-.9-1.36-7.69-6.25-8.39L167.35,171l84,115.55c.81,4.83-5.06,8.51-6.12,8.17a10.69,10.69,0,0,0-2.91-.5,10.87,10.87,0,1,0,10.48,11.26c0-1.12,4.54-5.91,9.9-3.31l4.59,5.82a172.66,172.66,0,0,0,71.3-139.89C338.55,149.42,337.33,134.75,331.88,117.92Z"/><path class="cls-3" d="M168.26,305.44a135.26,135.26,0,1,1,0-270.52Z"/><path class="cls-4" d="M168.26,305.44a135.26,135.26,0,1,1,0-270.52Z"/><path class="cls-5" d="M295.26,217.16c-1.25-6.1-8.07-6.69-9-6a11.17,11.17,0,1,1,2.4-15.61,11,11,0,0,1,1.45,2.67c.41,1.07,7.18,3.48,10.53-.33h0c2.82-10.88,3.16-15.95,3.16-27.71,0-42.51-17.39-78.34-48.05-103.13h0c-6.15-1-9.08,5.23-8.76,6.35a11.17,11.17,0,1,1-13.79-7.69,10.77,10.77,0,0,1,3-.43c1.15,0,5.77-5.51,3.37-10h0a130.15,130.15,0,0,0-71-20.38V305.44c59.36,0,108.52-35.1,126.74-88.28h0"/><path class="cls-2" d="M295.26,217.16c-1.25-6.1-8.07-6.69-9-6a11.17,11.17,0,1,1,2.4-15.61,11,11,0,0,1,1.45,2.67c.41,1.07,7.18,3.48,10.53-.33h0c2.82-10.88,3.16-15.95,3.16-27.71,0-42.51-17.39-78.34-48.05-103.13h0c-6.15-1-9.08,5.23-8.76,6.35a11.17,11.17,0,1,1-13.79-7.69,10.77,10.77,0,0,1,3-.43c1.15,0,5.77-5.51,3.37-10h0a130.15,130.15,0,0,0-71-20.38V305.44c59.36,0,108.52-35.1,126.74-88.28Z"/><path class="cls-1" d="M65.53,204.15a11.16,11.16,0,0,0-21.19-7c-.37,1.1-6.71,4.53-11.26.28,0,0,1.36,4.25,2.91,8.94s4.2,10.49,4.2,10.49c.53-5.05,7.55-7.57,8.5-6.93a11.2,11.2,0,0,0,16.84-5.75"/><path class="cls-1" d="M99,87a11.16,11.16,0,0,0,1.26-22.29c-1.16-.07-6.22-5.12-3.31-10.62,0,0-7.19,4.29-9.3,5.95-2.46,2-7.28,5.89-7.28,5.89,5-.8,9.06,5.23,8.69,6.31A11.17,11.17,0,0,0,99,87"/><path class="cls-1" d="M174.89,279.19a11,11,0,1,0-13.58,17.28c.9.71,2.14,7.33-3.3,10.13a70.71,70.71,0,0,0,10.84.74,48.49,48.49,0,0,0,8.84-.75c-4.5-2.17-4-9.22-3.09-9.89a10.79,10.79,0,0,0,2.14-2.08,11,11,0,0,0-1.85-15.43"/><path class="cls-6" d="M174.89,279.19a11,11,0,1,0-13.58,17.28c.9.71,2.14,7.33-3.3,10.13a70.71,70.71,0,0,0,10.84.74,48.49,48.49,0,0,0,8.84-.75c-4.5-2.17-4-9.22-3.09-9.89a10.79,10.79,0,0,0,2.14-2.08A11,11,0,0,0,174.89,279.19Z"/><path class="cls-5" d="M130.73,81.72a15.37,15.37,0,0,0,24.17,19c1-1.26,10.24-3,14.16,4.62a99.62,99.62,0,0,0,1-15.17,69,69,0,0,0-1-12.35c-3,6.28-12.91,5.59-13.84,4.32a15.56,15.56,0,0,0-2.91-3,15.38,15.38,0,0,0-21.58,2.59"/><path class="cls-3" d="M208.25,242.21a16.56,16.56,0,0,0-2.69-22.9,15.71,15.71,0,0,0-22.4,2.75c-1,1.33-10.64,3.18-14.7-4.91a108.64,108.64,0,0,0-1.08,16.1,74.28,74.28,0,0,0,1.08,13.12c3.16-6.68,13.4-5.94,14.37-4.59a16.19,16.19,0,0,0,3,3.18,15.71,15.71,0,0,0,22.4-2.75"/><path class="cls-7" d="M208.25,242.21a16.56,16.56,0,0,0-2.69-22.9,15.71,15.71,0,0,0-22.4,2.75c-1,1.33-10.64,3.18-14.7-4.91a108.64,108.64,0,0,0-1.08,16.1,74.28,74.28,0,0,0,1.08,13.12c3.16-6.68,13.4-5.94,14.37-4.59a16.19,16.19,0,0,0,3,3.18A15.71,15.71,0,0,0,208.25,242.21Z"/><polygon class="cls-1" points="152.84 305.56 187.82 305.56 190.95 308.92 161.93 314.29 145.25 308.92 152.84 305.56"/><path class="cls-3" d="M184.88,328.05l2-.23-.42-3.9,2.56-6.27-2.25.24L185.27,322l-2.36-3.65-2.3.25,3.85,5.61Zm-7,.64a4.26,4.26,0,0,0,3.27-1.63l-1.29-1.4a2.75,2.75,0,0,1-2,1.12c-1.31.06-2.38-1.09-2.47-3.06v0c-.08-1.92.84-3.19,2.16-3.25a2.73,2.73,0,0,1,2.06.9l1.16-1.64a4.16,4.16,0,0,0-3.23-1.17c-2.61.12-4.38,2.23-4.25,5.23v.13c.14,3,2,4.93,4.58,4.81m-8.1.07,2,0-.06-9.89-2,0Zm-7.49-.16,6,.19.06-1.88-4-.13.25-8-2.05-.07Zm-5.93-2.14c-1.37-.12-2.27-1.42-2.11-3.37V323c.16-1.94,1.23-3.07,2.61-3s2.25,1.42,2.09,3.36v.1c-.16,1.95-1.23,3.08-2.59,3m-.17,1.88c2.6.21,4.63-1.72,4.87-4.66l0-.17c.24-2.94-1.42-5.15-4-5.36s-4.64,1.7-4.88,4.66V323c-.24,2.94,1.42,5.15,4,5.36m-9.53-6.19.46-3.16,1.1.16a1.48,1.48,0,0,1,1.44,1.82v0a1.52,1.52,0,0,1-1.87,1.33Zm-2.73,4.5,2,.3.43-3,1.15.16c2.06.26,3.83-.63,4.16-2.89v0c.3-2.09-.9-3.56-3.09-3.88l-3.26-.48Z"/><path class="cls-3" d="M26.23,234.76,29,240.57l1.67-.8-1.88-4,2-.94,1.64,3.44,1.67-.79-1.64-3.45,1.93-.91,1.86,3.92,1.67-.8-2.73-5.75Zm2-8.2L31,225.42l.56,1.36a1.42,1.42,0,0,1-.74,2.1h0a1.42,1.42,0,0,1-2-.92Zm-5.45.05.78,1.89,3-1.24.49,1.18-2.3,2.93.89,2.17,2.59-3.35a3,3,0,0,0,3.41.58l.05,0a3.17,3.17,0,0,0,1.8-1.65,3.7,3.7,0,0,0-.16-2.84l-1.42-3.44Zm-2.08-5.25c.76,2.16,2.5,3.13,5.07,2.21l5.66-2-.68-1.91-5.75,2c-1.3.46-2.16.06-2.51-.94s.07-1.85,1.39-2.32l5.71-2-.69-1.93-5.69,2c-2.52.9-3.28,2.73-2.51,4.87M18,212.23l.55,2,7.69-2.2.69,2.39,1.82-.52-1.93-6.74-1.82.52.68,2.39Zm-2-7.9,1.44,5.87,1.82-.45-.95-3.88L26,204l-.49-2Zm-1.29-5.5c.43,2.25,2,3.47,4.68,3l5.89-1.14-.38-2-6,1.15c-1.35.26-2.14-.26-2.34-1.31s.35-1.82,1.73-2.08l5.95-1.15-.39-2-5.94,1.14c-2.62.51-3.64,2.2-3.21,4.43m-1.35-8.26a4.32,4.32,0,0,0,1.9,3.13l1.29-1.4a2.76,2.76,0,0,1-1.28-1.89c-.17-1.3.89-2.46,2.84-2.71h0c1.91-.24,3.25.57,3.42,1.89a2.77,2.77,0,0,1-.72,2.12l1.72,1a4.11,4.11,0,0,0,.9-3.32c-.33-2.59-2.58-4.18-5.56-3.8l-.12,0c-3,.38-4.76,2.37-4.43,4.95"/><path class="cls-3" d="M324.91,193.64c.27-1.91-.65-3.45-2.47-3.71h0c-1.52-.22-2.38.6-3.3,2.21-.85,1.43-1.16,1.73-1.72,1.65h0c-.51-.08-.79-.56-.69-1.26a3.41,3.41,0,0,1,1.2-1.95l-1.37-1.36a4.76,4.76,0,0,0-1.66,3,3,3,0,0,0,2.41,3.62h0c1.68.24,2.49-.74,3.41-2.38.73-1.32,1.08-1.56,1.57-1.49h0c.58.08.9.62.79,1.4a3.81,3.81,0,0,1-1.46,2.28l1.33,1.41a5.32,5.32,0,0,0,2-3.41m-1.56,8.55.39-2-7.85-1.53.47-2.44-1.85-.36-1.34,6.87,1.85.37.48-2.44Zm-2.2,9.68,1.55-6.24-1.8-.44-1.06,4.26-2.14-.53.92-3.7-1.79-.45-.92,3.71-2.08-.52,1.05-4.21-1.8-.44-1.53,6.18Zm-2.5,8.59.6-2-2.79-.84-.84-1.22,4.61-1.18.69-2.3-6.45,1.66-3.05-4.39-.7,2.31,3.14,4.33-4.08-1.23-.59,2Zm-7,4.72-2.81-1,.5-1.39a1.41,1.41,0,0,1,2-1h0a1.43,1.43,0,0,1,.85,2Zm4.07,3.64.69-1.93-3.06-1.1.44-1.21,3.67-.62.79-2.2-4.17.74a3,3,0,0,0-2.13-2.72l-.05,0a3.16,3.16,0,0,0-2.44,0,3.67,3.67,0,0,0-1.79,2.21l-1.26,3.5Zm-6.29,4.76-2.53-2.27,3.39.29Zm2.28,4.7.82-1.9-1.69-1.51,1.35-3.13,2.26.18.84-1.94-10.53-.69-.78,1.79Zm-4.46,8.86.9-1.78-5.6-2.85,4.66-.22,0,0-2.58-3.93,5.63,2.86.91-1.79-8.82-4.48-1,1.93L304,240.6l-4.57.14-1,1.92Z"/><path class="cls-3" d="M141.31,25.29l6.31-1.23-.36-1.82-4.31.85-.43-2.17,3.75-.73-.36-1.82-3.74.74-.41-2.1,4.25-.83-.35-1.82-6.25,1.23ZM133.46,22l-.72-2.9,1.43-.35c1-.25,1.72.08,2,1h0a1.42,1.42,0,0,1-1.2,1.83Zm-.76,5.4,2-.49-.78-3.16,1.25-.31,2.55,2.71,2.28-.56-2.93-3.06a3,3,0,0,0,1.07-3.28v0a3.14,3.14,0,0,0-1.36-2,3.65,3.65,0,0,0-2.84-.27l-3.6.89Zm-5.35,1.79c2.18-.69,3.21-2.39,2.38-5l-1.81-5.73-1.94.62,1.85,5.82c.41,1.3,0,2.15-1,2.47s-1.85-.14-2.27-1.47l-1.84-5.78-2,.62,1.83,5.77c.81,2.54,2.61,3.36,4.78,2.67m-9,3,1.91-.71L117.42,24l2.32-.88-.66-1.77-6.56,2.46.66,1.77,2.33-.87Zm-6.08,2.66a4.26,4.26,0,0,0,2.45-2.72L113,31.28a2.81,2.81,0,0,1-1.44,1.77c-1.2.54-2.62-.14-3.42-1.94l0,0c-.78-1.76-.4-3.28.81-3.82a2.77,2.77,0,0,1,2.25.07l.48-1.94a4.15,4.15,0,0,0-3.44.1c-2.39,1.07-3.26,3.68-2,6.42l0,.12c1.24,2.76,3.65,3.86,6,2.79M103.55,39c2-1.07,2.74-2.93,1.48-5.34l-2.8-5.32-1.8,1,2.84,5.4c.64,1.22.37,2.13-.57,2.62s-1.85.19-2.5-1l-2.82-5.36-1.81.95,2.81,5.35c1.24,2.37,3.16,2.86,5.17,1.8m-11.72.61L90.31,37l1.27-.75a1.42,1.42,0,0,1,2.18.44h0a1.42,1.42,0,0,1-.63,2.1ZM92.64,45l1.76-1-1.65-2.8,1.11-.65,3.22,1.87,2-1.2-3.68-2.09a3,3,0,0,0,.09-3.45l0-.05A3.14,3.14,0,0,0,93.6,34a3.67,3.67,0,0,0-2.79.55l-3.2,1.89Zm-4.9,3.3,1.68-1.14-4.49-6.62L87,39.13l-1.07-1.56L80.13,41.5l1.06,1.57,2.06-1.4ZM82.53,52.2c1.53-1.16,2-2.9.86-4.37v0c-.93-1.23-2.12-1.26-3.9-.76-1.61.42-2,.41-2.39,0v0c-.3-.4-.16-1,.4-1.37a3.48,3.48,0,0,1,2.24-.54l0-1.93a4.75,4.75,0,0,0-3.28,1,2.94,2.94,0,0,0-.84,4.26l0,0c1,1.35,2.29,1.23,4.09.72,1.46-.43,1.87-.35,2.17,0h0c.35.46.2,1.07-.43,1.54a3.8,3.8,0,0,1-2.64.59l-.06,1.94a5.3,5.3,0,0,0,3.8-1m-10.2,3L71.06,52,74,53.78Zm0,5.22,1.57-1.34L73,57l2.59-2.21,1.95,1.15,1.61-1.37L70,49.27l-1.48,1.27Zm-7.9.56-2.07-2.15,1.06-1a1.41,1.41,0,0,1,2.22-.08h0a1.43,1.43,0,0,1-.13,2.19Zm2,5.06,1.48-1.42-2.26-2.34.92-.9,3.57,1.07,1.69-1.62-4.07-1.18a3,3,0,0,0-.71-3.38l0,0a3.11,3.11,0,0,0-2.19-1.07,3.66,3.66,0,0,0-2.58,1.18l-2.68,2.59Zm-5.37,5.69,1.4-1.49-2.85-2.68,2.6-2.77-1.37-1.29-2.6,2.77-1.62-1.52,3-3.15-1.37-1.29-4.36,4.65ZM54.87,79.1l1.28-1.54-4.59-3.82,7.1.81,1.12-1.35-7.61-6.32-1.28,1.54,4.43,3.69-6.85-.78-1.2,1.45Zm-2.44,3.3,1.24-1.64-7.9-6-1.23,1.64Z"/><path class="cls-3" d="M289.81,86.27,291,88l3.21-2.27,6.73-.8L299.62,83l-4.3.63,2.05-3.83L296,77.94,293,84Zm-4.5-5.77a5.72,5.72,0,0,0,3.14,2l3.6-2.83-2.31-2.94-1.4,1.1,1.11,1.41-1.38,1.08a2.52,2.52,0,0,1-1.23-.9c-.9-1.15-.69-2.73.91-4l.09-.07c1.44-1.12,3.11-1.07,4,0a2.79,2.79,0,0,1,.59,2.13l2,0a4.62,4.62,0,0,0-1.09-3.26c-1.65-2.11-4.5-2.33-6.81-.53l-.1.08c-2.43,1.91-2.76,4.61-1.12,6.7m-5.24-9.12c-.92-1-.67-2.59.79-3.89l.07-.07c1.46-1.3,3-1.38,3.94-.35s.65,2.58-.8,3.88L284,71c-1.45,1.3-3,1.38-3.92.36m-1.42,1.24c1.74,2,4.54,2,6.74,0l.13-.11c2.2-2,2.52-4.71.77-6.67s-4.53-2-6.75,0l-.12.11c-2.21,2-2.52,4.71-.77,6.67m-7.54-8,4.3,4.25,1.32-1.33-2.84-2.81,5.63-5.7-1.46-1.44Zm-3.35-5.39c-1-.92-.95-2.5.35-4l.07-.07c1.3-1.45,2.83-1.71,3.87-.79s.94,2.49-.36,3.95l-.07.07c-1.3,1.45-2.83,1.71-3.86.8m-1.27,1.4c1.95,1.74,4.74,1.42,6.7-.78l.12-.13c2-2.2,2-5,0-6.71s-4.73-1.44-6.7.78l-.12.12c-2,2.21-2,5,0,6.72m-10.58-8.78L257.5,53l3.63-4.74-.53,7.13L262,56.49l6-7.85-1.59-1.22L262.91,52l.5-6.88L261.92,44Zm-7.7-5.26,1.7,1.14,2.24-3.34,2.7,1.81-2.25,3.35,1.7,1.14,5.52-8.21-1.7-1.14-2.21,3.29-2.7-1.81,2.21-3.3-1.7-1.14Zm-4.14-2.34a4.29,4.29,0,0,0,3.64.41l-.32-1.87a2.82,2.82,0,0,1-2.28-.14c-1.13-.67-1.4-2.22-.41-3.91l0,0c1-1.66,2.44-2.22,3.58-1.55A2.71,2.71,0,0,1,249.54,39l1.86-.74a4.13,4.13,0,0,0-2.07-2.74c-2.26-1.32-4.9-.51-6.41,2.07l-.06.11c-1.53,2.61-1,5.21,1.21,6.53m-10.45-5.87,5.7,3,.85-1.64-3.89-2,1-2,3.38,1.77.86-1.64-3.39-1.77,1-1.89,3.85,2,.85-1.64-5.64-3Zm-5.37-2.46,1.85.83,3.27-7.3,2.27,1,.77-1.73L230,25.85l-.77,1.72,2.27,1Z"/><path class="cls-8" d="M255.88,190.31c.94,0,1.59-.49,1.59-1.33h0c0-.74-.48-1.08-1.42-1.31S255,187.3,255,187h0c0-.3.27-.53.73-.53a2,2,0,0,1,1.21.46l.42-.6a2.49,2.49,0,0,0-1.62-.56,1.37,1.37,0,0,0-1.52,1.3h0c0,.82.53,1.1,1.48,1.33s1,.37,1,.68v0c0,.33-.3.56-.79.56a2.07,2.07,0,0,1-1.41-.58l-.47.56a2.74,2.74,0,0,0,1.86.71m-5.83-.06h3.34v-.7h-2.56v-1.2h2.24v-.7h-2.24v-1.16h2.53v-.7h-3.31Zm-2,0h.78v-4.46h-.78Zm-3.08,0h.79v-3.74h1.41v-.72h-3.62v.72H245Zm-3.07,0h.78v-4.46h-.78Zm-5.08,0h.77v-3.17l2.46,3.17h.65v-4.46H240v3.08l-2.39-3.08h-.72Zm-3,.07a1.78,1.78,0,0,0,1.92-2v-2.53H235v2.57c0,.82-.43,1.23-1.12,1.23s-1.13-.44-1.13-1.27v-2.53H232v2.57a1.76,1.76,0,0,0,1.9,2m-7.36-.07h.77v-3.19l1.4,2.09h0l1.4-2.1v3.2h.79v-4.46H230l-1.35,2.11-1.36-2.11h-.84Zm-5.53,0h.77v-3.19l1.4,2.09h0l1.41-2.1v3.2h.79v-4.46h-.84l-1.36,2.11-1.35-2.11H221Zm-3.27-.65a1.53,1.53,0,0,1-1.52-1.58h0a1.51,1.51,0,0,1,1.5-1.58,1.53,1.53,0,0,1,1.52,1.59h0a1.5,1.5,0,0,1-1.5,1.57m0,.72A2.28,2.28,0,0,0,220,188h0a2.26,2.26,0,0,0-2.32-2.3,2.29,2.29,0,0,0-2.34,2.31h0a2.25,2.25,0,0,0,2.32,2.29m-4.63,0a2.29,2.29,0,0,0,1.81-.78l-.5-.51a1.76,1.76,0,0,1-1.28.57A1.5,1.5,0,0,1,211.6,188h0a1.5,1.5,0,0,1,1.47-1.58,1.75,1.75,0,0,1,1.25.56l.5-.58a2.32,2.32,0,0,0-1.75-.7,2.26,2.26,0,0,0-2.3,2.31h0a2.24,2.24,0,0,0,2.27,2.29"/><path class="cls-8" d="M260.53,180.46c.93,0,1.59-.49,1.59-1.33h0c0-.74-.48-1.08-1.43-1.31s-1.06-.35-1.06-.7h0c0-.29.27-.53.73-.53a2.06,2.06,0,0,1,1.21.46l.42-.59a2.45,2.45,0,0,0-1.62-.56,1.35,1.35,0,0,0-1.52,1.29h0c0,.82.53,1.1,1.48,1.33s1,.37,1,.69h0c0,.33-.31.56-.79.56a2.05,2.05,0,0,1-1.41-.58l-.47.56a2.73,2.73,0,0,0,1.86.71m-6.6-.06h.77v-3.17l2.46,3.17h.66v-4.46h-.77V179l-2.39-3.08h-.73Zm-3.27-.65a1.52,1.52,0,0,1-1.52-1.58h0a1.51,1.51,0,0,1,1.5-1.58,1.53,1.53,0,0,1,1.52,1.59h0a1.5,1.5,0,0,1-1.5,1.57m0,.73a2.29,2.29,0,0,0,2.34-2.31h0a2.26,2.26,0,0,0-2.32-2.3,2.29,2.29,0,0,0-2.34,2.31h0a2.26,2.26,0,0,0,2.32,2.3m-4.1-.08h.78v-4.46h-.78Zm-3.08,0h.79v-3.73h1.42v-.73h-3.62v.73h1.41Zm-4.39-1.77.77-1.78.77,1.78Zm-1.55,1.77h.81l.46-1.08h2.1l.46,1.08h.83l-2-4.49h-.72Zm-4.25,0h3.66v-.69h-2.64l2.64-3.19v-.58h-3.57v.69h2.55l-2.64,3.19Zm-1.81,0h.78v-4.46h-.78Zm-5.08,0h.77v-3.17l2.46,3.17h.66v-4.46h-.77V179l-2.39-3.08h-.73Zm-3.87-1.77.77-1.78.77,1.78ZM221,180.4h.81l.45-1.08h2.11l.46,1.08h.82l-2-4.49h-.72Zm-2.49.08a2.82,2.82,0,0,0,1.86-.7v-1.87h-1.9v.68h1.14v.84a1.87,1.87,0,0,1-1.08.33,1.49,1.49,0,0,1-1.52-1.59h0a1.51,1.51,0,0,1,1.45-1.58,1.75,1.75,0,0,1,1.25.48l.5-.59a2.42,2.42,0,0,0-1.72-.61,2.28,2.28,0,0,0-2.3,2.31h0a2.22,2.22,0,0,0,2.32,2.3m-5.94-2.33v-1.5h1.14c.58,0,.92.26.92.74v0c0,.45-.36.74-.92.74Zm-.79,2.25h.79v-1.55h1l1.09,1.55h.93l-1.2-1.69a1.34,1.34,0,0,0,1.06-1.35h0a1.36,1.36,0,0,0-.37-1,1.81,1.81,0,0,0-1.29-.45h-2Zm-3.27-.65a1.52,1.52,0,0,1-1.52-1.58h0a1.51,1.51,0,0,1,1.5-1.58,1.53,1.53,0,0,1,1.52,1.59h0a1.5,1.5,0,0,1-1.5,1.57m0,.73a2.29,2.29,0,0,0,2.34-2.31h0a2.26,2.26,0,0,0-2.32-2.3,2.29,2.29,0,0,0-2.34,2.31h0a2.26,2.26,0,0,0,2.32,2.3"/><path class="cls-8" d="M252.8,170.62c.94,0,1.59-.5,1.59-1.33v0c0-.74-.48-1.07-1.42-1.3s-1.07-.36-1.07-.71h0c0-.29.27-.53.73-.53a2,2,0,0,1,1.21.46l.42-.59a2.49,2.49,0,0,0-1.62-.56,1.36,1.36,0,0,0-1.52,1.29h0c0,.83.53,1.11,1.48,1.34s1,.36,1,.68h0c0,.33-.31.56-.79.56a2.07,2.07,0,0,1-1.41-.58l-.47.56a2.75,2.75,0,0,0,1.86.72m-5.83-.07h3.34v-.7h-2.56v-1.2H250V168h-2.24v-1.16h2.53v-.7H247Zm-2.52.07c.94,0,1.6-.5,1.6-1.33v0c0-.74-.49-1.07-1.43-1.3s-1.07-.36-1.07-.71h0c0-.29.27-.53.73-.53a2,2,0,0,1,1.21.46l.42-.59a2.49,2.49,0,0,0-1.62-.56,1.36,1.36,0,0,0-1.52,1.29h0c0,.83.54,1.11,1.49,1.34s1,.36,1,.68h0c0,.33-.3.56-.79.56a2.07,2.07,0,0,1-1.41-.58l-.47.56a2.75,2.75,0,0,0,1.86.72m-4,0c.94,0,1.59-.5,1.59-1.33v0c0-.74-.48-1.07-1.43-1.3s-1.06-.36-1.06-.71h0c0-.29.27-.53.73-.53a2,2,0,0,1,1.21.46l.42-.59a2.49,2.49,0,0,0-1.62-.56,1.36,1.36,0,0,0-1.52,1.29h0c0,.83.53,1.11,1.48,1.34s1,.36,1,.68h0c0,.33-.31.56-.79.56a2.07,2.07,0,0,1-1.41-.58l-.47.56a2.74,2.74,0,0,0,1.86.72m-5.83-.07H238v-.7h-2.56v-1.2h2.24V168h-2.24v-1.16h2.53v-.7h-3.31Zm-5,0h.78v-3.17l2.46,3.17h.65v-4.46h-.77v3.09l-2.39-3.09h-.73Zm-2,0h.78v-4.46h-.78Zm-2.56.07c.93,0,1.59-.5,1.59-1.33v0c0-.74-.48-1.07-1.43-1.3s-1.06-.36-1.06-.71h0c0-.29.27-.53.73-.53a2,2,0,0,1,1.21.46l.42-.59a2.51,2.51,0,0,0-1.62-.56,1.36,1.36,0,0,0-1.52,1.29h0c0,.83.53,1.11,1.48,1.34s1,.36,1,.68h0c0,.33-.31.56-.79.56a2.05,2.05,0,0,1-1.41-.58l-.47.56a2.74,2.74,0,0,0,1.86.72m-4.56,0a1.78,1.78,0,0,0,1.92-2v-2.53h-.78v2.57c0,.82-.43,1.24-1.13,1.24s-1.12-.44-1.12-1.27v-2.54h-.79v2.57a1.76,1.76,0,0,0,1.9,2m-3.5-1.39v0c0,.4-.32.61-.86.61h-1.3v-1.23h1.25c.61,0,.91.23.91.6m-.24-1.86c0,.4-.34.6-.85.6h-1.07v-1.18H216c.5,0,.79.21.79.56Zm-2.69,3.18h2.07c1,0,1.65-.42,1.65-1.22h0a1.1,1.1,0,0,0-.89-1.09,1.06,1.06,0,0,0,.64-1h0a1,1,0,0,0-.3-.74,1.61,1.61,0,0,0-1.17-.4h-2Z"/><path class="cls-3" d="M273,156.27c1.55,0,2.58-.77,2.58-2.07v0c0-1.2-.91-1.67-2.37-2-.89-.2-1.11-.33-1.11-.62v0c0-.23.21-.41.64-.41a3.11,3.11,0,0,1,1.78.63l.89-1.24a4,4,0,0,0-2.63-.85c-1.53,0-2.46.86-2.46,2v0c0,1.3,1,1.68,2.4,2,.87.21,1.08.35,1.08.62v0c0,.27-.25.44-.73.44A3.32,3.32,0,0,1,271,154l-1,1.18a4.45,4.45,0,0,0,3,1.05m-8.12-.11h4.85v-1.55h-3.08v-4.82h-1.77ZM260,153.64l.72-1.8.71,1.8Zm-2.82,2.52H259l.46-1.15h2.46l.46,1.15h1.89l-2.71-6.42h-1.7Zm-3.42-1.46a1.65,1.65,0,0,1-1.64-1.72v0a1.63,1.63,0,0,1,1.62-1.71,1.65,1.65,0,0,1,1.63,1.73h0a1.63,1.63,0,0,1-1.61,1.71m0,1.59a3.33,3.33,0,0,0,3.44-3.31v0a3.43,3.43,0,0,0-6.86,0h0a3.31,3.31,0,0,0,3.42,3.3m-7,0a4.26,4.26,0,0,0,2.77-1v-2.86h-2.92v1.29h1.25v.78a1.81,1.81,0,0,1-1,.26,1.69,1.69,0,0,1-1.73-1.78h0a1.66,1.66,0,0,1,1.63-1.74,2.22,2.22,0,0,1,1.54.6l1-1.26a3.7,3.7,0,0,0-2.58-.92,3.3,3.3,0,0,0-3.42,3.32h0a3.27,3.27,0,0,0,3.45,3.3m-11.39-.13h4.86v-1.55h-3.09v-4.82h-1.77Zm-4.91-2.52.72-1.8.71,1.8Zm-2.82,2.52h1.84l.46-1.15h2.47l.45,1.15h1.89L232,149.74h-1.7Zm-7.15.05H222l1.28-3.67,1.27,3.67h1.54l2.13-6.42H226.4l-1.11,3.69-1.23-3.71h-1.52l-1.23,3.71-1.11-3.69h-1.86Zm-7.79-.05h5.17v-1.5h-3.42v-1h3.06v-1.39h-3.06v-1h3.38v-1.49h-5.13Zm-7.14,0h1.74v-3.49l2.74,3.49h1.53v-6.37h-1.74v3.37l-2.63-3.37h-1.64Zm-6.09,0h5.17v-1.5H201.2v-1h3.06v-1.39H201.2v-1h3.38v-1.49h-5.13Zm-4.78-3.31v-1.54h1.17c.58,0,1,.25,1,.76v0c0,.47-.36.76-1,.76Zm-1.76,3.31h1.76v-1.93h.79l1.28,1.93h2l-1.52-2.22a2,2,0,0,0,1.31-2h0a2,2,0,0,0-.56-1.49,2.82,2.82,0,0,0-2.08-.68h-3Z"/><path class="cls-3" d="M272.83,145.91H278v-1.5h-3.42v-1h3.06V142h-3.06v-1H278v-1.49h-5.13Zm-3.58.13a3.2,3.2,0,0,0,2.81-1.44l-1.32-.95a1.77,1.77,0,0,1-1.44.77,1.57,1.57,0,0,1-1.52-1.7v0A1.58,1.58,0,0,1,269.3,141a1.71,1.71,0,0,1,1.39.75l1.33-1a3.13,3.13,0,0,0-2.71-1.32,3.25,3.25,0,0,0-3.34,3.31v0a3.24,3.24,0,0,0,3.28,3.3m-7.86-3.45v-1.54h1.17c.58,0,1,.26,1,.77v0c0,.46-.36.75-.95.75Zm-1.76,3.32h1.76V144h.79l1.28,1.93h2L264,143.69a2,2,0,0,0,1.31-2v0a2,2,0,0,0-.56-1.48,2.82,2.82,0,0,0-2.08-.68h-3Zm-4,.12a2.67,2.67,0,0,0,3-3v-3.53H256.8v3.58c0,.89-.47,1.31-1.19,1.31s-1.17-.43-1.17-1.35v-3.54h-1.79v3.57a2.63,2.63,0,0,0,2.94,2.92m-7.2-1.59a1.66,1.66,0,0,1-1.64-1.72v0a1.63,1.63,0,1,1,3.25,0v0a1.62,1.62,0,0,1-1.61,1.7m0,1.6a3.35,3.35,0,0,0,3.45-3.32v0a3.44,3.44,0,0,0-6.87,0v0a3.31,3.31,0,0,0,3.42,3.3m-6.64,0c1.55,0,2.57-.78,2.57-2.08v0c0-1.19-.91-1.66-2.36-2-.9-.2-1.11-.33-1.11-.62v0c0-.24.21-.41.63-.41a3.12,3.12,0,0,1,1.79.63l.88-1.25a4,4,0,0,0-2.62-.84c-1.53,0-2.47.85-2.47,2v0c0,1.31,1.05,1.69,2.4,2,.88.21,1.09.34,1.09.62h0c0,.28-.26.44-.74.44a3.31,3.31,0,0,1-2.07-.76l-1,1.17a4.48,4.48,0,0,0,3,1.06m-8.59-.11h5.17v-1.5h-3.42v-1H238V142h-3.06v-1h3.38v-1.49h-5.13Zm-4.78-3.32v-1.54h1.17c.58,0,.95.26.95.77v0c0,.46-.35.75-.94.75Zm-1.76,3.32h1.76V144h.78l1.29,1.93h2l-1.52-2.22a2,2,0,0,0,1.31-2v0a2,2,0,0,0-.57-1.48,2.79,2.79,0,0,0-2.07-.68h-3Z"/><path class="cls-8" d="M219.62,145.91h1.77v-4.83h1.91v-1.55h-5.58v1.55h1.9Zm-6.34-3.32v-1.54h1.17c.58,0,1,.26,1,.77v0c0,.46-.36.75-.95.75Zm-1.76,3.32h1.76V144h.79l1.28,1.93h2l-1.52-2.22a2,2,0,0,0,1.31-2v0a2,2,0,0,0-.56-1.48,2.82,2.82,0,0,0-2.08-.69h-3Zm-4.92-2.52.72-1.81.71,1.81Zm-2.82,2.52h1.85l.45-1.15h2.47l.45,1.15h1.9l-2.71-6.42h-1.71Zm-7.4,0h1.73v-3.65l1.62,2.48h0l1.63-2.49v3.66h1.76v-6.38h-1.87L199.76,142l-1.52-2.47h-1.86Zm-3.44.11c1.55,0,2.58-.78,2.58-2.08v0c0-1.19-.91-1.66-2.37-2-.89-.2-1.11-.33-1.11-.62v0c0-.24.21-.41.64-.41a3.11,3.11,0,0,1,1.78.63l.89-1.25a4,4,0,0,0-2.63-.84c-1.52,0-2.46.85-2.46,2v0c0,1.3,1,1.69,2.4,2,.88.21,1.09.34,1.09.62h0c0,.28-.26.44-.74.44a3.31,3.31,0,0,1-2.07-.76L190,145a4.45,4.45,0,0,0,3,1.06"/><path class="cls-8" d="M147.07,219.86c.94,0,1.59-.5,1.59-1.34h0c0-.74-.48-1.08-1.42-1.31s-1.07-.35-1.07-.7h0c0-.29.27-.53.73-.53a2,2,0,0,1,1.21.46l.42-.59a2.49,2.49,0,0,0-1.62-.56,1.36,1.36,0,0,0-1.52,1.29h0c0,.83.53,1.11,1.48,1.34s1,.36,1,.68h0c0,.33-.31.56-.79.56a2.07,2.07,0,0,1-1.41-.58l-.47.56a2.74,2.74,0,0,0,1.86.72m-5.83-.07h3.34v-.7H142v-1.2h2.24v-.7H142V216h2.53v-.7h-3.31Zm-2.63.08a2.33,2.33,0,0,0,1.81-.79l-.51-.51a1.72,1.72,0,0,1-1.28.57,1.51,1.51,0,0,1-1.47-1.58h0a1.51,1.51,0,0,1,1.47-1.58,1.77,1.77,0,0,1,1.25.56l.51-.58a2.33,2.33,0,0,0-1.75-.69,2.25,2.25,0,0,0-2.3,2.3h0a2.24,2.24,0,0,0,2.27,2.3m-4.05-.08h.79v-4.46h-.79Zm-3.35,0h.69l1.85-4.49h-.85l-1.33,3.43-1.35-3.43h-.86ZM126,217.54V216h1.14c.58,0,.93.27.93.74v0c0,.45-.36.74-.92.74Zm-.78,2.25H126v-1.55h1l1.1,1.55h.93l-1.2-1.69a1.34,1.34,0,0,0,1.05-1.35h0a1.32,1.32,0,0,0-.37-1,1.77,1.77,0,0,0-1.28-.45h-2Zm-4.27,0h3.34v-.7h-2.56v-1.2H124v-.7h-2.24V216h2.53v-.7H121Zm-2.52.07c.94,0,1.59-.5,1.59-1.34h0c0-.74-.48-1.08-1.42-1.31s-1.07-.35-1.07-.7h0c0-.29.27-.53.73-.53a2,2,0,0,1,1.21.46l.42-.59a2.49,2.49,0,0,0-1.62-.56,1.36,1.36,0,0,0-1.52,1.29h0c0,.83.54,1.11,1.48,1.34s1,.36,1,.68h0c0,.33-.3.56-.79.56a2.07,2.07,0,0,1-1.41-.58l-.47.56a2.75,2.75,0,0,0,1.86.72m-7.41-.07h3.12v-.71h-2.34v-3.75h-.78ZM107.19,218l.76-1.78.77,1.78Zm-1.55,1.77h.8l.46-1.08H109l.45,1.08h.83l-2-4.49h-.73Zm-4.65,0h.77v-3.17l2.46,3.17h.65v-4.46h-.77v3.09l-2.39-3.09H101Zm-3.28-.65a1.52,1.52,0,0,1-1.51-1.58h0A1.5,1.5,0,0,1,97.7,216a1.53,1.53,0,0,1,1.52,1.59h0a1.5,1.5,0,0,1-1.51,1.57m0,.73a2.29,2.29,0,0,0,2.34-2.31h0a2.34,2.34,0,0,0-4.67,0h0a2.27,2.27,0,0,0,2.33,2.3m-4.1-.08h.78v-4.46H93.6Zm-2.57.07c.94,0,1.6-.5,1.6-1.34h0c0-.74-.49-1.08-1.43-1.31s-1.06-.35-1.06-.7h0c0-.29.26-.53.72-.53a2,2,0,0,1,1.21.46l.42-.59a2.49,2.49,0,0,0-1.62-.56,1.36,1.36,0,0,0-1.52,1.29h0c0,.83.54,1.11,1.49,1.34s1,.36,1,.68h0c0,.33-.3.56-.79.56a2,2,0,0,1-1.4-.58l-.48.56a2.75,2.75,0,0,0,1.86.72m-4,0c.94,0,1.59-.5,1.59-1.34h0c0-.74-.48-1.08-1.42-1.31s-1.07-.35-1.07-.7h0c0-.29.27-.53.73-.53a2,2,0,0,1,1.21.46l.42-.59a2.49,2.49,0,0,0-1.62-.56,1.36,1.36,0,0,0-1.52,1.29h0c0,.83.53,1.11,1.48,1.34s1,.36,1,.68h0c0,.33-.31.56-.79.56a2.07,2.07,0,0,1-1.41-.58l-.47.56a2.74,2.74,0,0,0,1.86.72m-5.83-.07h3.34v-.7H82v-1.2h2.24v-.7H82V216H84.5v-.7H81.19Zm-4.18,0h.78V218H80v-.72H77.79V216h2.54v-.71H77Zm-3.28-.65a1.52,1.52,0,0,1-1.51-1.58h0a1.51,1.51,0,0,1,1.5-1.58,1.53,1.53,0,0,1,1.52,1.59h0a1.5,1.5,0,0,1-1.51,1.57m0,.73a2.29,2.29,0,0,0,2.34-2.31h0a2.33,2.33,0,0,0-4.66,0h0a2.26,2.26,0,0,0,2.32,2.3m-6-2.33V216h1.14c.58,0,.92.27.92.74v0c0,.45-.35.74-.91.74ZM67,219.79h.78v-1.55h1l1.1,1.55h.93l-1.21-1.69a1.33,1.33,0,0,0,1.06-1.35h0a1.32,1.32,0,0,0-.37-1,1.81,1.81,0,0,0-1.29-.45H67Zm-3.48-2.14V216h.91c.59,0,1,.28,1,.8h0c0,.47-.37.8-1,.8Zm-.78,2.14h.78v-1.43h.89c1,0,1.78-.52,1.78-1.52v0a1.49,1.49,0,0,0-1.69-1.49H62.73Z"/><path class="cls-8" d="M123.18,210c.93,0,1.59-.5,1.59-1.33v0c0-.74-.48-1.07-1.43-1.3s-1.06-.36-1.06-.7v0c0-.29.27-.53.73-.53a2,2,0,0,1,1.21.46l.42-.59a2.51,2.51,0,0,0-1.62-.56,1.36,1.36,0,0,0-1.52,1.29v0c0,.82.53,1.1,1.48,1.33s1,.36,1,.68h0c0,.33-.31.56-.79.56a2.07,2.07,0,0,1-1.41-.58l-.47.56a2.74,2.74,0,0,0,1.86.72m-5.51-.07h3.13v-.71h-2.34v-3.75h-.79Zm-3.94,0h3.13v-.71h-2.35v-3.75h-.78Zm-2,0h.79v-4.46h-.79Zm-4.22,0h.78v-1.81h2.25v-.72h-2.25V206.2h2.54v-.72h-3.32Zm-3.32-3.74a1.46,1.46,0,0,1,1.55,1.51v0a1.45,1.45,0,0,1-1.55,1.5h-.88v-3Zm-1.66,3.74h1.66a2.23,2.23,0,0,0,2.37-2.23h0a2.23,2.23,0,0,0-2.37-2.22h-1.66Zm-5,0h.77v-3.17l2.46,3.17h.66v-4.46h-.77v3.09l-2.39-3.09h-.73Zm-3.87-1.77.77-1.78.77,1.78Zm-1.54,1.77h.8l.46-1.07h2.11l.45,1.07h.83l-2-4.49h-.72Zm-3.57,0h3.13v-.71H89.32v-3.75h-.79Z"/><path class="cls-8" d="M116.68,200.1h.79v-1.78l1.77-2.68h-.9l-1.26,2-1.24-2h-.93l1.77,2.7Zm-4,.07a2.87,2.87,0,0,0,1.86-.69V197.6h-1.9v.69h1.14v.83a1.75,1.75,0,0,1-1.07.34,1.49,1.49,0,0,1-1.52-1.59v0a1.51,1.51,0,0,1,1.45-1.57,1.7,1.7,0,0,1,1.24.48l.5-.6a2.43,2.43,0,0,0-1.71-.6,2.27,2.27,0,0,0-2.3,2.31h0a2.21,2.21,0,0,0,2.31,2.29m-5.94-2.32v-1.5h1.14c.58,0,.93.26.93.74h0c0,.45-.36.75-.92.75ZM106,200.1h.78v-1.56h1l1.1,1.56h.93l-1.2-1.69a1.34,1.34,0,0,0,1-1.35v0a1.32,1.32,0,0,0-.37-1,1.77,1.77,0,0,0-1.28-.44h-2Zm-4.27,0H105v-.7h-2.56v-1.2h2.24v-.7h-2.24v-1.16H105v-.7h-3.31Zm-5,0h.78v-3.18l2.46,3.18h.65v-4.46h-.77v3.08l-2.39-3.08h-.73Zm-4.26,0h3.33v-.7H93.17v-1.2h2.24v-.7H93.17v-1.16h2.52v-.7h-3.3Z"/><path class="cls-8" d="M121.58,190.31c.94,0,1.6-.49,1.6-1.33h0c0-.74-.49-1.08-1.43-1.31s-1.06-.36-1.06-.7h0c0-.3.26-.53.72-.53a2,2,0,0,1,1.21.46l.42-.6a2.46,2.46,0,0,0-1.61-.56,1.37,1.37,0,0,0-1.53,1.3h0c0,.82.54,1.1,1.49,1.33s1,.37,1,.68v0c0,.33-.3.56-.79.56a2,2,0,0,1-1.4-.58l-.48.56a2.74,2.74,0,0,0,1.86.71m-4.19,0a2.29,2.29,0,0,0,1.81-.78l-.5-.51a1.76,1.76,0,0,1-1.28.57A1.5,1.5,0,0,1,116,188h0a1.5,1.5,0,0,1,1.47-1.58,1.75,1.75,0,0,1,1.25.56l.5-.58a2.32,2.32,0,0,0-1.75-.7,2.26,2.26,0,0,0-2.3,2.31h0a2.24,2.24,0,0,0,2.27,2.29m-4-.07h.78v-4.46h-.78Zm-5.08,0H109v-3.17l2.46,3.17h.65v-4.46h-.77v3.08L109,185.79h-.72Zm-3.87-1.77.76-1.79.77,1.79Zm-1.55,1.77h.8l.46-1.08h2.11l.45,1.08h.83l-2-4.49h-.73Zm-2.5.07a2.82,2.82,0,0,0,1.86-.69v-1.87h-1.9v.68h1.15v.83a1.81,1.81,0,0,1-1.08.34A1.49,1.49,0,0,1,98.86,188h0a1.51,1.51,0,0,1,1.45-1.58,1.77,1.77,0,0,1,1.25.48l.49-.59a2.38,2.38,0,0,0-1.71-.61A2.28,2.28,0,0,0,98,188h0a2.21,2.21,0,0,0,2.31,2.29M94.41,188v-1.5h1.14c.58,0,.93.26.93.74h0c0,.46-.36.75-.92.75Zm-.78,2.25h.78v-1.56h1l1.09,1.56h.93l-1.2-1.69a1.33,1.33,0,0,0,1-1.35h0a1.4,1.4,0,0,0-.36-1,1.81,1.81,0,0,0-1.29-.44h-2Zm-3.27-.65A1.53,1.53,0,0,1,88.84,188h0a1.51,1.51,0,0,1,1.5-1.58A1.53,1.53,0,0,1,91.86,188h0a1.5,1.5,0,0,1-1.5,1.57m0,.72a2.28,2.28,0,0,0,2.34-2.3h0A2.33,2.33,0,0,0,88,188h0a2.25,2.25,0,0,0,2.32,2.29"/><path class="cls-8" d="M122.85,180.4h.77v-3.17l2.46,3.17h.66v-4.46H126V179l-2.39-3.08h-.73Zm-3.27-.65a1.52,1.52,0,0,1-1.52-1.58h0a1.51,1.51,0,0,1,1.5-1.58,1.53,1.53,0,0,1,1.52,1.59h0a1.5,1.5,0,0,1-1.5,1.57m0,.73a2.29,2.29,0,0,0,2.34-2.31h0a2.33,2.33,0,0,0-4.66,0h0a2.26,2.26,0,0,0,2.32,2.3m-4.1-.08h.78v-4.46h-.78Zm-3.08,0h.79v-3.73h1.42v-.73H111v.73h1.41Zm-3.73.08a2.3,2.3,0,0,0,1.81-.79l-.5-.51a1.76,1.76,0,0,1-1.28.57,1.5,1.5,0,0,1-1.47-1.58h0a1.5,1.5,0,0,1,1.47-1.58,1.79,1.79,0,0,1,1.25.56l.5-.58a2.32,2.32,0,0,0-1.75-.7,2.25,2.25,0,0,0-2.29,2.31h0a2.24,2.24,0,0,0,2.26,2.3m-6.34-.08h3.34v-.7H103.1v-1.2h2.23v-.7H103.1v-1.16h2.52v-.7h-3.31Zm-3.94,0h3.13v-.71H99.15v-3.75h-.78Zm-4,0h3.13v-.71H95.21v-3.75h-.79Zm-3.27-.65a1.52,1.52,0,0,1-1.52-1.58h0a1.51,1.51,0,1,1,3,0h0a1.5,1.5,0,0,1-1.5,1.57m0,.73a2.28,2.28,0,0,0,2.33-2.31h0a2.26,2.26,0,0,0-2.32-2.3,2.29,2.29,0,0,0-2.34,2.31h0a2.27,2.27,0,0,0,2.33,2.3m-4.64,0a2.3,2.3,0,0,0,1.81-.79l-.5-.51a1.76,1.76,0,0,1-1.28.57,1.51,1.51,0,0,1-1.47-1.58h0a1.5,1.5,0,0,1,1.47-1.58,1.79,1.79,0,0,1,1.25.56l.5-.58a2.31,2.31,0,0,0-1.74-.7,2.25,2.25,0,0,0-2.3,2.31h0a2.24,2.24,0,0,0,2.26,2.3"/><path class="cls-8" d="M122.47,170.63a2.87,2.87,0,0,0,1.86-.69v-1.88h-1.89v.68h1.14v.84a1.88,1.88,0,0,1-1.08.34,1.5,1.5,0,0,1-1.52-1.6h0a1.51,1.51,0,0,1,1.45-1.57,1.76,1.76,0,0,1,1.25.47l.49-.59a2.37,2.37,0,0,0-1.71-.6,2.27,2.27,0,0,0-2.3,2.3v0a2.21,2.21,0,0,0,2.31,2.29m-7.15-.08h.77v-3.17l2.47,3.17h.65v-4.46h-.77v3.09l-2.39-3.09h-.73Zm-2,0h.78v-4.46h-.78Zm-4,0h3.13v-.71h-2.35v-3.75h-.78Zm-2.63.08a2.33,2.33,0,0,0,1.81-.79l-.51-.51a1.72,1.72,0,0,1-1.28.57,1.5,1.5,0,0,1-1.47-1.58h0a1.5,1.5,0,0,1,1.47-1.57,1.76,1.76,0,0,1,1.25.55l.51-.58a2.33,2.33,0,0,0-1.75-.69,2.25,2.25,0,0,0-2.3,2.3v0a2.24,2.24,0,0,0,2.27,2.29m-4.94-.08h.79v-1.78l1.77-2.68h-.9l-1.26,2-1.24-2H100l1.77,2.7Zm-3.88.08a2.33,2.33,0,0,0,1.81-.79l-.5-.51a1.76,1.76,0,0,1-1.29.57,1.5,1.5,0,0,1-1.47-1.58h0a1.5,1.5,0,0,1,1.47-1.57,1.76,1.76,0,0,1,1.25.55l.51-.58a2.33,2.33,0,0,0-1.75-.69,2.25,2.25,0,0,0-2.3,2.3v0a2.24,2.24,0,0,0,2.27,2.29m-6.34-.08h3.34v-.7H92.35v-1.2h2.24V168H92.35v-1.16h2.53v-.7H91.57Zm-3.82-2.25v-1.49h1.14c.58,0,.92.26.92.74h0c0,.45-.36.74-.92.74ZM87,170.55h.79V169h1l1.09,1.55h.93l-1.2-1.69a1.33,1.33,0,0,0,1.06-1.35h0a1.36,1.36,0,0,0-.37-1,1.81,1.81,0,0,0-1.29-.45H87Z"/><path class="cls-5" d="M157.87,156.27c1.55,0,2.58-.77,2.58-2.07v0c0-1.2-.91-1.67-2.37-2-.89-.2-1.11-.33-1.11-.62v0c0-.23.21-.41.64-.41a3.14,3.14,0,0,1,1.79.63l.88-1.24a4,4,0,0,0-2.62-.85c-1.53,0-2.47.86-2.47,2v0c0,1.3,1.05,1.68,2.4,2,.88.21,1.09.35,1.09.62v0c0,.27-.26.44-.74.44a3.32,3.32,0,0,1-2.07-.77l-1,1.18a4.47,4.47,0,0,0,3,1.05m-9.65-.11H150v-3.49l2.73,3.49h1.54v-6.37h-1.75v3.37l-2.62-3.37h-1.65Zm-4.33-1.46a1.65,1.65,0,0,1-1.64-1.72v0a1.63,1.63,0,1,1,3.25,0h0a1.63,1.63,0,0,1-1.61,1.71m0,1.59a3.33,3.33,0,0,0,3.44-3.31v0a3.43,3.43,0,0,0-6.86,0h0a3.31,3.31,0,0,0,3.42,3.3m-6.14-.13h1.76v-6.37h-1.76Zm-4.5,0H135v-4.82h1.92v-1.55h-5.58v1.55h1.9Zm-5.59.12a2.66,2.66,0,0,0,3-3v-3.53h-1.78v3.59c0,.89-.46,1.31-1.18,1.31s-1.18-.44-1.18-1.36v-3.54H124.7v3.58a2.63,2.63,0,0,0,2.94,2.91m-8.31-.12h4.86v-1.55H121.1v-4.82h-1.77ZM115,154.7a1.65,1.65,0,0,1-1.64-1.72v0a1.63,1.63,0,1,1,3.25,0h0A1.63,1.63,0,0,1,115,154.7m0,1.59a3.33,3.33,0,0,0,3.44-3.31v0a3.43,3.43,0,0,0-6.86,0h0a3.31,3.31,0,0,0,3.42,3.3m-6.65,0c1.55,0,2.58-.77,2.58-2.07v0c0-1.2-.91-1.67-2.37-2-.89-.2-1.11-.33-1.11-.62v0c0-.23.21-.41.64-.41a3.14,3.14,0,0,1,1.79.63l.88-1.24a4,4,0,0,0-2.62-.85c-1.53,0-2.47.86-2.47,2v0c0,1.3,1,1.68,2.4,2,.88.21,1.09.35,1.09.62v0c0,.27-.26.44-.74.44a3.32,3.32,0,0,1-2.07-.77l-1,1.18a4.47,4.47,0,0,0,3,1.05m-11.1-.11h5.17v-1.5H99v-1H102v-1.39H99v-1h3.38v-1.49H97.23Zm-3.58.13a3.2,3.2,0,0,0,2.81-1.44l-1.33-.95a1.72,1.72,0,0,1-1.44.78,1.58,1.58,0,0,1-1.52-1.7v0a1.59,1.59,0,0,1,1.52-1.7,1.74,1.74,0,0,1,1.4.75l1.33-1a3.17,3.17,0,0,0-2.71-1.32A3.27,3.27,0,0,0,90.36,153h0a3.24,3.24,0,0,0,3.29,3.3m-7.86-3.44v-1.54H87c.58,0,1,.25,1,.76v0c0,.47-.35.76-.94.76ZM84,156.16h1.76v-1.93h.78l1.29,1.93h2l-1.52-2.22a2,2,0,0,0,1.31-2h0a2,2,0,0,0-.57-1.49,2.79,2.79,0,0,0-2.07-.68H84Zm-4,.12a2.67,2.67,0,0,0,3-3v-3.53H81.19v3.59c0,.89-.46,1.31-1.18,1.31s-1.18-.44-1.18-1.36v-3.54H77.05v3.58A2.63,2.63,0,0,0,80,156.28m-7.2-1.58A1.65,1.65,0,0,1,71.15,153v0a1.63,1.63,0,1,1,3.25,0h0a1.63,1.63,0,0,1-1.61,1.71m0,1.59A3.33,3.33,0,0,0,76.21,153v0a3.43,3.43,0,0,0-6.86,0h0a3.31,3.31,0,0,0,3.42,3.3m-6.65,0c1.55,0,2.58-.77,2.58-2.07v0c0-1.2-.91-1.67-2.37-2-.89-.2-1.11-.33-1.11-.62v0c0-.23.21-.41.64-.41a3.14,3.14,0,0,1,1.79.63l.88-1.24a4,4,0,0,0-2.62-.85c-1.53,0-2.47.86-2.47,2v0c0,1.3,1,1.68,2.4,2,.88.21,1.09.35,1.09.62v0c0,.27-.26.44-.74.44a3.32,3.32,0,0,1-2.07-.77l-1,1.18a4.45,4.45,0,0,0,3,1.05m-8.58-.11h5.17v-1.5H59.29v-1h3.06v-1.39H59.29v-1h3.37v-1.49H57.54Zm-4.78-3.31v-1.54h1.16c.59,0,1,.25,1,.76v0c0,.47-.35.76-1,.76ZM51,156.16h1.77v-1.93h.78l1.29,1.93h2l-1.51-2.22a2,2,0,0,0,1.31-2h0a2,2,0,0,0-.57-1.49,2.81,2.81,0,0,0-2.07-.68H51Z"/><path class="cls-8" d="M123.35,143.39l.72-1.81.71,1.81Zm-2.82,2.52h1.85l.45-1.15h2.47l.46,1.15h1.89l-2.71-6.42h-1.71Zm-5.12,0h4.86v-1.55h-3.09v-4.82h-1.77Zm-5.61,0h4.85v-1.55h-3.09v-4.82H109.8Zm-6.09,0h5.17v-1.5h-3.42v-1h3.06V142h-3.06v-1h3.38v-1.49h-5.13Zm-3.43.11c1.55,0,2.58-.78,2.58-2.08v0c0-1.19-.91-1.66-2.37-2-.89-.2-1.11-.33-1.11-.62v0c0-.24.21-.41.64-.41a3.11,3.11,0,0,1,1.78.63l.88-1.25a4,4,0,0,0-2.62-.84c-1.53,0-2.46.85-2.46,2v0c0,1.31,1,1.69,2.4,2,.87.21,1.08.34,1.08.62v0c0,.27-.25.43-.74.43a3.28,3.28,0,0,1-2.06-.76l-1,1.17a4.45,4.45,0,0,0,3,1.06M93,143.39l.72-1.81.71,1.81Zm-2.82,2.52H92l.45-1.15H94.9l.45,1.15h1.9l-2.71-6.42H92.83Zm-3,.13a3.2,3.2,0,0,0,2.81-1.44l-1.33-.95a1.72,1.72,0,0,1-1.44.78,1.58,1.58,0,0,1-1.52-1.71v0A1.58,1.58,0,0,1,87.15,141a1.71,1.71,0,0,1,1.39.75l1.33-1a3.11,3.11,0,0,0-2.7-1.32,3.26,3.26,0,0,0-3.35,3.31v0a3.24,3.24,0,0,0,3.29,3.3"/></g></g></svg>