<svg xmlns="http://www.w3.org/2000/svg" viewBox="0 0 418.57 316.75"><defs><style>.cls-1{fill:#76bc21;}.cls-2{fill:#00263e;}.cls-3{fill:#fff200;}.cls-4{fill:#54565a;}</style></defs><title>top</title><g id="Layer_2" data-name="Layer 2"><g id="Layer_1-2" data-name="Layer 1"><path class="cls-1" d="M136.3,190.3l17.25-5L114.4,164.61,93.67,202.13l16.93-4.42c9.93,25.88,35.92,67.58,81.5,74.34l5.66-24.48c-35.77-9.31-53-36.58-61.46-57.27"/><path class="cls-1" d="M348.86,178.77l-25.75-6.89a103,103,0,0,1-85.8,75.37L237,228.92l-29.73,30.89,30.88,29.74L237.82,274a129.65,129.65,0,0,0,111-95.24"/><path class="cls-1" d="M352.43,130.67a129.65,129.65,0,0,0-95.2-110.59l-6.89,25.74a103,103,0,0,1,75.31,85.35l-17.81.34,30.89,29.74,29.75-30.88Z"/><path class="cls-2" d="M274.12,172.29A129.66,129.66,0,0,0,160.6,76.19v.07q-6.36-.63-12.63-.67a102.61,102.61,0,0,1,62.15-32.34l.32,17.39,29.74-30.9L209.29,0l.31,16.44C167.51,21,127.93,45.89,107.79,80.92c-16.05,29.12-15.73,64.67-12.5,81.5l28.91-7.56c-3.86-33.59,3.2-46.29,5.3-51a102.65,102.65,0,0,1,29.78-.94v0a103,103,0,0,1,89,76.09l-16.5,4.25L268.73,205l21.81-36.92Z"/><path class="cls-2" d="M30.51,107.55l.29,18L0,95.66l29.82-30.8.26,16c56.52-1.34,67,18.78,76.76,30.57,1.09,1.31-5.28,33.36-5.28,33.36-9.15-19.4-29.55-40.33-71-37.19"/><path class="cls-3" d="M26.74,91.51h-6.2l3.77-9.35h-4l-4.75,12h5.84l-3.55,10.11a.2.2,0,0,0,.35.17Z"/><path class="cls-3" d="M18.42,103.62l3.3-9.4a.3.3,0,0,0,0-.26.31.31,0,0,0-.24-.13H16l4.52-11.39h3.33l-3.61,9a.26.26,0,0,0,0,.27.28.28,0,0,0,.24.13H26.2ZM27,91.37a.3.3,0,0,0-.26-.15H21l3.61-9a.3.3,0,0,0-.27-.41h-4a.29.29,0,0,0-.27.19L15.33,94a.26.26,0,0,0,0,.27.28.28,0,0,0,.24.13H21l-3.42,9.72a.51.51,0,0,0,.06.45.52.52,0,0,0,.41.21.48.48,0,0,0,.41-.22L27,91.67a.29.29,0,0,0,0-.3"/><path class="cls-3" d="M226,28.53h-6.2l3.77-9.35h-4l-4.75,12h5.84l-3.55,10.11a.2.2,0,0,0,.35.18Z"/><path class="cls-3" d="M217.66,40.64,221,31.25a.29.29,0,0,0,0-.27.3.3,0,0,0-.24-.12h-5.41l4.52-11.39h3.33l-3.61,9a.31.31,0,0,0,0,.28.3.3,0,0,0,.25.12h5.66Zm8.58-12.25a.3.3,0,0,0-.26-.15h-5.77l3.61-8.95a.3.3,0,0,0-.27-.41h-4a.29.29,0,0,0-.27.19l-4.75,12a.26.26,0,0,0,0,.27.28.28,0,0,0,.24.13h5.42l-3.41,9.72a.51.51,0,0,0,.06.45.52.52,0,0,0,.41.21.48.48,0,0,0,.41-.22l8.5-12.91a.29.29,0,0,0,0-.3"/><path class="cls-4" d="M415.43,313.19,413.17,307H412l2.9,7.54c-.38,1-.74,1.29-1.3,1.29a2.11,2.11,0,0,1-1-.27l-.32.86a2.9,2.9,0,0,0,1.36.35c1,0,1.67-.53,2.2-2.1l2.68-7.67h-1.11Zm-5.52,1.45a2.65,2.65,0,0,0,1.13-.26v-.9a2.2,2.2,0,0,1-.88.2,1,1,0,0,1-1.09-1.08v-4.7h2V307h-2v-2.2h-1V307h-.91v.92H408v4.87a1.69,1.69,0,0,0,1.88,1.87m-5.48-.12h1V307h-1Zm-.06-9.09h1.16V304.2h-1.16Zm-3.3,9.09h1V304.07h-1Zm-3.36,0h1V307h-1Zm-.06-9.09h1.16V304.2h-1.16Zm-5,8.3c-1.19,0-2.29-1.13-2.29-2.9v-.15c0-1.76,1.1-2.91,2.29-2.91s2.15,1.09,2.15,2.93v.11c0,1.86-1,2.92-2.15,2.92m.2.94c1.54,0,3-1.35,3-3.86v-.14c0-2.51-1.47-3.84-3-3.84a2.81,2.81,0,0,0-2.44,1.59v-4.35h-1v10.45h1v-1.4a2.79,2.79,0,0,0,2.44,1.55m-8.61-.86a1.51,1.51,0,0,1-1.61-1.53v0c0-1,.67-1.58,1.87-1.58a5.1,5.1,0,0,1,1.82.31v.94a2,2,0,0,1-2.08,1.91m-.23.87a2.61,2.61,0,0,0,2.3-1.26v1.1h1v-4.85a2.77,2.77,0,0,0-.73-2,2.87,2.87,0,0,0-2.11-.75,5.3,5.3,0,0,0-2.38.6l.34.86a4,4,0,0,1,1.92-.51,1.72,1.72,0,0,1,1.93,1.87v.45a6.27,6.27,0,0,0-1.94-.3c-1.67,0-2.78.88-2.78,2.43v.05a2.31,2.31,0,0,0,2.42,2.35m-6.69-.16h1v-3.59c0-1.94,1.13-2.93,2.53-2.93h.06v-1.12a2.66,2.66,0,0,0-2.59,1.76V307h-1Zm-5.42.15a2.45,2.45,0,0,0,2.23-1.38v1.23h1V307h-1v4.6a2,2,0,0,1-1.91,2.15c-1.1,0-1.74-.76-1.74-2.1V307h-1v4.95c0,1.68.93,2.74,2.46,2.74m-7.77-.94c-1.18,0-2.16-1.09-2.16-2.93v-.12c0-1.85,1-2.91,2.16-2.91s2.27,1.13,2.27,2.91v.13c0,1.79-1.09,2.92-2.27,2.92m-.22.94a2.82,2.82,0,0,0,2.45-1.6v1.45h1V304.07h-1v4.31a2.82,2.82,0,0,0-2.45-1.55c-1.54,0-3,1.35-3,3.85v.15c0,2.52,1.47,3.84,3,3.84m-11.8-.94c-1.17,0-2.16-1.09-2.16-2.93v-.12c0-1.85,1-2.91,2.16-2.91s2.27,1.13,2.27,2.91v.13c0,1.79-1.08,2.92-2.27,2.92m-.22.94a2.82,2.82,0,0,0,2.45-1.6v1.45h1V304.07h-1v4.31a2.81,2.81,0,0,0-2.45-1.55c-1.53,0-3,1.35-3,3.85v.15c0,2.52,1.48,3.84,3,3.84m-10.41-.15h1v-4.59a2,2,0,0,1,1.91-2.16c1.11,0,1.74.76,1.74,2.1v4.65h1v-4.94c0-1.69-.92-2.75-2.46-2.75a2.43,2.43,0,0,0-2.23,1.38V307h-1Zm-5.12-.71a1.51,1.51,0,0,1-1.61-1.53v0c0-1,.66-1.58,1.87-1.58a5.18,5.18,0,0,1,1.82.31v.94a2,2,0,0,1-2.08,1.91m-.24.87a2.61,2.61,0,0,0,2.31-1.26v1.1h1v-4.85a2.81,2.81,0,0,0-.72-2,2.87,2.87,0,0,0-2.11-.75,5.3,5.3,0,0,0-2.38.6l.33.86a4.08,4.08,0,0,1,1.93-.51,1.72,1.72,0,0,1,1.93,1.87v.45a6.38,6.38,0,0,0-1.94-.3c-1.67,0-2.78.88-2.78,2.43v.05a2.3,2.3,0,0,0,2.41,2.35"/><path class="cls-4" d="M403.85,295.49l-2.26-6.21h-1.13l2.9,7.55c-.38,1-.74,1.28-1.31,1.28a2,2,0,0,1-1-.27l-.32.87a2.83,2.83,0,0,0,1.36.34c1,0,1.67-.53,2.2-2.09l2.68-7.68h-1.12Zm-5.52,1.45a2.54,2.54,0,0,0,1.13-.26v-.9a2.22,2.22,0,0,1-.88.21,1,1,0,0,1-1.09-1.09v-4.69h2v-.93h-2v-2.2h-1v2.2h-.91v.93h.91v4.86a1.69,1.69,0,0,0,1.88,1.87m-5.49-.12h1.05v-7.54h-1.05Zm0-9.09h1.15V286.5h-1.15Zm-3.3,9.09h1V286.37h-1Zm-3.36,0h1v-7.54h-1Zm-.06-9.09h1.16V286.5h-1.16Zm-5,8.3c-1.19,0-2.29-1.13-2.29-2.9V293c0-1.77,1.1-2.91,2.29-2.91s2.14,1.08,2.14,2.92v.12c0,1.85-.95,2.91-2.14,2.91m.2.94c1.54,0,3-1.35,3-3.85V293c0-2.5-1.47-3.83-3-3.83a2.81,2.81,0,0,0-2.45,1.59v-4.36h-1v10.45h1v-1.4a2.79,2.79,0,0,0,2.45,1.55m-8.62-.85a1.51,1.51,0,0,1-1.6-1.54v0c0-1,.66-1.58,1.87-1.58a5.44,5.44,0,0,1,1.82.3v.94a2,2,0,0,1-2.09,1.92m-.23.86a2.61,2.61,0,0,0,2.31-1.26v1.1h1V292a2.81,2.81,0,0,0-.72-2,2.87,2.87,0,0,0-2.11-.75,5.18,5.18,0,0,0-2.38.61l.33.85a4.2,4.2,0,0,1,1.93-.51,1.72,1.72,0,0,1,1.93,1.87v.45a6.38,6.38,0,0,0-1.94-.3c-1.67,0-2.78.88-2.78,2.43v.06a2.3,2.3,0,0,0,2.41,2.34m-5.19-.16h1V286.37h-1Zm-4.07.16a3.13,3.13,0,0,0,2.43-1.12l-.61-.7a2.44,2.44,0,0,1-1.77.87c-1.27,0-2.31-1.15-2.31-2.93V293c0-1.75,1-2.94,2.27-2.94a2.45,2.45,0,0,1,1.77.86l.62-.79a3.19,3.19,0,0,0-2.38-1c-1.88,0-3.35,1.6-3.35,3.89v.1c0,2.29,1.43,3.85,3.33,3.85m-7.21-1.49-2.26-6.21h-1.13l2.89,7.55c-.37,1-.73,1.28-1.3,1.28a2,2,0,0,1-1-.27l-.32.87a2.83,2.83,0,0,0,1.36.34c1,0,1.66-.53,2.2-2.09l2.68-7.68H358ZM349.3,297a3.13,3.13,0,0,0,2.44-1.12l-.61-.7a2.44,2.44,0,0,1-1.77.87c-1.27,0-2.32-1.15-2.32-2.93V293c0-1.75,1-2.94,2.28-2.94a2.41,2.41,0,0,1,1.76.86l.63-.79a3.2,3.2,0,0,0-2.38-1c-1.88,0-3.36,1.6-3.36,3.89v.1c0,2.29,1.44,3.85,3.33,3.85m-9.68-4.32c.1-1.58.94-2.61,2.05-2.61s1.92,1.17,2,2.61Zm2.29,4.32a3.42,3.42,0,0,0,2.59-1.12l-.6-.67a2.66,2.66,0,0,1-1.95.87,2.46,2.46,0,0,1-2.33-2.6h5.06a3.32,3.32,0,0,0,0-.43c0-2.27-1.13-3.89-3-3.89s-3.11,1.6-3.11,3.91v.07c0,2.39,1.51,3.86,3.35,3.86m-7.72-.16h1v-3.59c0-1.94,1.13-2.92,2.53-2.92h.06v-1.13a2.66,2.66,0,0,0-2.59,1.76v-1.66h-1Z"/><path class="cls-4" d="M391.73,279.13h1v-3.6c0-1.94,1.13-2.92,2.53-2.92h.06v-1.13a2.66,2.66,0,0,0-2.59,1.77v-1.67h-1Zm-5.08-.78c-1.29,0-2.29-1.26-2.29-3v-.07c0-1.68.94-2.94,2.27-2.94s2.3,1.26,2.3,2.95v.08c0,1.66-.95,2.94-2.28,2.94m0,.93c1.94,0,3.36-1.69,3.36-3.89v-.09c0-2.2-1.4-3.86-3.34-3.86s-3.36,1.68-3.36,3.88v.1c0,2.2,1.4,3.86,3.34,3.86m-7.05-.15h1.06v-6.64h1.95v-.91h-2V271c0-.95.39-1.41,1.15-1.41a3.21,3.21,0,0,1,.85.14v-.92a3.21,3.21,0,0,0-1-.14,2,2,0,0,0-1.46.53,2.47,2.47,0,0,0-.58,1.74v.69h-.93v.91h.93Zm-11.89,0h1v-4.59a2,2,0,0,1,1.92-2.16c1.1,0,1.73.75,1.73,2.1v4.65h1.05v-4.94c0-1.7-.93-2.75-2.46-2.75a2.46,2.46,0,0,0-2.24,1.37v-1.23h-1Zm-5.43-1.46c-1.17,0-2.14-1-2.14-2.64v0c0-1.65,1-2.62,2.14-2.62a2.42,2.42,0,0,1,2.28,2.62v0a2.44,2.44,0,0,1-2.28,2.63m0,3.66a3.39,3.39,0,0,0,2.5-.87,3.14,3.14,0,0,0,.83-2.33v-6.55h-1v1.35a2.87,2.87,0,0,0-2.48-1.49c-1.53,0-3,1.29-3,3.56v.06c0,2.27,1.43,3.54,3,3.54a2.86,2.86,0,0,0,2.49-1.54v1.1a2.07,2.07,0,0,1-2.31,2.26,4.54,4.54,0,0,1-2.43-.74l-.42.84a5.36,5.36,0,0,0,2.87.81m-6.07-2.2h1v-7.55h-1Zm0-9.1h1.15V268.8H356.1Zm-4.19,9.23a2.23,2.23,0,0,0,2.45-2.17v0c0-1.15-.87-1.67-2.12-2.22-1-.43-1.68-.75-1.68-1.39v0c0-.59.51-1.06,1.31-1.06a3.28,3.28,0,0,1,1.89.71l.51-.79a4.1,4.1,0,0,0-2.37-.81,2.12,2.12,0,0,0-2.35,2v0c0,1.17.95,1.65,2.16,2.17,1,.42,1.63.77,1.63,1.44h0c0,.71-.57,1.18-1.4,1.18a3.43,3.43,0,0,1-2.2-.92l-.55.77a4.22,4.22,0,0,0,2.72,1.06m-8.8-4.3c.1-1.58.94-2.61,2.05-2.61s1.91,1.17,2,2.61Zm2.28,4.32a3.44,3.44,0,0,0,2.6-1.12l-.6-.67a2.66,2.66,0,0,1-1.95.87,2.46,2.46,0,0,1-2.33-2.59h5.06a3.47,3.47,0,0,0,0-.44c0-2.27-1.13-3.89-3-3.89s-3.11,1.6-3.11,3.91v.07c0,2.39,1.5,3.86,3.34,3.86m-8.35-.95c-1.17,0-2.16-1.09-2.16-2.92v-.12c0-1.85,1-2.91,2.16-2.91s2.27,1.13,2.27,2.91v.13c0,1.78-1.08,2.91-2.27,2.91m-.22.94a2.83,2.83,0,0,0,2.45-1.59v1.45h1V268.67h-1V273a2.79,2.79,0,0,0-2.45-1.55c-1.53,0-3,1.34-3,3.85v.14c0,2.52,1.48,3.84,3,3.84"/><path class="cls-4" d="M399,261.43h1V251h-1Zm-5.5.14a2.44,2.44,0,0,0,2.23-1.37v1.23h1v-7.54h-1v4.6a1.94,1.94,0,0,1-1.91,2.14c-1.1,0-1.74-.75-1.74-2.1v-4.64h-1v4.95c0,1.68.92,2.73,2.46,2.73m-6.62-.14H388V254.8h1.95v-.91h-2v-.64c0-.95.4-1.41,1.15-1.41a2.87,2.87,0,0,1,.85.15v-.93a3.54,3.54,0,0,0-1-.14,2,2,0,0,0-1.46.53,2.48,2.48,0,0,0-.58,1.75v.69H386v.91h.92Zm-3.17.11a2.51,2.51,0,0,0,1.13-.26v-.89a2.2,2.2,0,0,1-.88.2,1,1,0,0,1-1.09-1.09v-4.69h2v-.92h-2v-2.2h-1v2.2h-.91v.92h.91v4.87a1.68,1.68,0,0,0,1.88,1.86m-10-.11h1v-4.59a2,2,0,0,1,1.91-2.16c1.1,0,1.74.75,1.74,2.1v4.65h1v-4.94c0-1.69-.92-2.75-2.46-2.75a2.43,2.43,0,0,0-2.23,1.38V251h-1ZM368.33,260c-1.17,0-2.14-1-2.14-2.64v0c0-1.65.95-2.62,2.14-2.62a2.42,2.42,0,0,1,2.27,2.62v.05a2.43,2.43,0,0,1-2.27,2.62m0,3.66a3.41,3.41,0,0,0,2.5-.87,3.12,3.12,0,0,0,.83-2.33v-6.54h-1v1.34a2.89,2.89,0,0,0-2.48-1.49c-1.54,0-3,1.29-3,3.56v.06c0,2.27,1.43,3.55,3,3.55a2.89,2.89,0,0,0,2.5-1.55v1.1a2.07,2.07,0,0,1-2.31,2.26,4.51,4.51,0,0,1-2.43-.74l-.42.84a5.33,5.33,0,0,0,2.87.81m-8.21-2.06a2.44,2.44,0,0,0,2.23-1.37v1.23h1v-7.54h-1v4.6a1.94,1.94,0,0,1-1.91,2.14c-1.11,0-1.74-.75-1.74-2.1v-4.64h-1v4.95c0,1.68.92,2.73,2.46,2.73m-7.45-.92c-1.28,0-2.28-1.26-2.28-3v-.07c0-1.68.94-2.94,2.27-2.94s2.3,1.26,2.3,3v.07c0,1.66-.95,2.94-2.29,2.94m0,.94c1.94,0,3.36-1.69,3.36-3.9v-.08c0-2.2-1.4-3.87-3.35-3.87s-3.35,1.68-3.35,3.88v.1c0,2.2,1.4,3.87,3.34,3.87m-10.71-.16h1v-4.59a2,2,0,0,1,1.91-2.16c1.1,0,1.74.75,1.74,2.1v4.65h1v-4.94c0-1.69-.93-2.75-2.46-2.75a2.43,2.43,0,0,0-2.23,1.38V251h-1Zm-5.4,0h1.08v-9.12h2.85v-1h-6.77v1h2.84Z"/><path class="cls-4" d="M122.82,310.35c.1-1.58.94-2.61,2.05-2.61s1.92,1.18,2,2.61Zm2.29,4.33a3.39,3.39,0,0,0,2.59-1.13l-.59-.66a2.67,2.67,0,0,1-2,.86,2.45,2.45,0,0,1-2.33-2.59h5.07c0-.13,0-.33,0-.43,0-2.28-1.13-3.9-3-3.9s-3.11,1.61-3.11,3.91v.07c0,2.39,1.51,3.87,3.35,3.87m-6.74,0a3.11,3.11,0,0,0,2.44-1.13l-.61-.69a2.44,2.44,0,0,1-1.77.87c-1.27,0-2.32-1.15-2.32-2.93v-.07c0-1.75,1-2.94,2.28-2.94a2.42,2.42,0,0,1,1.76.85l.63-.78a3.21,3.21,0,0,0-2.38-1c-1.88,0-3.36,1.61-3.36,3.9v.1c0,2.29,1.44,3.85,3.33,3.85m-8.34,0a2.45,2.45,0,0,0,2.23-1.38v1.23h1V307h-1v4.6a2,2,0,0,1-1.91,2.15c-1.1,0-1.74-.76-1.74-2.1V307h-1v4.95c0,1.68.93,2.74,2.46,2.74m-7.77-.94c-1.18,0-2.16-1.09-2.16-2.93v-.12c0-1.85,1-2.91,2.16-2.91s2.27,1.13,2.27,2.91v.13c0,1.79-1.08,2.92-2.27,2.92m-.22.94a2.82,2.82,0,0,0,2.45-1.6v1.45h1V304.07h-1v4.31a2.81,2.81,0,0,0-2.45-1.55c-1.53,0-3,1.35-3,3.85v.15c0,2.52,1.48,3.84,3,3.84m-7.72-.93c-1.29,0-2.29-1.26-2.29-2.95v-.08c0-1.68,1-2.94,2.28-2.94s2.3,1.26,2.3,3v.07c0,1.67-1,2.94-2.29,2.94m0,.94c1.94,0,3.36-1.69,3.36-3.89v-.09c0-2.2-1.41-3.87-3.35-3.87S91,308.51,91,310.71v.1c0,2.21,1.41,3.87,3.35,3.87m-7.72-.16h1v-3.59c0-1.94,1.13-2.93,2.54-2.93h0v-1.12a2.66,2.66,0,0,0-2.59,1.76V307h-1Zm-5-.79c-1.19,0-2.29-1.13-2.29-2.9v-.14c0-1.77,1.1-2.92,2.29-2.92s2.14,1.09,2.14,2.93v.11c0,1.86-1,2.92-2.14,2.92m-3.29,3h1.05v-3.57a2.79,2.79,0,0,0,2.44,1.55c1.54,0,3-1.35,3-3.86v-.14c0-2.51-1.47-3.84-3-3.84a2.81,2.81,0,0,0-2.44,1.59V307H78.32Zm-10.51-6.34c.1-1.58.94-2.61,2.06-2.61s1.91,1.18,2,2.61Zm2.29,4.33a3.39,3.39,0,0,0,2.59-1.13l-.59-.66a2.65,2.65,0,0,1-2,.86,2.46,2.46,0,0,1-2.33-2.59h5.07c0-.13,0-.33,0-.43,0-2.28-1.12-3.9-3-3.9s-3.11,1.61-3.11,3.91v.07c0,2.39,1.5,3.87,3.34,3.87m-11.79-.1h.94L61,308.71l1.71,5.87h.94l2.25-7.6h-1l-1.68,6-1.72-6h-.89l-1.72,6-1.66-6h-1.1Z"/><path class="cls-4" d="M125.43,297a2.22,2.22,0,0,0,2.44-2.17v0c0-1.14-.87-1.66-2.11-2.21-1-.44-1.68-.75-1.68-1.39v0c0-.59.51-1.06,1.3-1.06a3.31,3.31,0,0,1,1.9.71l.5-.8a4.12,4.12,0,0,0-2.37-.8,2.11,2.11,0,0,0-2.34,2.05v0c0,1.17,1,1.65,2.15,2.17,1,.42,1.64.77,1.64,1.44h0c0,.71-.58,1.17-1.41,1.17a3.46,3.46,0,0,1-2.2-.91l-.55.77a4.25,4.25,0,0,0,2.73,1.05M118,295.36c-1.17,0-2.14-1-2.14-2.63v0c0-1.65,1-2.62,2.14-2.62a2.42,2.42,0,0,1,2.28,2.62v0a2.43,2.43,0,0,1-2.28,2.62m0,3.66a3.43,3.43,0,0,0,2.51-.86,3.19,3.19,0,0,0,.82-2.33v-6.55h-1v1.35a2.87,2.87,0,0,0-2.48-1.49c-1.53,0-3,1.28-3,3.56v.06c0,2.27,1.43,3.54,3,3.54a2.87,2.87,0,0,0,2.49-1.55v1.1a2.06,2.06,0,0,1-2.3,2.26,4.46,4.46,0,0,1-2.44-.74l-.42.85a5.46,5.46,0,0,0,2.87.8m-10.57-2.2h1v-4.59a2,2,0,0,1,1.91-2.15c1.11,0,1.74.75,1.74,2.1v4.64h1v-4.93c0-1.7-.92-2.75-2.46-2.75a2.44,2.44,0,0,0-2.23,1.37v-1.23h-1Zm-3.27,0h1v-7.54h-1Zm-.06-9.09h1.16V286.5H104Zm-7.8,9.09h1v-4.59a2,2,0,0,1,1.91-2.15c1.1,0,1.74.75,1.74,2.1v4.64h1v-4.93c0-1.7-.93-2.75-2.46-2.75a2.44,2.44,0,0,0-2.23,1.37v-4.14h-1Zm-2.81.12a2.58,2.58,0,0,0,1.13-.26v-.9a2.31,2.31,0,0,1-.89.21,1,1,0,0,1-1.08-1.09v-4.69h2v-.93h-2v-2.2h-1v2.2H90.6v.93h.92v4.86a1.69,1.69,0,0,0,1.88,1.87m-12.73-4.28c.1-1.58.94-2.61,2.06-2.61s1.91,1.17,2,2.61ZM83,297a3.42,3.42,0,0,0,2.59-1.12l-.59-.67a2.66,2.66,0,0,1-2,.87c-1.19,0-2.21-.93-2.33-2.6h5.07c0-.13,0-.33,0-.43,0-2.27-1.13-3.89-3-3.89s-3.12,1.6-3.12,3.91v.07c0,2.39,1.51,3.86,3.35,3.86m-10.72-.16h1v-4.59a2,2,0,0,1,1.92-2.15c1.1,0,1.74.75,1.74,2.1v4.64h1v-4.93c0-1.7-.93-2.75-2.46-2.75a2.46,2.46,0,0,0-2.24,1.37v-4.14h-1Zm-2.81.12a2.51,2.51,0,0,0,1.13-.26v-.9a2.22,2.22,0,0,1-.88.21,1,1,0,0,1-1.09-1.09v-4.69h2v-.93h-2v-2.2h-1v2.2h-.91v.93h.91v4.86a1.69,1.69,0,0,0,1.88,1.87m-11-.12h1v-3.59c0-1.94,1.13-2.92,2.53-2.92H62v-1.13a2.66,2.66,0,0,0-2.59,1.76v-1.66h-1ZM53.3,296c-1.28,0-2.28-1.26-2.28-3V293c0-1.68.94-2.94,2.27-2.94s2.3,1.26,2.3,2.95v.07c0,1.67-1,2.94-2.29,2.94m0,.94c1.94,0,3.36-1.69,3.36-3.89V293c0-2.2-1.4-3.86-3.35-3.86S50,290.81,50,293v.1c0,2.2,1.4,3.86,3.34,3.86m-7-.16h1v-6.63h2v-.91h-2v-.63c0-.95.39-1.41,1.14-1.41a3.35,3.35,0,0,1,.86.14v-.92a3.24,3.24,0,0,0-1-.15,2,2,0,0,0-1.46.54,2.44,2.44,0,0,0-.58,1.74v.69h-.93v.91h.93Z"/><path class="cls-4" d="M122.82,275c.1-1.58.94-2.61,2.06-2.61s1.91,1.17,2,2.61Zm2.29,4.32a3.42,3.42,0,0,0,2.59-1.12l-.59-.67a2.68,2.68,0,0,1-2,.87,2.46,2.46,0,0,1-2.33-2.59h5.07c0-.13,0-.34,0-.44,0-2.27-1.13-3.89-3-3.89s-3.12,1.6-3.12,3.91v.07c0,2.39,1.51,3.86,3.35,3.86m-7.72-.15h1v-3.6c0-1.94,1.13-2.92,2.53-2.92H121v-1.13a2.66,2.66,0,0,0-2.59,1.77v-1.67h-1Zm-5.42-.8c-1.17,0-2.15-1.09-2.15-2.92v-.12c0-1.85,1-2.91,2.15-2.91s2.28,1.13,2.28,2.91v.13c0,1.78-1.09,2.91-2.28,2.91m-.21.94a2.81,2.81,0,0,0,2.44-1.59v1.45h1v-7.55h-1V273a2.78,2.78,0,0,0-2.44-1.55c-1.54,0-3,1.34-3,3.85v.14c0,2.52,1.47,3.84,3,3.84m-6.51,0a3.13,3.13,0,0,0,2.44-1.12l-.61-.7a2.44,2.44,0,0,1-1.77.87c-1.27,0-2.31-1.14-2.31-2.92v-.08c0-1.75,1-2.94,2.27-2.94a2.45,2.45,0,0,1,1.77.86l.62-.78a3.21,3.21,0,0,0-2.38-1c-1.88,0-3.35,1.6-3.35,3.89v.1c0,2.29,1.43,3.85,3.32,3.85m-12.08-.95c-1.18,0-2.16-1.09-2.16-2.92v-.12c0-1.85.95-2.91,2.16-2.91s2.27,1.13,2.27,2.91v.13c0,1.78-1.09,2.91-2.27,2.91m-.22.94a2.83,2.83,0,0,0,2.45-1.59v1.45h1V268.67h-1V273A2.8,2.8,0,0,0,93,271.44c-1.54,0-3,1.34-3,3.85v.14c0,2.52,1.47,3.84,3,3.84m-10.41-.14h1v-4.59a2,2,0,0,1,1.91-2.16c1.1,0,1.74.75,1.74,2.1v4.65h1v-4.94c0-1.7-.92-2.75-2.46-2.75a2.44,2.44,0,0,0-2.23,1.37v-1.23h-1Zm-5.42-.8c-1.17,0-2.16-1.09-2.16-2.92v-.12c0-1.85,1-2.91,2.16-2.91s2.28,1.13,2.28,2.91v.13c0,1.78-1.09,2.91-2.28,2.91m-.22.94a2.81,2.81,0,0,0,2.45-1.59v1.45h1v-7.55h-1V273a2.78,2.78,0,0,0-2.45-1.55c-1.53,0-3,1.34-3,3.85v.14c0,2.52,1.48,3.84,3,3.84M63.76,275c.1-1.58.94-2.61,2.05-2.61s1.92,1.17,2,2.61Zm2.29,4.32a3.42,3.42,0,0,0,2.59-1.12l-.6-.67a2.66,2.66,0,0,1-2,.87,2.46,2.46,0,0,1-2.33-2.59h5.06a3.47,3.47,0,0,0,0-.44c0-2.27-1.13-3.89-3-3.89s-3.11,1.6-3.11,3.91v.07c0,2.39,1.51,3.86,3.35,3.86m-7.1,0a2.23,2.23,0,0,0,2.45-2.17v0c0-1.15-.87-1.67-2.12-2.22-1-.43-1.68-.75-1.68-1.39v0c0-.59.51-1.06,1.31-1.06a3.28,3.28,0,0,1,1.89.71l.51-.79a4.1,4.1,0,0,0-2.37-.81,2.12,2.12,0,0,0-2.35,2v0c0,1.17,1,1.65,2.16,2.17,1,.42,1.63.77,1.63,1.44h0c0,.71-.57,1.18-1.4,1.18a3.43,3.43,0,0,1-2.2-.92l-.55.77A4.22,4.22,0,0,0,59,279.26m-7.46,0a2.44,2.44,0,0,0,2.23-1.37v1.23h1.05v-7.55H53.72v4.61a1.94,1.94,0,0,1-1.91,2.14c-1.1,0-1.74-.75-1.74-2.1v-4.65H49v5c0,1.68.93,2.73,2.46,2.73"/><path class="cls-4" d="M126.31,261.43h1V251h-1Zm-5.5.14A2.44,2.44,0,0,0,123,260.2v1.23h1v-7.54h-1v4.6a2,2,0,0,1-1.92,2.14c-1.1,0-1.73-.75-1.73-2.1v-4.64h-1v4.95c0,1.68.92,2.73,2.46,2.73m-6.62-.14h1.06V254.8h2v-.91h-2v-.64c0-.95.39-1.41,1.14-1.41a2.94,2.94,0,0,1,.86.15v-.93a3.54,3.54,0,0,0-1-.14,2,2,0,0,0-1.46.53,2.48,2.48,0,0,0-.58,1.75v.69h-.93v.91h.93Zm-3.17.11a2.58,2.58,0,0,0,1.13-.26v-.89a2.28,2.28,0,0,1-.89.2,1,1,0,0,1-1.08-1.09v-4.69h2v-.92h-2v-2.2h-1v2.2h-.92v.92h.92v4.87a1.68,1.68,0,0,0,1.88,1.86m-6.17,0a3.09,3.09,0,0,0,2.43-1.13l-.61-.7a2.37,2.37,0,0,1-1.76.87c-1.28,0-2.32-1.14-2.32-2.92v-.07c0-1.76,1-2.94,2.27-2.94a2.42,2.42,0,0,1,1.77.85l.62-.78a3.19,3.19,0,0,0-2.37-1c-1.88,0-3.36,1.61-3.36,3.9v.1c0,2.29,1.43,3.85,3.33,3.85m-9.69-4.33c.1-1.58.94-2.61,2.06-2.61s1.91,1.18,2,2.61Zm2.29,4.33a3.42,3.42,0,0,0,2.59-1.13l-.59-.67a2.63,2.63,0,0,1-2,.87,2.46,2.46,0,0,1-2.33-2.59h5.07a3.32,3.32,0,0,0,0-.43c0-2.28-1.13-3.9-3-3.9s-3.11,1.61-3.11,3.91v.07c0,2.39,1.5,3.87,3.34,3.87m-7.92-1c-1.19,0-2.29-1.13-2.29-2.89v-.15c0-1.76,1.1-2.91,2.29-2.91s2.14,1.09,2.14,2.93v.11c0,1.86-1,2.91-2.14,2.91m-3.28,3h1V260a2.78,2.78,0,0,0,2.44,1.54c1.54,0,3-1.34,3-3.85v-.14c0-2.51-1.47-3.84-3-3.84a2.81,2.81,0,0,0-2.44,1.59v-1.44h-1Zm-4.16-2a2.22,2.22,0,0,0,2.44-2.17v0c0-1.14-.86-1.67-2.11-2.22-1-.43-1.68-.75-1.68-1.39v0c0-.59.51-1.05,1.31-1.05a3.3,3.3,0,0,1,1.89.71l.51-.8a4.11,4.11,0,0,0-2.38-.81,2.12,2.12,0,0,0-2.34,2.06v0c0,1.18,1,1.66,2.16,2.18,1,.42,1.63.76,1.63,1.43v0a1.24,1.24,0,0,1-1.4,1.17,3.44,3.44,0,0,1-2.2-.91l-.55.76a4.17,4.17,0,0,0,2.72,1.06m-8.81-4.3c.11-1.58,1-2.61,2.06-2.61s1.91,1.18,2,2.61Zm2.29,4.33a3.42,3.42,0,0,0,2.59-1.13l-.59-.67a2.62,2.62,0,0,1-1.95.87,2.46,2.46,0,0,1-2.34-2.59h5.07a3.32,3.32,0,0,0,0-.43c0-2.28-1.13-3.9-3-3.9s-3.11,1.61-3.11,3.91v.07c0,2.39,1.5,3.87,3.34,3.87M65,256.51v-4.22h2.3c1.52,0,2.45.74,2.45,2.07v0c0,1.29-.91,2.12-2.57,2.12Zm-1.09,4.92H65v-3.94h2.3l2.55,3.94h1.3l-2.72-4.16a2.88,2.88,0,0,0,2.4-2.92v0a2.93,2.93,0,0,0-.79-2.09,3.68,3.68,0,0,0-2.67-.94H63.93Z"/><path class="cls-2" d="M85.29,137.78l4.37,4.11L91,140.5l-2.78-2.62,4.08-4.35L90.68,132Zm-2.93-6.23,2-1.24-.64,2.31Zm-4.67.4,1.83,1.37,1.3-.79,2.44,1.83-.4,1.47,1.87,1.41,2.09-8.36-1.68-1.26Zm-3.08-1.6c1.66,1,3.24.77,4-.63v0c.74-1.28.06-2.35-1.3-3.59-.84-.76-1-1-.81-1.35v0c.14-.25.48-.31.94,0A3.9,3.9,0,0,1,79,126.47l1.72-.79a5,5,0,0,0-2.29-2.52c-1.64-1-3.17-.61-3.9.65v0c-.81,1.4.07,2.46,1.34,3.63.8.76.94,1,.77,1.33v0c-.17.29-.54.31-1.06,0a4.05,4.05,0,0,1-1.74-2.1l-1.78.65a5.57,5.57,0,0,0,2.55,3M68,124.71A2,2,0,0,1,67,122v0a2,2,0,0,1,2.68-1.13,2,2,0,0,1,1,2.76v0A2,2,0,0,1,68,124.71m-.81,1.8a4.13,4.13,0,0,0,5.54-2.05v0a4.25,4.25,0,0,0-7.78-3.39v0a4.09,4.09,0,0,0,2.24,5.44m-7.47-7.23.65-2,1,.32c.74.24,1.09.72.88,1.36v0a1.08,1.08,0,0,1-1.51.59Zm-3.3,3.08,2.07.68.7-2.14,1,.34c1.85.61,3.52.12,4.1-1.66v0c.54-1.64-.36-3-2.24-3.63l-3.22-1.06Zm-4.17-.84c1.87.42,3.32-.24,3.67-1.82v0c.32-1.44-.65-2.25-2.33-3-1-.48-1.25-.69-1.17-1v0c.06-.29.36-.44.88-.33a3.83,3.83,0,0,1,2,1.24l1.4-1.27a5,5,0,0,0-2.94-1.73c-1.85-.4-3.21.38-3.53,1.81v0c-.35,1.57.81,2.31,2.37,3,1,.49,1.21.71,1.14,1v0c-.08.33-.43.46-1,.33a4.06,4.06,0,0,1-2.29-1.48l-1.5,1.16a5.51,5.51,0,0,0,3.32,2.07m-6.58-1.32,2.16.31,1.13-7.8-2.16-.31Zm-5.22-6.49a2,2,0,0,1,2.06,2.14v0a1.94,1.94,0,0,1-2.31,1.86l-.88-.06.24-4ZM37,119.47l3,.19c2.82.17,4.57-1.41,4.71-3.68v0c.14-2.27-1.39-4-4.19-4.16l-3-.19Z"/><path class="cls-4" d="M405.74,62.82a2.23,2.23,0,0,0,2.45-2.17v0c0-1.15-.87-1.67-2.11-2.22-1-.43-1.68-.75-1.68-1.39v0c0-.59.5-1,1.3-1a3.31,3.31,0,0,1,1.9.71l.5-.8a4.08,4.08,0,0,0-2.37-.81,2.12,2.12,0,0,0-2.35,2v0c0,1.18,1,1.66,2.16,2.18,1,.42,1.64.76,1.64,1.43h0c0,.71-.58,1.18-1.41,1.18a3.46,3.46,0,0,1-2.2-.91l-.55.76a4.21,4.21,0,0,0,2.72,1.06m-8.8-4.3c.1-1.58.94-2.61,2.06-2.61s1.91,1.18,2,2.61Zm2.29,4.33a3.42,3.42,0,0,0,2.59-1.13l-.59-.67a2.66,2.66,0,0,1-2,.87c-1.19,0-2.21-.92-2.33-2.59H402c0-.13,0-.33,0-.43,0-2.28-1.13-3.9-3-3.9s-3.12,1.61-3.12,3.91V59c0,2.39,1.51,3.87,3.35,3.87m-6.74,0a3.11,3.11,0,0,0,2.44-1.13l-.61-.7a2.41,2.41,0,0,1-1.77.87c-1.27,0-2.31-1.14-2.31-2.92V58.9c0-1.76,1-2.94,2.27-2.94a2.44,2.44,0,0,1,1.77.85l.62-.78a3.21,3.21,0,0,0-2.38-1c-1.88,0-3.35,1.61-3.35,3.9V59c0,2.29,1.43,3.85,3.32,3.85m-7.7-.16h1V59.1c0-1.94,1.13-2.93,2.54-2.93h.06V55a2.68,2.68,0,0,0-2.6,1.77V55.15h-1Zm-5.41.14a2.44,2.44,0,0,0,2.23-1.37v1.23h1V55.15h-1v4.6a1.94,1.94,0,0,1-1.91,2.14c-1.11,0-1.74-.75-1.74-2.1V55.15h-1v5c0,1.68.92,2.73,2.46,2.73m-7.45-.92c-1.28,0-2.28-1.26-2.28-3v-.07c0-1.68.94-2.94,2.27-2.94s2.3,1.26,2.3,3V59c0,1.66-1,2.94-2.29,2.94m0,.94c1.94,0,3.36-1.7,3.36-3.9v-.08c0-2.21-1.4-3.87-3.35-3.87s-3.35,1.68-3.35,3.88V59c0,2.2,1.4,3.87,3.34,3.87m-7.09,0a2.22,2.22,0,0,0,2.44-2.17v0c0-1.15-.87-1.67-2.11-2.22-1-.43-1.68-.75-1.68-1.39v0c0-.59.5-1,1.3-1a3.31,3.31,0,0,1,1.9.71l.5-.8a4.05,4.05,0,0,0-2.37-.81,2.11,2.11,0,0,0-2.34,2v0c0,1.18.95,1.66,2.15,2.18,1,.42,1.64.76,1.64,1.43h0c0,.71-.58,1.18-1.41,1.18a3.46,3.46,0,0,1-2.2-.91l-.55.76a4.21,4.21,0,0,0,2.73,1.06M356,58.52c.1-1.58.94-2.61,2.06-2.61s1.91,1.18,2,2.61Zm2.29,4.33a3.42,3.42,0,0,0,2.59-1.13l-.59-.67a2.66,2.66,0,0,1-2,.87A2.46,2.46,0,0,1,356,59.33h5.07c0-.13,0-.33,0-.43,0-2.28-1.12-3.9-3-3.9S355,56.61,355,58.91V59c0,2.39,1.5,3.87,3.34,3.87m-7.72-.16h1V59.1c0-1.94,1.13-2.93,2.54-2.93h.06V55a2.68,2.68,0,0,0-2.6,1.77V55.15h-1Zm-8,0h1.05V56.06h2v-.91h-2v-.64c0-.95.39-1.41,1.14-1.41a2.87,2.87,0,0,1,.85.15v-.93a3.47,3.47,0,0,0-1-.14,2,2,0,0,0-1.47.53,2.48,2.48,0,0,0-.57,1.75v.69h-.93v.91h.93Zm-5.45-.78c-1.29,0-2.29-1.26-2.29-3v-.07c0-1.68.94-2.94,2.28-2.94s2.3,1.26,2.3,3V59c0,1.66-1,2.94-2.29,2.94m0,.94c1.94,0,3.35-1.7,3.35-3.9v-.08c0-2.21-1.4-3.87-3.34-3.87s-3.36,1.68-3.36,3.88V59c0,2.2,1.41,3.87,3.35,3.87"/><path class="cls-4" d="M393.81,43.53c-1.17,0-2.14-1-2.14-2.64v0c0-1.66,1-2.63,2.14-2.63a2.43,2.43,0,0,1,2.28,2.63v0a2.43,2.43,0,0,1-2.28,2.62m0,3.66a3.47,3.47,0,0,0,2.51-.86A3.2,3.2,0,0,0,397.1,44V37.45h-1V38.8a2.88,2.88,0,0,0-2.48-1.5c-1.53,0-3,1.29-3,3.57v.05c0,2.28,1.43,3.55,3,3.55a2.87,2.87,0,0,0,2.49-1.55V44a2.06,2.06,0,0,1-2.3,2.26,4.46,4.46,0,0,1-2.44-.74l-.42.84a5.38,5.38,0,0,0,2.87.81M383.2,45h1V40.4a2,2,0,0,1,1.91-2.16c1.1,0,1.74.76,1.74,2.1V45h1V40.05c0-1.69-.92-2.75-2.46-2.75a2.45,2.45,0,0,0-2.23,1.38V37.45h-1Zm-3.27,0h1V37.45h-1Zm-.06-9.09H381V34.67h-1.16ZM377,45.11a2.51,2.51,0,0,0,1.13-.26V44a2.2,2.2,0,0,1-.88.2,1,1,0,0,1-1.09-1.08v-4.7h2v-.92h-2v-2.2h-1v2.2h-.91v.92h.91v4.87A1.69,1.69,0,0,0,377,45.11m-6.25,0A2.22,2.22,0,0,0,373.22,43v0c0-1.14-.86-1.66-2.11-2.21-1-.44-1.68-.76-1.68-1.39v0c0-.6.51-1.06,1.3-1.06a3.31,3.31,0,0,1,1.9.71l.51-.8a4.18,4.18,0,0,0-2.38-.81,2.13,2.13,0,0,0-2.34,2.06v0c0,1.17.95,1.65,2.15,2.17,1,.42,1.64.77,1.64,1.43v0c0,.71-.58,1.17-1.4,1.17a3.42,3.42,0,0,1-2.2-.91l-.55.77a4.21,4.21,0,0,0,2.72,1M362,40.82c.1-1.58.94-2.6,2.06-2.6s1.91,1.17,2,2.6Zm2.29,4.33A3.39,3.39,0,0,0,366.85,44l-.59-.66a2.66,2.66,0,0,1-2,.87c-1.18,0-2.21-.93-2.33-2.6H367c0-.13,0-.33,0-.43,0-2.27-1.12-3.9-3-3.9s-3.11,1.61-3.11,3.91v.08c0,2.39,1.5,3.86,3.34,3.86m-7.77-.1h.94l2.76-7.6h-1.1L357,43.65l-2.11-6.2h-1.13ZM349.25,45h1V41.4c0-1.94,1.13-2.92,2.53-2.92h.06V37.35a2.66,2.66,0,0,0-2.59,1.76V37.45h-1Zm-5.13-.71a1.51,1.51,0,0,1-1.61-1.53v0c0-1,.67-1.57,1.87-1.57a5.46,5.46,0,0,1,1.83.3v.94a2,2,0,0,1-2.09,1.91m-.23.87a2.61,2.61,0,0,0,2.3-1.26V45h1V40.14a2.81,2.81,0,0,0-.72-2,2.91,2.91,0,0,0-2.12-.75A5.14,5.14,0,0,0,342,38l.33.85a4,4,0,0,1,1.93-.51,1.72,1.72,0,0,1,1.92,1.87v.45a6.27,6.27,0,0,0-1.94-.3c-1.67,0-2.78.88-2.78,2.43v.06a2.3,2.3,0,0,0,2.42,2.34m-9.7-.16h1V40.4a2,2,0,0,1,1.91-2.16c1.1,0,1.74.76,1.74,2.1V45h1V40.05c0-1.69-.92-2.75-2.46-2.75a2.45,2.45,0,0,0-2.23,1.38V34.54h-1Z"/><path class="cls-4" d="M402.56,23.13c.1-1.58.94-2.61,2.06-2.61s1.91,1.17,2,2.61Zm2.29,4.32a3.42,3.42,0,0,0,2.59-1.12l-.59-.67a2.68,2.68,0,0,1-2,.87,2.46,2.46,0,0,1-2.33-2.59h5.07c0-.13,0-.34,0-.44,0-2.27-1.13-3.89-3-3.89s-3.12,1.6-3.12,3.91v.07c0,2.39,1.51,3.86,3.35,3.86m-6.21-.16h1V16.84h-1Zm-5.07-.79c-1.19,0-2.29-1.13-2.29-2.9v-.14c0-1.77,1.1-2.91,2.29-2.91s2.14,1.08,2.14,2.92v.12c0,1.85-.95,2.91-2.14,2.91m.2.94c1.54,0,3-1.35,3-3.85v-.15c0-2.5-1.47-3.83-3-3.83a2.81,2.81,0,0,0-2.45,1.59V16.84h-1V27.29h1v-1.4a2.79,2.79,0,0,0,2.45,1.55M387,27.29h1V19.75h-1ZM387,18.2h1.16V17H387Zm-4.18,9.22a2.22,2.22,0,0,0,2.44-2.17v0c0-1.15-.87-1.67-2.11-2.22-1-.44-1.68-.75-1.68-1.39v0c0-.59.51-1.06,1.3-1.06a3.31,3.31,0,0,1,1.9.71l.51-.79a4.11,4.11,0,0,0-2.38-.81,2.11,2.11,0,0,0-2.34,2.05v0c0,1.17.95,1.65,2.15,2.17,1,.42,1.64.77,1.64,1.44h0c0,.71-.58,1.17-1.4,1.17a3.42,3.42,0,0,1-2.21-.91l-.55.77a4.25,4.25,0,0,0,2.73,1.05M373,27.29h1V22.7a2,2,0,0,1,1.91-2.15c1.1,0,1.74.75,1.74,2.1v4.64h1V22.36c0-1.7-.92-2.75-2.46-2.75A2.44,2.44,0,0,0,374,21V19.75h-1Zm-5.08-.78c-1.29,0-2.29-1.26-2.29-3v-.07c0-1.68.94-2.94,2.27-2.94s2.31,1.26,2.31,2.95v.07c0,1.67-1,2.94-2.29,2.94m0,.94c1.94,0,3.36-1.69,3.36-3.89v-.09c0-2.2-1.4-3.86-3.34-3.86s-3.36,1.68-3.36,3.88v.1c0,2.2,1.4,3.86,3.34,3.86m-7.92-.95c-1.19,0-2.29-1.13-2.29-2.9v-.14c0-1.77,1.1-2.91,2.29-2.91s2.15,1.08,2.15,2.92v.12c0,1.85-1,2.91-2.15,2.91m-3.28,3h1V25.89a2.78,2.78,0,0,0,2.44,1.55c1.54,0,3-1.35,3-3.85v-.15c0-2.5-1.48-3.83-3-3.83a2.79,2.79,0,0,0-2.44,1.59V19.75h-1Zm-4.16-2a2.22,2.22,0,0,0,2.45-2.17v0c0-1.15-.87-1.67-2.12-2.22-1-.44-1.68-.75-1.68-1.39v0c0-.59.51-1.06,1.31-1.06a3.3,3.3,0,0,1,1.89.71l.51-.79a4.1,4.1,0,0,0-2.37-.81,2.12,2.12,0,0,0-2.35,2.05v0c0,1.17.95,1.65,2.16,2.17,1,.42,1.63.77,1.63,1.44h0c0,.71-.58,1.17-1.4,1.17a3.41,3.41,0,0,1-2.2-.91l-.55.77a4.21,4.21,0,0,0,2.72,1.05m-8.8-4.29c.1-1.58.94-2.61,2.05-2.61s1.91,1.17,2,2.61ZM346,27.45a3.44,3.44,0,0,0,2.6-1.12l-.6-.67a2.66,2.66,0,0,1-2,.87,2.46,2.46,0,0,1-2.33-2.59h5.06a3.47,3.47,0,0,0,0-.44c0-2.27-1.13-3.89-3-3.89s-3.11,1.6-3.11,3.91v.07c0,2.39,1.5,3.86,3.34,3.86m-10.55-5.08V18.16h2.3c1.52,0,2.45.74,2.45,2.07v0c0,1.29-.91,2.11-2.57,2.11Zm-1.09,4.92h1.09V23.36h2.3l2.55,3.93h1.3l-2.72-4.15a2.88,2.88,0,0,0,2.4-2.93v0a2.92,2.92,0,0,0-.79-2.09,3.68,3.68,0,0,0-2.67-.94h-3.46Z"/><path class="cls-4" d="M105.76,45.12A2.22,2.22,0,0,0,108.21,43v0c0-1.14-.87-1.66-2.11-2.21-1-.44-1.68-.76-1.68-1.39v0c0-.6.5-1.06,1.3-1.06a3.31,3.31,0,0,1,1.9.71l.5-.8a4.15,4.15,0,0,0-2.37-.81,2.13,2.13,0,0,0-2.35,2.06v0c0,1.17,1,1.65,2.16,2.17,1,.42,1.64.77,1.64,1.43v0c0,.71-.58,1.17-1.41,1.17a3.46,3.46,0,0,1-2.2-.91l-.55.77a4.25,4.25,0,0,0,2.72,1M96,45h1V40.4a2,2,0,0,1,1.91-2.16c1.1,0,1.74.76,1.74,2.1V45h1V40.05c0-1.69-.93-2.75-2.46-2.75A2.45,2.45,0,0,0,97,38.68V37.45H96Zm-5.09-.78c-1.29,0-2.28-1.26-2.28-3v-.08c0-1.68.94-2.94,2.27-2.94s2.3,1.26,2.3,3v.07c0,1.67-1,2.94-2.29,2.94m0,.94c1.94,0,3.36-1.69,3.36-3.89v-.09c0-2.2-1.41-3.87-3.35-3.87S87.51,39,87.51,41.18v.11c0,2.2,1.4,3.86,3.34,3.86M84.64,45h1V37.45h-1Zm-.06-9.09h1.16V34.67H84.58Zm-2.84,9.21a2.51,2.51,0,0,0,1.13-.26V44a2.2,2.2,0,0,1-.88.2,1,1,0,0,1-1.09-1.08v-4.7h2v-.92h-2v-2.2h-1v2.2H79v.92h.91v4.87a1.69,1.69,0,0,0,1.88,1.87m-7.63,0a2.43,2.43,0,0,0,2.23-1.38V45h1V37.45h-1v4.6a2,2,0,0,1-1.91,2.15c-1.1,0-1.74-.76-1.74-2.1V37.45h-1V42.4c0,1.68.93,2.74,2.46,2.74M68.48,45h1V34.54h-1Zm-5.17-.78C62,44.21,61,43,61,41.26v-.08c0-1.68.94-2.94,2.28-2.94s2.3,1.26,2.3,3v.07c0,1.67-1,2.94-2.29,2.94m0,.94c1.94,0,3.35-1.69,3.35-3.89v-.09c0-2.2-1.4-3.87-3.34-3.87S60,39,60,41.18v.11c0,2.2,1.4,3.86,3.35,3.86m-7.88,0a2.87,2.87,0,0,0,3.14-2.77v0c0-1.34-.75-2.17-2.81-2.94-1.91-.69-2.36-1.2-2.36-2.08v0a1.71,1.71,0,0,1,1.91-1.58,3.62,3.62,0,0,1,2.44,1l.65-.84a4.38,4.38,0,0,0-3-1.15,2.8,2.8,0,0,0-3.06,2.68v0c0,1.43.83,2.19,2.93,3,1.84.65,2.24,1.19,2.24,2h0a1.82,1.82,0,0,1-2,1.71,4,4,0,0,1-2.85-1.26l-.68.82a5,5,0,0,0,3.52,1.44"/><path class="cls-4" d="M103.16,23.13c.1-1.58.94-2.61,2-2.61s1.92,1.17,2,2.61Zm2.28,4.32a3.44,3.44,0,0,0,2.6-1.12l-.6-.67a2.66,2.66,0,0,1-2,.87,2.46,2.46,0,0,1-2.33-2.59h5.06a3.47,3.47,0,0,0,0-.44c0-2.27-1.13-3.89-3-3.89s-3.11,1.6-3.11,3.91v.07c0,2.39,1.51,3.86,3.34,3.86m-6.73,0a3.1,3.1,0,0,0,2.43-1.12l-.6-.7a2.44,2.44,0,0,1-1.77.87c-1.28,0-2.32-1.14-2.32-2.93V23.5c0-1.75,1-2.94,2.28-2.94a2.43,2.43,0,0,1,1.76.86l.62-.79a3.2,3.2,0,0,0-2.37-1c-1.88,0-3.36,1.6-3.36,3.89v.1c0,2.29,1.43,3.85,3.33,3.85M91,27.29h1V23.7c0-1.94,1.13-2.92,2.53-2.92h.06V19.65a2.66,2.66,0,0,0-2.59,1.77V19.75H91Zm-5.42.15a2.44,2.44,0,0,0,2.23-1.37v1.22h1V19.75h-1v4.61a1.94,1.94,0,0,1-1.91,2.14c-1.1,0-1.74-.75-1.74-2.1V19.75h-1V24.7c0,1.68.93,2.74,2.46,2.74m-7.44-.93c-1.29,0-2.29-1.26-2.29-3v-.07c0-1.68.94-2.94,2.28-2.94s2.3,1.26,2.3,2.95v.07c0,1.67-1,2.94-2.29,2.94m0,.94c1.94,0,3.35-1.69,3.35-3.89v-.09c0-2.2-1.4-3.86-3.34-3.86s-3.36,1.68-3.36,3.88v.1c0,2.2,1.41,3.86,3.35,3.86m-7.1,0a2.22,2.22,0,0,0,2.45-2.17v0c0-1.15-.87-1.67-2.12-2.22-1-.44-1.68-.75-1.68-1.39v0c0-.59.51-1.06,1.31-1.06a3.33,3.33,0,0,1,1.9.71l.5-.79A4.08,4.08,0,0,0,71,19.64a2.12,2.12,0,0,0-2.35,2.05v0c0,1.17,1,1.65,2.16,2.17,1,.42,1.64.77,1.64,1.44h0c0,.71-.58,1.17-1.41,1.17a3.41,3.41,0,0,1-2.2-.91l-.55.77A4.23,4.23,0,0,0,71,27.42m-8.8-4.29c.1-1.58.94-2.61,2.05-2.61s1.92,1.17,2,2.61Zm2.29,4.32a3.42,3.42,0,0,0,2.59-1.12l-.6-.67a2.64,2.64,0,0,1-2,.87,2.46,2.46,0,0,1-2.33-2.59h5.07c0-.13,0-.34,0-.44,0-2.27-1.13-3.89-3-3.89s-3.11,1.6-3.11,3.91v.07c0,2.39,1.51,3.86,3.35,3.86M54,22.37V18.16h2.3c1.52,0,2.45.74,2.45,2.07v0c0,1.29-.91,2.11-2.56,2.11Zm-1.08,4.92H54V23.36h2.3l2.55,3.93h1.3L57.4,23.14a2.88,2.88,0,0,0,2.4-2.93v0A2.88,2.88,0,0,0,59,18.1a3.67,3.67,0,0,0-2.66-.94H52.89Z"/><path class="cls-2" d="M183.49,16.83c1.84-.53,2.79-1.81,2.34-3.35v0c-.42-1.41-1.66-1.66-3.5-1.54-1.13.08-1.43,0-1.53-.35v0c-.08-.28.11-.56.61-.71a4,4,0,0,1,2.34.13l.62-1.78a4.94,4.94,0,0,0-3.41-.1c-1.81.53-2.63,1.87-2.22,3.27v0c.45,1.55,1.83,1.64,3.55,1.54,1.11-.05,1.41,0,1.5.36v0c.09.33-.16.61-.73.78a4.14,4.14,0,0,1-2.72-.19l-.76,1.73a5.52,5.52,0,0,0,3.91.22m-7.11,2.41a4,4,0,0,0,2.62-2.9l-2-.51a2.12,2.12,0,0,1-1.32,1.52,1.94,1.94,0,0,1-2.51-1.3v0a2,2,0,0,1,1-2.62,2.13,2.13,0,0,1,1.94.25l1.08-1.78a3.88,3.88,0,0,0-3.71-.33,4,4,0,0,0-2.41,5.3v0a4,4,0,0,0,5.25,2.37m-6.93,2.68,2-.88-3.19-7.21-2,.89Zm-8,3.88,1.93-1L161.45,21l5,2.35,1.7-.85-3.52-7-1.93,1,1.86,3.73-4.76-2.28-1.83.91Zm-6.86.27-.33-2.37,1.87,1.5Zm-1.48,4.44,2-1.13-.22-1.51,2.65-1.52,1.19.95,2-1.16-6.86-5.22-1.83,1Zm-3.29,2.31A5.19,5.19,0,0,0,152,29.94l-1.91-3-3,2,.86,1.35,1.3-.84.52.81a2.17,2.17,0,0,1-.88,1,2.08,2.08,0,0,1-3-.69l0,0a2.06,2.06,0,0,1,.54-2.9,2.79,2.79,0,0,1,2-.4l.24-2a4.55,4.55,0,0,0-3.3.77A4.09,4.09,0,0,0,144,31.69v0a4,4,0,0,0,5.81,1.11m-10.68,2.11L138,33.37l1.17-.83c.59-.42,1.15-.43,1.51.09h0c.33.47.18,1-.42,1.44Zm.59,4.6,1.78-1.26-1.38-2,.79-.56,2.68,1,2-1.46-3.12-1.15a2.48,2.48,0,0,0-.09-2.92v0a2.48,2.48,0,0,0-1.63-1.09,3.45,3.45,0,0,0-2.58.8l-3,2.15Zm-5.37,1.84a2.06,2.06,0,0,1-2.91-.42v0a2,2,0,1,1,3.18-2.46h0a2,2,0,0,1-.27,2.89m1.2,1.57a4.14,4.14,0,0,0,.82-5.86h0a4.25,4.25,0,0,0-6.67,5.25v0a4.1,4.1,0,0,0,5.85.6"/><path class="cls-2" d="M220.56,149.78a5.28,5.28,0,0,0,3.24,1.66l2.58-2.41-2.47-2.64-1.17,1.09,1.06,1.12-.7.66a2.13,2.13,0,0,1-1.1-.7,2.08,2.08,0,0,1,.14-3.06l0,0a2.06,2.06,0,0,1,3,0,2.78,2.78,0,0,1,.75,1.89l2-.12a4.55,4.55,0,0,0-1.35-3.11,4.08,4.08,0,0,0-5.88-.3l0,0a4,4,0,0,0-.06,5.91m-9.07-9.1,1.58,1.47L216,139l-.46,5.47,1.4,1.29L222.3,140l-1.59-1.47-2.82,3.06.44-5.26-1.49-1.38Zm-2.8-2.31,1.67,1.41,5.08-6-1.67-1.4Zm-5.52-4.31,4.77,3.65,1.16-1.52-3-2.32,3.63-4.74L208,127.8Zm-3.72-2.4a4,4,0,0,0,3.88.45l-.72-1.89a2.13,2.13,0,0,1-2-.19,1.94,1.94,0,0,1-.39-2.79v0a2,2,0,0,1,2.73-.7,2.13,2.13,0,0,1,.92,1.72l2.07-.14a3.88,3.88,0,0,0-1.87-3.22,4.05,4.05,0,0,0-5.73,1.11v0a4,4,0,0,0,1.12,5.65M192,126.78l1.88,1.1,1.5-2.58,5-2.73-2.11-1.23L195.45,123l0-3.29-2.15-1.25.12,5.77Zm-5.77-3a4,4,0,0,0,3.91,0l-.94-1.78a2.18,2.18,0,0,1-2,0,2,2,0,0,1-.72-2.73v0a2,2,0,0,1,2.62-1,2.13,2.13,0,0,1,1.12,1.6l2-.39a3.88,3.88,0,0,0-2.25-3,4,4,0,0,0-5.54,1.79v0a4,4,0,0,0,1.78,5.47m-10.14-4.9,5.85,2.58.75-1.7-3.88-1.71.51-1.14,3.46,1.52.69-1.57L180,115.36l.48-1.1,3.83,1.68.74-1.69-5.8-2.55ZM172,113l.66-1.79,1.36.51c.67.25,1,.7.77,1.3v0c-.2.54-.74.72-1.43.47Zm-3.47,3.08,2,.76.83-2.24.91.34.66,2.79,2.35.88-.8-3.24a2.47,2.47,0,0,0,2.36-1.71v0a2.49,2.49,0,0,0,0-2,3.5,3.5,0,0,0-2.12-1.68l-3.49-1.3Z"/></g></g></svg>