<?xml version="1.0" standalone="no"?>
<!DOCTYPE svg PUBLIC "-//W3C//DTD SVG 20010904//EN"
 "http://www.w3.org/TR/2001/REC-SVG-20010904/DTD/svg10.dtd">
<svg version="1.0" xmlns="http://www.w3.org/2000/svg"
 width="700.000000pt" height="700.000000pt" viewBox="0 0 700.000000 700.000000"
 preserveAspectRatio="xMidYMid meet">
<metadata>
Created by potrace 1.11, written by Peter Selinger 2001-2013
</metadata>
<g transform="translate(0.000000,700.000000) scale(0.100000,-0.100000)"
fill="#000000" stroke="none">
<path d="M0 3500 l0 -3500 3500 0 3500 0 0 3500 0 3500 -3500 0 -3500 0 0
-3500z m6024 2547 c246 -50 370 -128 485 -307 l41 -63 0 -909 0 -908 -1175 0
-1175 0 0 250 c0 282 -3 296 -78 407 -70 103 -173 179 -301 220 -72 23 -262
28 -351 9 -167 -35 -318 -146 -381 -280 l-29 -63 2 -959 3 -959 28 -57 c66
-132 191 -227 353 -268 94 -24 276 -27 376 -5 149 31 276 122 343 245 l30 55
3 443 3 442 822 0 c452 0 981 3 1175 7 l352 6 0 -899 0 -899 -34 -77 c-86
-196 -310 -421 -519 -519 l-64 -29 -2589 2 -2589 3 -52 21 c-111 46 -201 136
-247 247 l-21 52 -3 2210 c-1 1474 1 2228 8 2265 31 167 180 308 349 330 31 4
1201 7 2601 6 2409 -1 2550 -2 2634 -19z"/>
</g>
</svg>
