<svg xmlns="http://www.w3.org/2000/svg" viewBox="0 0 168.96 170.28"><defs><style>.cls-1{fill:#00263e;}.cls-2{fill:#4c9c2e;}.cls-3{fill:#76777a;}.cls-4{fill:#54565a;}.cls-5{fill:#ffe800;}.cls-6{fill:#fff;}.cls-7{fill:none;stroke:#4c9c2e;stroke-width:3px;}</style></defs><title>Asset 2</title><g id="Layer_2" data-name="Layer 2"><g id="Layer_1-2" data-name="Layer 1"><path class="cls-1" d="M39.88,144.94,42.21,143c.87-.72,1.21-1.1,1.21-1.68a.86.86,0,0,0-.94-.91c-.54,0-.91.3-1.43.94L40,140.51a2.92,2.92,0,0,1,2.61-1.45A2.16,2.16,0,0,1,45,141.22v0c0,1.17-.6,1.75-1.84,2.71l-1.14.88h3.05v1.33H39.88Z"/><path class="cls-1" d="M46.16,142.68v0c0-2,1.26-3.62,3.12-3.62s3.1,1.57,3.1,3.6v0c0,2-1.25,3.62-3.12,3.62S46.16,144.71,46.16,142.68Zm4.64,0v0c0-1.27-.62-2.23-1.54-2.23s-1.52.93-1.52,2.21v0c0,1.28.61,2.23,1.54,2.23S50.8,144,50.8,142.68Z"/><path class="cls-1" d="M54.65,140.67l-1.22.3-.32-1.26,2-.6h1.05v7H54.65Z"/><path class="cls-1" d="M61.06,140.49H57.77v-1.33h5v1.16l-3.14,5.84H57.93Z"/><path class="cls-1" d="M0,151.16H5.06v.72H.79v2.39H4.61V155H.79v2.45H5.11v.72H0Z"/><path class="cls-1" d="M6.57,153h.77v.9a2,2,0,0,1,1.77-1,1.89,1.89,0,0,1,2,2.07v3.21h-.77v-3a1.38,1.38,0,0,0-1.43-1.56,1.52,1.52,0,0,0-1.55,1.62v3H6.57Z"/><path class="cls-1" d="M12.41,155.59v0a2.55,2.55,0,0,1,2.48-2.69,2.46,2.46,0,0,1,2.41,2.73,2,2,0,0,1,0,.25h-4.1A1.81,1.81,0,0,0,15,157.61a2.14,2.14,0,0,0,1.63-.73l.48.43a2.67,2.67,0,0,1-2.13,1A2.57,2.57,0,0,1,12.41,155.59Zm4.11-.3a1.7,1.7,0,0,0-1.65-1.76,1.78,1.78,0,0,0-1.68,1.76Z"/><path class="cls-1" d="M18.65,153h.77v1.35a2.21,2.21,0,0,1,2.11-1.44v.83h-.06a2.08,2.08,0,0,0-2,2.37v2.06h-.77Z"/><path class="cls-1" d="M22.43,159.06l.35-.6a3.3,3.3,0,0,0,2,.66,1.7,1.7,0,0,0,1.88-1.84v-.61a2.45,2.45,0,0,1-2,1.09,2.39,2.39,0,0,1-2.43-2.42v0a2.45,2.45,0,0,1,4.45-1.4V153h.77v4.27a2.49,2.49,0,0,1-.66,1.83,2.72,2.72,0,0,1-2,.69A4.05,4.05,0,0,1,22.43,159.06Zm4.24-3.73v0a1.81,1.81,0,0,0-1.9-1.75A1.71,1.71,0,0,0,23,155.3v0a1.75,1.75,0,0,0,1.79,1.76A1.82,1.82,0,0,0,26.67,155.33Z"/><path class="cls-1" d="M33,153h.82l-2.17,5.34c-.44,1.07-.94,1.46-1.72,1.46a2.35,2.35,0,0,1-1.1-.26l.26-.61a1.62,1.62,0,0,0,.81.19c.46,0,.75-.24,1.06-1L28.61,153h.85l1.88,4.31Z"/><path class="cls-1" d="M37.86,154.68v0A3.53,3.53,0,0,1,41.4,151a3.64,3.64,0,0,1,2.73,1.11l-.54.58a3,3,0,0,0-2.2-1,2.74,2.74,0,0,0-2.71,2.87v0a2.76,2.76,0,0,0,2.71,2.89,3,3,0,0,0,2.26-1l.52.51a3.64,3.64,0,0,1-2.8,1.23A3.49,3.49,0,0,1,37.86,154.68Z"/><path class="cls-1" d="M45,155.6v0a2.7,2.7,0,0,1,5.39,0v0a2.68,2.68,0,0,1-2.71,2.7A2.65,2.65,0,0,1,45,155.6Zm4.6,0v0a2,2,0,0,0-1.92-2,1.91,1.91,0,0,0-1.89,2v0a1.94,1.94,0,0,0,1.91,2A1.91,1.91,0,0,0,49.61,155.6Z"/><path class="cls-1" d="M51.79,153h.77v.9a2,2,0,0,1,1.77-1,1.89,1.89,0,0,1,2,2.07v3.21h-.77v-3a1.38,1.38,0,0,0-1.43-1.56,1.52,1.52,0,0,0-1.55,1.62v3h-.77Z"/><path class="cls-1" d="M57.52,157.5l.39-.55a3,3,0,0,0,1.79.66c.62,0,1.07-.32,1.07-.82v0c0-.52-.61-.72-1.29-.91s-1.71-.51-1.71-1.46v0a1.56,1.56,0,0,1,1.76-1.48,3.53,3.53,0,0,1,1.86.57l-.35.58a2.92,2.92,0,0,0-1.53-.5c-.61,0-1,.32-1,.75v0c0,.49.64.68,1.33.89s1.66.55,1.66,1.48v0a1.63,1.63,0,0,1-1.84,1.55A3.56,3.56,0,0,1,57.52,157.5Z"/><path class="cls-1" d="M62.85,156.2V153h.77v3a1.38,1.38,0,0,0,1.43,1.56A1.53,1.53,0,0,0,66.6,156v-3h.76v5.17H66.6v-.9a2,2,0,0,1-1.77,1A1.89,1.89,0,0,1,62.85,156.2Z"/><path class="cls-1" d="M69.09,153h.77v.87a1.89,1.89,0,0,1,1.67-1,1.76,1.76,0,0,1,1.66,1,2.06,2.06,0,0,1,1.82-1A1.85,1.85,0,0,1,76.92,155v3.2h-.76v-3c0-1-.5-1.56-1.34-1.56a1.44,1.44,0,0,0-1.42,1.6v3h-.77v-3c0-1-.51-1.54-1.33-1.54a1.5,1.5,0,0,0-1.44,1.63v2.95h-.77Z"/><path class="cls-1" d="M78.6,153h.77v1a2.32,2.32,0,0,1,2-1.15,2.52,2.52,0,0,1,2.47,2.68v0a2.53,2.53,0,0,1-2.47,2.69,2.33,2.33,0,0,1-2-1.1v2.59H78.6Zm4.43,2.6v0a1.86,1.86,0,0,0-1.82-2,1.93,1.93,0,0,0-1.87,2v0a1.92,1.92,0,0,0,1.87,2A1.82,1.82,0,0,0,83,155.59Z"/><path class="cls-1" d="M85.51,156.79v-3.12h-.72V153h.72v-1.56h.77V153h1.64v.68H86.28v3a.76.76,0,0,0,.87.86,1.62,1.62,0,0,0,.75-.18V158a1.94,1.94,0,0,1-.93.22A1.32,1.32,0,0,1,85.51,156.79Z"/><path class="cls-1" d="M89.3,151h.88v.85H89.3Zm0,2h.77v5.17h-.77Z"/><path class="cls-1" d="M91.59,155.6v0a2.7,2.7,0,0,1,5.39,0v0a2.68,2.68,0,0,1-2.71,2.7A2.65,2.65,0,0,1,91.59,155.6Zm4.6,0v0a2,2,0,0,0-1.92-2,1.91,1.91,0,0,0-1.89,2v0a1.94,1.94,0,0,0,1.91,2A1.91,1.91,0,0,0,96.19,155.6Z"/><path class="cls-1" d="M98.37,153h.77v.9a2,2,0,0,1,1.77-1,1.89,1.89,0,0,1,2,2.07v3.21h-.77v-3a1.38,1.38,0,0,0-1.43-1.56,1.52,1.52,0,0,0-1.55,1.62v3h-.77Z"/><path class="cls-1" d="M3.25,165.67H2.54V165h.71v-.45a1.82,1.82,0,0,1,.45-1.33,1.52,1.52,0,0,1,1.11-.4,2.34,2.34,0,0,1,.85.13v.67a2.57,2.57,0,0,0-.75-.13c-.6,0-.9.36-.9,1.1V165H5.65v.66H4v4.49H3.25Z"/><path class="cls-1" d="M6.22,167.6v0a2.7,2.7,0,0,1,5.39,0v0a2.68,2.68,0,0,1-2.71,2.7A2.65,2.65,0,0,1,6.22,167.6Zm4.6,0v0a2,2,0,0,0-1.92-2,1.91,1.91,0,0,0-1.89,2v0a1.94,1.94,0,0,0,1.91,2A1.91,1.91,0,0,0,10.82,167.6Z"/><path class="cls-1" d="M13,165h.77v1.35a2.21,2.21,0,0,1,2.11-1.44v.83h-.06a2.08,2.08,0,0,0-2.05,2.37v2.06H13Z"/><path class="cls-1" d="M19.87,166.68v0A3.53,3.53,0,0,1,23.41,163a3.64,3.64,0,0,1,2.73,1.11l-.54.58a3,3,0,0,0-2.2-1,2.74,2.74,0,0,0-2.71,2.87v0a2.76,2.76,0,0,0,2.71,2.89,3,3,0,0,0,2.26-1l.52.51a3.64,3.64,0,0,1-2.8,1.23A3.49,3.49,0,0,1,19.87,166.68Z"/><path class="cls-1" d="M27,168.66v0c0-1.09.9-1.67,2.21-1.67a5.49,5.49,0,0,1,1.59.22V167c0-.93-.57-1.41-1.54-1.41a3.6,3.6,0,0,0-1.57.38l-.23-.63a4.27,4.27,0,0,1,1.88-.43,2.27,2.27,0,0,1,1.67.57,2,2,0,0,1,.53,1.51v3.16h-.74v-.78a2.27,2.27,0,0,1-1.87.89A1.74,1.74,0,0,1,27,168.66Zm3.81-.4v-.5a5.39,5.39,0,0,0-1.52-.22c-1,0-1.51.42-1.51,1.07v0c0,.65.6,1,1.3,1A1.56,1.56,0,0,0,30.85,168.26Z"/><path class="cls-1" d="M32.79,169.5l.39-.55a3,3,0,0,0,1.79.66c.62,0,1.07-.32,1.07-.82v0c0-.52-.61-.72-1.29-.91S33,167.35,33,166.4v0a1.56,1.56,0,0,1,1.76-1.48,3.53,3.53,0,0,1,1.86.57l-.35.58a2.92,2.92,0,0,0-1.53-.5c-.61,0-1,.32-1,.75v0c0,.49.64.68,1.33.89s1.66.55,1.66,1.48v0a1.63,1.63,0,0,1-1.84,1.55A3.56,3.56,0,0,1,32.79,169.5Z"/><path class="cls-1" d="M37.88,167.59v0a2.55,2.55,0,0,1,2.48-2.69,2.46,2.46,0,0,1,2.41,2.73,2,2,0,0,1,0,.25h-4.1a1.81,1.81,0,0,0,1.82,1.75,2.14,2.14,0,0,0,1.63-.73l.48.43a2.67,2.67,0,0,1-2.13,1A2.57,2.57,0,0,1,37.88,167.59Zm4.11-.3a1.7,1.7,0,0,0-1.65-1.76,1.78,1.78,0,0,0-1.68,1.76Z"/><path class="cls-1" d="M44.19,162.86H45v7.3h-.77Z"/><path class="cls-1" d="M46.82,162.86h.77v7.3h-.77Z"/><path class="cls-1" d="M49,168.66v0c0-1.09.9-1.67,2.21-1.67a5.49,5.49,0,0,1,1.59.22V167c0-.93-.57-1.41-1.54-1.41a3.6,3.6,0,0,0-1.57.38l-.23-.63a4.27,4.27,0,0,1,1.88-.43,2.27,2.27,0,0,1,1.67.57,2,2,0,0,1,.53,1.51v3.16h-.74v-.78a2.27,2.27,0,0,1-1.87.89A1.74,1.74,0,0,1,49,168.66Zm3.81-.4v-.5a5.39,5.39,0,0,0-1.52-.22c-1,0-1.51.42-1.51,1.07v0c0,.65.6,1,1.3,1A1.56,1.56,0,0,0,52.8,168.26Z"/><path class="cls-1" d="M58.3,163.16h5v.73H59.09v2.5h3.79v.72H59.09v3H58.3Z"/><path class="cls-1" d="M64.09,168.66v0c0-1.09.9-1.67,2.21-1.67a5.49,5.49,0,0,1,1.59.22V167c0-.93-.57-1.41-1.54-1.41a3.6,3.6,0,0,0-1.57.38l-.23-.63a4.27,4.27,0,0,1,1.88-.43,2.27,2.27,0,0,1,1.67.57,2,2,0,0,1,.53,1.51v3.16h-.74v-.78a2.27,2.27,0,0,1-1.87.89A1.74,1.74,0,0,1,64.09,168.66Zm3.81-.4v-.5a5.39,5.39,0,0,0-1.52-.22c-1,0-1.51.42-1.51,1.07v0c0,.65.6,1,1.3,1A1.56,1.56,0,0,0,67.9,168.26Z"/><path class="cls-1" d="M70,167.6v0a2.69,2.69,0,0,1,4.72-1.78l-.51.54a2.09,2.09,0,0,0-1.57-.78,1.91,1.91,0,0,0-1.85,2v0a1.93,1.93,0,0,0,1.9,2,2.13,2.13,0,0,0,1.58-.77l.49.46A2.67,2.67,0,0,1,70,167.6Z"/><path class="cls-1" d="M76,163h.88v.85H76Zm0,2h.77v5.17h-.77Z"/><path class="cls-1" d="M78.68,162.86h.77v7.3h-.77Z"/><path class="cls-1" d="M81.26,163h.88v.85h-.88Zm0,2h.77v5.17h-.77Z"/><path class="cls-1" d="M84.14,168.79v-3.12h-.72V165h.72v-1.56h.77V165h1.64v.68H84.91v3a.76.76,0,0,0,.87.86,1.62,1.62,0,0,0,.75-.18V170a1.94,1.94,0,0,1-.93.22A1.32,1.32,0,0,1,84.14,168.79Z"/><path class="cls-1" d="M87.93,163h.88v.85h-.88Zm0,2h.77v5.17H88Z"/><path class="cls-1" d="M90.22,167.59v0a2.55,2.55,0,0,1,2.48-2.69,2.46,2.46,0,0,1,2.41,2.73,2,2,0,0,1,0,.25H91a1.81,1.81,0,0,0,1.82,1.75,2.14,2.14,0,0,0,1.63-.73l.48.43a2.67,2.67,0,0,1-2.13,1A2.57,2.57,0,0,1,90.22,167.59Zm4.11-.3a1.7,1.7,0,0,0-1.65-1.76A1.78,1.78,0,0,0,91,167.29Z"/><path class="cls-1" d="M96,169.5l.39-.55a3,3,0,0,0,1.79.66c.62,0,1.07-.32,1.07-.82v0c0-.52-.61-.72-1.29-.91s-1.71-.51-1.71-1.46v0A1.56,1.56,0,0,1,98,164.9a3.53,3.53,0,0,1,1.86.57l-.35.58a2.92,2.92,0,0,0-1.53-.5c-.61,0-1,.32-1,.75v0c0,.49.64.68,1.33.89s1.66.55,1.66,1.48v0a1.63,1.63,0,0,1-1.84,1.55A3.56,3.56,0,0,1,96,169.5Z"/><path class="cls-2" d="M18,18.51l5.24-4c1.3-1,1.82-1.68,1.82-2.52a1.41,1.41,0,0,0-1.58-1.44c-.94,0-1.68.56-2.78,1.82L18.1,10.19a6.5,6.5,0,0,1,5.7-3C26.86,7.19,29,9,29,11.65v0c0,2.24-1.16,3.4-3.24,4.9l-2.4,1.68H29.1v3.16H18Z"/><path class="cls-2" d="M30.24,19.49l2.22-2.6a5.24,5.24,0,0,0,3.4,1.52c1.28,0,2-.64,2-1.64v0c0-1-.84-1.62-2.06-1.62a4.24,4.24,0,0,0-2.24.7l-2.31-1.3.41-7.08h9.36v3.2h-6.3l-.12,2.12a4.94,4.94,0,0,1,2.24-.5c2.52,0,4.8,1.4,4.8,4.44v0c0,3.1-2.38,5-5.78,5A7.81,7.81,0,0,1,30.24,19.49Z"/><path class="cls-2" d="M42.84,23.27c1.34-.14,2.06-.8,2-1.88H43.32v-3.9h3.94v3.18c0,3-1.62,4-4.1,4.06Z"/><path class="cls-2" d="M55.12,10.69H48.63V7.43H59.42v2.92L53.24,21.43H49Z"/><path class="cls-2" d="M62.16,20.11c-1-1-1.72-2.62-1.72-5.24v0c0-4.36,2.12-7.68,6.5-7.68A7.22,7.22,0,0,1,71.6,8.69l-1.82,2.72A4.4,4.4,0,0,0,67,10.35c-2,0-2.54,1.88-2.64,3a4.65,4.65,0,0,1,3-1.08A4.31,4.31,0,0,1,72,16.63v0c0,3.12-2.5,5-5.56,5A5.67,5.67,0,0,1,62.16,20.11Zm6.08-3.22v0a1.82,1.82,0,0,0-2-1.8,1.76,1.76,0,0,0-1.94,1.78v0a1.82,1.82,0,0,0,2,1.82A1.79,1.79,0,0,0,68.24,16.89Z"/><path class="cls-2" d="M73.51,18.51l5.25-4c1.3-1,1.82-1.68,1.82-2.52A1.41,1.41,0,0,0,79,10.55c-.94,0-1.68.56-2.79,1.82l-2.62-2.18a6.52,6.52,0,0,1,5.71-3c3.06,0,5.16,1.82,5.16,4.46v0c0,2.24-1.16,3.4-3.24,4.9l-2.4,1.68H84.6v3.16H73.51Z"/><path class="cls-2" d="M11.36,29.43h.8l2.55,3.82,2.55-3.82h.8v7h-.79V30.76l-2.55,3.75h0l-2.55-3.74v5.66h-.77Z"/><path class="cls-2" d="M19.5,29.43h.86l2,5.83,1.92-5.85h.65l1.92,5.85,2-5.83h.83l-2.5,7h-.67L24.59,30.8l-1.93,5.68H22Z"/><path class="cls-2" d="M30.88,29.13h.77v3a2,2,0,0,1,1.77-1,1.89,1.89,0,0,1,2,2.07v3.21h-.77v-3a1.38,1.38,0,0,0-1.43-1.56,1.52,1.52,0,0,0-1.55,1.62v3h-.77Z"/><path class="cls-2" d="M39.86,33v0a3.53,3.53,0,0,1,3.54-3.62,3.64,3.64,0,0,1,2.73,1.11l-.54.58a3,3,0,0,0-2.2-1,2.74,2.74,0,0,0-2.71,2.87v0a2.76,2.76,0,0,0,2.71,2.89,3,3,0,0,0,2.26-1l.52.51a3.64,3.64,0,0,1-2.8,1.23A3.49,3.49,0,0,1,39.86,33Z"/><path class="cls-2" d="M47,33.87v0a2.7,2.7,0,0,1,5.39,0v0a2.68,2.68,0,0,1-2.71,2.7A2.65,2.65,0,0,1,47,33.87Zm4.6,0v0a2,2,0,0,0-1.92-2,1.91,1.91,0,0,0-1.89,2v0a1.94,1.94,0,0,0,1.91,2A1.91,1.91,0,0,0,51.61,33.87Z"/><path class="cls-2" d="M53.79,31.26h.77v.9a2,2,0,0,1,1.77-1,1.89,1.89,0,0,1,2,2.07v3.21h-.77v-3a1.38,1.38,0,0,0-1.43-1.56,1.52,1.52,0,0,0-1.55,1.62v3h-.77Z"/><path class="cls-2" d="M59.52,35.77l.39-.55a3,3,0,0,0,1.79.66c.62,0,1.07-.32,1.07-.82v0c0-.52-.61-.72-1.29-.91s-1.71-.51-1.71-1.46v0a1.56,1.56,0,0,1,1.76-1.48,3.53,3.53,0,0,1,1.86.57l-.35.58a2.92,2.92,0,0,0-1.53-.5c-.61,0-1,.32-1,.75v0c0,.49.64.68,1.33.89S63.5,34,63.5,35v0a1.63,1.63,0,0,1-1.84,1.55A3.56,3.56,0,0,1,59.52,35.77Z"/><path class="cls-2" d="M64.85,34.47V31.26h.77v3a1.38,1.38,0,0,0,1.43,1.56,1.53,1.53,0,0,0,1.55-1.62v-3h.76v5.17H68.6v-.9a2,2,0,0,1-1.77,1A1.89,1.89,0,0,1,64.85,34.47Z"/><path class="cls-2" d="M71.09,31.26h.77v.87a1.89,1.89,0,0,1,1.67-1,1.76,1.76,0,0,1,1.66,1,2.06,2.06,0,0,1,1.82-1,1.86,1.86,0,0,1,1.92,2.08v3.2h-.77v-3c0-1-.5-1.56-1.34-1.56a1.44,1.44,0,0,0-1.42,1.6v3h-.77v-3c0-1-.51-1.54-1.33-1.54a1.5,1.5,0,0,0-1.44,1.63v3h-.77Z"/><path class="cls-2" d="M80.28,33.86v0a2.55,2.55,0,0,1,2.48-2.69,2.46,2.46,0,0,1,2.41,2.73,2,2,0,0,1,0,.25h-4.1a1.81,1.81,0,0,0,1.82,1.75,2.14,2.14,0,0,0,1.63-.73l.48.43a2.67,2.67,0,0,1-2.13,1A2.57,2.57,0,0,1,80.28,33.86Zm4.11-.3a1.7,1.7,0,0,0-1.65-1.76,1.78,1.78,0,0,0-1.68,1.76Z"/><path class="cls-2" d="M86.22,33.86v0a2.54,2.54,0,0,1,2.47-2.69,2.33,2.33,0,0,1,2,1.1V29.13h.77v7.3h-.77v-1a2.32,2.32,0,0,1-2,1.15A2.52,2.52,0,0,1,86.22,33.86Zm4.48,0v0a1.92,1.92,0,0,0-1.87-2,1.82,1.82,0,0,0-1.82,2v0a1.87,1.87,0,0,0,1.82,2A1.93,1.93,0,0,0,90.7,33.85Z"/><path class="cls-3" d="M87.54,105.09H15.3a3.1,3.1,0,0,0,0,.43v20.6a4.4,4.4,0,0,0,4.37,4.45H83.19a4.41,4.41,0,0,0,4.37-4.45v-20.6c0-.14,0-.29,0-.43h0"/><path class="cls-4" d="M154.74,62.27H136.47a3.06,3.06,0,0,0-3.07,3.07v8.87a3.06,3.06,0,0,0,3.07,3.07h1.93v1.39a1.64,1.64,0,0,0,1.81,1.38H151a1.64,1.64,0,0,0,1.82-1.38V77.28h1.92a3.07,3.07,0,0,0,3.08-3.07V65.34a3.07,3.07,0,0,0-3.08-3.07"/><path class="cls-5" d="M131.39,27.94a3.62,3.62,0,0,1-4.53-2.34l-.09-.21a3.62,3.62,0,0,1,1.64-4.83l20.33-8.2a3.63,3.63,0,0,1,4.54,2.34l.08.21a3.62,3.62,0,0,1-1.64,4.83Z"/><path class="cls-5" d="M132.17,38.48a4,4,0,0,1-5.31-2l-.09-.21a4,4,0,0,1,2.42-5.15l25.47-10.27a4,4,0,0,1,5.31,2l.09.21a4,4,0,0,1-2.42,5.15Z"/><path class="cls-5" d="M132.17,49.17a4,4,0,0,1-5.31-2l-.09-.21a4,4,0,0,1,2.42-5.15l25.47-10.27a4,4,0,0,1,5.31,2l.08.2a4,4,0,0,1-2.41,5.15Z"/><path class="cls-5" d="M133.62,50.6c1.83,1,4.21,3.39,4.31,8.48l7.68-.15a17.66,17.66,0,0,0-4.06-11.51l-7.63,3.07-.3.11"/><polygon class="cls-5" points="146.7 59.08 153.71 59.08 153.71 42.51 146.7 45.34 146.7 59.08"/><path class="cls-5" d="M142.82,6.1a24.25,24.25,0,0,1,22.34,33.63,26.14,26.14,0,1,0-44.68,0A24.25,24.25,0,0,1,142.82,6.1"/><rect class="cls-6" x="42.26" y="109.05" width="18.33" height="17.63" rx="4.45"/><rect class="cls-4" x="43.46" y="110.2" width="15.93" height="15.32" rx="3.87"/><path class="cls-2" d="M77.87,92.73A1.25,1.25,0,0,1,79,94v3.66l-2.26-.06V93.88a1.11,1.11,0,0,1,1.14-1.15"/><path class="cls-2" d="M77.87,86.27A1.31,1.31,0,0,1,79,87.58v3.65l-2.26-.15V87.37a1,1,0,0,1,1.14-1.1"/><path class="cls-2" d="M73.36,92.48a1.28,1.28,0,0,1,1.19,1.29v3.77l-2.4-.06V93.66a1.15,1.15,0,0,1,1.21-1.18"/><path class="cls-2" d="M73.36,85.82a1.37,1.37,0,0,1,1.19,1.35v3.76l-2.4-.16V87a1.1,1.1,0,0,1,1.21-1.13"/><path class="cls-2" d="M68.58,92.2a1.35,1.35,0,0,1,1.26,1.34v3.88l-2.54-.06V93.42a1.2,1.2,0,0,1,1.28-1.22"/><path class="cls-2" d="M68.58,85.34a1.42,1.42,0,0,1,1.26,1.4v3.87l-2.54-.17V86.5a1.14,1.14,0,0,1,1.28-1.16"/><path class="cls-2" d="M63.49,91.91a1.42,1.42,0,0,1,1.35,1.39v4l-2.71-.06V93.16a1.26,1.26,0,0,1,1.36-1.25"/><path class="cls-2" d="M63.49,84.83a1.5,1.5,0,0,1,1.35,1.44v4l-2.71-.18V86a1.19,1.19,0,0,1,1.36-1.19"/><path class="cls-2" d="M82.56,101.22,59.74,101V77.54l11.59,1.57v3.5L82.56,83.9Zm-39.3.15-1.67,0V92l-5.45-.49v4.74l1.08,0v.93l-1.08.07v4l-1.17,0v-4l-1.12-.16v-1l1.12,0V91.41l-6.12-.55v10.32l-1.83,0V88.07l3.16.28V86.29l10.65,1.2v1.9l2.43.23Zm44.3,1.57v-1.86l-3.84,0V82.68L72.63,81.31V77.83l-14.2-2L46.74,79.69v21.4l-2.53,0V88.81l-2.39-.26v-2L28.61,84.85l-7.37,2.08v2l-1.44.25V101l-4.53,0v1.93H87.56Z"/><path class="cls-6" d="M48.2,120.07H48a.55.55,0,0,1-.54-.55v-7.21a.54.54,0,0,1,.54-.54h.25a.54.54,0,0,1,.54.54v7.21a.55.55,0,0,1-.54.55"/><path class="cls-6" d="M54.89,120.07h-.25a.55.55,0,0,1-.54-.55v-7.21a.54.54,0,0,1,.54-.54h.25a.54.54,0,0,1,.54.54v7.21a.55.55,0,0,1-.54.55"/><path class="cls-6" d="M50.66,123.23c-.65,0-.9-.46-.57-1l.72-1.18A.66.66,0,0,1,52,121l.71,1.18c.34.55.08,1-.56,1Z"/><polyline class="cls-7" points="146.13 84.77 146.13 117.66 115.64 117.66"/><polygon class="cls-2" points="110.44 117.66 118.39 125.06 118.39 110.26 110.44 117.66"/><path class="cls-4" d="M104.24,111H97.7v13.84h6.54a4.45,4.45,0,0,0,4.45-4.45v-4.93a4.46,4.46,0,0,0-4.45-4.46"/><path class="cls-4" d="M90.89,113.06a1.14,1.14,0,1,0,0,2.27h5.93v-2.27Z"/><path class="cls-4" d="M90.89,120.48a1.13,1.13,0,1,0,0,2.26h5.93v-2.26Z"/></g></g></svg>