<svg xmlns="http://www.w3.org/2000/svg" viewBox="0 0 237.29 315.21"><defs><style>.cls-1{fill:#4c9c2e;}.cls-2{fill:#00263e;}.cls-3{fill:#4b3d2a;}.cls-4{fill:#76777a;}.cls-5{fill:#54565a;}.cls-6{fill:#fff;}.cls-7{fill:#ffe800;}.cls-8{fill:none;stroke:#4c9c2e;stroke-width:3px;}</style></defs><title>Asset 3</title><g id="Layer_2" data-name="Layer 2"><g id="Layer_1-2" data-name="Layer 1"><path class="cls-1" d="M29.52,162.49v0a3.42,3.42,0,0,1,2.38-3.36A3.37,3.37,0,0,1,30,156v0c0-2.22,2.12-3.88,5.26-3.88s5.28,1.66,5.28,3.88v0a3.36,3.36,0,0,1-1.92,3.06,3.49,3.49,0,0,1,2.4,3.32v0c0,2.53-2.4,4.15-5.76,4.15S29.52,164.94,29.52,162.49Zm7.76-.38v0c0-.92-.82-1.54-2-1.54s-2,.62-2,1.54v0c0,.84.72,1.58,2,1.58S37.28,163,37.28,162.11ZM37,156.49v0a1.75,1.75,0,0,0-3.46,0v0A1.57,1.57,0,0,0,35.26,158,1.58,1.58,0,0,0,37,156.49Z"/><path class="cls-1" d="M41.92,164.15l2.46-2.44a4.56,4.56,0,0,0,3.34,1.61c1.1,0,1.78-.57,1.78-1.43v0c0-.9-.8-1.44-2.28-1.44H45.58l-.54-2,3.2-2.9H42.9v-3.14H53v2.76L49.66,158c2,.44,3.62,1.54,3.62,3.94v0c0,2.85-2.28,4.67-5.4,4.67A7.63,7.63,0,0,1,41.92,164.15Z"/><path class="cls-1" d="M54.38,168.2c1.34-.14,2.06-.8,2-1.88H54.86v-3.91H58.8v3.19c0,3-1.62,4-4.1,4.06Z"/><path class="cls-1" d="M60,164.15l2.46-2.44a4.56,4.56,0,0,0,3.34,1.61c1.1,0,1.78-.57,1.78-1.43v0c0-.9-.8-1.44-2.28-1.44H63.68l-.54-2,3.2-2.9H61v-3.14H71.1v2.76L67.76,158c2,.44,3.62,1.54,3.62,3.94v0c0,2.85-2.28,4.67-5.4,4.67A7.63,7.63,0,0,1,60,164.15Z"/><path class="cls-1" d="M79.88,163.63h-6.8l-.62-2.74,7.26-8.64h3.9v8.48H85.4v2.9H83.62v2.73H79.88Zm0-2.88v-4l-3.36,4Z"/><path class="cls-1" d="M88.5,165c-1-1-1.72-2.63-1.72-5.25v0c0-4.36,2.12-7.68,6.5-7.68a7.22,7.22,0,0,1,4.66,1.54l-1.82,2.72a4.4,4.4,0,0,0-2.78-1.06c-2,0-2.54,1.88-2.64,3a4.65,4.65,0,0,1,3-1.08,4.31,4.31,0,0,1,4.62,4.36v0c0,3.13-2.5,5-5.56,5A5.67,5.67,0,0,1,88.5,165Zm6.08-3.23v0a1.82,1.82,0,0,0-2-1.8,1.76,1.76,0,0,0-1.94,1.78v0a1.82,1.82,0,0,0,2,1.82A1.79,1.79,0,0,0,94.58,161.81Z"/><path class="cls-1" d="M26.72,174.36h.8l2.55,3.82,2.55-3.82h.8v7h-.79v-5.67l-2.55,3.75h0l-2.55-3.74v5.66h-.77Z"/><path class="cls-1" d="M34.86,174.36h.86l2,5.83,1.92-5.85h.65l1.92,5.85,2-5.83H45l-2.49,7h-.67L40,175.73,38,181.41h-.66Z"/><path class="cls-1" d="M46.25,174.06H47v3a2,2,0,0,1,1.77-1,1.89,1.89,0,0,1,2,2.07v3.21H50v-3a1.38,1.38,0,0,0-1.43-1.56A1.52,1.52,0,0,0,47,178.4v3h-.77Z"/><path class="cls-1" d="M55.54,174.36h2.62c1.58,0,2.62.84,2.62,2.22v0c0,1.51-1.26,2.29-2.75,2.29h-1.7v2.47h-.79Zm2.52,3.81c1.16,0,1.92-.62,1.92-1.54v0c0-1-.75-1.52-1.88-1.52H56.33v3.08Z"/><path class="cls-1" d="M62.09,176.19h.77v1.35A2.21,2.21,0,0,1,65,176.1v.83h-.06a2.08,2.08,0,0,0-2,2.37v2.06h-.77Z"/><path class="cls-1" d="M65.61,178.8v0a2.7,2.7,0,0,1,5.39,0v0a2.68,2.68,0,0,1-2.71,2.7A2.65,2.65,0,0,1,65.61,178.8Zm4.6,0v0a2,2,0,0,0-1.92-2,1.91,1.91,0,0,0-1.89,2v0a1.94,1.94,0,0,0,1.91,2A1.91,1.91,0,0,0,70.21,178.8Z"/><path class="cls-1" d="M72.09,178.79v0a2.54,2.54,0,0,1,2.47-2.69,2.33,2.33,0,0,1,2,1.1v-3.12h.77v7.3h-.77v-1a2.32,2.32,0,0,1-2,1.15A2.52,2.52,0,0,1,72.09,178.79Zm4.48,0v0a1.92,1.92,0,0,0-1.87-2,1.82,1.82,0,0,0-1.82,2v0a1.87,1.87,0,0,0,1.82,2A1.93,1.93,0,0,0,76.57,178.78Z"/><path class="cls-1" d="M79,179.4v-3.21h.77v3a1.38,1.38,0,0,0,1.43,1.56,1.53,1.53,0,0,0,1.55-1.62v-3h.76v5.17H82.7v-.9a2,2,0,0,1-1.77,1A1.89,1.89,0,0,1,79,179.4Z"/><path class="cls-1" d="M84.87,178.8v0A2.69,2.69,0,0,1,89.59,177l-.51.54a2.09,2.09,0,0,0-1.57-.78,1.91,1.91,0,0,0-1.85,2v0a1.93,1.93,0,0,0,1.9,2,2.13,2.13,0,0,0,1.58-.77l.49.46a2.67,2.67,0,0,1-4.76-1.68Z"/><path class="cls-1" d="M90.44,178.79v0a2.55,2.55,0,0,1,2.48-2.69,2.46,2.46,0,0,1,2.41,2.73,2,2,0,0,1,0,.25h-4.1A1.81,1.81,0,0,0,93,180.81a2.14,2.14,0,0,0,1.63-.73l.48.43a2.67,2.67,0,0,1-2.13,1A2.57,2.57,0,0,1,90.44,178.79Zm4.11-.3a1.7,1.7,0,0,0-1.65-1.76,1.78,1.78,0,0,0-1.68,1.76Z"/><path class="cls-1" d="M96.38,178.79v0a2.54,2.54,0,0,1,2.47-2.69,2.33,2.33,0,0,1,2,1.1v-3.12h.77v7.3h-.77v-1a2.32,2.32,0,0,1-2,1.15A2.52,2.52,0,0,1,96.38,178.79Zm4.48,0v0a1.92,1.92,0,0,0-1.87-2,1.82,1.82,0,0,0-1.82,2v0a1.87,1.87,0,0,0,1.82,2A1.93,1.93,0,0,0,100.86,178.78Z"/><path class="cls-2" d="M52.62,289.87,55,288c.87-.72,1.21-1.1,1.21-1.68a.86.86,0,0,0-.94-.91c-.54,0-.91.3-1.43.94l-1.08-.87A2.92,2.92,0,0,1,55.32,284a2.16,2.16,0,0,1,2.41,2.16v0c0,1.17-.6,1.75-1.84,2.71l-1.14.88h3v1.33H52.62Z"/><path class="cls-2" d="M58.9,287.61v0c0-2,1.26-3.62,3.12-3.62s3.1,1.57,3.1,3.6v0c0,2-1.25,3.62-3.12,3.62S58.9,289.64,58.9,287.61Zm4.64,0v0c0-1.27-.62-2.23-1.54-2.23s-1.52.93-1.52,2.21v0c0,1.28.61,2.23,1.54,2.23S63.54,288.88,63.54,287.61Z"/><path class="cls-2" d="M67.4,285.6l-1.22.3-.31-1.26,2-.6h1v7H67.4Z"/><path class="cls-2" d="M73.81,285.42H70.52v-1.33h5v1.16l-3.14,5.84H70.68Z"/><path class="cls-2" d="M18.6,296.09h5.06v.72H19.39v2.39h3.82v.72H19.39v2.45h4.32v.72H18.6Z"/><path class="cls-2" d="M25.17,297.92h.77v.9a2,2,0,0,1,1.77-1,1.89,1.89,0,0,1,2,2.07v3.21h-.77v-3a1.38,1.38,0,0,0-1.43-1.56,1.52,1.52,0,0,0-1.55,1.62v3h-.77Z"/><path class="cls-2" d="M31,300.52v0a2.55,2.55,0,0,1,2.48-2.69,2.46,2.46,0,0,1,2.41,2.73,2,2,0,0,1,0,.25h-4.1a1.81,1.81,0,0,0,1.82,1.75,2.14,2.14,0,0,0,1.63-.73l.48.43a2.67,2.67,0,0,1-2.13,1A2.57,2.57,0,0,1,31,300.52Zm4.11-.3a1.7,1.7,0,0,0-1.65-1.76,1.78,1.78,0,0,0-1.68,1.76Z"/><path class="cls-2" d="M37.25,297.92H38v1.35a2.21,2.21,0,0,1,2.11-1.44v.83h-.06A2.08,2.08,0,0,0,38,301v2.06h-.77Z"/><path class="cls-2" d="M41,304l.35-.59a3.29,3.29,0,0,0,2,.65,1.69,1.69,0,0,0,1.88-1.83v-.61a2.45,2.45,0,0,1-2,1.09,2.39,2.39,0,0,1-2.43-2.42v0a2.45,2.45,0,0,1,4.45-1.4v-.93H46v4.27a2.49,2.49,0,0,1-.66,1.83,2.76,2.76,0,0,1-2,.68A4.05,4.05,0,0,1,41,304Zm4.24-3.72v0a1.81,1.81,0,0,0-1.9-1.75,1.71,1.71,0,0,0-1.79,1.74v0A1.75,1.75,0,0,0,43.37,302,1.82,1.82,0,0,0,45.27,300.26Z"/><path class="cls-2" d="M51.6,297.92h.82l-2.17,5.34c-.44,1.06-.94,1.45-1.72,1.45a2.35,2.35,0,0,1-1.1-.26l.26-.6a1.62,1.62,0,0,0,.81.19c.46,0,.75-.25,1.06-1l-2.35-5.15h.85l1.88,4.31Z"/><path class="cls-2" d="M56.77,296.09h2.62c1.58,0,2.62.84,2.62,2.22v0c0,1.51-1.26,2.29-2.75,2.29h-1.7v2.47h-.79Zm2.52,3.81c1.16,0,1.92-.62,1.92-1.54v0c0-1-.75-1.52-1.88-1.52H57.56v3.08Z"/><path class="cls-2" d="M63.32,297.92h.77v1.35a2.21,2.21,0,0,1,2.11-1.44v.83h-.06a2.08,2.08,0,0,0-2,2.37v2.06h-.77Z"/><path class="cls-2" d="M66.84,300.53v0a2.7,2.7,0,0,1,5.39,0v0a2.68,2.68,0,0,1-2.71,2.7A2.65,2.65,0,0,1,66.84,300.53Zm4.6,0v0a2,2,0,0,0-1.92-2,1.91,1.91,0,0,0-1.89,2v0a1.94,1.94,0,0,0,1.91,2A1.91,1.91,0,0,0,71.44,300.53Z"/><path class="cls-2" d="M73.32,300.52v0a2.54,2.54,0,0,1,2.47-2.69,2.33,2.33,0,0,1,2,1.1v-3.12h.77v7.3h-.77v-1a2.32,2.32,0,0,1-2,1.15A2.52,2.52,0,0,1,73.32,300.52Zm4.48,0v0a1.92,1.92,0,0,0-1.87-2,1.82,1.82,0,0,0-1.82,2v0a1.87,1.87,0,0,0,1.82,2A1.93,1.93,0,0,0,77.8,300.51Z"/><path class="cls-2" d="M80.18,301.13v-3.21H81v3a1.38,1.38,0,0,0,1.43,1.56,1.53,1.53,0,0,0,1.55-1.62v-3h.76v5.17h-.76v-.9a2,2,0,0,1-1.77,1A1.89,1.89,0,0,1,80.18,301.13Z"/><path class="cls-2" d="M86.1,300.53v0a2.69,2.69,0,0,1,4.72-1.78l-.51.54a2.09,2.09,0,0,0-1.57-.78,1.91,1.91,0,0,0-1.85,2v0a1.93,1.93,0,0,0,1.9,2,2.13,2.13,0,0,0,1.58-.77l.49.46a2.67,2.67,0,0,1-4.76-1.68Z"/><path class="cls-2" d="M92.4,301.72V298.6h-.72v-.68h.72v-1.56h.77v1.56h1.64v.68H93.17v3a.76.76,0,0,0,.87.86,1.62,1.62,0,0,0,.75-.18V303a1.94,1.94,0,0,1-.93.22A1.32,1.32,0,0,1,92.4,301.72Z"/><path class="cls-2" d="M96.19,295.94h.88v.85h-.88Zm0,2H97v5.17h-.77Z"/><path class="cls-2" d="M98.48,300.53v0a2.7,2.7,0,0,1,5.39,0v0a2.68,2.68,0,0,1-2.71,2.7A2.65,2.65,0,0,1,98.48,300.53Zm4.6,0v0a2,2,0,0,0-1.92-2,1.91,1.91,0,0,0-1.89,2v0a1.94,1.94,0,0,0,1.91,2A1.91,1.91,0,0,0,103.08,300.53Z"/><path class="cls-2" d="M105.26,297.92H106v.9a2,2,0,0,1,1.77-1,1.89,1.89,0,0,1,2,2.07v3.21H109v-3a1.38,1.38,0,0,0-1.43-1.56,1.52,1.52,0,0,0-1.55,1.62v3h-.77Z"/><path class="cls-2" d="M.71,310.6H0v-.67H.71v-.45a1.82,1.82,0,0,1,.45-1.33,1.52,1.52,0,0,1,1.11-.4,2.34,2.34,0,0,1,.85.13v.67a2.57,2.57,0,0,0-.75-.13c-.6,0-.9.36-.9,1.1v.42H3.11v.66H1.48v4.49H.71Z"/><path class="cls-2" d="M4.09,309.92h.77v1.35A2.21,2.21,0,0,1,7,309.83v.83H6.91a2.08,2.08,0,0,0-2,2.37v2.06H4.09Z"/><path class="cls-2" d="M7.61,312.53v0a2.7,2.7,0,0,1,5.39,0v0a2.68,2.68,0,0,1-2.71,2.7A2.65,2.65,0,0,1,7.61,312.53Zm4.6,0v0a2,2,0,0,0-1.92-2,1.91,1.91,0,0,0-1.89,2v0a1.94,1.94,0,0,0,1.91,2A1.91,1.91,0,0,0,12.21,312.53Z"/><path class="cls-2" d="M14.39,309.92h.77v.87a1.89,1.89,0,0,1,1.67-1,1.76,1.76,0,0,1,1.66,1,2.06,2.06,0,0,1,1.82-1,1.86,1.86,0,0,1,1.92,2.08v3.2h-.77v-3c0-1-.5-1.56-1.34-1.56a1.44,1.44,0,0,0-1.42,1.6v3h-.77v-3c0-1-.51-1.54-1.33-1.54a1.5,1.5,0,0,0-1.44,1.63v2.95h-.77Z"/><path class="cls-2" d="M26.72,311.61v0A3.53,3.53,0,0,1,30.26,308,3.64,3.64,0,0,1,33,309.08l-.54.58a3,3,0,0,0-2.2-1,2.74,2.74,0,0,0-2.71,2.87v0a2.76,2.76,0,0,0,2.71,2.89,3,3,0,0,0,2.26-1L33,314a3.64,3.64,0,0,1-2.8,1.23A3.49,3.49,0,0,1,26.72,311.61Z"/><path class="cls-2" d="M33.89,313.59v0c0-1.09.9-1.67,2.21-1.67a5.49,5.49,0,0,1,1.59.22v-.18c0-.93-.57-1.41-1.54-1.41a3.6,3.6,0,0,0-1.57.38l-.23-.63a4.27,4.27,0,0,1,1.88-.43,2.27,2.27,0,0,1,1.67.57,2,2,0,0,1,.53,1.51v3.16h-.74v-.78a2.27,2.27,0,0,1-1.87.89A1.74,1.74,0,0,1,33.89,313.59Zm3.81-.4v-.5a5.39,5.39,0,0,0-1.52-.22c-1,0-1.51.42-1.51,1.07v0c0,.65.6,1,1.3,1A1.56,1.56,0,0,0,37.7,313.19Z"/><path class="cls-2" d="M39.64,314.43l.39-.55a3,3,0,0,0,1.79.66c.62,0,1.07-.32,1.07-.82v0c0-.52-.61-.72-1.29-.91s-1.71-.51-1.71-1.46v0a1.56,1.56,0,0,1,1.76-1.48,3.53,3.53,0,0,1,1.86.57l-.35.58a2.92,2.92,0,0,0-1.53-.5c-.61,0-1,.32-1,.75v0c0,.49.64.68,1.33.89s1.66.55,1.66,1.48v0a1.63,1.63,0,0,1-1.84,1.55A3.56,3.56,0,0,1,39.64,314.43Z"/><path class="cls-2" d="M44.73,312.52v0a2.55,2.55,0,0,1,2.48-2.69,2.46,2.46,0,0,1,2.41,2.73,2,2,0,0,1,0,.25h-4.1a1.81,1.81,0,0,0,1.82,1.75,2.14,2.14,0,0,0,1.63-.73l.48.43a2.67,2.67,0,0,1-2.13,1A2.57,2.57,0,0,1,44.73,312.52Zm4.11-.3a1.7,1.7,0,0,0-1.65-1.76,1.78,1.78,0,0,0-1.68,1.76Z"/><path class="cls-2" d="M51,307.79h.77v7.3H51Z"/><path class="cls-2" d="M53.67,307.79h.77v7.3h-.77Z"/><path class="cls-2" d="M55.84,313.59v0c0-1.09.9-1.67,2.21-1.67a5.49,5.49,0,0,1,1.59.22v-.18c0-.93-.57-1.41-1.54-1.41a3.6,3.6,0,0,0-1.57.38l-.23-.63a4.27,4.27,0,0,1,1.88-.43,2.27,2.27,0,0,1,1.67.57,2,2,0,0,1,.53,1.51v3.16h-.74v-.78a2.27,2.27,0,0,1-1.87.89A1.74,1.74,0,0,1,55.84,313.59Zm3.81-.4v-.5a5.39,5.39,0,0,0-1.52-.22c-1,0-1.51.42-1.51,1.07v0c0,.65.6,1,1.3,1A1.56,1.56,0,0,0,59.65,313.19Z"/><path class="cls-2" d="M65.15,308.09h2.62c1.58,0,2.62.84,2.62,2.22v0c0,1.51-1.26,2.29-2.75,2.29h-1.7v2.47h-.79Zm2.52,3.81c1.16,0,1.92-.62,1.92-1.54v0c0-1-.75-1.52-1.88-1.52H65.94v3.08Z"/><path class="cls-2" d="M71.33,312.53v0a2.7,2.7,0,0,1,5.39,0v0a2.68,2.68,0,0,1-2.71,2.7A2.65,2.65,0,0,1,71.33,312.53Zm4.6,0v0a2,2,0,0,0-1.92-2,1.91,1.91,0,0,0-1.89,2v0a1.94,1.94,0,0,0,1.91,2A1.91,1.91,0,0,0,75.93,312.53Z"/><path class="cls-2" d="M77.42,309.92h.82l1.36,4.15L81,309.9h.64l1.4,4.17,1.35-4.15h.8l-1.81,5.21H82.7l-1.39-4.08-1.4,4.08h-.68Z"/><path class="cls-2" d="M85.91,312.52v0a2.55,2.55,0,0,1,2.48-2.69,2.46,2.46,0,0,1,2.41,2.73,2,2,0,0,1,0,.25h-4.1a1.81,1.81,0,0,0,1.82,1.75,2.14,2.14,0,0,0,1.63-.73l.48.43a2.67,2.67,0,0,1-2.13,1A2.57,2.57,0,0,1,85.91,312.52Zm4.11-.3a1.7,1.7,0,0,0-1.65-1.76,1.78,1.78,0,0,0-1.68,1.76Z"/><path class="cls-2" d="M92.15,309.92h.77v1.35A2.21,2.21,0,0,1,95,309.83v.83H95a2.08,2.08,0,0,0-2,2.37v2.06h-.77Z"/><path class="cls-2" d="M99.33,308.09H102c1.58,0,2.62.84,2.62,2.22v0c0,1.51-1.26,2.29-2.75,2.29h-1.7v2.47h-.79Zm2.52,3.81c1.16,0,1.92-.62,1.92-1.54v0c0-1-.75-1.52-1.88-1.52h-1.77v3.08Z"/><path class="cls-2" d="M106,307.79h.77v7.3H106Z"/><path class="cls-2" d="M108.12,313.59v0c0-1.09.9-1.67,2.21-1.67a5.49,5.49,0,0,1,1.59.22v-.18c0-.93-.57-1.41-1.54-1.41a3.6,3.6,0,0,0-1.57.38l-.23-.63a4.27,4.27,0,0,1,1.88-.43,2.27,2.27,0,0,1,1.67.57,2,2,0,0,1,.53,1.51v3.16h-.74v-.78a2.27,2.27,0,0,1-1.87.89A1.74,1.74,0,0,1,108.12,313.59Zm3.81-.4v-.5a5.39,5.39,0,0,0-1.52-.22c-1,0-1.51.42-1.51,1.07v0c0,.65.6,1,1.3,1A1.56,1.56,0,0,0,111.93,313.19Z"/><path class="cls-2" d="M114.3,309.92h.77v.9a2,2,0,0,1,1.77-1,1.89,1.89,0,0,1,2,2.07v3.21h-.77v-3a1.38,1.38,0,0,0-1.43-1.56,1.52,1.52,0,0,0-1.55,1.62v3h-.77Z"/><path class="cls-2" d="M120.73,313.72V310.6H120v-.68h.72v-1.56h.77v1.56h1.64v.68H121.5v3a.76.76,0,0,0,.87.86,1.62,1.62,0,0,0,.75-.18V315a1.94,1.94,0,0,1-.93.22A1.32,1.32,0,0,1,120.73,313.72Z"/><path class="cls-2" d="M124.07,314.43l.39-.55a3,3,0,0,0,1.79.66c.62,0,1.07-.32,1.07-.82v0c0-.52-.61-.72-1.29-.91s-1.71-.51-1.71-1.46v0a1.56,1.56,0,0,1,1.76-1.48,3.53,3.53,0,0,1,1.86.57l-.35.58a2.92,2.92,0,0,0-1.53-.5c-.61,0-1,.32-1,.75v0c0,.49.64.68,1.33.89s1.66.55,1.66,1.48v0a1.63,1.63,0,0,1-1.84,1.55A3.56,3.56,0,0,1,124.07,314.43Z"/><path class="cls-1" d="M46.73,222.76a.17.17,0,0,1-.08.18L42,225.71l-.09,0-.08,0a.16.16,0,0,1-.08-.14l-.06-5.45a.17.17,0,0,1,.11-.16A.18.18,0,0,1,42,220l0,0,.12.15c.11.13.27.31.46.5l.38.38,1.46-2.91-5,.52,3.67-9.26a3.92,3.92,0,0,0,2.72,1.05L43.14,216l5.53-.57L45,222.29a10.66,10.66,0,0,0,1.48.33h.07a.16.16,0,0,1,.14.13M41.9,232a24.33,24.33,0,0,1,4.18.37,20.57,20.57,0,0,1,9.45-5.74V214.34a11,11,0,0,0-11-11h-1a11,11,0,0,0-11,11V234A22.71,22.71,0,0,1,41.9,232"/><path class="cls-3" d="M27.14,247.53H99.43v-3.48c0-.15,0-.29,0-.43h0c-.4-6.77-8.77-12.17-19.06-12.17-.8,0-1.58.05-2.35.11a23,23,0,0,0-10-3.66,27.85,27.85,0,0,0-7.71,0c-5.9.82-10.79,3.46-13.31,7a21.23,21.23,0,0,0-5.08-.61c-7.92,0-14.36,4.13-14.76,9.32h0c0,.14,0,.28,0,.43Z"/><path class="cls-4" d="M27.14,249.51v21.54a4.41,4.41,0,0,0,4.38,4.45H95.05a4.41,4.41,0,0,0,4.38-4.45V249.51Z"/><path class="cls-5" d="M193.14,184.23H145.28c-4.45,0-8.06,3.15-8.06,7.05v20.31c0,3.89,3.61,7,8.06,7h5v3.19c0,1.73,2.13,3.15,4.76,3.15h28.26c2.63,0,4.76-1.42,4.76-3.15v-3.19h5c4.46,0,8.06-3.16,8.06-7V191.28c0-3.9-3.6-7.05-8.06-7.05"/><rect class="cls-6" x="54.12" y="253.97" width="18.33" height="17.63" rx="4.45"/><rect class="cls-5" x="55.32" y="255.13" width="15.93" height="15.32" rx="3.87"/><path class="cls-1" d="M80.59,211.55l-1.58,1V212H77.48v.6l-1.58-1Zm-6.17,0h.35l2.71,2v.54H79v-.54l2.71-2H82a.49.49,0,0,0,0-1H74.42a.49.49,0,1,0,0,1m-2.55,6.67a.81.81,0,0,0-.81.81v5.65a.81.81,0,0,0,1.62,0V219a.81.81,0,0,0-.81-.81m12.75,0a.81.81,0,0,0-.81.81v5.65a.81.81,0,0,0,1.62,0V219a.81.81,0,0,0-.81-.81m-8.89-3.75a.72.72,0,1,0,0,1.43h5a.72.72,0,1,0,0-1.43Zm4.76,4.08v-2.2H76v2.2a3.89,3.89,0,0,0-.82.75h-2v5.11h2a4,4,0,0,0,6.13,0h2V219.3h-2a3.89,3.89,0,0,0-.82-.75"/><path class="cls-1" d="M66.35,239.79H61.93V226.66a6.54,6.54,0,0,1,6.73-7.06h3.48V224H68.55a2.6,2.6,0,0,0-1.58.6,2.83,2.83,0,0,0-.62,2Z"/><path class="cls-1" d="M94.56,239.79H90.14V226.66a2.78,2.78,0,0,0-.64-2,2.55,2.55,0,0,0-1.56-.59H84.35V219.6h3.48a6.89,6.89,0,0,1,4.73,1.81,7,7,0,0,1,2,5.25Z"/><path class="cls-7" d="M124.57,83.83c-5.11,2.06-11.2-1.08-13.6-7l-.26-.62c-2.39-6-.19-12.44,4.92-14.51l61-24.6c5.11-2.07,11.21,1.08,13.6,7l.25.62c2.4,6,.2,12.44-4.91,14.5Z"/><path class="cls-7" d="M126.91,115.44c-6.41,2.58-13.54-.14-15.94-6.09l-.26-.62c-2.39-6,.86-12.86,7.27-15.45l76.39-30.82c6.41-2.58,13.55.14,15.95,6.09l.25.62c2.4,6-.85,12.86-7.26,15.45Z"/><path class="cls-7" d="M126.91,147.5c-6.41,2.58-13.54-.14-15.94-6.09l-.26-.62c-2.39-5.95.86-12.86,7.27-15.45l76.39-30.82c6.41-2.58,13.55.14,15.95,6.09l.25.62c2.4,6-.85,12.86-7.26,15.44Z"/><path class="cls-7" d="M131.26,151.79c5.48,3.15,12.63,10.18,12.93,25.44l23-.45c-.31-15.51-5.46-26.7-12.19-34.53l-22.88,9.23c-.3.12-.61.22-.9.31"/><polygon class="cls-7" points="170.49 177.23 191.53 177.23 191.53 127.53 170.49 136.02 170.49 177.23"/><path class="cls-7" d="M158.86,18.3a72.73,72.73,0,0,1,67,100.88,78.43,78.43,0,1,0-134.06,0,72.73,72.73,0,0,1,67-100.88"/><path class="cls-6" d="M60.06,265.36h-.25a.55.55,0,0,1-.54-.55V257.6a.54.54,0,0,1,.54-.54h.25a.54.54,0,0,1,.54.54v7.21a.55.55,0,0,1-.54.55"/><path class="cls-6" d="M66.75,265.36h-.24a.55.55,0,0,1-.55-.55V257.6a.55.55,0,0,1,.55-.54h.24a.54.54,0,0,1,.54.54v7.21a.55.55,0,0,1-.54.55"/><path class="cls-6" d="M62.52,268.51c-.64,0-.9-.45-.56-1l.71-1.18a.66.66,0,0,1,1.22,0l.72,1.18c.33.55.08,1-.57,1Z"/><polyline class="cls-8" points="169.53 232.21 169.53 262.59 122.84 262.59"/><polygon class="cls-1" points="169.53 227 162.13 234.96 176.93 234.96 169.53 227"/><path class="cls-5" d="M116.64,255.91H110.1v13.84h6.54a4.46,4.46,0,0,0,4.45-4.46v-4.93a4.45,4.45,0,0,0-4.45-4.45"/><path class="cls-5" d="M103.29,258a1.14,1.14,0,0,0,0,2.27h5.94V258Z"/><path class="cls-5" d="M103.29,265.4a1.14,1.14,0,0,0,0,2.27h5.94V265.4Z"/></g></g></svg>