<?xml version="1.0" encoding="utf-8"?>
<!-- Generator: Adobe Illustrator 23.0.1, SVG Export Plug-In . SVG Version: 6.00 Build 0)  -->
<svg version="1.1" id="Layer_1" xmlns="http://www.w3.org/2000/svg" xmlns:xlink="http://www.w3.org/1999/xlink" x="0px" y="0px"
	 viewBox="0 0 263.6 142" style="enable-background:new 0 0 263.6 142;" xml:space="preserve">
<style type="text/css">
	.st0{enable-background:new    ;}
	.st1{fill:#76777A;}
	.st2{fill:none;stroke:#54565A;}
	.st3{fill:#69AB4F;}
	.st4{fill:none;stroke:#76777A;}
</style>
<title>Asset 1</title>
<g>
	<g id="Layer_1-2">
		<g class="st0">
			<path class="st1" d="M27.4,137.7l2.2-1.9c0.8-0.7,1.2-1.1,1.2-1.7c0-0.6-0.4-0.9-0.9-0.9c-0.5,0-0.9,0.3-1.4,0.9l-1-0.9
				c0.7-0.9,1.3-1.4,2.5-1.4c1.4,0,2.3,0.8,2.3,2.2v0c0,1.2-0.6,1.7-1.8,2.7l-1.1,0.9h2.9v1.3h-5V137.7z"/>
		</g>
		<g class="st0">
			<path class="st1" d="M33.4,135.4L33.4,135.4c0-2,1.2-3.6,3-3.6c1.8,0,3,1.6,3,3.6v0c0,2-1.2,3.6-3,3.6S33.4,137.4,33.4,135.4z
				 M37.8,135.4L37.8,135.4c0-1.3-0.6-2.2-1.5-2.2c-0.9,0-1.5,0.9-1.5,2.2v0c0,1.3,0.6,2.2,1.5,2.2S37.8,136.7,37.8,135.4z"/>
		</g>
		<g class="st0">
			<path class="st1" d="M41.4,133.4l-1.2,0.3l-0.3-1.3l1.9-0.6h1v7h-1.5V133.4z"/>
		</g>
		<g class="st0">
			<path class="st1" d="M44.2,135.4L44.2,135.4c0-2,1.2-3.6,3-3.6c1.8,0,3,1.6,3,3.6v0c0,2-1.2,3.6-3,3.6S44.2,137.4,44.2,135.4z
				 M48.7,135.4L48.7,135.4c0-1.3-0.6-2.2-1.5-2.2c-0.9,0-1.5,0.9-1.5,2.2v0c0,1.3,0.6,2.2,1.5,2.2S48.7,136.7,48.7,135.4z"/>
		</g>
		<g class="st0">
			<path class="st1" d="M58.9,137.7l2.2-1.9c0.8-0.7,1.2-1.1,1.2-1.7c0-0.6-0.4-0.9-0.9-0.9c-0.5,0-0.9,0.3-1.4,0.9l-1-0.9
				c0.7-0.9,1.3-1.4,2.5-1.4c1.4,0,2.3,0.8,2.3,2.2v0c0,1.2-0.6,1.7-1.8,2.7l-1.1,0.9h2.9v1.3h-5V137.7z"/>
		</g>
		<g class="st0">
			<path class="st1" d="M64.8,135.4L64.8,135.4c0-2,1.2-3.6,3-3.6c1.8,0,3,1.6,3,3.6v0c0,2-1.2,3.6-3,3.6S64.8,137.4,64.8,135.4z
				 M69.3,135.4L69.3,135.4c0-1.3-0.6-2.2-1.5-2.2s-1.5,0.9-1.5,2.2v0c0,1.3,0.6,2.2,1.5,2.2S69.3,136.7,69.3,135.4z"/>
		</g>
		<g class="st0">
			<path class="st1" d="M72.9,133.4l-1.2,0.3l-0.3-1.3l1.9-0.6h1v7h-1.5V133.4z"/>
		</g>
		<g class="st0">
			<path class="st1" d="M76.9,133.4l-1.2,0.3l-0.3-1.3l1.9-0.6h1v7h-1.5V133.4z"/>
		</g>
		<g class="st0">
			<path class="st1" d="M87.9,137.7l2.2-1.9c0.8-0.7,1.2-1.1,1.2-1.7c0-0.6-0.4-0.9-0.9-0.9c-0.5,0-0.9,0.3-1.4,0.9l-1-0.9
				c0.7-0.9,1.3-1.4,2.5-1.4c1.4,0,2.3,0.8,2.3,2.2v0c0,1.2-0.6,1.7-1.8,2.7l-1.1,0.9h2.9v1.3h-5V137.7z"/>
		</g>
		<g class="st0">
			<path class="st1" d="M93.8,135.4L93.8,135.4c0-2,1.2-3.6,3-3.6c1.8,0,3,1.6,3,3.6v0c0,2-1.2,3.6-3,3.6S93.8,137.4,93.8,135.4z
				 M98.3,135.4L98.3,135.4c0-1.3-0.6-2.2-1.5-2.2c-0.9,0-1.5,0.9-1.5,2.2v0c0,1.3,0.6,2.2,1.5,2.2S98.3,136.7,98.3,135.4z"/>
		</g>
		<g class="st0">
			<path class="st1" d="M101.9,133.4l-1.2,0.3l-0.3-1.3l1.9-0.6h1v7h-1.5V133.4z"/>
		</g>
		<g class="st0">
			<path class="st1" d="M104.6,137.7l2.2-1.9c0.8-0.7,1.2-1.1,1.2-1.7c0-0.6-0.4-0.9-0.9-0.9c-0.5,0-0.9,0.3-1.4,0.9l-1-0.9
				c0.7-0.9,1.3-1.4,2.5-1.4c1.4,0,2.3,0.8,2.3,2.2v0c0,1.2-0.6,1.7-1.8,2.7l-1.1,0.9h2.9v1.3h-5V137.7z"/>
		</g>
		<g class="st0">
			<path class="st1" d="M119.2,137.7l2.2-1.9c0.8-0.7,1.2-1.1,1.2-1.7c0-0.6-0.4-0.9-0.9-0.9c-0.5,0-0.9,0.3-1.4,0.9l-1-0.9
				c0.7-0.9,1.3-1.4,2.5-1.4c1.4,0,2.3,0.8,2.3,2.2v0c0,1.2-0.6,1.7-1.8,2.7l-1.1,0.9h2.9v1.3h-5V137.7z"/>
		</g>
		<g class="st0">
			<path class="st1" d="M125.2,135.4L125.2,135.4c0-2,1.2-3.6,3-3.6c1.8,0,3,1.6,3,3.6v0c0,2-1.2,3.6-3,3.6S125.2,137.4,125.2,135.4
				z M129.6,135.4L129.6,135.4c0-1.3-0.6-2.2-1.5-2.2s-1.5,0.9-1.5,2.2v0c0,1.3,0.6,2.2,1.5,2.2S129.6,136.7,129.6,135.4z"/>
		</g>
		<g class="st0">
			<path class="st1" d="M133.2,133.4l-1.2,0.3l-0.3-1.3l1.9-0.6h1v7h-1.5V133.4z"/>
		</g>
		<g class="st0">
			<path class="st1" d="M135.8,137.8l1-1c0.5,0.5,0.9,0.8,1.6,0.8c0.6,0,0.9-0.3,0.9-0.8v0c0-0.6-0.5-0.9-1.3-0.9h-0.6l-0.2-1
				l1.6-1.7h-2.6v-1.3h4.5v1.2l-1.7,1.7c0.9,0.2,1.8,0.7,1.8,2v0c0,1.3-0.9,2.3-2.4,2.3C137.2,139,136.4,138.5,135.8,137.8z"/>
		</g>
		<g class="st0">
			<path class="st1" d="M147.5,137.7l2.2-1.9c0.8-0.7,1.2-1.1,1.2-1.7c0-0.6-0.4-0.9-0.9-0.9c-0.5,0-0.9,0.3-1.4,0.9l-1-0.9
				c0.7-0.9,1.3-1.4,2.5-1.4c1.4,0,2.3,0.8,2.3,2.2v0c0,1.2-0.6,1.7-1.8,2.7l-1.1,0.9h2.9v1.3h-5V137.7z"/>
		</g>
		<g class="st0">
			<path class="st1" d="M153.5,135.4L153.5,135.4c0-2,1.2-3.6,3-3.6c1.8,0,3,1.6,3,3.6v0c0,2-1.2,3.6-3,3.6
				C154.7,139,153.5,137.4,153.5,135.4z M157.9,135.4L157.9,135.4c0-1.3-0.6-2.2-1.5-2.2c-0.9,0-1.5,0.9-1.5,2.2v0
				c0,1.3,0.6,2.2,1.5,2.2S157.9,136.7,157.9,135.4z"/>
		</g>
		<g class="st0">
			<path class="st1" d="M161.5,133.4l-1.2,0.3l-0.3-1.3l1.9-0.6h1v7h-1.5V133.4z"/>
		</g>
		<g class="st0">
			<path class="st1" d="M167.6,137.4h-3.3l-0.2-1.1l3.7-4.4h1.2v4.3h0.9v1.2H169v1.5h-1.4V137.4z M167.6,136.1V134l-1.8,2.2H167.6z"
				/>
		</g>
		<g class="st0">
			<path class="st1" d="M177.8,137.7l2.2-1.9c0.8-0.7,1.2-1.1,1.2-1.7c0-0.6-0.4-0.9-0.9-0.9c-0.5,0-0.9,0.3-1.4,0.9l-1-0.9
				c0.7-0.9,1.3-1.4,2.5-1.4c1.4,0,2.3,0.8,2.3,2.2v0c0,1.2-0.6,1.7-1.8,2.7l-1.1,0.9h2.9v1.3h-5V137.7z"/>
		</g>
		<g class="st0">
			<path class="st1" d="M183.7,135.4L183.7,135.4c0-2,1.2-3.6,3-3.6c1.8,0,3,1.6,3,3.6v0c0,2-1.2,3.6-3,3.6
				C184.9,139,183.7,137.4,183.7,135.4z M188.2,135.4L188.2,135.4c0-1.3-0.6-2.2-1.5-2.2c-0.9,0-1.5,0.9-1.5,2.2v0
				c0,1.3,0.6,2.2,1.5,2.2S188.2,136.7,188.2,135.4z"/>
		</g>
		<g class="st0">
			<path class="st1" d="M191.8,133.4l-1.2,0.3l-0.3-1.3l1.9-0.6h1v7h-1.5V133.4z"/>
		</g>
		<g class="st0">
			<path class="st1" d="M194.5,138l0.9-1.1c0.5,0.5,1,0.8,1.6,0.8c0.7,0,1.1-0.3,1.1-1v0c0-0.6-0.5-0.9-1.2-0.9
				c-0.4,0-0.8,0.1-1.1,0.3l-0.9-0.6l0.2-3.4h4.1v1.3h-2.9l-0.1,1.2c0.3-0.1,0.5-0.1,0.9-0.1c1.3,0,2.4,0.7,2.4,2.2v0
				c0,1.5-1,2.4-2.6,2.4C195.9,139,195.1,138.6,194.5,138z"/>
		</g>
		<g class="st0">
			<path class="st1" d="M207.6,137.7l2.2-1.9c0.8-0.7,1.2-1.1,1.2-1.7c0-0.6-0.4-0.9-0.9-0.9c-0.5,0-0.9,0.3-1.4,0.9l-1-0.9
				c0.7-0.9,1.3-1.4,2.5-1.4c1.4,0,2.3,0.8,2.3,2.2v0c0,1.2-0.6,1.7-1.8,2.7l-1.1,0.9h2.9v1.3h-5V137.7z"/>
		</g>
		<g class="st0">
			<path class="st1" d="M213.6,135.4L213.6,135.4c0-2,1.2-3.6,3-3.6c1.8,0,3,1.6,3,3.6v0c0,2-1.2,3.6-3,3.6
				C214.8,139,213.6,137.4,213.6,135.4z M218,135.4L218,135.4c0-1.3-0.6-2.2-1.5-2.2c-0.9,0-1.5,0.9-1.5,2.2v0
				c0,1.3,0.6,2.2,1.5,2.2S218,136.7,218,135.4z"/>
		</g>
		<g class="st0">
			<path class="st1" d="M221.6,133.4l-1.2,0.3l-0.3-1.3l1.9-0.6h1v7h-1.5V133.4z"/>
		</g>
		<g class="st0">
			<path class="st1" d="M225.2,138.3c-0.5-0.5-0.8-1.3-0.8-2.6v0c0-2.2,0.9-3.8,2.9-3.8c0.9,0,1.5,0.3,2.1,0.8l-0.8,1.2
				c-0.4-0.3-0.8-0.6-1.4-0.6c-1,0-1.3,1-1.4,1.6c0.4-0.2,0.8-0.4,1.4-0.4c1.3,0,2.4,0.8,2.4,2.2v0c0,1.4-1.1,2.4-2.6,2.4
				C226.3,139,225.7,138.7,225.2,138.3z M228.2,136.7L228.2,136.7c0-0.6-0.4-1-1.2-1s-1.2,0.4-1.2,1v0c0,0.6,0.4,1,1.2,1
				S228.2,137.3,228.2,136.7z"/>
		</g>
		<g class="st0">
			<path class="st1" d="M237.8,137.7l2.2-1.9c0.8-0.7,1.2-1.1,1.2-1.7c0-0.6-0.4-0.9-0.9-0.9c-0.5,0-0.9,0.3-1.4,0.9l-1-0.9
				c0.7-0.9,1.3-1.4,2.5-1.4c1.4,0,2.3,0.8,2.3,2.2v0c0,1.2-0.6,1.7-1.8,2.7l-1.1,0.9h2.9v1.3h-5V137.7z"/>
		</g>
		<g class="st0">
			<path class="st1" d="M243.8,135.4L243.8,135.4c0-2,1.2-3.6,3-3.6c1.8,0,3,1.6,3,3.6v0c0,2-1.2,3.6-3,3.6
				C245,139,243.8,137.4,243.8,135.4z M248.2,135.4L248.2,135.4c0-1.3-0.6-2.2-1.5-2.2c-0.9,0-1.5,0.9-1.5,2.2v0
				c0,1.3,0.6,2.2,1.5,2.2S248.2,136.7,248.2,135.4z"/>
		</g>
		<g class="st0">
			<path class="st1" d="M251.8,133.4l-1.2,0.3l-0.3-1.3l1.9-0.6h1v7h-1.5V133.4z"/>
		</g>
		<g class="st0">
			<path class="st1" d="M257.9,133.2h-3.2v-1.3h4.8v1.2l-3,5.8h-1.7L257.9,133.2z"/>
		</g>
		<g class="st0">
			<path class="st1" d="M1.5,7.9l2.4-2.2c1-1,1.4-1.5,1.4-2.2c0-0.8-0.6-1.3-1.4-1.3c-0.8,0-1.3,0.4-1.8,1.2L1.6,2.9
				C2.2,2,2.8,1.4,4,1.4c1.2,0,2.1,0.8,2.1,2v0c0,1-0.5,1.6-1.7,2.7L2.6,7.8h3.6v0.7H1.5V7.9z"/>
		</g>
		<g class="st0">
			<path class="st1" d="M7.2,7.5l0.5-0.6c0.6,0.6,1.2,1,1.9,1c1,0,1.6-0.7,1.6-1.5v0c0-0.9-0.7-1.5-1.7-1.5C9,4.9,8.6,5,8.2,5.3
				L7.7,4.9l0.2-3.4h3.9v0.7H8.5L8.4,4.5c0.4-0.2,0.8-0.3,1.3-0.3C11,4.2,12,5,12,6.3v0c0,1.4-1,2.3-2.4,2.3
				C8.6,8.6,7.8,8.1,7.2,7.5z"/>
		</g>
		<g class="st0">
			<path class="st1" d="M13.1,5L13.1,5c0-2,1.1-3.6,2.9-3.6c1.7,0,2.8,1.6,2.8,3.6v0c0,2-1.1,3.6-2.8,3.6C14.2,8.6,13.1,7,13.1,5z
				 M18,5L18,5c0-1.5-0.8-2.9-2.1-2.9c-1.3,0-2,1.3-2,2.9v0c0,1.5,0.8,2.9,2.1,2.9S18,6.6,18,5z"/>
		</g>
		<g class="st0">
			<path class="st1" d="M0.5,31.9l2.4-2.2c1-1,1.4-1.5,1.4-2.2c0-0.8-0.6-1.3-1.4-1.3c-0.8,0-1.3,0.4-1.8,1.2l-0.6-0.4
				C1.2,26,1.8,25.4,3,25.4c1.2,0,2.1,0.8,2.1,2v0c0,1-0.5,1.6-1.7,2.7l-1.8,1.7h3.6v0.7H0.5V31.9z"/>
		</g>
		<g class="st0">
			<path class="st1" d="M6.3,29L6.3,29c0-2,1.1-3.6,2.9-3.6c1.7,0,2.8,1.6,2.8,3.6v0c0,2-1.1,3.6-2.8,3.6C7.4,32.6,6.3,31,6.3,29z
				 M11.2,29L11.2,29c0-1.5-0.8-2.9-2.1-2.9c-1.3,0-2,1.3-2,2.9v0c0,1.5,0.8,2.9,2.1,2.9S11.2,30.6,11.2,29z"/>
		</g>
		<g class="st0">
			<path class="st1" d="M13.1,29L13.1,29c0-2,1.1-3.6,2.9-3.6c1.7,0,2.8,1.6,2.8,3.6v0c0,2-1.1,3.6-2.8,3.6
				C14.2,32.6,13.1,31,13.1,29z M18,29L18,29c0-1.5-0.8-2.9-2.1-2.9c-1.3,0-2,1.3-2,2.9v0c0,1.5,0.8,2.9,2.1,2.9S18,30.6,18,29z"/>
		</g>
		<g class="st0">
			<path class="st1" d="M5,50.3l-1.3,0.4l-0.2-0.6l1.6-0.6h0.6v7H5V50.3z"/>
		</g>
		<g class="st0">
			<path class="st1" d="M7.2,55.5l0.5-0.6c0.6,0.6,1.2,1,1.9,1c1,0,1.6-0.7,1.6-1.5v0c0-0.9-0.7-1.5-1.7-1.5c-0.6,0-1,0.2-1.4,0.4
				l-0.5-0.3l0.2-3.4h3.9v0.7H8.5l-0.1,2.2c0.4-0.2,0.8-0.3,1.3-0.3c1.3,0,2.3,0.8,2.3,2.1v0c0,1.4-1,2.3-2.4,2.3
				C8.6,56.6,7.8,56.1,7.2,55.5z"/>
		</g>
		<g class="st0">
			<path class="st1" d="M13.1,53L13.1,53c0-2,1.1-3.6,2.9-3.6c1.7,0,2.8,1.6,2.8,3.6v0c0,2-1.1,3.6-2.8,3.6
				C14.2,56.6,13.1,55,13.1,53z M18,53L18,53c0-1.5-0.8-2.9-2.1-2.9c-1.3,0-2,1.3-2,2.9v0c0,1.5,0.8,2.9,2.1,2.9S18,54.6,18,53z"/>
		</g>
		<g class="st0">
			<path class="st1" d="M4,74.3l-1.3,0.4l-0.2-0.6l1.6-0.6h0.6v7H4V74.3z"/>
		</g>
		<g class="st0">
			<path class="st1" d="M6.3,77L6.3,77c0-2,1.1-3.6,2.9-3.6c1.7,0,2.8,1.6,2.8,3.6v0c0,2-1.1,3.6-2.8,3.6C7.4,80.6,6.3,79,6.3,77z
				 M11.2,77L11.2,77c0-1.5-0.8-2.9-2.1-2.9c-1.3,0-2,1.3-2,2.9v0c0,1.5,0.8,2.9,2.1,2.9S11.2,78.6,11.2,77z"/>
		</g>
		<g class="st0">
			<path class="st1" d="M13.1,77L13.1,77c0-2,1.1-3.6,2.9-3.6c1.7,0,2.8,1.6,2.8,3.6v0c0,2-1.1,3.6-2.8,3.6
				C14.2,80.6,13.1,79,13.1,77z M18,77L18,77c0-1.5-0.8-2.9-2.1-2.9c-1.3,0-2,1.3-2,2.9v0c0,1.5,0.8,2.9,2.1,2.9S18,78.6,18,77z"/>
		</g>
		<g class="st0">
			<path class="st1" d="M7.2,103.5l0.5-0.6c0.6,0.6,1.2,1,1.9,1c1,0,1.6-0.7,1.6-1.5v0c0-0.9-0.7-1.5-1.7-1.5c-0.6,0-1,0.2-1.4,0.4
				l-0.5-0.3l0.2-3.4h3.9v0.7H8.5l-0.1,2.2c0.4-0.2,0.8-0.3,1.3-0.3c1.3,0,2.3,0.8,2.3,2.1v0c0,1.4-1,2.3-2.4,2.3
				C8.6,104.6,7.8,104.1,7.2,103.5z"/>
		</g>
		<g class="st0">
			<path class="st1" d="M13.1,101L13.1,101c0-2,1.1-3.6,2.9-3.6c1.7,0,2.8,1.6,2.8,3.6v0c0,2-1.1,3.6-2.8,3.6
				C14.2,104.6,13.1,103,13.1,101z M18,101L18,101c0-1.5-0.8-2.9-2.1-2.9c-1.3,0-2,1.3-2,2.9v0c0,1.5,0.8,2.9,2.1,2.9
				S18,102.6,18,101z"/>
		</g>
		<line class="st2" x1="23.8" y1="101.8" x2="263.6" y2="101.8"/>
		<line class="st2" x1="23.8" y1="53.4" x2="263.6" y2="53.4"/>
		<line class="st2" x1="23.8" y1="77.6" x2="263.6" y2="77.6"/>
		<line class="st2" x1="23.8" y1="29.1" x2="263.6" y2="29.1"/>
		<line class="st2" x1="23.8" y1="4.9" x2="263.6" y2="4.9"/>
		<rect x="31.1" y="14.9" class="st3" width="15.4" height="109.8"/>
		<rect x="61.1" y="26.5" class="st3" width="15.4" height="98.2"/>
		<rect x="91.1" y="30.4" class="st3" width="15.4" height="94.3"/>
		<rect x="121.1" y="56" class="st3" width="15.4" height="68.8"/>
		<rect x="151" y="62.4" class="st3" width="15.4" height="61.3"/>
		<rect x="181" y="64" class="st3" width="15.4" height="60.7"/>
		<rect x="211" y="73.7" class="st3" width="15.4" height="51"/>
		<rect x="241" y="75.3" class="st3" width="15.4" height="49.4"/>
		<polyline class="st4" points="263.6,124.2 26.8,124.2 26.8,2.1 		"/>
	</g>
</g>
</svg>
