<svg xmlns="http://www.w3.org/2000/svg" viewBox="0 0 269 333.61"><defs><style>.cls-1{fill:none;stroke:#76bc21;stroke-miterlimit:10;stroke-width:1.04px;}.cls-2{fill:#76777a;}.cls-3{fill:#76bc21;}.cls-4{fill:#7b7c80;}.cls-5{fill:#4b3d2a;}.cls-6{fill:#00263e;}.cls-7{fill:#0082ca;}.cls-8{fill:#fff;}</style></defs><title>Asset 2</title><g id="Layer_2" data-name="Layer 2"><g id="Layer_1-2" data-name="Layer 1"><polyline class="cls-1" points="73 99.44 66.51 99.44 66.51 10.68 73 10.68"/><polyline class="cls-1" points="73 325.67 66.51 325.67 66.51 236.9 73 236.9"/><polyline class="cls-1" points="185.7 226.79 192.19 226.79 192.19 138.02 185.7 138.02"/><path class="cls-2" d="M236.35,47a22.87,22.87,0,0,0,.8-5.89A22.56,22.56,0,0,0,214.6,18.56a22.13,22.13,0,0,0-5.25.62,22.45,22.45,0,0,0-6.06,2.44,30.49,30.49,0,0,0-58.2-.47,20.69,20.69,0,0,0-32.42,15.56A29.23,29.23,0,1,0,125,93.44a20.69,20.69,0,0,0,22,3.62,30.77,30.77,0,0,0,12,10.15,30.44,30.44,0,0,0,35.25-6.77,20.63,20.63,0,0,0,13.91,5.39c.42,0,.84,0,1.26,0A20.68,20.68,0,0,0,227,93.55,24,24,0,1,0,236.35,47"/><path class="cls-3" d="M141.75,83.6a8.33,8.33,0,0,0-10-10.29,8.41,8.41,0,0,0-2.24.9,11.28,11.28,0,0,0-10.79-8,11.12,11.12,0,0,0-5.61,1.5A11.29,11.29,0,0,0,108,74a7.56,7.56,0,0,0-4.35-1.36A7.65,7.65,0,0,0,96,79.79a10.81,10.81,0,0,0,1,21.57,10.67,10.67,0,0,0,3.5-.59,7.63,7.63,0,0,0,8.12,1.34,11.39,11.39,0,0,0,4.44,3.75,11.22,11.22,0,0,0,13-2.51,7.61,7.61,0,0,0,5.15,2h.46a7.68,7.68,0,0,0,6.53-4.53,8.88,8.88,0,1,0,3.45-17.21"/><path class="cls-2" d="M166.05,177.77a8.89,8.89,0,0,0-8.81-11.1,8.76,8.76,0,0,0-2.07.28,9,9,0,0,0-2.38,1,12.09,12.09,0,0,0-11.7-8.35,11.94,11.94,0,0,0-6,1.71,12.1,12.1,0,0,0-5.36,6.86A8.19,8.19,0,0,0,117,174.56a11.57,11.57,0,0,0,1.52,23.07,11.29,11.29,0,0,0,3.74-.7,8.13,8.13,0,0,0,5.5,2,8,8,0,0,0,3.22-.72,12,12,0,0,0,18.73,1,8.16,8.16,0,0,0,5.55,2l.5,0a8.2,8.2,0,0,0,6.9-5,9.41,9.41,0,0,0,3.28.53,9.52,9.52,0,0,0,.1-19"/><path class="cls-3" d="M160.89,184.3a7.59,7.59,0,0,0,.23-1.92,7.35,7.35,0,0,0-7.47-7.21,7.42,7.42,0,0,0-1.71.23,7.17,7.17,0,0,0-1.95.83,9.93,9.93,0,0,0-19,.18,6.72,6.72,0,0,0-10.46,5.25,9.51,9.51,0,1,0,4.32,18.39,6.72,6.72,0,0,0,4.52,1.64,6.5,6.5,0,0,0,2.65-.59,9.87,9.87,0,0,0,8.21,4.11,9.89,9.89,0,0,0,7.19-3.28,6.7,6.7,0,0,0,4.56,1.68l.41,0a6.75,6.75,0,0,0,5.67-4.08,7.82,7.82,0,1,0,2.78-15.21"/><path class="cls-2" d="M174.55,275a13.26,13.26,0,0,0-13.12-16.54,13.54,13.54,0,0,0-3.08.42,13.31,13.31,0,0,0-3.55,1.5,18,18,0,0,0-34.32.33,12,12,0,0,0-7-2.05,12.21,12.21,0,0,0-12,11.55,17.24,17.24,0,1,0,7.84,33.32,12.18,12.18,0,0,0,13,1.91,18.08,18.08,0,0,0,7.18,5.86A17.95,17.95,0,0,0,150.24,307a12.2,12.2,0,0,0,8.26,3l.74,0a12.2,12.2,0,0,0,10.27-7.39,14.17,14.17,0,1,0,5-27.55"/><path class="cls-3" d="M168.61,300.73a4.83,4.83,0,0,0-4.81-6.06,4.67,4.67,0,0,0-1.13.15,5,5,0,0,0-1.3.55,6.59,6.59,0,0,0-12.58.12,4.47,4.47,0,0,0-6.95,3.49,6.32,6.32,0,1,0,2.87,12.21,4.42,4.42,0,0,0,3,1.1,4.32,4.32,0,0,0,1.76-.4,6.59,6.59,0,0,0,10.23.56,4.51,4.51,0,0,0,3,1.11H163a4.5,4.5,0,0,0,3.77-2.72,4.84,4.84,0,0,0,1.79.29,5.2,5.2,0,0,0,.05-10.39"/><path class="cls-3" d="M5,81.52V80.19C7.84,78.1,8.37,77.64,8.37,77c0-.46-.42-.7-.9-.7A2.42,2.42,0,0,0,5.72,77l-.93-1.14a3.58,3.58,0,0,1,2.65-1.11c1.54,0,2.64.88,2.64,2.22,0,1-.71,1.89-2.34,3h2.39v1.49Z"/><path class="cls-3" d="M10.78,78.2c0-1.76.89-3.44,2.8-3.44s2.81,1.68,2.81,3.44-.9,3.44-2.81,3.44S10.78,80,10.78,78.2Zm3.9,0c0-1.18-.31-1.92-1.1-1.92s-1.09.74-1.09,1.92.31,1.92,1.09,1.92S14.68,79.38,14.68,78.2Z"/><path class="cls-3" d="M18.7,81.52V77.06l-1.1,1.13-1-1,2.28-2.3h1.46v6.66Z"/><path class="cls-3" d="M22.15,81.52l2.21-5.16H21.18v-1.5H26.3v1.19L24,81.52Z"/><path class="cls-3" d="M29.56,81.52V74.86h1.68V80h2.63v1.49Z"/><path class="cls-3" d="M37.49,81.52V81a1.92,1.92,0,0,1-1.46.6,1.57,1.57,0,0,1-1.63-1.58A1.49,1.49,0,0,1,36,78.51a1.85,1.85,0,0,1,1.46.56v-.58c0-.42-.35-.7-1-.7a2.08,2.08,0,0,0-1.34.51l-.54-1a3.3,3.3,0,0,1,2.15-.75c1.14,0,2.2.43,2.2,1.93v3Zm0-1.24v-.42a1,1,0,0,0-.84-.34c-.4,0-.75.18-.75.55s.35.56.75.56A1,1,0,0,0,37.49,80.28Z"/><path class="cls-3" d="M43.31,81.52V78.74a.7.7,0,0,0-.78-.8,1.17,1.17,0,0,0-.92.47v3.11H40.1V76.7h1.51v.59a2.13,2.13,0,0,1,1.64-.71,1.41,1.41,0,0,1,1.56,1.53v3.41Z"/><path class="cls-3" d="M49.1,81.52V81a1.79,1.79,0,0,1-1.4.68c-1.17,0-2.1-.9-2.1-2.53s.91-2.53,2.1-2.53a1.74,1.74,0,0,1,1.4.69V74.86h1.5v6.66Zm0-1.67V78.37a1.23,1.23,0,0,0-.91-.43,1.18,1.18,0,0,0,0,2.34A1.23,1.23,0,0,0,49.1,79.85Z"/><path class="cls-3" d="M52,81.52V78h-.78V76.7H52v-.24a1.61,1.61,0,0,1,1.69-1.7,2.09,2.09,0,0,1,1,.22l-.28,1.07a.68.68,0,0,0-.4-.12.48.48,0,0,0-.5.53v.24h1V78h-1v3.48Zm3-6.14a.86.86,0,1,1,.86.89A.86.86,0,0,1,55,75.38Zm.1,6.14V76.7h1.51v4.82Z"/><path class="cls-3" d="M57.73,81.52V74.86h1.51v6.66Z"/><path class="cls-3" d="M60.34,81.52V74.86h1.51v6.66Z"/><path class="cls-3" d="M16.25,93.52V86.86H21v1.5H17.93v1h3v1.5h-3V92H21v1.49Z"/><path class="cls-3" d="M28,93.52V90.59a.58.58,0,0,0-.63-.65,1.09,1.09,0,0,0-.85.47v3.11H25V90.59a.57.57,0,0,0-.63-.65,1.11,1.11,0,0,0-.84.47v3.11H22V88.7h1.51v.59a2.09,2.09,0,0,1,1.56-.71,1.29,1.29,0,0,1,1.34.86A2,2,0,0,1,28,88.58,1.29,1.29,0,0,1,29.45,90v3.49Z"/><path class="cls-3" d="M30.45,87.38a.86.86,0,1,1,.86.89A.86.86,0,0,1,30.45,87.38Zm.11,6.14V88.7h1.51v4.82Z"/><path class="cls-3" d="M32.76,92.9l.63-1.05a3,3,0,0,0,1.66.64c.45,0,.64-.16.64-.37,0-.63-2.75,0-2.75-2,0-.85.71-1.59,2-1.59a3.3,3.3,0,0,1,2,.64l-.58,1A2.12,2.12,0,0,0,35,89.71c-.36,0-.6.15-.6.35,0,.56,2.75,0,2.75,2,0,.92-.79,1.6-2.15,1.6A3.48,3.48,0,0,1,32.76,92.9Z"/><path class="cls-3" d="M37.45,92.9l.62-1.05a3,3,0,0,0,1.67.64c.45,0,.64-.16.64-.37,0-.63-2.76,0-2.76-2,0-.85.72-1.59,2-1.59a3.3,3.3,0,0,1,2,.64l-.58,1a2.08,2.08,0,0,0-1.39-.53c-.35,0-.6.15-.6.35,0,.56,2.76,0,2.76,2,0,.92-.8,1.6-2.16,1.6A3.48,3.48,0,0,1,37.45,92.9Z"/><path class="cls-3" d="M42.48,87.38a.87.87,0,1,1,.87.89A.87.87,0,0,1,42.48,87.38Zm.11,6.14V88.7H44.1v4.82Z"/><path class="cls-3" d="M44.88,91.11a2.59,2.59,0,1,1,2.58,2.53A2.47,2.47,0,0,1,44.88,91.11Zm3.62,0a1,1,0,1,0-2.06,0,1,1,0,1,0,2.06,0Z"/><path class="cls-3" d="M54.05,93.52V90.74a.7.7,0,0,0-.78-.8,1.17,1.17,0,0,0-.92.47v3.11H50.84V88.7h1.51v.59A2.13,2.13,0,0,1,54,88.58a1.41,1.41,0,0,1,1.56,1.53v3.41Z"/><path class="cls-3" d="M56.25,92.9l.63-1.05a3,3,0,0,0,1.66.64c.45,0,.64-.16.64-.37,0-.63-2.75,0-2.75-2,0-.85.71-1.59,2-1.59a3.3,3.3,0,0,1,2,.64l-.58,1a2.12,2.12,0,0,0-1.39-.53c-.36,0-.6.15-.6.35,0,.56,2.75,0,2.75,2,0,.92-.79,1.6-2.15,1.6A3.48,3.48,0,0,1,56.25,92.9Z"/><path class="cls-3" d="M23.39,104.67l.92-1.19a2.49,2.49,0,0,0,1.7.64c.71,0,1.07-.35,1.07-.76s-.35-.77-1-.77a1.77,1.77,0,0,0-1.3.5l-1.16-.29V98.86h4.74v1.5H25.28v1.29a2,2,0,0,1,1.4-.53,2.08,2.08,0,0,1,2.11,2.16c0,1.44-1.07,2.36-2.76,2.36A3.58,3.58,0,0,1,23.39,104.67Z"/><path class="cls-3" d="M31.14,105.52v-4.46l-1.09,1.13-1-1,2.28-2.3h1.46v6.66Z"/><path class="cls-3" d="M34,105l.72-1.31a1.81,1.81,0,0,0,1.26.44,1.47,1.47,0,0,0,1.52-1.52v-.08a2,2,0,0,1-1.59.76,2.15,2.15,0,0,1-2.28-2.19,2.39,2.39,0,0,1,2.61-2.34c2.07,0,3,1.52,3,3.44A3.12,3.12,0,0,1,36,105.63,3.17,3.17,0,0,1,34,105Zm3.5-3.62a1.1,1.1,0,0,0-1.16-1.1c-.62,0-1,.39-1,.76,0,.56.56.79,1.06.79A1.44,1.44,0,0,0,37.49,101.37Z"/><path class="cls-3" d="M40.55,106.94l-.62-.52a1.93,1.93,0,0,0,.83-1,1.17,1.17,0,0,1-.23,0,.77.77,0,0,1-.76-.82.9.9,0,0,1,.9-.91,1,1,0,0,1,1,1.14A2.49,2.49,0,0,1,40.55,106.94Z"/><path class="cls-3" d="M42.26,103.77a1.9,1.9,0,0,1,1.32-1.68,1.64,1.64,0,0,1-1.21-1.55c0-1.29,1.38-1.78,2.66-1.78s2.67.49,2.67,1.78a1.65,1.65,0,0,1-1.23,1.55,1.9,1.9,0,0,1,1.32,1.68c0,1.29-1.35,1.87-2.76,1.87S42.26,105.07,42.26,103.77Zm3.83-.2c0-.41-.65-.65-1.06-.7s-1.06.29-1.06.7.43.64,1.06.64S46.09,104,46.09,103.57ZM46,100.79c0-.37-.38-.6-.94-.6s-1,.23-1,.6.55.57,1,.63S46,101.15,46,100.79Z"/><path class="cls-3" d="M48.31,102.2c0-1.76.9-3.44,2.81-3.44s2.8,1.68,2.8,3.44-.89,3.44-2.8,3.44S48.31,104,48.31,102.2Zm3.9,0c0-1.18-.31-1.92-1.09-1.92S50,101,50,102.2s.31,1.92,1.1,1.92S52.21,103.38,52.21,102.2Z"/><path class="cls-3" d="M55.15,105.52l2.22-5.16H54.18v-1.5h5.13v1.19L57,105.52Z"/><path class="cls-4" d="M1.86,12.6V11.26C4.69,9.17,5.22,8.71,5.22,8.05c0-.46-.42-.7-.9-.7a2.41,2.41,0,0,0-1.74.73L1.65,6.94A3.55,3.55,0,0,1,4.29,5.83c1.54,0,2.65.88,2.65,2.22,0,1-.72,1.89-2.34,3H7v1.5Z"/><path class="cls-4" d="M7.64,9.27c0-1.76.89-3.44,2.8-3.44s2.8,1.68,2.8,3.44-.89,3.45-2.8,3.45S7.64,11,7.64,9.27Zm3.89,0c0-1.18-.31-1.92-1.09-1.92s-1.1.74-1.1,1.92.31,1.93,1.1,1.93S11.53,10.45,11.53,9.27Z"/><path class="cls-4" d="M13.75,9.27c0-1.76.89-3.44,2.8-3.44s2.8,1.68,2.8,3.44-.89,3.45-2.8,3.45S13.75,11,13.75,9.27Zm3.9,0c0-1.18-.31-1.92-1.1-1.92s-1.09.74-1.09,1.92.31,1.93,1.09,1.93S17.65,10.45,17.65,9.27Z"/><path class="cls-4" d="M20,11.75l.92-1.2a2.5,2.5,0,0,0,1.7.65c.71,0,1.07-.36,1.07-.77s-.35-.77-1-.77a1.77,1.77,0,0,0-1.3.5l-1.16-.29V5.93H25v1.5H21.89V8.72a2,2,0,0,1,1.4-.53,2.09,2.09,0,0,1,2.11,2.17c0,1.44-1.07,2.36-2.76,2.36A3.58,3.58,0,0,1,20,11.75Z"/><path class="cls-4" d="M28.75,12.6V5.93h1.69V11.1h2.62v1.5Z"/><path class="cls-4" d="M36.69,12.6v-.48a1.93,1.93,0,0,1-1.47.6,1.57,1.57,0,0,1-1.62-1.59,1.49,1.49,0,0,1,1.62-1.55,1.86,1.86,0,0,1,1.47.56V9.56c0-.42-.35-.7-1-.7a2.08,2.08,0,0,0-1.34.51l-.54-1A3.3,3.3,0,0,1,36,7.65c1.13,0,2.2.43,2.2,1.93v3Zm0-1.24v-.43a1.07,1.07,0,0,0-.84-.34c-.4,0-.76.18-.76.56s.36.56.76.56A1,1,0,0,0,36.69,11.36Z"/><path class="cls-4" d="M42.5,12.6V9.81c0-.59-.3-.8-.77-.8a1.15,1.15,0,0,0-.92.47V12.6H39.3V7.77h1.51v.59a2.1,2.1,0,0,1,1.63-.71A1.41,1.41,0,0,1,44,9.18V12.6Z"/><path class="cls-4" d="M48.29,12.6V12a1.79,1.79,0,0,1-1.4.68c-1.16,0-2.09-.9-2.09-2.54s.91-2.53,2.09-2.53a1.74,1.74,0,0,1,1.4.69V5.93h1.5V12.6Zm0-1.68V9.44A1.2,1.2,0,0,0,47.38,9a1.06,1.06,0,0,0-1,1.17,1.07,1.07,0,0,0,1,1.18A1.21,1.21,0,0,0,48.29,10.92Z"/><path class="cls-4" d="M51.23,12.6V9.11h-.79V7.77h.79V7.53a1.61,1.61,0,0,1,1.69-1.7,2.15,2.15,0,0,1,1,.22l-.28,1.07A.69.69,0,0,0,53.23,7a.49.49,0,0,0-.5.53v.24h1V9.11h-1V12.6Zm3-6.15a.87.87,0,1,1,1.73,0,.87.87,0,1,1-1.73,0Zm.11,6.15V7.77h1.51V12.6Z"/><path class="cls-4" d="M56.93,12.6V5.93h1.51V12.6Z"/><path class="cls-4" d="M59.54,12.6V5.93H61V12.6Z"/><path class="cls-4" d="M16.25,24.6V17.93H21v1.5H17.93v1h3V22h-3V23.1H21v1.5Z"/><path class="cls-4" d="M28,24.6V21.66a.58.58,0,0,0-.63-.65,1.09,1.09,0,0,0-.85.47V24.6H25V21.66a.57.57,0,0,0-.63-.65,1.11,1.11,0,0,0-.84.47V24.6H22V19.77h1.51v.59a2.09,2.09,0,0,1,1.56-.71,1.29,1.29,0,0,1,1.34.86A2,2,0,0,1,28,19.65a1.29,1.29,0,0,1,1.42,1.45v3.5Z"/><path class="cls-4" d="M30.45,18.45a.86.86,0,1,1,.86.89A.86.86,0,0,1,30.45,18.45Zm.11,6.15V19.77h1.51V24.6Z"/><path class="cls-4" d="M32.76,24l.63-1.06a2.91,2.91,0,0,0,1.66.64c.45,0,.64-.15.64-.37,0-.63-2.75,0-2.75-2,0-.85.71-1.59,2-1.59a3.3,3.3,0,0,1,2,.64l-.58,1A2.12,2.12,0,0,0,35,20.78c-.36,0-.6.15-.6.35,0,.56,2.75,0,2.75,2,0,.92-.79,1.6-2.15,1.6A3.48,3.48,0,0,1,32.76,24Z"/><path class="cls-4" d="M37.45,24l.62-1.06a3,3,0,0,0,1.67.64c.45,0,.64-.15.64-.37,0-.63-2.76,0-2.76-2,0-.85.72-1.59,2-1.59a3.3,3.3,0,0,1,2,.64l-.58,1a2.08,2.08,0,0,0-1.39-.53c-.35,0-.6.15-.6.35,0,.56,2.76,0,2.76,2,0,.92-.8,1.6-2.16,1.6A3.48,3.48,0,0,1,37.45,24Z"/><path class="cls-4" d="M42.48,18.45a.87.87,0,1,1,.87.89A.87.87,0,0,1,42.48,18.45Zm.11,6.15V19.77H44.1V24.6Z"/><path class="cls-4" d="M44.88,22.18a2.59,2.59,0,1,1,2.58,2.54A2.47,2.47,0,0,1,44.88,22.18Zm3.62,0a1,1,0,1,0-2.06,0,1,1,0,1,0,2.06,0Z"/><path class="cls-4" d="M54.05,24.6V21.81a.7.7,0,0,0-.78-.8,1.17,1.17,0,0,0-.92.47V24.6H50.84V19.77h1.51v.59A2.13,2.13,0,0,1,54,19.65a1.41,1.41,0,0,1,1.56,1.53V24.6Z"/><path class="cls-4" d="M56.25,24l.63-1.06a2.91,2.91,0,0,0,1.66.64c.45,0,.64-.15.64-.37,0-.63-2.75,0-2.75-2,0-.85.71-1.59,2-1.59a3.3,3.3,0,0,1,2,.64l-.58,1a2.12,2.12,0,0,0-1.39-.53c-.36,0-.6.15-.6.35,0,.56,2.75,0,2.75,2,0,.92-.79,1.6-2.15,1.6A3.48,3.48,0,0,1,56.25,24Z"/><path class="cls-5" d="M37.49,63.05a8.3,8.3,0,0,1,.68-2.47,5.76,5.76,0,0,1,1.28-1.85,3.63,3.63,0,0,1,2.26-1.08,7.11,7.11,0,0,1,1-2.41,5.58,5.58,0,0,1,9.26-.4,7.17,7.17,0,0,1,1.19,2.34,3.92,3.92,0,0,1,.82-.09,5.32,5.32,0,0,1,2,.34A6.14,6.14,0,0,1,58.42,59a9.37,9.37,0,0,1,2.07,3.56l-1-.14c-.63-.08-1.51.42-2.59.33l-1.74-.16-1-.09-1,0-2.08-.08c-.72,0-1.44,0-2.16,0-1.45,0-2.88.15-4.24.23s-2.6.32-3.68.44-2-.32-2.59-.2l-1,.18"/><path class="cls-6" d="M30.26,52.23l.58.18,2.68-8.61-.58-.18Zm4.09,1.27.59.19,2.68-8.61L37,44.89ZM22.07,49.68l.59.18,2.68-8.61-.59-.18ZM26.16,51l.59.19,2.68-8.61-.58-.18ZM18,48.4l.59.19L21.25,40l-.59-.18Zm-4.09-1.27.58.18,2.68-8.61-.58-.18Zm28.38-1.28-.52-.16-3,9.81a.61.61,0,0,1-.77.4L10.16,47.26a.62.62,0,0,1-.4-.77l3.05-9.81-.51-.16.22-.72,30,9.33Z"/><path class="cls-6" d="M5.76,52H.58l1.15-4h4Zm0,2.3H5.18V53.14h.58ZM8.06,56V47.1a.29.29,0,0,0-.29-.29h-6a.37.37,0,0,0-.36.27L.17,51.39A4.25,4.25,0,0,0,0,52.56v6a.28.28,0,0,0,.29.28h2v-.28a3.17,3.17,0,1,1,6.33,0v.28h.58V56Zm-2.59,4a1.44,1.44,0,1,1,1.44-1.44,1.45,1.45,0,0,1-1.44,1.44m0-4a2.59,2.59,0,1,0,2.59,2.59A2.59,2.59,0,0,0,5.47,56m24.13,4A1.44,1.44,0,1,1,31,58.61a1.45,1.45,0,0,1-1.44,1.44m0-4a2.59,2.59,0,1,0,2.59,2.59A2.59,2.59,0,0,0,29.6,56m-7.44,4a1.44,1.44,0,1,1,1.44-1.44,1.45,1.45,0,0,1-1.44,1.44m0-4a2.59,2.59,0,1,0,2.59,2.59A2.59,2.59,0,0,0,22.16,56m4.32,2.1v.77h-1.2v-.77A3.15,3.15,0,0,0,24,56h3.8a3.15,3.15,0,0,0-1.3,2.1m8.59.77H32.75a2.62,2.62,0,0,0,0-.28A3.16,3.16,0,0,0,31.42,56h3.65ZM16.69,56h3.65A3.17,3.17,0,0,0,19,58.61a2.64,2.64,0,0,0,0,.28H16.69Zm-6.91.57v2.3a.58.58,0,0,0,.58.58h5.18a.58.58,0,0,0,.58-.58v-2.3a.58.58,0,0,0-.58-.57H10.36a.58.58,0,0,0-.58.57"/><polygon class="cls-6" points="13.92 53.02 14.31 53.13 15.43 49.37 16.15 49.58 15.03 53.35 15.42 53.46 14.79 55.58 13.16 55.58 13.92 53.02"/><path class="cls-3" d="M202.53,208.88v-1.34c2.83-2.09,3.36-2.55,3.36-3.21,0-.46-.42-.7-.9-.7a2.42,2.42,0,0,0-1.75.73l-.93-1.14a3.58,3.58,0,0,1,2.65-1.11c1.54,0,2.64.88,2.64,2.22,0,1-.71,1.89-2.34,3h2.39v1.5Z"/><path class="cls-3" d="M208.3,205.55c0-1.76.89-3.44,2.8-3.44s2.8,1.68,2.8,3.44S213,209,211.1,209,208.3,207.31,208.3,205.55Zm3.9,0c0-1.18-.31-1.92-1.1-1.92s-1.09.74-1.09,1.92.31,1.93,1.09,1.93S212.2,206.73,212.2,205.55Z"/><path class="cls-3" d="M216.22,208.88v-4.47l-1.1,1.13-1-1,2.28-2.3h1.46v6.67Z"/><path class="cls-3" d="M219.67,208.88l2.21-5.17H218.7v-1.5h5.12v1.19l-2.3,5.48Z"/><path class="cls-3" d="M227.08,208.88v-6.67h4.79v1.5h-3.11v1h3v1.5h-3v2.63Z"/><path class="cls-3" d="M232.74,208.88v-6.67h1.51v6.67Z"/><path class="cls-3" d="M235,206.46a2.47,2.47,0,1,1,4.93.16V207H236.6a1.13,1.13,0,0,0,1.19.86,2,2,0,0,0,1.17-.41l.64,1a3,3,0,0,1-2,.64A2.44,2.44,0,0,1,235,206.46Zm2.51-1.34a1,1,0,0,0-1,.83h1.95A.91.91,0,0,0,237.55,205.12Z"/><path class="cls-3" d="M240.41,206.46a2.47,2.47,0,1,1,4.93.16V207H242a1.13,1.13,0,0,0,1.19.86,2,2,0,0,0,1.17-.41l.64,1a3,3,0,0,1-2,.64A2.44,2.44,0,0,1,240.41,206.46Zm2.51-1.34a1,1,0,0,0-1,.83h2A.91.91,0,0,0,242.92,205.12Z"/><path class="cls-3" d="M246.38,207.58v-2.19h-.78v-1.34h.78v-1.32h1.5v1.32h1v1.34h-1v1.76a.44.44,0,0,0,.42.49.55.55,0,0,0,.38-.12l.3,1.16a1.64,1.64,0,0,1-1.12.32A1.3,1.3,0,0,1,246.38,207.58Z"/><path class="cls-3" d="M202.69,220.88v-6.67h4.79v1.5h-3.11v1h3v1.5h-3v1.13h3.11v1.5Z"/><path class="cls-3" d="M214.38,220.88v-2.94a.57.57,0,0,0-.62-.65,1.08,1.08,0,0,0-.85.47v3.12H211.4v-2.94a.57.57,0,0,0-.63-.65,1.09,1.09,0,0,0-.84.47v3.12h-1.51v-4.83h1.51v.59a2.06,2.06,0,0,1,1.55-.71,1.29,1.29,0,0,1,1.35.86,2,2,0,0,1,1.63-.86,1.29,1.29,0,0,1,1.42,1.45v3.5Z"/><path class="cls-3" d="M216.89,214.73a.86.86,0,1,1,.86.89A.86.86,0,0,1,216.89,214.73Zm.1,6.15v-4.83h1.51v4.83Z"/><path class="cls-3" d="M219.2,220.26l.63-1.06a2.89,2.89,0,0,0,1.66.64c.45,0,.64-.15.64-.37,0-.63-2.76,0-2.76-1.95,0-.85.72-1.59,2-1.59a3.28,3.28,0,0,1,2,.64l-.58,1a2.08,2.08,0,0,0-1.39-.53c-.35,0-.6.15-.6.35,0,.56,2.76,0,2.76,2,0,.92-.8,1.6-2.16,1.6A3.48,3.48,0,0,1,219.2,220.26Z"/><path class="cls-3" d="M223.87,220.26l.63-1.06a2.92,2.92,0,0,0,1.67.64c.45,0,.63-.15.63-.37,0-.63-2.75,0-2.75-1.95,0-.85.71-1.59,2-1.59a3.3,3.3,0,0,1,2,.64l-.58,1a2.1,2.1,0,0,0-1.39-.53c-.36,0-.6.15-.6.35,0,.56,2.75,0,2.75,2,0,.92-.79,1.6-2.15,1.6A3.48,3.48,0,0,1,223.87,220.26Z"/><path class="cls-3" d="M228.91,214.73a.86.86,0,1,1,.86.89A.86.86,0,0,1,228.91,214.73Zm.11,6.15v-4.83h1.51v4.83Z"/><path class="cls-3" d="M231.31,218.46a2.58,2.58,0,1,1,2.58,2.54A2.47,2.47,0,0,1,231.31,218.46Zm3.62,0a1.06,1.06,0,0,0-1-1.17,1.19,1.19,0,0,0,0,2.35A1.06,1.06,0,0,0,234.93,218.46Z"/><path class="cls-3" d="M240.47,220.88v-2.79c0-.59-.3-.8-.77-.8a1.15,1.15,0,0,0-.92.47v3.12h-1.51v-4.83h1.51v.59a2.1,2.1,0,0,1,1.63-.71,1.41,1.41,0,0,1,1.57,1.53v3.42Z"/><path class="cls-3" d="M242.68,220.26l.63-1.06a2.89,2.89,0,0,0,1.66.64c.45,0,.64-.15.64-.37,0-.63-2.75,0-2.75-1.95,0-.85.71-1.59,2-1.59a3.28,3.28,0,0,1,2,.64l-.58,1a2.08,2.08,0,0,0-1.39-.53c-.35,0-.59.15-.59.35,0,.56,2.75,0,2.75,2,0,.92-.8,1.6-2.16,1.6A3.48,3.48,0,0,1,242.68,220.26Z"/><path class="cls-3" d="M202.35,229.56a3.12,3.12,0,0,1,3.24-3.45,3.23,3.23,0,0,1,2,.64l-.73,1.32a1.79,1.79,0,0,0-1.25-.44,1.5,1.5,0,0,0-1.53,1.52v.08a2,2,0,0,1,1.6-.76,2.15,2.15,0,0,1,2.27,2.19,2.39,2.39,0,0,1-2.61,2.34C203.25,233,202.35,231.47,202.35,229.56Zm3.87,1.16c0-.56-.56-.79-1.07-.79a1.48,1.48,0,0,0-1.09.45,1.1,1.1,0,0,0,1.15,1.1C205.84,231.48,206.22,231.09,206.22,230.72Z"/><path class="cls-3" d="M209.15,232.88l2.22-5.17h-3.19v-1.5h5.13v1.19L211,232.88Z"/><path class="cls-3" d="M213.79,234.3l-.63-.52a1.89,1.89,0,0,0,.83-.95,1,1,0,0,1-.22,0A.77.77,0,0,1,213,232a.91.91,0,0,1,.9-.92,1,1,0,0,1,1,1.15A2.51,2.51,0,0,1,213.79,234.3Z"/><path class="cls-3" d="M215.67,232.88v-1.34c2.83-2.09,3.36-2.55,3.36-3.21,0-.46-.42-.7-.9-.7a2.4,2.4,0,0,0-1.74.73l-.94-1.14a3.58,3.58,0,0,1,2.65-1.11c1.54,0,2.64.88,2.64,2.22,0,1-.71,1.89-2.34,3h2.39v1.5Z"/><path class="cls-3" d="M221.58,232l.92-1.2a2.5,2.5,0,0,0,1.7.65c.71,0,1.06-.36,1.06-.77s-.34-.77-1-.77a1.75,1.75,0,0,0-1.29.5l-1.16-.29v-3.94h4.74v1.5h-3.06V229a2,2,0,0,1,1.4-.53,2.09,2.09,0,0,1,2.11,2.17c0,1.44-1.07,2.36-2.76,2.36A3.58,3.58,0,0,1,221.58,232Z"/><path class="cls-3" d="M227.36,232l.85-1.17a2.68,2.68,0,0,0,1.79.7c.72,0,1.09-.28,1.09-.65s-.27-.56-1.16-.56h-.88v-1.53h.88c.67,0,1.06-.17,1.06-.52s-.47-.61-1.1-.61a2.39,2.39,0,0,0-1.63.64l-.81-1.08a3.34,3.34,0,0,1,2.62-1.08c1.66,0,2.59.73,2.59,1.83a1.6,1.6,0,0,1-1.43,1.5,1.65,1.65,0,0,1,1.54,1.58c0,1.17-1.08,2-2.7,2A3.5,3.5,0,0,1,227.36,232Z"/><path class="cls-4" d="M202.53,139.93v-1.34c2.83-2.09,3.36-2.55,3.36-3.21,0-.46-.42-.7-.9-.7a2.42,2.42,0,0,0-1.75.73l-.93-1.14a3.58,3.58,0,0,1,2.65-1.11c1.54,0,2.64.88,2.64,2.22,0,1-.71,1.89-2.34,3.05h2.39v1.5Z"/><path class="cls-4" d="M208.3,136.6c0-1.76.89-3.44,2.8-3.44s2.8,1.68,2.8,3.44-.89,3.45-2.8,3.45S208.3,138.36,208.3,136.6Zm3.9,0c0-1.18-.31-1.92-1.1-1.92s-1.09.74-1.09,1.92.31,1.93,1.09,1.93S212.2,137.78,212.2,136.6Z"/><path class="cls-4" d="M214.42,136.6c0-1.76.89-3.44,2.8-3.44s2.8,1.68,2.8,3.44-.89,3.45-2.8,3.45S214.42,138.36,214.42,136.6Zm3.89,0c0-1.18-.31-1.92-1.09-1.92s-1.1.74-1.1,1.92.31,1.93,1.1,1.93S218.31,137.78,218.31,136.6Z"/><path class="cls-4" d="M220.67,139.08l.92-1.2a2.5,2.5,0,0,0,1.69.65c.72,0,1.07-.36,1.07-.77s-.34-.77-1-.77a1.73,1.73,0,0,0-1.29.5l-1.17-.29v-3.94h4.75v1.5h-3.06v1.29a2,2,0,0,1,1.4-.53,2.09,2.09,0,0,1,2.11,2.17c0,1.44-1.07,2.36-2.77,2.36A3.57,3.57,0,0,1,220.67,139.08Z"/><path class="cls-4" d="M229.42,139.93v-6.67h4.79v1.5H231.1v1h3v1.5h-3v2.63Z"/><path class="cls-4" d="M235.08,139.93v-6.67h1.51v6.67Z"/><path class="cls-4" d="M237.38,137.51A2.47,2.47,0,0,1,239.9,135a2.43,2.43,0,0,1,2.41,2.69V138h-3.37a1.13,1.13,0,0,0,1.19.86,2,2,0,0,0,1.18-.41l.63,1a3,3,0,0,1-2,.64A2.44,2.44,0,0,1,237.38,137.51Zm2.52-1.34a.93.93,0,0,0-1,.83h1.94A.9.9,0,0,0,239.9,136.17Z"/><path class="cls-4" d="M242.75,137.51a2.47,2.47,0,0,1,2.52-2.53,2.43,2.43,0,0,1,2.41,2.69V138h-3.37a1.13,1.13,0,0,0,1.19.86,2,2,0,0,0,1.18-.41l.63,1a3,3,0,0,1-2,.64A2.44,2.44,0,0,1,242.75,137.51Zm2.52-1.34a.93.93,0,0,0-1,.83h1.94A.9.9,0,0,0,245.27,136.17Z"/><path class="cls-4" d="M248.73,138.63v-2.19H248V135.1h.78v-1.32h1.5v1.32h1v1.34h-1v1.76a.44.44,0,0,0,.43.49.59.59,0,0,0,.38-.12l.29,1.16a1.64,1.64,0,0,1-1.12.32A1.3,1.3,0,0,1,248.73,138.63Z"/><path class="cls-4" d="M202.69,151.93v-6.67h4.79v1.5h-3.11v1h3v1.5h-3v1.13h3.11v1.5Z"/><path class="cls-4" d="M214.38,151.93V149a.57.57,0,0,0-.62-.65,1.08,1.08,0,0,0-.85.47v3.12H211.4V149a.57.57,0,0,0-.63-.65,1.09,1.09,0,0,0-.84.47v3.12h-1.51V147.1h1.51v.59a2.06,2.06,0,0,1,1.55-.71,1.29,1.29,0,0,1,1.35.86,2,2,0,0,1,1.63-.86,1.29,1.29,0,0,1,1.42,1.45v3.5Z"/><path class="cls-4" d="M216.89,145.78a.86.86,0,1,1,.86.89A.86.86,0,0,1,216.89,145.78Zm.1,6.15V147.1h1.51v4.83Z"/><path class="cls-4" d="M219.2,151.31l.63-1.06a2.89,2.89,0,0,0,1.66.64c.45,0,.64-.15.64-.37,0-.63-2.76,0-2.76-2,0-.85.72-1.59,2-1.59a3.28,3.28,0,0,1,2,.64l-.58,1a2.08,2.08,0,0,0-1.39-.53c-.35,0-.6.15-.6.35,0,.56,2.76,0,2.76,2,0,.92-.8,1.6-2.16,1.6A3.48,3.48,0,0,1,219.2,151.31Z"/><path class="cls-4" d="M223.87,151.31l.63-1.06a2.92,2.92,0,0,0,1.67.64c.45,0,.63-.15.63-.37,0-.63-2.75,0-2.75-2,0-.85.71-1.59,2-1.59a3.3,3.3,0,0,1,2,.64l-.58,1a2.1,2.1,0,0,0-1.39-.53c-.36,0-.6.15-.6.35,0,.56,2.75,0,2.75,2,0,.92-.79,1.6-2.15,1.6A3.48,3.48,0,0,1,223.87,151.31Z"/><path class="cls-4" d="M228.91,145.78a.86.86,0,1,1,.86.89A.86.86,0,0,1,228.91,145.78Zm.11,6.15V147.1h1.51v4.83Z"/><path class="cls-4" d="M231.31,149.51a2.58,2.58,0,1,1,2.58,2.54A2.47,2.47,0,0,1,231.31,149.51Zm3.62,0a1.06,1.06,0,0,0-1-1.17,1.19,1.19,0,0,0,0,2.35A1.06,1.06,0,0,0,234.93,149.51Z"/><path class="cls-4" d="M240.47,151.93v-2.79c0-.59-.3-.8-.77-.8a1.15,1.15,0,0,0-.92.47v3.12h-1.51V147.1h1.51v.59a2.1,2.1,0,0,1,1.63-.71,1.41,1.41,0,0,1,1.57,1.53v3.42Z"/><path class="cls-4" d="M242.68,151.31l.63-1.06a2.89,2.89,0,0,0,1.66.64c.45,0,.64-.15.64-.37,0-.63-2.75,0-2.75-2,0-.85.71-1.59,2-1.59a3.28,3.28,0,0,1,2,.64l-.58,1a2.08,2.08,0,0,0-1.39-.53c-.35,0-.59.15-.59.35,0,.56,2.75,0,2.75,2,0,.92-.8,1.6-2.16,1.6A3.48,3.48,0,0,1,242.68,151.31Z"/><path class="cls-7" d="M214,175.16l-7.13,3a.25.25,0,0,1-.32-.13.25.25,0,0,1,.13-.32l.22-.1a.47.47,0,0,1,.28-.58l5.8-2.44a.46.46,0,0,1,.61.2l.23-.09a.24.24,0,0,1,.31.13.24.24,0,0,1-.13.32"/><path class="cls-6" d="M212.18,187.76a.91.91,0,0,1-1.19-.49.89.89,0,0,1,.48-1.18.91.91,0,0,1,.71,1.67m-.92-2.18a1.45,1.45,0,1,0,1.9.78,1.45,1.45,0,0,0-1.9-.78"/><path class="cls-6" d="M206,179.31a.48.48,0,0,1,.25-.64l.9-.38.5-.21,4-1.66,1.34-.57.5-.21.45-.19.17.46h0l3.52,9.64a.52.52,0,0,1-.28.65l-4.1,1.73a1.7,1.7,0,0,0-2-2.57,1.64,1.64,0,0,0-.47.3l-2.75-5.8h-.09l-1.19-.08a.87.87,0,0,1-.67-.48"/><path class="cls-6" d="M224.19,180.4h33.9V164H241.28s-17.15-.05-19.81,12.39Z"/><path class="cls-6" d="M236.42,184V185h1.47V184a3.91,3.91,0,0,1,1.61-2.59h-4.69a3.91,3.91,0,0,1,1.61,2.59"/><path class="cls-6" d="M225.85,185h2.85a2,2,0,0,1,0-.35,3.92,3.92,0,0,1,1.66-3.19h-4.49Z"/><path class="cls-6" d="M248.46,181.44H244a3.91,3.91,0,0,1,1.66,3.19c0,.12,0,.24,0,.35h2.85Z"/><path class="cls-6" d="M257,182.15V185a.71.71,0,0,1-.71.71h-6.37a.71.71,0,0,1-.71-.71v-2.83a.71.71,0,0,1,.71-.71h6.37a.71.71,0,0,1,.71.71"/><path class="cls-6" d="M206.54,179a2.21,2.21,0,0,1-3.3-.89,4.93,4.93,0,0,1-.05-1.31c.06,0-1.25-.92-1.05-.67a12.47,12.47,0,0,0-3.61,4.38c-.44,1,.68,3.7-.8,7.89,0,.06,0,.23.06.24a4.35,4.35,0,0,0,1.14,0c.1,0,.22-.19.24-.25,1.58-4.51.92-5.54,1.1-5.37,1.3,1.24,3,3,.59,5.54a.13.13,0,0,0,.08.22l1.05.07a.54.54,0,0,0,.44-.15,5.08,5.08,0,0,0,1.2-2.87c.19-1.32-.85-2.66-1.53-3.64-.43-.62.19-2.71.77-2.22a3.54,3.54,0,0,0,3.53.43c.14-.06.19-.28.21-.46l.09-.81c0-.12-.08-.19-.16-.13"/><path class="cls-6" d="M205.2,175a1.71,1.71,0,0,1-1.45,1.91,1.67,1.67,0,0,1-1.86-1.47,1.7,1.7,0,0,1,1.45-1.9A1.66,1.66,0,0,1,205.2,175"/><path class="cls-6" d="M261.92,179.32h.71V177.9h-.71Zm0-2.84h6.37l-1.41-4.95h-5Zm-2.84,5v-11a.36.36,0,0,1,.36-.35h7.39a.46.46,0,0,1,.45.34l1.51,5.3a5.45,5.45,0,0,1,.21,1.44v7.44a.35.35,0,0,1-.35.35h-2.48v-.35a3.9,3.9,0,1,0-7.79,0V185h-.71v-3.54Z"/><path class="cls-6" d="M262.27,186.4a1.77,1.77,0,1,0-1.77-1.77,1.77,1.77,0,0,0,1.77,1.77m0-5a3.19,3.19,0,1,1-3.19,3.19,3.19,3.19,0,0,1,3.19-3.19"/><path class="cls-6" d="M232.58,186.4a1.77,1.77,0,1,0-1.78-1.77,1.77,1.77,0,0,0,1.78,1.77m0-5a3.19,3.19,0,1,1-3.19,3.19,3.19,3.19,0,0,1,3.19-3.19"/><path class="cls-6" d="M241.73,186.4a1.77,1.77,0,1,0-1.77-1.77,1.77,1.77,0,0,0,1.77,1.77m0-5a3.19,3.19,0,1,1-3.19,3.19,3.19,3.19,0,0,1,3.19-3.19"/><path class="cls-3" d="M5.86,308.19v-1.34c2.83-2.09,3.36-2.55,3.36-3.21,0-.46-.42-.7-.9-.7a2.41,2.41,0,0,0-1.74.73l-.93-1.14a3.55,3.55,0,0,1,2.64-1.11c1.54,0,2.65.88,2.65,2.22,0,1-.72,1.89-2.35,3.05H11v1.5Z"/><path class="cls-3" d="M11.63,304.86c0-1.76.9-3.44,2.81-3.44s2.8,1.68,2.8,3.44-.89,3.45-2.8,3.45S11.63,306.62,11.63,304.86Zm3.9,0c0-1.18-.31-1.92-1.09-1.92s-1.1.74-1.1,1.92.31,1.93,1.1,1.93S15.53,306,15.53,304.86Z"/><path class="cls-3" d="M19.55,308.19v-4.47l-1.1,1.13-1-1,2.29-2.3h1.46v6.67Z"/><path class="cls-3" d="M23,308.19,25.22,303H22v-1.5h5.13v1.19l-2.31,5.48Z"/><path class="cls-3" d="M30.41,308.19v-6.67H35.2V303H32.1v1h3v1.5h-3v2.63Z"/><path class="cls-3" d="M38.63,308.19v-.48a1.93,1.93,0,0,1-1.47.6,1.57,1.57,0,0,1-1.62-1.59,1.49,1.49,0,0,1,1.62-1.55,1.86,1.86,0,0,1,1.47.56v-.58c0-.42-.35-.7-1-.7a2.08,2.08,0,0,0-1.34.51l-.54-1a3.3,3.3,0,0,1,2.15-.75c1.13,0,2.2.43,2.2,1.93v3Zm0-1.24v-.43a1.07,1.07,0,0,0-.84-.34c-.4,0-.76.18-.76.56s.36.56.76.56A1,1,0,0,0,38.63,307Z"/><path class="cls-3" d="M40.93,305.77a2.45,2.45,0,0,1,2.58-2.53,2.24,2.24,0,0,1,1.94.89l-1,.93a1,1,0,0,0-.89-.46,1.18,1.18,0,0,0,0,2.35,1.05,1.05,0,0,0,.89-.47l1,.94a2.27,2.27,0,0,1-1.94.89A2.46,2.46,0,0,1,40.93,305.77Z"/><path class="cls-3" d="M46,302a.87.87,0,1,1,1.73,0A.87.87,0,1,1,46,302Zm.11,6.15v-4.83h1.51v4.83Z"/><path class="cls-3" d="M48.75,308.19v-6.67h1.5v6.67Z"/><path class="cls-3" d="M51.25,302a.86.86,0,1,1,.86.89A.86.86,0,0,1,51.25,302Zm.1,6.15v-4.83h1.51v4.83Z"/><path class="cls-3" d="M54.27,306.89V304.7h-.78v-1.34h.78V302h1.5v1.32h1v1.34h-1v1.76a.44.44,0,0,0,.42.49.55.55,0,0,0,.38-.12l.3,1.16a1.64,1.64,0,0,1-1.12.32A1.3,1.3,0,0,1,54.27,306.89Z"/><path class="cls-3" d="M57.59,308.7a.78.78,0,0,0,.37.09c.34,0,.56-.07.63-.27l.11-.26-1.88-4.9h1.59l1.07,3.06,1.07-3.06h1.6L60,308.88a1.86,1.86,0,0,1-2,1.27,3,3,0,0,1-.65-.08Z"/><path class="cls-3" d="M16.25,320.19v-6.67H21V315H17.93v1h3v1.5h-3v1.13H21v1.5Z"/><path class="cls-3" d="M28,320.19v-2.94a.58.58,0,0,0-.63-.65,1.09,1.09,0,0,0-.85.47v3.12H25v-2.94a.57.57,0,0,0-.63-.65,1.11,1.11,0,0,0-.84.47v3.12H22v-4.83h1.51V316a2.09,2.09,0,0,1,1.56-.71,1.29,1.29,0,0,1,1.34.86,2,2,0,0,1,1.64-.86,1.29,1.29,0,0,1,1.42,1.45v3.5Z"/><path class="cls-3" d="M30.45,314a.86.86,0,1,1,.86.89A.86.86,0,0,1,30.45,314Zm.11,6.15v-4.83h1.51v4.83Z"/><path class="cls-3" d="M32.76,319.57l.63-1.06a2.91,2.91,0,0,0,1.66.64c.45,0,.64-.15.64-.37,0-.63-2.75,0-2.75-1.95,0-.85.71-1.59,2-1.59a3.3,3.3,0,0,1,2,.64l-.58,1a2.12,2.12,0,0,0-1.39-.53c-.36,0-.6.15-.6.35,0,.56,2.75,0,2.75,2,0,.92-.79,1.6-2.15,1.6A3.48,3.48,0,0,1,32.76,319.57Z"/><path class="cls-3" d="M37.45,319.57l.62-1.06a3,3,0,0,0,1.67.64c.45,0,.64-.15.64-.37,0-.63-2.76,0-2.76-1.95,0-.85.72-1.59,2-1.59a3.3,3.3,0,0,1,2,.64l-.58,1a2.08,2.08,0,0,0-1.39-.53c-.35,0-.6.15-.6.35,0,.56,2.76,0,2.76,2,0,.92-.8,1.6-2.16,1.6A3.48,3.48,0,0,1,37.45,319.57Z"/><path class="cls-3" d="M42.48,314a.87.87,0,1,1,.87.89A.87.87,0,0,1,42.48,314Zm.11,6.15v-4.83H44.1v4.83Z"/><path class="cls-3" d="M44.88,317.77a2.59,2.59,0,1,1,2.58,2.54A2.47,2.47,0,0,1,44.88,317.77Zm3.62,0a1,1,0,1,0-1,1.18A1.06,1.06,0,0,0,48.5,317.77Z"/><path class="cls-3" d="M54.05,320.19V317.4a.7.7,0,0,0-.78-.8,1.17,1.17,0,0,0-.92.47v3.12H50.84v-4.83h1.51V316a2.13,2.13,0,0,1,1.64-.71,1.41,1.41,0,0,1,1.56,1.53v3.42Z"/><path class="cls-3" d="M56.25,319.57l.63-1.06a2.91,2.91,0,0,0,1.66.64c.45,0,.64-.15.64-.37,0-.63-2.75,0-2.75-1.95,0-.85.71-1.59,2-1.59a3.3,3.3,0,0,1,2,.64l-.58,1a2.12,2.12,0,0,0-1.39-.53c-.36,0-.6.15-.6.35,0,.56,2.75,0,2.75,2,0,.92-.79,1.6-2.15,1.6A3.48,3.48,0,0,1,56.25,319.57Z"/><path class="cls-3" d="M32.66,332.19v-4.47l-1.09,1.13-1-1,2.28-2.3h1.46v6.67Z"/><path class="cls-3" d="M35.19,328.86c0-1.76.89-3.44,2.8-3.44s2.81,1.68,2.81,3.44-.9,3.45-2.81,3.45S35.19,330.62,35.19,328.86Zm3.9,0c0-1.18-.31-1.92-1.1-1.92s-1.09.74-1.09,1.92.31,1.93,1.09,1.93S39.09,330,39.09,328.86Z"/><path class="cls-3" d="M42.08,333.61l-.63-.52a1.9,1.9,0,0,0,.84-.95,1.17,1.17,0,0,1-.23,0,.77.77,0,0,1-.76-.82.91.91,0,0,1,.9-.92,1,1,0,0,1,1,1.15A2.49,2.49,0,0,1,42.08,333.61Z"/><path class="cls-3" d="M43.69,331.26l.85-1.17a2.68,2.68,0,0,0,1.78.7c.73,0,1.1-.28,1.1-.65s-.27-.56-1.16-.56h-.89v-1.53h.89c.67,0,1.05-.17,1.05-.52s-.47-.61-1.09-.61a2.39,2.39,0,0,0-1.63.64l-.81-1.08a3.33,3.33,0,0,1,2.61-1.08c1.67,0,2.6.73,2.6,1.83a1.61,1.61,0,0,1-1.43,1.5,1.66,1.66,0,0,1,1.54,1.58c0,1.17-1.08,2-2.71,2A3.49,3.49,0,0,1,43.69,331.26Z"/><path class="cls-3" d="M50.47,332.19,52.68,327H49.5v-1.5h5.12v1.19l-2.3,5.48Z"/><path class="cls-3" d="M57,332.19v-4.47l-1.1,1.13-1-1,2.28-2.3h1.46v6.67Z"/><path class="cls-4" d="M2.72,238.38v-1.33c2.83-2.09,3.36-2.55,3.36-3.21,0-.46-.43-.7-.91-.7a2.41,2.41,0,0,0-1.74.73l-.93-1.14a3.57,3.57,0,0,1,2.65-1.11c1.53,0,2.64.88,2.64,2.22,0,1-.71,1.89-2.34,3H7.84v1.49Z"/><path class="cls-4" d="M8.49,235.06c0-1.76.89-3.44,2.8-3.44s2.8,1.68,2.8,3.44-.89,3.44-2.8,3.44S8.49,236.82,8.49,235.06Zm3.9,0c0-1.18-.32-1.92-1.1-1.92s-1.1.74-1.1,1.92.32,1.93,1.1,1.93S12.39,236.24,12.39,235.06Z"/><path class="cls-4" d="M14.6,235.06c0-1.76.89-3.44,2.8-3.44s2.81,1.68,2.81,3.44-.89,3.44-2.81,3.44S14.6,236.82,14.6,235.06Zm3.9,0c0-1.18-.31-1.92-1.1-1.92s-1.09.74-1.09,1.92S16.62,237,17.4,237,18.5,236.24,18.5,235.06Z"/><path class="cls-4" d="M20.86,237.53l.92-1.19a2.48,2.48,0,0,0,1.69.65c.72,0,1.07-.36,1.07-.77s-.34-.77-1-.77a1.73,1.73,0,0,0-1.29.5l-1.17-.29v-3.94H25.8v1.5H22.75v1.29a2,2,0,0,1,1.4-.53,2.08,2.08,0,0,1,2.1,2.17c0,1.43-1.06,2.35-2.76,2.35A3.54,3.54,0,0,1,20.86,237.53Z"/><path class="cls-4" d="M29.61,238.38v-6.66H34.4v1.5H31.29v1h3v1.5h-3v2.62Z"/><path class="cls-4" d="M37.82,238.38v-.47a2,2,0,0,1-1.47.59,1.57,1.57,0,0,1-1.63-1.58,1.49,1.49,0,0,1,1.63-1.55,1.88,1.88,0,0,1,1.47.56v-.58c0-.42-.35-.7-1-.7a2.08,2.08,0,0,0-1.34.51l-.54-1a3.27,3.27,0,0,1,2.14-.75c1.14,0,2.21.43,2.21,1.93v3Zm0-1.23v-.43a1.07,1.07,0,0,0-.84-.34c-.41,0-.76.18-.76.56s.35.55.76.55A1.07,1.07,0,0,0,37.82,237.15Z"/><path class="cls-4" d="M40.11,236a2.46,2.46,0,0,1,2.59-2.53,2.26,2.26,0,0,1,1.94.89l-1,.93a1,1,0,0,0-.89-.46,1.18,1.18,0,0,0,0,2.35,1.06,1.06,0,0,0,.89-.47l1,.94a2.31,2.31,0,0,1-1.94.88A2.46,2.46,0,0,1,40.11,236Z"/><path class="cls-4" d="M45.22,232.24a.86.86,0,1,1,.86.89A.86.86,0,0,1,45.22,232.24Zm.11,6.14v-4.82h1.5v4.82Z"/><path class="cls-4" d="M47.93,238.38v-6.66h1.51v6.66Z"/><path class="cls-4" d="M50.43,232.24a.87.87,0,1,1,1.73,0,.87.87,0,1,1-1.73,0Zm.11,6.14v-4.82h1.51v4.82Z"/><path class="cls-4" d="M53.46,237.09V234.9h-.78v-1.34h.78v-1.32H55v1.32h1v1.34H55v1.76a.44.44,0,0,0,.42.49.57.57,0,0,0,.38-.12l.3,1.15a1.59,1.59,0,0,1-1.12.32A1.3,1.3,0,0,1,53.46,237.09Z"/><path class="cls-4" d="M56.77,238.89a.84.84,0,0,0,.37.09c.35,0,.56-.07.64-.27l.11-.26L56,233.56h1.58l1.07,3.06,1.08-3.06h1.6l-2.14,5.51a1.88,1.88,0,0,1-2,1.27,3,3,0,0,1-.64-.08Z"/><path class="cls-4" d="M16.25,250.38v-6.66H21v1.5H17.93v1h3v1.5h-3v1.13H21v1.49Z"/><path class="cls-4" d="M28,250.38v-2.93a.58.58,0,0,0-.63-.65,1.09,1.09,0,0,0-.85.47v3.11H25v-2.93a.57.57,0,0,0-.63-.65,1.11,1.11,0,0,0-.84.47v3.11H22v-4.82h1.51v.59a2.09,2.09,0,0,1,1.56-.71,1.29,1.29,0,0,1,1.34.86,2,2,0,0,1,1.64-.86,1.29,1.29,0,0,1,1.42,1.45v3.49Z"/><path class="cls-4" d="M30.45,244.24a.86.86,0,1,1,.86.89A.86.86,0,0,1,30.45,244.24Zm.11,6.14v-4.82h1.51v4.82Z"/><path class="cls-4" d="M32.76,249.76l.63-1a2.91,2.91,0,0,0,1.66.64c.45,0,.64-.15.64-.37,0-.63-2.75,0-2.75-1.95,0-.85.71-1.59,2-1.59a3.3,3.3,0,0,1,2,.64l-.58,1a2.12,2.12,0,0,0-1.39-.53c-.36,0-.6.15-.6.35,0,.56,2.75,0,2.75,2,0,.91-.79,1.59-2.15,1.59A3.48,3.48,0,0,1,32.76,249.76Z"/><path class="cls-4" d="M37.45,249.76l.62-1a3,3,0,0,0,1.67.64c.45,0,.64-.15.64-.37,0-.63-2.76,0-2.76-1.95,0-.85.72-1.59,2-1.59a3.3,3.3,0,0,1,2,.64l-.58,1a2.08,2.08,0,0,0-1.39-.53c-.35,0-.6.15-.6.35,0,.56,2.76,0,2.76,2,0,.91-.8,1.59-2.16,1.59A3.48,3.48,0,0,1,37.45,249.76Z"/><path class="cls-4" d="M42.48,244.24a.87.87,0,1,1,.87.89A.87.87,0,0,1,42.48,244.24Zm.11,6.14v-4.82H44.1v4.82Z"/><path class="cls-4" d="M44.88,248a2.59,2.59,0,1,1,2.58,2.53A2.47,2.47,0,0,1,44.88,248Zm3.62,0a1,1,0,1,0-1,1.18A1.06,1.06,0,0,0,48.5,248Z"/><path class="cls-4" d="M54.05,250.38V247.6a.7.7,0,0,0-.78-.8,1.17,1.17,0,0,0-.92.47v3.11H50.84v-4.82h1.51v.59a2.13,2.13,0,0,1,1.64-.71A1.41,1.41,0,0,1,55.55,247v3.41Z"/><path class="cls-4" d="M56.25,249.76l.63-1a2.91,2.91,0,0,0,1.66.64c.45,0,.64-.15.64-.37,0-.63-2.75,0-2.75-1.95,0-.85.71-1.59,2-1.59a3.3,3.3,0,0,1,2,.64l-.58,1a2.12,2.12,0,0,0-1.39-.53c-.36,0-.6.15-.6.35,0,.56,2.75,0,2.75,2,0,.91-.79,1.59-2.15,1.59A3.48,3.48,0,0,1,56.25,249.76Z"/><polygon class="cls-8" points="29.47 263.37 26.35 261.98 26.35 270.59 29.47 271.62 29.47 263.37"/><polygon class="cls-8" points="33.46 265.17 30.7 263.93 30.7 272.03 33.46 272.94 33.46 265.17"/><polygon class="cls-8" points="39.75 267.99 37.5 266.98 37.5 274.28 39.75 275.02 39.75 267.99"/><polygon class="cls-8" points="42.68 269.31 40.65 268.39 40.65 275.32 42.68 275.99 42.68 269.31"/><polygon class="cls-8" points="46.58 271.21 44.82 270.43 44.82 276.86 46.58 277.44 46.58 271.21"/><polygon class="cls-8" points="48.88 272.24 47.28 271.53 47.28 277.67 48.88 278.19 48.88 272.24"/><polygon class="cls-8" points="29.47 278.04 26.35 277.3 26.35 285.91 29.47 286.29 29.47 278.04"/><polygon class="cls-8" points="33.46 279 30.7 278.34 30.7 286.44 33.46 286.77 33.46 279"/><polygon class="cls-8" points="39.75 280.5 37.5 279.96 37.5 287.26 39.75 287.53 39.75 280.5"/><polygon class="cls-8" points="42.68 281.2 40.65 280.71 40.65 287.64 42.68 287.88 42.68 281.2"/><polygon class="cls-8" points="46.58 282.28 44.82 281.87 44.82 288.3 46.58 288.51 46.58 282.28"/><polygon class="cls-8" points="48.88 282.83 47.28 282.45 47.28 288.59 48.88 288.78 48.88 282.83"/><path class="cls-6" d="M18.65,271.93v-8.12l3.87-1.74v8.58Zm3.87,14-3.87.47v-8.12l3.87-.93Zm-5.37-13.48-3.32,1.11V266l3.32-1.5Zm0,14.13-3.32.4V279.4l3.32-.79Zm7.41-30.73L11.8,262.46V292.8H24.56Z"/><polygon class="cls-8" points="13.83 273.53 17.15 272.43 17.15 264.49 13.83 265.98 13.83 273.53"/><polygon class="cls-8" points="18.66 263.81 18.66 271.93 22.52 270.65 22.52 262.07 18.66 263.81"/><polygon class="cls-8" points="13.83 286.95 17.15 286.55 17.15 278.61 13.83 279.4 13.83 286.95"/><polygon class="cls-8" points="18.66 286.37 22.52 285.9 22.52 277.33 18.66 278.25 18.66 286.37"/><path class="cls-6" d="M26.35,277.3l3.12.74v8.25l-3.12-.38Zm0-15.33,3.12,1.4v8.25l-3.12-1Zm4.35,16.37,2.76.66v7.77l-2.76-.33Zm0-14.41,2.76,1.24v7.77L30.7,272Zm6.8,16,2.25.54v7l-2.25-.27Zm0-13,2.25,1v7l-2.25-.74Zm3.15,13.73,2,.49v6.68l-2-.24Zm0-12.32,2,.92V276l-2-.67Zm4.17,13.48,1.76.41v6.23l-1.76-.21Zm0-11.44,1.76.78v6.23l-1.76-.58Zm2.46,12,1.6.38v5.95l-1.6-.19Zm0-10.92,1.6.71v5.95l-1.6-.52Zm3.15,21.27V269.29L24.56,255.82v37H9.49v2H52.73v-2Z"/></g></g></svg>