<?xml version="1.0" encoding="utf-8"?>
<!-- Generator: Adobe Illustrator 23.0.2, SVG Export Plug-In . SVG Version: 6.00 Build 0)  -->
<svg version="1.1" id="Layer_1" xmlns="http://www.w3.org/2000/svg" xmlns:xlink="http://www.w3.org/1999/xlink" x="0px" y="0px"
	 viewBox="0 0 612 233" style="enable-background:new 0 0 612 233;" xml:space="preserve">
<style type="text/css">
	.st0{fill:#004987;}
	.st1{fill:#FFFFFF;}
	.st2{fill:#76777A;}
	.st3{opacity:0.5;}
	.st4{clip-path:url(#SVGID_2_);fill:#76777A;}
	.st5{clip-path:url(#SVGID_2_);fill:none;stroke:#E1E1E2;stroke-width:2.362;stroke-miterlimit:10;}
	.st6{clip-path:url(#SVGID_2_);fill:#FFFFFF;}
</style>
<g>
	<g>
		<path class="st0" d="M214.6,0H612v232.6c0,0-151.2-51.8-509.8-51.8L214.6,0z"/>
		<path class="st1" d="M574.1,178.5h1.1v-1.2h-1.1V178.5z M571.9,178.6c0.4,0,0.7-0.1,0.9-0.2v-0.7c-0.3,0.1-0.5,0.2-0.7,0.2
			c-0.5,0-0.9-0.2-0.9-0.9V173h1.6v-0.8h-1.6v-1.8h-0.9v1.8h-0.8v0.8h0.8v4C570.3,178.1,571,178.6,571.9,178.6 M566.7,178.6
			c1.1,0,2-0.7,2-1.8v0c0-0.9-0.7-1.4-1.8-1.8c-0.9-0.4-1.4-0.6-1.4-1.2v0c0-0.5,0.4-0.9,1.1-0.9c0.6,0,1.1,0.2,1.6,0.6l0.4-0.7
			c-0.5-0.4-1.3-0.7-2-0.7c-1.1,0-1.9,0.7-1.9,1.7v0c0,1,0.8,1.4,1.8,1.8c0.8,0.3,1.4,0.6,1.4,1.2v0c0,0.6-0.5,1-1.2,1
			c-0.6,0-1.2-0.3-1.8-0.8l-0.5,0.6C565.1,178.3,565.9,178.6,566.7,178.6 M560.8,177.9c-0.7,0-1.3-0.5-1.3-1.3v0
			c0-0.8,0.6-1.3,1.5-1.3c0.6,0,1.1,0.1,1.5,0.3v0.8C562.5,177.2,561.7,177.9,560.8,177.9 M560.6,178.6c0.9,0,1.5-0.5,1.9-1v0.9h0.9
			v-4c0-0.7-0.2-1.3-0.6-1.7c-0.4-0.4-1-0.6-1.8-0.6c-0.8,0-1.4,0.2-2,0.5l0.3,0.7c0.4-0.2,1-0.4,1.6-0.4c1,0,1.6,0.5,1.6,1.5v0.4
			c-0.5-0.1-0.9-0.3-1.6-0.3c-1.4,0-2.3,0.7-2.3,2v0C558.6,177.9,559.5,178.6,560.6,178.6 M553.4,175c0.1-1.3,0.8-2.2,1.7-2.2
			c1,0,1.6,1,1.6,2.2H553.4z M555.3,178.6c0.9,0,1.6-0.4,2.1-0.9l-0.5-0.6c-0.4,0.4-0.9,0.7-1.6,0.7c-1,0-1.8-0.8-1.9-2.1h4.2
			c0-0.1,0-0.3,0-0.4c0-1.9-0.9-3.2-2.5-3.2c-1.5,0-2.6,1.3-2.6,3.2v0.1C552.5,177.4,553.8,178.6,555.3,178.6 M546.4,178.5h0.9v-3.8
			c0-1.1,0.7-1.8,1.6-1.8c0.9,0,1.4,0.6,1.4,1.7v3.9h0.9v-4.1c0-1.4-0.8-2.3-2-2.3c-0.9,0-1.5,0.5-1.8,1.1v-3.4h-0.9V178.5z
			 M544.1,178.6c0.4,0,0.7-0.1,0.9-0.2v-0.7c-0.3,0.1-0.5,0.2-0.7,0.2c-0.5,0-0.9-0.2-0.9-0.9V173h1.6v-0.8h-1.6v-1.8h-0.9v1.8h-0.8
			v0.8h0.8v4C542.5,178.1,543.2,178.6,544.1,178.6 M538,178.5h0.9v-3c0-1.6,0.9-2.4,2.1-2.4h0v-0.9c-1,0-1.8,0.6-2.1,1.5v-1.4H538
			V178.5z M533.8,177.8c-1.1,0-1.9-1-1.9-2.4v-0.1c0-1.4,0.8-2.4,1.9-2.4c1.1,0,1.9,1,1.9,2.4v0.1
			C535.7,176.8,534.9,177.8,533.8,177.8 M533.8,178.6c1.6,0,2.8-1.4,2.8-3.2v-0.1c0-1.8-1.2-3.2-2.8-3.2c-1.6,0-2.8,1.4-2.8,3.2v0.1
			C531,177.2,532.2,178.6,533.8,178.6 M524.9,178.5h0.9v-3.8c0-1.1,0.7-1.8,1.6-1.8c0.9,0,1.4,0.6,1.4,1.7v3.9h0.9v-4.1
			c0-1.4-0.8-2.3-2-2.3c-0.9,0-1.5,0.5-1.8,1.1v-1h-0.9V178.5z M516.2,175c0.1-1.3,0.8-2.2,1.7-2.2c1,0,1.6,1,1.6,2.2H516.2z
			 M518.1,178.6c0.9,0,1.6-0.4,2.1-0.9l-0.5-0.6c-0.4,0.4-0.9,0.7-1.6,0.7c-1,0-1.8-0.8-1.9-2.1h4.2c0-0.1,0-0.3,0-0.4
			c0-1.9-0.9-3.2-2.5-3.2c-1.5,0-2.6,1.3-2.6,3.2v0.1C515.3,177.4,516.6,178.6,518.1,178.6 M509.2,178.5h0.9v-3.8
			c0-1.1,0.7-1.8,1.6-1.8c0.9,0,1.4,0.6,1.4,1.7v3.9h0.9v-4.1c0-1.4-0.8-2.3-2-2.3c-0.9,0-1.5,0.5-1.8,1.1v-3.4h-0.9V178.5z
			 M506.9,178.6c0.4,0,0.7-0.1,0.9-0.2v-0.7c-0.3,0.1-0.5,0.2-0.7,0.2c-0.5,0-0.9-0.2-0.9-0.9V173h1.6v-0.8h-1.6v-1.8h-0.9v1.8h-0.8
			v0.8h0.8v4C505.3,178.1,506,178.6,506.9,178.6 M499.6,178.6c0.4,0,0.7-0.1,0.9-0.2v-0.7c-0.3,0.1-0.5,0.2-0.7,0.2
			c-0.5,0-0.9-0.2-0.9-0.9V173h1.6v-0.8h-1.6v-1.8h-0.9v1.8h-0.8v0.8h0.8v4C498.1,178.1,498.7,178.6,499.6,178.6 M493.3,178.6
			c0.9,0,1.5-0.5,1.8-1.1v1h0.9v-6.2h-0.9v3.8c0,1.1-0.7,1.8-1.6,1.8c-0.9,0-1.4-0.6-1.4-1.7v-3.9h-0.9v4.1
			C491.3,177.7,492,178.6,493.3,178.6 M487.1,177.8c-1.1,0-1.9-1-1.9-2.4v-0.1c0-1.4,0.8-2.4,1.9-2.4c1.1,0,1.9,1,1.9,2.4v0.1
			C489,176.8,488.2,177.8,487.1,177.8 M487.1,178.6c1.6,0,2.8-1.4,2.8-3.2v-0.1c0-1.8-1.2-3.2-2.8-3.2s-2.8,1.4-2.8,3.2v0.1
			C484.3,177.2,485.5,178.6,487.1,178.6 M478.2,178.5h0.9v-3.8c0-1.1,0.7-1.8,1.6-1.8c0.9,0,1.4,0.6,1.4,1.7v3.9h0.9v-4.1
			c0-1.4-0.8-2.3-2-2.3c-0.9,0-1.5,0.5-1.8,1.1v-3.4h-0.9V178.5z M473.7,177.3c-1,0-1.8-0.8-1.8-2.2v0c0-1.4,0.8-2.2,1.8-2.2
			c1,0,1.9,0.8,1.9,2.2v0C475.6,176.4,474.7,177.3,473.7,177.3 M473.7,180.3c0.9,0,1.6-0.2,2.1-0.7c0.4-0.4,0.7-1.1,0.7-1.9v-5.4
			h-0.9v1.1c-0.4-0.7-1.1-1.2-2.1-1.2c-1.3,0-2.5,1.1-2.5,3v0c0,1.9,1.2,2.9,2.5,2.9c1,0,1.6-0.6,2.1-1.3v0.9c0,1.2-0.7,1.9-1.9,1.9
			c-0.7,0-1.4-0.2-2-0.6l-0.3,0.7C472.1,180.1,472.9,180.3,473.7,180.3 M466.9,178.6c0.9,0,1.5-0.5,1.8-1.1v1h0.9v-6.2h-0.9v3.8
			c0,1.1-0.7,1.8-1.6,1.8c-0.9,0-1.4-0.6-1.4-1.7v-3.9h-0.9v4.1C464.9,177.7,465.6,178.6,466.9,178.6 M460.7,177.8
			c-1.1,0-1.9-1-1.9-2.4v-0.1c0-1.4,0.8-2.4,1.9-2.4c1.1,0,1.9,1,1.9,2.4v0.1C462.6,176.8,461.8,177.8,460.7,177.8 M460.7,178.6
			c1.6,0,2.8-1.4,2.8-3.2v-0.1c0-1.8-1.2-3.2-2.8-3.2c-1.6,0-2.8,1.4-2.8,3.2v0.1C457.9,177.2,459.1,178.6,460.7,178.6 M454.3,178.5
			h0.9v-3c0-1.6,0.9-2.4,2.1-2.4h0v-0.9c-1,0-1.8,0.6-2.1,1.5v-1.4h-0.9V178.5z M447.9,178.5h0.9v-3.8c0-1.1,0.7-1.8,1.6-1.8
			c0.9,0,1.4,0.6,1.4,1.7v3.9h0.9v-4.1c0-1.4-0.8-2.3-2-2.3c-0.9,0-1.5,0.5-1.8,1.1v-3.4h-0.9V178.5z M445.6,178.6
			c0.4,0,0.7-0.1,0.9-0.2v-0.7c-0.3,0.1-0.5,0.2-0.7,0.2c-0.5,0-0.9-0.2-0.9-0.9V173h1.6v-0.8h-1.6v-1.8H444v1.8h-0.8v0.8h0.8v4
			C444,178.1,444.7,178.6,445.6,178.6 M437.2,178.6c1.1,0,2-0.7,2-1.8v0c0-0.9-0.7-1.4-1.8-1.8c-0.9-0.4-1.4-0.6-1.4-1.2v0
			c0-0.5,0.4-0.9,1.1-0.9c0.6,0,1.1,0.2,1.6,0.6l0.4-0.7c-0.5-0.4-1.3-0.7-2-0.7c-1.1,0-1.9,0.7-1.9,1.7v0c0,1,0.8,1.4,1.8,1.8
			c0.8,0.3,1.4,0.6,1.4,1.2v0c0,0.6-0.5,1-1.2,1c-0.6,0-1.2-0.3-1.8-0.8l-0.5,0.6C435.6,178.3,436.4,178.6,437.2,178.6 M429.9,175
			c0.1-1.3,0.8-2.2,1.7-2.2c1,0,1.6,1,1.6,2.2H429.9z M431.8,178.6c0.9,0,1.6-0.4,2.1-0.9l-0.5-0.6c-0.4,0.4-0.9,0.7-1.6,0.7
			c-1,0-1.8-0.8-1.9-2.1h4.2c0-0.1,0-0.3,0-0.4c0-1.9-0.9-3.2-2.5-3.2c-1.5,0-2.6,1.3-2.6,3.2v0.1
			C429,177.4,430.2,178.6,431.8,178.6 M426.6,178.5h0.9v-6.2h-0.9V178.5z M426.6,170.9h1v-1h-1V170.9z M424.2,178.6
			c0.4,0,0.7-0.1,0.9-0.2v-0.7c-0.3,0.1-0.5,0.2-0.7,0.2c-0.5,0-0.9-0.2-0.9-0.9V173h1.6v-0.8h-1.6v-1.8h-0.9v1.8h-0.8v0.8h0.8v4
			C422.7,178.1,423.3,178.6,424.2,178.6 M419.7,178.5h0.9v-6.2h-0.9V178.5z M419.6,170.9h1v-1h-1V170.9z M416.9,178.5h0.9v-8.7h-0.9
			V178.5z M412.6,177.9c-0.7,0-1.3-0.5-1.3-1.3v0c0-0.8,0.6-1.3,1.5-1.3c0.6,0,1.1,0.1,1.5,0.3v0.8
			C414.3,177.2,413.5,177.9,412.6,177.9 M412.4,178.6c0.9,0,1.5-0.5,1.9-1v0.9h0.9v-4c0-0.7-0.2-1.3-0.6-1.7c-0.4-0.4-1-0.6-1.8-0.6
			c-0.8,0-1.4,0.2-2,0.5l0.3,0.7c0.4-0.2,1-0.4,1.6-0.4c1,0,1.6,0.5,1.6,1.5v0.4c-0.5-0.1-0.9-0.3-1.6-0.3c-1.4,0-2.3,0.7-2.3,2v0
			C410.4,177.9,411.3,178.6,412.4,178.6 M406.6,177.8c-1,0-1.9-0.9-1.9-2.4v-0.1c0-1.5,0.9-2.4,1.9-2.4c1,0,1.8,0.9,1.8,2.4v0.1
			C408.4,176.9,407.6,177.8,406.6,177.8 M403.9,180.3h0.9v-3c0.4,0.7,1,1.3,2,1.3c1.3,0,2.5-1.1,2.5-3.2v-0.1c0-2.1-1.2-3.2-2.5-3.2
			c-1,0-1.6,0.6-2,1.3v-1.2h-0.9V180.3z M401.2,178.5h0.9v-6.2h-0.9V178.5z M401.2,170.9h1v-1h-1V170.9z M397.8,178.6
			c0.9,0,1.5-0.4,2-0.9l-0.5-0.6c-0.4,0.4-0.9,0.7-1.5,0.7c-1.1,0-1.9-0.9-1.9-2.4v-0.1c0-1.5,0.8-2.4,1.9-2.4
			c0.6,0,1.1,0.3,1.5,0.7l0.5-0.6c-0.5-0.5-1.1-0.9-2-0.9c-1.6,0-2.8,1.3-2.8,3.2v0.1C395.1,177.3,396.3,178.6,397.8,178.6
			 M392.7,178.5h0.9v-6.2h-0.9V178.5z M392.7,170.9h1v-1h-1V170.9z M386.2,178.5h0.9v-3.8c0-1.1,0.7-1.8,1.6-1.8
			c0.9,0,1.4,0.6,1.4,1.7v3.9h0.9v-4.1c0-1.4-0.8-2.3-2-2.3c-0.9,0-1.5,0.5-1.8,1.1v-1h-0.9V178.5z M381.7,178.6
			c0.9,0,1.5-0.5,1.8-1.1v1h0.9v-6.2h-0.9v3.8c0,1.1-0.7,1.8-1.6,1.8c-0.9,0-1.4-0.6-1.4-1.7v-3.9h-0.9v4.1
			C379.7,177.7,380.4,178.6,381.7,178.6 M369.8,178.5h0.9v-3.8c0-1.1,0.6-1.8,1.5-1.8c0.9,0,1.4,0.6,1.4,1.7v3.9h0.9v-3.8
			c0-1.1,0.7-1.8,1.5-1.8c0.9,0,1.4,0.6,1.4,1.7v3.9h0.9v-4.1c0-1.5-0.8-2.3-2-2.3c-1,0-1.5,0.5-1.9,1.1c-0.3-0.7-0.9-1.1-1.7-1.1
			c-0.9,0-1.4,0.5-1.8,1.1v-1h-0.9V178.5z"/>
		<path class="st1" d="M572.4,163.8c-1,0-1.8-0.9-1.8-2.4v-0.1c0-1.5,0.8-2.4,1.8-2.4c1,0,1.9,0.9,1.9,2.4v0.1
			C574.3,162.9,573.4,163.8,572.4,163.8 M572.2,164.6c1,0,1.6-0.6,2-1.3v1.2h0.9v-8.7h-0.9v3.6c-0.4-0.7-1-1.3-2-1.3
			c-1.3,0-2.5,1.1-2.5,3.2v0.1C569.7,163.5,570.9,164.6,572.2,164.6 M563.6,164.5h0.9v-3.8c0-1.1,0.7-1.8,1.6-1.8
			c0.9,0,1.4,0.6,1.4,1.7v3.9h0.9v-4.1c0-1.4-0.8-2.3-2-2.3c-0.9,0-1.5,0.5-1.8,1.1v-1h-0.9V164.5z M559.3,163.9
			c-0.7,0-1.3-0.5-1.3-1.3v0c0-0.8,0.6-1.3,1.5-1.3c0.6,0,1.1,0.1,1.5,0.3v0.8C561.1,163.2,560.3,163.9,559.3,163.9 M559.2,164.6
			c0.9,0,1.5-0.5,1.9-1v0.9h0.9v-4c0-0.7-0.2-1.3-0.6-1.7c-0.4-0.4-1-0.6-1.8-0.6c-0.8,0-1.4,0.2-2,0.5l0.3,0.7
			c0.4-0.2,1-0.4,1.6-0.4c1,0,1.6,0.5,1.6,1.5v0.4c-0.5-0.1-0.9-0.3-1.6-0.3c-1.4,0-2.3,0.7-2.3,2v0
			C557.1,163.9,558.1,164.6,559.2,164.6 M551.5,165.9c0.9-0.2,1.3-0.7,1.3-1.6v-1.1h-1.1v1.2h0.4c0,0.5-0.2,0.8-0.8,1L551.5,165.9z
			 M548.3,164.6c1.1,0,2-0.7,2-1.8v0c0-0.9-0.7-1.4-1.8-1.8c-0.9-0.4-1.4-0.6-1.4-1.2v0c0-0.5,0.4-0.9,1.1-0.9
			c0.6,0,1.1,0.2,1.6,0.6l0.4-0.7c-0.5-0.4-1.3-0.7-2-0.7c-1.1,0-1.9,0.7-1.9,1.7v0c0,1,0.8,1.4,1.8,1.8c0.8,0.3,1.4,0.6,1.4,1.2v0
			c0,0.6-0.5,1-1.2,1c-0.6,0-1.2-0.3-1.8-0.8l-0.5,0.6C546.7,164.3,547.6,164.6,548.3,164.6 M540.2,164.5h0.9v-3.8
			c0-1.1,0.7-1.8,1.6-1.8c0.9,0,1.4,0.6,1.4,1.7v3.9h0.9v-4.1c0-1.4-0.8-2.3-2-2.3c-0.9,0-1.5,0.5-1.8,1.1v-1h-0.9V164.5z
			 M536,163.8c-1.1,0-1.9-1-1.9-2.4v-0.1c0-1.4,0.8-2.4,1.9-2.4c1.1,0,1.9,1,1.9,2.4v0.1C537.9,162.8,537.1,163.8,536,163.8
			 M536,164.6c1.6,0,2.8-1.4,2.8-3.2v-0.1c0-1.8-1.2-3.2-2.8-3.2c-1.6,0-2.8,1.4-2.8,3.2v0.1C533.2,163.2,534.4,164.6,536,164.6
			 M530.8,164.5h0.9v-6.2h-0.9V164.5z M530.8,156.9h1v-1h-1V156.9z M528.4,164.6c0.4,0,0.7-0.1,0.9-0.2v-0.7
			c-0.3,0.1-0.5,0.2-0.7,0.2c-0.5,0-0.9-0.2-0.9-0.9V159h1.6v-0.8h-1.6v-1.8h-0.9v1.8h-0.8v0.8h0.8v4
			C526.9,164.1,527.5,164.6,528.4,164.6 M522.1,164.6c0.9,0,1.5-0.5,1.8-1.1v1h0.9v-6.2H524v3.8c0,1.1-0.7,1.8-1.6,1.8
			c-0.9,0-1.4-0.6-1.4-1.7v-3.9h-0.9v4.1C520.1,163.7,520.8,164.6,522.1,164.6 M517.8,164.6c0.4,0,0.7-0.1,0.9-0.2v-0.7
			c-0.3,0.1-0.5,0.2-0.7,0.2c-0.5,0-0.9-0.2-0.9-0.9V159h1.6v-0.8h-1.6v-1.8h-0.9v1.8h-0.8v0.8h0.8v4
			C516.3,164.1,516.9,164.6,517.8,164.6 M513.3,164.5h0.9v-6.2h-0.9V164.5z M513.2,156.9h1v-1h-1V156.9z M510.9,164.6
			c0.4,0,0.7-0.1,0.9-0.2v-0.7c-0.3,0.1-0.5,0.2-0.7,0.2c-0.5,0-0.9-0.2-0.9-0.9V159h1.6v-0.8h-1.6v-1.8h-0.9v1.8h-0.8v0.8h0.8v4
			C509.3,164.1,510,164.6,510.9,164.6 M505.7,164.6c1.1,0,2-0.7,2-1.8v0c0-0.9-0.7-1.4-1.8-1.8c-0.9-0.4-1.4-0.6-1.4-1.2v0
			c0-0.5,0.4-0.9,1.1-0.9c0.6,0,1.1,0.2,1.6,0.6l0.4-0.7c-0.5-0.4-1.3-0.7-2-0.7c-1.1,0-1.9,0.7-1.9,1.7v0c0,1,0.8,1.4,1.8,1.8
			c0.8,0.3,1.4,0.6,1.4,1.2v0c0,0.6-0.5,1-1.2,1c-0.6,0-1.2-0.3-1.8-0.8l-0.5,0.6C504.1,164.3,504.9,164.6,505.7,164.6 M497.6,164.5
			h0.9v-3.8c0-1.1,0.7-1.8,1.6-1.8c0.9,0,1.4,0.6,1.4,1.7v3.9h0.9v-4.1c0-1.4-0.8-2.3-2-2.3c-0.9,0-1.5,0.5-1.8,1.1v-1h-0.9V164.5z
			 M494.8,164.5h0.9v-6.2h-0.9V164.5z M494.8,156.9h1v-1h-1V156.9z M488.7,165.9c0.9-0.2,1.3-0.7,1.3-1.6v-1.1h-1.1v1.2h0.4
			c0,0.5-0.2,0.8-0.8,1L488.7,165.9z M485.6,164.6c1.1,0,2-0.7,2-1.8v0c0-0.9-0.7-1.4-1.8-1.8c-0.9-0.4-1.4-0.6-1.4-1.2v0
			c0-0.5,0.4-0.9,1.1-0.9c0.6,0,1.1,0.2,1.6,0.6l0.4-0.7c-0.5-0.4-1.3-0.7-2-0.7c-1.1,0-1.9,0.7-1.9,1.7v0c0,1,0.8,1.4,1.8,1.8
			c0.8,0.3,1.4,0.6,1.4,1.2v0c0,0.6-0.5,1-1.2,1c-0.6,0-1.2-0.3-1.8-0.8l-0.5,0.6C484,164.3,484.8,164.6,485.6,164.6 M478.3,161
			c0.1-1.3,0.8-2.2,1.7-2.2c1,0,1.6,1,1.6,2.2H478.3z M480.2,164.6c0.9,0,1.6-0.4,2.1-0.9l-0.5-0.6c-0.4,0.4-0.9,0.7-1.6,0.7
			c-1,0-1.8-0.8-1.9-2.1h4.2c0-0.1,0-0.3,0-0.4c0-1.9-0.9-3.2-2.5-3.2c-1.5,0-2.6,1.3-2.6,3.2v0.1
			C477.4,163.4,478.6,164.6,480.2,164.6 M474.3,164.6c1.1,0,2-0.7,2-1.8v0c0-0.9-0.7-1.4-1.8-1.8c-0.9-0.4-1.4-0.6-1.4-1.2v0
			c0-0.5,0.4-0.9,1.1-0.9c0.6,0,1.1,0.2,1.6,0.6l0.4-0.7c-0.5-0.4-1.3-0.7-2-0.7c-1.1,0-1.9,0.7-1.9,1.7v0c0,1,0.8,1.4,1.8,1.8
			c0.8,0.3,1.4,0.6,1.4,1.2v0c0,0.6-0.5,1-1.2,1c-0.6,0-1.2-0.3-1.8-0.8l-0.5,0.6C472.7,164.3,473.5,164.6,474.3,164.6 M469.2,164.6
			c1.1,0,2-0.7,2-1.8v0c0-0.9-0.7-1.4-1.8-1.8c-0.9-0.4-1.4-0.6-1.4-1.2v0c0-0.5,0.4-0.9,1.1-0.9c0.6,0,1.1,0.2,1.6,0.6l0.4-0.7
			c-0.5-0.4-1.3-0.7-2-0.7c-1.1,0-1.9,0.7-1.9,1.7v0c0,1,0.8,1.4,1.8,1.8c0.8,0.3,1.4,0.6,1.4,1.2v0c0,0.6-0.5,1-1.2,1
			c-0.6,0-1.2-0.3-1.8-0.8l-0.5,0.6C467.6,164.3,468.5,164.6,469.2,164.6 M461.9,161c0.1-1.3,0.8-2.2,1.7-2.2c1,0,1.6,1,1.6,2.2
			H461.9z M463.8,164.6c0.9,0,1.6-0.4,2.1-0.9l-0.5-0.6c-0.4,0.4-0.9,0.7-1.6,0.7c-1,0-1.8-0.8-1.9-2.1h4.2c0-0.1,0-0.3,0-0.4
			c0-1.9-0.9-3.2-2.5-3.2c-1.5,0-2.6,1.3-2.6,3.2v0.1C461.1,163.4,462.3,164.6,463.8,164.6 M454.9,164.5h0.9v-3.8
			c0-1.1,0.7-1.8,1.6-1.8c0.9,0,1.4,0.6,1.4,1.7v3.9h0.9v-4.1c0-1.4-0.8-2.3-2-2.3c-0.9,0-1.5,0.5-1.8,1.1v-1h-0.9V164.5z
			 M452.2,164.5h0.9v-6.2h-0.9V164.5z M452.2,156.9h1v-1h-1V156.9z M448.7,164.6c1.1,0,2-0.7,2-1.8v0c0-0.9-0.7-1.4-1.8-1.8
			c-0.9-0.4-1.4-0.6-1.4-1.2v0c0-0.5,0.4-0.9,1.1-0.9c0.6,0,1.1,0.2,1.6,0.6l0.4-0.7c-0.5-0.4-1.3-0.7-2-0.7c-1.1,0-1.9,0.7-1.9,1.7
			v0c0,1,0.8,1.4,1.8,1.8c0.8,0.3,1.4,0.6,1.4,1.2v0c0,0.6-0.5,1-1.2,1c-0.6,0-1.2-0.3-1.8-0.8l-0.5,0.6
			C447.1,164.3,448,164.6,448.7,164.6 M442.5,164.6c0.9,0,1.5-0.5,1.8-1.1v1h0.9v-6.2h-0.9v3.8c0,1.1-0.7,1.8-1.6,1.8
			c-0.9,0-1.4-0.6-1.4-1.7v-3.9h-0.9v4.1C440.5,163.7,441.3,164.6,442.5,164.6 M436.5,163.8c-1,0-1.9-0.9-1.9-2.4v-0.1
			c0-1.5,0.9-2.4,1.9-2.4c1,0,1.8,0.9,1.8,2.4v0.1C438.2,162.9,437.4,163.8,436.5,163.8 M436.6,164.6c1.3,0,2.5-1.1,2.5-3.2v-0.1
			c0-2.1-1.2-3.2-2.5-3.2c-1,0-1.6,0.6-2,1.3v-3.6h-0.9v8.7h0.9v-1.2C435,164,435.6,164.6,436.6,164.6 M425.9,162.7
			c-0.8,0-1.3-0.8-1.3-2.4v-0.2c0-1.5,0.5-2.3,1.2-2.3c0.8,0,1.3,0.8,1.3,2.4v0.2C427.2,161.9,426.7,162.7,425.9,162.7 M425.9,164.6
			c2.1,0,3.4-1.8,3.4-4.3v-0.2c0-2.5-1.3-4.3-3.4-4.3c-2.1,0-3.4,1.8-3.4,4.3v0.2C422.5,162.9,423.8,164.6,425.9,164.6 M418.2,162.7
			c-0.8,0-1.3-0.8-1.3-2.4v-0.2c0-1.5,0.5-2.3,1.2-2.3c0.8,0,1.3,0.8,1.3,2.4v0.2C419.5,161.9,419,162.7,418.2,162.7 M418.2,164.6
			c2.1,0,3.4-1.8,3.4-4.3v-0.2c0-2.5-1.3-4.3-3.4-4.3c-2.1,0-3.4,1.8-3.4,4.3v0.2C414.8,162.9,416.1,164.6,418.2,164.6 M410.5,162.7
			c-0.8,0-1.3-0.8-1.3-2.4v-0.2c0-1.5,0.5-2.3,1.2-2.3c0.8,0,1.3,0.8,1.3,2.4v0.2C411.8,161.9,411.3,162.7,410.5,162.7 M410.5,164.6
			c2.1,0,3.4-1.8,3.4-4.3v-0.2c0-2.5-1.3-4.3-3.4-4.3c-2.1,0-3.4,1.8-3.4,4.3v0.2C407.1,162.9,408.4,164.6,410.5,164.6 M404.1,166.4
			c1.4-0.1,2.3-0.7,2.3-2.3v-1.8h-2.2v2.2h0.9c0,0.6-0.3,1-1.2,1.1L404.1,166.4z M400.1,162.7c-0.8,0-1.3-0.8-1.3-2.4v-0.2
			c0-1.5,0.5-2.3,1.2-2.3c0.8,0,1.3,0.8,1.3,2.4v0.2C401.3,161.9,400.9,162.7,400.1,162.7 M400.1,164.6c2.1,0,3.4-1.8,3.4-4.3v-0.2
			c0-2.5-1.3-4.3-3.4-4.3c-2.1,0-3.4,1.8-3.4,4.3v0.2C396.7,162.9,397.9,164.6,400.1,164.6 M392.7,164.6c1.8,0,3.2-1.1,3.2-3v0
			c0-1.8-1.3-2.6-2.6-2.6c-0.4,0-0.8,0.1-1.1,0.2l0.1-1.3h3.3v-1.9h-5l-0.2,4.3l1.2,0.7c0.3-0.2,0.7-0.3,1.1-0.3
			c0.7,0,1.1,0.4,1.1,1v0c0,0.6-0.4,1-1.1,1c-0.6,0-1.2-0.3-1.7-0.7l-1.1,1.6C390.6,164.2,391.5,164.6,392.7,164.6 M386.8,164.5h2.1
			V156h-1.6l-2.1,0.6l0.3,1.8l1.2-0.3V164.5z M378.7,164.5h0.9v-3c0-1.6,0.9-2.4,2.1-2.4h0v-0.9c-1,0-1.8,0.6-2.1,1.5v-1.4h-0.9
			V164.5z M373.1,161c0.1-1.3,0.8-2.2,1.7-2.2c1,0,1.6,1,1.6,2.2H373.1z M375,164.6c0.9,0,1.6-0.4,2.1-0.9l-0.5-0.6
			c-0.4,0.4-0.9,0.7-1.6,0.7c-1,0-1.8-0.8-1.9-2.1h4.2c0-0.1,0-0.3,0-0.4c0-1.9-0.9-3.2-2.5-3.2c-1.5,0-2.6,1.3-2.6,3.2v0.1
			C372.2,163.4,373.5,164.6,375,164.6 M368.6,164.5h0.8l2.3-6.3h-0.9l-1.8,5.1l-1.8-5.1h-0.9L368.6,164.5z M362.9,163.8
			c-1.1,0-1.9-1-1.9-2.4v-0.1c0-1.4,0.8-2.4,1.9-2.4c1.1,0,1.9,1,1.9,2.4v0.1C364.8,162.8,364,163.8,362.9,163.8 M362.9,164.6
			c1.6,0,2.8-1.4,2.8-3.2v-0.1c0-1.8-1.2-3.2-2.8-3.2c-1.6,0-2.8,1.4-2.8,3.2v0.1C360.1,163.2,361.3,164.6,362.9,164.6 M353.1,163.8
			c-1.1,0-1.9-1-1.9-2.4v-0.1c0-1.4,0.8-2.4,1.9-2.4c1.1,0,1.9,1,1.9,2.4v0.1C355,162.8,354.2,163.8,353.1,163.8 M353.1,164.6
			c1.6,0,2.8-1.4,2.8-3.2v-0.1c0-1.8-1.2-3.2-2.8-3.2c-1.6,0-2.8,1.4-2.8,3.2v0.1C350.3,163.2,351.5,164.6,353.1,164.6 M348.5,164.6
			c0.4,0,0.7-0.1,0.9-0.2v-0.7c-0.3,0.1-0.5,0.2-0.7,0.2c-0.5,0-0.9-0.2-0.9-0.9V159h1.6v-0.8h-1.6v-1.8h-0.9v1.8h-0.8v0.8h0.8v4
			C346.9,164.1,347.6,164.6,348.5,164.6"/>
		<path class="st1" d="M573.4,150.6c1.1,0,2-0.7,2-1.8v0c0-0.9-0.7-1.4-1.8-1.8c-0.9-0.4-1.4-0.6-1.4-1.2v0c0-0.5,0.4-0.9,1.1-0.9
			c0.6,0,1.1,0.2,1.6,0.6l0.4-0.7c-0.5-0.4-1.3-0.7-2-0.7c-1.1,0-1.9,0.7-1.9,1.7v0c0,1,0.8,1.4,1.8,1.8c0.8,0.3,1.4,0.6,1.4,1.2v0
			c0,0.6-0.5,1-1.2,1c-0.6,0-1.2-0.3-1.8-0.8l-0.5,0.6C571.8,150.3,572.7,150.6,573.4,150.6 M566.1,147c0.1-1.3,0.8-2.2,1.7-2.2
			c1,0,1.6,1,1.6,2.2H566.1z M568,150.6c0.9,0,1.6-0.4,2.1-0.9l-0.5-0.6c-0.4,0.4-0.9,0.7-1.6,0.7c-1,0-1.8-0.8-1.9-2.1h4.2
			c0-0.1,0-0.3,0-0.4c0-1.9-0.9-3.2-2.5-3.2c-1.5,0-2.6,1.3-2.6,3.2v0.1C565.3,149.4,566.5,150.6,568,150.6 M562.5,150.6
			c0.9,0,1.5-0.4,2-0.9l-0.5-0.6c-0.4,0.4-0.9,0.7-1.5,0.7c-1.1,0-1.9-0.9-1.9-2.4v-0.1c0-1.5,0.8-2.4,1.9-2.4
			c0.6,0,1.1,0.3,1.5,0.7l0.5-0.6c-0.5-0.5-1.1-0.9-2-0.9c-1.6,0-2.8,1.3-2.8,3.2v0.1C559.7,149.3,560.9,150.6,562.5,150.6
			 M557.3,150.5h0.9v-6.2h-0.9V150.5z M557.3,142.9h1v-1h-1V142.9z M552.9,150.5h0.8l2.3-6.3h-0.9l-1.8,5.1l-1.8-5.1h-0.9
			L552.9,150.5z M546.9,150.5h0.9v-3c0-1.6,0.9-2.4,2.1-2.4h0v-0.9c-1,0-1.8,0.6-2.1,1.5v-1.4h-0.9V150.5z M541.3,147
			c0.1-1.3,0.8-2.2,1.7-2.2c1,0,1.6,1,1.6,2.2H541.3z M543.2,150.6c0.9,0,1.6-0.4,2.1-0.9l-0.5-0.6c-0.4,0.4-0.9,0.7-1.6,0.7
			c-1,0-1.8-0.8-1.9-2.1h4.2c0-0.1,0-0.3,0-0.4c0-1.9-0.9-3.2-2.5-3.2c-1.5,0-2.6,1.3-2.6,3.2v0.1
			C540.4,149.4,541.7,150.6,543.2,150.6 M537.3,150.6c1.1,0,2-0.7,2-1.8v0c0-0.9-0.7-1.4-1.8-1.8c-0.9-0.4-1.4-0.6-1.4-1.2v0
			c0-0.5,0.4-0.9,1.1-0.9c0.6,0,1.1,0.2,1.6,0.6l0.4-0.7c-0.5-0.4-1.3-0.7-2-0.7c-1.1,0-1.9,0.7-1.9,1.7v0c0,1,0.8,1.4,1.8,1.8
			c0.8,0.3,1.4,0.6,1.4,1.2v0c0,0.6-0.5,1-1.2,1c-0.6,0-1.2-0.3-1.8-0.8l-0.5,0.6C535.7,150.3,536.6,150.6,537.3,150.6 M528,149.3
			c-1,0-1.8-0.8-1.8-2.2v0c0-1.4,0.8-2.2,1.8-2.2c1,0,1.9,0.8,1.9,2.2v0C529.9,148.4,529,149.3,528,149.3 M528,152.3
			c0.9,0,1.6-0.2,2.1-0.7c0.4-0.4,0.7-1.1,0.7-1.9v-5.4h-0.9v1.1c-0.4-0.7-1.1-1.2-2.1-1.2c-1.3,0-2.5,1.1-2.5,3v0
			c0,1.9,1.2,2.9,2.5,2.9c1,0,1.6-0.6,2.1-1.3v0.9c0,1.2-0.7,1.9-1.9,1.9c-0.7,0-1.4-0.2-2-0.6l-0.3,0.7
			C526.4,152.1,527.2,152.3,528,152.3 M519.2,150.5h0.9v-3.8c0-1.1,0.7-1.8,1.6-1.8c0.9,0,1.4,0.6,1.4,1.7v3.9h0.9v-4.1
			c0-1.4-0.8-2.3-2-2.3c-0.9,0-1.5,0.5-1.8,1.1v-1h-0.9V150.5z M516.5,150.5h0.9v-6.2h-0.9V150.5z M516.5,142.9h1v-1h-1V142.9z
			 M513.7,150.5h0.9v-8.7h-0.9V150.5z M510.4,150.6c0.9,0,1.5-0.4,2-0.9l-0.5-0.6c-0.4,0.4-0.9,0.7-1.5,0.7c-1.1,0-1.9-0.9-1.9-2.4
			v-0.1c0-1.5,0.8-2.4,1.9-2.4c0.6,0,1.1,0.3,1.5,0.7l0.5-0.6c-0.5-0.5-1.1-0.9-2-0.9c-1.6,0-2.8,1.3-2.8,3.2v0.1
			C507.6,149.3,508.8,150.6,510.4,150.6 M504.4,149.4l-1.9-5.1h-0.9l2.4,6.3c-0.3,0.8-0.6,1.1-1.1,1.1c-0.3,0-0.6-0.1-0.8-0.2
			l-0.3,0.7c0.4,0.2,0.7,0.3,1.1,0.3c0.8,0,1.4-0.4,1.8-1.7l2.2-6.4h-0.9L504.4,149.4z M498.9,150.6c0.9,0,1.5-0.4,2-0.9l-0.5-0.6
			c-0.4,0.4-0.9,0.7-1.5,0.7c-1.1,0-1.9-0.9-1.9-2.4v-0.1c0-1.5,0.8-2.4,1.9-2.4c0.6,0,1.1,0.3,1.5,0.7l0.5-0.6
			c-0.5-0.5-1.1-0.9-2-0.9c-1.6,0-2.8,1.3-2.8,3.2v0.1C496.1,149.3,497.3,150.6,498.9,150.6 M490.9,147c0.1-1.3,0.8-2.2,1.7-2.2
			c1,0,1.6,1,1.6,2.2H490.9z M492.8,150.6c0.9,0,1.6-0.4,2.1-0.9l-0.5-0.6c-0.4,0.4-0.9,0.7-1.6,0.7c-1,0-1.8-0.8-1.9-2.1h4.2
			c0-0.1,0-0.3,0-0.4c0-1.9-0.9-3.2-2.5-3.2c-1.5,0-2.6,1.3-2.6,3.2v0.1C490,149.4,491.2,150.6,492.8,150.6 M486.4,150.5h0.9v-3
			c0-1.6,0.9-2.4,2.1-2.4h0v-0.9c-1,0-1.8,0.6-2.1,1.5v-1.4h-0.9V150.5z M478.8,149.8c-1,0-1.8-0.9-1.8-2.4v-0.1
			c0-1.5,0.8-2.4,1.8-2.4c1,0,1.9,0.9,1.9,2.4v0.1C480.7,148.9,479.8,149.8,478.8,149.8 M478.6,150.6c1,0,1.6-0.6,2-1.3v1.2h0.9
			v-8.7h-0.9v3.6c-0.4-0.7-1-1.3-2-1.3c-1.3,0-2.5,1.1-2.5,3.2v0.1C476.1,149.5,477.3,150.6,478.6,150.6 M470,150.5h0.9v-3.8
			c0-1.1,0.7-1.8,1.6-1.8c0.9,0,1.4,0.6,1.4,1.7v3.9h0.9v-4.1c0-1.4-0.8-2.3-2-2.3c-0.9,0-1.5,0.5-1.8,1.1v-1H470V150.5z
			 M465.7,149.9c-0.7,0-1.3-0.5-1.3-1.3v0c0-0.8,0.6-1.3,1.5-1.3c0.6,0,1.1,0.1,1.5,0.3v0.8C467.5,149.2,466.7,149.9,465.7,149.9
			 M465.5,150.6c0.9,0,1.5-0.5,1.9-1v0.9h0.9v-4c0-0.7-0.2-1.3-0.6-1.7c-0.4-0.4-1-0.6-1.8-0.6c-0.8,0-1.4,0.2-2,0.5l0.3,0.7
			c0.4-0.2,1-0.4,1.6-0.4c1,0,1.6,0.5,1.6,1.5v0.4c-0.5-0.1-0.9-0.3-1.6-0.3c-1.4,0-2.3,0.7-2.3,2v0
			C463.5,149.9,464.5,150.6,465.5,150.6 M455.2,147c0.1-1.3,0.8-2.2,1.7-2.2c1,0,1.6,1,1.6,2.2H455.2z M457.1,150.6
			c0.9,0,1.6-0.4,2.1-0.9l-0.5-0.6c-0.4,0.4-0.9,0.7-1.6,0.7c-1,0-1.8-0.8-1.9-2.1h4.2c0-0.1,0-0.3,0-0.4c0-1.9-0.9-3.2-2.5-3.2
			c-1.5,0-2.6,1.3-2.6,3.2v0.1C454.3,149.4,455.6,150.6,457.1,150.6 M452.5,150.6c0.4,0,0.7-0.1,0.9-0.2v-0.7
			c-0.3,0.1-0.5,0.2-0.7,0.2c-0.5,0-0.9-0.2-0.9-0.9V145h1.6v-0.8h-1.6v-1.8H451v1.8h-0.8v0.8h0.8v4
			C451,150.1,451.6,150.6,452.5,150.6 M447.3,150.6c1.1,0,2-0.7,2-1.8v0c0-0.9-0.7-1.4-1.8-1.8c-0.9-0.4-1.4-0.6-1.4-1.2v0
			c0-0.5,0.4-0.9,1.1-0.9c0.6,0,1.1,0.2,1.6,0.6l0.4-0.7c-0.5-0.4-1.3-0.7-2-0.7c-1.1,0-1.9,0.7-1.9,1.7v0c0,1,0.8,1.4,1.8,1.8
			c0.8,0.3,1.4,0.6,1.4,1.2v0c0,0.6-0.5,1-1.2,1c-0.6,0-1.2-0.3-1.8-0.8l-0.5,0.6C445.7,150.3,446.6,150.6,447.3,150.6 M441.4,149.9
			c-0.7,0-1.3-0.5-1.3-1.3v0c0-0.8,0.6-1.3,1.5-1.3c0.6,0,1.1,0.1,1.5,0.3v0.8C443.1,149.2,442.3,149.9,441.4,149.9 M441.2,150.6
			c0.9,0,1.5-0.5,1.9-1v0.9h0.9v-4c0-0.7-0.2-1.3-0.6-1.7c-0.4-0.4-1-0.6-1.8-0.6c-0.8,0-1.4,0.2-2,0.5l0.3,0.7
			c0.4-0.2,1-0.4,1.6-0.4c1,0,1.6,0.5,1.6,1.5v0.4c-0.5-0.1-0.9-0.3-1.6-0.3c-1.4,0-2.3,0.7-2.3,2v0
			C439.2,149.9,440.1,150.6,441.2,150.6 M432.2,150.5h0.8l1.4-4.9l1.4,4.9h0.8l1.9-6.3h-0.9l-1.4,5l-1.4-5h-0.7l-1.4,5l-1.4-5h-0.9
			L432.2,150.5z M423.2,149.8c-1,0-1.8-0.9-1.8-2.4v-0.1c0-1.5,0.8-2.4,1.8-2.4c1,0,1.9,0.9,1.9,2.4v0.1
			C425.1,148.9,424.2,149.8,423.2,149.8 M423,150.6c1,0,1.6-0.6,2-1.3v1.2h0.9v-8.7H425v3.6c-0.4-0.7-1-1.3-2-1.3
			c-1.3,0-2.5,1.1-2.5,3.2v0.1C420.5,149.5,421.7,150.6,423,150.6 M414.4,150.5h0.9v-3.8c0-1.1,0.7-1.8,1.6-1.8
			c0.9,0,1.4,0.6,1.4,1.7v3.9h0.9v-4.1c0-1.4-0.8-2.3-2-2.3c-0.9,0-1.5,0.5-1.8,1.1v-1h-0.9V150.5z M409.9,150.6
			c0.9,0,1.5-0.5,1.8-1.1v1h0.9v-6.2h-0.9v3.8c0,1.1-0.7,1.8-1.6,1.8c-0.9,0-1.4-0.6-1.4-1.7v-3.9h-0.9v4.1
			C407.8,149.7,408.6,150.6,409.9,150.6 M403.7,149.8c-1.1,0-1.9-1-1.9-2.4v-0.1c0-1.4,0.8-2.4,1.9-2.4c1.1,0,1.9,1,1.9,2.4v0.1
			C405.6,148.8,404.8,149.8,403.7,149.8 M403.7,150.6c1.6,0,2.8-1.4,2.8-3.2v-0.1c0-1.8-1.2-3.2-2.8-3.2c-1.6,0-2.8,1.4-2.8,3.2v0.1
			C400.9,149.2,402.1,150.6,403.7,150.6 M397.8,150.6c1.1,0,2-0.7,2-1.8v0c0-0.9-0.7-1.4-1.8-1.8c-0.9-0.4-1.4-0.6-1.4-1.2v0
			c0-0.5,0.4-0.9,1.1-0.9c0.6,0,1.1,0.2,1.6,0.6l0.4-0.7c-0.5-0.4-1.3-0.7-2-0.7c-1.1,0-1.9,0.7-1.9,1.7v0c0,1,0.8,1.4,1.8,1.8
			c0.8,0.3,1.4,0.6,1.4,1.2v0c0,0.6-0.5,1-1.2,1c-0.6,0-1.2-0.3-1.8-0.8l-0.5,0.6C396.2,150.3,397.1,150.6,397.8,150.6 M391.5,147.3
			h3.1v-0.9h-3.1V147.3z M388,149.4l-1.9-5.1h-0.9l2.4,6.3c-0.3,0.8-0.6,1.1-1.1,1.1c-0.3,0-0.6-0.1-0.8-0.2l-0.3,0.7
			c0.4,0.2,0.7,0.3,1.1,0.3c0.8,0,1.4-0.4,1.8-1.7l2.2-6.4h-0.9L388,149.4z M383,150.5h0.9v-8.7H383V150.5z M380.2,150.5h0.9v-8.7
			h-0.9V150.5z M375.9,149.9c-0.7,0-1.3-0.5-1.3-1.3v0c0-0.8,0.6-1.3,1.5-1.3c0.6,0,1.1,0.1,1.5,0.3v0.8
			C377.6,149.2,376.9,149.9,375.9,149.9 M375.7,150.6c0.9,0,1.5-0.5,1.9-1v0.9h0.9v-4c0-0.7-0.2-1.3-0.6-1.7c-0.4-0.4-1-0.6-1.8-0.6
			c-0.8,0-1.4,0.2-2,0.5l0.3,0.7c0.4-0.2,1-0.4,1.6-0.4c1,0,1.6,0.5,1.6,1.5v0.4c-0.5-0.1-0.9-0.3-1.6-0.3c-1.4,0-2.3,0.7-2.3,2v0
			C373.7,149.9,374.7,150.6,375.7,150.6 M371.8,150.6c0.4,0,0.7-0.1,0.9-0.2v-0.7c-0.3,0.1-0.5,0.2-0.7,0.2c-0.5,0-0.9-0.2-0.9-0.9
			V145h1.6v-0.8h-1.6v-1.8h-0.9v1.8h-0.8v0.8h0.8v4C370.2,150.1,370.9,150.6,371.8,150.6 M363.5,150.5h0.9v-3.8
			c0-1.1,0.7-1.8,1.6-1.8c0.9,0,1.4,0.6,1.4,1.7v3.9h0.9v-4.1c0-1.4-0.8-2.3-2-2.3c-0.9,0-1.5,0.5-1.8,1.1v-1h-0.9V150.5z
			 M357.9,147c0.1-1.3,0.8-2.2,1.7-2.2c1,0,1.6,1,1.6,2.2H357.9z M359.8,150.6c0.9,0,1.6-0.4,2.1-0.9l-0.5-0.6
			c-0.4,0.4-0.9,0.7-1.6,0.7c-1,0-1.8-0.8-1.9-2.1h4.2c0-0.1,0-0.3,0-0.4c0-1.9-0.9-3.2-2.5-3.2c-1.5,0-2.6,1.3-2.6,3.2v0.1
			C357,149.4,358.3,150.6,359.8,150.6 M347.4,150.5h0.9v-3.8c0-1.1,0.6-1.8,1.5-1.8c0.9,0,1.4,0.6,1.4,1.7v3.9h0.9v-3.8
			c0-1.1,0.7-1.8,1.5-1.8c0.9,0,1.4,0.6,1.4,1.7v3.9h0.9v-4.1c0-1.5-0.8-2.3-2-2.3c-1,0-1.5,0.5-1.9,1.1c-0.3-0.7-0.9-1.1-1.7-1.1
			c-0.9,0-1.4,0.5-1.8,1.1v-1h-0.9V150.5z M341,150.5h0.9v-3.8c0-1.1,0.7-1.8,1.6-1.8c0.9,0,1.4,0.6,1.4,1.7v3.9h0.9v-4.1
			c0-1.4-0.8-2.3-2-2.3c-0.9,0-1.5,0.5-1.8,1.1v-1H341V150.5z M336.7,149.8c-1.1,0-1.9-1-1.9-2.4v-0.1c0-1.4,0.8-2.4,1.9-2.4
			c1.1,0,1.9,1,1.9,2.4v0.1C338.6,148.8,337.9,149.8,336.7,149.8 M336.7,150.6c1.6,0,2.8-1.4,2.8-3.2v-0.1c0-1.8-1.2-3.2-2.8-3.2
			c-1.6,0-2.8,1.4-2.8,3.2v0.1C334,149.2,335.1,150.6,336.7,150.6 M330.3,150.5h0.9v-3c0-1.6,0.9-2.4,2.1-2.4h0v-0.9
			c-1,0-1.8,0.6-2.1,1.5v-1.4h-0.9V150.5z M327.6,150.5h0.9v-6.2h-0.9V150.5z M327.6,142.9h1v-1h-1V142.9z M323.2,150.5h0.8l2.3-6.3
			h-0.9l-1.8,5.1l-1.8-5.1h-0.9L323.2,150.5z M315.2,150.5h0.9v-3.8c0-1.1,0.7-1.8,1.6-1.8c0.9,0,1.4,0.6,1.4,1.7v3.9h0.9v-4.1
			c0-1.4-0.8-2.3-2-2.3c-0.9,0-1.5,0.5-1.8,1.1v-1h-0.9V150.5z M309.6,147c0.1-1.3,0.8-2.2,1.7-2.2c1,0,1.6,1,1.6,2.2H309.6z
			 M311.5,150.6c0.9,0,1.6-0.4,2.1-0.9l-0.5-0.6c-0.4,0.4-0.9,0.7-1.6,0.7c-1,0-1.8-0.8-1.9-2.1h4.2c0-0.1,0-0.3,0-0.4
			c0-1.9-0.9-3.2-2.5-3.2c-1.5,0-2.6,1.3-2.6,3.2v0.1C308.7,149.4,310,150.6,311.5,150.6"/>
		<path class="st1" d="M572.4,135.8c-1,0-1.8-0.9-1.8-2.4v-0.1c0-1.5,0.8-2.4,1.8-2.4c1,0,1.9,0.9,1.9,2.4v0.1
			C574.3,134.9,573.4,135.8,572.4,135.8 M572.2,136.6c1,0,1.6-0.6,2-1.3v1.2h0.9v-8.7h-0.9v3.6c-0.4-0.7-1-1.3-2-1.3
			c-1.3,0-2.5,1.1-2.5,3.2v0.1C569.7,135.5,570.9,136.6,572.2,136.6 M563.6,136.5h0.9v-3.8c0-1.1,0.7-1.8,1.6-1.8
			c0.9,0,1.4,0.6,1.4,1.7v3.9h0.9v-4.1c0-1.4-0.8-2.3-2-2.3c-0.9,0-1.5,0.5-1.8,1.1v-1h-0.9V136.5z M559.3,135.9
			c-0.7,0-1.3-0.5-1.3-1.3v0c0-0.8,0.6-1.3,1.5-1.3c0.6,0,1.1,0.1,1.5,0.3v0.8C561.1,135.2,560.3,135.9,559.3,135.9 M559.2,136.6
			c0.9,0,1.5-0.5,1.9-1v0.9h0.9v-4c0-0.7-0.2-1.3-0.6-1.7c-0.4-0.4-1-0.6-1.8-0.6c-0.8,0-1.4,0.2-2,0.5l0.3,0.7
			c0.4-0.2,1-0.4,1.6-0.4c1,0,1.6,0.5,1.6,1.5v0.4c-0.5-0.1-0.9-0.3-1.6-0.3c-1.4,0-2.3,0.7-2.3,2v0
			C557.1,135.9,558.1,136.6,559.2,136.6 M551.5,137.9c0.9-0.2,1.3-0.7,1.3-1.6v-1.1h-1.1v1.2h0.4c0,0.5-0.2,0.8-0.8,1L551.5,137.9z
			 M546.3,133c0.1-1.3,0.8-2.2,1.7-2.2c1,0,1.6,1,1.6,2.2H546.3z M548.2,136.6c0.9,0,1.6-0.4,2.1-0.9l-0.5-0.6
			c-0.4,0.4-0.9,0.7-1.6,0.7c-1,0-1.8-0.8-1.9-2.2h4.2c0-0.1,0-0.3,0-0.4c0-1.9-0.9-3.2-2.5-3.2c-1.5,0-2.6,1.3-2.6,3.2v0.1
			C545.4,135.4,546.7,136.6,548.2,136.6 M543,136.5h0.9v-8.7H543V136.5z M538.8,135.8c-1,0-1.9-0.9-1.9-2.4v-0.1
			c0-1.5,0.9-2.4,1.9-2.4c1,0,1.8,0.9,1.8,2.4v0.1C540.6,134.9,539.8,135.8,538.8,135.8 M539,136.6c1.3,0,2.5-1.1,2.5-3.2v-0.1
			c0-2.1-1.2-3.2-2.5-3.2c-1,0-1.6,0.6-2,1.3v-3.6h-0.9v8.7h0.9v-1.2C537.4,136,538,136.6,539,136.6 M531.9,135.9
			c-0.7,0-1.3-0.5-1.3-1.3v0c0-0.8,0.6-1.3,1.5-1.3c0.6,0,1.1,0.1,1.5,0.3v0.8C533.6,135.2,532.8,135.9,531.9,135.9 M531.7,136.6
			c0.9,0,1.5-0.5,1.9-1v0.9h0.8v-4c0-0.7-0.2-1.3-0.6-1.7c-0.4-0.4-1-0.6-1.8-0.6c-0.8,0-1.4,0.2-2,0.5l0.3,0.7
			c0.4-0.2,1-0.4,1.6-0.4c1,0,1.6,0.5,1.6,1.5v0.4c-0.5-0.1-0.9-0.3-1.6-0.3c-1.4,0-2.3,0.7-2.3,2v0
			C529.7,135.9,530.6,136.6,531.7,136.6 M527.4,136.5h0.9v-6.2h-0.9V136.5z M527.3,128.9h1v-1h-1V128.9z M524.6,136.5h0.9v-8.7h-0.9
			V136.5z M518.9,133c0.1-1.3,0.8-2.2,1.7-2.2c1,0,1.6,1,1.6,2.2H518.9z M520.8,136.6c0.9,0,1.6-0.4,2.1-0.9l-0.5-0.6
			c-0.4,0.4-0.9,0.7-1.6,0.7c-1,0-1.8-0.8-1.9-2.2h4.2c0-0.1,0-0.3,0-0.4c0-1.9-0.9-3.2-2.5-3.2c-1.5,0-2.6,1.3-2.6,3.2v0.1
			C518,135.4,519.3,136.6,520.8,136.6 M514.4,136.5h0.9v-3c0-1.6,0.9-2.4,2.1-2.4h0v-0.9c-1,0-1.8,0.6-2.1,1.5v-1.4h-0.9V136.5z
			 M508.4,137.9c0.9-0.2,1.3-0.7,1.3-1.6v-1.1h-1.1v1.2h0.4c0,0.5-0.2,0.8-0.8,1L508.4,137.9z M503.2,133c0.1-1.3,0.8-2.2,1.7-2.2
			c1,0,1.6,1,1.6,2.2H503.2z M505.1,136.6c0.9,0,1.6-0.4,2.1-0.9l-0.5-0.6c-0.4,0.4-0.9,0.7-1.6,0.7c-1,0-1.8-0.8-1.9-2.2h4.2
			c0-0.1,0-0.3,0-0.4c0-1.9-0.9-3.2-2.5-3.2c-1.5,0-2.6,1.3-2.6,3.2v0.1C502.3,135.4,503.5,136.6,505.1,136.6 M499.2,136.5h0.9V131
			h1.6v-0.8h-1.6v-0.5c0-0.8,0.3-1.2,0.9-1.2c0.2,0,0.5,0,0.7,0.1v-0.8c-0.2-0.1-0.5-0.1-0.8-0.1c-0.5,0-0.9,0.2-1.2,0.4
			c-0.3,0.3-0.5,0.8-0.5,1.4v0.6h-0.8v0.8h0.8V136.5z M494.7,135.9c-0.7,0-1.3-0.5-1.3-1.3v0c0-0.8,0.6-1.3,1.5-1.3
			c0.6,0,1.1,0.1,1.5,0.3v0.8C496.4,135.2,495.6,135.9,494.7,135.9 M494.5,136.6c0.9,0,1.5-0.5,1.9-1v0.9h0.9v-4
			c0-0.7-0.2-1.3-0.6-1.7c-0.4-0.4-1-0.6-1.8-0.6c-0.8,0-1.4,0.2-2,0.5l0.3,0.7c0.4-0.2,1-0.4,1.6-0.4c1,0,1.6,0.5,1.6,1.5v0.4
			c-0.5-0.1-0.9-0.3-1.6-0.3c-1.4,0-2.3,0.7-2.3,2v0C492.5,135.9,493.4,136.6,494.5,136.6 M489.4,136.6c1.1,0,2-0.7,2-1.8v0
			c0-0.9-0.7-1.4-1.8-1.8c-0.9-0.4-1.4-0.6-1.4-1.2v0c0-0.5,0.4-0.9,1.1-0.9c0.6,0,1.1,0.2,1.6,0.6l0.4-0.7c-0.5-0.4-1.3-0.7-2-0.7
			c-1.1,0-1.9,0.7-1.9,1.7v0c0,1,0.8,1.4,1.8,1.8c0.8,0.3,1.4,0.6,1.4,1.2v0c0,0.6-0.5,1-1.2,1c-0.6,0-1.2-0.3-1.8-0.8l-0.5,0.6
			C487.8,136.3,488.7,136.6,489.4,136.6 M480.1,135.8c-1,0-1.8-0.9-1.8-2.4v-0.1c0-1.5,0.8-2.4,1.8-2.4c1,0,1.9,0.9,1.9,2.4v0.1
			C482,134.9,481.1,135.8,480.1,135.8 M480,136.6c1,0,1.6-0.6,2-1.3v1.2h0.9v-8.7H482v3.6c-0.4-0.7-1-1.3-2-1.3
			c-1.3,0-2.5,1.1-2.5,3.2v0.1C477.5,135.5,478.7,136.6,480,136.6 M472.2,133c0.1-1.3,0.8-2.2,1.7-2.2c1,0,1.6,1,1.6,2.2H472.2z
			 M474.1,136.6c0.9,0,1.6-0.4,2.1-0.9l-0.5-0.6c-0.4,0.4-0.9,0.7-1.6,0.7c-1,0-1.8-0.8-1.9-2.2h4.2c0-0.1,0-0.3,0-0.4
			c0-1.9-0.9-3.2-2.5-3.2c-1.5,0-2.6,1.3-2.6,3.2v0.1C471.3,135.4,472.5,136.6,474.1,136.6 M467.1,135.8c-1,0-1.8-0.9-1.8-2.4v-0.1
			c0-1.5,0.8-2.4,1.8-2.4c1,0,1.9,0.9,1.9,2.4v0.1C469,134.9,468.1,135.8,467.1,135.8 M467,136.6c1,0,1.6-0.6,2-1.3v1.2h0.9v-8.7
			H469v3.6c-0.4-0.7-1-1.3-2-1.3c-1.3,0-2.5,1.1-2.5,3.2v0.1C464.5,135.5,465.7,136.6,467,136.6 M462.1,136.5h0.9v-6.2h-0.9V136.5z
			 M462,128.9h1v-1h-1V128.9z M457.7,136.5h0.8l2.3-6.3h-0.9l-1.8,5.1l-1.8-5.1h-0.9L457.7,136.5z M452,135.8c-1.1,0-1.9-1-1.9-2.4
			v-0.1c0-1.4,0.8-2.4,1.9-2.4c1.1,0,1.9,1,1.9,2.4v0.1C453.9,134.8,453.1,135.8,452,135.8 M452,136.6c1.6,0,2.8-1.4,2.8-3.2v-0.1
			c0-1.8-1.2-3.2-2.8-3.2c-1.6,0-2.8,1.4-2.8,3.2v0.1C449.2,135.2,450.4,136.6,452,136.6 M445.6,136.5h0.9v-3c0-1.6,0.9-2.4,2.1-2.4
			h0v-0.9c-1,0-1.8,0.6-2.1,1.5v-1.4h-0.9V136.5z M441.5,135.8c-1,0-1.9-0.9-1.9-2.4v-0.1c0-1.5,0.9-2.4,1.9-2.4
			c1,0,1.8,0.9,1.8,2.4v0.1C443.2,134.9,442.4,135.8,441.5,135.8 M438.7,138.3h0.9v-3c0.4,0.7,1,1.3,2,1.3c1.3,0,2.5-1.1,2.5-3.2
			v-0.1c0-2.1-1.2-3.2-2.5-3.2c-1,0-1.6,0.6-2,1.3v-1.2h-0.9V138.3z M430,133c0.1-1.3,0.8-2.2,1.7-2.2c1,0,1.6,1,1.6,2.2H430z
			 M431.9,136.6c0.9,0,1.6-0.4,2.1-0.9l-0.5-0.6c-0.4,0.4-0.9,0.7-1.6,0.7c-1,0-1.8-0.8-1.9-2.2h4.2c0-0.1,0-0.3,0-0.4
			c0-1.9-0.9-3.2-2.5-3.2c-1.5,0-2.6,1.3-2.6,3.2v0.1C429.1,135.4,430.4,136.6,431.9,136.6 M422.2,136.5h0.8l1.4-4.9l1.4,4.9h0.8
			l1.9-6.3h-0.9l-1.4,5l-1.4-5H424l-1.4,5l-1.4-5h-0.9L422.2,136.5z M414.7,137.9c0.9-0.2,1.3-0.7,1.3-1.6v-1.1h-1.1v1.2h0.4
			c0,0.5-0.2,0.8-0.8,1L414.7,137.9z M408.3,136.5h2.3l3.1-6.8v-1.6h-5.7v1.9h3.4L408.3,136.5z M404.8,136.5h2.1V128h-1.6l-2.1,0.6
			l0.3,1.8l1.2-0.3V136.5z M399.5,134.7c-0.8,0-1.3-0.8-1.3-2.4v-0.2c0-1.5,0.5-2.3,1.2-2.3c0.8,0,1.3,0.8,1.3,2.4v0.2
			C400.7,133.9,400.2,134.7,399.5,134.7 M399.4,136.6c2.1,0,3.4-1.8,3.4-4.3v-0.2c0-2.5-1.3-4.3-3.4-4.3c-2.1,0-3.4,1.8-3.4,4.3v0.2
			C396,134.9,397.3,136.6,399.4,136.6 M389.4,136.5h5.8v-1.8h-3.1l1.4-1.3c1.1-1,1.6-1.7,1.6-2.8v0c0-1.5-1.2-2.5-2.8-2.5
			c-1.3,0-2.2,0.5-3,1.5l1.3,1.4c0.6-0.6,1-1,1.5-1c0.5,0,0.9,0.3,0.9,0.8c0,0.5-0.3,0.9-0.9,1.5l-2.7,2.6V136.5z M380.4,136.5h0.9
			v-3.8c0-1.1,0.7-1.8,1.6-1.8c0.9,0,1.4,0.6,1.4,1.7v3.9h0.9v-4.1c0-1.4-0.8-2.3-2-2.3c-0.9,0-1.5,0.5-1.8,1.1v-1h-0.9V136.5z
			 M377.5,136.5h0.9v-8.4h-0.9V136.5z"/>
		<path class="st2" d="M612.5,0H0v228.2c0,0,253.6-133.9,612.5-133.9V0z"/>
		<path class="st1" d="M486.2,89h10.6V67l14.5,22h9.6V47h-10.6v21.1l-14-21.1h-10.1V89z M461.7,80c-5,0-8.5-4.4-8.5-11.7v-0.7
			c0-7.3,3.4-11.6,8.4-11.6c5,0,8.5,4.4,8.5,11.7v0.7C470.1,75.7,466.7,80,461.7,80 M461.6,89.8c11.3,0,19.5-8.8,19.5-21.4v-0.9
			c0-12.6-8.1-21.3-19.4-21.3c-11.3,0-19.5,8.8-19.5,21.4v0.9C442.2,81.1,450.3,89.8,461.6,89.8 M426.1,89h10.8V47h-10.8V89z
			 M400.4,89h10.8V56.8h10.4V47h-31.6v9.7h10.4V89z M372.8,89.8c7,0,11.7-3,15.1-7.2l-6.8-7c-1.9,2.2-4.1,4.1-7.7,4.1
			c-4.9,0-8.6-4.1-8.6-11.6v-0.2c0-7.1,3.7-11.5,8.6-11.5c3.3,0,5.6,1.8,7.4,4l7-7.4c-3.4-4-7.9-6.6-14.5-6.6
			c-11,0-19.5,8.5-19.5,21.4v0.7C353.8,81.5,362.1,89.8,372.8,89.8 M321.2,89h29.2v-9.5h-18.5v-7.2h16.4v-8.9h-16.4v-6.9h18.2V47
			h-28.9V89z M289.6,89h27.3v-9.7h-16.5V47h-10.8V89z M258.1,89h27.3v-9.7h-16.5V47h-10.8V89z M233.6,80c-5,0-8.5-4.4-8.5-11.7v-0.7
			c0-7.3,3.4-11.6,8.4-11.6s8.5,4.4,8.5,11.7v0.7C242,75.7,238.6,80,233.6,80 M233.5,89.8c11.3,0,19.5-8.8,19.5-21.4v-0.9
			c0-12.6-8.1-21.3-19.4-21.3c-11.3,0-19.5,8.8-19.5,21.4v0.9C214.1,81.1,222.2,89.8,233.5,89.8 M197.4,89.8c7,0,11.7-3,15.1-7.2
			l-6.8-7c-1.9,2.2-4.1,4.1-7.7,4.1c-4.9,0-8.6-4.1-8.6-11.6v-0.2c0-7.1,3.7-11.5,8.6-11.5c3.3,0,5.6,1.8,7.4,4l7-7.4
			c-3.4-4-7.9-6.6-14.5-6.6c-11,0-19.5,8.5-19.5,21.4v0.7C178.3,81.5,186.7,89.8,197.4,89.8"/>
		<g class="st3">
			<g>
				<defs>
					<rect id="SVGID_1_" x="-21.2" y="-1" width="189.7" height="189.7"/>
				</defs>
				<clipPath id="SVGID_2_">
					<use xlink:href="#SVGID_1_"  style="overflow:visible;"/>
				</clipPath>
				<path class="st4" d="M73.7,0C21.9,0-20.2,42-20.2,93.9c0,51.8,42,93.9,93.9,93.9s93.9-42,93.9-93.9C167.6,42,125.5,0,73.7,0"/>
				<path class="st4" d="M73.7,9.8c22.4,0,43.5,8.7,59.4,24.6c15.9,15.9,24.6,37,24.6,59.4s-8.7,43.5-24.6,59.4
					c-15.9,15.9-37,24.6-59.4,24.6s-43.5-8.7-59.4-24.6c-15.9-15.9-24.6-37-24.6-59.4s8.7-43.5,24.6-59.4
					C30.1,18.6,51.2,9.8,73.7,9.8"/>
				<path class="st5" d="M73.7,9.8c22.4,0,43.5,8.7,59.4,24.6c15.9,15.9,24.6,37,24.6,59.4s-8.7,43.5-24.6,59.4
					c-15.9,15.9-37,24.6-59.4,24.6s-43.5-8.7-59.4-24.6c-15.9-15.9-24.6-37-24.6-59.4s8.7-43.5,24.6-59.4
					C30.1,18.6,51.2,9.8,73.7,9.8"/>
				<path class="st6" d="M106.1,87.9V70.1H126l8.2,17.7H106.1z M98.5,65.4v56.4h5.1c0-8,6.5-14.5,14.5-14.5c8,0,14.5,6.5,14.5,14.5
					h8.7V87.9L130,65.4L98.5,65.4L98.5,65.4z M72.4,121.8c0,6.6-5.3,11.9-11.9,11.9c-6.6,0-11.9-5.3-11.9-11.9
					c0-6.6,5.3-11.9,11.9-11.9C67.1,109.9,72.4,115.2,72.4,121.8 M40.3,121.8c0,6.6-5.3,11.9-11.9,11.9c-6.6,0-11.9-5.3-11.9-11.9
					c0-6.6,5.3-11.9,11.9-11.9C34.9,109.9,40.3,115.2,40.3,121.8 M130,121.8c0,6.6-5.3,11.9-11.9,11.9c-6.6,0-11.9-5.3-11.9-11.9
					c0-6.6,5.3-11.9,11.9-11.9C124.6,109.9,130,115.2,130,121.8 M-0.4,88c0,19,8.6,33.8,8.6,33.8h5.6c0-8,6.5-14.5,14.5-14.5
					c8,0,14.5,6.5,14.5,14.5H46c0-8,6.5-14.5,14.5-14.5c8,0,14.5,6.5,14.5,14.5h21V42.3H23.3C23.3,42.3-0.4,55.9-0.4,88"/>
			</g>
		</g>
	</g>
</g>
</svg>
