<svg xmlns="http://www.w3.org/2000/svg" viewBox="0 0 481.78 247.75"><defs><style>.cls-1{fill:#00518d;}.cls-2{fill:#76bc21;}.cls-3{fill:#76777a;}.cls-4{fill:#00263e;}.cls-5{fill:none;stroke:#00263e;stroke-width:2.08px;}.cls-6{fill:#fff;}</style></defs><title>truck</title><g id="Layer_2" data-name="Layer 2"><g id="Layer_1-2" data-name="Layer 1"><rect class="cls-1" x="168.16" y="238.35" width="8.8" height="9.28"/><rect class="cls-2" x="203.47" y="238.35" width="8.8" height="9.28"/><rect class="cls-3" x="267.99" y="238.35" width="8.8" height="9.28"/><path class="cls-4" d="M371.57,164.68a6.38,6.38,0,0,0-6.36-6.36H307.92a6.38,6.38,0,0,0-6.36,6.36v25.46a6.38,6.38,0,0,0,6.36,6.37h57.29a6.38,6.38,0,0,0,6.36-6.37Zm-76.38,25.46h-25.6c.1-1,.14-2.11.14-3.18a35,35,0,0,0-14.91-28.64h40.37ZM92,158.32h40.38A35,35,0,0,0,117.45,187q0,1.6.15,3.18H92Zm95,23.21a35.09,35.09,0,0,0-14.45-23.21h42.11a35.07,35.07,0,0,0-14.46,23.21v8.61H187Zm47.74-23.21A28.64,28.64,0,1,0,263.37,187a28.7,28.7,0,0,0-28.64-28.64m0,44.55A15.91,15.91,0,1,1,250.64,187a15.94,15.94,0,0,1-15.91,15.91m-82.27-44.55A28.64,28.64,0,1,0,181.1,187a28.69,28.69,0,0,0-28.64-28.64m0,44.55A15.91,15.91,0,1,1,168.37,187a15.94,15.94,0,0,1-15.91,15.91M419.3,158.32A28.64,28.64,0,1,0,448,187a28.69,28.69,0,0,0-28.65-28.64m0,44.55A15.91,15.91,0,1,1,435.21,187a15.94,15.94,0,0,1-15.91,15.91m-41.37-44.55v31.82h6.37V187a35,35,0,1,1,70,0v3.18h22.28a3.18,3.18,0,0,0,3.18-3.18V120.13a47.85,47.85,0,0,0-1.88-13L464.34,59.54a4.23,4.23,0,0,0-4.06-3.06H393.85a3.19,3.19,0,0,0-3.19,3.18v98.66Zm38.19-31.83h6.36v12.73h-6.36Zm0-57.28h44.56l12.72,44.55H416.12ZM91,149.78C38.34,134.54,39.5,81,39.5,81c0-37.34,13.86-67.84,47-69.85v-.11H91V5.32h13.65v5.73h36.88V5.32h13.66v5.73h36.87V5.32h13.66v5.73H246L257.8,0H358.15V11.05H382.5V31.74l99.1,14.68.18,7-99.28-13V149.78Z"/><path class="cls-4" d="M26.35,28.53l1-2.69v2.69Zm.95,3H29V30.06h.69V28.53H29V23.06H27.2l-2.3,5.7v1.3h2.4Zm-4.76,0h1.81V23H23.06l-1.38.43v1.76l.86-.26ZM19.06,30c-.34,0-.57-.36-.57-2.34v-.73c0-2,.23-2.35.57-2.35s.57.36.57,2.35v.73c0,2-.23,2.34-.57,2.34m0,1.67c1.49,0,2.36-1.31,2.36-4.12V27c0-2.81-.85-4.11-2.35-4.11S16.7,24.21,16.7,27v.52c0,2.81.84,4.11,2.36,4.11M12.4,31.5h3.88V29.71h-2l1.35-2.49a4.33,4.33,0,0,0,.67-2.2V25a1.91,1.91,0,0,0-2-2,4,4,0,0,0-1.71.39v1.75a2.57,2.57,0,0,1,1.24-.39.67.67,0,0,1,.73.71A3.69,3.69,0,0,1,14,26.91l-1.57,3Z"/><path class="cls-4" d="M26.7,66.94c1.54,0,2.61-1,2.61-2.93v-.1c0-1.86-1-2.52-2.08-2.52a2.06,2.06,0,0,0-.39,0l.09-1.34H29V58.37H25.58l-.22,4.2.83.49a1.21,1.21,0,0,1,.54-.1c.45,0,.79.28.79,1V64c0,.75-.41,1.2-1,1.2A2.33,2.33,0,0,1,25.41,65v1.75a3.55,3.55,0,0,0,1.29.23m-3.79-.13h1.81V58.33H23.43L22,58.76v1.76l.87-.26Zm-3.48-1.52c-.34,0-.57-.36-.57-2.34v-.73c0-2,.23-2.35.57-2.35s.56.36.56,2.35V63c0,2-.23,2.34-.56,2.34m0,1.67c1.49,0,2.36-1.31,2.36-4.12v-.52c0-2.81-.86-4.11-2.35-4.11s-2.38,1.31-2.38,4.12v.52c0,2.81.85,4.11,2.37,4.11m-6.66-.15h3.88V65h-2L16,62.53a4.35,4.35,0,0,0,.68-2.2v-.06a1.91,1.91,0,0,0-2-2,4,4,0,0,0-1.71.39v1.75A2.57,2.57,0,0,1,14.18,60a.67.67,0,0,1,.73.71,3.69,3.69,0,0,1-.57,1.53l-1.57,3Z"/><path class="cls-4" d="M27.36,100.73c-.29,0-.5-.36-.5-1.47V98.15a.75.75,0,0,1,.42-.13c.32,0,.56.24.56,1.08v.33c0,1-.18,1.3-.48,1.3m0,1.54c1.21,0,2.15-1,2.15-2.91V99c0-1.89-.88-2.44-1.74-2.44a1.61,1.61,0,0,0-.94.29c0-1.29.43-1.73,1.11-1.73a2.22,2.22,0,0,1,1,.23V93.72a4.12,4.12,0,0,0-1.14-.16c-1.48,0-2.68.89-2.68,4.38v.25c0,1.82.3,3,.89,3.55a1.82,1.82,0,0,0,1.36.53m-4.68-.15h1.81V93.64H23.22l-1.39.43v1.76l.87-.26Zm-3.48-1.52c-.34,0-.57-.36-.57-2.34v-.73c0-2,.23-2.35.57-2.35s.56.36.56,2.35v.73c0,2-.23,2.34-.56,2.34m0,1.67c1.49,0,2.36-1.31,2.36-4.12v-.52c0-2.81-.86-4.11-2.35-4.11s-2.38,1.31-2.38,4.12v.52c0,2.81.85,4.11,2.37,4.11m-6.66-.15h3.88v-1.79h-2l1.35-2.49a4.35,4.35,0,0,0,.68-2.2v-.06a1.91,1.91,0,0,0-2-2,3.92,3.92,0,0,0-1.71.39v1.75A2.57,2.57,0,0,1,14,95.29a.66.66,0,0,1,.72.71,3.62,3.62,0,0,1-.56,1.53l-1.57,3Z"/><path class="cls-4" d="M25.89,138.25h1.75L29.19,131v-1.15H25.4v1.77h2Zm-2.86,0h1.81v-8.48H23.55l-1.39.43V132l.87-.26Zm-3.48-1.52c-.34,0-.57-.36-.57-2.34v-.73c0-2,.23-2.35.57-2.35s.56.36.56,2.35v.73c0,2-.23,2.34-.56,2.34m0,1.67c1.49,0,2.36-1.31,2.36-4.12v-.52c0-2.81-.86-4.11-2.35-4.11s-2.38,1.31-2.38,4.12v.52c0,2.81.85,4.11,2.37,4.11m-6.66-.15h3.88v-1.79h-2L16.13,134a4.35,4.35,0,0,0,.68-2.2v-.06a1.91,1.91,0,0,0-2-2,4,4,0,0,0-1.71.39v1.75a2.57,2.57,0,0,1,1.24-.39.67.67,0,0,1,.73.71,3.69,3.69,0,0,1-.57,1.53l-1.57,3Z"/><line class="cls-5" x1="382.56" y1="115.83" y2="115.83"/><line class="cls-5" x1="382.56" y1="150.86" y2="150.86"/><rect class="cls-3" x="257.48" y="10.66" width="125.08" height="33.34"/><rect class="cls-2" x="187.52" y="10.66" width="69.96" height="33.34"/><rect class="cls-1" x="169.85" y="10.66" width="17.92" height="33.34"/><rect class="cls-1" x="147.97" y="46.05" width="17.92" height="33.34"/><rect class="cls-2" x="165.89" y="46.05" width="100.24" height="33.34"/><rect class="cls-3" x="266.1" y="46.05" width="116.46" height="33.34"/><rect class="cls-1" x="126.71" y="81.02" width="17.15" height="33.34"/><rect class="cls-2" x="143.86" y="81.02" width="129.93" height="33.34"/><rect class="cls-3" x="273.73" y="81.02" width="108.83" height="33.34"/><rect class="cls-1" x="117.32" y="116.48" width="17.92" height="33.34"/><rect class="cls-2" x="135.24" y="116.48" width="144.49" height="33.34"/><rect class="cls-3" x="279.73" y="116.48" width="102.83" height="33.34"/><line class="cls-5" x1="382.56" y1="80.24" y2="80.24"/><line class="cls-5" x1="382.56" y1="44.93" y2="44.93"/><line class="cls-5" x1="382.56" y1="10.66" y2="10.66"/><path class="cls-3" d="M110.57,132.18c-.34,0-.48-.37-.48-1.68v-.59c0-1.32.14-1.71.48-1.71s.5.39.5,1.71v.59c0,1.31-.17,1.68-.5,1.68m0,1.64c1.29,0,2.16-1.18,2.16-3.45V130c0-2.29-.87-3.45-2.16-3.45s-2.15,1.2-2.15,3.45v.34c0,2.27.85,3.45,2.15,3.45m-3.42-6.72L104,133.69h1.48l2.93-6.33,3.16-6.6H110.1Zm-2.2-4.85c.33,0,.5.39.5,1.71v.59c0,1.31-.17,1.68-.5,1.68s-.48-.37-.48-1.68V124c0-1.32.15-1.71.48-1.71m0,5.6c1.27,0,2.16-1.18,2.16-3.43v-.33c0-2.3-.87-3.46-2.16-3.46s-2.14,1.16-2.14,3.46v.33c0,2.27.85,3.43,2.14,3.43m-8.31,16.39h4.75V122H98l-3.64,1.14v4.63l2.28-.7Zm-8.18-3.64c-.76,0-1.3-.95-1.3-3.86v-2.92a1.93,1.93,0,0,1,1.11-.35c.83,0,1.46.63,1.46,2.85v.86c0,2.6-.48,3.42-1.27,3.42m.06,4.06c3.17,0,5.64-2.76,5.64-7.67v-.86c0-5-2.31-6.4-4.56-6.4a4.26,4.26,0,0,0-2.47.76c0-3.39,1.14-4.56,2.92-4.56a6,6,0,0,1,2.59.6v-4.34a10.06,10.06,0,0,0-3-.44c-3.9,0-7.07,2.34-7.07,11.53v.63c0,4.79.79,7.8,2.34,9.35a4.8,4.8,0,0,0,3.58,1.4"/><path class="cls-3" d="M119.65,96.57c-.34,0-.49-.37-.49-1.68v-.6c0-1.31.15-1.7.49-1.7s.5.39.5,1.7v.6c0,1.31-.17,1.68-.5,1.68m0,1.64c1.29,0,2.16-1.18,2.16-3.45v-.34c0-2.29-.87-3.45-2.16-3.45s-2.15,1.2-2.15,3.45v.34c0,2.27.85,3.45,2.15,3.45m-3.42-6.72-3.14,6.59h1.48l2.93-6.34,3.16-6.59h-1.48ZM114,86.64c.33,0,.5.39.5,1.71v.59c0,1.31-.17,1.68-.5,1.68s-.48-.37-.48-1.68v-.59c0-1.32.15-1.71.48-1.71m0,5.6c1.27,0,2.16-1.18,2.16-3.43v-.33c0-2.3-.87-3.46-2.16-3.46s-2.14,1.16-2.14,3.45v.34c0,2.27.85,3.43,2.14,3.43m-8.82,13c-.76,0-1.37-.73-1.37-3V102c0-2.25.58-3.08,1.37-3.08s1.33.83,1.33,3.08v.28c0,2.32-.57,3-1.33,3m0-9.89c-.76,0-1.24-.82-1.24-2.73v-.22c0-2.06.54-2.69,1.24-2.69s1.24.63,1.24,2.69v.22c0,1.91-.51,2.73-1.24,2.73m0,13.66c3.52,0,5.89-2.51,5.89-6.5v-.25a6.31,6.31,0,0,0-2.53-5.42,5.63,5.63,0,0,0,2.28-4.72v-.23c0-3.55-2.38-5.89-5.61-5.89S99.6,88.42,99.6,92v.22a5.65,5.65,0,0,0,2.25,4.72,6.42,6.42,0,0,0-2.5,5.42v.25c0,4,2.34,6.47,5.83,6.47M91.61,109c4.06,0,6.88-2.66,6.88-7.7V101c0-4.88-2.57-6.62-5.48-6.62a8.88,8.88,0,0,0-1,.06L92.21,91h5.42v-4.5h-9L88.1,97.51l2.18,1.27a3.5,3.5,0,0,1,1.43-.26c1.17,0,2.06.73,2.06,2.64v.15c0,2-1.08,3.14-2.7,3.14a6.37,6.37,0,0,1-2.85-.66v4.59a9.27,9.27,0,0,0,3.39.6"/><path class="cls-3" d="M141.16,61.26c-.33,0-.48-.37-.48-1.68V59c0-1.31.15-1.7.48-1.7s.5.39.5,1.7v.6c0,1.31-.16,1.68-.5,1.68m0,1.64c1.3,0,2.16-1.18,2.16-3.45v-.34c0-2.29-.86-3.45-2.16-3.45S139,56.86,139,59.11v.34c0,2.27.85,3.45,2.14,3.45m-3.42-6.72-3.14,6.59h1.48L139,56.43l3.16-6.59H140.7Zm-2.19-4.85c.33,0,.5.39.5,1.7v.6c0,1.31-.17,1.68-.5,1.68s-.48-.37-.48-1.68V53c0-1.31.14-1.7.48-1.7m0,5.6c1.27,0,2.16-1.18,2.16-3.43v-.34c0-2.29-.87-3.45-2.16-3.45s-2.15,1.16-2.15,3.45v.34c0,2.27.85,3.43,2.15,3.43m-9.3,12.4c-.89,0-1.49-1-1.49-6.15v-1.9c0-5.23.6-6.18,1.49-6.18s1.49.95,1.49,6.18v1.9c0,5.2-.6,6.15-1.49,6.15m0,4.4c3.93,0,6.21-3.45,6.21-10.83V61.54c0-7.39-2.25-10.81-6.18-10.81S120,54.18,120,61.57v1.36c0,7.39,2.22,10.8,6.21,10.8m-14-.06c4.06,0,6.88-2.66,6.88-7.7v-.25c0-4.88-2.57-6.62-5.48-6.62a8.73,8.73,0,0,0-1,.06l.22-3.52h5.42v-4.5h-9L108.7,62.2l2.18,1.27a3.5,3.5,0,0,1,1.43-.26c1.17,0,2.06.73,2.06,2.64V66c0,2-1.08,3.14-2.7,3.14a6.37,6.37,0,0,1-2.85-.66v4.59a9.27,9.27,0,0,0,3.39.6"/><path class="cls-3" d="M162.2,26.15c-.34,0-.48-.37-.48-1.68v-.59c0-1.31.14-1.7.48-1.7s.5.39.5,1.7v.59c0,1.31-.17,1.68-.5,1.68m0,1.65c1.29,0,2.16-1.19,2.16-3.46V24c0-2.29-.87-3.46-2.16-3.46s-2.14,1.2-2.14,3.46v.33c0,2.27.84,3.46,2.14,3.46m-3.42-6.73-3.14,6.6h1.48l2.94-6.34,3.15-6.6h-1.47Zm-2.2-4.84c.33,0,.5.39.5,1.7v.59c0,1.31-.17,1.68-.5,1.68s-.48-.37-.48-1.68v-.59c0-1.31.15-1.7.48-1.7m0,5.6c1.28,0,2.16-1.18,2.16-3.44v-.33c0-2.29-.87-3.45-2.16-3.45s-2.14,1.16-2.14,3.45v.33c0,2.27.85,3.44,2.14,3.44m-8.31,16.39H153V15.94h-3.39L146,17.08v4.63l2.28-.7Zm-11.22-7.79,2.54-7.09v7.09Zm2.47,7.79H144V34.45h1.81v-4H144V16h-4.72l-6.05,15v3.42h6.3Z"/><path class="cls-4" d="M192.24,247.75a4.1,4.1,0,0,0,1.87-.5v-4.7h-2.34v1.63h.66V246l-.15,0c-.51,0-1.08-.45-1.08-2.46V243c0-1.68.55-2.39,1.35-2.39a2.38,2.38,0,0,1,1.26.43v-1.88a2.83,2.83,0,0,0-1.41-.32c-1.76,0-3.09,1.42-3.09,4.21v.49c0,2.92,1.3,4.21,2.93,4.21m-8.42-.12h1.78V243.5l1.44,4.13h1.7V239H187v3.91L185.6,239h-1.78Zm-1.88.09a2.33,2.33,0,0,0,1.29-.33v-1.78a1.91,1.91,0,0,1-.93.31c-.71,0-1.2-.42-1.2-2.47v-.32c0-1.95.53-2.47,1.15-2.47a1.78,1.78,0,0,1,.94.31V239.1a2.42,2.42,0,0,0-1.13-.24c-1.51,0-2.85,1.18-2.85,4.22v.44c0,2.92,1.21,4.2,2.73,4.2"/><path class="cls-4" d="M317.38,247.09h3.5v-1.77h-1.64v-6.89h-1.86Zm-4.36,0h3.79v-1.77h-1.93V243.6h1.68v-1.73h-1.68v-1.69h1.89v-1.75H313Zm-2.78.1a2.34,2.34,0,0,0,2.34-2.44v-.05c0-1.11-.42-1.71-1.6-2.86-.58-.59-.76-.83-.76-1.14h0a.61.61,0,0,1,.66-.61,2.67,2.67,0,0,1,1.35.42v-1.86a3.6,3.6,0,0,0-1.53-.31,2.27,2.27,0,0,0-2.33,2.43v0c0,1.16.49,1.77,1.59,2.81.59.57.76.88.76,1.15v0c0,.42-.27.64-.71.64a3.11,3.11,0,0,1-1.52-.52v1.84a3.62,3.62,0,0,0,1.75.45m-6-.1H308v-1.77h-1.93V243.6h1.68v-1.73h-1.68v-1.69H308v-1.75h-3.75Zm-2.56,0h1.85v-8.66h-1.85Zm-2.49-4.56V243c0,1.88-.53,2.4-1.21,2.4v-5.25c.68,0,1.21.48,1.21,2.4m-3.07,4.56h1.73c2.11,0,3.23-1.44,3.23-4.12v-.42c0-2.69-1.12-4.12-3.23-4.12H296.1Zm-4.32-4.56V243c0,1.88-.53,2.4-1.21,2.4v-5.25c.68,0,1.21.48,1.21,2.4m-3.07,4.56h1.73c2.11,0,3.23-1.44,3.23-4.12v-.42c0-2.69-1.12-4.12-3.23-4.12h-1.73Zm-4,0h3.51v-1.77h-1.65v-6.89h-1.86Zm-3.12-1.56c-.41,0-.67-.44-.67-2.49v-.58c0-2,.26-2.49.67-2.49s.66.46.66,2.49V243c0,2.05-.25,2.49-.66,2.49m0,1.72c1.56,0,2.55-1.41,2.55-4.22v-.55c0-2.82-1-4.22-2.55-4.22s-2.56,1.4-2.56,4.22V243c0,2.81,1,4.22,2.56,4.22"/><path class="cls-4" d="M255.55,247.63h3.5v-1.77H257.4V239h-1.85Zm-4.36,0H255v-1.77H253v-1.73h1.69V242.4H253v-1.68h1.9V239h-3.75Zm-2.79.09a2.32,2.32,0,0,0,2.34-2.43v0c0-1.12-.42-1.71-1.59-2.86-.59-.6-.76-.83-.76-1.14h0a.6.6,0,0,1,.66-.61,2.63,2.63,0,0,1,1.35.42v-1.87a3.77,3.77,0,0,0-1.54-.31,2.28,2.28,0,0,0-2.33,2.44v0c0,1.16.5,1.77,1.6,2.81.58.57.76.88.76,1.15h0a.63.63,0,0,1-.71.65,3.08,3.08,0,0,1-1.52-.52v1.84a3.58,3.58,0,0,0,1.74.44m-6-.09h3.78v-1.77h-1.93v-1.73h1.69V242.4h-1.69v-1.68h1.9V239h-3.75Zm-2.57,0h1.86V239h-1.86Zm-2.48-4.56v.45c0,1.88-.54,2.4-1.22,2.4v-5.25c.68,0,1.22.48,1.22,2.4m-3.07,4.56H236c2.1,0,3.23-1.44,3.23-4.13v-.42c0-2.68-1.13-4.12-3.23-4.12h-1.73Zm-8.67,0h1.93l.63-4.37.62,4.37h1.94l1.34-8.69h-1.89l-.55,5-.64-5h-1.6l-.65,5-.55-5h-1.93Zm-5.35,0H224v-1.77h-1.93v-1.73h1.68V242.4h-1.68v-1.68H224V239h-3.75Zm-5.61,0h1.79V243.5l1.43,4.13h1.7V239h-1.78v3.91L216.43,239h-1.79Z"/><path class="cls-6" d="M463.85,133.32a1.16,1.16,0,0,1-.44,0c-.31,0-.48.11-.48.28s.26.3.54.3a.66.66,0,0,0,.57-.33.68.68,0,0,0,.12-.55.42.42,0,0,1-.31.31m-.37-1.94a1,1,0,0,0-.68.31l-2.36,0V133a1.68,1.68,0,0,1,.38-.62,1.6,1.6,0,0,1,.59-.26h2.35a.3.3,0,0,0,.43-.33c0-.24-.25-.36-.71-.37m-10.94,2.52a.65.65,0,0,0,.67-.44h2.32v-.29h-3.74a.77.77,0,0,0,.76.71m14.37,1.23a.94.94,0,0,1-.41-.78v-3.42a1,1,0,0,0-1-1h-4.28a1.6,1.6,0,0,0-.48.26,1.27,1.27,0,0,0-.29.39v-2.16h-2.38v6.67h2.32v-.67h.12a1,1,0,0,0,.3.47.78.78,0,0,0,.51.2h2.14a.53.53,0,0,0,.37-.1.87.87,0,0,0,.22-.24v.34Zm-9.06-6.67h-2.38v2.22a1.27,1.27,0,0,0-.29-.48,1,1,0,0,0-.53-.23h-4.5a.89.89,0,0,0-.5.22.64.64,0,0,0-.27.36h-.14a1.46,1.46,0,0,0-.3-.35,1,1,0,0,0-.62-.23H444a.74.74,0,0,0-.38.19,1.08,1.08,0,0,0-.25.36h-.12a.75.75,0,0,0-.23-.37,1,1,0,0,0-.52-.18h-4.6a.9.9,0,0,0-.47.14.75.75,0,0,0-.21.36.86.86,0,0,0-.23-.33,1,1,0,0,0-.53-.17h-5.17a.42.42,0,0,0-.43.41v4.33a.42.42,0,0,0,.43.42h5.24a1.14,1.14,0,0,0,.41-.28.69.69,0,0,0,.23-.37,1,1,0,0,0,.25.4,1,1,0,0,0,.4.25h2.56a1.11,1.11,0,0,0,.28-.16,2.06,2.06,0,0,0,.19-.27v.43h2.56v-.45a1,1,0,0,0,.21.29,1.85,1.85,0,0,0,.3.16h4.6a1.31,1.31,0,0,0,.53-.24.78.78,0,0,0,.19-.41h.14a.77.77,0,0,0,.19.4.74.74,0,0,0,.5.25h4.64a.94.94,0,0,0,.47-.19.77.77,0,0,0,.29-.43v.62h2.4v-6.67Zm10.33,6.67-.71,1.34H463.3v-.29h-.16l-.19.29H460.2l-.17-.36h-.21l-.22.35h-2.29v-.26h-.11l-.19.26h-2.34v-.53h-.11l-.37.53h-5.12s-.16,0-.38-.25-.18-.32-.18-.32h-.14a1.28,1.28,0,0,1-.16.32.62.62,0,0,1-.34.25H443.3a.54.54,0,0,1-.26-.16,1,1,0,0,1-.19-.3.94.94,0,0,1-.15.3.36.36,0,0,1-.28.16H440V136h-.11a1.05,1.05,0,0,1-.15.28.47.47,0,0,1-.3.18h-2.5s-.17,0-.38-.24-.19-.34-.19-.34h-.13a.88.88,0,0,1-.16.34.5.5,0,0,1-.4.25h-5.22a.59.59,0,0,1-.59-.57V129.6a.58.58,0,0,1,.58-.57h6.05a1,1,0,0,1,.41.12l.25.26h.09a.79.79,0,0,1,.23-.26.81.81,0,0,1,.37-.12h4.75a.87.87,0,0,1,.39.14.91.91,0,0,1,.21.26h.14a.72.72,0,0,1,.22-.26.65.65,0,0,1,.34-.14h4.69a.93.93,0,0,1,.38.14,1,1,0,0,1,.3.27h.08a.77.77,0,0,1,.27-.28,1.23,1.23,0,0,1,.4-.13h4.48v-1.52h7V129H466a1.45,1.45,0,0,1,1.47,1.44v3.12a2.08,2.08,0,0,0,.71,1.55m-27.67-1.78a1.16,1.16,0,0,1-.44,0c-.31,0-.48.12-.48.29s.26.3.54.3a.77.77,0,0,0,.69-.88.43.43,0,0,1-.31.3m14.94,1.16v0m-15.2-3.22a1,1,0,0,0-.77.33h-2.34v.57h-2.42v-.51a.59.59,0,0,0-.59-.4.55.55,0,0,0-.59.37v1.88s.07.39.6.39.57-.37.57-.37v-.84h2.5a1.62,1.62,0,0,1,.26-.45,1,1,0,0,1,.4-.23h2.75s.32,0,.32-.37c0-.21-.31-.36-.69-.36m6.21,0c-.45,0-.67.12-.67.37s.44.33.44.33H448a1.6,1.6,0,0,1,.77.14,1.48,1.48,0,0,1,.55.5v-1h-2.14s-.09-.33-.7-.33m.25,1.89H444.3a1.14,1.14,0,0,1-.62-.16.94.94,0,0,1-.41-.46v1h2.31a1.07,1.07,0,0,0,.88.39c.42,0,.62-.17.62-.41s-.38-.35-.38-.35m5.72-1.8c-.69,0-.67.57-.67.57h1.36a.7.7,0,0,0-.69-.57m14.95,5.27-.7,1.34H429.14a.82.82,0,0,1-.83-.81v-8.86a.81.81,0,0,1,.82-.81H454.3v1.34h-24a.61.61,0,0,0-.61.6v6.6a.61.61,0,0,0,.61.6Z"/></g></g></svg>