<svg xmlns="http://www.w3.org/2000/svg" viewBox="0 0 369.01 182.19"><defs><style>.cls-1,.cls-3{fill:none;}.cls-1{stroke:#b7b8ba;stroke-miterlimit:10;stroke-width:0.46px;}.cls-2{fill:#76777a;}.cls-3{stroke:#231f20;stroke-linecap:round;stroke-linejoin:round;stroke-width:2.48px;}.cls-4{fill:#0082ca;}.cls-5{fill:#fff;}</style></defs><title>Asset 1</title><g id="Layer_2" data-name="Layer 2"><g id="Layer_1-2" data-name="Layer 1"><line class="cls-1" x1="19.22" y1="50.57" x2="368.22" y2="50.57"/><line class="cls-1" x1="19.22" y1="91.39" x2="368.22" y2="91.39"/><line class="cls-1" x1="19.22" y1="9.6" x2="368.22" y2="9.6"/><line class="cls-1" x1="19.22" y1="133.11" x2="368.22" y2="133.11"/><path class="cls-2" d="M15.15,11.23c-.2,0-.35-.21-.35-.48h0c0-.28.13-.49.34-.49s.35.21.35.49v0c0,.27-.14.47-.34.47m0,.69a1.1,1.1,0,0,0,1.08-1.17h0a1.08,1.08,0,1,0-2.15,0v0a1.09,1.09,0,0,0,1.07,1.16M13.5,9.51l-1.76,2.34h.81l1.44-2,1.77-2.36H15ZM12.35,8.12c.21,0,.36.21.36.49v0c0,.27-.15.48-.35.48S12,8.89,12,8.62h0c0-.28.14-.49.34-.49m0,1.66a1.09,1.09,0,0,0,1.08-1.16h0a1.08,1.08,0,0,0-1.07-1.16,1.09,1.09,0,0,0-1.08,1.16v0a1.09,1.09,0,0,0,1.07,1.15M8.94,10.87c-.47,0-.78-.49-.78-1.19h0c0-.7.31-1.19.76-1.19s.78.51.78,1.2h0c0,.69-.3,1.18-.76,1.18m0,1.07a2.05,2.05,0,0,0,1.94-2.26h0A2,2,0,0,0,8.94,7.42,2.05,2.05,0,0,0,7,9.68H7a2,2,0,0,0,1.92,2.25m-4.3-1.07c-.47,0-.78-.49-.78-1.19h0c0-.7.3-1.19.76-1.19s.78.51.78,1.2h0c0,.69-.3,1.18-.76,1.18m0,1.07A2,2,0,0,0,6.54,9.68h0A2,2,0,0,0,4.62,7.42,2.05,2.05,0,0,0,2.68,9.68h0A2,2,0,0,0,4.6,11.94M.92,11.85H2.06V7.48H1.22L0,7.84l.22.93.7-.17Z"/><path class="cls-2" d="M15.15,52.21c-.2,0-.35-.21-.35-.49h0c0-.28.13-.48.34-.48s.36.21.36.49h0c0,.27-.15.48-.35.48m0,.68a1.1,1.1,0,0,0,1.08-1.17h0a1.08,1.08,0,1,0-2.15,0h0a1.09,1.09,0,0,0,1.07,1.16m-1.64-2.4-1.76,2.34h.81l1.44-2,1.77-2.37H15ZM12.36,49.1c.2,0,.35.21.35.49h0c0,.27-.15.48-.35.48s-.35-.21-.35-.49h0c0-.28.14-.48.35-.48m0,1.65a1.09,1.09,0,0,0,1.07-1.16h0a1.08,1.08,0,0,0-1.07-1.16,1.1,1.1,0,0,0-1.08,1.17h0a1.09,1.09,0,0,0,1.08,1.15m-3.2,2.16a1.54,1.54,0,0,0,1.72-1.54h0A1.32,1.32,0,0,0,9.45,50a1.47,1.47,0,0,0-.67.15l0-.65h1.87v-1H7.91l-.12,2.2.68.4a1.26,1.26,0,0,1,.67-.21c.36,0,.61.18.61.5h0c0,.31-.22.51-.61.51a1.54,1.54,0,0,1-1-.47l-.66.81a2.29,2.29,0,0,0,1.69.68m-4.92-.08H5.52l1.84-3.44v-.91H4.15v1H6.08Z"/><path class="cls-2" d="M15.15,93c-.2,0-.35-.21-.35-.48v0c0-.28.13-.48.34-.48s.36.21.36.49h0c0,.28-.15.48-.35.48m0,.68a1.09,1.09,0,0,0,1.08-1.16v0a1.08,1.08,0,1,0-2.15,0h0a1.09,1.09,0,0,0,1.07,1.16M13.5,91.3l-1.76,2.34h.81l1.44-2,1.77-2.36H15Zm-1.15-1.39c.21,0,.36.21.36.49h0c0,.28-.15.48-.35.48s-.35-.21-.35-.48h0c0-.28.14-.49.34-.49m0,1.66a1.09,1.09,0,0,0,1.08-1.16h0a1.08,1.08,0,1,0-2.15,0h0a1.09,1.09,0,0,0,1.07,1.16M8.94,92.66c-.47,0-.78-.5-.78-1.19h0c0-.7.3-1.19.76-1.19s.78.5.78,1.2h0c0,.69-.3,1.18-.76,1.18m0,1.07a2,2,0,0,0,1.94-2.26h0a2,2,0,0,0-1.92-2.25A2.05,2.05,0,0,0,7,91.47H7a2,2,0,0,0,1.92,2.25m-4.08,0a1.55,1.55,0,0,0,1.72-1.55h0a1.32,1.32,0,0,0-1.43-1.38,1.35,1.35,0,0,0-.67.16l0-.66H6.37v-1H3.59l-.12,2.19.68.41a1.19,1.19,0,0,1,.67-.22c.36,0,.61.19.61.5v0c0,.31-.22.5-.61.5a1.54,1.54,0,0,1-1-.47L3.15,93a2.3,2.3,0,0,0,1.69.69"/><path class="cls-2" d="M15.15,134.75c-.2,0-.35-.22-.35-.49h0c0-.28.13-.49.34-.49s.36.22.36.5h0c0,.27-.15.48-.35.48m0,.68a1.1,1.1,0,0,0,1.08-1.17h0a1.08,1.08,0,1,0-2.15,0h0a1.09,1.09,0,0,0,1.07,1.16M13.5,133l-1.76,2.34h.81l1.44-2L15.76,131H15Zm-1.14-1.39c.2,0,.35.21.35.49h0c0,.27-.15.48-.35.48s-.35-.21-.35-.49h0c0-.28.14-.48.35-.48m0,1.65a1.09,1.09,0,0,0,1.07-1.16h0A1.08,1.08,0,0,0,12.36,131a1.1,1.1,0,0,0-1.08,1.17h0a1.09,1.09,0,0,0,1.08,1.15m-3.2,2.16a1.54,1.54,0,0,0,1.72-1.54h0a1.32,1.32,0,0,0-1.43-1.38,1.47,1.47,0,0,0-.67.15l0-.66h1.87v-1H7.91l-.12,2.2.68.4a1.27,1.27,0,0,1,.67-.22c.36,0,.61.19.61.51h0c0,.31-.22.51-.61.51a1.54,1.54,0,0,1-1-.47l-.66.8a2.26,2.26,0,0,0,1.69.69m-5.3-.08h3.3v-1H5.44l.71-.53c.62-.46,1-.82,1-1.52h0A1.4,1.4,0,0,0,5.58,131a1.93,1.93,0,0,0-1.7.93l.78.67c.33-.39.55-.56.83-.56a.43.43,0,0,1,.47.45c0,.26-.15.46-.54.78l-1.56,1.24Z"/><path class="cls-2" d="M15.15,173.66c-.2,0-.35-.21-.35-.48h0c0-.28.13-.49.34-.49s.36.21.36.49v0c0,.27-.15.47-.35.47m0,.69a1.1,1.1,0,0,0,1.08-1.17h0a1.08,1.08,0,1,0-2.15,0v0a1.09,1.09,0,0,0,1.07,1.16m-1.64-2.41-1.76,2.34h.81l1.44-2,1.77-2.36H15Zm-1.14-1.39c.2,0,.35.22.35.49v0c0,.27-.15.48-.35.48s-.35-.22-.35-.49h0c0-.28.14-.49.35-.49m0,1.66a1.09,1.09,0,0,0,1.07-1.16h0a1.08,1.08,0,0,0-1.07-1.16A1.09,1.09,0,0,0,11.28,171v0a1.09,1.09,0,0,0,1.08,1.15M8.94,173.3c-.47,0-.78-.49-.78-1.19h0c0-.7.3-1.19.76-1.19s.78.51.78,1.2h0c0,.69-.3,1.18-.76,1.18m0,1.07a2,2,0,0,0,1.94-2.26h0a2,2,0,0,0-1.92-2.25A2.05,2.05,0,0,0,7,172.11H7a2,2,0,0,0,1.92,2.25"/><line class="cls-1" x1="18.91" y1="174.06" x2="368.22" y2="174.06"/><line class="cls-1" x1="19.13" y1="174.28" x2="19.13"/><line class="cls-1" x1="60.33" y1="174.59" x2="60.33" y2="178.38"/><line class="cls-1" x1="103.36" y1="174.59" x2="103.36" y2="178.38"/><line class="cls-1" x1="146.29" y1="174.59" x2="146.29" y2="178.38"/><line class="cls-1" x1="189.22" y1="174.59" x2="189.22" y2="178.38"/><line class="cls-1" x1="232.15" y1="174.59" x2="232.15" y2="178.38"/><line class="cls-1" x1="275.08" y1="174.59" x2="275.08" y2="178.38"/><line class="cls-1" x1="318.01" y1="174.59" x2="318.01" y2="178.38"/><path class="cls-2" d="M344.67,181.28c-.39,0-.6-.23-.6-.49v0c0-.28.25-.47.6-.47s.6.19.6.47v0c0,.26-.21.49-.6.49m0-1.76a.47.47,0,0,1-.51-.48h0a.52.52,0,0,1,1,0h0a.48.48,0,0,1-.52.48m0,2.66c1,0,1.72-.51,1.72-1.29h0a1.07,1.07,0,0,0-.72-1,1.05,1.05,0,0,0,.57-.95h0c0-.69-.63-1.21-1.57-1.21s-1.56.52-1.56,1.21h0a1.06,1.06,0,0,0,.56.95,1.05,1.05,0,0,0-.71,1v0c0,.75.71,1.27,1.71,1.27m-3.39-.08h1.14v-4.37h-.84l-1.22.36.22.93.7-.17Zm-3-1c-.46,0-.77-.49-.77-1.19h0c0-.7.3-1.19.76-1.19s.77.51.77,1.2h0c0,.69-.29,1.18-.76,1.18m0,1.07a2.05,2.05,0,0,0,1.94-2.26h0a2,2,0,1,0-3.86,0h0a2,2,0,0,0,1.92,2.25m-5.66-.09h3.3v-1h-1.72l.71-.52c.62-.46,1-.82,1-1.52h0a1.4,1.4,0,0,0-1.54-1.39,1.93,1.93,0,0,0-1.7.93l.78.68c.33-.39.55-.56.83-.56a.42.42,0,0,1,.47.44c0,.26-.15.47-.54.79l-1.56,1.24Z"/><path class="cls-2" d="M300.28,182.1h1.28l1.84-3.44v-.9h-3.21v1h1.93Zm-1.88,0h1.14v-4.37h-.84l-1.22.36.22.93.7-.17Zm-3-1c-.46,0-.77-.49-.77-1.19h0c0-.7.3-1.19.76-1.19s.77.51.77,1.2h0c0,.69-.29,1.18-.76,1.18m0,1.07a2,2,0,0,0,1.93-2.26h0a2,2,0,0,0-1.92-2.25,2.06,2.06,0,0,0-1.94,2.26h0a2,2,0,0,0,1.93,2.25m-5.66-.09H293v-1h-1.72l.71-.52c.62-.46,1-.82,1-1.52h0a1.4,1.4,0,0,0-1.54-1.39,1.93,1.93,0,0,0-1.7.93l.78.68c.33-.39.55-.56.83-.56a.42.42,0,0,1,.47.44c0,.26-.15.47-.54.79l-1.56,1.24Z"/><path class="cls-2" d="M258.83,181.25a.55.55,0,0,1-.59-.56h0a.53.53,0,0,1,.57-.56.56.56,0,0,1,.6.56h0a.54.54,0,0,1-.58.56m0,.94a1.56,1.56,0,0,0,1.66-1.56v0a1.3,1.3,0,0,0-1.38-1.35,1.36,1.36,0,0,0-.9.34c0-.35.19-.94.79-.94a1.3,1.3,0,0,1,.83.33l.54-.84a2.09,2.09,0,0,0-1.39-.48c-1.3,0-1.93,1-1.93,2.38v0a2.2,2.2,0,0,0,.51,1.62,1.64,1.64,0,0,0,1.27.5m-3.54-.09h1.14v-4.37h-.84l-1.22.36.22.93.7-.17Zm-3-1c-.47,0-.78-.49-.78-1.19h0c0-.7.31-1.19.77-1.19s.77.51.77,1.2h0c0,.69-.3,1.18-.76,1.18m0,1.07a2,2,0,0,0,1.93-2.26h0a2,2,0,1,0-3.86,0h0a2,2,0,0,0,1.93,2.25m-5.66-.09h3.3v-1h-1.72l.71-.52c.62-.46,1-.82,1-1.52h0a1.4,1.4,0,0,0-1.53-1.39,1.92,1.92,0,0,0-1.7.93l.78.68c.33-.39.55-.56.83-.56a.42.42,0,0,1,.47.44c0,.26-.16.47-.54.79l-1.56,1.24Z"/><path class="cls-2" d="M215.81,182.19a1.54,1.54,0,0,0,1.72-1.55h0a1.32,1.32,0,0,0-1.43-1.38,1.43,1.43,0,0,0-.66.16l0-.66h1.88v-1h-2.79l-.12,2.2.69.4a1.16,1.16,0,0,1,.66-.22c.37,0,.62.19.62.5v0c0,.31-.23.51-.61.51a1.52,1.52,0,0,1-1-.48l-.66.81a2.26,2.26,0,0,0,1.68.69m-3.32-.09h1.14v-4.37h-.84l-1.22.36.22.93.7-.17Zm-3-1c-.46,0-.77-.49-.77-1.19h0c0-.7.3-1.19.76-1.19s.78.51.78,1.2h0c0,.69-.3,1.18-.77,1.18m0,1.07a2.05,2.05,0,0,0,1.94-2.26h0a2,2,0,1,0-3.86,0h0a2,2,0,0,0,1.92,2.25m-5.66-.09h3.3v-1h-1.72l.72-.52c.62-.46,1-.82,1-1.52h0a1.4,1.4,0,0,0-1.54-1.39,1.9,1.9,0,0,0-1.69.93l.78.68c.32-.39.54-.56.82-.56a.43.43,0,0,1,.48.44c0,.26-.16.47-.55.79l-1.56,1.24Z"/><path class="cls-2" d="M172.19,180.37l1-1.26v1.26Zm1,1.73h1.11v-.84h.53v-.9h-.53v-2.63h-1.16L171,180.41l.18.85h2Zm-3.81,0h1.14v-4.37h-.84l-1.22.36.22.93.7-.17Zm-3-1c-.47,0-.78-.49-.78-1.19h0c0-.7.31-1.19.77-1.19s.77.51.77,1.2h0c0,.69-.3,1.18-.76,1.18m0,1.07a2,2,0,0,0,1.93-2.26h0a2,2,0,1,0-3.86,0h0a2,2,0,0,0,1.93,2.25m-5.66-.09H164v-1h-1.72l.71-.52c.62-.46,1-.82,1-1.52h0a1.4,1.4,0,0,0-1.54-1.39,1.92,1.92,0,0,0-1.7.93l.78.68c.33-.39.55-.56.83-.56a.42.42,0,0,1,.47.44c0,.26-.15.47-.54.79l-1.56,1.24Z"/><path class="cls-2" d="M130.06,182.19a1.46,1.46,0,0,0,1.61-1.45h0a1.21,1.21,0,0,0-1.08-1.22l1-.9v-.85h-3v1h1.6l-1,.9.16.63h.49c.44,0,.68.17.68.45h0c0,.27-.2.44-.53.44a1.3,1.3,0,0,1-1-.5l-.74.76a2.23,2.23,0,0,0,1.78.77m-3.4-.09h1.14v-4.37H127l-1.22.36.22.93.7-.17Zm-3-1c-.46,0-.77-.49-.77-1.19h0c0-.7.3-1.19.76-1.19s.77.51.77,1.2h0c0,.69-.29,1.18-.76,1.18m0,1.07a2.05,2.05,0,0,0,1.94-2.26h0a2,2,0,1,0-3.86,0h0a2,2,0,0,0,1.92,2.25M118,182.1h3.3v-1h-1.72l.71-.52c.62-.46,1-.82,1-1.52h0a1.4,1.4,0,0,0-1.54-1.39,1.93,1.93,0,0,0-1.7.93l.78.68c.33-.39.55-.56.83-.56a.42.42,0,0,1,.47.44c0,.26-.15.47-.54.79L118,181.2Z"/><path class="cls-2" d="M85.43,182.1h3.3v-1H87l.72-.52c.62-.46,1-.82,1-1.52h0a1.4,1.4,0,0,0-1.53-1.39,1.91,1.91,0,0,0-1.7.93l.78.68c.33-.39.55-.56.83-.56a.42.42,0,0,1,.47.44c0,.26-.16.47-.55.79l-1.56,1.24Zm-1.71,0h1.14v-4.37H84l-1.22.36L83,179l.7-.17Zm-3-1c-.46,0-.77-.49-.77-1.19h0c0-.7.3-1.19.76-1.19s.78.51.78,1.2h0c0,.69-.3,1.18-.77,1.18m0,1.07a2.05,2.05,0,0,0,1.94-2.26h0a2,2,0,1,0-3.86,0h0a2,2,0,0,0,1.92,2.25M75,182.1h3.3v-1H76.61l.72-.52c.61-.46,1-.82,1-1.52h0a1.4,1.4,0,0,0-1.54-1.39,1.9,1.9,0,0,0-1.69.93l.78.68c.32-.39.54-.56.82-.56a.42.42,0,0,1,.47.44c0,.26-.15.47-.54.79L75,181.2Z"/><path class="cls-2" d="M43.88,182.1H45v-4.37h-.84l-1.22.36.22.93.7-.17Zm-2.48,0h1.13v-4.37h-.84l-1.22.36.22.93.71-.17Zm-3-1c-.46,0-.77-.49-.77-1.19h0c0-.7.3-1.19.76-1.19s.78.51.78,1.2h0c0,.69-.3,1.18-.77,1.18m0,1.07a2.05,2.05,0,0,0,1.94-2.26h0a2,2,0,1,0-3.86,0h0a2,2,0,0,0,1.92,2.25m-5.66-.09H36v-1H34.28l.72-.52c.62-.46,1-.82,1-1.52h0a1.4,1.4,0,0,0-1.53-1.39,1.91,1.91,0,0,0-1.7.93l.78.68c.33-.39.55-.56.83-.56a.42.42,0,0,1,.47.44c0,.26-.16.47-.55.79L32.7,181.2Z"/><path class="cls-3" d="M25,11.23s3.34,15.21,4.59,14.38,10.13-13.5,11.38-13.09,2.81,5.61,3.23,7,7.51,32.62,7.93,35.11,4.32,7.27,4.32,7.27a60.22,60.22,0,0,1,5.41-5.49c1.35-1,6.47-11.79,6.47-13.34s5.35,4.76,5.35,4.76,4.8,12.44,6.89,15.77,6.27,19.12,6.84,20.89c.51,1.6,3.89,4.73,5,4.16C94,87.88,95,78.12,95.3,77s4.94,1.08,7.83.36c2.23-.55,2.55,1.25,3,2.49s1.33,1.66,2.16,0,.85-5.71,2.52-8.61,3.88-5.5,5.4-5.09,4.23,4.33,5.4,6.35,1.94,3.28,5.4,5.58c3,2,3.85,4.13,4.68,2.88s3.24-4.32,3.24-4.32l4.32,3.21,3.6-8.25s6.31,5,7.56,6.84a27.5,27.5,0,0,1,2.88,5.4,14.87,14.87,0,0,0,1.8,3.34s1.69-5.45,2.53-7.33,5-11.22,5-11.22l4.48,5.49s3.09,4.9,3.93,5.73,3.11,0,3.11,0,2.77-7.35,3.6-7.35,4.68-3.87,4.68-3.87L186.58,78s2.85-5.75,3.59-7.11c.86-1.58,3.55,11.75,3.55,11.75l4.9,1.12s3.54,3.63,4,4.88,3.6,7,3.6,7a15.85,15.85,0,0,1,3.24-3.24c1.8-1.24,4.68-2.52,6.48-1.28s5.76,3.8,5.76,3.8l4-6.28,3.6,2.71,4.32-1.47,6.34,11.52,5.9,2.52,3.33,5,4.5-1.44s1.9-8.62,5.13-13c4-5.4,9.65-8.56,11.2-11.46.71-1.32,3.22-2.73,3.74-5.46a21.77,21.77,0,0,1,2.79-6.48c.72-1.15,3.39,4.35,3.39,4.35l1.56.41,3.24-.41s2.35-3.11,3.6-4.35,2.95-1.52,5-3.7,2.75-2.76,3.24-4.94,2.45-7,2.81-9.78,1.84-5.26,2.45-6.63c1-2.29,1.87-5,1.87-5l4,29.82,4.77.13s6.08-16.56,6.91-16.56,6.48,22,6.48,22l5.64,36.72s7.76-10.37,8-9.5,2.81,11,3.53,14.11,4.54,6.69,5.11,8.35a42.82,42.82,0,0,0,2.38,5,16.74,16.74,0,0,0,2.23,2.66,35.61,35.61,0,0,1,3.6,2.81c.58.72,1.5,2.74,2.74,2.81a34.65,34.65,0,0,0,4.17-.29"/><path class="cls-2" d="M36,6.09c-.19,0-.35-.21-.35-.49h0c0-.28.13-.48.35-.48s.35.21.35.49h0c0,.27-.14.48-.35.48m0,.68A1.1,1.1,0,0,0,37.1,5.6h0A1.08,1.08,0,1,0,35,5.6h0A1.09,1.09,0,0,0,36,6.77m-1.65-2.4L32.62,6.71h.8l1.44-2,1.78-2.37h-.81ZM33.23,3c.2,0,.35.21.35.49h0c0,.27-.14.48-.34.48s-.36-.21-.36-.49h0c0-.28.14-.48.35-.48m0,1.65a1.1,1.1,0,0,0,1.08-1.16h0A1.08,1.08,0,0,0,33.24,2.3a1.1,1.1,0,0,0-1.08,1.17h0a1.08,1.08,0,0,0,1.07,1.15m-3.42,1.1c-.46,0-.77-.5-.77-1.19v0c0-.69.3-1.18.76-1.18s.77.5.77,1.2h0c0,.69-.3,1.18-.76,1.18m0,1.06a2,2,0,0,0,1.93-2.25v0a2,2,0,0,0-1.92-2.24,2,2,0,0,0-1.93,2.26h0A2,2,0,0,0,29.8,6.79M25.49,5.73c-.46,0-.77-.5-.77-1.19v0c0-.69.3-1.18.76-1.18s.77.5.77,1.2h0c0,.69-.29,1.18-.76,1.18m0,1.06a2,2,0,0,0,1.93-2.25v0a2,2,0,0,0-1.92-2.24,2.05,2.05,0,0,0-1.93,2.26h0a2,2,0,0,0,1.92,2.24M21.8,6.71h1.13V2.33H22.1l-1.22.36.21.93.71-.17Z"/><path class="cls-2" d="M78.86,37.9c-.2,0-.35-.21-.35-.48v0c0-.28.13-.48.34-.48s.36.21.36.49h0c0,.27-.15.48-.35.48m0,.68a1.09,1.09,0,0,0,1.08-1.16v0a1.08,1.08,0,1,0-2.15,0h0a1.09,1.09,0,0,0,1.07,1.16m-1.64-2.4-1.76,2.34h.81l1.44-2,1.77-2.36h-.8Zm-1.14-1.39c.2,0,.35.21.35.49h0c0,.28-.15.48-.35.48s-.35-.21-.35-.48v0c0-.28.14-.48.35-.48m0,1.66a1.09,1.09,0,0,0,1.07-1.16v0a1.08,1.08,0,0,0-1.07-1.16A1.1,1.1,0,0,0,75,35.28h0a1.1,1.1,0,0,0,1.08,1.16M73,38.61a1.46,1.46,0,0,0,1.61-1.45h0a1.2,1.2,0,0,0-1.08-1.22l1-.9v-.85h-3v1h1.6l-1,.9.16.63h.49c.44,0,.68.16.68.44v0c0,.26-.2.44-.53.44a1.3,1.3,0,0,1-1-.5l-.74.76a2.26,2.26,0,0,0,1.78.77m-3.28-.09h1.17V37.31H69.72Zm-2.15-2.33a.56.56,0,0,1-.6-.57h0a.56.56,0,0,1,.59-.59.57.57,0,0,1,.59.6h0a.55.55,0,0,1-.58.56m-.22,1.42a1.32,1.32,0,0,1-.89-.35l-.55.83a2.23,2.23,0,0,0,1.46.52c1.25,0,1.93-1,1.93-2.39h0a2.24,2.24,0,0,0-.5-1.62,1.61,1.61,0,0,0-1.28-.5,1.54,1.54,0,0,0-1.66,1.58h0a1.31,1.31,0,0,0,1.39,1.37,1.21,1.21,0,0,0,.89-.35c0,.35-.18.91-.79.91m-4.92.91H63.7l1.84-3.44v-.9H62.33v1h1.93Z"/><path class="cls-2" d="M170.33,63.84c-.19,0-.35-.21-.35-.48h0c0-.28.13-.49.35-.49s.35.21.35.49h0c0,.28-.14.48-.35.48m0,.68a1.09,1.09,0,0,0,1.07-1.16h0a1.08,1.08,0,1,0-2.15,0h0a1.09,1.09,0,0,0,1.08,1.16m-1.65-2.4-1.76,2.34h.81l1.44-2L171,60.12h-.81Zm-1.14-1.39c.2,0,.35.21.35.49v0c0,.27-.14.47-.35.47s-.35-.21-.35-.48h0c0-.28.14-.49.35-.49m0,1.66a1.1,1.1,0,0,0,1.08-1.16h0a1.08,1.08,0,1,0-2.15,0v0a1.08,1.08,0,0,0,1.07,1.15m-2.8,2.07h1.14V60.09H165l-1.22.36.22.93.7-.17Zm-2,0h1.17V63.25h-1.17Zm-3.75,0h3.3v-1h-1.73l.72-.52c.62-.46,1-.82,1-1.52h0A1.4,1.4,0,0,0,160.69,60,1.91,1.91,0,0,0,159,61l.78.67c.33-.39.55-.56.83-.56a.42.42,0,0,1,.47.44c0,.26-.16.47-.54.79L159,63.56Zm-2.13-.85a.55.55,0,0,1-.59-.56h0a.54.54,0,0,1,.58-.56.55.55,0,0,1,.59.56h0a.54.54,0,0,1-.58.56m0,.94A1.55,1.55,0,0,0,158.54,63v0a1.3,1.3,0,0,0-1.37-1.35,1.32,1.32,0,0,0-.9.34c0-.35.18-.94.78-.94a1.31,1.31,0,0,1,.83.33l.54-.84A2.09,2.09,0,0,0,157,60c-1.31,0-1.94,1-1.94,2.38v0a2.2,2.2,0,0,0,.51,1.62,1.68,1.68,0,0,0,1.28.5"/><path class="cls-2" d="M284.13,66c-.19,0-.35-.21-.35-.48h0c0-.28.13-.49.35-.49s.35.21.35.49v0c0,.27-.14.47-.35.47m0,.69a1.1,1.1,0,0,0,1.07-1.17h0a1.08,1.08,0,1,0-2.15,0v0a1.09,1.09,0,0,0,1.08,1.16m-1.65-2.41-1.76,2.34h.81l1.44-2,1.78-2.36h-.81Zm-1.14-1.39c.2,0,.35.22.35.49v0c0,.27-.14.48-.35.48s-.35-.22-.35-.49h0c0-.28.14-.49.35-.49m0,1.66a1.1,1.1,0,0,0,1.08-1.16h0a1.08,1.08,0,1,0-2.15,0v0a1.08,1.08,0,0,0,1.07,1.15m-4.77,2.07h3.3v-1h-1.72l.71-.52c.62-.46,1-.82,1-1.52h0a1.39,1.39,0,0,0-1.53-1.38,1.9,1.9,0,0,0-1.7.93l.78.67c.33-.39.55-.56.83-.56a.42.42,0,0,1,.47.44c0,.27-.15.47-.54.79l-1.56,1.24Zm-1.6,0h1.17V65.38H275Zm-1.78,0h1.14V62.22h-.84l-1.22.36.22.93.7-.17Zm-2.84-.85a.55.55,0,0,1-.59-.56h0a.54.54,0,0,1,.58-.56.56.56,0,0,1,.6.56v0a.54.54,0,0,1-.59.55m0,.94a1.55,1.55,0,0,0,1.66-1.56v0a1.31,1.31,0,0,0-1.38-1.35,1.34,1.34,0,0,0-.9.34c0-.35.19-.93.79-.93a1.34,1.34,0,0,1,.83.32l.54-.84a2.11,2.11,0,0,0-1.39-.48c-1.31,0-1.94,1-1.94,2.39h0a2.2,2.2,0,0,0,.52,1.62,1.64,1.64,0,0,0,1.27.5"/><path class="cls-2" d="M312.27,35.9c-.2,0-.35-.21-.35-.49h0c0-.28.13-.48.34-.48s.35.21.35.49h0c0,.27-.14.48-.34.48m0,.68a1.1,1.1,0,0,0,1.08-1.17h0a1.08,1.08,0,1,0-2.15,0h0a1.09,1.09,0,0,0,1.07,1.16m-1.64-2.4-1.76,2.34h.8l1.45-2,1.77-2.36h-.8Zm-1.15-1.39c.21,0,.36.21.36.49h0c0,.28-.15.48-.35.48s-.35-.21-.35-.48v0c0-.28.13-.48.34-.48m0,1.66a1.09,1.09,0,0,0,1.08-1.16v0a1.08,1.08,0,0,0-1.07-1.16,1.1,1.1,0,0,0-1.08,1.17h0a1.09,1.09,0,0,0,1.07,1.16m-4.06.33,1-1.25v1.25Zm1,1.74h1.12v-.84h.53v-.9h-.53V32.14h-1.16l-2.17,2.69.19.85h2Zm-3.69,0h1.17V35.31h-1.17Zm-1.78,0h1.14V32.14h-.84L300,32.5l.22.94.7-.18Zm-2.81-.83c-.39,0-.61-.23-.61-.49h0c0-.28.25-.48.61-.48s.6.2.6.48h0c0,.26-.22.49-.6.49m0-1.75a.48.48,0,0,1-.52-.48h0a.48.48,0,0,1,.52-.46.47.47,0,0,1,.51.46h0a.48.48,0,0,1-.51.48m0,2.65c1,0,1.71-.5,1.71-1.28h0a1.07,1.07,0,0,0-.71-1,1.05,1.05,0,0,0,.57-1v0c0-.68-.64-1.2-1.57-1.2s-1.57.52-1.57,1.2v0a1.06,1.06,0,0,0,.56,1,1.06,1.06,0,0,0-.7,1h0c0,.76.7,1.27,1.71,1.27"/><path class="cls-2" d="M330.2,49.82c-.2,0-.36-.21-.36-.48v0c0-.28.14-.48.35-.48s.35.21.35.49h0c0,.28-.14.48-.34.48m0,.68a1.1,1.1,0,0,0,1.08-1.16v0a1.08,1.08,0,1,0-2.15,0h0a1.09,1.09,0,0,0,1.07,1.16m-1.64-2.4-1.76,2.34h.8l1.45-2,1.77-2.36H330Zm-1.15-1.39c.21,0,.35.21.35.49h0c0,.28-.14.48-.34.48s-.35-.21-.35-.48h0c0-.28.13-.49.34-.49m0,1.66a1.09,1.09,0,0,0,1.08-1.16h0a1.08,1.08,0,1,0-2.15,0h0a1.09,1.09,0,0,0,1.07,1.16M324,49.46c-.46,0-.77-.5-.77-1.19h0c0-.7.3-1.19.76-1.19s.78.5.78,1.2h0c0,.69-.3,1.18-.77,1.18m0,1.07a2.05,2.05,0,0,0,1.94-2.26h0a2,2,0,1,0-3.86,0h0A2,2,0,0,0,324,50.53m-3.45-.09h1.17V49.23h-1.17Zm-3.75,0h3.3v-1h-1.72l.71-.52c.62-.47,1-.83,1-1.52h0A1.4,1.4,0,0,0,318.49,46a1.93,1.93,0,0,0-1.7.93l.78.68c.33-.39.55-.57.83-.57a.43.43,0,0,1,.47.45c0,.26-.15.47-.54.78l-1.56,1.25Zm-3.37,0h1.28L316.52,47v-.9h-3.21v1h1.93Z"/><path class="cls-2" d="M338.56,120.94c-.2,0-.36-.21-.36-.49h0c0-.28.14-.48.35-.48s.35.21.35.49h0c0,.27-.14.48-.34.48m0,.68a1.1,1.1,0,0,0,1.08-1.17h0a1.08,1.08,0,1,0-2.15,0h0a1.09,1.09,0,0,0,1.07,1.16m-1.64-2.4-1.76,2.34h.8l1.44-2,1.78-2.36h-.8Zm-1.15-1.39c.2,0,.35.21.35.49h0c0,.28-.14.48-.34.48s-.35-.21-.35-.48v0c0-.28.13-.48.34-.48m0,1.66a1.09,1.09,0,0,0,1.08-1.16v0a1.08,1.08,0,0,0-1.07-1.16,1.1,1.1,0,0,0-1.08,1.17h0a1.09,1.09,0,0,0,1.07,1.16M333,121.56h1.14v-4.38h-.84l-1.23.36.23.93.7-.17Zm-2,0h1.18v-1.21h-1.18Zm-2.05.09a1.46,1.46,0,0,0,1.61-1.45h0a1.21,1.21,0,0,0-1.08-1.23l1-.89v-.85h-3v1H329l-.95.9.16.63h.49c.44,0,.68.16.68.44v0c0,.26-.21.44-.53.44a1.34,1.34,0,0,1-1-.5l-.73.76a2.25,2.25,0,0,0,1.77.77m-3.67,0a1.46,1.46,0,0,0,1.61-1.45h0a1.21,1.21,0,0,0-1.08-1.23l1-.89v-.85h-3v1h1.59l-.95.9.16.63H325c.44,0,.68.16.68.44v0c0,.26-.21.44-.53.44a1.34,1.34,0,0,1-1-.5l-.73.76a2.25,2.25,0,0,0,1.77.77"/><path class="cls-2" d="M367.94,147.44c-.2,0-.35-.21-.35-.48v0c0-.28.13-.48.34-.48s.36.21.36.49h0c0,.27-.15.48-.35.48m0,.68A1.09,1.09,0,0,0,369,147v0a1.08,1.08,0,1,0-2.15,0h0a1.09,1.09,0,0,0,1.07,1.16m-1.64-2.4-1.76,2.34h.81l1.44-2,1.77-2.36h-.8Zm-1.14-1.39c.2,0,.35.21.35.49h0c0,.28-.15.48-.35.48s-.35-.21-.35-.48v0c0-.28.14-.48.35-.48m0,1.66a1.09,1.09,0,0,0,1.07-1.16v0a1.08,1.08,0,0,0-1.07-1.16,1.1,1.1,0,0,0-1.08,1.17h0a1.1,1.1,0,0,0,1.08,1.16m-3.23-.26a.55.55,0,0,1-.59-.57h0a.55.55,0,0,1,.58-.59.58.58,0,0,1,.6.6h0a.55.55,0,0,1-.59.56m-.22,1.42a1.32,1.32,0,0,1-.89-.35l-.54.83a2.19,2.19,0,0,0,1.46.52c1.24,0,1.92-1,1.92-2.39h0a2.24,2.24,0,0,0-.5-1.62,1.59,1.59,0,0,0-1.28-.5,1.55,1.55,0,0,0-1.66,1.58h0a1.31,1.31,0,0,0,1.4,1.37,1.21,1.21,0,0,0,.88-.35c0,.35-.18.91-.79.91m-3.15.91h1.17v-1.21h-1.17Zm-2.19-.85a.55.55,0,0,1-.59-.57h0a.53.53,0,0,1,.58-.55.55.55,0,0,1,.59.56h0a.54.54,0,0,1-.58.56m.05.94a1.55,1.55,0,0,0,1.65-1.57h0a1.3,1.3,0,0,0-1.37-1.35,1.37,1.37,0,0,0-.9.33c0-.34.18-.93.78-.93a1.27,1.27,0,0,1,.83.33l.54-.84a2.09,2.09,0,0,0-1.39-.48c-1.3,0-1.93,1-1.93,2.38h0a2.21,2.21,0,0,0,.51,1.63,1.66,1.66,0,0,0,1.28.5m-3.55-.09H354v-4.37h-.84l-1.22.36.22.93.7-.18Z"/><path class="cls-4" d="M169.46,127.27s-8.24,0-8.24,8.25v15.15s0,8.25,8.24,8.25H310.3s8.24,0,8.24-8.25V135.52s0-8.25-8.24-8.25Z"/><polygon class="cls-4" points="289.86 131.53 307.68 82.68 299.26 137.85 289.86 131.53"/><path class="cls-5" d="M305.43,151h1.24l2.12-4.67v-.85h-3.53v1h2.29Zm-2.32,0h1.12v-5.56h-.78l-1.37.41.18,1,.85-.23Zm-3.65-.94c-.59,0-1-.63-1-1.79v-.07c0-1.17.39-1.77,1-1.77s1,.62,1,1.78v.07c0,1.16-.39,1.78-1,1.78m0,1c1.31,0,2.16-1.12,2.16-2.81v-.1c0-1.69-.85-2.8-2.15-2.8s-2.16,1.12-2.16,2.8v.11c0,1.69.84,2.8,2.15,2.8M293,151h3.58v-1h-2.1l.92-.94c.82-.8,1.18-1.24,1.18-2v0a1.58,1.58,0,0,0-1.74-1.61,2.18,2.18,0,0,0-1.84,1l.75.71c.35-.44.62-.66,1-.66a.62.62,0,0,1,.66.66c0,.4-.21.7-.8,1.3L293,150.06Zm-4.56,0h1.12v-1.77c0-.89.41-1.31,1.09-1.31h.05v-1.22a1.1,1.1,0,0,0-1.14.82v-.74h-1.12Zm-3.28-2.43c.07-.6.34-1,.75-1s.67.36.71,1Zm.88,2.53a2,2,0,0,0,1.51-.68l-.58-.68a1.23,1.23,0,0,1-.88.42.9.9,0,0,1-.92-.85h2.53v-.37c0-1.26-.59-2.24-1.79-2.24a2,2,0,0,0-1.85,2.16v.08a2,2,0,0,0,2,2.16m-4.5-1c-.46,0-.82-.45-.82-1.17v-.08c0-.72.36-1.18.82-1.18s.83.46.83,1.18v.08c0,.72-.36,1.17-.83,1.17m.34,1c.84,0,1.6-.69,1.6-2.13v-.12c0-1.45-.77-2.13-1.6-2.13a1.34,1.34,0,0,0-1.15.66v-2.05h-1.12V151h1.12v-.54a1.4,1.4,0,0,0,1.15.62m-5-.95c-.53,0-.89-.53-.89-1.21v-.06c0-.68.32-1.19.88-1.19s.89.52.89,1.2v.06c0,.68-.33,1.2-.88,1.2m0,1a2,2,0,0,0,2-2.16v-.09a2,2,0,0,0-2-2.15,2,2,0,0,0-2,2.16v.08a2,2,0,0,0,2,2.16m-3.28,0a1.59,1.59,0,0,0,.83-.22v-.89a1.1,1.1,0,0,1-.48.12c-.24,0-.35-.12-.35-.36v-2h.84v-.94h-.84v-1.09h-1.12v1.09h-.42v.94h.42v2.23a1,1,0,0,0,1.12,1.12m-3.35,0a1.81,1.81,0,0,0,1.44-.65l-.6-.74a1,1,0,0,1-.76.39c-.56,0-.88-.49-.88-1.2v0c0-.68.34-1.17.86-1.17a1,1,0,0,1,.75.38l.61-.82a1.81,1.81,0,0,0-1.38-.56,2,2,0,0,0-2,2.16v.09a2,2,0,0,0,1.92,2.15M265.2,150c-.76,0-1.32-.69-1.32-1.77v-.06c0-1.09.54-1.77,1.32-1.77s1.31.69,1.31,1.78v.05c0,1.09-.54,1.77-1.31,1.77m0,1.06a2.58,2.58,0,0,0,2.5-2.82v-.09a2.52,2.52,0,1,0-5,0v.1a2.55,2.55,0,0,0,2.5,2.8m-8.49-.1h1.12v-2.55c0-.49.24-.75.61-.75s.6.26.6.75V151h1.12V148.1c0-.87-.45-1.42-1.24-1.42a1.28,1.28,0,0,0-1.09.64v-.56h-1.12Zm-2.07,0h1.12v-4.22h-1.12Zm0-4.68h1.17v-1h-1.17Zm-3.35,4.75a1.62,1.62,0,0,0,.83-.22v-.89a1.14,1.14,0,0,1-.49.12c-.23,0-.34-.12-.34-.36v-2h.83v-.94h-.83v-1.09h-1.12v1.09h-.43v.94h.43v2.23a1,1,0,0,0,1.12,1.12m-4.56-2.5c.06-.6.33-1,.74-1s.67.36.72,1Zm.87,2.53a2,2,0,0,0,1.51-.68l-.57-.68a1.25,1.25,0,0,1-.89.42.9.9,0,0,1-.91-.85h2.52c0-.17,0-.3,0-.37,0-1.26-.59-2.24-1.8-2.24a2,2,0,0,0-1.84,2.16v.08a2,2,0,0,0,2,2.16m-8.39-.1h1.11v-2.55c0-.48.23-.75.6-.75s.58.27.58.75V151h1.12v-2.55c0-.48.23-.75.6-.75s.58.27.58.75V151h1.11v-2.89c0-.93-.5-1.41-1.25-1.41a1.52,1.52,0,0,0-1.2.61,1.11,1.11,0,0,0-1-.61,1.31,1.31,0,0,0-1.1.64v-.56h-1.11Zm-6.6,0h1.12v-2.55c0-.48.23-.75.6-.75s.58.27.58.75V151H236v-2.55c0-.48.23-.75.6-.75s.58.27.58.75V151h1.11v-2.89c0-.93-.5-1.41-1.25-1.41a1.52,1.52,0,0,0-1.2.61,1.11,1.11,0,0,0-1-.61,1.3,1.3,0,0,0-1.1.64v-.56h-1.12Zm-3.1.08a1.27,1.27,0,0,0,1.08-.65V151h1.12v-4.22h-1.12v2.54c0,.5-.23.75-.61.75s-.6-.25-.6-.75v-2.54h-1.11v2.87c0,.88.45,1.43,1.24,1.43M226.2,151h1.12v-5.69H226.2Zm-2.73-.9c-.46,0-.82-.45-.82-1.17v-.08c0-.72.36-1.18.82-1.18s.83.46.83,1.18v.08c0,.72-.36,1.17-.83,1.17m-1.93,2.09h1.12v-1.73a1.4,1.4,0,0,0,1.15.62c.84,0,1.6-.69,1.6-2.13v-.12c0-1.45-.77-2.13-1.6-2.13a1.34,1.34,0,0,0-1.15.66v-.58h-1.12Zm-4.49-2.06c-.53,0-.89-.53-.89-1.21v-.06c0-.68.33-1.19.89-1.19s.88.52.88,1.2v.06c0,.68-.32,1.2-.88,1.2m0,1a2,2,0,0,0,2-2.16v-.09a2,2,0,0,0-2-2.15,2,2,0,0,0-2,2.16v.08a2,2,0,0,0,2,2.16m-3.28,0a1.58,1.58,0,0,0,.82-.22v-.89a1.06,1.06,0,0,1-.48.12c-.23,0-.34-.12-.34-.36v-2h.83v-.94h-.83v-1.09h-1.12v1.09h-.43v.94h.43v2.23a1,1,0,0,0,1.12,1.12m-5.24,0a1.31,1.31,0,0,0,1.49-1.32h0c0-.67-.5-1-1.12-1.27-.45-.21-.77-.33-.77-.55v0c0-.17.15-.3.42-.3a2,2,0,0,1,1,.36l.45-.8a2.51,2.51,0,0,0-1.4-.46,1.31,1.31,0,0,0-1.45,1.29v0c0,.72.51,1,1.11,1.28s.78.3.78.54v0c0,.17-.14.32-.45.32a2,2,0,0,1-1.13-.47l-.49.79a2.59,2.59,0,0,0,1.6.58M204,148.55c.06-.6.33-1,.74-1s.67.36.72,1Zm.87,2.53a2,2,0,0,0,1.51-.68l-.58-.68a1.21,1.21,0,0,1-.88.42.9.9,0,0,1-.91-.85h2.52c0-.17,0-.3,0-.37,0-1.26-.59-2.24-1.8-2.24a2,2,0,0,0-1.84,2.16v.08a2,2,0,0,0,2,2.16m-3.76,0a1.81,1.81,0,0,0,1.44-.65l-.59-.74a1,1,0,0,1-.77.39c-.56,0-.88-.49-.88-1.2v0c0-.68.34-1.17.86-1.17a1,1,0,0,1,.75.38l.61-.82a1.81,1.81,0,0,0-1.38-.56,2,2,0,0,0-1.95,2.16v.09a2,2,0,0,0,1.91,2.15m-3.81-.1h1.11v-4.22h-1.11Zm0-4.68h1.17v-1h-1.17ZM194.34,151h1.12v-1.77c0-.89.41-1.31,1.1-1.31h0v-1.22a1.11,1.11,0,0,0-1.14.82v-.74h-1.12Zm-2.69-.9c-.46,0-.83-.45-.83-1.17v-.08c0-.72.37-1.18.83-1.18s.82.46.82,1.18v.08c0,.72-.35,1.17-.82,1.17m-1.93,2.09h1.12v-1.73a1.39,1.39,0,0,0,1.14.62c.85,0,1.61-.69,1.61-2.13v-.12c0-1.45-.77-2.13-1.61-2.13a1.31,1.31,0,0,0-1.14.66v-.58h-1.12ZM185.06,151h1.12v-1.77c0-.89.41-1.31,1.09-1.31h0v-1.22a1.1,1.1,0,0,0-1.14.82v-.74h-1.12Zm-3.27-2.43c.06-.6.33-1,.74-1s.67.36.72,1Zm.87,2.53a2,2,0,0,0,1.51-.68l-.58-.68a1.23,1.23,0,0,1-.88.42.9.9,0,0,1-.92-.85h2.53v-.37c0-1.26-.59-2.24-1.79-2.24a2,2,0,0,0-1.85,2.16v.08a2,2,0,0,0,2,2.16m-4.49-1c-.47,0-.83-.45-.83-1.17v-.08c0-.72.36-1.18.83-1.18s.82.46.82,1.18v.08c0,.72-.36,1.17-.82,1.17m.33,1c.84,0,1.61-.69,1.61-2.13v-.12c0-1.45-.78-2.13-1.61-2.13a1.34,1.34,0,0,0-1.15.66v-2.05h-1.12V151h1.12v-.54a1.4,1.4,0,0,0,1.15.62m-4.35-4.76h1.17v-1h-1.17Zm0,4.68h1.11v-4.22h-1.11Zm-2.53,0h1.12V147.7h.81v-.91h-.82v-.17c0-.3.15-.43.41-.43a1.3,1.3,0,0,1,.41.07v-.92a2.06,2.06,0,0,0-.69-.1,1.21,1.21,0,0,0-.92.32,1.24,1.24,0,0,0-.32.94v.29h-.42v.91h.42Z"/><path class="cls-5" d="M307.32,141.6a1.31,1.31,0,0,0,1.49-1.32v0c0-.67-.51-1-1.12-1.27-.45-.2-.77-.33-.77-.55h0c0-.17.15-.3.41-.3a1.91,1.91,0,0,1,1,.36l.45-.8a2.51,2.51,0,0,0-1.4-.46,1.31,1.31,0,0,0-1.45,1.29v0c0,.71.51,1,1.11,1.27s.77.3.77.55h0c0,.18-.13.33-.45.33a1.91,1.91,0,0,1-1.12-.48l-.49.79a2.54,2.54,0,0,0,1.6.59m-4.55-2.52c.06-.6.33-1,.74-1s.67.37.72,1Zm.87,2.53a2,2,0,0,0,1.51-.68l-.58-.67a1.2,1.2,0,0,1-.88.41.9.9,0,0,1-.91-.85h2.52c0-.16,0-.3,0-.36,0-1.26-.59-2.25-1.8-2.25a2,2,0,0,0-1.85,2.17v.07a2,2,0,0,0,2,2.16m-4,0a1.31,1.31,0,0,0,1.49-1.32v0c0-.67-.5-1-1.12-1.27-.45-.2-.76-.33-.76-.55h0c0-.17.14-.3.41-.3a1.88,1.88,0,0,1,1,.36l.45-.8a2.51,2.51,0,0,0-1.4-.46,1.31,1.31,0,0,0-1.45,1.29v0c0,.71.51,1,1.11,1.27s.78.3.78.55h0c0,.18-.14.33-.45.33a1.94,1.94,0,0,1-1.13-.48l-.49.79a2.54,2.54,0,0,0,1.6.59m-4.38,0a1.27,1.27,0,0,0,1.08-.65v.57h1.12v-4.23h-1.12v2.55c0,.5-.23.75-.61.75s-.6-.25-.6-.75v-2.55H294v2.88c0,.87.45,1.43,1.24,1.43m-3.9-.82a.5.5,0,0,1-.55-.53v0c0-.38.27-.59.68-.59a1.71,1.71,0,0,1,.62.13v.36a.67.67,0,0,1-.75.65m-.37.82a1.32,1.32,0,0,0,1.1-.54v.46h1.09V139a1.53,1.53,0,0,0-1.72-1.72,3.06,3.06,0,0,0-1.44.34l.31.88a2.38,2.38,0,0,1,1-.24.69.69,0,0,1,.79.74v.13a2.34,2.34,0,0,0-.88-.17c-.87,0-1.47.41-1.47,1.34v.05A1.2,1.2,0,0,0,291,141.6m-3.1,0a1.8,1.8,0,0,0,1.43-.64l-.59-.74a1,1,0,0,1-.76.38c-.56,0-.89-.49-.89-1.19v0c0-.69.35-1.18.86-1.18a1,1,0,0,1,.76.38l.61-.81a1.81,1.81,0,0,0-1.38-.57,2,2,0,0,0-2,2.16v.1a2,2,0,0,0,1.92,2.14m-6.79-2.53c.06-.6.33-1,.74-1s.67.37.72,1Zm.87,2.53a1.94,1.94,0,0,0,1.51-.68l-.57-.67a1.24,1.24,0,0,1-.89.41.9.9,0,0,1-.91-.85h2.52c0-.16,0-.3,0-.36,0-1.26-.59-2.25-1.8-2.25a2,2,0,0,0-1.84,2.17v.07a2,2,0,0,0,2,2.16m-4.63-.06h1l1.42-4.26h-1.14l-.79,2.81-.79-2.81h-1.17Zm-3.18,0h1.12v-4.23h-1.12Zm0-4.68h1.16v-1h-1.16Zm-1.59,4.75a1.69,1.69,0,0,0,.83-.22v-.89a1.1,1.1,0,0,1-.48.12c-.24,0-.35-.12-.35-.37v-2h.84v-1h-.84v-1.08h-1.12v1.08H271v1h.43v2.22c0,.88.47,1.13,1.12,1.13m-3.94-.81a.5.5,0,0,1-.54-.53v0c0-.38.26-.59.67-.59a1.62,1.62,0,0,1,.62.13v.36a.67.67,0,0,1-.75.65m-.37.82a1.31,1.31,0,0,0,1.1-.54v.46h1.1V139a1.76,1.76,0,0,0-.44-1.28,1.74,1.74,0,0,0-1.28-.44,3.1,3.1,0,0,0-1.45.34l.31.88a2.42,2.42,0,0,1,1-.24c.51,0,.8.25.8.74v.13a2.35,2.35,0,0,0-.89-.17c-.86,0-1.47.41-1.47,1.34v.05a1.21,1.21,0,0,0,1.25,1.29m-3.1-.08h1.12v-4.23h-1.12Zm0-4.68h1.17v-1h-1.17Zm-1.59,4.75a1.69,1.69,0,0,0,.83-.22v-.89a1.06,1.06,0,0,1-.48.12c-.24,0-.35-.12-.35-.37v-2h.84v-1h-.84v-1.08h-1.11v1.08H262v1h.43v2.22c0,.88.47,1.13,1.11,1.13m-3.35-.07h1.11v-4.23H260.2Zm0-4.68h1.17v-1h-1.17Zm-4.34,4.68H257V139c0-.5.25-.75.62-.75s.6.25.6.75v2.55h1.12v-2.88c0-.88-.46-1.43-1.25-1.43a1.31,1.31,0,0,0-1.09.65v-.57h-1.12Zm-2.18,0h1.14V136h-1.14Zm-4.74-.9c-.47,0-.82-.46-.82-1.18v-.08c0-.71.35-1.17.82-1.17s.83.46.83,1.17v.08c0,.72-.37,1.18-.83,1.18m-.33,1a1.32,1.32,0,0,0,1.14-.67v.59h1.12v-5.7h-1.12v2a1.38,1.38,0,0,0-1.14-.62c-.85,0-1.61.69-1.61,2.13v.13c0,1.44.77,2.13,1.61,2.13m-4.28-.08h1.12v-1.78c0-.88.41-1.31,1.1-1.31h0v-1.21a1.12,1.12,0,0,0-1.15.82v-.75H244.3Zm-2.72-.88c-.53,0-.89-.53-.89-1.2v-.06c0-.69.32-1.2.88-1.2s.89.52.89,1.21v.05c0,.69-.33,1.2-.88,1.2m0,1a2,2,0,0,0,2-2.16v-.08a2,2,0,0,0-2-2.16,2,2,0,0,0-2,2.16v.09a2,2,0,0,0,2,2.15m-6.8-.06h1l.69-2.51.67,2.51h1l1.14-4.26h-1.11l-.59,2.51-.66-2.52h-1l-.66,2.51-.57-2.5h-1.13Zm-3.35,0a1.67,1.67,0,0,0,1.86-1.66h0c0-.86-.52-1.27-1.48-1.65s-1.05-.51-1.05-.82h0c0-.28.24-.48.63-.48a2,2,0,0,1,1.18.51l.64-.87a2.67,2.67,0,0,0-1.78-.67,1.63,1.63,0,0,0-1.81,1.61v0c0,.95.61,1.32,1.59,1.69.78.3.94.48.94.75h0c0,.33-.27.55-.71.55a2.09,2.09,0,0,1-1.37-.63l-.68.85a3,3,0,0,0,2,.81m-5.57-.07H227v-5.7h-1.12Zm-2.72-.74a.5.5,0,0,1-.55-.53v0c0-.38.26-.59.67-.59a1.72,1.72,0,0,1,.63.13v.36a.67.67,0,0,1-.75.65m-.37.82a1.3,1.3,0,0,0,1.09-.54v.46H225V139a1.53,1.53,0,0,0-1.72-1.72,3.06,3.06,0,0,0-1.44.34l.3.88a2.42,2.42,0,0,1,1-.24c.51,0,.8.25.8.74v.13a2.34,2.34,0,0,0-.88-.17c-.87,0-1.48.41-1.48,1.34v.05a1.21,1.21,0,0,0,1.26,1.29m-5.36-.08h1.12V139c0-.5.25-.75.62-.75s.6.25.6.75v2.55h1.12v-2.88c0-.88-.46-1.43-1.25-1.43a1.3,1.3,0,0,0-1.09.65v-.57H217.4Zm-2.72-.88c-.54,0-.89-.53-.89-1.2v-.06c0-.69.32-1.2.88-1.2s.89.52.89,1.21v.05c0,.69-.33,1.2-.88,1.2m0,1a2,2,0,0,0,2-2.16v-.08a2,2,0,1,0-4,0v.09a2,2,0,0,0,2,2.15m-3.88-.09h1.11v-4.23h-1.11Zm0-4.68h1.17v-1h-1.17Zm-1.58,4.75a1.68,1.68,0,0,0,.82-.22v-.89a1.06,1.06,0,0,1-.48.12c-.23,0-.34-.12-.34-.37v-2H210v-1h-.83v-1.08h-1.12v1.08h-.43v1h.43v2.22c0,.88.47,1.13,1.12,1.13m-3.94-.81a.5.5,0,0,1-.54-.53v0c0-.38.26-.59.67-.59a1.67,1.67,0,0,1,.62.13v.36a.67.67,0,0,1-.75.65m-.37.82a1.32,1.32,0,0,0,1.1-.54v.46h1.09V139a1.53,1.53,0,0,0-1.72-1.72,3.09,3.09,0,0,0-1.44.34l.31.88a2.38,2.38,0,0,1,1-.24.69.69,0,0,1,.79.74v.13a2.3,2.3,0,0,0-.88-.17c-.87,0-1.47.41-1.47,1.34v.05a1.21,1.21,0,0,0,1.25,1.29m-6.32-.08h1.12v-3.34l2.19,3.34h1V136h-1.11v3.22L199.6,136h-1Zm-4,.08a1.31,1.31,0,0,0,1.49-1.32v0c0-.67-.51-1-1.12-1.27-.45-.2-.77-.33-.77-.55h0c0-.17.14-.3.41-.3a1.84,1.84,0,0,1,1,.36l.45-.8a2.46,2.46,0,0,0-1.39-.46,1.31,1.31,0,0,0-1.45,1.29v0c0,.71.51,1,1.11,1.27s.77.3.77.55h0c0,.18-.13.33-.45.33a1.94,1.94,0,0,1-1.13-.48l-.48.79a2.54,2.54,0,0,0,1.6.59m-3.44-3.11a1.29,1.29,0,0,0,1.38-1.48v-1h-1.22v1.21h.48c0,.42-.18.74-.74.81Zm-2.56,2.29a.5.5,0,0,1-.54-.53v0c0-.38.26-.59.67-.59a1.62,1.62,0,0,1,.62.13v.36a.67.67,0,0,1-.75.65m-.37.82a1.31,1.31,0,0,0,1.1-.54v.46h1.09V139a1.53,1.53,0,0,0-1.71-1.72,3.1,3.1,0,0,0-1.45.34l.31.88a2.38,2.38,0,0,1,1-.24c.5,0,.8.25.8.74v.13a2.35,2.35,0,0,0-.89-.17c-.86,0-1.47.41-1.47,1.34v.05a1.21,1.21,0,0,0,1.25,1.29m-5.35-.08h1.12V139c0-.5.24-.75.61-.75s.6.25.6.75v2.55h1.12v-2.88c0-.88-.46-1.43-1.24-1.43a1.29,1.29,0,0,0-1.09.65v-.57h-1.12Zm-2.07,0h1.12v-4.23h-1.12Zm0-4.68h1.16v-1H180.7Zm-4.34,4.68h1.12V139c0-.5.24-.75.61-.75s.6.25.6.75v2.55h1.12v-2.88c0-.88-.45-1.43-1.24-1.43a1.29,1.29,0,0,0-1.09.65v-2h-1.12Zm-2.55.08a2.4,2.4,0,0,0,1.87-.83L175,140a1.54,1.54,0,0,1-1.13.57c-.73,0-1.3-.67-1.3-1.76v0c0-1.07.54-1.76,1.28-1.76a1.57,1.57,0,0,1,1.13.55l.69-.88a2.35,2.35,0,0,0-1.78-.73,2.55,2.55,0,0,0-2.5,2.81v.07c0,1.69,1,2.8,2.43,2.8"/></g></g></svg>