<svg id="Layer_1" data-name="Layer 1" xmlns="http://www.w3.org/2000/svg" xmlns:xlink="http://www.w3.org/1999/xlink" viewBox="0 0 612 234"><defs><style>.cls-1,.cls-7{fill:none;}.cls-2{fill:#004987;}.cls-3{fill:#0082ca;}.cls-4{fill:#fff;}.cls-5{opacity:0.5;}.cls-6{clip-path:url(#clip-path);}.cls-7{stroke:#cae4f4;stroke-miterlimit:10;stroke-width:2.35px;}</style><clipPath id="clip-path"><rect class="cls-1" x="-20.44" y="-0.17" width="188.99" height="188.99"/></clipPath></defs><title>header</title><path class="cls-2" d="M214.56,0H612V232.56s-151.2-51.84-509.76-51.84Z"/><path class="cls-3" d="M612,0H0V227.52S253.65,94.32,612.51,94.32Z"/><path class="cls-4" d="M466.8,89.76a25.43,25.43,0,0,0,15.42-5.22v-20h-16.8v8.34h6.66v6.24a8.67,8.67,0,0,1-4.86,1.26c-5.4,0-9.54-4.26-9.54-11.94v-.6c0-7,4.08-11.64,9.42-11.64a11.67,11.67,0,0,1,8.22,3.48l6-8.22a21.57,21.57,0,0,0-14.46-5.1c-11.58,0-20.22,8.76-20.22,21.36v.84c0,13.14,8.7,21.24,20.16,21.24M406.92,89h10.62V67l14.52,22h9.6V47H431V68.16L417.06,47H406.92Zm-17.28,0h10.8V47h-10.8ZM357.9,89h27.3V79.32H368.7V47H357.9Zm-19.14.72a18.44,18.44,0,0,0,15.12-7.2l-6.84-7c-1.92,2.22-4.08,4.14-7.68,4.14-4.86,0-8.58-4.14-8.58-11.64v-.24c0-7.14,3.66-11.52,8.58-11.52,3.3,0,5.58,1.8,7.38,4l7-7.38a17.92,17.92,0,0,0-14.52-6.6c-11,0-19.5,8.46-19.5,21.42v.72c0,13.08,8.34,21.3,19.08,21.3M297.36,89h10.8V73.2L321.66,47H309.9l-7.08,15.18L295.8,47H283.86l13.5,26.28Zm-28.56.72a18.44,18.44,0,0,0,15.12-7.2l-6.84-7c-1.92,2.22-4.08,4.14-7.68,4.14-4.86,0-8.58-4.14-8.58-11.64v-.24c0-7.14,3.66-11.52,8.58-11.52,3.3,0,5.58,1.8,7.38,4l7-7.38a17.92,17.92,0,0,0-14.52-6.6c-11,0-19.5,8.46-19.5,21.42v.72c0,13.08,8.34,21.3,19.08,21.3M217.14,89H246.3V79.56H227.82v-7.2h16.44V63.42H227.82v-6.9h18.24V47H217.14Zm-26.88-21.6v-11h5.28c3.6,0,5.88,1.8,5.88,5.4V62c0,3.36-2.16,5.46-5.82,5.46ZM179.52,89h10.74V76h3.84l7.14,13h12.18L204.78,73.8c4.44-2.22,7.5-6.12,7.5-12.36v-.3c0-4.26-1.32-7.5-3.66-9.84-2.7-2.76-7-4.26-12.6-4.26h-16.5Z"/><path class="cls-4" d="M574.13,178.46h1.08v-1.23h-1.08Zm-3.35.11a1.84,1.84,0,0,0,2-1.8v0c0-.95-.72-1.38-1.75-1.84-.86-.36-1.4-.62-1.4-1.15v0c0-.49.42-.87,1.08-.87a2.73,2.73,0,0,1,1.58.59l.42-.66a3.4,3.4,0,0,0-2-.68,1.77,1.77,0,0,0-1.95,1.71v0c0,1,.8,1.37,1.79,1.8s1.36.64,1.36,1.19h0c0,.59-.48,1-1.17,1a2.86,2.86,0,0,1-1.82-.75l-.46.63a3.48,3.48,0,0,0,2.26.88m-4.4-.11h.86V169.8h-.86Zm-4.32-.59a1.25,1.25,0,0,1-1.34-1.27v0c0-.8.56-1.31,1.55-1.31a4.59,4.59,0,0,1,1.52.25v.78a1.62,1.62,0,0,1-1.73,1.58m-.2.72a2.14,2.14,0,0,0,1.91-1v.91h.85v-4a2.29,2.29,0,0,0-.6-1.69,2.35,2.35,0,0,0-1.75-.62,4.29,4.29,0,0,0-2,.5l.28.71a3.38,3.38,0,0,1,1.6-.42,1.42,1.42,0,0,1,1.59,1.55v.37a5,5,0,0,0-1.61-.25c-1.38,0-2.3.73-2.3,2v.05a1.9,1.9,0,0,0,2,1.94m-4.3-.13h.86v-6.25h-.86Zm0-7.53h1v-1h-1Zm-4.24,7.53h.87v-3c0-1.61.93-2.43,2.1-2.43h0v-.93a2.18,2.18,0,0,0-2.14,1.46v-1.38h-.87Zm-5.6-3.45c.08-1.31.78-2.16,1.7-2.16s1.59,1,1.65,2.16Zm1.89,3.58a2.84,2.84,0,0,0,2.15-.93l-.49-.55a2.21,2.21,0,0,1-1.62.72,2,2,0,0,1-1.93-2.15h4.2c0-.11,0-.28,0-.36,0-1.89-.93-3.23-2.51-3.23s-2.58,1.33-2.58,3.24v.06c0,2,1.25,3.2,2.77,3.2m-4.6,0a2.09,2.09,0,0,0,.93-.22v-.74a1.8,1.8,0,0,1-.73.17.79.79,0,0,1-.9-.9V173h1.63v-.77h-1.63v-1.82h-.86v1.82h-.76V173h.76v4a1.4,1.4,0,0,0,1.56,1.55m-6-.69a1.25,1.25,0,0,1-1.33-1.27v0c0-.8.55-1.31,1.55-1.31a4.48,4.48,0,0,1,1.51.25v.78a1.62,1.62,0,0,1-1.73,1.58m-.19.72a2.16,2.16,0,0,0,1.91-1v.91h.85v-4a2.33,2.33,0,0,0-.6-1.69,2.38,2.38,0,0,0-1.75-.62,4.29,4.29,0,0,0-2,.5l.28.71a3.37,3.37,0,0,1,1.59-.42,1.43,1.43,0,0,1,1.6,1.55v.37a5,5,0,0,0-1.61-.25c-1.38,0-2.3.73-2.3,2v.05a1.9,1.9,0,0,0,2,1.94m-11.57-.13H528v-3.8a1.59,1.59,0,0,1,1.47-1.79c.86,0,1.36.61,1.36,1.73v3.86h.86v-3.81c0-1.13.66-1.78,1.48-1.78s1.36.6,1.36,1.74v3.85h.86v-4.08c0-1.45-.78-2.29-2-2.29a2.17,2.17,0,0,0-1.92,1.14,1.82,1.82,0,0,0-1.73-1.14,2,2,0,0,0-1.75,1.12v-1h-.87ZM518.46,175c.08-1.31.78-2.16,1.7-2.16s1.59,1,1.65,2.16Zm1.9,3.58a2.83,2.83,0,0,0,2.14-.93l-.49-.55a2.19,2.19,0,0,1-1.62.72,2,2,0,0,1-1.93-2.15h4.2c0-.11,0-.28,0-.36,0-1.89-.93-3.23-2.51-3.23s-2.57,1.33-2.57,3.24v.06c0,2,1.24,3.2,2.77,3.2m-5.15-.13h.86V169.8h-.86Zm-4.2-.66a2.14,2.14,0,0,1-1.9-2.4v-.12a2.16,2.16,0,0,1,1.9-2.41c1,0,1.78.9,1.78,2.42v.1c0,1.54-.8,2.41-1.78,2.41m.17.78c1.27,0,2.49-1.11,2.49-3.19v-.12c0-2.08-1.22-3.18-2.49-3.18a2.33,2.33,0,0,0-2,1.32V169.8h-.86v8.66h.86V177.3a2.32,2.32,0,0,0,2,1.28m-7.14-.71a1.25,1.25,0,0,1-1.34-1.27v0c0-.8.56-1.31,1.55-1.31a4.54,4.54,0,0,1,1.52.25v.78a1.62,1.62,0,0,1-1.73,1.58m-.2.72a2.14,2.14,0,0,0,1.91-1v.91h.85v-4a2.33,2.33,0,0,0-.59-1.69,2.39,2.39,0,0,0-1.76-.62,4.21,4.21,0,0,0-2,.5l.27.71a3.38,3.38,0,0,1,1.6-.42,1.42,1.42,0,0,1,1.59,1.55v.37a4.9,4.9,0,0,0-1.61-.25c-1.38,0-2.3.73-2.3,2v.05a1.9,1.9,0,0,0,2,1.94m-4.3-.13h.86V169.8h-.86Zm-3.38.13a2.56,2.56,0,0,0,2-.93l-.5-.58a2,2,0,0,1-1.47.72c-1,0-1.92-1-1.92-2.42v-.06c0-1.45.84-2.44,1.89-2.44a2,2,0,0,1,1.46.71l.52-.65a2.65,2.65,0,0,0-2-.85,2.94,2.94,0,0,0-2.78,3.23v.08c0,1.9,1.18,3.19,2.75,3.19m-6-1.23-1.87-5.15h-.94l2.4,6.25c-.31.81-.61,1.07-1.08,1.07a1.56,1.56,0,0,1-.81-.23l-.27.72a2.38,2.38,0,0,0,1.13.29c.84,0,1.38-.44,1.82-1.74l2.22-6.36h-.92Zm-5.5,1.23a2.56,2.56,0,0,0,2-.93l-.51-.58a2,2,0,0,1-1.46.72c-1.06,0-1.92-1-1.92-2.42v-.06c0-1.45.84-2.44,1.88-2.44a2,2,0,0,1,1.47.71l.51-.65a2.64,2.64,0,0,0-2-.85,3,3,0,0,0-2.79,3.23v.08a2.89,2.89,0,0,0,2.76,3.19m-8-3.58c.09-1.31.78-2.16,1.71-2.16s1.58,1,1.64,2.16Zm1.9,3.58a2.84,2.84,0,0,0,2.15-.93l-.49-.55a2.21,2.21,0,0,1-1.62.72,2,2,0,0,1-1.94-2.15h4.2a2.36,2.36,0,0,0,0-.36c0-1.89-.94-3.23-2.51-3.23s-2.58,1.33-2.58,3.24v.06c0,2,1.25,3.2,2.77,3.2m-6.39-.13H473v-3c0-1.61.93-2.43,2.1-2.43h.05v-.93a2.2,2.2,0,0,0-2.15,1.46v-1.38h-.86Zm-6.64,0h.87V173H468v-.76h-1.63v-.52c0-.79.33-1.17.95-1.17a2.58,2.58,0,0,1,.71.12v-.77a2.8,2.8,0,0,0-.83-.12,1.67,1.67,0,0,0-1.21.44,2.05,2.05,0,0,0-.48,1.45v.57h-.77V173h.77Zm-4.51-.65c-1.07,0-1.9-1-1.9-2.44v-.06c0-1.4.78-2.44,1.89-2.44s1.9,1,1.9,2.45v.06c0,1.38-.79,2.43-1.89,2.43m0,.78a3,3,0,0,0,2.78-3.22v-.08a2.81,2.81,0,1,0-5.56,0v.08a2.93,2.93,0,0,0,2.78,3.2m-9,0a1.84,1.84,0,0,0,2-1.8v0c0-.95-.72-1.38-1.76-1.84-.85-.36-1.39-.62-1.39-1.15v0c0-.49.42-.87,1.08-.87a2.73,2.73,0,0,1,1.57.59l.42-.66a3.37,3.37,0,0,0-2-.68,1.77,1.77,0,0,0-1.95,1.71v0c0,1,.79,1.37,1.79,1.8.84.35,1.36.64,1.36,1.19h0c0,.59-.48,1-1.17,1a2.86,2.86,0,0,1-1.82-.75l-.46.63a3.48,3.48,0,0,0,2.26.88m-8.14-.11h.87v-3.8a1.62,1.62,0,0,1,1.58-1.79c.91,0,1.44.62,1.44,1.74v3.85h.86v-4.09a2.05,2.05,0,0,0-3.88-1.14v-1h-.87Zm-4.21-.65c-1.07,0-1.9-1-1.9-2.44v-.06c0-1.4.78-2.44,1.89-2.44s1.91,1,1.91,2.45v.06c0,1.38-.8,2.43-1.9,2.43m0,.78a3,3,0,0,0,2.78-3.22v-.08a2.8,2.8,0,1,0-5.55,0v.08a2.93,2.93,0,0,0,2.77,3.2m-4.61,0a2.17,2.17,0,0,0,.94-.22v-.74a1.89,1.89,0,0,1-.74.17.79.79,0,0,1-.9-.9V173H436v-.77h-1.64v-1.82h-.86v1.82h-.76V173h.76v4a1.4,1.4,0,0,0,1.56,1.55"/><path class="cls-3" d="M425.07,176.54c-.83,0-1.38-.89-1.38-2.55v-.18c0-1.67.54-2.52,1.36-2.52s1.37.88,1.37,2.54V174c0,1.65-.53,2.52-1.35,2.52m0,2.09c2.3,0,3.73-1.92,3.73-4.63v-.19c0-2.72-1.42-4.62-3.71-4.62s-3.73,1.93-3.73,4.63v.2c0,2.71,1.4,4.61,3.71,4.61m-8.3-2.09c-.83,0-1.38-.89-1.38-2.55v-.18c0-1.67.54-2.52,1.36-2.52s1.37.88,1.37,2.54V174c0,1.65-.53,2.52-1.35,2.52m0,2.09c2.3,0,3.73-1.92,3.73-4.63v-.19c0-2.72-1.42-4.62-3.71-4.62s-3.73,1.93-3.73,4.63v.2c0,2.71,1.4,4.61,3.71,4.61m-8.3-2.09c-.83,0-1.38-.89-1.38-2.55v-.18c0-1.67.54-2.52,1.36-2.52s1.37.88,1.37,2.54V174c0,1.65-.53,2.52-1.35,2.52m0,2.09c2.3,0,3.73-1.92,3.73-4.63v-.19c0-2.72-1.42-4.62-3.71-4.62s-3.73,1.93-3.73,4.63v.2c0,2.71,1.4,4.61,3.71,4.61m-6.93,1.92A2.3,2.3,0,0,0,404,178v-2h-2.4v2.4h1c0,.63-.37,1.07-1.26,1.2Zm-4.37-4c-.83,0-1.38-.89-1.38-2.55v-.18c0-1.67.53-2.52,1.35-2.52s1.38.88,1.38,2.54V174c0,1.65-.53,2.52-1.35,2.52m0,2.09c2.3,0,3.73-1.92,3.73-4.63v-.19c0-2.72-1.41-4.62-3.7-4.62s-3.73,1.93-3.73,4.63v.2c0,2.71,1.4,4.61,3.7,4.61m-8.29-2.09c-.83,0-1.38-.89-1.38-2.55v-.18c0-1.67.53-2.52,1.35-2.52s1.38.88,1.38,2.54V174c0,1.65-.53,2.52-1.35,2.52m0,2.09c2.3,0,3.73-1.92,3.73-4.63v-.19c0-2.72-1.41-4.62-3.7-4.62s-3.73,1.93-3.73,4.63v.2c0,2.71,1.4,4.61,3.7,4.61M381,176.84a1,1,0,0,1-1.12-1.09v0a1.12,1.12,0,0,1,2.24,0v0a1,1,0,0,1-1.12,1.09m0-3.8a1,1,0,0,1-1-1h0a1,1,0,1,1,1.94,0h0a1,1,0,0,1-1,1m0,5.58c2,0,3.36-1,3.36-2.65v-.06a2.29,2.29,0,0,0-1.4-2.17,2.26,2.26,0,0,0,1.16-2v0c0-1.46-1.26-2.51-3.11-2.51s-3.12,1.06-3.12,2.51v0a2.26,2.26,0,0,0,1.16,2,2.28,2.28,0,0,0-1.41,2.19v0c0,1.59,1.38,2.64,3.36,2.64"/><path class="cls-4" d="M370.84,178.46h.86v-3c0-1.61.94-2.43,2.1-2.43h.05v-.93a2.2,2.2,0,0,0-2.15,1.46v-1.38h-.86ZM365.23,175c.09-1.31.78-2.16,1.71-2.16s1.58,1,1.64,2.16Zm1.9,3.58a2.84,2.84,0,0,0,2.15-.93l-.49-.55a2.21,2.21,0,0,1-1.62.72,2,2,0,0,1-1.94-2.15h4.2a2.36,2.36,0,0,0,0-.36c0-1.89-.94-3.23-2.51-3.23s-2.58,1.33-2.58,3.24v.06c0,2,1.25,3.2,2.77,3.2m-6.44-.08h.78l2.29-6.3h-.91l-1.78,5.14-1.75-5.14h-.94Zm-5.68-.7c-1.07,0-1.9-1-1.9-2.44v-.06c0-1.4.78-2.44,1.89-2.44s1.91,1,1.91,2.45v.06c0,1.38-.8,2.43-1.9,2.43m0,.78a3,3,0,0,0,2.78-3.22v-.08a2.8,2.8,0,1,0-5.55,0v.08a2.93,2.93,0,0,0,2.77,3.2"/><path class="cls-4" d="M572.4,163.8c-1,0-1.79-.9-1.79-2.42v-.1c0-1.53.79-2.41,1.79-2.41s1.88.94,1.88,2.41v.11c0,1.48-.9,2.41-1.88,2.41m-.18.78a2.34,2.34,0,0,0,2-1.32v1.2h.86V155.8h-.86v3.57a2.32,2.32,0,0,0-2-1.28c-1.27,0-2.5,1.12-2.5,3.19v.12c0,2.09,1.23,3.18,2.5,3.18M564.43,161c.08-1.31.78-2.16,1.71-2.16s1.58,1,1.64,2.16Zm1.9,3.58a2.87,2.87,0,0,0,2.15-.93l-.5-.55a2.19,2.19,0,0,1-1.62.72,2,2,0,0,1-1.93-2.15h4.2c0-.11,0-.28,0-.36,0-1.89-.93-3.23-2.5-3.23s-2.58,1.33-2.58,3.24v.06c0,2,1.24,3.2,2.77,3.2m-6.4-.13h.86v-3c0-1.61.94-2.43,2.1-2.43h.05v-.93a2.21,2.21,0,0,0-2.15,1.46v-1.38h-.86Zm-5.6-3.45c.08-1.31.78-2.16,1.7-2.16s1.59,1,1.65,2.16Zm1.89,3.58a2.84,2.84,0,0,0,2.15-.93l-.49-.55a2.21,2.21,0,0,1-1.62.72,2,2,0,0,1-1.93-2.15h4.2c0-.11,0-.28,0-.36,0-1.89-.94-3.23-2.51-3.23s-2.58,1.33-2.58,3.24v.06c0,2,1.25,3.2,2.77,3.2m-6.44-.08h.78l2.29-6.3h-.91l-1.78,5.14-1.75-5.14h-.93Zm-5.68-.7c-1.06,0-1.89-1-1.89-2.44v-.06c0-1.4.78-2.44,1.88-2.44s1.91,1,1.91,2.45v.06c0,1.38-.79,2.43-1.9,2.43m0,.78a3,3,0,0,0,2.78-3.22v-.08a2.8,2.8,0,1,0-5.55,0v.08a2.93,2.93,0,0,0,2.77,3.2m-5.58,0a2.58,2.58,0,0,0,2-.93l-.51-.58a2,2,0,0,1-1.46.72c-1.06,0-1.92-1-1.92-2.42v-.06c0-1.45.84-2.44,1.88-2.44a2.05,2.05,0,0,1,1.47.71l.51-.65a2.65,2.65,0,0,0-2-.85,2.94,2.94,0,0,0-2.78,3.23v.08a2.89,2.89,0,0,0,2.76,3.19m-8-3.58c.09-1.31.78-2.16,1.71-2.16s1.58,1,1.64,2.16Zm1.9,3.58a2.85,2.85,0,0,0,2.15-.93l-.49-.55a2.23,2.23,0,0,1-1.62.72,2,2,0,0,1-1.94-2.15h4.2c0-.11,0-.28,0-.36,0-1.89-.93-3.23-2.5-3.23s-2.58,1.33-2.58,3.24v.06c0,2,1.25,3.2,2.77,3.2m-6.4-.13h.87v-3c0-1.61.93-2.43,2.1-2.43h0v-.93a2.18,2.18,0,0,0-2.14,1.46v-1.38H526ZM517.27,161c.09-1.31.78-2.16,1.71-2.16s1.58,1,1.64,2.16Zm1.9,3.58a2.87,2.87,0,0,0,2.15-.93l-.5-.55a2.19,2.19,0,0,1-1.62.72,2,2,0,0,1-1.93-2.15h4.2c0-.11,0-.28,0-.36,0-1.89-.93-3.23-2.5-3.23s-2.58,1.33-2.58,3.24v.06c0,2,1.24,3.2,2.77,3.2m-9.77-.08h.78l1.43-4.86,1.41,4.86h.78l1.88-6.3h-.88l-1.39,5-1.43-5h-.73l-1.43,5-1.38-5h-.91Zm-7.49,1.4a1.46,1.46,0,0,0,1.27-1.63v-1.05H502.1v1.23h.45c0,.51-.19.83-.78,1Zm-3.15-1.34a1.83,1.83,0,0,0,2-1.8v0c0-.95-.72-1.38-1.75-1.84-.85-.36-1.39-.62-1.39-1.15v0c0-.49.42-.87,1.08-.87a2.73,2.73,0,0,1,1.57.59l.42-.66a3.39,3.39,0,0,0-2-.67,1.76,1.76,0,0,0-1.94,1.7v0c0,1,.79,1.37,1.79,1.8.84.35,1.36.64,1.36,1.19h0c0,.59-.49,1-1.17,1a2.84,2.84,0,0,1-1.82-.75l-.46.63a3.48,3.48,0,0,0,2.26.88m-7.3-3.56c.08-1.31.78-2.16,1.7-2.16s1.59,1,1.65,2.16Zm1.9,3.58a2.83,2.83,0,0,0,2.14-.93l-.49-.55a2.19,2.19,0,0,1-1.62.72,2,2,0,0,1-1.93-2.15h4.2c0-.11,0-.28,0-.36,0-1.89-.93-3.23-2.51-3.23s-2.57,1.33-2.57,3.24v.06c0,2,1.24,3.2,2.77,3.2m-5.15-.13h.86v-6.25h-.86Zm0-7.53h1v-1h-1Zm-2.35,7.63a2.09,2.09,0,0,0,.93-.22v-.74a1.8,1.8,0,0,1-.73.17.79.79,0,0,1-.9-.9V159h1.63v-.77h-1.63v-1.82h-.86v1.82h-.76V159h.76v4a1.4,1.4,0,0,0,1.56,1.55m-4.55-.1h.86v-6.25h-.86Zm-.05-7.53h1v-1h-1Zm-2.73,7.53h.86V155.8h-.86Zm-2.79,0h.87v-6.25h-.87Zm0-7.53h1v-1h-1Zm-3.33,7.66a2.58,2.58,0,0,0,2-.93l-.51-.58a2,2,0,0,1-1.46.72c-1.06,0-1.92-1-1.92-2.42v-.06c0-1.45.84-2.44,1.88-2.44a2.05,2.05,0,0,1,1.47.71l.51-.65a2.65,2.65,0,0,0-2-.85,2.94,2.94,0,0,0-2.78,3.23v.08a2.89,2.89,0,0,0,2.76,3.19m-6.67-.72a1.24,1.24,0,0,1-1.33-1.27v0c0-.8.55-1.31,1.55-1.31a4.52,4.52,0,0,1,1.51.25v.78a1.62,1.62,0,0,1-1.73,1.58m-.19.72a2.17,2.17,0,0,0,1.91-1v.91h.85v-4a2.33,2.33,0,0,0-.6-1.69,2.38,2.38,0,0,0-1.75-.62,4.25,4.25,0,0,0-2,.5l.27.71a3.38,3.38,0,0,1,1.6-.42,1.43,1.43,0,0,1,1.6,1.55v.37a5,5,0,0,0-1.61-.25c-1.38,0-2.31.73-2.31,2v.05a1.91,1.91,0,0,0,2,1.94m-5-.13h.87V159H463v-.76h-1.63v-.52c0-.79.32-1.17,1-1.17a2.64,2.64,0,0,1,.71.12v-.77a2.85,2.85,0,0,0-.83-.12,1.66,1.66,0,0,0-1.21.44,2.05,2.05,0,0,0-.48,1.45v.57h-.77V159h.77Zm-7.91-1.21c-1,0-1.78-.83-1.78-2.18v0c0-1.37.79-2.17,1.78-2.17a2,2,0,0,1,1.88,2.17v0a2,2,0,0,1-1.88,2.17m0,3a2.84,2.84,0,0,0,2.08-.72,2.64,2.64,0,0,0,.68-1.94v-5.42h-.86v1.12a2.38,2.38,0,0,0-2.05-1.24c-1.28,0-2.47,1.07-2.47,2.95v.05c0,1.88,1.18,2.94,2.46,2.94a2.39,2.39,0,0,0,2.06-1.28v.91a1.71,1.71,0,0,1-1.91,1.87,3.71,3.71,0,0,1-2-.61l-.35.69a4.38,4.38,0,0,0,2.37.68m-8.76-1.83h.87v-3.8a1.62,1.62,0,0,1,1.58-1.79c.91,0,1.44.62,1.44,1.74v3.85h.86v-4.09a2.05,2.05,0,0,0-3.88-1.14v-1h-.87Zm-2.71,0h.86v-6.25h-.86Zm-.05-7.53h1v-1h-1Zm-2.73,7.53h.86V155.8h-.86Zm-3.38.13a2.56,2.56,0,0,0,2-.93l-.5-.58a2,2,0,0,1-1.47.72c-1.05,0-1.92-1-1.92-2.42v-.06c0-1.45.84-2.44,1.89-2.44a2,2,0,0,1,1.46.71l.52-.65a2.65,2.65,0,0,0-2-.85,2.94,2.94,0,0,0-2.78,3.23v.08c0,1.9,1.18,3.19,2.75,3.19m-6-1.23-1.87-5.15h-.94l2.4,6.25c-.31.81-.61,1.07-1.08,1.07a1.56,1.56,0,0,1-.81-.23l-.27.72a2.38,2.38,0,0,0,1.13.29c.84,0,1.38-.44,1.82-1.74l2.22-6.36h-.92Zm-5.5,1.23a2.56,2.56,0,0,0,2-.93l-.5-.58a2,2,0,0,1-1.47.72c-1.05,0-1.92-1-1.92-2.42v-.06c0-1.45.84-2.44,1.89-2.44a2,2,0,0,1,1.46.71l.52-.65a2.65,2.65,0,0,0-2-.85,3,3,0,0,0-2.79,3.23v.08a2.89,2.89,0,0,0,2.76,3.19m-8-3.58c.08-1.31.78-2.16,1.7-2.16s1.58,1,1.64,2.16Zm1.89,3.58a2.84,2.84,0,0,0,2.15-.93l-.49-.55a2.21,2.21,0,0,1-1.62.72,2,2,0,0,1-1.93-2.15h4.2c0-.11,0-.28,0-.36,0-1.89-.94-3.23-2.51-3.23s-2.58,1.33-2.58,3.24v.06c0,2,1.25,3.2,2.77,3.2m-8.75-4.21v-3.49h1.91c1.26,0,2,.61,2,1.72v0c0,1.07-.76,1.75-2.12,1.75Zm-.9,4.08h.9V161.2h1.91l2.11,3.26h1.08L411.4,161a2.4,2.4,0,0,0,2-2.43v0a2.39,2.39,0,0,0-.66-1.73,3,3,0,0,0-2.21-.78h-2.87Zm-5.55.1a2.09,2.09,0,0,0,.93-.22v-.74a1.8,1.8,0,0,1-.73.17.79.79,0,0,1-.9-.9V159H403v-.77H401.4v-1.82h-.86v1.82h-.76V159h.76v4a1.4,1.4,0,0,0,1.56,1.55m-6.05-.1h.86v-3c0-1.61.94-2.43,2.1-2.43h.05v-.93a2.21,2.21,0,0,0-2.15,1.46v-1.38h-.86Zm-4.21-.65c-1.07,0-1.9-1-1.9-2.44v-.06c0-1.4.78-2.44,1.89-2.44s1.91,1,1.91,2.45v.06c0,1.38-.8,2.43-1.9,2.43m0,.78a3,3,0,0,0,2.78-3.22v-.08a2.8,2.8,0,1,0-5.55,0v.08a2.93,2.93,0,0,0,2.77,3.2m-6.53,0a2.37,2.37,0,0,0,2.6-2.29v0c0-1.12-.62-1.8-2.33-2.44s-1.95-1-1.95-1.73v0a1.41,1.41,0,0,1,1.58-1.31,3,3,0,0,1,2,.82l.54-.7a3.64,3.64,0,0,0-2.52-.95,2.32,2.32,0,0,0-2.53,2.22v0c0,1.18.68,1.81,2.42,2.46,1.53.54,1.86,1,1.86,1.68h0a1.5,1.5,0,0,1-1.68,1.41,3.3,3.3,0,0,1-2.36-1l-.57.68a4.12,4.12,0,0,0,2.92,1.19m-7.13-3.27h3.08v-.9h-3.08Zm-4,2.5c-1.07,0-1.89-1-1.89-2.44v-.06c0-1.4.78-2.44,1.88-2.44s1.91,1,1.91,2.45v.06c0,1.38-.79,2.43-1.9,2.43m0,.78a3,3,0,0,0,2.78-3.22v-.08a2.8,2.8,0,1,0-5.55,0v.08a2.93,2.93,0,0,0,2.77,3.2m-6.39-.13h.86v-3c0-1.61.93-2.43,2.1-2.43h0v-.93a2.2,2.2,0,0,0-2.15,1.46v-1.38h-.86ZM362.15,161c.08-1.31.78-2.16,1.7-2.16s1.59,1,1.65,2.16Zm1.9,3.58a2.83,2.83,0,0,0,2.14-.93l-.49-.55a2.19,2.19,0,0,1-1.62.72,2,2,0,0,1-1.93-2.15h4.2c0-.11,0-.28,0-.36,0-1.89-.93-3.23-2.51-3.23s-2.57,1.33-2.57,3.24v.06c0,2,1.24,3.2,2.77,3.2m-9.36-.13h5.72v-.81h-4.56l4.56-7v-.61h-5.55v.82h4.39l-4.56,7Z"/><path class="cls-4" d="M572.68,150.46h.86v-3c0-1.61.93-2.43,2.1-2.43h.05v-.93a2.2,2.2,0,0,0-2.15,1.46v-1.38h-.86Zm-4.49.12a2,2,0,0,0,1.85-1.14v1h.86v-6.25H570V148a1.61,1.61,0,0,1-1.59,1.77c-.91,0-1.44-.62-1.44-1.74v-3.85h-.86v4.1a2,2,0,0,0,2,2.27m-6.17-.77c-1.07,0-1.9-1-1.9-2.44v-.06c0-1.4.78-2.44,1.89-2.44s1.91,1,1.91,2.45v.06c0,1.38-.8,2.43-1.9,2.43m0,.78a3,3,0,0,0,2.78-3.22v-.08a2.8,2.8,0,1,0-5.55,0v.08a2.93,2.93,0,0,0,2.77,3.2m-9.42-1.23-1.87-5.15h-.94l2.4,6.25c-.31.81-.61,1.07-1.08,1.07a1.6,1.6,0,0,1-.82-.23L550,152a2.38,2.38,0,0,0,1.13.29c.84,0,1.38-.44,1.82-1.74l2.22-6.36h-.92Zm-6.15.44a2.14,2.14,0,0,1-1.89-2.4v-.12a2.16,2.16,0,0,1,1.89-2.41c1,0,1.78.9,1.78,2.42v.1c0,1.54-.79,2.41-1.78,2.41m.17.78c1.27,0,2.5-1.11,2.5-3.19v-.12c0-2.08-1.23-3.18-2.5-3.18a2.34,2.34,0,0,0-2,1.32V141.8h-.86v8.66h.86V149.3a2.33,2.33,0,0,0,2,1.28m-10.49-.78c-1,0-1.78-.9-1.78-2.42v-.1c0-1.53.79-2.41,1.78-2.41s1.89.94,1.89,2.41v.11c0,1.48-.9,2.41-1.89,2.41m-.18.78a2.33,2.33,0,0,0,2-1.32v1.2h.87V141.8H538v3.57a2.32,2.32,0,0,0-2-1.28c-1.27,0-2.49,1.12-2.49,3.19v.12c0,2.09,1.22,3.18,2.49,3.18M528.16,147c.08-1.31.78-2.16,1.7-2.16s1.59,1,1.65,2.16Zm1.89,3.58a2.84,2.84,0,0,0,2.15-.93l-.49-.55a2.21,2.21,0,0,1-1.62.72,2,2,0,0,1-1.93-2.15h4.2c0-.11,0-.28,0-.36,0-1.89-.94-3.23-2.51-3.23s-2.58,1.33-2.58,3.24v.06c0,2,1.25,3.2,2.77,3.2m-5.14-.13h.86V141.8h-.86Zm-6.14,1.45a1.46,1.46,0,0,0,1.27-1.63v-1.05H519v1.23h.44c0,.51-.19.83-.78,1Z"/><path class="cls-3" d="M514.79,149a1,1,0,0,1-1-1v0a1,1,0,0,1,2.06,0v0a1,1,0,0,1-1,1m0-3.5a.89.89,0,0,1-.9-1v0a.9.9,0,1,1,1.79,0v0a.88.88,0,0,1-.89,1m0,5.15c1.82,0,3.1-1,3.1-2.45v0a2.1,2.1,0,0,0-1.29-2,2.1,2.1,0,0,0,1.07-1.84v0c0-1.34-1.17-2.31-2.87-2.31s-2.88,1-2.88,2.31v0a2.1,2.1,0,0,0,1.07,1.84,2.09,2.09,0,0,0-1.3,2v0c0,1.46,1.27,2.44,3.1,2.44m-6.22-.15h2.14V142h-1.56l-2.13.62.3,1.78,1.25-.31Zm-5.34-1.77c-.77,0-1.27-.82-1.27-2.36v-.16c0-1.54.49-2.33,1.25-2.33s1.27.81,1.27,2.35v.17c0,1.52-.49,2.33-1.25,2.33m0,1.93c2.12,0,3.44-1.78,3.44-4.27v-.18c0-2.51-1.31-4.26-3.42-4.26s-3.44,1.77-3.44,4.27v.18c0,2.51,1.29,4.26,3.42,4.26m-10-.16H499v-1.84h-3.05l1.4-1.33c1.1-1,1.63-1.7,1.63-2.83v0a2.52,2.52,0,0,0-2.78-2.52,3.75,3.75,0,0,0-3.05,1.52l1.28,1.38c.6-.63,1-1,1.54-1a.78.78,0,0,1,.85.81c0,.48-.26.85-.95,1.53l-2.68,2.57Z"/><path class="cls-4" d="M484.14,150.46H485v-3.8a1.62,1.62,0,0,1,1.58-1.79c.91,0,1.44.62,1.44,1.74v3.85h.86v-4.09a2.05,2.05,0,0,0-3.88-1.14v-1h-.87Zm-2.87,0h.9v-8.4h-.9Zm-6.07,0h1.08v-1.23H475.2Zm-2.94-1.1-1.87-5.15h-.93l2.39,6.25c-.31.81-.61,1.07-1.08,1.07a1.56,1.56,0,0,1-.81-.23l-.27.72a2.4,2.4,0,0,0,1.13.29c.84,0,1.38-.44,1.83-1.74l2.22-6.36h-.93Zm-6.49,1.1h.86v-3c0-1.61.94-2.43,2.1-2.43h0v-.93a2.21,2.21,0,0,0-2.15,1.46v-1.38h-.86Zm-5.6-3.45c.08-1.31.78-2.16,1.7-2.16s1.59,1,1.65,2.16Zm1.89,3.58a2.84,2.84,0,0,0,2.15-.93l-.49-.55a2.21,2.21,0,0,1-1.62.72,2,2,0,0,1-1.93-2.15h4.2c0-.11,0-.28,0-.36,0-1.89-.94-3.23-2.51-3.23s-2.58,1.33-2.58,3.24v.06c0,2,1.25,3.2,2.77,3.2m-6.44-.08h.78l2.29-6.3h-.91L456,149.35l-1.75-5.14h-.93Zm-5.68-.7c-1.07,0-1.89-1-1.89-2.44v-.06c0-1.4.78-2.44,1.88-2.44s1.91,1,1.91,2.45v.06c0,1.38-.79,2.43-1.9,2.43m0,.78a3,3,0,0,0,2.78-3.22v-.08a2.8,2.8,0,1,0-5.55,0v.08a2.93,2.93,0,0,0,2.77,3.2m-5.58,0a2.58,2.58,0,0,0,2-.93l-.51-.58a2,2,0,0,1-1.46.72c-1.06,0-1.92-1-1.92-2.42v-.06c0-1.45.84-2.44,1.88-2.44a2.05,2.05,0,0,1,1.47.71l.51-.65a2.65,2.65,0,0,0-2-.85,2.94,2.94,0,0,0-2.78,3.23v.08a2.89,2.89,0,0,0,2.76,3.19m-8-3.58c.09-1.31.78-2.16,1.71-2.16s1.58,1,1.64,2.16Zm1.9,3.58a2.87,2.87,0,0,0,2.15-.93l-.5-.55a2.19,2.19,0,0,1-1.62.72,2,2,0,0,1-1.93-2.15h4.2c0-.11,0-.28,0-.36,0-1.89-.93-3.23-2.5-3.23s-2.58,1.33-2.58,3.24v.06c0,2,1.24,3.2,2.77,3.2m-6.4-.13h.87v-3c0-1.61.93-2.43,2.1-2.43h0v-.93a2.18,2.18,0,0,0-2.14,1.46v-1.38h-.87ZM423.11,147c.08-1.31.78-2.16,1.7-2.16s1.59,1,1.65,2.16Zm1.9,3.58a2.83,2.83,0,0,0,2.14-.93l-.49-.55a2.19,2.19,0,0,1-1.62.72,2,2,0,0,1-1.93-2.15h4.2c0-.11,0-.28,0-.36,0-1.89-.93-3.23-2.51-3.23s-2.57,1.33-2.57,3.24v.06c0,2,1.24,3.2,2.77,3.2m-5.58,0a2.56,2.56,0,0,0,2-.93l-.5-.58a2,2,0,0,1-1.47.72c-1.05,0-1.92-1-1.92-2.42v-.06c0-1.45.84-2.44,1.89-2.44a2,2,0,0,1,1.46.71l.52-.65a2.65,2.65,0,0,0-2-.85,2.94,2.94,0,0,0-2.78,3.23v.08c0,1.9,1.18,3.19,2.76,3.19m-6.39-.13h.87v-3c0-1.61.93-2.43,2.1-2.43h0v-.93a2.18,2.18,0,0,0-2.14,1.46v-1.38H413Zm-4.49.12a2,2,0,0,0,1.85-1.14v1h.87v-6.25h-.87V148a1.61,1.61,0,0,1-1.58,1.77c-.91,0-1.44-.62-1.44-1.74v-3.85h-.86v4.1a2,2,0,0,0,2,2.27m-6.16-.77c-1.07,0-1.9-1-1.9-2.44v-.06c0-1.4.78-2.44,1.88-2.44s1.91,1,1.91,2.45v.06c0,1.38-.79,2.43-1.89,2.43m0,.78a3,3,0,0,0,2.79-3.22v-.08a2.81,2.81,0,1,0-5.56,0v.08a2.93,2.93,0,0,0,2.77,3.2m-5.88,0a1.84,1.84,0,0,0,2-1.8v0c0-.95-.72-1.38-1.75-1.84-.85-.36-1.39-.62-1.39-1.15v0c0-.49.42-.87,1.08-.87a2.73,2.73,0,0,1,1.57.59l.42-.66a3.39,3.39,0,0,0-2-.67,1.76,1.76,0,0,0-1.94,1.7v0c0,1,.79,1.37,1.79,1.8.84.35,1.35.64,1.35,1.19h0c0,.59-.48,1-1.16,1a2.82,2.82,0,0,1-1.82-.75l-.46.63a3.48,3.48,0,0,0,2.25.88M389.2,147c.08-1.31.78-2.16,1.7-2.16s1.59,1,1.65,2.16Zm1.89,3.58a2.84,2.84,0,0,0,2.15-.93l-.49-.55a2.19,2.19,0,0,1-1.62.72,2,2,0,0,1-1.93-2.15h4.2c0-.11,0-.28,0-.36,0-1.89-.93-3.23-2.51-3.23s-2.58,1.33-2.58,3.24v.06c0,2,1.25,3.2,2.77,3.2m-6.39-.13h.86v-3c0-1.61.94-2.43,2.1-2.43h0v-.93a2.2,2.2,0,0,0-2.15,1.46v-1.38h-.86Zm-6.64,0h.88V145h1.62v-.76h-1.63v-.52c0-.79.32-1.17.94-1.17a2.58,2.58,0,0,1,.71.12v-.77a2.8,2.8,0,0,0-.83-.12,1.69,1.69,0,0,0-1.21.44,2.05,2.05,0,0,0-.48,1.45v.57h-.76V145h.76Zm-4.51-.65c-1.07,0-1.9-1-1.9-2.44v-.06c0-1.4.78-2.44,1.89-2.44s1.91,1,1.91,2.45v.06c0,1.38-.79,2.43-1.9,2.43m0,.78a3,3,0,0,0,2.78-3.22v-.08a2.8,2.8,0,1,0-5.55,0v.08a2.93,2.93,0,0,0,2.77,3.2m-10-.79c-1,0-1.79-.9-1.79-2.42v-.1c0-1.53.79-2.41,1.79-2.41s1.88.94,1.88,2.41v.11c0,1.48-.9,2.41-1.88,2.41m-.18.78a2.34,2.34,0,0,0,2-1.32v1.2h.86V141.8h-.86v3.57a2.33,2.33,0,0,0-2-1.28c-1.28,0-2.5,1.12-2.5,3.19v.12c0,2.09,1.22,3.18,2.5,3.18m-4.9-.12h.87V141.8h-.87ZM352.75,147c.09-1.31.79-2.16,1.71-2.16s1.58,1,1.64,2.16Zm1.9,3.58a2.84,2.84,0,0,0,2.15-.93l-.49-.55a2.21,2.21,0,0,1-1.62.72,2,2,0,0,1-1.94-2.15H357a2.36,2.36,0,0,0,0-.36c0-1.89-.94-3.23-2.51-3.23s-2.58,1.33-2.58,3.24v.06c0,2,1.25,3.2,2.77,3.2m-5.21-7.66h1v-1h-1Zm.05,7.53h.88V144.2h-.88Zm-3.6,0h.88V145h1.62v-.76h-1.63v-.52c0-.79.32-1.17.94-1.17a2.58,2.58,0,0,1,.71.12v-.77a2.8,2.8,0,0,0-.83-.12,1.69,1.69,0,0,0-1.21.44,2.05,2.05,0,0,0-.48,1.45v.57h-.77V145h.77Z"/><path class="cls-4" d="M571.28,133c.09-1.31.78-2.16,1.71-2.16s1.58,1,1.64,2.16Zm1.9,3.58a2.85,2.85,0,0,0,2.15-.93l-.49-.55a2.21,2.21,0,0,1-1.62.72,2,2,0,0,1-1.94-2.15h4.2a2.36,2.36,0,0,0,0-.36c0-1.89-.94-3.23-2.51-3.23s-2.58,1.33-2.58,3.24v.06c0,2,1.25,3.2,2.77,3.2m-8.88-.13h.86v-3.8a1.63,1.63,0,0,1,1.59-1.79c.91,0,1.44.62,1.44,1.74v3.85h.86v-4.09a2,2,0,0,0-2-2.28,2,2,0,0,0-1.85,1.14V127.8h-.86Zm-2.33.1a2.17,2.17,0,0,0,.94-.22v-.74a1.8,1.8,0,0,1-.73.17.79.79,0,0,1-.9-.9V131h1.63v-.77h-1.63v-1.82h-.87v1.82h-.75V131h.75v4a1.4,1.4,0,0,0,1.56,1.55m-9.15-.1h.86v-3c0-1.61.94-2.43,2.1-2.43h.05v-.93a2.2,2.2,0,0,0-2.15,1.46v-1.38h-.86ZM547.21,133c.09-1.31.78-2.16,1.71-2.16s1.58,1,1.64,2.16Zm1.9,3.58a2.85,2.85,0,0,0,2.15-.93l-.49-.55a2.23,2.23,0,0,1-1.62.72,2,2,0,0,1-1.94-2.15h4.2c0-.11,0-.28,0-.36,0-1.89-.93-3.23-2.5-3.23s-2.58,1.33-2.58,3.24v.06c0,2,1.24,3.2,2.77,3.2m-8-3.58c.08-1.31.78-2.16,1.7-2.16s1.59,1,1.65,2.16Zm1.9,3.58a2.83,2.83,0,0,0,2.14-.93l-.49-.55a2.19,2.19,0,0,1-1.62.72,2,2,0,0,1-1.93-2.15h4.2c0-.11,0-.28,0-.36,0-1.89-.93-3.23-2.51-3.23s-2.58,1.33-2.58,3.24v.06a2.89,2.89,0,0,0,2.78,3.2m-8.88-.13H535v-3.8a1.62,1.62,0,0,1,1.58-1.79c.92,0,1.44.62,1.44,1.74v3.85h.87v-4.09a2,2,0,0,0-2-2.28,2,2,0,0,0-1.85,1.14v-1h-.86Zm-4.22-.65c-1.07,0-1.89-1-1.89-2.44v-.06c0-1.4.78-2.44,1.88-2.44s1.91,1,1.91,2.45v.06c0,1.38-.79,2.43-1.9,2.43m0,.78a3,3,0,0,0,2.78-3.22v-.08a2.8,2.8,0,1,0-5.55,0v.08a2.93,2.93,0,0,0,2.77,3.2m-5.15-.13h.87v-6.25h-.87Zm0-7.53h1v-1h-1Zm-4.16,6.87a2.14,2.14,0,0,1-1.89-2.4v-.12a2.16,2.16,0,0,1,1.89-2.41c1,0,1.78.9,1.78,2.42v.1c0,1.54-.79,2.41-1.78,2.41m-2.72,2.46h.86v-3a2.33,2.33,0,0,0,2,1.28c1.27,0,2.5-1.11,2.5-3.19v-.12c0-2.08-1.23-3.18-2.5-3.18a2.34,2.34,0,0,0-2,1.32v-1.2h-.86Zm-7.32-2.45c-1.07,0-1.9-1-1.9-2.44v-.06c0-1.4.78-2.44,1.89-2.44s1.91,1,1.91,2.45v.06c0,1.38-.8,2.43-1.9,2.43m0,.78a3,3,0,0,0,2.78-3.22v-.08a2.8,2.8,0,1,0-5.55,0v.08a2.93,2.93,0,0,0,2.77,3.2m-4.61,0a2.09,2.09,0,0,0,.93-.22v-.74a1.8,1.8,0,0,1-.73.17.79.79,0,0,1-.9-.9V131h1.63v-.77h-1.63v-1.82h-.86v1.82h-.76V131h.76v4a1.4,1.4,0,0,0,1.56,1.55m-9.43-.76c-1,0-1.79-.9-1.79-2.42v-.1c0-1.53.79-2.41,1.79-2.41s1.88.94,1.88,2.41v.11c0,1.48-.9,2.41-1.88,2.41m-.18.78a2.34,2.34,0,0,0,2-1.32v1.2h.86V127.8h-.86v3.57a2.33,2.33,0,0,0-2-1.28c-1.27,0-2.5,1.12-2.5,3.19v.12c0,2.09,1.23,3.18,2.5,3.18M488.45,133c.08-1.31.78-2.16,1.7-2.16s1.59,1,1.65,2.16Zm1.9,3.58a2.83,2.83,0,0,0,2.14-.93l-.49-.55a2.19,2.19,0,0,1-1.62.72,2,2,0,0,1-1.93-2.15h4.2c0-.11,0-.28,0-.36,0-1.89-.93-3.23-2.51-3.23s-2.58,1.33-2.58,3.24v.06a2.89,2.89,0,0,0,2.78,3.2m-6.57-.79a2.14,2.14,0,0,1-1.89-2.4v-.12a2.16,2.16,0,0,1,1.89-2.41c1,0,1.78.9,1.78,2.42v.1c0,1.54-.79,2.41-1.78,2.41m-2.72,2.46h.86v-3a2.32,2.32,0,0,0,2,1.28c1.27,0,2.5-1.11,2.5-3.19v-.12c0-2.08-1.23-3.18-2.5-3.18a2.34,2.34,0,0,0-2,1.32v-1.2h-.86Zm-2.71-1.8h.86V127.8h-.86ZM472.67,133c.08-1.31.78-2.16,1.7-2.16s1.59,1,1.65,2.16Zm1.9,3.58a2.83,2.83,0,0,0,2.14-.93l-.49-.55a2.19,2.19,0,0,1-1.62.72,2,2,0,0,1-1.93-2.15h4.2c0-.11,0-.28,0-.36,0-1.89-.93-3.23-2.51-3.23s-2.58,1.33-2.58,3.24v.06a2.89,2.89,0,0,0,2.78,3.2m-8.88-.13h.86v-3.8a1.62,1.62,0,0,1,1.58-1.79c.92,0,1.44.62,1.44,1.74v3.85h.87v-4.09a2,2,0,0,0-2-2.28,2,2,0,0,0-1.85,1.14V127.8h-.86ZM457,133c.09-1.31.78-2.16,1.71-2.16s1.58,1,1.64,2.16Zm1.9,3.58a2.85,2.85,0,0,0,2.15-.93l-.49-.55a2.21,2.21,0,0,1-1.62.72,2,2,0,0,1-1.94-2.15h4.2a2.36,2.36,0,0,0,0-.36c0-1.89-.94-3.23-2.51-3.23s-2.58,1.33-2.58,3.24v.06c0,2,1.25,3.2,2.77,3.2m-6.44-.08h.78l2.29-6.3h-.91l-1.78,5.14-1.75-5.14h-.94Zm-5.82-.64a1.25,1.25,0,0,1-1.34-1.27v0c0-.8.56-1.31,1.55-1.31a4.59,4.59,0,0,1,1.52.25v.78a1.62,1.62,0,0,1-1.73,1.58m-.2.72a2.14,2.14,0,0,0,1.91-1v.91h.85v-4a2.29,2.29,0,0,0-.6-1.69,2.35,2.35,0,0,0-1.75-.62,4.29,4.29,0,0,0-2,.5l.28.71a3.38,3.38,0,0,1,1.6-.42,1.42,1.42,0,0,1,1.59,1.55v.37a5,5,0,0,0-1.61-.25c-1.38,0-2.3.73-2.3,2v.05a1.9,1.9,0,0,0,2,1.94m-8-.13h.86v-3.8a1.62,1.62,0,0,1,1.58-1.79c.91,0,1.44.62,1.44,1.74v3.85h.87v-4.09a2,2,0,0,0-2-2.28,2,2,0,0,0-1.85,1.14V127.8h-.86ZM429.66,133c.09-1.31.78-2.16,1.71-2.16s1.58,1,1.64,2.16Zm1.9,3.58a2.85,2.85,0,0,0,2.15-.93l-.49-.55a2.23,2.23,0,0,1-1.63.72,2,2,0,0,1-1.93-2.15h4.2c0-.11,0-.28,0-.36,0-1.89-.93-3.23-2.5-3.23s-2.58,1.33-2.58,3.24v.06c0,2,1.24,3.2,2.77,3.2m-9.77-.08h.78l1.43-4.86,1.41,4.86h.78l1.88-6.3h-.88l-1.39,5-1.43-5h-.73l-1.43,5-1.38-5h-.91Zm-10.2,0h1l3.24-7.71v-.69h-4.9v.84h3.93Zm-6.14,0h1l3.24-7.71v-.69h-4.91v.84h3.94Zm-4.6-3.83a1.71,1.71,0,0,1-1.74-1.87v0a1.78,1.78,0,1,1,3.53,0v0a1.78,1.78,0,0,1-1.79,1.89m-.26,3.14a2.59,2.59,0,0,1-1.7-.72l-.46.72a3.26,3.26,0,0,0,2.13.82c1.86,0,3.11-1.71,3.11-4.57v-.09c0-1.76-.38-2.68-1-3.27a2.48,2.48,0,0,0-1.85-.73,2.68,2.68,0,0,0-2.65,2.84v0a2.44,2.44,0,0,0,2.54,2.6,2.31,2.31,0,0,0,2-1.16c0,2-.8,3.53-2.18,3.53m-5,.69h.89V128h-.67l-1.74.66.15.78,1.37-.48ZM386,133c.08-1.31.78-2.16,1.7-2.16s1.59,1,1.65,2.16Zm1.9,3.58a2.83,2.83,0,0,0,2.14-.93l-.49-.55a2.19,2.19,0,0,1-1.62.72,2,2,0,0,1-1.93-2.15h4.2c0-.11,0-.28,0-.36,0-1.89-.93-3.23-2.51-3.23s-2.58,1.33-2.58,3.24v.06a2.89,2.89,0,0,0,2.78,3.2m-5.59,0a2.56,2.56,0,0,0,2-.93l-.5-.58a2,2,0,0,1-1.47.72c-1.05,0-1.92-1-1.92-2.42v-.06c0-1.45.84-2.44,1.89-2.44a2,2,0,0,1,1.46.71l.52-.65a2.65,2.65,0,0,0-2-.85,2.94,2.94,0,0,0-2.78,3.23v.08c0,1.9,1.18,3.19,2.75,3.19m-8.86-.13h.86v-3.8a1.63,1.63,0,0,1,1.59-1.79c.91,0,1.44.62,1.44,1.74v3.85h.86v-4.09a2,2,0,0,0-2-2.28,2,2,0,0,0-1.85,1.14v-1h-.86Zm-2.71,0h.86v-6.25h-.86Zm-.05-7.53h1v-1h-1Zm-4.12,7.65a2.37,2.37,0,0,0,2.6-2.29v0c0-1.12-.62-1.8-2.32-2.44s-2-1-2-1.73v0a1.42,1.42,0,0,1,1.59-1.31,3,3,0,0,1,2,.82l.54-.7a3.64,3.64,0,0,0-2.52-.95,2.32,2.32,0,0,0-2.53,2.22v0c0,1.18.68,1.81,2.42,2.46,1.53.54,1.86,1,1.86,1.68h0a1.5,1.5,0,0,1-1.68,1.41,3.32,3.32,0,0,1-2.36-1l-.56.68a4.08,4.08,0,0,0,2.91,1.19"/><g class="cls-5"><g class="cls-6"><path class="cls-3" d="M74.06.83a93.49,93.49,0,1,0,93.49,93.49A93.5,93.5,0,0,0,74.06.83"/><path class="cls-7" d="M74.06,10.61a83.71,83.71,0,0,1,59.19,142.9,83.7,83.7,0,0,1-118.38,0A83.71,83.71,0,0,1,74.06,10.61"/><path class="cls-4" d="M144.46,88.05c-7.19-12.75-12.93-22.83-15.7-27.69L123,83l-.37,1.43L121.15,84l-21-5.4c3.38,6.34,13,24.64,20.71,39.2-22.74.94-25.07,1.07-25.19,1.08l-1.48.06-.06-1.48-.4-9-27.48,28.7L94.74,165l0-9.5v-1.44l1.44,0s3.23-.09,11.19-.76c5.44-.7,12.1-2.28,15.45-8.24,2.16-3.79,13.71-23.93,20.44-35.78l1.47-2.57c3.41-5.84,3.32-12.27-.25-18.62M44.11,53.92l.42,1.39,6.1,20.49c3.88-6.17,14.52-22.91,23.43-36.94h0C83,53,87.42,60.1,87.47,60.18l.79,1.25L87,62.22,79.39,67,118,76.65l10-38.56-8.24,4.73-1.25.72-.75-1.24S116,39.54,111.51,33c-3.29-4.34-7.93-9.32-14.7-9.32h-.12c-4.08,0-20.32,0-33.55.05l-.22-.05H52.34c-6.67,0-12.16,3.27-15.87,9.47C29,45.67,23.07,55.65,20.22,60.47L42.71,54.3Zm14.22,83.8,16.77,16.2H64.44l-21.16,0c-7.29,0-12.93-3.14-16.33-9-.39-.67-.76-1.29-1.13-1.91-7-11.77-19.19-32.37-21.39-36.08C.9,101.07,2.81,94.5,4.89,89.42c3.35-7.24,4.85-10.07,4.87-10.1l.68-1.27-1.26-.71L.91,72.66l38.28-11L50.58,99.68l-8-4.1-1.32-.67-.67,1.32c-.05.08-3.89,7.61-11.66,22.73,16.7.45,38.72.85,45.56,1L58.32,135.6l-1.1,1.06Z"/></g></g></svg>