<svg xmlns="http://www.w3.org/2000/svg" xmlns:xlink="http://www.w3.org/1999/xlink" viewBox="0 0 206.63 278.77"><defs><style>.cls-1,.cls-11,.cls-12,.cls-26,.cls-3,.cls-7{fill:none;}.cls-2{fill:#292728;}.cls-11,.cls-3{stroke:#414042;}.cls-11,.cls-3,.cls-7{stroke-width:0.33px;}.cls-4{fill:#0082ca;}.cls-5{fill:#74bfe4;}.cls-6{fill:#00263e;}.cls-7{stroke:#231f20;}.cls-8{fill:#0084cb;}.cls-9{clip-path:url(#clip-path);}.cls-10{fill:#00447c;}.cls-11,.cls-12{stroke-miterlimit:10;}.cls-12,.cls-26{stroke:#00263e;}.cls-12{stroke-width:0.65px;}.cls-13{fill:#fff;}.cls-14{clip-path:url(#clip-path-2);}.cls-15{fill:#231f20;}.cls-16{fill:#54565a;}.cls-17{clip-path:url(#clip-path-3);}.cls-18{clip-path:url(#clip-path-4);}.cls-19{clip-path:url(#clip-path-5);}.cls-20{clip-path:url(#clip-path-6);}.cls-21{clip-path:url(#clip-path-7);}.cls-22{clip-path:url(#clip-path-8);}.cls-23{clip-path:url(#clip-path-9);}.cls-24{clip-path:url(#clip-path-10);}.cls-25{fill:#c4c6c8;}.cls-26{stroke-width:2.04px;}.cls-27{opacity:0.8;}.cls-28{clip-path:url(#clip-path-11);}.cls-29{clip-path:url(#clip-path-12);}</style><clipPath id="clip-path"><path class="cls-1" d="M18.86,6.9,11.61,15H206.25L199,6.9C170.46,2,140.93.33,114.24.33A686.8,686.8,0,0,0,18.86,6.9"/></clipPath><clipPath id="clip-path-2"><path class="cls-1" d="M132.3,231.9A32.34,32.34,0,0,0,161.1,264h7.07A32.34,32.34,0,1,0,132.3,231.9"/></clipPath><clipPath id="clip-path-3"><path class="cls-1" d="M160.55,209.37l4.18,22.38,4.68-22.38a11.35,11.35,0,0,0-4.08-.7,17.18,17.18,0,0,0-4.78.7"/></clipPath><clipPath id="clip-path-4"><path class="cls-1" d="M144.35,221.81l20.41,10.08-15.1-17.17c-3.66,2.27-5.31,7.09-5.31,7.09"/></clipPath><clipPath id="clip-path-5"><path class="cls-1" d="M143.38,239.76l21.4-7.77-22.84-1c-.9,4.22,1.44,8.75,1.44,8.75"/></clipPath><clipPath id="clip-path-6"><path class="cls-1" d="M148.36,247.86c2.43,3.57,7.31,5,7.31,5l9.2-20.82Z"/></clipPath><clipPath id="clip-path-7"><path class="cls-1" d="M167.65,254.75c4.3.22,8.4-2.82,8.4-2.82L165,232.06Z"/></clipPath><clipPath id="clip-path-8"><path class="cls-1" d="M185,243.13c2.7-3.36,2.66-8.45,2.66-8.45L165,231.94Z"/></clipPath><clipPath id="clip-path-9"><path class="cls-1" d="M164.92,231.86,186,223.09c-1-4.2-5-7.31-5-7.31Z"/></clipPath><clipPath id="clip-path-10"><path class="cls-1" d="M161.21,231.67a3.55,3.55,0,1,0,3.55-3.55,3.55,3.55,0,0,0-3.55,3.55"/></clipPath><clipPath id="clip-path-11"><rect class="cls-1" x="125.91" y="127.31" width="36.08" height="33.43"/></clipPath><clipPath id="clip-path-12"><rect class="cls-1" x="126.91" y="128.31" width="34.08" height="31.43"/></clipPath></defs><title>t-can</title><g id="Layer_2" data-name="Layer 2"><g id="Layer_1-2" data-name="Layer 1"><path class="cls-2" d="M18.86,6.9S142.77,8.22,199,6.9"/><path class="cls-3" d="M18.86,6.9S142.77,8.22,199,6.9"/><rect class="cls-4" x="98.2" y="269.94" width="8.74" height="8.74"/><rect class="cls-5" x="57.17" y="269.67" width="9.01" height="9.01"/><rect class="cls-6" x="46.14" y="248.93" width="120.76" height="10.01"/><path class="cls-6" d="M67,256.93h96.19c9.66,0,10.84-9.94,10.84-9.94L189.88,29.13l-2.44-2.5H30.61l-2.8,2L39.89,247.2s1.55,9.9,9.1,9.72Z"/><path class="cls-7" d="M67,256.93h96.19c9.66,0,10.84-9.94,10.84-9.94L189.88,29.13l-2.44-2.5H30.61l-2.8,2L39.89,247.2s1.55,9.9,9.1,9.72Z"/><path class="cls-6" d="M71.62,256.81l-5-104C66.17,119,41.2,113.18,41.2,113.18A19.84,19.84,0,0,1,25.9,99.32C25.88,63.45,21,25.26,21,25.26L195.76,26s-5.35,38.12-5.77,74a19.79,19.79,0,0,1-15.46,13.65s-25,5.52-25.91,39.27l-6.51,104Z"/><path class="cls-7" d="M71.62,256.81l-5-104C66.17,119,41.2,113.18,41.2,113.18A19.84,19.84,0,0,1,25.9,99.32C25.88,63.45,21,25.26,21,25.26L195.76,26s-5.35,38.12-5.77,74a19.79,19.79,0,0,1-15.46,13.65s-25,5.52-25.91,39.27l-6.51,104Z"/><polygon class="cls-8" points="108.94 13.56 16.56 13.56 20.94 25.97 108.94 25.97 196.93 25.97 201.32 13.56 108.94 13.56"/><polygon class="cls-3" points="108.94 13.56 16.56 13.56 20.94 25.97 108.94 25.97 196.93 25.97 201.32 13.56 108.94 13.56"/><path class="cls-2" d="M199,6.9,206.25,15H11.61L18.86,6.9S113.38-7.88,199,6.9"/><g class="cls-9"><rect class="cls-10" x="11.57" width="195.03" height="15.11"/></g><path class="cls-11" d="M199,6.9,206.25,15H11.61L18.86,6.9S113.38-7.88,199,6.9Z"/><path class="cls-8" d="M199,6.9,206.25,15H11.61L18.86,6.9S113.38-7.88,199,6.9"/><path class="cls-3" d="M199,6.9,206.25,15H11.61L18.86,6.9S113.38-7.88,199,6.9Z"/><line class="cls-12" x1="24.38" y1="64.24" x2="55.4" y2="64.24"/><line class="cls-12" x1="20.98" y1="26.13" x2="195.71" y2="26.13"/><line class="cls-12" x1="35.82" y1="140.77" x2="62.17" y2="140.77"/><line class="cls-12" x1="38.5" y1="178.56" x2="93.32" y2="178.56"/><polygon class="cls-5" points="21.15 28.08 23.19 47.49 149.03 47.49 149.03 28.08 21.15 28.08"/><polygon class="cls-4" points="23.19 47.49 24.62 67.15 107.18 67.15 107.18 47.49 23.19 47.49"/><path class="cls-13" d="M158.66,46.54h-4.48a.31.31,0,0,0-.31.31.32.32,0,0,0,.31.33h4.48a.31.31,0,0,0,.31-.31.31.31,0,0,0-.31-.33m1.46,4.21a.31.31,0,0,0,.31-.32.32.32,0,0,0-.31-.33h-5.94a.32.32,0,0,0-.31.32.32.32,0,0,0,.31.33Zm-5.94-2.43a.31.31,0,0,0-.31.32.32.32,0,0,0,.31.33h5.94a.31.31,0,0,0,.31-.32.31.31,0,0,0-.31-.33Zm7.73-4.27v9.22a.73.73,0,0,1-.72.73h-8.07a.73.73,0,0,1-.72-.73V41.71a.72.72,0,0,1,.72-.72h5.79v2.43a.63.63,0,0,0,.62.63Zm-2.39-.89V41.08l2.38,2.4h-2.07a.31.31,0,0,1-.31-.32"/><path class="cls-5" d="M17.42,41.18c-.23,0-.33-.26-.33-1.16v-.41c0-.9.1-1.17.33-1.17s.34.27.34,1.17V40c0,.9-.11,1.16-.34,1.16m0,1.13c.89,0,1.48-.82,1.48-2.38V39.7c0-1.58-.59-2.38-1.48-2.38s-1.48.83-1.48,2.38v.23c0,1.56.59,2.38,1.48,2.38m-2.36-4.63L12.9,42.22h1l2-4.37,2.18-4.54h-1Zm-1.51-3.34c.23,0,.34.27.34,1.17v.41c0,.9-.11,1.16-.34,1.16s-.33-.26-.33-1.16v-.41c0-.9.1-1.17.33-1.17m0,3.86c.88,0,1.49-.82,1.49-2.37V35.6c0-1.58-.6-2.38-1.49-2.38s-1.48.8-1.48,2.38v.23c0,1.57.59,2.37,1.48,2.37M9.36,40.76c-.31,0-.52-.39-.52-1.56V38a.72.72,0,0,1,.44-.14c.34,0,.59.26.59,1.15v.34c0,1-.19,1.38-.51,1.38m0,1.62c1.27,0,2.26-1.1,2.26-3.08V39c0-2-.93-2.57-1.83-2.57a1.62,1.62,0,0,0-1,.31c0-1.37.45-1.84,1.17-1.84a2.41,2.41,0,0,1,1,.24V33.36a4,4,0,0,0-1.2-.18c-1.56,0-2.83.94-2.83,4.63v.26C7,40,7.32,41.2,8,41.82a1.89,1.89,0,0,0,1.44.56m-5.53,0c1.63,0,2.76-1.07,2.76-3.09v-.11c0-2-1-2.65-2.2-2.65l-.41,0,.09-1.41H6.28V33.31H2.68l-.23,4.44.88.51a1.32,1.32,0,0,1,.57-.1c.47,0,.83.29.83,1.06v.06c0,.79-.44,1.26-1.08,1.26a2.47,2.47,0,0,1-1.15-.27v1.85a3.72,3.72,0,0,0,1.36.24"/><polygon class="cls-5" points="24.74 69.42 25.56 87.79 73.4 87.79 73.4 69.42 24.74 69.42"/><path class="cls-4" d="M25.56,87.79l.16,11.62s1.47,4.81,3.27,6.28H89.37V87.79Z"/><path class="cls-13" d="M102.33,88.33H95.8v4h7.56V83.2l-7.49.69-1.41,4h7.59l.58-1.8.38.12Zm2.46,0h4v4h-5V83.2l5,.69,1.4,4h-5.06l-.59-1.8-.37.12Z"/><path class="cls-4" d="M17.35,100.14c-.23,0-.33-.26-.33-1.16v-.41c0-.9.1-1.17.33-1.17s.35.27.35,1.17V99c0,.9-.12,1.16-.35,1.16m0,1.13c.89,0,1.49-.81,1.49-2.38v-.23c0-1.58-.6-2.38-1.49-2.38s-1.47.83-1.47,2.38v.23c0,1.57.58,2.38,1.47,2.38M15,96.64l-2.17,4.54h1l2-4.36,2.17-4.55H17ZM13.48,93.3c.23,0,.35.27.35,1.17v.41c0,.91-.12,1.16-.35,1.16s-.33-.25-.33-1.16v-.41c0-.9.1-1.17.33-1.17m0,3.86c.88,0,1.49-.81,1.49-2.37v-.23c0-1.58-.59-2.38-1.49-2.38S12,93,12,94.56v.23c0,1.57.58,2.37,1.47,2.37M9.3,99.72c-.31,0-.53-.38-.53-1.55V97a.86.86,0,0,1,.45-.14c.33,0,.59.26.59,1.15v.34c0,1-.19,1.38-.51,1.38m0,1.63c1.27,0,2.27-1.11,2.27-3.08v-.35c0-2-.93-2.57-1.83-2.57a1.72,1.72,0,0,0-1,.31c0-1.36.46-1.84,1.17-1.84a2.43,2.43,0,0,1,1.05.25V92.32a4.12,4.12,0,0,0-1.2-.17c-1.57,0-2.84.94-2.84,4.63V97c0,1.93.32,3.13.94,3.76a2,2,0,0,0,1.44.56m-6.87-.17h4.1V99.3H4.45l1.42-2.64a4.51,4.51,0,0,0,.71-2.31v-.07a2,2,0,0,0-2.14-2.15,4.21,4.21,0,0,0-1.81.41v1.84A2.7,2.7,0,0,1,3.94,94a.7.7,0,0,1,.76.75,3.81,3.81,0,0,1-.6,1.62L2.45,99.53Z"/><path class="cls-5" d="M16.33,82c-.22,0-.33-.26-.33-1.16v-.41c0-.91.11-1.17.33-1.17s.35.26.35,1.17v.41c0,.9-.12,1.16-.35,1.16m0,1.13c.9,0,1.49-.82,1.49-2.38v-.23c0-1.58-.59-2.38-1.49-2.38s-1.47.82-1.47,2.38v.23c0,1.56.58,2.38,1.47,2.38M14,78.53l-2.16,4.55h1l2-4.37L17,74.17H16ZM12.47,75.2c.22,0,.34.27.34,1.17v.41c0,.9-.12,1.16-.34,1.16s-.34-.26-.34-1.16v-.41c0-.9.11-1.17.34-1.17m0,3.86c.87,0,1.48-.82,1.48-2.37v-.23c0-1.58-.59-2.38-1.48-2.38S11,74.88,11,76.46v.23c0,1.56.58,2.37,1.48,2.37M8.23,78.6c-.36,0-.59-.26-.59-1.22v-.32c0-1.11.19-1.44.51-1.44s.52.38.52,1.57v1.26a.69.69,0,0,1-.44.15M7.5,81.53a2.92,2.92,0,0,1-1.17-.28V83a3.72,3.72,0,0,0,1.32.22c1.57,0,2.85-1,2.85-4.63v-.25c0-1.94-.31-3.15-.94-3.77A1.92,1.92,0,0,0,8.12,74c-1.27,0-2.26,1.08-2.26,3.15v.3c0,2.08.92,2.64,1.83,2.64a1.72,1.72,0,0,0,1-.3c-.05,1.3-.48,1.74-1.17,1.74M3.37,83.08h1.9v-9H3.91l-1.46.46v1.86l.92-.28Z"/><path class="cls-13" d="M74.25,117.83a.16.16,0,1,0,0,.32h.53a.16.16,0,0,0,.16-.16.17.17,0,0,0-.16-.17Zm1.39,15.68c-.74-.1-1.54-.27-1.54-.41v-7.9c0-1.16.68-1.57.68-2V118.6a.1.1,0,0,0-.11-.11h-.22c-.11,0-.1.05-.1.09a.62.62,0,0,1,0,.3c0,.12-.09.61-.15,1.12-.1.73-.22,1.64-.34,2.39a1.88,1.88,0,0,1-.79,1.27c-.29.23-.5.64-.5,1.77v8a.09.09,0,0,0,.06.09,11.78,11.78,0,0,0,2.17.11h.9c.31,0,.3-.09,0-.14m-.08-16.59a.26.26,0,0,1,.26.26,1.46,1.46,0,0,1,0,.21c-.06,0-.06.08,0,.16s.06.19.09.32c.12.57-.22.6-.16.91s.29,2.2.5,3.53a1.51,1.51,0,0,0,.71,1c.47.33.59,1.2.59,2.08v8a.57.57,0,0,1-.12.38c-.22.29-.92.32-2.6.32s-2.39,0-2.61-.32a.63.63,0,0,1-.12-.38v-8c0-.88.12-1.75.59-2.08a1.51,1.51,0,0,0,.71-1c.21-1.33.44-3.23.5-3.53s-.28-.34-.15-.91c0-.13.05-.23.08-.32s0-.11,0-.16a1.46,1.46,0,0,1,0-.21.26.26,0,0,1,.26-.26Z"/><polygon class="cls-5" points="30.7 107.76 32.09 109.04 33.07 126.09 63.5 126.09 63.5 107.76 30.7 107.76"/><polygon class="cls-4" points="33.07 126.08 34.05 144.03 66.86 144.03 66.86 126.08 33.07 126.08"/><path class="cls-5" d="M15.83,120.36c-.23,0-.34-.26-.34-1.16v-.41c0-.9.11-1.17.34-1.17s.34.27.34,1.17v.41c0,.9-.11,1.16-.34,1.16m0,1.13c.89,0,1.48-.81,1.48-2.38v-.23c0-1.58-.59-2.38-1.48-2.38s-1.48.83-1.48,2.38v.23c0,1.57.58,2.38,1.48,2.38m-2.36-4.63-2.16,4.54h1l2-4.36,2.18-4.55h-1ZM12,113.52c.23,0,.34.27.34,1.17v.41c0,.91-.11,1.16-.34,1.16s-.34-.25-.34-1.16v-.41c0-.9.11-1.17.34-1.17m0,3.86c.87,0,1.48-.81,1.48-2.37v-.23c0-1.58-.59-2.38-1.48-2.38s-1.48.8-1.48,2.38V115c0,1.57.59,2.37,1.48,2.37m-6,4H10v-1.88H7.92l1.43-2.64a4.6,4.6,0,0,0,.71-2.31v-.07a2,2,0,0,0-2.15-2.15,4.21,4.21,0,0,0-1.81.41v1.84a2.73,2.73,0,0,1,1.31-.4.7.7,0,0,1,.77.75,4,4,0,0,1-.6,1.62l-1.66,3.18Zm-2.55,0h1.9v-8.94H3.91l-1.46.45v1.86l.92-.28Z"/><rect class="cls-13" x="75.28" y="158.48" width="10.25" height="2.55"/><path class="cls-13" d="M83.23,168.68a.49.49,0,1,1-1,0v-6.63a.49.49,0,1,1,1,0Zm-2.35,0a.54.54,0,0,1-.48.59.54.54,0,0,1-.48-.59v-6.63a.54.54,0,0,1,.48-.59.55.55,0,0,1,.48.59Zm-2.35,0a.54.54,0,0,1-.48.59.54.54,0,0,1-.48-.59v-6.63a.55.55,0,0,1,.48-.59.54.54,0,0,1,.48.59Zm-2.37-8.3v10a.58.58,0,0,0,.51.63h7.45a.58.58,0,0,0,.52-.63v-10Z"/><polygon class="cls-13" points="83.02 157.15 82.41 156.24 78.39 156.24 77.78 157.15 78.56 157.99 78.96 157.39 81.83 157.39 82.24 157.99 83.02 157.15"/><polygon class="cls-5" points="34.13 146.3 35.11 163.85 49.99 163.85 49.99 146.3 34.13 146.3"/><polygon class="cls-4" points="35.11 163.85 36.17 182.16 71.42 182.16 71.42 163.85 35.11 163.85"/><path class="cls-5" d="M12.86,159.63c-.23,0-.33-.25-.33-1.16v-.41c0-.9.1-1.17.33-1.17s.34.27.34,1.17v.41c0,.91-.11,1.16-.34,1.16m0,1.13c.89,0,1.49-.81,1.49-2.38v-.23c0-1.58-.6-2.38-1.49-2.38s-1.48.83-1.48,2.38v.23c0,1.57.59,2.38,1.48,2.38m-2.36-4.63-2.16,4.54h1l2-4.36,2.18-4.55h-1ZM9,152.79c.23,0,.35.27.35,1.17v.41c0,.91-.12,1.16-.35,1.16s-.33-.25-.33-1.16V154c0-.9.1-1.17.33-1.17m0,3.86c.88,0,1.49-.81,1.49-2.37v-.23c0-1.57-.6-2.38-1.49-2.38s-1.48.81-1.48,2.38v.23c0,1.57.59,2.37,1.48,2.37M4.8,159.21c-.3,0-.52-.38-.52-1.55v-1.18a.86.86,0,0,1,.45-.14c.33,0,.58.26.58,1.15v.34c0,1-.19,1.38-.51,1.38m0,1.63c1.27,0,2.26-1.11,2.26-3.08v-.35c0-2-.93-2.57-1.83-2.57a1.71,1.71,0,0,0-1,.31c0-1.36.46-1.83,1.17-1.83a2.41,2.41,0,0,1,1,.24v-1.75a4.05,4.05,0,0,0-1.19-.17c-1.57,0-2.84.94-2.84,4.63v.25c0,1.93.32,3.13.94,3.76a1.93,1.93,0,0,0,1.44.56"/><path class="cls-13" d="M54,195.34c-.09,0-.14-.11-.14-.22v-1.29a.15.15,0,0,1,.13-.16c.24,0,.8,0,1.44,0s1.19,0,1.43,0a.15.15,0,0,1,.13.16v1.29c0,.11,0,.21-.14.22Zm.79,1.53a7.36,7.36,0,0,0-1.08,2.46c0,.29,0,1,0,1.19a.12.12,0,0,0,.12.11h.71a.2.2,0,0,1,.2.2.2.2,0,0,1-.2.21H53a.28.28,0,0,1-.25-.32c0-1.13,0-1.37,0-1.44a2.15,2.15,0,0,1,.26-.8,8.69,8.69,0,0,1,.82-1l.08-.08a7.46,7.46,0,0,0,.58-.7.16.16,0,0,1,.22,0,.17.17,0,0,1,0,.21m-.26,7.81H53c-.29,0-.31-.2-.23-.34a.64.64,0,0,1,.08-.14,1.2,1.2,0,0,0,.23-.64.2.2,0,1,1,.4,0c0,.25,0,.45,0,.62s0,.09.13.09h.9a.2.2,0,0,1,.2.21.2.2,0,0,1-.2.2m0-1.82H53c-.29,0-.31-.21-.23-.35a.64.64,0,0,1,.08-.14,1.2,1.2,0,0,0,.23-.64.2.2,0,0,1,.4,0c0,.25,0,.45,0,.62a.12.12,0,0,0,.13.1h.9a.2.2,0,0,1,.2.2.2.2,0,0,1-.2.21m-1.37,3.7c0,.6,0,.78,0,.81a.22.22,0,0,1-.14.24h0a.19.19,0,0,1-.17-.17c0-.09,0-.31-.06-1.1h0a.44.44,0,0,1,.06-.22c0-.06.06-.13.08-.18a1.34,1.34,0,0,0,.2-.62.2.2,0,0,1,.2-.2h.63c.13,0,.12.16.12.2,0,.35-.88.91-.88,1.24m5.58-2.16c0-.4-.34-.65-.34-.87s.34-.56.34-.93-.34-.65-.34-.87.33-.74.33-.88c0-.81,0-1.49,0-1.66a2.57,2.57,0,0,0-.34-1,8.65,8.65,0,0,0-1-1.2,8,8,0,0,1-.55-.65.22.22,0,0,1,0-.21.28.28,0,0,0,0-.13.34.34,0,0,0-.34-.34H54.33A.34.34,0,0,0,54,196a.28.28,0,0,0,0,.13.22.22,0,0,1,0,.21,8,8,0,0,1-.55.65,8.65,8.65,0,0,0-1,1.2,2.94,2.94,0,0,0-.34,1c0,.17,0,.85,0,1.66,0,.14.33.66.33.88s-.34.49-.34.87.34.71.34.93-.34.47-.34.87.34.7.34.92-.33.57-.33,1,0,1,.07,1.22a1.9,1.9,0,0,0,.73,1.05.86.86,0,0,0,.61.2c.76,0,.7-.3,1.9-.3s1.14.3,1.89.3a.92.92,0,0,0,.62-.2,2,2,0,0,0,.73-1.05c0-.2.05-.84.07-1.22s-.34-.79-.34-1,.34-.52.34-.92"/><polygon class="cls-5" points="36.25 184.46 37.31 202.8 45.37 202.8 45.37 184.46 36.25 184.46"/><polygon class="cls-4" points="37.31 202.8 38.29 221.13 47.17 221.13 47.17 202.8 37.31 202.8"/><path class="cls-4" d="M12.38,215.38c-.23,0-.33-.26-.33-1.16v-.41c0-.9.1-1.17.33-1.17s.34.27.34,1.17v.41c0,.9-.11,1.16-.34,1.16m0,1.13c.89,0,1.49-.82,1.49-2.38v-.23c0-1.58-.6-2.38-1.49-2.38s-1.48.83-1.48,2.38v.23c0,1.56.59,2.38,1.48,2.38M10,211.88l-2.16,4.54h1l2-4.37,2.18-4.54h-1Zm-1.51-3.34c.23,0,.34.27.34,1.17v.41c0,.9-.11,1.16-.34,1.16s-.33-.26-.33-1.16v-.41c0-.9.1-1.17.33-1.17m0,3.86c.88,0,1.49-.82,1.49-2.37v-.23c0-1.58-.6-2.38-1.49-2.38S7,208.22,7,209.8V210c0,1.57.59,2.37,1.48,2.37m-4.65,4.16c1.63,0,2.76-1.07,2.76-3.09v-.11c0-2-1-2.65-2.2-2.65l-.41,0,.09-1.41H6.28v-1.81H2.68L2.45,212l.88.51a1.32,1.32,0,0,1,.57-.1c.47,0,.83.29.83,1.06v.06c0,.79-.44,1.26-1.08,1.26a2.47,2.47,0,0,1-1.15-.27v1.85a3.72,3.72,0,0,0,1.36.24"/><path class="cls-5" d="M13.2,197c-.23,0-.33-.26-.33-1.16v-.41c0-.9.1-1.17.33-1.17s.35.27.35,1.17v.41c0,.9-.12,1.16-.35,1.16m0,1.13c.9,0,1.49-.81,1.49-2.38v-.23c0-1.58-.59-2.38-1.49-2.38s-1.47.83-1.47,2.38v.23c0,1.57.58,2.38,1.47,2.38m-2.35-4.63-2.16,4.54h1l2-4.36,2.17-4.55h-1ZM9.33,190.2c.23,0,.35.27.35,1.17v.41c0,.91-.12,1.16-.35,1.16S9,192.69,9,191.78v-.41c0-.9.11-1.17.33-1.17m0,3.86c.88,0,1.49-.82,1.49-2.37v-.23c0-1.58-.59-2.38-1.49-2.38s-1.47.8-1.47,2.38v.23c0,1.57.58,2.37,1.47,2.37M4,195l1-2.84V195Zm1,3.13h1.8v-1.51H7.5V195H6.78v-5.78H4.88l-2.43,6v1.38H5Z"/><path class="cls-13" d="M52.56,244.41v-9.9a.2.2,0,1,1,.39,0v9.9a.2.2,0,1,1-.39,0m-2.4-12.26a16.71,16.71,0,0,1-2.72-.12,14.9,14.9,0,0,1,2.72-.13,14.81,14.81,0,0,1,2.72.13,16.61,16.61,0,0,1-2.72.12m.33,12.63c.18,0,.24.07,0,.08h-.68a20.62,20.62,0,0,1-2.46-.09.43.43,0,0,1-.14-.24V234.14a1.23,1.23,0,0,1,.08-.57,4.59,4.59,0,0,0,.39-.95s0,0,.09,0c.42,0,1.17.12,2,.12a.05.05,0,0,1,0,.06,4.56,4.56,0,0,1-.37,1,1.45,1.45,0,0,0-.08.58v10.07c0,.13.13.23.4.27s.39.07.67.1m2.89-11.45a4.71,4.71,0,0,1-.34-.85.07.07,0,0,1,.05-.09s.06,0,.06-.11v-.42c0-.07,0-.09-.06-.09a23.65,23.65,0,0,0-2.93-.11,25.69,25.69,0,0,0-2.93.11s-.06,0-.06.09v.43c0,.07,0,.09.06.1a.08.08,0,0,1,.06.1,4.62,4.62,0,0,1-.34.84,1.73,1.73,0,0,0-.15.92v10.28a.89.89,0,0,0,.35.62h0a15.18,15.18,0,0,0,3,.15,15.24,15.24,0,0,0,3-.15h0a.92.92,0,0,0,.35-.62V234.25a1.64,1.64,0,0,0-.15-.92"/><polygon class="cls-5" points="38.38 223.09 39.27 240.23 42.34 240.23 42.34 223.09 38.38 223.09"/><path class="cls-4" d="M39.27,240.47l.49,7s.6,4.4,2.58,6.36V240.47Z"/><path class="cls-5" d="M12.35,235.1c-.23,0-.33-.26-.33-1.16v-.41c0-.91.1-1.17.33-1.17s.35.26.35,1.17v.41c0,.9-.12,1.16-.35,1.16m0,1.13c.89,0,1.49-.82,1.49-2.38v-.23c0-1.58-.6-2.38-1.49-2.38s-1.47.82-1.47,2.38v.23c0,1.56.58,2.38,1.47,2.38M10,231.59l-2.17,4.55h1l2-4.37,2.17-4.54H12Zm-1.52-3.33c.23,0,.35.27.35,1.17v.41c0,.9-.12,1.16-.35,1.16s-.33-.26-.33-1.16v-.41c0-.9.1-1.17.33-1.17m0,3.86c.88,0,1.49-.82,1.49-2.37v-.23c0-1.58-.6-2.38-1.49-2.38S7,227.94,7,229.52v.23c0,1.56.58,2.37,1.47,2.37m-6,4h4.1v-1.88H4.45l1.42-2.64a4.54,4.54,0,0,0,.71-2.32v-.06a2,2,0,0,0-2.14-2.15,4.21,4.21,0,0,0-1.81.41v1.84a2.71,2.71,0,0,1,1.31-.41.7.7,0,0,1,.76.75,3.81,3.81,0,0,1-.6,1.62l-1.65,3.18Z"/><path class="cls-4" d="M12.35,251.71c-.23,0-.33-.26-.33-1.16v-.41c0-.91.1-1.17.33-1.17s.35.26.35,1.17v.41c0,.9-.12,1.16-.35,1.16m0,1.13c.89,0,1.49-.82,1.49-2.38v-.23c0-1.58-.6-2.38-1.49-2.38s-1.47.82-1.47,2.38v.23c0,1.56.58,2.38,1.47,2.38M10,248.2l-2.17,4.55h1l2-4.37,2.17-4.54H12Zm-1.52-3.33c.23,0,.35.27.35,1.17v.41c0,.9-.12,1.16-.35,1.16s-.33-.26-.33-1.16V246c0-.9.1-1.17.33-1.17m0,3.86c.88,0,1.49-.82,1.49-2.37v-.23c0-1.58-.6-2.38-1.49-2.38S7,244.55,7,246.13v.23c0,1.56.58,2.37,1.47,2.37m-6,4h4.1v-1.88H4.45l1.42-2.64a4.54,4.54,0,0,0,.71-2.32v-.06a2,2,0,0,0-2.14-2.15,4.21,4.21,0,0,0-1.81.41V246a2.71,2.71,0,0,1,1.31-.41.7.7,0,0,1,.76.75,3.81,3.81,0,0,1-.6,1.62l-1.65,3.18Z"/><g class="cls-14"><rect class="cls-15" x="132.06" y="199.52" width="64.99" height="64.52"/></g><path class="cls-16" d="M187.72,232.07a22.83,22.83,0,1,0-22.83,22.82,22.82,22.82,0,0,0,22.83-22.82"/><g class="cls-17"><rect class="cls-15" x="160.55" y="207.8" width="8.86" height="23.95"/></g><g class="cls-18"><rect class="cls-15" x="144.35" y="214.72" width="20.41" height="17.17"/></g><g class="cls-19"><rect class="cls-15" x="141.04" y="231.01" width="23.73" height="8.74"/></g><g class="cls-20"><rect class="cls-15" x="148.36" y="232.05" width="16.51" height="20.82"/></g><g class="cls-21"><rect class="cls-15" x="164.96" y="232.06" width="11.09" height="22.91"/></g><g class="cls-22"><rect class="cls-15" x="165.01" y="231.94" width="22.64" height="11.19"/></g><g class="cls-23"><rect class="cls-15" x="164.92" y="215.78" width="21.11" height="16.08"/></g><g class="cls-24"><rect class="cls-15" x="161.21" y="228.12" width="7.1" height="7.1"/></g><path class="cls-25" d="M162.63,231.67a2.13,2.13,0,1,0,2.13-2.13,2.13,2.13,0,0,0-2.13,2.13"/><line class="cls-26" y1="26.94" x2="145.33" y2="26.94"/><line class="cls-26" y1="68.29" x2="120.95" y2="68.29"/><line class="cls-26" y1="106.83" x2="89.37" y2="106.83"/><line class="cls-26" y1="145.16" x2="70.19" y2="145.16"/><line class="cls-26" y1="183.32" x2="58.6" y2="183.32"/><line class="cls-26" y1="221.95" x2="47.17" y2="221.95"/><g class="cls-27"><g class="cls-28"><g class="cls-29"><path class="cls-13" d="M138.62,139.19v.15l-.11.19-.82,1.54L136,144.14l-3.3,6.15c-.55,1-1.1,2-1.65,3.09a6.69,6.69,0,0,0-.66,2.39,14.48,14.48,0,0,1-3.26-6c-.25-2.19,1.34-4.08,2.33-6.05l3.39-6.08,1.7-3,.78-1.4s2.64,4.8,3.26,5.95"/><path class="cls-13" d="M157.51,156.09a6.4,6.4,0,0,0-.76-2.81c-.76-1.4-1.52-2.77-2.28-4.16l-4.57-8.29-4.57-8.29a16,16,0,0,0-2.59-4,2.91,2.91,0,0,0-.33-.26c-.06.06,6.84,0,6.84,0h.06a.63.63,0,0,1,.22.07,1.45,1.45,0,0,1,.4.26,12,12,0,0,1,2.32,3.44l2,3.73,4.05,7.46c.66,1.24,1.39,2.49,2,3.73a5.14,5.14,0,0,1,.44,3.1,20.38,20.38,0,0,1-3.26,6"/><path class="cls-13" d="M156,153.48h-9.44L144,158.19l-2.57-4.71H132a6.88,6.88,0,0,0-.69,2.9,4,4,0,0,0,.83,2.09,2.7,2.7,0,0,0,.31.28,5.71,5.71,0,0,0,3.86.94l4.17,0h7.13l4.16,0a5.69,5.69,0,0,0,3.86-.94,2.06,2.06,0,0,0,.31-.28,3.94,3.94,0,0,0,.84-2.09,6.83,6.83,0,0,0-.7-2.9"/><path class="cls-13" d="M147.7,138l0,7h2.71L144,156.73,137.58,145h2.74l0-7.1,0-5.07c0-.85,0-1.7.05-2.53a4.8,4.8,0,0,1,.23-1.21c.12-.36.35-.71.68-.75h.24a.58.58,0,0,1,.17.06s.41.1,1,1.06Z"/></g></g></g><line class="cls-26" y1="257.91" x2="47.17" y2="257.91"/><path class="cls-4" d="M16.33,176.42c-.22,0-.33-.26-.33-1.16v-.41c0-.9.11-1.17.33-1.17s.35.27.35,1.17v.41c0,.9-.12,1.16-.35,1.16m0,1.13c.9,0,1.49-.81,1.49-2.38v-.23c0-1.58-.59-2.38-1.49-2.38s-1.47.83-1.47,2.38v.23c0,1.57.58,2.38,1.47,2.38M14,172.92l-2.16,4.54h1l2-4.36L17,168.55H16Zm-1.51-3.34c.22,0,.34.27.34,1.17v.41c0,.91-.12,1.16-.34,1.16s-.34-.25-.34-1.16v-.41c0-.9.11-1.17.34-1.17m0,3.86c.87,0,1.48-.81,1.48-2.37v-.23c0-1.57-.59-2.38-1.48-2.38s-1.48.81-1.48,2.38v.23c0,1.57.58,2.37,1.48,2.37m-5.35.89,1-2.85v2.85Zm1,3.13h1.8V176h.72v-1.62H9.91v-5.79H8l-2.43,6V176H8.11Zm-5,0H5v-9H3.64L2.18,169v1.86l.92-.28Z"/><path class="cls-4" d="M16.6,136.74c-.23,0-.33-.25-.33-1.15v-.41c0-.91.1-1.17.33-1.17s.35.26.35,1.17v.41c0,.9-.12,1.15-.35,1.15m0,1.14c.89,0,1.49-.82,1.49-2.38v-.23c0-1.58-.6-2.38-1.49-2.38s-1.47.82-1.47,2.38v.23c0,1.56.58,2.38,1.47,2.38m-2.35-4.64-2.17,4.55h1l2-4.37,2.17-4.54h-1Zm-1.52-3.33c.23,0,.35.27.35,1.17v.41c0,.9-.12,1.16-.35,1.16s-.33-.26-.33-1.16v-.41c0-.9.1-1.17.33-1.17m0,3.86c.88,0,1.49-.82,1.49-2.37v-.23c0-1.58-.6-2.38-1.49-2.38s-1.47.8-1.47,2.38v.23c0,1.56.58,2.37,1.47,2.37m-5.34.89,1-2.85v2.85Zm1,3.13h1.8v-1.52h.72v-1.61h-.72v-5.8H8.28l-2.43,6v1.37H8.38Zm-5,0h1.9v-8.95H3.91l-1.46.46v1.86l.92-.28Z"/><path class="cls-4" d="M17.43,60.73c-.23,0-.33-.25-.33-1.16v-.4c0-.91.1-1.17.33-1.17s.34.26.34,1.17v.4c0,.91-.11,1.16-.34,1.16m0,1.14c.89,0,1.49-.82,1.49-2.38v-.23c0-1.58-.6-2.38-1.49-2.38S16,57.7,16,59.26v.23c0,1.56.59,2.38,1.48,2.38m-2.35-4.64-2.17,4.55h1l2-4.37,2.18-4.54h-1ZM13.56,53.9c.23,0,.34.26.34,1.17v.41c0,.9-.11,1.15-.34,1.15s-.33-.25-.33-1.15v-.41c0-.91.1-1.17.33-1.17m0,3.85c.88,0,1.49-.81,1.49-2.36v-.23c0-1.58-.6-2.38-1.49-2.38s-1.48.8-1.48,2.38v.23c0,1.56.59,2.36,1.48,2.36M9.3,60.43c-.31,0-.55-.3-.55-1.22v-.12c0-.9.23-1.23.55-1.23s.53.33.53,1.23v.12c0,.92-.23,1.22-.53,1.22m0-4c-.31,0-.5-.33-.5-1.1v-.09c0-.83.22-1.08.5-1.08s.49.25.49,1.08v.09c0,.77-.2,1.1-.49,1.1m0,5.48a2.34,2.34,0,0,0,2.37-2.61v-.1a2.52,2.52,0,0,0-1-2.18,2.23,2.23,0,0,0,.92-1.89v-.09a2.26,2.26,0,1,0-4.51,0v.09A2.28,2.28,0,0,0,8,57.07a2.56,2.56,0,0,0-1,2.17v.11a2.32,2.32,0,0,0,2.34,2.59M4,61.92a2.58,2.58,0,0,0,2.62-2.87v-.11A2.17,2.17,0,0,0,5,56.6l1.55-2.05V52.87h-4v1.82h2L3.09,56.6v1.24c1,.07,1.61.41,1.61,1.16v.07a1,1,0,0,1-1,1,3,3,0,0,1-1.22-.25v1.81a3.77,3.77,0,0,0,1.5.26"/><path class="cls-13" d="M101.21,127.21h1l-.28-1.17.77.79.51-.86-1.07-.33,1.07-.34-.51-.87-.77.79.28-1.16h-1l.27,1.16-.77-.79-.5.87,1.07.34-1.07.33.5.86.77-.79Zm-3.11,4.06a1.92,1.92,0,0,0,1.92-2v0c0-.92-.34-1.41-1.31-2.35-.48-.49-.62-.69-.62-.94h0a.49.49,0,0,1,.54-.5,2.14,2.14,0,0,1,1.11.35v-1.54a3.09,3.09,0,0,0-1.26-.25,1.87,1.87,0,0,0-1.92,2v0c0,1,.41,1.46,1.31,2.31.48.47.63.73.63,1h0a.51.51,0,0,1-.58.53,2.53,2.53,0,0,1-1.26-.43v1.52a3,3,0,0,0,1.44.37m-3.61,0a1.93,1.93,0,0,0,1.93-2v0c0-.92-.35-1.41-1.31-2.35-.48-.49-.63-.69-.63-.94h0a.49.49,0,0,1,.54-.5,2.11,2.11,0,0,1,1.11.35v-1.54a3.05,3.05,0,0,0-1.26-.25A1.86,1.86,0,0,0,93,126v0c0,1,.4,1.46,1.31,2.31.48.47.62.73.62,1h0c0,.35-.22.53-.58.53a2.5,2.5,0,0,1-1.25-.43v1.52a3,3,0,0,0,1.43.37m-4.2-2.67.35-2.24L91,128.6Zm-1.87,2.58H89.9l.2-1.28h1.06l.2,1.28h1.52L91.53,124H89.78Zm-2.91,0h2.88v-1.45H87v-5.67H85.51Zm-2.07.11a3.45,3.45,0,0,0,1.53-.41V127H83.05v1.34h.54v1.52l-.12,0c-.42,0-.89-.38-.89-2v-.48c0-1.38.45-2,1.11-2a1.92,1.92,0,0,1,1,.36v-1.55a2.4,2.4,0,0,0-1.16-.26c-1.45,0-2.55,1.17-2.55,3.46v.4c0,2.41,1.07,3.47,2.42,3.47"/><path class="cls-6" d="M125.22,277.26c-.3,0-.55-.3-.55-1.23v-.11c0-.9.23-1.24.55-1.24s.54.34.54,1.24V276c0,.93-.23,1.23-.54,1.23m0-4c-.3,0-.49-.34-.49-1.1v-.09c0-.83.21-1.08.49-1.08s.5.25.5,1.08v.09c0,.76-.2,1.1-.5,1.1m0,5.48a2.34,2.34,0,0,0,2.37-2.61v-.1a2.55,2.55,0,0,0-1-2.18,2.25,2.25,0,0,0,.92-1.89v-.09a2.26,2.26,0,1,0-4.51,0V272a2.27,2.27,0,0,0,.9,1.9,2.56,2.56,0,0,0-1,2.17v.1a2.32,2.32,0,0,0,2.34,2.6m-4.86-.17h1.91v-8.94H120.9l-1.47.46V272l.92-.28Zm-3.68-1.6c-.36,0-.6-.38-.6-2.47v-.76c0-2.1.24-2.48.6-2.48s.6.38.6,2.48v.76c0,2.09-.24,2.47-.6,2.47m0,1.77c1.58,0,2.49-1.39,2.49-4.35v-.55c0-3-.9-4.34-2.48-4.34s-2.5,1.39-2.5,4.35v.55c0,3,.89,4.34,2.49,4.34m-7-.17h4.1v-1.88h-2.1l1.43-2.63a4.64,4.64,0,0,0,.71-2.32v-.06a2,2,0,0,0-2.15-2.15,4.37,4.37,0,0,0-1.81.4v1.85a2.78,2.78,0,0,1,1.31-.41.7.7,0,0,1,.77.75,4,4,0,0,1-.6,1.62L109.64,277Z"/><path class="cls-6" d="M87.17,277.14c-.31,0-.52-.38-.52-1.55v-1.17a.72.72,0,0,1,.44-.14c.33,0,.59.25.59,1.14v.35c0,1-.19,1.37-.51,1.37m0,1.63c1.28,0,2.27-1.11,2.27-3.08v-.34c0-2-.93-2.57-1.83-2.57a1.74,1.74,0,0,0-1,.3c0-1.36.46-1.83,1.18-1.83a2.41,2.41,0,0,1,1,.24v-1.74a4.1,4.1,0,0,0-1.2-.18c-1.56,0-2.84.94-2.84,4.63v.26c0,1.92.32,3.13,1,3.75a1.92,1.92,0,0,0,1.43.56M81.86,277c-.36,0-.6-.38-.6-2.47v-.76c0-2.1.24-2.48.6-2.48s.6.38.6,2.48v.76c0,2.09-.24,2.47-.6,2.47m0,1.77c1.58,0,2.5-1.39,2.5-4.35v-.55c0-3-.91-4.34-2.49-4.34s-2.5,1.39-2.5,4.35v.55c0,3,.89,4.34,2.49,4.34M76.41,277c-.35,0-.6-.38-.6-2.47v-.76c0-2.1.25-2.48.6-2.48s.6.38.6,2.48v.76c0,2.09-.24,2.47-.6,2.47m0,1.77c1.58,0,2.5-1.39,2.5-4.35v-.55c0-3-.91-4.34-2.48-4.34s-2.51,1.39-2.51,4.35v.55c0,3,.89,4.34,2.49,4.34m-7-.17h4.1v-1.88h-2.1l1.42-2.63a4.54,4.54,0,0,0,.71-2.32v-.06a2,2,0,0,0-2.15-2.15,4.35,4.35,0,0,0-1.8.4v1.85a2.71,2.71,0,0,1,1.31-.41.7.7,0,0,1,.76.75,3.81,3.81,0,0,1-.6,1.62L69.39,277Z"/><path class="cls-13" d="M72.79,242.08h2.88v-1.45H74.32V235H72.79ZM70,239.5l.35-2.24.33,2.24Zm-1.87,2.58h1.48l.2-1.28h1.07l.19,1.28h1.53l-1.36-7.14H69.44Zm-2.13,0h1.53v-5.67h.93V235H65v1.45H66Zm-4.35,0h3.12v-1.45H63.13v-1.42h1.38v-1.42H63.13V236.4h1.56V235H61.6Zm-5.2,0h1.46v-3.82l.85,2.34h0l.84-2.34v3.82H61V235H59.56l-.84,2.38L57.87,235H56.4Z"/><path class="cls-13" d="M109,165.11h1l-.29-1.17.77.78.51-.85-1.07-.34,1.07-.33-.51-.87-.77.79L110,162h-1l.27,1.16-.77-.79-.5.87,1.07.33-1.07.34.5.85.77-.78Zm-5.35,4h1.53v-2.86h.92v2.86h1.52V162h-1.52v2.81h-.92V162h-1.53Zm-2.29.08a1.91,1.91,0,0,0,1.92-2v0c0-.92-.34-1.41-1.31-2.35-.48-.49-.62-.69-.62-.94h0a.49.49,0,0,1,.54-.5,2.14,2.14,0,0,1,1.11.35v-1.54a3.07,3.07,0,0,0-1.26-.26,1.88,1.88,0,0,0-1.92,2v0c0,1,.41,1.46,1.32,2.31.48.47.62.73.62.95h0a.51.51,0,0,1-.58.53,2.47,2.47,0,0,1-1.25-.43v1.52a3,3,0,0,0,1.43.36m-4.2-2.66.34-2.24.34,2.24Zm-1.88,2.58h1.49l.19-1.28H98l.19,1.28h1.53l-1.35-7.14H96.61Zm-2.41-3.6v-2.16h0c.44,0,.76.23.76,1v.15c0,.73-.31,1-.75,1Zm-1.52,3.6h1.52v-2.32H93l.72,2.32H95.3l-.94-2.82a2.22,2.22,0,0,0,.83-1.89v-.1a2.3,2.3,0,0,0-.6-1.71,2.41,2.41,0,0,0-1.75-.6H91.31Zm-2.86,0H90v-5.67h.93V162h-3.4v1.45h.94Z"/><path class="cls-13" d="M84.75,205.37a2,2,0,0,0,1.06-.27v-1.47a1.6,1.6,0,0,1-.77.25c-.58,0-1-.34-1-2v-.27c0-1.61.44-2,1-2a1.52,1.52,0,0,1,.78.25v-1.54a2,2,0,0,0-.93-.19c-1.24,0-2.35,1-2.35,3.47v.36c0,2.4,1,3.46,2.25,3.46m-4.26-.08H82v-7.13H80.49Zm-2.88,0h1.53v-5.67h.93v-1.46h-3.4v1.46h.94Zm-2.87.08a1.91,1.91,0,0,0,1.92-2v-.05c0-.91-.34-1.4-1.31-2.35-.48-.49-.62-.68-.62-.94h0a.49.49,0,0,1,.54-.49,2.24,2.24,0,0,1,1.11.34v-1.54a3.12,3.12,0,0,0-1.26-.25,1.87,1.87,0,0,0-1.92,2v0c0,.95.41,1.45,1.31,2.31.48.47.63.72.63.95h0a.52.52,0,0,1-.59.53,2.64,2.64,0,0,1-1.25-.43V205a2.92,2.92,0,0,0,1.44.37m-4.21-2.67.35-2.24.33,2.24Zm-1.87,2.59h1.49l.19-1.28h1.07l.19,1.28h1.53l-1.36-7.15H70Zm-2.9,0h2.88v-1.46H67.28v-5.67H65.76Zm-2.65-3.5v-2.28h0c.44,0,.73.32.73,1.08v.13c0,.74-.31,1.05-.74,1.07Zm-1.52,3.5h1.52v-2.15h0a2.23,2.23,0,0,0,2.24-2.46v-.09A2.18,2.18,0,0,0,63,198.16H61.59Z"/><path class="cls-13" d="M185.83,47.59h1l-.28-1.17.77.79.51-.86L186.78,46l1.07-.34-.51-.87-.77.79.28-1.16h-1l.28,1.16-.77-.79-.5.87,1.07.34-1.07.33.5.86.77-.79Zm-3.6.37V45.8h0c.44,0,.76.23.76,1V47c0,.73-.31,1-.75,1Zm-1.52,3.6h1.52V49.24h.12l.73,2.32h1.62l-.94-2.82a2.22,2.22,0,0,0,.83-1.89v-.1A2.3,2.3,0,0,0,184,45a2.41,2.41,0,0,0-1.75-.6h-1.53Zm-3.58,0h3.11V50.11h-1.59V48.69H180V47.27h-1.39V45.88h1.56V44.44h-3.08Zm-2.65-3.5V45.79h0c.44,0,.73.32.73,1.08V47c0,.75-.31,1-.74,1.07ZM173,51.56h1.52V49.41h0A2.23,2.23,0,0,0,176.76,47v-.08a2.18,2.18,0,0,0-2.39-2.43H173ZM170.12,49l.35-2.24L170.8,49Zm-1.87,2.58h1.49l.19-1.28H171l.19,1.28h1.53l-1.36-7.14h-1.75Zm-1.92-3.5V45.79h0c.44,0,.74.32.74,1.08V47c0,.75-.32,1-.75,1.07Zm-1.51,3.5h1.51V49.41h0A2.22,2.22,0,0,0,168.61,47v-.08a2.17,2.17,0,0,0-2.39-2.43h-1.4Z"/><path class="cls-13" d="M149.22,88.07v.37c0,1.55-.44,2-1,2V86.1c.56,0,1,.4,1,2m-2.53,3.75h1.43c1.73,0,2.66-1.18,2.66-3.39v-.35c0-2.21-.93-3.39-2.66-3.39h-1.43Zm-2.79-3.6V86.06h0c.44,0,.77.23.77,1v.15c0,.73-.32,1-.76,1Zm-1.51,3.6h1.51V89.5H144l.73,2.32h1.63L145.43,89a2.21,2.21,0,0,0,.83-1.89V87a2.34,2.34,0,0,0-.6-1.72,2.42,2.42,0,0,0-1.75-.6h-1.52Zm-2.85-2.58.35-2.24.34,2.24Zm-1.87,2.58h1.49l.19-1.28h1.07l.19,1.28h1.53l-1.35-7.15H139Zm-2.08-1.28c-.33,0-.55-.37-.55-2.05V88c0-1.67.22-2,.55-2s.54.37.54,2v.48c0,1.68-.2,2.05-.54,2.05m0,1.41c1.29,0,2.1-1.16,2.1-3.47V88c0-2.32-.81-3.47-2.1-3.47s-2.1,1.15-2.1,3.47v.45c0,2.31.81,3.47,2.1,3.47m-3.91-2.33v0a.72.72,0,0,1-.79.76h-.08V88.86h.08a.71.71,0,0,1,.79.76m-.06-2.78a.69.69,0,0,1-.75.78h-.06V86.1h.06a.66.66,0,0,1,.75.73Zm-2.3,5h1.44c1.45,0,2.45-.66,2.45-2v-.1a1.66,1.66,0,0,0-1.05-1.56,1.7,1.7,0,0,0,1-1.55v-.08a1.69,1.69,0,0,0-.47-1.25,2.72,2.72,0,0,0-1.91-.6h-1.41Zm-2-3.75v.37c0,1.55-.44,2-1,2V86.1c.56,0,1,.4,1,2m-2.53,3.75h1.42c1.74,0,2.66-1.18,2.66-3.39v-.35c0-2.21-.92-3.39-2.66-3.39h-1.42ZM122,88.22V86.06h0c.44,0,.76.23.76,1v.15c0,.73-.31,1-.75,1Zm-1.52,3.6H122V89.5h.12l.73,2.32h1.62L123.51,89a2.21,2.21,0,0,0,.83-1.89V87a2.34,2.34,0,0,0-.6-1.72,2.45,2.45,0,0,0-1.75-.6h-1.53Zm-2.84-2.58L118,87l.33,2.24Zm-1.87,2.58h1.48l.2-1.28h1.07l.19,1.28h1.53l-1.36-7.15h-1.75Zm-1.22.08a1.91,1.91,0,0,0,1-.27V90.16a1.49,1.49,0,0,1-.76.26c-.58,0-1-.35-1-2v-.26c0-1.61.44-2,1-2a1.49,1.49,0,0,1,.77.25V84.81a1.87,1.87,0,0,0-.92-.2c-1.24,0-2.35,1-2.35,3.47v.36c0,2.4,1,3.46,2.25,3.46"/></g></g></svg>